{
  "header": {
    "keySignatures": [],
    "meta": [],
    "name": "Grand Piano",
    "ppq": 384,
    "tempos": [
      {
        "bpm": 155.00031000062,
        "ticks": 0
      }
    ],
    "timeSignatures": [
      {
        "ticks": 0,
        "timeSignature": [
          4,
          4
        ],
        "measures": 0
      }
    ]
  },
  "tracks": [
    {
      "channel": 0,
      "controlChanges": {},
      "pitchBends": [],
      "instrument": {
        "family": "piano",
        "number": 0,
        "name": "acoustic grand piano"
      },
      "name": "Grand Piano",
      "notes": [
        {
          "duration": 1.548384,
          "durationTicks": 1536,
          "midi": 62,
          "name": "D4",
          "ticks": 0,
          "time": 0,
          "velocity": 0.31496062992125984
        },
        {
          "duration": 1.548384,
          "durationTicks": 1536,
          "midi": 67,
          "name": "G4",
          "ticks": 0,
          "time": 0,
          "velocity": 0.31496062992125984
        },
        {
          "duration": 1.548384,
          "durationTicks": 1536,
          "midi": 74,
          "name": "D5",
          "ticks": 0,
          "time": 0,
          "velocity": 0.31496062992125984
        },
        {
          "duration": 0.38709600000000055,
          "durationTicks": 384,
          "midi": 84,
          "name": "C6",
          "ticks": 4606,
          "time": 4.643135875,
          "velocity": 0.2440944881889764
        },
        {
          "duration": 0.29032200000000064,
          "durationTicks": 288,
          "midi": 84,
          "name": "C6",
          "ticks": 5000,
          "time": 5.0403125,
          "velocity": 0.2283464566929134
        },
        {
          "duration": 0.0967740000000008,
          "durationTicks": 96,
          "midi": 82,
          "name": "A#5",
          "ticks": 5282,
          "time": 5.324586125,
          "velocity": 0.2283464566929134
        },
        {
          "duration": 0.09677399999999992,
          "durationTicks": 96,
          "midi": 84,
          "name": "C6",
          "ticks": 5380,
          "time": 5.42337625,
          "velocity": 0.2125984251968504
        },
        {
          "duration": 0.09677399999999992,
          "durationTicks": 96,
          "midi": 82,
          "name": "A#5",
          "ticks": 5571,
          "time": 5.6159161875,
          "velocity": 0.2283464566929134
        },
        {
          "duration": 0.09677399999999992,
          "durationTicks": 96,
          "midi": 80,
          "name": "G#5",
          "ticks": 5761,
          "time": 5.8074480625,
          "velocity": 0.2283464566929134
        },
        {
          "duration": 0.0967740000000008,
          "durationTicks": 96,
          "midi": 79,
          "name": "G5",
          "ticks": 5950,
          "time": 5.997971874999999,
          "velocity": 0.2283464566929134
        },
        {
          "duration": 0.0967740000000008,
          "durationTicks": 96,
          "midi": 82,
          "name": "A#5",
          "ticks": 6142,
          "time": 6.191519875,
          "velocity": 0.2283464566929134
        },
        {
          "duration": 0.09677399999999992,
          "durationTicks": 96,
          "midi": 80,
          "name": "G#5",
          "ticks": 6251,
          "time": 6.3013986875,
          "velocity": 0.2283464566929134
        },
        {
          "duration": 0.09677399999999992,
          "durationTicks": 96,
          "midi": 79,
          "name": "G5",
          "ticks": 6344,
          "time": 6.3951484999999995,
          "velocity": 0.2283464566929134
        },
        {
          "duration": 0.09677399999999992,
          "durationTicks": 96,
          "midi": 77,
          "name": "F5",
          "ticks": 6438,
          "time": 6.489906375,
          "velocity": 0.2283464566929134
        },
        {
          "duration": 0.09677399999999992,
          "durationTicks": 96,
          "midi": 75,
          "name": "D#5",
          "ticks": 6535,
          "time": 6.587688437500001,
          "velocity": 0.2125984251968504
        },
        {
          "duration": 0.09677399999999992,
          "durationTicks": 96,
          "midi": 77,
          "name": "F5",
          "ticks": 6724,
          "time": 6.77821225,
          "velocity": 0.2283464566929134
        },
        {
          "duration": 0.7741920000000002,
          "durationTicks": 768,
          "midi": 79,
          "name": "G5",
          "ticks": 6915,
          "time": 6.9707521875,
          "velocity": 0.23622047244094488
        },
        {
          "duration": 0.38709600000000055,
          "durationTicks": 384,
          "midi": 82,
          "name": "A#5",
          "ticks": 7677,
          "time": 7.7388958125,
          "velocity": 0.2440944881889764
        },
        {
          "duration": 0.29032199999999975,
          "durationTicks": 288,
          "midi": 82,
          "name": "A#5",
          "ticks": 8071,
          "time": 8.136072437500001,
          "velocity": 0.2283464566929134
        },
        {
          "duration": 0.09677399999999992,
          "durationTicks": 96,
          "midi": 80,
          "name": "G#5",
          "ticks": 8353,
          "time": 8.4203460625,
          "velocity": 0.2283464566929134
        },
        {
          "duration": 0.09677399999999992,
          "durationTicks": 96,
          "midi": 79,
          "name": "G5",
          "ticks": 8451,
          "time": 8.5191361875,
          "velocity": 0.2125984251968504
        },
        {
          "duration": 0.09677399999999992,
          "durationTicks": 96,
          "midi": 77,
          "name": "F5",
          "ticks": 8642,
          "time": 8.711676125,
          "velocity": 0.2283464566929134
        },
        {
          "duration": 0.09677399999999992,
          "durationTicks": 96,
          "midi": 75,
          "name": "D#5",
          "ticks": 8832,
          "time": 8.903208,
          "velocity": 0.2283464566929134
        },
        {
          "duration": 0.09677399999999992,
          "durationTicks": 96,
          "midi": 77,
          "name": "F5",
          "ticks": 9021,
          "time": 9.0937318125,
          "velocity": 0.2283464566929134
        },
        {
          "duration": 0.09677399999999992,
          "durationTicks": 96,
          "midi": 79,
          "name": "G5",
          "ticks": 9213,
          "time": 9.2872798125,
          "velocity": 0.2283464566929134
        },
        {
          "duration": 0.09677399999999992,
          "durationTicks": 96,
          "midi": 75,
          "name": "D#5",
          "ticks": 9322,
          "time": 9.397158625000001,
          "velocity": 0.2283464566929134
        },
        {
          "duration": 0.09677399999999992,
          "durationTicks": 96,
          "midi": 72,
          "name": "C5",
          "ticks": 9415,
          "time": 9.4909084375,
          "velocity": 0.2283464566929134
        },
        {
          "duration": 0.09677399999999992,
          "durationTicks": 96,
          "midi": 75,
          "name": "D#5",
          "ticks": 9509,
          "time": 9.585666312499999,
          "velocity": 0.2283464566929134
        },
        {
          "duration": 0.09677399999999992,
          "durationTicks": 96,
          "midi": 79,
          "name": "G5",
          "ticks": 9606,
          "time": 9.683448375,
          "velocity": 0.2125984251968504
        },
        {
          "duration": 0.09677399999999992,
          "durationTicks": 96,
          "midi": 77,
          "name": "F5",
          "ticks": 9795,
          "time": 9.8739721875,
          "velocity": 0.2283464566929134
        },
        {
          "duration": 0.38709599999999966,
          "durationTicks": 384,
          "midi": 75,
          "name": "D#5",
          "ticks": 9986,
          "time": 10.066512125,
          "velocity": 0.23622047244094488
        },
        {
          "duration": 0.38709599999999966,
          "durationTicks": 384,
          "midi": 74,
          "name": "D5",
          "ticks": 10367,
          "time": 10.4505839375,
          "velocity": 0.2283464566929134
        },
        {
          "duration": 0.38709599999999966,
          "durationTicks": 384,
          "midi": 84,
          "name": "C6",
          "ticks": 10748,
          "time": 10.83465575,
          "velocity": 0.2440944881889764
        },
        {
          "duration": 0.29032199999999975,
          "durationTicks": 288,
          "midi": 84,
          "name": "C6",
          "ticks": 11142,
          "time": 11.231832375,
          "velocity": 0.2283464566929134
        },
        {
          "duration": 0.09677399999999992,
          "durationTicks": 96,
          "midi": 82,
          "name": "A#5",
          "ticks": 11424,
          "time": 11.516106,
          "velocity": 0.2283464566929134
        },
        {
          "duration": 0.09677399999999992,
          "durationTicks": 96,
          "midi": 84,
          "name": "C6",
          "ticks": 11522,
          "time": 11.614896125,
          "velocity": 0.2125984251968504
        },
        {
          "duration": 0.09677399999999992,
          "durationTicks": 96,
          "midi": 82,
          "name": "A#5",
          "ticks": 11713,
          "time": 11.8074360625,
          "velocity": 0.2283464566929134
        },
        {
          "duration": 0.09677399999999992,
          "durationTicks": 96,
          "midi": 80,
          "name": "G#5",
          "ticks": 11903,
          "time": 11.9989679375,
          "velocity": 0.2283464566929134
        },
        {
          "duration": 0.09677399999999992,
          "durationTicks": 96,
          "midi": 79,
          "name": "G5",
          "ticks": 12092,
          "time": 12.18949175,
          "velocity": 0.2283464566929134
        },
        {
          "duration": 0.09677399999999992,
          "durationTicks": 96,
          "midi": 82,
          "name": "A#5",
          "ticks": 12284,
          "time": 12.38303975,
          "velocity": 0.2283464566929134
        },
        {
          "duration": 0.09677399999999992,
          "durationTicks": 96,
          "midi": 80,
          "name": "G#5",
          "ticks": 12393,
          "time": 12.4929185625,
          "velocity": 0.2283464566929134
        },
        {
          "duration": 0.09677399999999992,
          "durationTicks": 96,
          "midi": 79,
          "name": "G5",
          "ticks": 12486,
          "time": 12.586668375,
          "velocity": 0.2283464566929134
        },
        {
          "duration": 0.09677399999999992,
          "durationTicks": 96,
          "midi": 77,
          "name": "F5",
          "ticks": 12580,
          "time": 12.68142625,
          "velocity": 0.2283464566929134
        },
        {
          "duration": 0.09677399999999992,
          "durationTicks": 96,
          "midi": 75,
          "name": "D#5",
          "ticks": 12677,
          "time": 12.779208312500002,
          "velocity": 0.2125984251968504
        },
        {
          "duration": 0.09677399999999992,
          "durationTicks": 96,
          "midi": 77,
          "name": "F5",
          "ticks": 12866,
          "time": 12.969732125,
          "velocity": 0.2283464566929134
        },
        {
          "duration": 0.7741919999999993,
          "durationTicks": 768,
          "midi": 79,
          "name": "G5",
          "ticks": 13057,
          "time": 13.1622720625,
          "velocity": 0.23622047244094488
        },
        {
          "duration": 0.38709600000000144,
          "durationTicks": 384,
          "midi": 82,
          "name": "A#5",
          "ticks": 13819,
          "time": 13.930415687499998,
          "velocity": 0.2440944881889764
        },
        {
          "duration": 0.29032199999999975,
          "durationTicks": 288,
          "midi": 82,
          "name": "A#5",
          "ticks": 14213,
          "time": 14.3275923125,
          "velocity": 0.2283464566929134
        },
        {
          "duration": 0.09677399999999992,
          "durationTicks": 96,
          "midi": 80,
          "name": "G#5",
          "ticks": 14495,
          "time": 14.611865937500001,
          "velocity": 0.2283464566929134
        },
        {
          "duration": 0.09677399999999992,
          "durationTicks": 96,
          "midi": 79,
          "name": "G5",
          "ticks": 14593,
          "time": 14.710656062499998,
          "velocity": 0.2125984251968504
        },
        {
          "duration": 0.09677399999999992,
          "durationTicks": 96,
          "midi": 77,
          "name": "F5",
          "ticks": 14784,
          "time": 14.903196,
          "velocity": 0.2283464566929134
        },
        {
          "duration": 0.09677399999999992,
          "durationTicks": 96,
          "midi": 75,
          "name": "D#5",
          "ticks": 14974,
          "time": 15.094727874999998,
          "velocity": 0.2283464566929134
        },
        {
          "duration": 0.09677399999999992,
          "durationTicks": 96,
          "midi": 77,
          "name": "F5",
          "ticks": 15163,
          "time": 15.285251687499999,
          "velocity": 0.2283464566929134
        },
        {
          "duration": 0.09677399999999992,
          "durationTicks": 96,
          "midi": 79,
          "name": "G5",
          "ticks": 15355,
          "time": 15.478799687499999,
          "velocity": 0.2283464566929134
        },
        {
          "duration": 0.09677399999999992,
          "durationTicks": 96,
          "midi": 75,
          "name": "D#5",
          "ticks": 15464,
          "time": 15.5886785,
          "velocity": 0.2283464566929134
        },
        {
          "duration": 0.09677399999999992,
          "durationTicks": 96,
          "midi": 72,
          "name": "C5",
          "ticks": 15557,
          "time": 15.6824283125,
          "velocity": 0.2283464566929134
        },
        {
          "duration": 0.09677399999999992,
          "durationTicks": 96,
          "midi": 75,
          "name": "D#5",
          "ticks": 15651,
          "time": 15.7771861875,
          "velocity": 0.2283464566929134
        },
        {
          "duration": 0.09677399999999992,
          "durationTicks": 96,
          "midi": 79,
          "name": "G5",
          "ticks": 15748,
          "time": 15.874968249999998,
          "velocity": 0.2125984251968504
        },
        {
          "duration": 0.09677399999999992,
          "durationTicks": 96,
          "midi": 77,
          "name": "F5",
          "ticks": 15937,
          "time": 16.0654920625,
          "velocity": 0.2283464566929134
        },
        {
          "duration": 0.38709599999999966,
          "durationTicks": 384,
          "midi": 75,
          "name": "D#5",
          "ticks": 16128,
          "time": 16.258032,
          "velocity": 0.23622047244094488
        },
        {
          "duration": 0.38709599999999966,
          "durationTicks": 384,
          "midi": 74,
          "name": "D5",
          "ticks": 16509,
          "time": 16.6421038125,
          "velocity": 0.2283464566929134
        },
        {
          "duration": 0.09677399999999992,
          "durationTicks": 96,
          "midi": 72,
          "name": "C5",
          "ticks": 17093,
          "time": 17.2308123125,
          "velocity": 0.2283464566929134
        },
        {
          "duration": 0.09677399999999992,
          "durationTicks": 96,
          "midi": 74,
          "name": "D5",
          "ticks": 17187,
          "time": 17.3255701875,
          "velocity": 0.2283464566929134
        },
        {
          "duration": 0.09677399999999992,
          "durationTicks": 96,
          "midi": 75,
          "name": "D#5",
          "ticks": 17284,
          "time": 17.42335225,
          "velocity": 0.2125984251968504
        },
        {
          "duration": 0.09677399999999992,
          "durationTicks": 96,
          "midi": 72,
          "name": "C5",
          "ticks": 17473,
          "time": 17.613876062499997,
          "velocity": 0.2283464566929134
        },
        {
          "duration": 0.19354799999999983,
          "durationTicks": 192,
          "midi": 77,
          "name": "F5",
          "ticks": 17664,
          "time": 17.806416,
          "velocity": 0.2283464566929134
        },
        {
          "duration": 0.09677399999999992,
          "durationTicks": 96,
          "midi": 75,
          "name": "D#5",
          "ticks": 17855,
          "time": 17.9989559375,
          "velocity": 0.2125984251968504
        },
        {
          "duration": 0.09677399999999992,
          "durationTicks": 96,
          "midi": 74,
          "name": "D5",
          "ticks": 18045,
          "time": 18.1904878125,
          "velocity": 0.2283464566929134
        },
        {
          "duration": 0.09677399999999992,
          "durationTicks": 96,
          "midi": 72,
          "name": "C5",
          "ticks": 18234,
          "time": 18.381011625,
          "velocity": 0.2283464566929134
        },
        {
          "duration": 0.29032199999999975,
          "durationTicks": 288,
          "midi": 70,
          "name": "A#4",
          "ticks": 18426,
          "time": 18.574559625,
          "velocity": 0.2440944881889764
        },
        {
          "duration": 0.09677399999999992,
          "durationTicks": 96,
          "midi": 68,
          "name": "G#4",
          "ticks": 18723,
          "time": 18.8739541875,
          "velocity": 0.2283464566929134
        },
        {
          "duration": 0.09677399999999992,
          "durationTicks": 96,
          "midi": 67,
          "name": "G4",
          "ticks": 18820,
          "time": 18.97173625,
          "velocity": 0.2125984251968504
        },
        {
          "duration": 0.19354799999999983,
          "durationTicks": 192,
          "midi": 68,
          "name": "G#4",
          "ticks": 19009,
          "time": 19.1622600625,
          "velocity": 0.2283464566929134
        },
        {
          "duration": 0.38709599999999966,
          "durationTicks": 384,
          "midi": 70,
          "name": "A#4",
          "ticks": 19200,
          "time": 19.3548,
          "velocity": 0.23622047244094488
        },
        {
          "duration": 0.38709599999999966,
          "durationTicks": 384,
          "midi": 65,
          "name": "F4",
          "ticks": 19581,
          "time": 19.7388718125,
          "velocity": 0.2283464566929134
        },
        {
          "duration": 0.09677399999999992,
          "durationTicks": 96,
          "midi": 62,
          "name": "D4",
          "ticks": 20165,
          "time": 20.3275803125,
          "velocity": 0.2283464566929134
        },
        {
          "duration": 0.09677399999999992,
          "durationTicks": 96,
          "midi": 63,
          "name": "D#4",
          "ticks": 20259,
          "time": 20.4223381875,
          "velocity": 0.2283464566929134
        },
        {
          "duration": 0.09677399999999992,
          "durationTicks": 96,
          "midi": 65,
          "name": "F4",
          "ticks": 20356,
          "time": 20.520120249999998,
          "velocity": 0.2125984251968504
        },
        {
          "duration": 0.09677399999999992,
          "durationTicks": 96,
          "midi": 62,
          "name": "D4",
          "ticks": 20545,
          "time": 20.7106440625,
          "velocity": 0.2283464566929134
        },
        {
          "duration": 0.19354799999999983,
          "durationTicks": 192,
          "midi": 67,
          "name": "G4",
          "ticks": 20736,
          "time": 20.903184,
          "velocity": 0.2283464566929134
        },
        {
          "duration": 0.09677399999999992,
          "durationTicks": 96,
          "midi": 65,
          "name": "F4",
          "ticks": 20927,
          "time": 21.0957239375,
          "velocity": 0.2125984251968504
        },
        {
          "duration": 0.09677399999999992,
          "durationTicks": 96,
          "midi": 63,
          "name": "D#4",
          "ticks": 21117,
          "time": 21.2872558125,
          "velocity": 0.2283464566929134
        },
        {
          "duration": 0.09677399999999992,
          "durationTicks": 96,
          "midi": 62,
          "name": "D4",
          "ticks": 21306,
          "time": 21.477779625,
          "velocity": 0.2283464566929134
        },
        {
          "duration": 0.38709599999999966,
          "durationTicks": 384,
          "midi": 63,
          "name": "D#4",
          "ticks": 21498,
          "time": 21.671327625,
          "velocity": 0.2440944881889764
        },
        {
          "duration": 0.38709599999999966,
          "durationTicks": 384,
          "midi": 63,
          "name": "D#4",
          "ticks": 21892,
          "time": 22.06850425,
          "velocity": 0.2283464566929134
        },
        {
          "duration": 0.7741920000000029,
          "durationTicks": 768,
          "midi": 62,
          "name": "D4",
          "ticks": 22272,
          "time": 22.451567999999998,
          "velocity": 0.23622047244094488
        },
        {
          "duration": 0.09677399999999992,
          "durationTicks": 96,
          "midi": 72,
          "name": "C5",
          "ticks": 23237,
          "time": 23.4243483125,
          "velocity": 0.2283464566929134
        },
        {
          "duration": 0.09677399999999992,
          "durationTicks": 96,
          "midi": 74,
          "name": "D5",
          "ticks": 23331,
          "time": 23.5191061875,
          "velocity": 0.2283464566929134
        },
        {
          "duration": 0.09677399999999992,
          "durationTicks": 96,
          "midi": 75,
          "name": "D#5",
          "ticks": 23428,
          "time": 23.61688825,
          "velocity": 0.2125984251968504
        },
        {
          "duration": 0.09677399999999992,
          "durationTicks": 96,
          "midi": 72,
          "name": "C5",
          "ticks": 23617,
          "time": 23.8074120625,
          "velocity": 0.2283464566929134
        },
        {
          "duration": 0.19354799999999983,
          "durationTicks": 192,
          "midi": 77,
          "name": "F5",
          "ticks": 23808,
          "time": 23.999952,
          "velocity": 0.2283464566929134
        },
        {
          "duration": 0.09677399999999992,
          "durationTicks": 96,
          "midi": 75,
          "name": "D#5",
          "ticks": 23999,
          "time": 24.1924919375,
          "velocity": 0.2125984251968504
        },
        {
          "duration": 0.09677399999999992,
          "durationTicks": 96,
          "midi": 74,
          "name": "D5",
          "ticks": 24189,
          "time": 24.3840238125,
          "velocity": 0.2283464566929134
        },
        {
          "duration": 0.09677399999999992,
          "durationTicks": 96,
          "midi": 72,
          "name": "C5",
          "ticks": 24378,
          "time": 24.574547625,
          "velocity": 0.2283464566929134
        },
        {
          "duration": 0.09677399999999992,
          "durationTicks": 96,
          "midi": 70,
          "name": "A#4",
          "ticks": 24570,
          "time": 24.768095625,
          "velocity": 0.2283464566929134
        },
        {
          "duration": 0.09677399999999992,
          "durationTicks": 96,
          "midi": 68,
          "name": "G#4",
          "ticks": 24679,
          "time": 24.8779744375,
          "velocity": 0.2283464566929134
        },
        {
          "duration": 0.09677399999999992,
          "durationTicks": 96,
          "midi": 67,
          "name": "G4",
          "ticks": 24772,
          "time": 24.97172425,
          "velocity": 0.2283464566929134
        },
        {
          "duration": 0.09677399999999992,
          "durationTicks": 96,
          "midi": 68,
          "name": "G#4",
          "ticks": 24866,
          "time": 25.066482124999997,
          "velocity": 0.2283464566929134
        },
        {
          "duration": 0.09677399999999992,
          "durationTicks": 96,
          "midi": 70,
          "name": "A#4",
          "ticks": 24963,
          "time": 25.1642641875,
          "velocity": 0.2125984251968504
        },
        {
          "duration": 0.09677399999999992,
          "durationTicks": 96,
          "midi": 68,
          "name": "G#4",
          "ticks": 25152,
          "time": 25.354788,
          "velocity": 0.2283464566929134
        },
        {
          "duration": 0.38709599999999966,
          "durationTicks": 384,
          "midi": 67,
          "name": "G4",
          "ticks": 25343,
          "time": 25.547327937499997,
          "velocity": 0.23622047244094488
        },
        {
          "duration": 0.38709599999999966,
          "durationTicks": 384,
          "midi": 63,
          "name": "D#4",
          "ticks": 25724,
          "time": 25.931399749999997,
          "velocity": 0.2283464566929134
        },
        {
          "duration": 0.09677400000000347,
          "durationTicks": 96,
          "midi": 62,
          "name": "D4",
          "ticks": 26308,
          "time": 26.52010825,
          "velocity": 0.2283464566929134
        },
        {
          "duration": 0.09677399999999992,
          "durationTicks": 96,
          "midi": 63,
          "name": "D#4",
          "ticks": 26402,
          "time": 26.614866125,
          "velocity": 0.2283464566929134
        },
        {
          "duration": 0.09677399999999992,
          "durationTicks": 96,
          "midi": 65,
          "name": "F4",
          "ticks": 26499,
          "time": 26.7126481875,
          "velocity": 0.2125984251968504
        },
        {
          "duration": 0.09677399999999992,
          "durationTicks": 96,
          "midi": 62,
          "name": "D4",
          "ticks": 26688,
          "time": 26.903172,
          "velocity": 0.2283464566929134
        },
        {
          "duration": 0.19354799999999983,
          "durationTicks": 192,
          "midi": 67,
          "name": "G4",
          "ticks": 26879,
          "time": 27.0957119375,
          "velocity": 0.2283464566929134
        },
        {
          "duration": 0.09677399999999992,
          "durationTicks": 96,
          "midi": 65,
          "name": "F4",
          "ticks": 27070,
          "time": 27.288251875,
          "velocity": 0.2125984251968504
        },
        {
          "duration": 0.09677399999999992,
          "durationTicks": 96,
          "midi": 63,
          "name": "D#4",
          "ticks": 27260,
          "time": 27.47978375,
          "velocity": 0.2283464566929134
        },
        {
          "duration": 0.09677400000000347,
          "durationTicks": 96,
          "midi": 62,
          "name": "D4",
          "ticks": 27449,
          "time": 27.670307562499996,
          "velocity": 0.2283464566929134
        },
        {
          "duration": 0.09677399999999992,
          "durationTicks": 96,
          "midi": 62,
          "name": "D4",
          "ticks": 27641,
          "time": 27.8638555625,
          "velocity": 0.2440944881889764
        },
        {
          "duration": 0.09677399999999992,
          "durationTicks": 96,
          "midi": 62,
          "name": "D4",
          "ticks": 27844,
          "time": 28.068492250000002,
          "velocity": 0.2283464566929134
        },
        {
          "duration": 0.09677399999999992,
          "durationTicks": 96,
          "midi": 63,
          "name": "D#4",
          "ticks": 27938,
          "time": 28.163250124999998,
          "velocity": 0.2283464566929134
        },
        {
          "duration": 0.09677399999999992,
          "durationTicks": 96,
          "midi": 62,
          "name": "D4",
          "ticks": 28035,
          "time": 28.2610321875,
          "velocity": 0.2125984251968504
        },
        {
          "duration": 0.09677399999999992,
          "durationTicks": 96,
          "midi": 62,
          "name": "D4",
          "ticks": 28224,
          "time": 28.451556,
          "velocity": 0.2283464566929134
        },
        {
          "duration": 0.09677399999999992,
          "durationTicks": 96,
          "midi": 63,
          "name": "D#4",
          "ticks": 28317,
          "time": 28.5453058125,
          "velocity": 0.2283464566929134
        },
        {
          "duration": 0.09677399999999992,
          "durationTicks": 96,
          "midi": 62,
          "name": "D4",
          "ticks": 28415,
          "time": 28.644095937499998,
          "velocity": 0.2125984251968504
        },
        {
          "duration": 0.09677399999999992,
          "durationTicks": 96,
          "midi": 62,
          "name": "D4",
          "ticks": 28606,
          "time": 28.836635875000002,
          "velocity": 0.2283464566929134
        },
        {
          "duration": 0.09677399999999992,
          "durationTicks": 96,
          "midi": 63,
          "name": "D#4",
          "ticks": 28699,
          "time": 28.930385687500003,
          "velocity": 0.2283464566929134
        },
        {
          "duration": 0.09677399999999992,
          "durationTicks": 96,
          "midi": 62,
          "name": "D4",
          "ticks": 28796,
          "time": 29.028167749999998,
          "velocity": 0.2125984251968504
        },
        {
          "duration": 0.09677399999999992,
          "durationTicks": 96,
          "midi": 62,
          "name": "D4",
          "ticks": 28985,
          "time": 29.2186915625,
          "velocity": 0.2283464566929134
        },
        {
          "duration": 0.09677399999999992,
          "durationTicks": 96,
          "midi": 63,
          "name": "D#4",
          "ticks": 29078,
          "time": 29.312441375,
          "velocity": 0.2125984251968504
        },
        {
          "duration": 0.09677399999999992,
          "durationTicks": 96,
          "midi": 62,
          "name": "D4",
          "ticks": 29177,
          "time": 29.412239562499998,
          "velocity": 0.2440944881889764
        },
        {
          "duration": 0.09677399999999992,
          "durationTicks": 96,
          "midi": 63,
          "name": "D#4",
          "ticks": 29286,
          "time": 29.522118374999998,
          "velocity": 0.2283464566929134
        },
        {
          "duration": 0.09677399999999992,
          "durationTicks": 96,
          "midi": 62,
          "name": "D4",
          "ticks": 29379,
          "time": 29.6158681875,
          "velocity": 0.2283464566929134
        },
        {
          "duration": 0.09677399999999992,
          "durationTicks": 96,
          "midi": 63,
          "name": "D#4",
          "ticks": 29473,
          "time": 29.7106260625,
          "velocity": 0.2283464566929134
        },
        {
          "duration": 0.09677399999999992,
          "durationTicks": 96,
          "midi": 62,
          "name": "D4",
          "ticks": 29570,
          "time": 29.808408124999996,
          "velocity": 0.2283464566929134
        },
        {
          "duration": 0.09677399999999992,
          "durationTicks": 96,
          "midi": 63,
          "name": "D#4",
          "ticks": 29667,
          "time": 29.9061901875,
          "velocity": 0.2283464566929134
        },
        {
          "duration": 0.09677399999999992,
          "durationTicks": 96,
          "midi": 62,
          "name": "D4",
          "ticks": 29759,
          "time": 29.998931937499997,
          "velocity": 0.2283464566929134
        },
        {
          "duration": 0.09677399999999992,
          "durationTicks": 96,
          "midi": 63,
          "name": "D#4",
          "ticks": 29852,
          "time": 30.092681749999997,
          "velocity": 0.2283464566929134
        },
        {
          "duration": 0.09677399999999992,
          "durationTicks": 96,
          "midi": 62,
          "name": "D4",
          "ticks": 29950,
          "time": 30.191471875,
          "velocity": 0.23622047244094488
        },
        {
          "duration": 0.09677399999999992,
          "durationTicks": 96,
          "midi": 63,
          "name": "D#4",
          "ticks": 30049,
          "time": 30.2912700625,
          "velocity": 0.2283464566929134
        },
        {
          "duration": 0.09677399999999992,
          "durationTicks": 96,
          "midi": 62,
          "name": "D4",
          "ticks": 30141,
          "time": 30.3840118125,
          "velocity": 0.2283464566929134
        },
        {
          "duration": 0.09677399999999992,
          "durationTicks": 96,
          "midi": 63,
          "name": "D#4",
          "ticks": 30234,
          "time": 30.477761625,
          "velocity": 0.2283464566929134
        },
        {
          "duration": 0.09677399999999992,
          "durationTicks": 96,
          "midi": 62,
          "name": "D4",
          "ticks": 30331,
          "time": 30.5755436875,
          "velocity": 0.2283464566929134
        },
        {
          "duration": 0.09677399999999992,
          "durationTicks": 96,
          "midi": 63,
          "name": "D#4",
          "ticks": 30427,
          "time": 30.6723176875,
          "velocity": 0.2283464566929134
        },
        {
          "duration": 0.09677399999999992,
          "durationTicks": 96,
          "midi": 62,
          "name": "D4",
          "ticks": 30520,
          "time": 30.766067500000002,
          "velocity": 0.2283464566929134
        },
        {
          "duration": 0.09677399999999992,
          "durationTicks": 96,
          "midi": 63,
          "name": "D#4",
          "ticks": 30613,
          "time": 30.859817312500002,
          "velocity": 0.2283464566929134
        },
        {
          "duration": 0.09677399999999992,
          "durationTicks": 96,
          "midi": 67,
          "name": "G4",
          "ticks": 30712,
          "time": 30.9596155,
          "velocity": 0.2440944881889764
        },
        {
          "duration": 0.09677399999999992,
          "durationTicks": 96,
          "midi": 68,
          "name": "G#4",
          "ticks": 30821,
          "time": 31.069494312499998,
          "velocity": 0.2283464566929134
        },
        {
          "duration": 0.09677399999999992,
          "durationTicks": 96,
          "midi": 67,
          "name": "G4",
          "ticks": 30914,
          "time": 31.163244125,
          "velocity": 0.2283464566929134
        },
        {
          "duration": 0.09677399999999992,
          "durationTicks": 96,
          "midi": 68,
          "name": "G#4",
          "ticks": 31008,
          "time": 31.258002,
          "velocity": 0.2283464566929134
        },
        {
          "duration": 0.09677400000000347,
          "durationTicks": 96,
          "midi": 67,
          "name": "G4",
          "ticks": 31105,
          "time": 31.3557840625,
          "velocity": 0.2283464566929134
        },
        {
          "duration": 0.09677399999999992,
          "durationTicks": 96,
          "midi": 68,
          "name": "G#4",
          "ticks": 31202,
          "time": 31.453566125,
          "velocity": 0.2283464566929134
        },
        {
          "duration": 0.09677399999999992,
          "durationTicks": 96,
          "midi": 67,
          "name": "G4",
          "ticks": 31294,
          "time": 31.546307875,
          "velocity": 0.2283464566929134
        },
        {
          "duration": 0.09677399999999992,
          "durationTicks": 96,
          "midi": 68,
          "name": "G#4",
          "ticks": 31387,
          "time": 31.6400576875,
          "velocity": 0.2283464566929134
        },
        {
          "duration": 0.09677399999999992,
          "durationTicks": 96,
          "midi": 67,
          "name": "G4",
          "ticks": 31485,
          "time": 31.7388478125,
          "velocity": 0.2283464566929134
        },
        {
          "duration": 0.09677399999999992,
          "durationTicks": 96,
          "midi": 69,
          "name": "A4",
          "ticks": 31584,
          "time": 31.838646,
          "velocity": 0.2283464566929134
        },
        {
          "duration": 0.09677399999999636,
          "durationTicks": 96,
          "midi": 71,
          "name": "B4",
          "ticks": 31676,
          "time": 31.93138775,
          "velocity": 0.2283464566929134
        },
        {
          "duration": 0.09677399999999636,
          "durationTicks": 96,
          "midi": 72,
          "name": "C5",
          "ticks": 31769,
          "time": 32.0251375625,
          "velocity": 0.2283464566929134
        },
        {
          "duration": 0.09677399999999636,
          "durationTicks": 96,
          "midi": 74,
          "name": "D5",
          "ticks": 31866,
          "time": 32.122919625,
          "velocity": 0.2283464566929134
        },
        {
          "duration": 0.09677400000000347,
          "durationTicks": 96,
          "midi": 75,
          "name": "D#5",
          "ticks": 31962,
          "time": 32.219693625,
          "velocity": 0.2283464566929134
        },
        {
          "duration": 0.09677400000000347,
          "durationTicks": 96,
          "midi": 77,
          "name": "F5",
          "ticks": 32055,
          "time": 32.3134434375,
          "velocity": 0.2283464566929134
        },
        {
          "duration": 0.09677400000000347,
          "durationTicks": 96,
          "midi": 79,
          "name": "G5",
          "ticks": 32148,
          "time": 32.40719325,
          "velocity": 0.2125984251968504
        },
        {
          "duration": 0.09677400000000347,
          "durationTicks": 96,
          "midi": 83,
          "name": "B5",
          "ticks": 32245,
          "time": 32.5049753125,
          "velocity": 0.2283464566929134
        },
        {
          "duration": 0.2903220000000033,
          "durationTicks": 288,
          "midi": 84,
          "name": "C6",
          "ticks": 32323,
          "time": 32.5836041875,
          "velocity": 0.2125984251968504
        },
        {
          "duration": 0.2903220000000033,
          "durationTicks": 288,
          "midi": 84,
          "name": "C6",
          "ticks": 32641,
          "time": 32.9041680625,
          "velocity": 0.2283464566929134
        },
        {
          "duration": 0.09677399999999636,
          "durationTicks": 96,
          "midi": 82,
          "name": "A#5",
          "ticks": 32923,
          "time": 33.1884416875,
          "velocity": 0.2283464566929134
        },
        {
          "duration": 0.09677400000000347,
          "durationTicks": 96,
          "midi": 84,
          "name": "C6",
          "ticks": 33021,
          "time": 33.287231812499996,
          "velocity": 0.2125984251968504
        },
        {
          "duration": 0.09677400000000347,
          "durationTicks": 96,
          "midi": 82,
          "name": "A#5",
          "ticks": 33212,
          "time": 33.47977175,
          "velocity": 0.2283464566929134
        },
        {
          "duration": 0.09677399999999636,
          "durationTicks": 96,
          "midi": 80,
          "name": "G#5",
          "ticks": 33402,
          "time": 33.671303625,
          "velocity": 0.2283464566929134
        },
        {
          "duration": 0.09677400000000347,
          "durationTicks": 96,
          "midi": 79,
          "name": "G5",
          "ticks": 33591,
          "time": 33.8618274375,
          "velocity": 0.2283464566929134
        },
        {
          "duration": 0.09677400000000347,
          "durationTicks": 96,
          "midi": 82,
          "name": "A#5",
          "ticks": 33783,
          "time": 34.0553754375,
          "velocity": 0.2283464566929134
        },
        {
          "duration": 0.09677399999999636,
          "durationTicks": 96,
          "midi": 80,
          "name": "G#5",
          "ticks": 33892,
          "time": 34.165254250000004,
          "velocity": 0.2283464566929134
        },
        {
          "duration": 0.09677399999999636,
          "durationTicks": 96,
          "midi": 79,
          "name": "G5",
          "ticks": 33985,
          "time": 34.259004062500004,
          "velocity": 0.2283464566929134
        },
        {
          "duration": 0.09677400000000347,
          "durationTicks": 96,
          "midi": 77,
          "name": "F5",
          "ticks": 34079,
          "time": 34.353761937499996,
          "velocity": 0.2283464566929134
        },
        {
          "duration": 0.09677400000000347,
          "durationTicks": 96,
          "midi": 75,
          "name": "D#5",
          "ticks": 34176,
          "time": 34.451544,
          "velocity": 0.2125984251968504
        },
        {
          "duration": 0.09677399999999636,
          "durationTicks": 96,
          "midi": 77,
          "name": "F5",
          "ticks": 34365,
          "time": 34.6420678125,
          "velocity": 0.2283464566929134
        },
        {
          "duration": 0.7741919999999993,
          "durationTicks": 768,
          "midi": 79,
          "name": "G5",
          "ticks": 34556,
          "time": 34.834607749999996,
          "velocity": 0.23622047244094488
        },
        {
          "duration": 0.09677400000000347,
          "durationTicks": 96,
          "midi": 81,
          "name": "A5",
          "ticks": 35316,
          "time": 35.60073525,
          "velocity": 0.2283464566929134
        },
        {
          "duration": 0.2903219999999962,
          "durationTicks": 288,
          "midi": 82,
          "name": "A#5",
          "ticks": 35392,
          "time": 35.677348,
          "velocity": 0.2125984251968504
        },
        {
          "duration": 0.2903220000000033,
          "durationTicks": 288,
          "midi": 82,
          "name": "A#5",
          "ticks": 35712,
          "time": 35.999928,
          "velocity": 0.2283464566929134
        },
        {
          "duration": 0.09677399999999636,
          "durationTicks": 96,
          "midi": 80,
          "name": "G#5",
          "ticks": 35994,
          "time": 36.284201625,
          "velocity": 0.2283464566929134
        },
        {
          "duration": 0.09677400000000347,
          "durationTicks": 96,
          "midi": 79,
          "name": "G5",
          "ticks": 36092,
          "time": 36.382991749999995,
          "velocity": 0.2125984251968504
        },
        {
          "duration": 0.09677399999999636,
          "durationTicks": 96,
          "midi": 77,
          "name": "F5",
          "ticks": 36283,
          "time": 36.5755316875,
          "velocity": 0.2283464566929134
        },
        {
          "duration": 0.09677399999999636,
          "durationTicks": 96,
          "midi": 75,
          "name": "D#5",
          "ticks": 36473,
          "time": 36.7670635625,
          "velocity": 0.2283464566929134
        },
        {
          "duration": 0.09677400000000347,
          "durationTicks": 96,
          "midi": 77,
          "name": "F5",
          "ticks": 36662,
          "time": 36.957587374999996,
          "velocity": 0.2283464566929134
        },
        {
          "duration": 0.09677400000000347,
          "durationTicks": 96,
          "midi": 79,
          "name": "G5",
          "ticks": 36854,
          "time": 37.151135374999996,
          "velocity": 0.2283464566929134
        },
        {
          "duration": 0.09677399999999636,
          "durationTicks": 96,
          "midi": 75,
          "name": "D#5",
          "ticks": 36963,
          "time": 37.2610141875,
          "velocity": 0.2283464566929134
        },
        {
          "duration": 0.09677399999999636,
          "durationTicks": 96,
          "midi": 72,
          "name": "C5",
          "ticks": 37056,
          "time": 37.354764,
          "velocity": 0.2283464566929134
        },
        {
          "duration": 0.09677399999999636,
          "durationTicks": 96,
          "midi": 75,
          "name": "D#5",
          "ticks": 37150,
          "time": 37.449521875,
          "velocity": 0.2283464566929134
        },
        {
          "duration": 0.09677400000000347,
          "durationTicks": 96,
          "midi": 79,
          "name": "G5",
          "ticks": 37247,
          "time": 37.5473039375,
          "velocity": 0.2125984251968504
        },
        {
          "duration": 0.09677399999999636,
          "durationTicks": 96,
          "midi": 77,
          "name": "F5",
          "ticks": 37436,
          "time": 37.73782775,
          "velocity": 0.2283464566929134
        },
        {
          "duration": 0.38709599999999966,
          "durationTicks": 384,
          "midi": 75,
          "name": "D#5",
          "ticks": 37627,
          "time": 37.9303676875,
          "velocity": 0.23622047244094488
        },
        {
          "duration": 0.19354799999999983,
          "durationTicks": 192,
          "midi": 74,
          "name": "D5",
          "ticks": 38008,
          "time": 38.3144395,
          "velocity": 0.2283464566929134
        },
        {
          "duration": 0.09778206249999499,
          "durationTicks": 97,
          "midi": 72,
          "name": "C5",
          "ticks": 38197,
          "time": 38.5049633125,
          "velocity": 0.2283464566929134
        },
        {
          "duration": 0.0977820625000021,
          "durationTicks": 97,
          "midi": 75,
          "name": "D#5",
          "ticks": 38259,
          "time": 38.567463187499996,
          "velocity": 0.2283464566929134
        },
        {
          "duration": 0.0977820625000021,
          "durationTicks": 97,
          "midi": 79,
          "name": "G5",
          "ticks": 38322,
          "time": 38.630971125,
          "velocity": 0.2283464566929134
        },
        {
          "duration": 0.38709599999999966,
          "durationTicks": 384,
          "midi": 84,
          "name": "C6",
          "ticks": 38391,
          "time": 38.7005274375,
          "velocity": 0.2125984251968504
        },
        {
          "duration": 0.2903220000000033,
          "durationTicks": 288,
          "midi": 84,
          "name": "C6",
          "ticks": 38785,
          "time": 39.0977040625,
          "velocity": 0.2283464566929134
        },
        {
          "duration": 0.09677399999999636,
          "durationTicks": 96,
          "midi": 82,
          "name": "A#5",
          "ticks": 39067,
          "time": 39.381977687500004,
          "velocity": 0.2283464566929134
        },
        {
          "duration": 0.09677400000000347,
          "durationTicks": 96,
          "midi": 84,
          "name": "C6",
          "ticks": 39165,
          "time": 39.4807678125,
          "velocity": 0.2125984251968504
        },
        {
          "duration": 0.09677399999999636,
          "durationTicks": 96,
          "midi": 82,
          "name": "A#5",
          "ticks": 39356,
          "time": 39.67330775,
          "velocity": 0.2283464566929134
        },
        {
          "duration": 0.09677399999999636,
          "durationTicks": 96,
          "midi": 80,
          "name": "G#5",
          "ticks": 39546,
          "time": 39.864839625,
          "velocity": 0.2283464566929134
        },
        {
          "duration": 0.09677400000000347,
          "durationTicks": 96,
          "midi": 79,
          "name": "G5",
          "ticks": 39735,
          "time": 40.0553634375,
          "velocity": 0.2283464566929134
        },
        {
          "duration": 0.09677400000000347,
          "durationTicks": 96,
          "midi": 82,
          "name": "A#5",
          "ticks": 39927,
          "time": 40.2489114375,
          "velocity": 0.2283464566929134
        },
        {
          "duration": 0.09677400000000347,
          "durationTicks": 96,
          "midi": 80,
          "name": "G#5",
          "ticks": 40036,
          "time": 40.35879025,
          "velocity": 0.2283464566929134
        },
        {
          "duration": 0.09677400000000347,
          "durationTicks": 96,
          "midi": 79,
          "name": "G5",
          "ticks": 40129,
          "time": 40.4525400625,
          "velocity": 0.2283464566929134
        },
        {
          "duration": 0.09677399999999636,
          "durationTicks": 96,
          "midi": 77,
          "name": "F5",
          "ticks": 40223,
          "time": 40.5472979375,
          "velocity": 0.2283464566929134
        },
        {
          "duration": 0.09677399999999636,
          "durationTicks": 96,
          "midi": 75,
          "name": "D#5",
          "ticks": 40320,
          "time": 40.64508,
          "velocity": 0.2125984251968504
        },
        {
          "duration": 0.09677400000000347,
          "durationTicks": 96,
          "midi": 77,
          "name": "F5",
          "ticks": 40509,
          "time": 40.8356038125,
          "velocity": 0.2283464566929134
        },
        {
          "duration": 0.7741919999999993,
          "durationTicks": 768,
          "midi": 79,
          "name": "G5",
          "ticks": 40700,
          "time": 41.02814375,
          "velocity": 0.23622047244094488
        },
        {
          "duration": 0.38709599999999966,
          "durationTicks": 384,
          "midi": 82,
          "name": "A#5",
          "ticks": 41462,
          "time": 41.796287375,
          "velocity": 0.2440944881889764
        },
        {
          "duration": 0.2903220000000033,
          "durationTicks": 288,
          "midi": 82,
          "name": "A#5",
          "ticks": 41856,
          "time": 42.193464,
          "velocity": 0.2283464566929134
        },
        {
          "duration": 0.09677400000000347,
          "durationTicks": 96,
          "midi": 80,
          "name": "G#5",
          "ticks": 42138,
          "time": 42.477737624999996,
          "velocity": 0.2283464566929134
        },
        {
          "duration": 0.09677400000000347,
          "durationTicks": 96,
          "midi": 79,
          "name": "G5",
          "ticks": 42236,
          "time": 42.57652775,
          "velocity": 0.2125984251968504
        },
        {
          "duration": 0.09677400000000347,
          "durationTicks": 96,
          "midi": 77,
          "name": "F5",
          "ticks": 42427,
          "time": 42.7690676875,
          "velocity": 0.2283464566929134
        },
        {
          "duration": 0.09677399999999636,
          "durationTicks": 96,
          "midi": 75,
          "name": "D#5",
          "ticks": 42617,
          "time": 42.9605995625,
          "velocity": 0.2283464566929134
        },
        {
          "duration": 0.09677400000000347,
          "durationTicks": 96,
          "midi": 77,
          "name": "F5",
          "ticks": 42806,
          "time": 43.151123375,
          "velocity": 0.2283464566929134
        },
        {
          "duration": 0.09677400000000347,
          "durationTicks": 96,
          "midi": 79,
          "name": "G5",
          "ticks": 42998,
          "time": 43.344671375,
          "velocity": 0.2283464566929134
        },
        {
          "duration": 0.09677400000000347,
          "durationTicks": 96,
          "midi": 75,
          "name": "D#5",
          "ticks": 43107,
          "time": 43.4545501875,
          "velocity": 0.2283464566929134
        },
        {
          "duration": 0.09677400000000347,
          "durationTicks": 96,
          "midi": 72,
          "name": "C5",
          "ticks": 43200,
          "time": 43.5483,
          "velocity": 0.2283464566929134
        },
        {
          "duration": 0.09677399999999636,
          "durationTicks": 96,
          "midi": 75,
          "name": "D#5",
          "ticks": 43294,
          "time": 43.643057875000004,
          "velocity": 0.2283464566929134
        },
        {
          "duration": 0.09677399999999636,
          "durationTicks": 96,
          "midi": 79,
          "name": "G5",
          "ticks": 43391,
          "time": 43.7408399375,
          "velocity": 0.2125984251968504
        },
        {
          "duration": 0.09677400000000347,
          "durationTicks": 96,
          "midi": 77,
          "name": "F5",
          "ticks": 43580,
          "time": 43.931363749999996,
          "velocity": 0.2283464566929134
        },
        {
          "duration": 0.38709599999999966,
          "durationTicks": 384,
          "midi": 75,
          "name": "D#5",
          "ticks": 43771,
          "time": 44.123903687500004,
          "velocity": 0.23622047244094488
        },
        {
          "duration": 0.38709599999999966,
          "durationTicks": 384,
          "midi": 74,
          "name": "D5",
          "ticks": 44152,
          "time": 44.5079755,
          "velocity": 0.2283464566929134
        },
        {
          "duration": 0.09677400000000347,
          "durationTicks": 96,
          "midi": 72,
          "name": "C5",
          "ticks": 44736,
          "time": 45.096683999999996,
          "velocity": 0.2283464566929134
        },
        {
          "duration": 0.09677399999999636,
          "durationTicks": 96,
          "midi": 74,
          "name": "D5",
          "ticks": 44830,
          "time": 45.191441875,
          "velocity": 0.2283464566929134
        },
        {
          "duration": 0.09677400000000347,
          "durationTicks": 96,
          "midi": 75,
          "name": "D#5",
          "ticks": 44927,
          "time": 45.2892239375,
          "velocity": 0.2125984251968504
        },
        {
          "duration": 0.09677400000000347,
          "durationTicks": 96,
          "midi": 72,
          "name": "C5",
          "ticks": 45116,
          "time": 45.479747749999994,
          "velocity": 0.2283464566929134
        },
        {
          "duration": 0.19354799999999983,
          "durationTicks": 192,
          "midi": 77,
          "name": "F5",
          "ticks": 45307,
          "time": 45.6722876875,
          "velocity": 0.2283464566929134
        },
        {
          "duration": 0.09677400000000347,
          "durationTicks": 96,
          "midi": 75,
          "name": "D#5",
          "ticks": 45498,
          "time": 45.864827625,
          "velocity": 0.2125984251968504
        },
        {
          "duration": 0.09677400000000347,
          "durationTicks": 96,
          "midi": 74,
          "name": "D5",
          "ticks": 45688,
          "time": 46.0563595,
          "velocity": 0.2283464566929134
        },
        {
          "duration": 0.09677399999999636,
          "durationTicks": 96,
          "midi": 72,
          "name": "C5",
          "ticks": 45877,
          "time": 46.2468833125,
          "velocity": 0.2283464566929134
        },
        {
          "duration": 0.2903219999999962,
          "durationTicks": 288,
          "midi": 70,
          "name": "A#4",
          "ticks": 46069,
          "time": 46.4404313125,
          "velocity": 0.2440944881889764
        },
        {
          "duration": 0.09677400000000347,
          "durationTicks": 96,
          "midi": 68,
          "name": "G#4",
          "ticks": 46366,
          "time": 46.739825875,
          "velocity": 0.2283464566929134
        },
        {
          "duration": 0.09677400000000347,
          "durationTicks": 96,
          "midi": 67,
          "name": "G4",
          "ticks": 46463,
          "time": 46.837607937499996,
          "velocity": 0.2125984251968504
        },
        {
          "duration": 0.19354799999999983,
          "durationTicks": 192,
          "midi": 68,
          "name": "G#4",
          "ticks": 46652,
          "time": 47.02813175,
          "velocity": 0.2283464566929134
        },
        {
          "duration": 0.38709599999999966,
          "durationTicks": 384,
          "midi": 70,
          "name": "A#4",
          "ticks": 46843,
          "time": 47.2206716875,
          "velocity": 0.23622047244094488
        },
        {
          "duration": 0.38709600000000677,
          "durationTicks": 384,
          "midi": 65,
          "name": "F4",
          "ticks": 47224,
          "time": 47.6047435,
          "velocity": 0.2283464566929134
        },
        {
          "duration": 0.09677399999999636,
          "durationTicks": 96,
          "midi": 62,
          "name": "D4",
          "ticks": 47808,
          "time": 48.193452,
          "velocity": 0.2283464566929134
        },
        {
          "duration": 0.09677400000000347,
          "durationTicks": 96,
          "midi": 63,
          "name": "D#4",
          "ticks": 47902,
          "time": 48.288209875,
          "velocity": 0.2283464566929134
        },
        {
          "duration": 0.09677400000000347,
          "durationTicks": 96,
          "midi": 65,
          "name": "F4",
          "ticks": 47999,
          "time": 48.385991937499995,
          "velocity": 0.2125984251968504
        },
        {
          "duration": 0.09677399999999636,
          "durationTicks": 96,
          "midi": 62,
          "name": "D4",
          "ticks": 48188,
          "time": 48.57651575,
          "velocity": 0.2283464566929134
        },
        {
          "duration": 0.19354799999999983,
          "durationTicks": 192,
          "midi": 67,
          "name": "G4",
          "ticks": 48379,
          "time": 48.7690556875,
          "velocity": 0.2283464566929134
        },
        {
          "duration": 0.09677399999999636,
          "durationTicks": 96,
          "midi": 65,
          "name": "F4",
          "ticks": 48570,
          "time": 48.961595625,
          "velocity": 0.2125984251968504
        },
        {
          "duration": 0.09677399999999636,
          "durationTicks": 96,
          "midi": 63,
          "name": "D#4",
          "ticks": 48760,
          "time": 49.153127500000004,
          "velocity": 0.2283464566929134
        },
        {
          "duration": 0.09677400000000347,
          "durationTicks": 96,
          "midi": 62,
          "name": "D4",
          "ticks": 48949,
          "time": 49.3436513125,
          "velocity": 0.2283464566929134
        },
        {
          "duration": 0.38709599999999256,
          "durationTicks": 384,
          "midi": 63,
          "name": "D#4",
          "ticks": 49141,
          "time": 49.5371993125,
          "velocity": 0.2440944881889764
        },
        {
          "duration": 0.38709599999999966,
          "durationTicks": 384,
          "midi": 63,
          "name": "D#4",
          "ticks": 49535,
          "time": 49.9343759375,
          "velocity": 0.2283464566929134
        },
        {
          "duration": 0.19354799999999983,
          "durationTicks": 192,
          "midi": 62,
          "name": "D4",
          "ticks": 49915,
          "time": 50.3174396875,
          "velocity": 0.23622047244094488
        },
        {
          "duration": 0.09677400000000347,
          "durationTicks": 96,
          "midi": 60,
          "name": "C4",
          "ticks": 50103,
          "time": 50.5069554375,
          "velocity": 0.2283464566929134
        },
        {
          "duration": 0.09677399999999636,
          "durationTicks": 96,
          "midi": 62,
          "name": "D4",
          "ticks": 50199,
          "time": 50.6037294375,
          "velocity": 0.2283464566929134
        },
        {
          "duration": 0.09677400000000347,
          "durationTicks": 96,
          "midi": 63,
          "name": "D#4",
          "ticks": 50296,
          "time": 50.701511499999995,
          "velocity": 0.2283464566929134
        },
        {
          "duration": 0.09677399999999636,
          "durationTicks": 96,
          "midi": 67,
          "name": "G4",
          "ticks": 50392,
          "time": 50.7982855,
          "velocity": 0.2283464566929134
        },
        {
          "duration": 0.09677399999999636,
          "durationTicks": 96,
          "midi": 72,
          "name": "C5",
          "ticks": 50485,
          "time": 50.8920353125,
          "velocity": 0.2283464566929134
        },
        {
          "duration": 0.09677400000000347,
          "durationTicks": 96,
          "midi": 74,
          "name": "D5",
          "ticks": 50578,
          "time": 50.98578512499999,
          "velocity": 0.2283464566929134
        },
        {
          "duration": 0.09677399999999636,
          "durationTicks": 96,
          "midi": 75,
          "name": "D#5",
          "ticks": 50677,
          "time": 51.0855833125,
          "velocity": 0.2125984251968504
        },
        {
          "duration": 0.09677400000000347,
          "durationTicks": 96,
          "midi": 72,
          "name": "C5",
          "ticks": 50880,
          "time": 51.29022,
          "velocity": 0.2283464566929134
        },
        {
          "duration": 0.09677399999999636,
          "durationTicks": 96,
          "midi": 74,
          "name": "D5",
          "ticks": 50974,
          "time": 51.384977875,
          "velocity": 0.2283464566929134
        },
        {
          "duration": 0.09677399999999636,
          "durationTicks": 96,
          "midi": 75,
          "name": "D#5",
          "ticks": 51071,
          "time": 51.482759937500006,
          "velocity": 0.2125984251968504
        },
        {
          "duration": 0.09677400000000347,
          "durationTicks": 96,
          "midi": 72,
          "name": "C5",
          "ticks": 51260,
          "time": 51.67328375,
          "velocity": 0.2283464566929134
        },
        {
          "duration": 0.19354799999999983,
          "durationTicks": 192,
          "midi": 77,
          "name": "F5",
          "ticks": 51447,
          "time": 51.8617914375,
          "velocity": 0.2283464566929134
        },
        {
          "duration": 0.09677400000000347,
          "durationTicks": 96,
          "midi": 75,
          "name": "D#5",
          "ticks": 51642,
          "time": 52.058363625,
          "velocity": 0.2125984251968504
        },
        {
          "duration": 0.09677400000000347,
          "durationTicks": 96,
          "midi": 74,
          "name": "D5",
          "ticks": 51832,
          "time": 52.249895499999994,
          "velocity": 0.2283464566929134
        },
        {
          "duration": 0.09677399999999636,
          "durationTicks": 96,
          "midi": 72,
          "name": "C5",
          "ticks": 52021,
          "time": 52.4404193125,
          "velocity": 0.2283464566929134
        },
        {
          "duration": 0.09677399999999636,
          "durationTicks": 96,
          "midi": 70,
          "name": "A#4",
          "ticks": 52213,
          "time": 52.6339673125,
          "velocity": 0.2283464566929134
        },
        {
          "duration": 0.09677399999999636,
          "durationTicks": 96,
          "midi": 68,
          "name": "G#4",
          "ticks": 52322,
          "time": 52.743846125000005,
          "velocity": 0.2283464566929134
        },
        {
          "duration": 0.09677399999999636,
          "durationTicks": 96,
          "midi": 67,
          "name": "G4",
          "ticks": 52415,
          "time": 52.837595937500005,
          "velocity": 0.2283464566929134
        },
        {
          "duration": 0.09677400000000347,
          "durationTicks": 96,
          "midi": 68,
          "name": "G#4",
          "ticks": 52509,
          "time": 52.9323538125,
          "velocity": 0.2283464566929134
        },
        {
          "duration": 0.09677399999999636,
          "durationTicks": 96,
          "midi": 70,
          "name": "A#4",
          "ticks": 52606,
          "time": 53.030135875,
          "velocity": 0.2125984251968504
        },
        {
          "duration": 0.09677399999999636,
          "durationTicks": 96,
          "midi": 68,
          "name": "G#4",
          "ticks": 52795,
          "time": 53.220659687499996,
          "velocity": 0.2283464566929134
        },
        {
          "duration": 0.38709599999999966,
          "durationTicks": 384,
          "midi": 67,
          "name": "G4",
          "ticks": 52986,
          "time": 53.413199625,
          "velocity": 0.23622047244094488
        },
        {
          "duration": 0.38709599999999966,
          "durationTicks": 384,
          "midi": 63,
          "name": "D#4",
          "ticks": 53367,
          "time": 53.7972714375,
          "velocity": 0.2283464566929134
        },
        {
          "duration": 0.09677399999999636,
          "durationTicks": 96,
          "midi": 62,
          "name": "D4",
          "ticks": 53951,
          "time": 54.385979937500004,
          "velocity": 0.2283464566929134
        },
        {
          "duration": 0.09677399999999636,
          "durationTicks": 96,
          "midi": 63,
          "name": "D#4",
          "ticks": 54045,
          "time": 54.4807378125,
          "velocity": 0.2283464566929134
        },
        {
          "duration": 0.09677399999999636,
          "durationTicks": 96,
          "midi": 65,
          "name": "F4",
          "ticks": 54142,
          "time": 54.578519875,
          "velocity": 0.2125984251968504
        },
        {
          "duration": 0.09677400000000347,
          "durationTicks": 96,
          "midi": 62,
          "name": "D4",
          "ticks": 54331,
          "time": 54.769043687499995,
          "velocity": 0.2283464566929134
        },
        {
          "duration": 0.19354800000000694,
          "durationTicks": 192,
          "midi": 67,
          "name": "G4",
          "ticks": 54522,
          "time": 54.961583624999996,
          "velocity": 0.2283464566929134
        },
        {
          "duration": 0.09677399999999636,
          "durationTicks": 96,
          "midi": 65,
          "name": "F4",
          "ticks": 54713,
          "time": 55.154123562500004,
          "velocity": 0.2125984251968504
        },
        {
          "duration": 0.09677399999999636,
          "durationTicks": 96,
          "midi": 63,
          "name": "D#4",
          "ticks": 54903,
          "time": 55.3456554375,
          "velocity": 0.2283464566929134
        },
        {
          "duration": 0.09677400000000347,
          "durationTicks": 96,
          "midi": 62,
          "name": "D4",
          "ticks": 55092,
          "time": 55.536179249999996,
          "velocity": 0.2283464566929134
        },
        {
          "duration": 0.09677400000000347,
          "durationTicks": 96,
          "midi": 67,
          "name": "G4",
          "ticks": 55284,
          "time": 55.729727249999996,
          "velocity": 0.2440944881889764
        },
        {
          "duration": 0.09677399999999636,
          "durationTicks": 96,
          "midi": 68,
          "name": "G#4",
          "ticks": 55393,
          "time": 55.839606062499996,
          "velocity": 0.2283464566929134
        },
        {
          "duration": 0.09677399999999636,
          "durationTicks": 96,
          "midi": 67,
          "name": "G4",
          "ticks": 55486,
          "time": 55.933355875,
          "velocity": 0.2283464566929134
        },
        {
          "duration": 0.09677400000000347,
          "durationTicks": 96,
          "midi": 68,
          "name": "G#4",
          "ticks": 55580,
          "time": 56.02811375,
          "velocity": 0.2283464566929134
        },
        {
          "duration": 0.09677400000000347,
          "durationTicks": 96,
          "midi": 67,
          "name": "G4",
          "ticks": 55677,
          "time": 56.1258958125,
          "velocity": 0.2283464566929134
        },
        {
          "duration": 0.09677400000000347,
          "durationTicks": 96,
          "midi": 68,
          "name": "G#4",
          "ticks": 55774,
          "time": 56.22367787499999,
          "velocity": 0.2283464566929134
        },
        {
          "duration": 0.09677399999999636,
          "durationTicks": 96,
          "midi": 67,
          "name": "G4",
          "ticks": 55866,
          "time": 56.316419625,
          "velocity": 0.2283464566929134
        },
        {
          "duration": 0.09677399999999636,
          "durationTicks": 96,
          "midi": 68,
          "name": "G#4",
          "ticks": 55959,
          "time": 56.4101694375,
          "velocity": 0.2283464566929134
        },
        {
          "duration": 0.09677400000000347,
          "durationTicks": 96,
          "midi": 67,
          "name": "G4",
          "ticks": 56057,
          "time": 56.5089595625,
          "velocity": 0.23622047244094488
        },
        {
          "duration": 0.09677400000000347,
          "durationTicks": 96,
          "midi": 69,
          "name": "A4",
          "ticks": 56156,
          "time": 56.60875775,
          "velocity": 0.2283464566929134
        },
        {
          "duration": 0.09677399999999636,
          "durationTicks": 96,
          "midi": 71,
          "name": "B4",
          "ticks": 56248,
          "time": 56.7014995,
          "velocity": 0.23622047244094488
        },
        {
          "duration": 0.09677399999999636,
          "durationTicks": 96,
          "midi": 72,
          "name": "C5",
          "ticks": 56341,
          "time": 56.7952493125,
          "velocity": 0.2440944881889764
        },
        {
          "duration": 0.09677400000000347,
          "durationTicks": 96,
          "midi": 74,
          "name": "D5",
          "ticks": 56438,
          "time": 56.893031375,
          "velocity": 0.2440944881889764
        },
        {
          "duration": 0.09677400000000347,
          "durationTicks": 96,
          "midi": 75,
          "name": "D#5",
          "ticks": 56534,
          "time": 56.989805375,
          "velocity": 0.25196850393700787
        },
        {
          "duration": 0.09677399999999636,
          "durationTicks": 96,
          "midi": 77,
          "name": "F5",
          "ticks": 56627,
          "time": 57.083555187500004,
          "velocity": 0.25984251968503935
        },
        {
          "duration": 0.09677399999999636,
          "durationTicks": 96,
          "midi": 79,
          "name": "G5",
          "ticks": 56720,
          "time": 57.177305000000004,
          "velocity": 0.25984251968503935
        },
        {
          "duration": 0.09677399999999636,
          "durationTicks": 96,
          "midi": 72,
          "name": "C5",
          "ticks": 56819,
          "time": 57.2771031875,
          "velocity": 0.28346456692913385
        },
        {
          "duration": 0.09677400000000347,
          "durationTicks": 96,
          "midi": 67,
          "name": "G4",
          "ticks": 56928,
          "time": 57.386981999999996,
          "velocity": 0.2677165354330709
        },
        {
          "duration": 0.09677400000000347,
          "durationTicks": 96,
          "midi": 63,
          "name": "D#4",
          "ticks": 57021,
          "time": 57.4807318125,
          "velocity": 0.2677165354330709
        },
        {
          "duration": 0.09677400000000347,
          "durationTicks": 96,
          "midi": 67,
          "name": "G4",
          "ticks": 57115,
          "time": 57.575489687499996,
          "velocity": 0.2677165354330709
        },
        {
          "duration": 0.09677399999999636,
          "durationTicks": 96,
          "midi": 72,
          "name": "C5",
          "ticks": 57212,
          "time": 57.673271750000005,
          "velocity": 0.2755905511811024
        },
        {
          "duration": 0.09677399999999636,
          "durationTicks": 96,
          "midi": 67,
          "name": "G4",
          "ticks": 57309,
          "time": 57.7710538125,
          "velocity": 0.2677165354330709
        },
        {
          "duration": 0.09677400000000347,
          "durationTicks": 96,
          "midi": 63,
          "name": "D#4",
          "ticks": 57401,
          "time": 57.8637955625,
          "velocity": 0.2677165354330709
        },
        {
          "duration": 0.09677400000000347,
          "durationTicks": 96,
          "midi": 67,
          "name": "G4",
          "ticks": 57494,
          "time": 57.957545375,
          "velocity": 0.2677165354330709
        },
        {
          "duration": 0.09677399999999636,
          "durationTicks": 96,
          "midi": 72,
          "name": "C5",
          "ticks": 57592,
          "time": 58.056335499999996,
          "velocity": 0.2755905511811024
        },
        {
          "duration": 0.09677400000000347,
          "durationTicks": 96,
          "midi": 67,
          "name": "G4",
          "ticks": 57691,
          "time": 58.156133687499995,
          "velocity": 0.2677165354330709
        },
        {
          "duration": 0.09677400000000347,
          "durationTicks": 96,
          "midi": 63,
          "name": "D#4",
          "ticks": 57783,
          "time": 58.2488754375,
          "velocity": 0.2677165354330709
        },
        {
          "duration": 0.09677400000000347,
          "durationTicks": 96,
          "midi": 67,
          "name": "G4",
          "ticks": 57876,
          "time": 58.34262525,
          "velocity": 0.2677165354330709
        },
        {
          "duration": 0.09677400000000347,
          "durationTicks": 96,
          "midi": 72,
          "name": "C5",
          "ticks": 57973,
          "time": 58.44040731249999,
          "velocity": 0.2755905511811024
        },
        {
          "duration": 0.09677399999999636,
          "durationTicks": 96,
          "midi": 67,
          "name": "G4",
          "ticks": 58069,
          "time": 58.537181312499996,
          "velocity": 0.2677165354330709
        },
        {
          "duration": 0.09677399999999636,
          "durationTicks": 96,
          "midi": 63,
          "name": "D#4",
          "ticks": 58162,
          "time": 58.630931125,
          "velocity": 0.2677165354330709
        },
        {
          "duration": 0.09677399999999636,
          "durationTicks": 96,
          "midi": 67,
          "name": "G4",
          "ticks": 58255,
          "time": 58.7246809375,
          "velocity": 0.2677165354330709
        },
        {
          "duration": 0.09677399999999636,
          "durationTicks": 96,
          "midi": 70,
          "name": "A#4",
          "ticks": 58354,
          "time": 58.824479124999996,
          "velocity": 0.28346456692913385
        },
        {
          "duration": 0.09677399999999636,
          "durationTicks": 96,
          "midi": 67,
          "name": "G4",
          "ticks": 58463,
          "time": 58.9343579375,
          "velocity": 0.2677165354330709
        },
        {
          "duration": 0.09677399999999636,
          "durationTicks": 96,
          "midi": 63,
          "name": "D#4",
          "ticks": 58556,
          "time": 59.028107750000004,
          "velocity": 0.2677165354330709
        },
        {
          "duration": 0.09677399999999636,
          "durationTicks": 96,
          "midi": 67,
          "name": "G4",
          "ticks": 58650,
          "time": 59.122865625,
          "velocity": 0.2677165354330709
        },
        {
          "duration": 0.09677399999999636,
          "durationTicks": 96,
          "midi": 70,
          "name": "A#4",
          "ticks": 58747,
          "time": 59.2206476875,
          "velocity": 0.2755905511811024
        },
        {
          "duration": 0.09677400000000347,
          "durationTicks": 96,
          "midi": 67,
          "name": "G4",
          "ticks": 58844,
          "time": 59.31842975,
          "velocity": 0.2677165354330709
        },
        {
          "duration": 0.09677400000000347,
          "durationTicks": 96,
          "midi": 63,
          "name": "D#4",
          "ticks": 58936,
          "time": 59.411171499999995,
          "velocity": 0.2677165354330709
        },
        {
          "duration": 0.09677400000000347,
          "durationTicks": 96,
          "midi": 67,
          "name": "G4",
          "ticks": 59029,
          "time": 59.504921312499995,
          "velocity": 0.2677165354330709
        },
        {
          "duration": 0.09677400000000347,
          "durationTicks": 96,
          "midi": 70,
          "name": "A#4",
          "ticks": 59127,
          "time": 59.603711437499996,
          "velocity": 0.2755905511811024
        },
        {
          "duration": 0.09677399999999636,
          "durationTicks": 96,
          "midi": 67,
          "name": "G4",
          "ticks": 59226,
          "time": 59.703509625,
          "velocity": 0.2677165354330709
        },
        {
          "duration": 0.09677399999999636,
          "durationTicks": 96,
          "midi": 63,
          "name": "D#4",
          "ticks": 59318,
          "time": 59.796251375000004,
          "velocity": 0.2677165354330709
        },
        {
          "duration": 0.09677399999999636,
          "durationTicks": 96,
          "midi": 67,
          "name": "G4",
          "ticks": 59411,
          "time": 59.890001187500005,
          "velocity": 0.2677165354330709
        },
        {
          "duration": 0.09677399999999636,
          "durationTicks": 96,
          "midi": 70,
          "name": "A#4",
          "ticks": 59508,
          "time": 59.98778325,
          "velocity": 0.2755905511811024
        },
        {
          "duration": 0.09677400000000347,
          "durationTicks": 96,
          "midi": 67,
          "name": "G4",
          "ticks": 59604,
          "time": 60.084557249999996,
          "velocity": 0.2677165354330709
        },
        {
          "duration": 0.09677400000000347,
          "durationTicks": 96,
          "midi": 63,
          "name": "D#4",
          "ticks": 59697,
          "time": 60.1783070625,
          "velocity": 0.2677165354330709
        },
        {
          "duration": 0.09677400000000347,
          "durationTicks": 96,
          "midi": 67,
          "name": "G4",
          "ticks": 59790,
          "time": 60.272056875,
          "velocity": 0.2677165354330709
        },
        {
          "duration": 0.09677400000000347,
          "durationTicks": 96,
          "midi": 70,
          "name": "A#4",
          "ticks": 59889,
          "time": 60.371855062499996,
          "velocity": 0.28346456692913385
        },
        {
          "duration": 0.09677399999999636,
          "durationTicks": 96,
          "midi": 65,
          "name": "F4",
          "ticks": 59998,
          "time": 60.481733874999996,
          "velocity": 0.2677165354330709
        },
        {
          "duration": 0.09677399999999636,
          "durationTicks": 96,
          "midi": 62,
          "name": "D4",
          "ticks": 60091,
          "time": 60.5754836875,
          "velocity": 0.2677165354330709
        },
        {
          "duration": 0.09677400000000347,
          "durationTicks": 96,
          "midi": 65,
          "name": "F4",
          "ticks": 60185,
          "time": 60.6702415625,
          "velocity": 0.2677165354330709
        },
        {
          "duration": 0.09677400000000347,
          "durationTicks": 96,
          "midi": 70,
          "name": "A#4",
          "ticks": 60282,
          "time": 60.768023625,
          "velocity": 0.2755905511811024
        },
        {
          "duration": 0.09677400000000347,
          "durationTicks": 96,
          "midi": 65,
          "name": "F4",
          "ticks": 60379,
          "time": 60.86580568749999,
          "velocity": 0.2677165354330709
        },
        {
          "duration": 0.09677399999999636,
          "durationTicks": 96,
          "midi": 62,
          "name": "D4",
          "ticks": 60471,
          "time": 60.9585474375,
          "velocity": 0.2677165354330709
        },
        {
          "duration": 0.09677399999999636,
          "durationTicks": 96,
          "midi": 65,
          "name": "F4",
          "ticks": 60564,
          "time": 61.05229725,
          "velocity": 0.2677165354330709
        },
        {
          "duration": 0.09677400000000347,
          "durationTicks": 96,
          "midi": 70,
          "name": "A#4",
          "ticks": 60662,
          "time": 61.151087375,
          "velocity": 0.2755905511811024
        },
        {
          "duration": 0.09677400000000347,
          "durationTicks": 96,
          "midi": 65,
          "name": "F4",
          "ticks": 60761,
          "time": 61.2508855625,
          "velocity": 0.2677165354330709
        },
        {
          "duration": 0.09677399999999636,
          "durationTicks": 96,
          "midi": 62,
          "name": "D4",
          "ticks": 60853,
          "time": 61.3436273125,
          "velocity": 0.2677165354330709
        },
        {
          "duration": 0.09677399999999636,
          "durationTicks": 96,
          "midi": 65,
          "name": "F4",
          "ticks": 60946,
          "time": 61.437377125,
          "velocity": 0.2677165354330709
        },
        {
          "duration": 0.09677400000000347,
          "durationTicks": 96,
          "midi": 70,
          "name": "A#4",
          "ticks": 61043,
          "time": 61.5351591875,
          "velocity": 0.2755905511811024
        },
        {
          "duration": 0.09677399999999636,
          "durationTicks": 96,
          "midi": 65,
          "name": "F4",
          "ticks": 61139,
          "time": 61.6319331875,
          "velocity": 0.2677165354330709
        },
        {
          "duration": 0.09677399999999636,
          "durationTicks": 96,
          "midi": 62,
          "name": "D4",
          "ticks": 61232,
          "time": 61.725683000000004,
          "velocity": 0.2677165354330709
        },
        {
          "duration": 0.09677399999999636,
          "durationTicks": 96,
          "midi": 65,
          "name": "F4",
          "ticks": 61325,
          "time": 61.819432812500004,
          "velocity": 0.2677165354330709
        },
        {
          "duration": 0.09677399999999636,
          "durationTicks": 96,
          "midi": 72,
          "name": "C5",
          "ticks": 61424,
          "time": 61.919231,
          "velocity": 0.28346456692913385
        },
        {
          "duration": 0.09677400000000347,
          "durationTicks": 96,
          "midi": 68,
          "name": "G#4",
          "ticks": 61533,
          "time": 62.029109812499996,
          "velocity": 0.2677165354330709
        },
        {
          "duration": 0.09677400000000347,
          "durationTicks": 96,
          "midi": 63,
          "name": "D#4",
          "ticks": 61626,
          "time": 62.122859625,
          "velocity": 0.25984251968503935
        },
        {
          "duration": 0.09677399999999636,
          "durationTicks": 96,
          "midi": 68,
          "name": "G#4",
          "ticks": 61720,
          "time": 62.217617499999996,
          "velocity": 0.25984251968503935
        },
        {
          "duration": 0.09677399999999636,
          "durationTicks": 96,
          "midi": 72,
          "name": "C5",
          "ticks": 61817,
          "time": 62.315399562500005,
          "velocity": 0.25196850393700787
        },
        {
          "duration": 0.09677399999999636,
          "durationTicks": 96,
          "midi": 68,
          "name": "G#4",
          "ticks": 61914,
          "time": 62.413181625,
          "velocity": 0.2440944881889764
        },
        {
          "duration": 0.09677400000000347,
          "durationTicks": 96,
          "midi": 63,
          "name": "D#4",
          "ticks": 62006,
          "time": 62.505923375,
          "velocity": 0.2440944881889764
        },
        {
          "duration": 0.09677400000000347,
          "durationTicks": 96,
          "midi": 68,
          "name": "G#4",
          "ticks": 62099,
          "time": 62.5996731875,
          "velocity": 0.23622047244094488
        },
        {
          "duration": 0.09677399999999636,
          "durationTicks": 96,
          "midi": 72,
          "name": "C5",
          "ticks": 62197,
          "time": 62.698463312499996,
          "velocity": 0.2283464566929134
        },
        {
          "duration": 0.09677400000000347,
          "durationTicks": 96,
          "midi": 67,
          "name": "G4",
          "ticks": 62296,
          "time": 62.798261499999995,
          "velocity": 0.2283464566929134
        },
        {
          "duration": 0.09677400000000347,
          "durationTicks": 96,
          "midi": 62,
          "name": "D4",
          "ticks": 62388,
          "time": 62.89100325,
          "velocity": 0.2204724409448819
        },
        {
          "duration": 0.09677400000000347,
          "durationTicks": 96,
          "midi": 67,
          "name": "G4",
          "ticks": 62481,
          "time": 62.9847530625,
          "velocity": 0.2125984251968504
        },
        {
          "duration": 0.09677400000000347,
          "durationTicks": 96,
          "midi": 71,
          "name": "B4",
          "ticks": 62578,
          "time": 63.08253512499999,
          "velocity": 0.2125984251968504
        },
        {
          "duration": 0.09677399999999636,
          "durationTicks": 96,
          "midi": 67,
          "name": "G4",
          "ticks": 62674,
          "time": 63.179309124999996,
          "velocity": 0.2047244094488189
        },
        {
          "duration": 0.09677399999999636,
          "durationTicks": 96,
          "midi": 62,
          "name": "D4",
          "ticks": 62767,
          "time": 63.2730589375,
          "velocity": 0.1968503937007874
        },
        {
          "duration": 0.09677399999999636,
          "durationTicks": 96,
          "midi": 67,
          "name": "G4",
          "ticks": 62860,
          "time": 63.36680875,
          "velocity": 0.1968503937007874
        },
        {
          "duration": 0.09677399999999636,
          "durationTicks": 96,
          "midi": 60,
          "name": "C4",
          "ticks": 62959,
          "time": 63.466606937499996,
          "velocity": 0.2047244094488189
        },
        {
          "duration": 0.09677399999999636,
          "durationTicks": 96,
          "midi": 55,
          "name": "G3",
          "ticks": 63068,
          "time": 63.57648575,
          "velocity": 0.1889763779527559
        },
        {
          "duration": 0.09677399999999636,
          "durationTicks": 96,
          "midi": 51,
          "name": "D#3",
          "ticks": 63161,
          "time": 63.670235562500004,
          "velocity": 0.1889763779527559
        },
        {
          "duration": 0.09677400000000347,
          "durationTicks": 96,
          "midi": 55,
          "name": "G3",
          "ticks": 63255,
          "time": 63.764993437499996,
          "velocity": 0.1889763779527559
        },
        {
          "duration": 0.09677399999999636,
          "durationTicks": 96,
          "midi": 60,
          "name": "C4",
          "ticks": 63352,
          "time": 63.8627755,
          "velocity": 0.1889763779527559
        },
        {
          "duration": 0.09677399999999636,
          "durationTicks": 96,
          "midi": 55,
          "name": "G3",
          "ticks": 63449,
          "time": 63.9605575625,
          "velocity": 0.1889763779527559
        },
        {
          "duration": 0.09677399999999636,
          "durationTicks": 96,
          "midi": 51,
          "name": "D#3",
          "ticks": 63541,
          "time": 64.0532993125,
          "velocity": 0.1889763779527559
        },
        {
          "duration": 0.09677399999999636,
          "durationTicks": 96,
          "midi": 55,
          "name": "G3",
          "ticks": 63634,
          "time": 64.147049125,
          "velocity": 0.1889763779527559
        },
        {
          "duration": 0.09677399999999636,
          "durationTicks": 96,
          "midi": 60,
          "name": "C4",
          "ticks": 63732,
          "time": 64.24583925,
          "velocity": 0.1968503937007874
        },
        {
          "duration": 0.09677399999999636,
          "durationTicks": 96,
          "midi": 55,
          "name": "G3",
          "ticks": 63831,
          "time": 64.3456374375,
          "velocity": 0.1889763779527559
        },
        {
          "duration": 0.09677399999999636,
          "durationTicks": 96,
          "midi": 51,
          "name": "D#3",
          "ticks": 63923,
          "time": 64.4383791875,
          "velocity": 0.1889763779527559
        },
        {
          "duration": 0.09677400000001057,
          "durationTicks": 96,
          "midi": 55,
          "name": "G3",
          "ticks": 64016,
          "time": 64.532129,
          "velocity": 0.1889763779527559
        },
        {
          "duration": 0.09677399999999636,
          "durationTicks": 96,
          "midi": 60,
          "name": "C4",
          "ticks": 64113,
          "time": 64.6299110625,
          "velocity": 0.1889763779527559
        },
        {
          "duration": 0.09677399999999636,
          "durationTicks": 96,
          "midi": 55,
          "name": "G3",
          "ticks": 64209,
          "time": 64.7266850625,
          "velocity": 0.1889763779527559
        },
        {
          "duration": 0.09677399999999636,
          "durationTicks": 96,
          "midi": 51,
          "name": "D#3",
          "ticks": 64302,
          "time": 64.820434875,
          "velocity": 0.1889763779527559
        },
        {
          "duration": 0.09677399999999636,
          "durationTicks": 96,
          "midi": 55,
          "name": "G3",
          "ticks": 64395,
          "time": 64.9141846875,
          "velocity": 0.1889763779527559
        },
        {
          "duration": 0.09677399999999636,
          "durationTicks": 96,
          "midi": 58,
          "name": "A#3",
          "ticks": 64494,
          "time": 65.013982875,
          "velocity": 0.2047244094488189
        },
        {
          "duration": 0.09677399999999636,
          "durationTicks": 96,
          "midi": 55,
          "name": "G3",
          "ticks": 64603,
          "time": 65.1238616875,
          "velocity": 0.1889763779527559
        },
        {
          "duration": 0.09677399999999636,
          "durationTicks": 96,
          "midi": 51,
          "name": "D#3",
          "ticks": 64687,
          "time": 65.2085389375,
          "velocity": 0.1889763779527559
        },
        {
          "duration": 0.09677399999999636,
          "durationTicks": 96,
          "midi": 55,
          "name": "G3",
          "ticks": 64790,
          "time": 65.312369375,
          "velocity": 0.1889763779527559
        },
        {
          "duration": 0.09677399999999636,
          "durationTicks": 96,
          "midi": 58,
          "name": "A#3",
          "ticks": 64887,
          "time": 65.4101514375,
          "velocity": 0.1889763779527559
        },
        {
          "duration": 0.09677399999999636,
          "durationTicks": 96,
          "midi": 55,
          "name": "G3",
          "ticks": 64984,
          "time": 65.5079335,
          "velocity": 0.1889763779527559
        },
        {
          "duration": 0.09677399999999636,
          "durationTicks": 96,
          "midi": 51,
          "name": "D#3",
          "ticks": 65071,
          "time": 65.5956349375,
          "velocity": 0.1889763779527559
        },
        {
          "duration": 0.09677399999999636,
          "durationTicks": 96,
          "midi": 55,
          "name": "G3",
          "ticks": 65169,
          "time": 65.6944250625,
          "velocity": 0.1889763779527559
        },
        {
          "duration": 0.09677400000001057,
          "durationTicks": 96,
          "midi": 58,
          "name": "A#3",
          "ticks": 65267,
          "time": 65.7932151875,
          "velocity": 0.1968503937007874
        },
        {
          "duration": 0.09677399999999636,
          "durationTicks": 96,
          "midi": 55,
          "name": "G3",
          "ticks": 65366,
          "time": 65.89301337500001,
          "velocity": 0.1889763779527559
        },
        {
          "duration": 0.09677399999999636,
          "durationTicks": 96,
          "midi": 51,
          "name": "D#3",
          "ticks": 65455,
          "time": 65.9827309375,
          "velocity": 0.1889763779527559
        },
        {
          "duration": 0.09677400000001057,
          "durationTicks": 96,
          "midi": 55,
          "name": "G3",
          "ticks": 65551,
          "time": 66.07950493749999,
          "velocity": 0.1889763779527559
        },
        {
          "duration": 0.09677399999999636,
          "durationTicks": 96,
          "midi": 58,
          "name": "A#3",
          "ticks": 65648,
          "time": 66.177287,
          "velocity": 0.1889763779527559
        },
        {
          "duration": 0.09677399999999636,
          "durationTicks": 96,
          "midi": 55,
          "name": "G3",
          "ticks": 65744,
          "time": 66.274061,
          "velocity": 0.1889763779527559
        },
        {
          "duration": 0.09677399999999636,
          "durationTicks": 96,
          "midi": 51,
          "name": "D#3",
          "ticks": 65839,
          "time": 66.3698269375,
          "velocity": 0.1889763779527559
        },
        {
          "duration": 0.09677399999999636,
          "durationTicks": 96,
          "midi": 55,
          "name": "G3",
          "ticks": 65930,
          "time": 66.461560625,
          "velocity": 0.1889763779527559
        },
        {
          "duration": 0.09677399999999636,
          "durationTicks": 96,
          "midi": 58,
          "name": "A#3",
          "ticks": 66029,
          "time": 66.5613588125,
          "velocity": 0.2047244094488189
        },
        {
          "duration": 0.09677399999999636,
          "durationTicks": 96,
          "midi": 53,
          "name": "F3",
          "ticks": 66138,
          "time": 66.671237625,
          "velocity": 0.1889763779527559
        },
        {
          "duration": 0.09677399999999636,
          "durationTicks": 96,
          "midi": 50,
          "name": "D3",
          "ticks": 66222,
          "time": 66.755914875,
          "velocity": 0.1889763779527559
        },
        {
          "duration": 0.09677399999999636,
          "durationTicks": 96,
          "midi": 53,
          "name": "F3",
          "ticks": 66325,
          "time": 66.8597453125,
          "velocity": 0.1889763779527559
        },
        {
          "duration": 0.09677400000001057,
          "durationTicks": 96,
          "midi": 58,
          "name": "A#3",
          "ticks": 66422,
          "time": 66.957527375,
          "velocity": 0.1889763779527559
        },
        {
          "duration": 0.09677399999999636,
          "durationTicks": 96,
          "midi": 53,
          "name": "F3",
          "ticks": 66519,
          "time": 67.0553094375,
          "velocity": 0.1889763779527559
        },
        {
          "duration": 0.09677399999999636,
          "durationTicks": 96,
          "midi": 50,
          "name": "D3",
          "ticks": 66611,
          "time": 67.1480511875,
          "velocity": 0.1889763779527559
        },
        {
          "duration": 0.09677399999999636,
          "durationTicks": 96,
          "midi": 53,
          "name": "F3",
          "ticks": 66704,
          "time": 67.24180100000001,
          "velocity": 0.1889763779527559
        },
        {
          "duration": 0.09677400000001057,
          "durationTicks": 96,
          "midi": 58,
          "name": "A#3",
          "ticks": 66802,
          "time": 67.34059112499999,
          "velocity": 0.1968503937007874
        },
        {
          "duration": 0.09677399999999636,
          "durationTicks": 96,
          "midi": 53,
          "name": "F3",
          "ticks": 66901,
          "time": 67.4403893125,
          "velocity": 0.1889763779527559
        },
        {
          "duration": 0.09677399999999636,
          "durationTicks": 96,
          "midi": 50,
          "name": "D3",
          "ticks": 66993,
          "time": 67.5331310625,
          "velocity": 0.1889763779527559
        },
        {
          "duration": 0.09677399999999636,
          "durationTicks": 96,
          "midi": 53,
          "name": "F3",
          "ticks": 67086,
          "time": 67.626880875,
          "velocity": 0.1889763779527559
        },
        {
          "duration": 0.09677399999999636,
          "durationTicks": 96,
          "midi": 58,
          "name": "A#3",
          "ticks": 67183,
          "time": 67.7246629375,
          "velocity": 0.1889763779527559
        },
        {
          "duration": 0.09677399999999636,
          "durationTicks": 96,
          "midi": 53,
          "name": "F3",
          "ticks": 67279,
          "time": 67.8214369375,
          "velocity": 0.1889763779527559
        },
        {
          "duration": 0.09677400000001057,
          "durationTicks": 96,
          "midi": 50,
          "name": "D3",
          "ticks": 67372,
          "time": 67.91518674999999,
          "velocity": 0.1889763779527559
        },
        {
          "duration": 0.09677399999999636,
          "durationTicks": 96,
          "midi": 53,
          "name": "F3",
          "ticks": 67465,
          "time": 68.0089365625,
          "velocity": 0.1889763779527559
        },
        {
          "duration": 0.09677399999999636,
          "durationTicks": 96,
          "midi": 60,
          "name": "C4",
          "ticks": 67564,
          "time": 68.10873475,
          "velocity": 0.2047244094488189
        },
        {
          "duration": 0.09677400000001057,
          "durationTicks": 96,
          "midi": 56,
          "name": "G#3",
          "ticks": 67673,
          "time": 68.2186135625,
          "velocity": 0.1889763779527559
        },
        {
          "duration": 0.09677399999999636,
          "durationTicks": 96,
          "midi": 51,
          "name": "D#3",
          "ticks": 67766,
          "time": 68.312363375,
          "velocity": 0.1889763779527559
        },
        {
          "duration": 0.09677399999999636,
          "durationTicks": 96,
          "midi": 56,
          "name": "G#3",
          "ticks": 67860,
          "time": 68.40712125,
          "velocity": 0.1889763779527559
        },
        {
          "duration": 0.09677400000001057,
          "durationTicks": 96,
          "midi": 60,
          "name": "C4",
          "ticks": 67957,
          "time": 68.50490331249999,
          "velocity": 0.1889763779527559
        },
        {
          "duration": 0.09677399999999636,
          "durationTicks": 96,
          "midi": 56,
          "name": "G#3",
          "ticks": 68054,
          "time": 68.60268537500001,
          "velocity": 0.1889763779527559
        },
        {
          "duration": 0.09677399999999636,
          "durationTicks": 96,
          "midi": 51,
          "name": "D#3",
          "ticks": 68146,
          "time": 68.695427125,
          "velocity": 0.1889763779527559
        },
        {
          "duration": 0.09677399999999636,
          "durationTicks": 96,
          "midi": 56,
          "name": "G#3",
          "ticks": 68239,
          "time": 68.7891769375,
          "velocity": 0.1889763779527559
        },
        {
          "duration": 0.09677399999999636,
          "durationTicks": 96,
          "midi": 60,
          "name": "C4",
          "ticks": 68337,
          "time": 68.8879670625,
          "velocity": 0.1968503937007874
        },
        {
          "duration": 0.09677400000001057,
          "durationTicks": 96,
          "midi": 55,
          "name": "G3",
          "ticks": 68436,
          "time": 68.98776525,
          "velocity": 0.1889763779527559
        },
        {
          "duration": 0.09677400000001057,
          "durationTicks": 96,
          "midi": 50,
          "name": "D3",
          "ticks": 68528,
          "time": 69.080507,
          "velocity": 0.1889763779527559
        },
        {
          "duration": 0.09677399999999636,
          "durationTicks": 96,
          "midi": 55,
          "name": "G3",
          "ticks": 68621,
          "time": 69.1742568125,
          "velocity": 0.1889763779527559
        },
        {
          "duration": 0.09677400000001057,
          "durationTicks": 96,
          "midi": 59,
          "name": "B3",
          "ticks": 68718,
          "time": 69.27203887499999,
          "velocity": 0.1889763779527559
        },
        {
          "duration": 0.09677399999999636,
          "durationTicks": 96,
          "midi": 55,
          "name": "G3",
          "ticks": 68814,
          "time": 69.368812875,
          "velocity": 0.1889763779527559
        },
        {
          "duration": 0.09677399999999636,
          "durationTicks": 96,
          "midi": 50,
          "name": "D3",
          "ticks": 68907,
          "time": 69.4625626875,
          "velocity": 0.1889763779527559
        },
        {
          "duration": 0.09677399999999636,
          "durationTicks": 96,
          "midi": 55,
          "name": "G3",
          "ticks": 69000,
          "time": 69.5563125,
          "velocity": 0.1889763779527559
        },
        {
          "duration": 0.38709599999999966,
          "durationTicks": 384,
          "midi": 84,
          "name": "C6",
          "ticks": 69099,
          "time": 69.6561106875,
          "velocity": 0.2440944881889764
        },
        {
          "duration": 0.2903220000000033,
          "durationTicks": 288,
          "midi": 84,
          "name": "C6",
          "ticks": 69493,
          "time": 70.05328731249999,
          "velocity": 0.2283464566929134
        },
        {
          "duration": 0.09677399999999636,
          "durationTicks": 96,
          "midi": 82,
          "name": "A#5",
          "ticks": 69775,
          "time": 70.3375609375,
          "velocity": 0.2283464566929134
        },
        {
          "duration": 0.09677400000001057,
          "durationTicks": 96,
          "midi": 84,
          "name": "C6",
          "ticks": 69873,
          "time": 70.4363510625,
          "velocity": 0.2125984251968504
        },
        {
          "duration": 0.09677400000001057,
          "durationTicks": 96,
          "midi": 82,
          "name": "A#5",
          "ticks": 70064,
          "time": 70.628891,
          "velocity": 0.2283464566929134
        },
        {
          "duration": 0.09677399999999636,
          "durationTicks": 96,
          "midi": 80,
          "name": "G#5",
          "ticks": 70254,
          "time": 70.820422875,
          "velocity": 0.2283464566929134
        },
        {
          "duration": 0.09677400000001057,
          "durationTicks": 96,
          "midi": 79,
          "name": "G5",
          "ticks": 70443,
          "time": 71.0109466875,
          "velocity": 0.2283464566929134
        },
        {
          "duration": 0.09677399999999636,
          "durationTicks": 96,
          "midi": 82,
          "name": "A#5",
          "ticks": 70635,
          "time": 71.2044946875,
          "velocity": 0.2283464566929134
        },
        {
          "duration": 0.09677399999999636,
          "durationTicks": 96,
          "midi": 80,
          "name": "G#5",
          "ticks": 70744,
          "time": 71.3143735,
          "velocity": 0.2283464566929134
        },
        {
          "duration": 0.09677399999999636,
          "durationTicks": 96,
          "midi": 79,
          "name": "G5",
          "ticks": 70837,
          "time": 71.4081233125,
          "velocity": 0.2283464566929134
        },
        {
          "duration": 0.09677399999999636,
          "durationTicks": 96,
          "midi": 77,
          "name": "F5",
          "ticks": 70931,
          "time": 71.50288118750001,
          "velocity": 0.2283464566929134
        },
        {
          "duration": 0.09677399999999636,
          "durationTicks": 96,
          "midi": 75,
          "name": "D#5",
          "ticks": 71028,
          "time": 71.60066325,
          "velocity": 0.2125984251968504
        },
        {
          "duration": 0.09677399999999636,
          "durationTicks": 96,
          "midi": 77,
          "name": "F5",
          "ticks": 71217,
          "time": 71.7911870625,
          "velocity": 0.2283464566929134
        },
        {
          "duration": 0.5806440000000066,
          "durationTicks": 576,
          "midi": 79,
          "name": "G5",
          "ticks": 71400,
          "time": 71.9756625,
          "velocity": 0.23622047244094488
        },
        {
          "duration": 0.09677399999999636,
          "durationTicks": 96,
          "midi": 82,
          "name": "A#5",
          "ticks": 71592,
          "time": 72.1692105,
          "velocity": 0.3937007874015748
        },
        {
          "duration": 0.38709599999999966,
          "durationTicks": 384,
          "midi": 79,
          "name": "G5",
          "ticks": 71784,
          "time": 72.3627585,
          "velocity": 0.3937007874015748
        },
        {
          "duration": 0.38709599999999966,
          "durationTicks": 384,
          "midi": 82,
          "name": "A#5",
          "ticks": 72170,
          "time": 72.75187062500001,
          "velocity": 0.2440944881889764
        },
        {
          "duration": 0.2903220000000033,
          "durationTicks": 288,
          "midi": 82,
          "name": "A#5",
          "ticks": 72564,
          "time": 73.14904725,
          "velocity": 0.2283464566929134
        },
        {
          "duration": 0.09677400000001057,
          "durationTicks": 96,
          "midi": 80,
          "name": "G#5",
          "ticks": 72846,
          "time": 73.43332087499999,
          "velocity": 0.2283464566929134
        },
        {
          "duration": 0.09677399999999636,
          "durationTicks": 96,
          "midi": 79,
          "name": "G5",
          "ticks": 72944,
          "time": 73.532111,
          "velocity": 0.2125984251968504
        },
        {
          "duration": 0.09677399999999636,
          "durationTicks": 96,
          "midi": 77,
          "name": "F5",
          "ticks": 73135,
          "time": 73.7246509375,
          "velocity": 0.2283464566929134
        },
        {
          "duration": 0.09677400000001057,
          "durationTicks": 96,
          "midi": 75,
          "name": "D#5",
          "ticks": 73325,
          "time": 73.9161828125,
          "velocity": 0.2283464566929134
        },
        {
          "duration": 0.09677399999999636,
          "durationTicks": 96,
          "midi": 77,
          "name": "F5",
          "ticks": 73514,
          "time": 74.106706625,
          "velocity": 0.2283464566929134
        },
        {
          "duration": 0.09677399999999636,
          "durationTicks": 96,
          "midi": 79,
          "name": "G5",
          "ticks": 73706,
          "time": 74.30025462500001,
          "velocity": 0.2283464566929134
        },
        {
          "duration": 0.09677400000001057,
          "durationTicks": 96,
          "midi": 75,
          "name": "D#5",
          "ticks": 73815,
          "time": 74.4101334375,
          "velocity": 0.2283464566929134
        },
        {
          "duration": 0.09677399999999636,
          "durationTicks": 96,
          "midi": 72,
          "name": "C5",
          "ticks": 73908,
          "time": 74.50388325,
          "velocity": 0.2283464566929134
        },
        {
          "duration": 0.09677399999999636,
          "durationTicks": 96,
          "midi": 75,
          "name": "D#5",
          "ticks": 74002,
          "time": 74.598641125,
          "velocity": 0.2283464566929134
        },
        {
          "duration": 0.09677399999999636,
          "durationTicks": 96,
          "midi": 79,
          "name": "G5",
          "ticks": 74099,
          "time": 74.6964231875,
          "velocity": 0.2125984251968504
        },
        {
          "duration": 0.09677399999999636,
          "durationTicks": 96,
          "midi": 77,
          "name": "F5",
          "ticks": 74288,
          "time": 74.886947,
          "velocity": 0.2283464566929134
        },
        {
          "duration": 0.38709599999999966,
          "durationTicks": 384,
          "midi": 75,
          "name": "D#5",
          "ticks": 74479,
          "time": 75.0794869375,
          "velocity": 0.23622047244094488
        },
        {
          "duration": 0.38709599999999966,
          "durationTicks": 384,
          "midi": 74,
          "name": "D5",
          "ticks": 74860,
          "time": 75.46355874999999,
          "velocity": 0.2283464566929134
        },
        {
          "duration": 0.38709599999999966,
          "durationTicks": 384,
          "midi": 84,
          "name": "C6",
          "ticks": 75241,
          "time": 75.8476305625,
          "velocity": 0.2440944881889764
        },
        {
          "duration": 0.2903220000000033,
          "durationTicks": 288,
          "midi": 84,
          "name": "C6",
          "ticks": 75635,
          "time": 76.2448071875,
          "velocity": 0.2283464566929134
        },
        {
          "duration": 0.09677400000001057,
          "durationTicks": 96,
          "midi": 82,
          "name": "A#5",
          "ticks": 75917,
          "time": 76.5290808125,
          "velocity": 0.2283464566929134
        },
        {
          "duration": 0.09677399999999636,
          "durationTicks": 96,
          "midi": 84,
          "name": "C6",
          "ticks": 76015,
          "time": 76.62787093749999,
          "velocity": 0.2125984251968504
        },
        {
          "duration": 0.09677400000001057,
          "durationTicks": 96,
          "midi": 82,
          "name": "A#5",
          "ticks": 76206,
          "time": 76.820410875,
          "velocity": 0.2283464566929134
        },
        {
          "duration": 0.09677400000001057,
          "durationTicks": 96,
          "midi": 80,
          "name": "G#5",
          "ticks": 76396,
          "time": 77.01194274999999,
          "velocity": 0.2283464566929134
        },
        {
          "duration": 0.09677399999999636,
          "durationTicks": 96,
          "midi": 79,
          "name": "G5",
          "ticks": 76585,
          "time": 77.20246656249999,
          "velocity": 0.2283464566929134
        },
        {
          "duration": 0.09677399999999636,
          "durationTicks": 96,
          "midi": 82,
          "name": "A#5",
          "ticks": 76777,
          "time": 77.3960145625,
          "velocity": 0.2283464566929134
        },
        {
          "duration": 0.09677399999999636,
          "durationTicks": 96,
          "midi": 80,
          "name": "G#5",
          "ticks": 76886,
          "time": 77.505893375,
          "velocity": 0.2283464566929134
        },
        {
          "duration": 0.09677399999999636,
          "durationTicks": 96,
          "midi": 79,
          "name": "G5",
          "ticks": 76979,
          "time": 77.5996431875,
          "velocity": 0.2283464566929134
        },
        {
          "duration": 0.09677399999999636,
          "durationTicks": 96,
          "midi": 77,
          "name": "F5",
          "ticks": 77073,
          "time": 77.6944010625,
          "velocity": 0.2283464566929134
        },
        {
          "duration": 0.09677399999999636,
          "durationTicks": 96,
          "midi": 75,
          "name": "D#5",
          "ticks": 77170,
          "time": 77.792183125,
          "velocity": 0.2125984251968504
        },
        {
          "duration": 0.09677399999999636,
          "durationTicks": 96,
          "midi": 77,
          "name": "F5",
          "ticks": 77359,
          "time": 77.9827069375,
          "velocity": 0.2283464566929134
        },
        {
          "duration": 0.28225750000000005,
          "durationTicks": 280,
          "midi": 79,
          "name": "G5",
          "ticks": 77550,
          "time": 78.175246875,
          "velocity": 0.23622047244094488
        },
        {
          "duration": 0.5887085000000098,
          "durationTicks": 584,
          "midi": 79,
          "name": "G5",
          "ticks": 77734,
          "time": 78.36073037499999,
          "velocity": 0.3937007874015748
        },
        {
          "duration": 0.19354800000000694,
          "durationTicks": 192,
          "midi": 82,
          "name": "A#5",
          "ticks": 77926,
          "time": 78.554278375,
          "velocity": 0.3937007874015748
        },
        {
          "duration": 0.38709599999999966,
          "durationTicks": 384,
          "midi": 82,
          "name": "A#5",
          "ticks": 78312,
          "time": 78.94339049999999,
          "velocity": 0.2440944881889764
        },
        {
          "duration": 0.2903220000000033,
          "durationTicks": 288,
          "midi": 82,
          "name": "A#5",
          "ticks": 78706,
          "time": 79.34056712499999,
          "velocity": 0.2283464566929134
        },
        {
          "duration": 0.09677400000001057,
          "durationTicks": 96,
          "midi": 80,
          "name": "G#5",
          "ticks": 78988,
          "time": 79.62484074999999,
          "velocity": 0.2283464566929134
        },
        {
          "duration": 0.09677399999999636,
          "durationTicks": 96,
          "midi": 79,
          "name": "G5",
          "ticks": 79086,
          "time": 79.723630875,
          "velocity": 0.2125984251968504
        },
        {
          "duration": 0.09677400000001057,
          "durationTicks": 96,
          "midi": 77,
          "name": "F5",
          "ticks": 79277,
          "time": 79.9161708125,
          "velocity": 0.2283464566929134
        },
        {
          "duration": 0.09677400000001057,
          "durationTicks": 96,
          "midi": 75,
          "name": "D#5",
          "ticks": 79467,
          "time": 80.1077026875,
          "velocity": 0.2283464566929134
        },
        {
          "duration": 0.09677399999999636,
          "durationTicks": 96,
          "midi": 77,
          "name": "F5",
          "ticks": 79656,
          "time": 80.2982265,
          "velocity": 0.2283464566929134
        },
        {
          "duration": 0.09677399999999636,
          "durationTicks": 96,
          "midi": 79,
          "name": "G5",
          "ticks": 79848,
          "time": 80.4917745,
          "velocity": 0.2283464566929134
        },
        {
          "duration": 0.09677400000001057,
          "durationTicks": 96,
          "midi": 75,
          "name": "D#5",
          "ticks": 79957,
          "time": 80.60165331249999,
          "velocity": 0.2283464566929134
        },
        {
          "duration": 0.09677399999999636,
          "durationTicks": 96,
          "midi": 72,
          "name": "C5",
          "ticks": 80050,
          "time": 80.695403125,
          "velocity": 0.2283464566929134
        },
        {
          "duration": 0.09677400000001057,
          "durationTicks": 96,
          "midi": 75,
          "name": "D#5",
          "ticks": 80144,
          "time": 80.790161,
          "velocity": 0.2283464566929134
        },
        {
          "duration": 0.09677399999999636,
          "durationTicks": 96,
          "midi": 79,
          "name": "G5",
          "ticks": 80241,
          "time": 80.8879430625,
          "velocity": 0.2125984251968504
        },
        {
          "duration": 0.09677399999999636,
          "durationTicks": 96,
          "midi": 77,
          "name": "F5",
          "ticks": 80430,
          "time": 81.078466875,
          "velocity": 0.2283464566929134
        },
        {
          "duration": 0.38709599999999966,
          "durationTicks": 384,
          "midi": 75,
          "name": "D#5",
          "ticks": 80621,
          "time": 81.2710068125,
          "velocity": 0.23622047244094488
        },
        {
          "duration": 0.38709599999999966,
          "durationTicks": 384,
          "midi": 74,
          "name": "D5",
          "ticks": 81002,
          "time": 81.655078625,
          "velocity": 0.2283464566929134
        },
        {
          "duration": 0.09677399999999636,
          "durationTicks": 96,
          "midi": 72,
          "name": "C5",
          "ticks": 81586,
          "time": 82.243787125,
          "velocity": 0.2283464566929134
        },
        {
          "duration": 0.09677400000001057,
          "durationTicks": 96,
          "midi": 74,
          "name": "D5",
          "ticks": 81680,
          "time": 82.338545,
          "velocity": 0.2283464566929134
        },
        {
          "duration": 0.09677399999999636,
          "durationTicks": 96,
          "midi": 75,
          "name": "D#5",
          "ticks": 81777,
          "time": 82.4363270625,
          "velocity": 0.2125984251968504
        },
        {
          "duration": 0.09677399999999636,
          "durationTicks": 96,
          "midi": 72,
          "name": "C5",
          "ticks": 81966,
          "time": 82.626850875,
          "velocity": 0.2283464566929134
        },
        {
          "duration": 0.19354799999999273,
          "durationTicks": 192,
          "midi": 77,
          "name": "F5",
          "ticks": 82157,
          "time": 82.8193908125,
          "velocity": 0.2283464566929134
        },
        {
          "duration": 0.09677400000001057,
          "durationTicks": 96,
          "midi": 75,
          "name": "D#5",
          "ticks": 82348,
          "time": 83.01193074999999,
          "velocity": 0.2125984251968504
        },
        {
          "duration": 0.09677399999999636,
          "durationTicks": 96,
          "midi": 74,
          "name": "D5",
          "ticks": 82538,
          "time": 83.203462625,
          "velocity": 0.2283464566929134
        },
        {
          "duration": 0.09677399999999636,
          "durationTicks": 96,
          "midi": 72,
          "name": "C5",
          "ticks": 82727,
          "time": 83.3939864375,
          "velocity": 0.2283464566929134
        },
        {
          "duration": 0.2903220000000033,
          "durationTicks": 288,
          "midi": 70,
          "name": "A#4",
          "ticks": 82919,
          "time": 83.5875344375,
          "velocity": 0.2440944881889764
        },
        {
          "duration": 0.09677399999999636,
          "durationTicks": 96,
          "midi": 68,
          "name": "G#4",
          "ticks": 83216,
          "time": 83.88692900000001,
          "velocity": 0.2283464566929134
        },
        {
          "duration": 0.09677399999999636,
          "durationTicks": 96,
          "midi": 67,
          "name": "G4",
          "ticks": 83313,
          "time": 83.9847110625,
          "velocity": 0.2125984251968504
        },
        {
          "duration": 0.19354799999999273,
          "durationTicks": 192,
          "midi": 68,
          "name": "G#4",
          "ticks": 83502,
          "time": 84.175234875,
          "velocity": 0.2283464566929134
        },
        {
          "duration": 0.38709599999999966,
          "durationTicks": 384,
          "midi": 70,
          "name": "A#4",
          "ticks": 83693,
          "time": 84.3677748125,
          "velocity": 0.23622047244094488
        },
        {
          "duration": 0.38709599999999966,
          "durationTicks": 384,
          "midi": 65,
          "name": "F4",
          "ticks": 84074,
          "time": 84.751846625,
          "velocity": 0.2283464566929134
        },
        {
          "duration": 0.09677399999999636,
          "durationTicks": 96,
          "midi": 62,
          "name": "D4",
          "ticks": 84658,
          "time": 85.340555125,
          "velocity": 0.2283464566929134
        },
        {
          "duration": 0.09677399999999636,
          "durationTicks": 96,
          "midi": 63,
          "name": "D#4",
          "ticks": 84752,
          "time": 85.43531300000001,
          "velocity": 0.2283464566929134
        },
        {
          "duration": 0.09677399999999636,
          "durationTicks": 96,
          "midi": 65,
          "name": "F4",
          "ticks": 84849,
          "time": 85.5330950625,
          "velocity": 0.2125984251968504
        },
        {
          "duration": 0.09677399999999636,
          "durationTicks": 96,
          "midi": 62,
          "name": "D4",
          "ticks": 85038,
          "time": 85.723618875,
          "velocity": 0.2283464566929134
        },
        {
          "duration": 0.19354800000000694,
          "durationTicks": 192,
          "midi": 67,
          "name": "G4",
          "ticks": 85229,
          "time": 85.9161588125,
          "velocity": 0.2283464566929134
        },
        {
          "duration": 0.09677399999999636,
          "durationTicks": 96,
          "midi": 65,
          "name": "F4",
          "ticks": 85420,
          "time": 86.10869875,
          "velocity": 0.2125984251968504
        },
        {
          "duration": 0.09677400000001057,
          "durationTicks": 96,
          "midi": 63,
          "name": "D#4",
          "ticks": 85610,
          "time": 86.300230625,
          "velocity": 0.2283464566929134
        },
        {
          "duration": 0.09677399999999636,
          "durationTicks": 96,
          "midi": 62,
          "name": "D4",
          "ticks": 85799,
          "time": 86.4907544375,
          "velocity": 0.2283464566929134
        },
        {
          "duration": 0.38709599999999966,
          "durationTicks": 384,
          "midi": 63,
          "name": "D#4",
          "ticks": 85991,
          "time": 86.68430243750001,
          "velocity": 0.2440944881889764
        },
        {
          "duration": 0.38709599999999966,
          "durationTicks": 384,
          "midi": 63,
          "name": "D#4",
          "ticks": 86385,
          "time": 87.0814790625,
          "velocity": 0.2283464566929134
        },
        {
          "duration": 0.7741919999999993,
          "durationTicks": 768,
          "midi": 62,
          "name": "D4",
          "ticks": 86765,
          "time": 87.4645428125,
          "velocity": 0.23622047244094488
        },
        {
          "duration": 0.09677400000001057,
          "durationTicks": 96,
          "midi": 72,
          "name": "C5",
          "ticks": 87730,
          "time": 88.43732312499999,
          "velocity": 0.2283464566929134
        },
        {
          "duration": 0.09677399999999636,
          "durationTicks": 96,
          "midi": 74,
          "name": "D5",
          "ticks": 87824,
          "time": 88.532081,
          "velocity": 0.2283464566929134
        },
        {
          "duration": 0.09677400000001057,
          "durationTicks": 96,
          "midi": 75,
          "name": "D#5",
          "ticks": 87921,
          "time": 88.6298630625,
          "velocity": 0.2125984251968504
        },
        {
          "duration": 0.09677399999999636,
          "durationTicks": 96,
          "midi": 72,
          "name": "C5",
          "ticks": 88110,
          "time": 88.820386875,
          "velocity": 0.2283464566929134
        },
        {
          "duration": 0.19354800000000694,
          "durationTicks": 192,
          "midi": 77,
          "name": "F5",
          "ticks": 88301,
          "time": 89.0129268125,
          "velocity": 0.2283464566929134
        },
        {
          "duration": 0.09677399999999636,
          "durationTicks": 96,
          "midi": 75,
          "name": "D#5",
          "ticks": 88492,
          "time": 89.20546675,
          "velocity": 0.2125984251968504
        },
        {
          "duration": 0.09677399999999636,
          "durationTicks": 96,
          "midi": 74,
          "name": "D5",
          "ticks": 88682,
          "time": 89.39699862500001,
          "velocity": 0.2283464566929134
        },
        {
          "duration": 0.09677400000001057,
          "durationTicks": 96,
          "midi": 72,
          "name": "C5",
          "ticks": 88871,
          "time": 89.5875224375,
          "velocity": 0.2283464566929134
        },
        {
          "duration": 0.09677399999999636,
          "durationTicks": 96,
          "midi": 70,
          "name": "A#4",
          "ticks": 89063,
          "time": 89.7810704375,
          "velocity": 0.2283464566929134
        },
        {
          "duration": 0.09677399999999636,
          "durationTicks": 96,
          "midi": 68,
          "name": "G#4",
          "ticks": 89172,
          "time": 89.89094925,
          "velocity": 0.2283464566929134
        },
        {
          "duration": 0.09677399999999636,
          "durationTicks": 96,
          "midi": 67,
          "name": "G4",
          "ticks": 89265,
          "time": 89.9846990625,
          "velocity": 0.2283464566929134
        },
        {
          "duration": 0.09677399999999636,
          "durationTicks": 96,
          "midi": 68,
          "name": "G#4",
          "ticks": 89359,
          "time": 90.0794569375,
          "velocity": 0.2283464566929134
        },
        {
          "duration": 0.09677399999999636,
          "durationTicks": 96,
          "midi": 70,
          "name": "A#4",
          "ticks": 89456,
          "time": 90.177239,
          "velocity": 0.2125984251968504
        },
        {
          "duration": 0.09677399999999636,
          "durationTicks": 96,
          "midi": 68,
          "name": "G#4",
          "ticks": 89645,
          "time": 90.3677628125,
          "velocity": 0.2283464566929134
        },
        {
          "duration": 0.38709599999999966,
          "durationTicks": 384,
          "midi": 67,
          "name": "G4",
          "ticks": 89836,
          "time": 90.56030274999999,
          "velocity": 0.23622047244094488
        },
        {
          "duration": 0.38709599999999966,
          "durationTicks": 384,
          "midi": 63,
          "name": "D#4",
          "ticks": 90217,
          "time": 90.9443745625,
          "velocity": 0.2283464566929134
        },
        {
          "duration": 0.09677399999999636,
          "durationTicks": 96,
          "midi": 62,
          "name": "D4",
          "ticks": 90801,
          "time": 91.5330830625,
          "velocity": 0.2283464566929134
        },
        {
          "duration": 0.09677399999999636,
          "durationTicks": 96,
          "midi": 63,
          "name": "D#4",
          "ticks": 90895,
          "time": 91.6278409375,
          "velocity": 0.2283464566929134
        },
        {
          "duration": 0.09677400000001057,
          "durationTicks": 96,
          "midi": 65,
          "name": "F4",
          "ticks": 90992,
          "time": 91.725623,
          "velocity": 0.2125984251968504
        },
        {
          "duration": 0.09677399999999636,
          "durationTicks": 96,
          "midi": 62,
          "name": "D4",
          "ticks": 91181,
          "time": 91.9161468125,
          "velocity": 0.2283464566929134
        },
        {
          "duration": 0.19354800000000694,
          "durationTicks": 192,
          "midi": 67,
          "name": "G4",
          "ticks": 91372,
          "time": 92.10868674999999,
          "velocity": 0.2283464566929134
        },
        {
          "duration": 0.09677399999999636,
          "durationTicks": 96,
          "midi": 65,
          "name": "F4",
          "ticks": 91563,
          "time": 92.3012266875,
          "velocity": 0.2125984251968504
        },
        {
          "duration": 0.09677399999999636,
          "durationTicks": 96,
          "midi": 63,
          "name": "D#4",
          "ticks": 91753,
          "time": 92.4927585625,
          "velocity": 0.2283464566929134
        },
        {
          "duration": 0.09677400000001057,
          "durationTicks": 96,
          "midi": 62,
          "name": "D4",
          "ticks": 91942,
          "time": 92.68328237499999,
          "velocity": 0.2283464566929134
        },
        {
          "duration": 0.09677399999999636,
          "durationTicks": 96,
          "midi": 62,
          "name": "D4",
          "ticks": 92134,
          "time": 92.876830375,
          "velocity": 0.2440944881889764
        },
        {
          "duration": 0.09677399999999636,
          "durationTicks": 96,
          "midi": 62,
          "name": "D4",
          "ticks": 92337,
          "time": 93.0814670625,
          "velocity": 0.2283464566929134
        },
        {
          "duration": 0.09677399999999636,
          "durationTicks": 96,
          "midi": 63,
          "name": "D#4",
          "ticks": 92431,
          "time": 93.1762249375,
          "velocity": 0.2283464566929134
        },
        {
          "duration": 0.09677400000001057,
          "durationTicks": 96,
          "midi": 62,
          "name": "D4",
          "ticks": 92528,
          "time": 93.274007,
          "velocity": 0.2125984251968504
        },
        {
          "duration": 0.09677399999999636,
          "durationTicks": 96,
          "midi": 62,
          "name": "D4",
          "ticks": 92717,
          "time": 93.4645308125,
          "velocity": 0.2283464566929134
        },
        {
          "duration": 0.09677399999999636,
          "durationTicks": 96,
          "midi": 63,
          "name": "D#4",
          "ticks": 92810,
          "time": 93.55828062500001,
          "velocity": 0.2283464566929134
        },
        {
          "duration": 0.09677400000001057,
          "durationTicks": 96,
          "midi": 62,
          "name": "D4",
          "ticks": 92908,
          "time": 93.65707074999999,
          "velocity": 0.2125984251968504
        },
        {
          "duration": 0.09677399999999636,
          "durationTicks": 96,
          "midi": 62,
          "name": "D4",
          "ticks": 93099,
          "time": 93.8496106875,
          "velocity": 0.2283464566929134
        },
        {
          "duration": 0.09677399999999636,
          "durationTicks": 96,
          "midi": 63,
          "name": "D#4",
          "ticks": 93192,
          "time": 93.9433605,
          "velocity": 0.2283464566929134
        },
        {
          "duration": 0.09677399999999636,
          "durationTicks": 96,
          "midi": 62,
          "name": "D4",
          "ticks": 93289,
          "time": 94.0411425625,
          "velocity": 0.2125984251968504
        },
        {
          "duration": 0.09677400000001057,
          "durationTicks": 96,
          "midi": 62,
          "name": "D4",
          "ticks": 93478,
          "time": 94.23166637499999,
          "velocity": 0.2283464566929134
        },
        {
          "duration": 0.09677399999999636,
          "durationTicks": 96,
          "midi": 63,
          "name": "D#4",
          "ticks": 93571,
          "time": 94.3254161875,
          "velocity": 0.2125984251968504
        },
        {
          "duration": 0.09677399999999636,
          "durationTicks": 96,
          "midi": 62,
          "name": "D4",
          "ticks": 93670,
          "time": 94.425214375,
          "velocity": 0.2440944881889764
        },
        {
          "duration": 0.09677400000001057,
          "durationTicks": 96,
          "midi": 63,
          "name": "D#4",
          "ticks": 93779,
          "time": 94.5350931875,
          "velocity": 0.2283464566929134
        },
        {
          "duration": 0.09677399999999636,
          "durationTicks": 96,
          "midi": 62,
          "name": "D4",
          "ticks": 93872,
          "time": 94.628843,
          "velocity": 0.2283464566929134
        },
        {
          "duration": 0.09677399999999636,
          "durationTicks": 96,
          "midi": 63,
          "name": "D#4",
          "ticks": 93966,
          "time": 94.723600875,
          "velocity": 0.2283464566929134
        },
        {
          "duration": 0.09677400000001057,
          "durationTicks": 96,
          "midi": 62,
          "name": "D4",
          "ticks": 94063,
          "time": 94.82138293749999,
          "velocity": 0.2283464566929134
        },
        {
          "duration": 0.09677399999999636,
          "durationTicks": 96,
          "midi": 63,
          "name": "D#4",
          "ticks": 94160,
          "time": 94.919165,
          "velocity": 0.2283464566929134
        },
        {
          "duration": 0.09677399999999636,
          "durationTicks": 96,
          "midi": 62,
          "name": "D4",
          "ticks": 94252,
          "time": 95.01190675,
          "velocity": 0.2283464566929134
        },
        {
          "duration": 0.09677399999999636,
          "durationTicks": 96,
          "midi": 63,
          "name": "D#4",
          "ticks": 94345,
          "time": 95.1056565625,
          "velocity": 0.2283464566929134
        },
        {
          "duration": 0.09677399999999636,
          "durationTicks": 96,
          "midi": 62,
          "name": "D4",
          "ticks": 94443,
          "time": 95.2044466875,
          "velocity": 0.23622047244094488
        },
        {
          "duration": 0.09677400000001057,
          "durationTicks": 96,
          "midi": 63,
          "name": "D#4",
          "ticks": 94542,
          "time": 95.304244875,
          "velocity": 0.2283464566929134
        },
        {
          "duration": 0.09677400000001057,
          "durationTicks": 96,
          "midi": 62,
          "name": "D4",
          "ticks": 94634,
          "time": 95.396986625,
          "velocity": 0.2283464566929134
        },
        {
          "duration": 0.09677399999999636,
          "durationTicks": 96,
          "midi": 63,
          "name": "D#4",
          "ticks": 94727,
          "time": 95.4907364375,
          "velocity": 0.2283464566929134
        },
        {
          "duration": 0.09677400000001057,
          "durationTicks": 96,
          "midi": 62,
          "name": "D4",
          "ticks": 94824,
          "time": 95.58851849999999,
          "velocity": 0.2283464566929134
        },
        {
          "duration": 0.09677399999999636,
          "durationTicks": 96,
          "midi": 63,
          "name": "D#4",
          "ticks": 94920,
          "time": 95.6852925,
          "velocity": 0.2283464566929134
        },
        {
          "duration": 0.09677399999999636,
          "durationTicks": 96,
          "midi": 62,
          "name": "D4",
          "ticks": 95013,
          "time": 95.7790423125,
          "velocity": 0.2283464566929134
        },
        {
          "duration": 0.09677399999999636,
          "durationTicks": 96,
          "midi": 63,
          "name": "D#4",
          "ticks": 95106,
          "time": 95.872792125,
          "velocity": 0.2283464566929134
        },
        {
          "duration": 0.09677399999999636,
          "durationTicks": 96,
          "midi": 67,
          "name": "G4",
          "ticks": 95205,
          "time": 95.9725903125,
          "velocity": 0.2440944881889764
        },
        {
          "duration": 0.09677400000001057,
          "durationTicks": 96,
          "midi": 68,
          "name": "G#4",
          "ticks": 95314,
          "time": 96.08246912499999,
          "velocity": 0.2283464566929134
        },
        {
          "duration": 0.09677399999999636,
          "durationTicks": 96,
          "midi": 67,
          "name": "G4",
          "ticks": 95407,
          "time": 96.1762189375,
          "velocity": 0.2283464566929134
        },
        {
          "duration": 0.09677399999999636,
          "durationTicks": 96,
          "midi": 68,
          "name": "G#4",
          "ticks": 95501,
          "time": 96.27097681250001,
          "velocity": 0.2283464566929134
        },
        {
          "duration": 0.09677399999999636,
          "durationTicks": 96,
          "midi": 67,
          "name": "G4",
          "ticks": 95598,
          "time": 96.368758875,
          "velocity": 0.2283464566929134
        },
        {
          "duration": 0.09677399999999636,
          "durationTicks": 96,
          "midi": 68,
          "name": "G#4",
          "ticks": 95695,
          "time": 96.4665409375,
          "velocity": 0.2283464566929134
        },
        {
          "duration": 0.09677399999999636,
          "durationTicks": 96,
          "midi": 67,
          "name": "G4",
          "ticks": 95787,
          "time": 96.5592826875,
          "velocity": 0.2283464566929134
        },
        {
          "duration": 0.09677400000001057,
          "durationTicks": 96,
          "midi": 68,
          "name": "G#4",
          "ticks": 95880,
          "time": 96.6530325,
          "velocity": 0.2283464566929134
        },
        {
          "duration": 0.09677399999999636,
          "durationTicks": 96,
          "midi": 67,
          "name": "G4",
          "ticks": 95978,
          "time": 96.751822625,
          "velocity": 0.2283464566929134
        },
        {
          "duration": 0.09677399999999636,
          "durationTicks": 96,
          "midi": 69,
          "name": "A4",
          "ticks": 96077,
          "time": 96.8516208125,
          "velocity": 0.2283464566929134
        },
        {
          "duration": 0.09677400000001057,
          "durationTicks": 96,
          "midi": 71,
          "name": "B4",
          "ticks": 96169,
          "time": 96.94436256249999,
          "velocity": 0.2283464566929134
        },
        {
          "duration": 0.09677399999999636,
          "durationTicks": 96,
          "midi": 72,
          "name": "C5",
          "ticks": 96262,
          "time": 97.038112375,
          "velocity": 0.2283464566929134
        },
        {
          "duration": 0.09677399999999636,
          "durationTicks": 96,
          "midi": 74,
          "name": "D5",
          "ticks": 96359,
          "time": 97.1358944375,
          "velocity": 0.2283464566929134
        },
        {
          "duration": 0.09677400000001057,
          "durationTicks": 96,
          "midi": 75,
          "name": "D#5",
          "ticks": 96455,
          "time": 97.2326684375,
          "velocity": 0.2283464566929134
        },
        {
          "duration": 0.09677399999999636,
          "durationTicks": 96,
          "midi": 77,
          "name": "F5",
          "ticks": 96548,
          "time": 97.32641825,
          "velocity": 0.2283464566929134
        },
        {
          "duration": 0.09677400000001057,
          "durationTicks": 96,
          "midi": 79,
          "name": "G5",
          "ticks": 96641,
          "time": 97.4201680625,
          "velocity": 0.2125984251968504
        },
        {
          "duration": 0.09677399999999636,
          "durationTicks": 96,
          "midi": 83,
          "name": "B5",
          "ticks": 96738,
          "time": 97.517950125,
          "velocity": 0.2283464566929134
        },
        {
          "duration": 0.2903219999999891,
          "durationTicks": 288,
          "midi": 84,
          "name": "C6",
          "ticks": 96816,
          "time": 97.596579,
          "velocity": 0.2125984251968504
        },
        {
          "duration": 0.2903220000000033,
          "durationTicks": 288,
          "midi": 84,
          "name": "C6",
          "ticks": 97134,
          "time": 97.917142875,
          "velocity": 0.2283464566929134
        },
        {
          "duration": 0.09677400000001057,
          "durationTicks": 96,
          "midi": 82,
          "name": "A#5",
          "ticks": 97416,
          "time": 98.2014165,
          "velocity": 0.2283464566929134
        },
        {
          "duration": 0.09677399999999636,
          "durationTicks": 96,
          "midi": 84,
          "name": "C6",
          "ticks": 97514,
          "time": 98.300206625,
          "velocity": 0.2125984251968504
        },
        {
          "duration": 0.09677400000001057,
          "durationTicks": 96,
          "midi": 82,
          "name": "A#5",
          "ticks": 97705,
          "time": 98.49274656249999,
          "velocity": 0.2283464566929134
        },
        {
          "duration": 0.09677400000001057,
          "durationTicks": 96,
          "midi": 80,
          "name": "G#5",
          "ticks": 97895,
          "time": 98.6842784375,
          "velocity": 0.2283464566929134
        },
        {
          "duration": 0.09677399999999636,
          "durationTicks": 96,
          "midi": 79,
          "name": "G5",
          "ticks": 98084,
          "time": 98.87480225,
          "velocity": 0.2283464566929134
        },
        {
          "duration": 0.09677399999998215,
          "durationTicks": 96,
          "midi": 82,
          "name": "A#5",
          "ticks": 98276,
          "time": 99.06835025000001,
          "velocity": 0.2283464566929134
        },
        {
          "duration": 0.09677400000001057,
          "durationTicks": 96,
          "midi": 80,
          "name": "G#5",
          "ticks": 98385,
          "time": 99.1782290625,
          "velocity": 0.2283464566929134
        },
        {
          "duration": 0.09677399999999636,
          "durationTicks": 96,
          "midi": 79,
          "name": "G5",
          "ticks": 98478,
          "time": 99.271978875,
          "velocity": 0.2283464566929134
        },
        {
          "duration": 0.09677400000001057,
          "durationTicks": 96,
          "midi": 77,
          "name": "F5",
          "ticks": 98572,
          "time": 99.36673675,
          "velocity": 0.2283464566929134
        },
        {
          "duration": 0.09677399999999636,
          "durationTicks": 96,
          "midi": 75,
          "name": "D#5",
          "ticks": 98669,
          "time": 99.46451881249999,
          "velocity": 0.2125984251968504
        },
        {
          "duration": 0.09677399999999636,
          "durationTicks": 96,
          "midi": 77,
          "name": "F5",
          "ticks": 98858,
          "time": 99.655042625,
          "velocity": 0.2283464566929134
        },
        {
          "duration": 0.7741919999999993,
          "durationTicks": 768,
          "midi": 79,
          "name": "G5",
          "ticks": 99049,
          "time": 99.84758256250001,
          "velocity": 0.23622047244094488
        },
        {
          "duration": 0.09677399999999636,
          "durationTicks": 96,
          "midi": 81,
          "name": "A5",
          "ticks": 99809,
          "time": 100.61371006249999,
          "velocity": 0.2283464566929134
        },
        {
          "duration": 0.2903220000000033,
          "durationTicks": 288,
          "midi": 82,
          "name": "A#5",
          "ticks": 99885,
          "time": 100.6903228125,
          "velocity": 0.2125984251968504
        },
        {
          "duration": 0.2903220000000033,
          "durationTicks": 288,
          "midi": 82,
          "name": "A#5",
          "ticks": 100205,
          "time": 101.01290281249999,
          "velocity": 0.2283464566929134
        },
        {
          "duration": 0.09677400000001057,
          "durationTicks": 96,
          "midi": 80,
          "name": "G#5",
          "ticks": 100487,
          "time": 101.29717643749999,
          "velocity": 0.2283464566929134
        },
        {
          "duration": 0.09677399999999636,
          "durationTicks": 96,
          "midi": 79,
          "name": "G5",
          "ticks": 100585,
          "time": 101.3959665625,
          "velocity": 0.2125984251968504
        },
        {
          "duration": 0.09677400000001057,
          "durationTicks": 96,
          "midi": 77,
          "name": "F5",
          "ticks": 100776,
          "time": 101.5885065,
          "velocity": 0.2283464566929134
        },
        {
          "duration": 0.09677399999999636,
          "durationTicks": 96,
          "midi": 75,
          "name": "D#5",
          "ticks": 100966,
          "time": 101.780038375,
          "velocity": 0.2283464566929134
        },
        {
          "duration": 0.09677399999999636,
          "durationTicks": 96,
          "midi": 77,
          "name": "F5",
          "ticks": 101155,
          "time": 101.97056218750001,
          "velocity": 0.2283464566929134
        },
        {
          "duration": 0.09677400000001057,
          "durationTicks": 96,
          "midi": 79,
          "name": "G5",
          "ticks": 101347,
          "time": 102.1641101875,
          "velocity": 0.2283464566929134
        },
        {
          "duration": 0.09677400000001057,
          "durationTicks": 96,
          "midi": 75,
          "name": "D#5",
          "ticks": 101456,
          "time": 102.27398899999999,
          "velocity": 0.2283464566929134
        },
        {
          "duration": 0.09677399999999636,
          "durationTicks": 96,
          "midi": 72,
          "name": "C5",
          "ticks": 101549,
          "time": 102.3677388125,
          "velocity": 0.2283464566929134
        },
        {
          "duration": 0.09677400000001057,
          "durationTicks": 96,
          "midi": 75,
          "name": "D#5",
          "ticks": 101643,
          "time": 102.46249668749999,
          "velocity": 0.2283464566929134
        },
        {
          "duration": 0.09677399999999636,
          "durationTicks": 96,
          "midi": 79,
          "name": "G5",
          "ticks": 101740,
          "time": 102.56027875000001,
          "velocity": 0.2125984251968504
        },
        {
          "duration": 0.09677399999999636,
          "durationTicks": 96,
          "midi": 77,
          "name": "F5",
          "ticks": 101929,
          "time": 102.75080256250001,
          "velocity": 0.2283464566929134
        },
        {
          "duration": 0.38709599999999966,
          "durationTicks": 384,
          "midi": 75,
          "name": "D#5",
          "ticks": 102120,
          "time": 102.9433425,
          "velocity": 0.23622047244094488
        },
        {
          "duration": 0.19354800000000694,
          "durationTicks": 192,
          "midi": 74,
          "name": "D5",
          "ticks": 102501,
          "time": 103.3274143125,
          "velocity": 0.2283464566929134
        },
        {
          "duration": 0.0977820625000021,
          "durationTicks": 97,
          "midi": 72,
          "name": "C5",
          "ticks": 102690,
          "time": 103.517938125,
          "velocity": 0.2283464566929134
        },
        {
          "duration": 0.09778206250001631,
          "durationTicks": 97,
          "midi": 75,
          "name": "D#5",
          "ticks": 102752,
          "time": 103.58043799999999,
          "velocity": 0.2283464566929134
        },
        {
          "duration": 0.0977820625000021,
          "durationTicks": 97,
          "midi": 79,
          "name": "G5",
          "ticks": 102815,
          "time": 103.64394593749999,
          "velocity": 0.2283464566929134
        },
        {
          "duration": 0.38709599999999966,
          "durationTicks": 384,
          "midi": 84,
          "name": "C6",
          "ticks": 102884,
          "time": 103.71350224999999,
          "velocity": 0.2125984251968504
        },
        {
          "duration": 0.2903219999999891,
          "durationTicks": 288,
          "midi": 84,
          "name": "C6",
          "ticks": 103278,
          "time": 104.110678875,
          "velocity": 0.2283464566929134
        },
        {
          "duration": 0.09677399999999636,
          "durationTicks": 96,
          "midi": 82,
          "name": "A#5",
          "ticks": 103560,
          "time": 104.3949525,
          "velocity": 0.2283464566929134
        },
        {
          "duration": 0.09677399999999636,
          "durationTicks": 96,
          "midi": 84,
          "name": "C6",
          "ticks": 103658,
          "time": 104.493742625,
          "velocity": 0.2125984251968504
        },
        {
          "duration": 0.09677399999999636,
          "durationTicks": 96,
          "midi": 82,
          "name": "A#5",
          "ticks": 103849,
          "time": 104.68628256250001,
          "velocity": 0.2283464566929134
        },
        {
          "duration": 0.09677399999999636,
          "durationTicks": 96,
          "midi": 80,
          "name": "G#5",
          "ticks": 104039,
          "time": 104.87781443749999,
          "velocity": 0.2283464566929134
        },
        {
          "duration": 0.09677399999999636,
          "durationTicks": 96,
          "midi": 79,
          "name": "G5",
          "ticks": 104228,
          "time": 105.06833825,
          "velocity": 0.2283464566929134
        },
        {
          "duration": 0.09677399999999636,
          "durationTicks": 96,
          "midi": 82,
          "name": "A#5",
          "ticks": 104420,
          "time": 105.26188624999999,
          "velocity": 0.2283464566929134
        },
        {
          "duration": 0.09677399999999636,
          "durationTicks": 96,
          "midi": 80,
          "name": "G#5",
          "ticks": 104529,
          "time": 105.3717650625,
          "velocity": 0.2283464566929134
        },
        {
          "duration": 0.09677399999999636,
          "durationTicks": 96,
          "midi": 79,
          "name": "G5",
          "ticks": 104622,
          "time": 105.465514875,
          "velocity": 0.2283464566929134
        },
        {
          "duration": 0.09677399999999636,
          "durationTicks": 96,
          "midi": 77,
          "name": "F5",
          "ticks": 104716,
          "time": 105.56027275000001,
          "velocity": 0.2283464566929134
        },
        {
          "duration": 0.09677399999999636,
          "durationTicks": 96,
          "midi": 75,
          "name": "D#5",
          "ticks": 104813,
          "time": 105.6580548125,
          "velocity": 0.2125984251968504
        },
        {
          "duration": 0.09677400000001057,
          "durationTicks": 96,
          "midi": 77,
          "name": "F5",
          "ticks": 105002,
          "time": 105.84857862499999,
          "velocity": 0.2283464566929134
        },
        {
          "duration": 0.7741919999999993,
          "durationTicks": 768,
          "midi": 79,
          "name": "G5",
          "ticks": 105193,
          "time": 106.0411185625,
          "velocity": 0.23622047244094488
        },
        {
          "duration": 0.38709599999999966,
          "durationTicks": 384,
          "midi": 82,
          "name": "A#5",
          "ticks": 105955,
          "time": 106.80926218750001,
          "velocity": 0.2440944881889764
        },
        {
          "duration": 0.2903219999999891,
          "durationTicks": 288,
          "midi": 82,
          "name": "A#5",
          "ticks": 106349,
          "time": 107.2064388125,
          "velocity": 0.2283464566929134
        },
        {
          "duration": 0.09677399999999636,
          "durationTicks": 96,
          "midi": 80,
          "name": "G#5",
          "ticks": 106631,
          "time": 107.4907124375,
          "velocity": 0.2283464566929134
        },
        {
          "duration": 0.09677400000001057,
          "durationTicks": 96,
          "midi": 79,
          "name": "G5",
          "ticks": 106729,
          "time": 107.5895025625,
          "velocity": 0.2125984251968504
        },
        {
          "duration": 0.09677399999999636,
          "durationTicks": 96,
          "midi": 77,
          "name": "F5",
          "ticks": 106920,
          "time": 107.7820425,
          "velocity": 0.2283464566929134
        },
        {
          "duration": 0.09677399999999636,
          "durationTicks": 96,
          "midi": 75,
          "name": "D#5",
          "ticks": 107110,
          "time": 107.97357437500001,
          "velocity": 0.2283464566929134
        },
        {
          "duration": 0.09677400000001057,
          "durationTicks": 96,
          "midi": 77,
          "name": "F5",
          "ticks": 107299,
          "time": 108.1640981875,
          "velocity": 0.2283464566929134
        },
        {
          "duration": 0.09677399999999636,
          "durationTicks": 96,
          "midi": 79,
          "name": "G5",
          "ticks": 107491,
          "time": 108.35764618750001,
          "velocity": 0.2283464566929134
        },
        {
          "duration": 0.09677399999999636,
          "durationTicks": 96,
          "midi": 75,
          "name": "D#5",
          "ticks": 107600,
          "time": 108.467525,
          "velocity": 0.2283464566929134
        },
        {
          "duration": 0.09677399999999636,
          "durationTicks": 96,
          "midi": 72,
          "name": "C5",
          "ticks": 107693,
          "time": 108.56127481249999,
          "velocity": 0.2283464566929134
        },
        {
          "duration": 0.09677399999999636,
          "durationTicks": 96,
          "midi": 75,
          "name": "D#5",
          "ticks": 107787,
          "time": 108.6560326875,
          "velocity": 0.2283464566929134
        },
        {
          "duration": 0.09677399999999636,
          "durationTicks": 96,
          "midi": 79,
          "name": "G5",
          "ticks": 107884,
          "time": 108.75381475,
          "velocity": 0.2125984251968504
        },
        {
          "duration": 0.09677399999999636,
          "durationTicks": 96,
          "midi": 77,
          "name": "F5",
          "ticks": 108073,
          "time": 108.94433856250001,
          "velocity": 0.2283464566929134
        },
        {
          "duration": 0.38709599999999966,
          "durationTicks": 384,
          "midi": 75,
          "name": "D#5",
          "ticks": 108264,
          "time": 109.1368785,
          "velocity": 0.23622047244094488
        },
        {
          "duration": 0.38709599999999966,
          "durationTicks": 384,
          "midi": 74,
          "name": "D5",
          "ticks": 108645,
          "time": 109.5209503125,
          "velocity": 0.2283464566929134
        },
        {
          "duration": 0.09677400000001057,
          "durationTicks": 96,
          "midi": 72,
          "name": "C5",
          "ticks": 109229,
          "time": 110.10965881249999,
          "velocity": 0.2283464566929134
        },
        {
          "duration": 0.09677399999999636,
          "durationTicks": 96,
          "midi": 74,
          "name": "D5",
          "ticks": 109323,
          "time": 110.2044166875,
          "velocity": 0.2283464566929134
        },
        {
          "duration": 0.09677400000001057,
          "durationTicks": 96,
          "midi": 75,
          "name": "D#5",
          "ticks": 109420,
          "time": 110.30219875,
          "velocity": 0.2125984251968504
        },
        {
          "duration": 0.09677399999999636,
          "durationTicks": 96,
          "midi": 72,
          "name": "C5",
          "ticks": 109609,
          "time": 110.4927225625,
          "velocity": 0.2283464566929134
        },
        {
          "duration": 0.19354800000000694,
          "durationTicks": 192,
          "midi": 77,
          "name": "F5",
          "ticks": 109800,
          "time": 110.6852625,
          "velocity": 0.2283464566929134
        },
        {
          "duration": 0.09677399999999636,
          "durationTicks": 96,
          "midi": 75,
          "name": "D#5",
          "ticks": 109991,
          "time": 110.8778024375,
          "velocity": 0.2125984251968504
        },
        {
          "duration": 0.09677399999999636,
          "durationTicks": 96,
          "midi": 74,
          "name": "D5",
          "ticks": 110181,
          "time": 111.0693343125,
          "velocity": 0.2283464566929134
        },
        {
          "duration": 0.09677400000001057,
          "durationTicks": 96,
          "midi": 72,
          "name": "C5",
          "ticks": 110370,
          "time": 111.259858125,
          "velocity": 0.2283464566929134
        },
        {
          "duration": 0.2903220000000033,
          "durationTicks": 288,
          "midi": 70,
          "name": "A#4",
          "ticks": 110562,
          "time": 111.453406125,
          "velocity": 0.2440944881889764
        },
        {
          "duration": 0.09677399999999636,
          "durationTicks": 96,
          "midi": 68,
          "name": "G#4",
          "ticks": 110859,
          "time": 111.7528006875,
          "velocity": 0.2283464566929134
        },
        {
          "duration": 0.09677400000001057,
          "durationTicks": 96,
          "midi": 67,
          "name": "G4",
          "ticks": 110956,
          "time": 111.85058275,
          "velocity": 0.2125984251968504
        },
        {
          "duration": 0.19354800000000694,
          "durationTicks": 192,
          "midi": 68,
          "name": "G#4",
          "ticks": 111145,
          "time": 112.0411065625,
          "velocity": 0.2283464566929134
        },
        {
          "duration": 0.3870960000000139,
          "durationTicks": 384,
          "midi": 70,
          "name": "A#4",
          "ticks": 111336,
          "time": 112.23364649999999,
          "velocity": 0.23622047244094488
        },
        {
          "duration": 0.38709599999999966,
          "durationTicks": 384,
          "midi": 65,
          "name": "F4",
          "ticks": 111717,
          "time": 112.6177183125,
          "velocity": 0.2283464566929134
        },
        {
          "duration": 0.09677399999999636,
          "durationTicks": 96,
          "midi": 62,
          "name": "D4",
          "ticks": 112301,
          "time": 113.2064268125,
          "velocity": 0.2283464566929134
        },
        {
          "duration": 0.09677399999999636,
          "durationTicks": 96,
          "midi": 63,
          "name": "D#4",
          "ticks": 112395,
          "time": 113.3011846875,
          "velocity": 0.2283464566929134
        },
        {
          "duration": 0.09677400000001057,
          "durationTicks": 96,
          "midi": 65,
          "name": "F4",
          "ticks": 112492,
          "time": 113.39896675,
          "velocity": 0.2125984251968504
        },
        {
          "duration": 0.09677399999999636,
          "durationTicks": 96,
          "midi": 62,
          "name": "D4",
          "ticks": 112681,
          "time": 113.5894905625,
          "velocity": 0.2283464566929134
        },
        {
          "duration": 0.19354799999999273,
          "durationTicks": 192,
          "midi": 67,
          "name": "G4",
          "ticks": 112872,
          "time": 113.7820305,
          "velocity": 0.2283464566929134
        },
        {
          "duration": 0.09677399999999636,
          "durationTicks": 96,
          "midi": 65,
          "name": "F4",
          "ticks": 113063,
          "time": 113.97457043749999,
          "velocity": 0.2125984251968504
        },
        {
          "duration": 0.09677399999999636,
          "durationTicks": 96,
          "midi": 63,
          "name": "D#4",
          "ticks": 113253,
          "time": 114.1661023125,
          "velocity": 0.2283464566929134
        },
        {
          "duration": 0.09677399999999636,
          "durationTicks": 96,
          "midi": 62,
          "name": "D4",
          "ticks": 113442,
          "time": 114.356626125,
          "velocity": 0.2283464566929134
        },
        {
          "duration": 0.38709599999999966,
          "durationTicks": 384,
          "midi": 63,
          "name": "D#4",
          "ticks": 113634,
          "time": 114.550174125,
          "velocity": 0.2440944881889764
        },
        {
          "duration": 0.38709599999999966,
          "durationTicks": 384,
          "midi": 63,
          "name": "D#4",
          "ticks": 114028,
          "time": 114.94735075000001,
          "velocity": 0.2283464566929134
        },
        {
          "duration": 0.19354799999999273,
          "durationTicks": 192,
          "midi": 62,
          "name": "D4",
          "ticks": 114408,
          "time": 115.3304145,
          "velocity": 0.23622047244094488
        },
        {
          "duration": 0.09677399999999636,
          "durationTicks": 96,
          "midi": 60,
          "name": "C4",
          "ticks": 114599,
          "time": 115.52295443749999,
          "velocity": 0.2283464566929134
        },
        {
          "duration": 0.09677399999999636,
          "durationTicks": 96,
          "midi": 62,
          "name": "D4",
          "ticks": 114692,
          "time": 115.61670425,
          "velocity": 0.2283464566929134
        },
        {
          "duration": 0.09677399999999636,
          "durationTicks": 96,
          "midi": 63,
          "name": "D#4",
          "ticks": 114789,
          "time": 115.7144863125,
          "velocity": 0.2283464566929134
        },
        {
          "duration": 0.09677399999999636,
          "durationTicks": 96,
          "midi": 67,
          "name": "G4",
          "ticks": 114885,
          "time": 115.8112603125,
          "velocity": 0.2283464566929134
        },
        {
          "duration": 0.09677399999999636,
          "durationTicks": 96,
          "midi": 72,
          "name": "C5",
          "ticks": 114978,
          "time": 115.905010125,
          "velocity": 0.2283464566929134
        },
        {
          "duration": 0.09677399999999636,
          "durationTicks": 96,
          "midi": 74,
          "name": "D5",
          "ticks": 115071,
          "time": 115.9987599375,
          "velocity": 0.2283464566929134
        },
        {
          "duration": 0.09677399999999636,
          "durationTicks": 96,
          "midi": 75,
          "name": "D#5",
          "ticks": 115170,
          "time": 116.098558125,
          "velocity": 0.2125984251968504
        },
        {
          "duration": 0.09677399999999636,
          "durationTicks": 96,
          "midi": 72,
          "name": "C5",
          "ticks": 115373,
          "time": 116.3031948125,
          "velocity": 0.2283464566929134
        },
        {
          "duration": 0.09677400000001057,
          "durationTicks": 96,
          "midi": 74,
          "name": "D5",
          "ticks": 115467,
          "time": 116.3979526875,
          "velocity": 0.2283464566929134
        },
        {
          "duration": 0.09677399999999636,
          "durationTicks": 96,
          "midi": 75,
          "name": "D#5",
          "ticks": 115564,
          "time": 116.49573475000001,
          "velocity": 0.2125984251968504
        },
        {
          "duration": 0.09677400000001057,
          "durationTicks": 96,
          "midi": 72,
          "name": "C5",
          "ticks": 115753,
          "time": 116.6862585625,
          "velocity": 0.2283464566929134
        },
        {
          "duration": 0.19354799999999273,
          "durationTicks": 192,
          "midi": 77,
          "name": "F5",
          "ticks": 115944,
          "time": 116.8787985,
          "velocity": 0.2283464566929134
        },
        {
          "duration": 0.09677399999999636,
          "durationTicks": 96,
          "midi": 75,
          "name": "D#5",
          "ticks": 116135,
          "time": 117.07133843749999,
          "velocity": 0.2125984251968504
        },
        {
          "duration": 0.09677399999999636,
          "durationTicks": 96,
          "midi": 74,
          "name": "D5",
          "ticks": 116325,
          "time": 117.2628703125,
          "velocity": 0.2283464566929134
        },
        {
          "duration": 0.09677399999999636,
          "durationTicks": 96,
          "midi": 72,
          "name": "C5",
          "ticks": 116514,
          "time": 117.453394125,
          "velocity": 0.2283464566929134
        },
        {
          "duration": 0.09677399999999636,
          "durationTicks": 96,
          "midi": 70,
          "name": "A#4",
          "ticks": 116706,
          "time": 117.646942125,
          "velocity": 0.2283464566929134
        },
        {
          "duration": 0.09677399999999636,
          "durationTicks": 96,
          "midi": 68,
          "name": "G#4",
          "ticks": 116815,
          "time": 117.75682093750001,
          "velocity": 0.2283464566929134
        },
        {
          "duration": 0.09677399999999636,
          "durationTicks": 96,
          "midi": 67,
          "name": "G4",
          "ticks": 116908,
          "time": 117.85057075,
          "velocity": 0.2283464566929134
        },
        {
          "duration": 0.09677400000001057,
          "durationTicks": 96,
          "midi": 68,
          "name": "G#4",
          "ticks": 117002,
          "time": 117.94532862499999,
          "velocity": 0.2283464566929134
        },
        {
          "duration": 0.09677399999999636,
          "durationTicks": 96,
          "midi": 70,
          "name": "A#4",
          "ticks": 117099,
          "time": 118.0431106875,
          "velocity": 0.2125984251968504
        },
        {
          "duration": 0.09677400000001057,
          "durationTicks": 96,
          "midi": 68,
          "name": "G#4",
          "ticks": 117288,
          "time": 118.2336345,
          "velocity": 0.2283464566929134
        },
        {
          "duration": 0.38709599999999966,
          "durationTicks": 384,
          "midi": 67,
          "name": "G4",
          "ticks": 117479,
          "time": 118.4261744375,
          "velocity": 0.23622047244094488
        },
        {
          "duration": 0.38709599999999966,
          "durationTicks": 384,
          "midi": 63,
          "name": "D#4",
          "ticks": 117860,
          "time": 118.81024624999999,
          "velocity": 0.2283464566929134
        },
        {
          "duration": 0.09677400000001057,
          "durationTicks": 96,
          "midi": 62,
          "name": "D4",
          "ticks": 118444,
          "time": 119.39895475,
          "velocity": 0.2283464566929134
        },
        {
          "duration": 0.09677400000001057,
          "durationTicks": 96,
          "midi": 63,
          "name": "D#4",
          "ticks": 118538,
          "time": 119.49371262499999,
          "velocity": 0.2283464566929134
        },
        {
          "duration": 0.09677399999999636,
          "durationTicks": 96,
          "midi": 65,
          "name": "F4",
          "ticks": 118635,
          "time": 119.5914946875,
          "velocity": 0.2125984251968504
        },
        {
          "duration": 0.09677400000001057,
          "durationTicks": 96,
          "midi": 62,
          "name": "D4",
          "ticks": 118824,
          "time": 119.78201849999999,
          "velocity": 0.2283464566929134
        },
        {
          "duration": 0.19354799999999273,
          "durationTicks": 192,
          "midi": 67,
          "name": "G4",
          "ticks": 119015,
          "time": 119.9745584375,
          "velocity": 0.2283464566929134
        },
        {
          "duration": 0.09677399999999636,
          "durationTicks": 96,
          "midi": 65,
          "name": "F4",
          "ticks": 119206,
          "time": 120.16709837500001,
          "velocity": 0.2125984251968504
        },
        {
          "duration": 0.09677399999999636,
          "durationTicks": 96,
          "midi": 63,
          "name": "D#4",
          "ticks": 119396,
          "time": 120.35863024999999,
          "velocity": 0.2283464566929134
        },
        {
          "duration": 0.09677399999999636,
          "durationTicks": 96,
          "midi": 62,
          "name": "D4",
          "ticks": 119585,
          "time": 120.5491540625,
          "velocity": 0.2283464566929134
        },
        {
          "duration": 0.19354800000000694,
          "durationTicks": 192,
          "midi": 67,
          "name": "G4",
          "ticks": 119777,
          "time": 120.74270206249999,
          "velocity": 0.3228346456692913
        },
        {
          "duration": 0.19354799999999273,
          "durationTicks": 192,
          "midi": 68,
          "name": "G#4",
          "ticks": 120171,
          "time": 121.1398786875,
          "velocity": 0.30708661417322836
        },
        {
          "duration": 0.19354799999999273,
          "durationTicks": 192,
          "midi": 67,
          "name": "G4",
          "ticks": 120551,
          "time": 121.52294243749999,
          "velocity": 0.31496062992125984
        },
        {
          "duration": 0.19354800000000694,
          "durationTicks": 192,
          "midi": 68,
          "name": "G#4",
          "ticks": 120932,
          "time": 121.90701424999999,
          "velocity": 0.30708661417322836
        },
        {
          "duration": 1.5483839999999987,
          "durationTicks": 1536,
          "midi": 62,
          "name": "D4",
          "ticks": 121315,
          "time": 122.29310218750001,
          "velocity": 0.31496062992125984
        },
        {
          "duration": 1.5483839999999987,
          "durationTicks": 1536,
          "midi": 67,
          "name": "G4",
          "ticks": 121315,
          "time": 122.29310218750001,
          "velocity": 0.31496062992125984
        },
        {
          "duration": 1.5483839999999987,
          "durationTicks": 1536,
          "midi": 74,
          "name": "D5",
          "ticks": 121315,
          "time": 122.29310218750001,
          "velocity": 0.31496062992125984
        },
        {
          "duration": 0.38709599999999966,
          "durationTicks": 384,
          "midi": 84,
          "name": "C6",
          "ticks": 125921,
          "time": 126.9362380625,
          "velocity": 0.2440944881889764
        },
        {
          "duration": 0.2903220000000033,
          "durationTicks": 288,
          "midi": 84,
          "name": "C6",
          "ticks": 126315,
          "time": 127.3334146875,
          "velocity": 0.2283464566929134
        },
        {
          "duration": 0.09677400000001057,
          "durationTicks": 96,
          "midi": 82,
          "name": "A#5",
          "ticks": 126597,
          "time": 127.6176883125,
          "velocity": 0.2283464566929134
        },
        {
          "duration": 0.09677400000001057,
          "durationTicks": 96,
          "midi": 84,
          "name": "C6",
          "ticks": 126695,
          "time": 127.71647843749999,
          "velocity": 0.2125984251968504
        },
        {
          "duration": 0.09677399999999636,
          "durationTicks": 96,
          "midi": 82,
          "name": "A#5",
          "ticks": 126886,
          "time": 127.909018375,
          "velocity": 0.2283464566929134
        },
        {
          "duration": 0.09677399999998215,
          "durationTicks": 96,
          "midi": 80,
          "name": "G#5",
          "ticks": 127076,
          "time": 128.10055025,
          "velocity": 0.2283464566929134
        },
        {
          "duration": 0.09677399999998215,
          "durationTicks": 96,
          "midi": 79,
          "name": "G5",
          "ticks": 127265,
          "time": 128.2910740625,
          "velocity": 0.2283464566929134
        },
        {
          "duration": 0.09677400000001057,
          "durationTicks": 96,
          "midi": 82,
          "name": "A#5",
          "ticks": 127457,
          "time": 128.4846220625,
          "velocity": 0.2283464566929134
        },
        {
          "duration": 0.09677400000001057,
          "durationTicks": 96,
          "midi": 80,
          "name": "G#5",
          "ticks": 127566,
          "time": 128.594500875,
          "velocity": 0.2283464566929134
        },
        {
          "duration": 0.09677400000001057,
          "durationTicks": 96,
          "midi": 79,
          "name": "G5",
          "ticks": 127659,
          "time": 128.6882506875,
          "velocity": 0.2283464566929134
        },
        {
          "duration": 0.09677399999998215,
          "durationTicks": 96,
          "midi": 77,
          "name": "F5",
          "ticks": 127753,
          "time": 128.78300856250002,
          "velocity": 0.2283464566929134
        },
        {
          "duration": 0.09677399999998215,
          "durationTicks": 96,
          "midi": 75,
          "name": "D#5",
          "ticks": 127850,
          "time": 128.880790625,
          "velocity": 0.2125984251968504
        },
        {
          "duration": 0.09677400000001057,
          "durationTicks": 96,
          "midi": 77,
          "name": "F5",
          "ticks": 128039,
          "time": 129.07131443749998,
          "velocity": 0.2283464566929134
        },
        {
          "duration": 0.7741919999999993,
          "durationTicks": 768,
          "midi": 79,
          "name": "G5",
          "ticks": 128230,
          "time": 129.263854375,
          "velocity": 0.23622047244094488
        },
        {
          "duration": 0.38709599999998545,
          "durationTicks": 384,
          "midi": 82,
          "name": "A#5",
          "ticks": 128992,
          "time": 130.03199800000002,
          "velocity": 0.2440944881889764
        },
        {
          "duration": 0.2903220000000033,
          "durationTicks": 288,
          "midi": 82,
          "name": "A#5",
          "ticks": 129386,
          "time": 130.429174625,
          "velocity": 0.2283464566929134
        },
        {
          "duration": 0.09677399999998215,
          "durationTicks": 96,
          "midi": 80,
          "name": "G#5",
          "ticks": 129668,
          "time": 130.71344825,
          "velocity": 0.2283464566929134
        },
        {
          "duration": 0.09677400000001057,
          "durationTicks": 96,
          "midi": 79,
          "name": "G5",
          "ticks": 129766,
          "time": 130.812238375,
          "velocity": 0.2125984251968504
        },
        {
          "duration": 0.09677399999998215,
          "durationTicks": 96,
          "midi": 77,
          "name": "F5",
          "ticks": 129957,
          "time": 131.0047783125,
          "velocity": 0.2283464566929134
        },
        {
          "duration": 0.09677399999998215,
          "durationTicks": 96,
          "midi": 75,
          "name": "D#5",
          "ticks": 130147,
          "time": 131.19631018750002,
          "velocity": 0.2283464566929134
        },
        {
          "duration": 0.09677400000001057,
          "durationTicks": 96,
          "midi": 77,
          "name": "F5",
          "ticks": 130336,
          "time": 131.386834,
          "velocity": 0.2283464566929134
        },
        {
          "duration": 0.09677399999998215,
          "durationTicks": 96,
          "midi": 79,
          "name": "G5",
          "ticks": 130528,
          "time": 131.58038200000001,
          "velocity": 0.2283464566929134
        },
        {
          "duration": 0.09677400000001057,
          "durationTicks": 96,
          "midi": 75,
          "name": "D#5",
          "ticks": 130637,
          "time": 131.6902608125,
          "velocity": 0.2283464566929134
        },
        {
          "duration": 0.09677400000001057,
          "durationTicks": 96,
          "midi": 72,
          "name": "C5",
          "ticks": 130730,
          "time": 131.78401062499998,
          "velocity": 0.2283464566929134
        },
        {
          "duration": 0.09677399999998215,
          "durationTicks": 96,
          "midi": 75,
          "name": "D#5",
          "ticks": 130824,
          "time": 131.8787685,
          "velocity": 0.2283464566929134
        },
        {
          "duration": 0.09677400000001057,
          "durationTicks": 96,
          "midi": 79,
          "name": "G5",
          "ticks": 130921,
          "time": 131.9765505625,
          "velocity": 0.2125984251968504
        },
        {
          "duration": 0.09677400000001057,
          "durationTicks": 96,
          "midi": 77,
          "name": "F5",
          "ticks": 131110,
          "time": 132.167074375,
          "velocity": 0.2283464566929134
        },
        {
          "duration": 0.3870960000000139,
          "durationTicks": 384,
          "midi": 75,
          "name": "D#5",
          "ticks": 131301,
          "time": 132.35961431249999,
          "velocity": 0.23622047244094488
        },
        {
          "duration": 0.38709599999998545,
          "durationTicks": 384,
          "midi": 74,
          "name": "D5",
          "ticks": 131682,
          "time": 132.743686125,
          "velocity": 0.2283464566929134
        },
        {
          "duration": 0.38709599999998545,
          "durationTicks": 384,
          "midi": 84,
          "name": "C6",
          "ticks": 132063,
          "time": 133.1277579375,
          "velocity": 0.2440944881889764
        },
        {
          "duration": 0.2903220000000033,
          "durationTicks": 288,
          "midi": 84,
          "name": "C6",
          "ticks": 132457,
          "time": 133.5249345625,
          "velocity": 0.2283464566929134
        },
        {
          "duration": 0.09677399999998215,
          "durationTicks": 96,
          "midi": 82,
          "name": "A#5",
          "ticks": 132739,
          "time": 133.80920818750002,
          "velocity": 0.2283464566929134
        },
        {
          "duration": 0.09677399999998215,
          "durationTicks": 96,
          "midi": 84,
          "name": "C6",
          "ticks": 132837,
          "time": 133.9079983125,
          "velocity": 0.2125984251968504
        },
        {
          "duration": 0.09677399999998215,
          "durationTicks": 96,
          "midi": 82,
          "name": "A#5",
          "ticks": 133028,
          "time": 134.10053825,
          "velocity": 0.2283464566929134
        },
        {
          "duration": 0.09677399999998215,
          "durationTicks": 96,
          "midi": 80,
          "name": "G#5",
          "ticks": 133218,
          "time": 134.292070125,
          "velocity": 0.2283464566929134
        },
        {
          "duration": 0.09677400000001057,
          "durationTicks": 96,
          "midi": 79,
          "name": "G5",
          "ticks": 133407,
          "time": 134.48259393749998,
          "velocity": 0.2283464566929134
        },
        {
          "duration": 0.09677399999998215,
          "durationTicks": 96,
          "midi": 82,
          "name": "A#5",
          "ticks": 133599,
          "time": 134.6761419375,
          "velocity": 0.2283464566929134
        },
        {
          "duration": 0.09677400000001057,
          "durationTicks": 96,
          "midi": 80,
          "name": "G#5",
          "ticks": 133708,
          "time": 134.78602075,
          "velocity": 0.2283464566929134
        },
        {
          "duration": 0.09677400000001057,
          "durationTicks": 96,
          "midi": 79,
          "name": "G5",
          "ticks": 133801,
          "time": 134.8797705625,
          "velocity": 0.2283464566929134
        },
        {
          "duration": 0.09677399999998215,
          "durationTicks": 96,
          "midi": 77,
          "name": "F5",
          "ticks": 133895,
          "time": 134.9745284375,
          "velocity": 0.2283464566929134
        },
        {
          "duration": 0.09677400000001057,
          "durationTicks": 96,
          "midi": 75,
          "name": "D#5",
          "ticks": 133992,
          "time": 135.0723105,
          "velocity": 0.2125984251968504
        },
        {
          "duration": 0.09677400000001057,
          "durationTicks": 96,
          "midi": 77,
          "name": "F5",
          "ticks": 134181,
          "time": 135.2628343125,
          "velocity": 0.2283464566929134
        },
        {
          "duration": 0.7741920000000277,
          "durationTicks": 768,
          "midi": 79,
          "name": "G5",
          "ticks": 134372,
          "time": 135.45537424999998,
          "velocity": 0.23622047244094488
        },
        {
          "duration": 0.38709599999998545,
          "durationTicks": 384,
          "midi": 82,
          "name": "A#5",
          "ticks": 135134,
          "time": 136.223517875,
          "velocity": 0.2440944881889764
        },
        {
          "duration": 0.2903220000000033,
          "durationTicks": 288,
          "midi": 82,
          "name": "A#5",
          "ticks": 135528,
          "time": 136.62069449999998,
          "velocity": 0.2283464566929134
        },
        {
          "duration": 0.09677399999998215,
          "durationTicks": 96,
          "midi": 80,
          "name": "G#5",
          "ticks": 135810,
          "time": 136.904968125,
          "velocity": 0.2283464566929134
        },
        {
          "duration": 0.09677399999998215,
          "durationTicks": 96,
          "midi": 79,
          "name": "G5",
          "ticks": 135908,
          "time": 137.00375825,
          "velocity": 0.2125984251968504
        },
        {
          "duration": 0.09677399999998215,
          "durationTicks": 96,
          "midi": 77,
          "name": "F5",
          "ticks": 136099,
          "time": 137.19629818750002,
          "velocity": 0.2283464566929134
        },
        {
          "duration": 0.09677399999998215,
          "durationTicks": 96,
          "midi": 75,
          "name": "D#5",
          "ticks": 136289,
          "time": 137.3878300625,
          "velocity": 0.2283464566929134
        },
        {
          "duration": 0.09677399999998215,
          "durationTicks": 96,
          "midi": 77,
          "name": "F5",
          "ticks": 136478,
          "time": 137.578353875,
          "velocity": 0.2283464566929134
        },
        {
          "duration": 0.09677399999998215,
          "durationTicks": 96,
          "midi": 79,
          "name": "G5",
          "ticks": 136670,
          "time": 137.771901875,
          "velocity": 0.2283464566929134
        },
        {
          "duration": 0.09677400000001057,
          "durationTicks": 96,
          "midi": 75,
          "name": "D#5",
          "ticks": 136779,
          "time": 137.8817806875,
          "velocity": 0.2283464566929134
        },
        {
          "duration": 0.09677400000001057,
          "durationTicks": 96,
          "midi": 72,
          "name": "C5",
          "ticks": 136872,
          "time": 137.9755305,
          "velocity": 0.2283464566929134
        },
        {
          "duration": 0.09677399999998215,
          "durationTicks": 96,
          "midi": 75,
          "name": "D#5",
          "ticks": 136966,
          "time": 138.07028837500002,
          "velocity": 0.2283464566929134
        },
        {
          "duration": 0.09677400000001057,
          "durationTicks": 96,
          "midi": 79,
          "name": "G5",
          "ticks": 137063,
          "time": 138.16807043749998,
          "velocity": 0.2125984251968504
        },
        {
          "duration": 0.09677400000001057,
          "durationTicks": 96,
          "midi": 77,
          "name": "F5",
          "ticks": 137252,
          "time": 138.35859424999998,
          "velocity": 0.2283464566929134
        },
        {
          "duration": 0.3870960000000139,
          "durationTicks": 384,
          "midi": 75,
          "name": "D#5",
          "ticks": 137443,
          "time": 138.5511341875,
          "velocity": 0.23622047244094488
        },
        {
          "duration": 0.3870960000000139,
          "durationTicks": 384,
          "midi": 74,
          "name": "D5",
          "ticks": 137824,
          "time": 138.935206,
          "velocity": 0.2283464566929134
        },
        {
          "duration": 0.09677400000001057,
          "durationTicks": 96,
          "midi": 72,
          "name": "C5",
          "ticks": 138408,
          "time": 139.5239145,
          "velocity": 0.2283464566929134
        },
        {
          "duration": 0.09677399999998215,
          "durationTicks": 96,
          "midi": 74,
          "name": "D5",
          "ticks": 138502,
          "time": 139.61867237500002,
          "velocity": 0.2283464566929134
        },
        {
          "duration": 0.09677399999998215,
          "durationTicks": 96,
          "midi": 75,
          "name": "D#5",
          "ticks": 138599,
          "time": 139.7164544375,
          "velocity": 0.2125984251968504
        },
        {
          "duration": 0.09677400000001057,
          "durationTicks": 96,
          "midi": 72,
          "name": "C5",
          "ticks": 138788,
          "time": 139.90697824999998,
          "velocity": 0.2283464566929134
        },
        {
          "duration": 0.19354800000002115,
          "durationTicks": 192,
          "midi": 77,
          "name": "F5",
          "ticks": 138979,
          "time": 140.0995181875,
          "velocity": 0.2283464566929134
        },
        {
          "duration": 0.09677399999998215,
          "durationTicks": 96,
          "midi": 75,
          "name": "D#5",
          "ticks": 139170,
          "time": 140.292058125,
          "velocity": 0.2125984251968504
        },
        {
          "duration": 0.09677400000001057,
          "durationTicks": 96,
          "midi": 74,
          "name": "D5",
          "ticks": 139360,
          "time": 140.48359,
          "velocity": 0.2283464566929134
        },
        {
          "duration": 0.09677400000001057,
          "durationTicks": 96,
          "midi": 72,
          "name": "C5",
          "ticks": 139549,
          "time": 140.6741138125,
          "velocity": 0.2283464566929134
        },
        {
          "duration": 0.2903219999999749,
          "durationTicks": 288,
          "midi": 70,
          "name": "A#4",
          "ticks": 139741,
          "time": 140.86766181250002,
          "velocity": 0.2440944881889764
        },
        {
          "duration": 0.09677399999998215,
          "durationTicks": 96,
          "midi": 68,
          "name": "G#4",
          "ticks": 140038,
          "time": 141.16705637500002,
          "velocity": 0.2283464566929134
        },
        {
          "duration": 0.09677399999998215,
          "durationTicks": 96,
          "midi": 67,
          "name": "G4",
          "ticks": 140135,
          "time": 141.2648384375,
          "velocity": 0.2125984251968504
        },
        {
          "duration": 0.19354800000002115,
          "durationTicks": 192,
          "midi": 68,
          "name": "G#4",
          "ticks": 140324,
          "time": 141.45536224999998,
          "velocity": 0.2283464566929134
        },
        {
          "duration": 0.3870960000000139,
          "durationTicks": 384,
          "midi": 70,
          "name": "A#4",
          "ticks": 140515,
          "time": 141.6479021875,
          "velocity": 0.23622047244094488
        },
        {
          "duration": 0.38709599999998545,
          "durationTicks": 384,
          "midi": 65,
          "name": "F4",
          "ticks": 140896,
          "time": 142.03197400000002,
          "velocity": 0.2283464566929134
        },
        {
          "duration": 0.09677400000001057,
          "durationTicks": 96,
          "midi": 62,
          "name": "D4",
          "ticks": 141480,
          "time": 142.6206825,
          "velocity": 0.2283464566929134
        },
        {
          "duration": 0.09677399999998215,
          "durationTicks": 96,
          "midi": 63,
          "name": "D#4",
          "ticks": 141574,
          "time": 142.71544037500001,
          "velocity": 0.2283464566929134
        },
        {
          "duration": 0.09677399999998215,
          "durationTicks": 96,
          "midi": 65,
          "name": "F4",
          "ticks": 141671,
          "time": 142.8132224375,
          "velocity": 0.2125984251968504
        },
        {
          "duration": 0.09677400000001057,
          "durationTicks": 96,
          "midi": 62,
          "name": "D4",
          "ticks": 141860,
          "time": 143.00374624999998,
          "velocity": 0.2283464566929134
        },
        {
          "duration": 0.19354800000002115,
          "durationTicks": 192,
          "midi": 67,
          "name": "G4",
          "ticks": 142051,
          "time": 143.1962861875,
          "velocity": 0.2283464566929134
        },
        {
          "duration": 0.09677399999998215,
          "durationTicks": 96,
          "midi": 65,
          "name": "F4",
          "ticks": 142242,
          "time": 143.388826125,
          "velocity": 0.2125984251968504
        },
        {
          "duration": 0.09677399999998215,
          "durationTicks": 96,
          "midi": 63,
          "name": "D#4",
          "ticks": 142432,
          "time": 143.58035800000002,
          "velocity": 0.2283464566929134
        },
        {
          "duration": 0.09677400000001057,
          "durationTicks": 96,
          "midi": 62,
          "name": "D4",
          "ticks": 142621,
          "time": 143.7708818125,
          "velocity": 0.2283464566929134
        },
        {
          "duration": 0.38709599999998545,
          "durationTicks": 384,
          "midi": 63,
          "name": "D#4",
          "ticks": 142813,
          "time": 143.96442981250001,
          "velocity": 0.2440944881889764
        },
        {
          "duration": 0.38709599999998545,
          "durationTicks": 384,
          "midi": 63,
          "name": "D#4",
          "ticks": 143207,
          "time": 144.3616064375,
          "velocity": 0.2283464566929134
        },
        {
          "duration": 0.7741920000000277,
          "durationTicks": 768,
          "midi": 62,
          "name": "D4",
          "ticks": 143587,
          "time": 144.7446701875,
          "velocity": 0.23622047244094488
        },
        {
          "duration": 0.09677399999998215,
          "durationTicks": 96,
          "midi": 72,
          "name": "C5",
          "ticks": 144552,
          "time": 145.7174505,
          "velocity": 0.2283464566929134
        },
        {
          "duration": 0.09677399999998215,
          "durationTicks": 96,
          "midi": 74,
          "name": "D5",
          "ticks": 144646,
          "time": 145.812208375,
          "velocity": 0.2283464566929134
        },
        {
          "duration": 0.09677399999998215,
          "durationTicks": 96,
          "midi": 75,
          "name": "D#5",
          "ticks": 144743,
          "time": 145.9099904375,
          "velocity": 0.2125984251968504
        },
        {
          "duration": 0.09677399999998215,
          "durationTicks": 96,
          "midi": 72,
          "name": "C5",
          "ticks": 144932,
          "time": 146.10051425,
          "velocity": 0.2283464566929134
        },
        {
          "duration": 0.19354799999999273,
          "durationTicks": 192,
          "midi": 77,
          "name": "F5",
          "ticks": 145123,
          "time": 146.29305418750002,
          "velocity": 0.2283464566929134
        },
        {
          "duration": 0.09677399999998215,
          "durationTicks": 96,
          "midi": 75,
          "name": "D#5",
          "ticks": 145314,
          "time": 146.485594125,
          "velocity": 0.2125984251968504
        },
        {
          "duration": 0.09677399999998215,
          "durationTicks": 96,
          "midi": 74,
          "name": "D5",
          "ticks": 145504,
          "time": 146.67712600000002,
          "velocity": 0.2283464566929134
        },
        {
          "duration": 0.09677399999998215,
          "durationTicks": 96,
          "midi": 72,
          "name": "C5",
          "ticks": 145693,
          "time": 146.86764981250002,
          "velocity": 0.2283464566929134
        },
        {
          "duration": 0.09677399999998215,
          "durationTicks": 96,
          "midi": 70,
          "name": "A#4",
          "ticks": 145885,
          "time": 147.0611978125,
          "velocity": 0.2283464566929134
        },
        {
          "duration": 0.09677400000001057,
          "durationTicks": 96,
          "midi": 68,
          "name": "G#4",
          "ticks": 145994,
          "time": 147.17107662499998,
          "velocity": 0.2283464566929134
        },
        {
          "duration": 0.09677400000001057,
          "durationTicks": 96,
          "midi": 67,
          "name": "G4",
          "ticks": 146087,
          "time": 147.26482643749998,
          "velocity": 0.2283464566929134
        },
        {
          "duration": 0.09677399999998215,
          "durationTicks": 96,
          "midi": 68,
          "name": "G#4",
          "ticks": 146181,
          "time": 147.3595843125,
          "velocity": 0.2283464566929134
        },
        {
          "duration": 0.09677400000001057,
          "durationTicks": 96,
          "midi": 70,
          "name": "A#4",
          "ticks": 146278,
          "time": 147.457366375,
          "velocity": 0.2125984251968504
        },
        {
          "duration": 0.09677400000001057,
          "durationTicks": 96,
          "midi": 68,
          "name": "G#4",
          "ticks": 146467,
          "time": 147.6478901875,
          "velocity": 0.2283464566929134
        },
        {
          "duration": 0.38709599999998545,
          "durationTicks": 384,
          "midi": 67,
          "name": "G4",
          "ticks": 146658,
          "time": 147.840430125,
          "velocity": 0.23622047244094488
        },
        {
          "duration": 0.38709599999998545,
          "durationTicks": 384,
          "midi": 63,
          "name": "D#4",
          "ticks": 147039,
          "time": 148.2245019375,
          "velocity": 0.2283464566929134
        },
        {
          "duration": 0.09677399999998215,
          "durationTicks": 96,
          "midi": 62,
          "name": "D4",
          "ticks": 147623,
          "time": 148.8132104375,
          "velocity": 0.2283464566929134
        },
        {
          "duration": 0.09677399999998215,
          "durationTicks": 96,
          "midi": 63,
          "name": "D#4",
          "ticks": 147717,
          "time": 148.9079683125,
          "velocity": 0.2283464566929134
        },
        {
          "duration": 0.09677399999998215,
          "durationTicks": 96,
          "midi": 65,
          "name": "F4",
          "ticks": 147814,
          "time": 149.00575037500002,
          "velocity": 0.2125984251968504
        },
        {
          "duration": 0.09677400000001057,
          "durationTicks": 96,
          "midi": 62,
          "name": "D4",
          "ticks": 148003,
          "time": 149.1962741875,
          "velocity": 0.2283464566929134
        },
        {
          "duration": 0.19354799999999273,
          "durationTicks": 192,
          "midi": 67,
          "name": "G4",
          "ticks": 148194,
          "time": 149.388814125,
          "velocity": 0.2283464566929134
        },
        {
          "duration": 0.09677399999998215,
          "durationTicks": 96,
          "midi": 65,
          "name": "F4",
          "ticks": 148385,
          "time": 149.5813540625,
          "velocity": 0.2125984251968504
        },
        {
          "duration": 0.09677399999998215,
          "durationTicks": 96,
          "midi": 63,
          "name": "D#4",
          "ticks": 148575,
          "time": 149.7728859375,
          "velocity": 0.2283464566929134
        },
        {
          "duration": 0.09677399999998215,
          "durationTicks": 96,
          "midi": 62,
          "name": "D4",
          "ticks": 148764,
          "time": 149.96340975,
          "velocity": 0.2283464566929134
        },
        {
          "duration": 0.09677399999998215,
          "durationTicks": 96,
          "midi": 62,
          "name": "D4",
          "ticks": 148956,
          "time": 150.15695775,
          "velocity": 0.2440944881889764
        },
        {
          "duration": 0.09677399999998215,
          "durationTicks": 96,
          "midi": 62,
          "name": "D4",
          "ticks": 149159,
          "time": 150.3615944375,
          "velocity": 0.2283464566929134
        },
        {
          "duration": 0.09677400000001057,
          "durationTicks": 96,
          "midi": 63,
          "name": "D#4",
          "ticks": 149253,
          "time": 150.4563523125,
          "velocity": 0.2283464566929134
        },
        {
          "duration": 0.09677399999998215,
          "durationTicks": 96,
          "midi": 62,
          "name": "D4",
          "ticks": 149350,
          "time": 150.55413437500002,
          "velocity": 0.2125984251968504
        },
        {
          "duration": 0.09677400000001057,
          "durationTicks": 96,
          "midi": 62,
          "name": "D4",
          "ticks": 149539,
          "time": 150.7446581875,
          "velocity": 0.2283464566929134
        },
        {
          "duration": 0.09677399999998215,
          "durationTicks": 96,
          "midi": 63,
          "name": "D#4",
          "ticks": 149632,
          "time": 150.83840800000002,
          "velocity": 0.2283464566929134
        },
        {
          "duration": 0.09677399999998215,
          "durationTicks": 96,
          "midi": 62,
          "name": "D4",
          "ticks": 149730,
          "time": 150.937198125,
          "velocity": 0.2125984251968504
        },
        {
          "duration": 0.09677399999998215,
          "durationTicks": 96,
          "midi": 62,
          "name": "D4",
          "ticks": 149921,
          "time": 151.1297380625,
          "velocity": 0.2283464566929134
        },
        {
          "duration": 0.09677400000001057,
          "durationTicks": 96,
          "midi": 63,
          "name": "D#4",
          "ticks": 150014,
          "time": 151.223487875,
          "velocity": 0.2283464566929134
        },
        {
          "duration": 0.09677399999998215,
          "durationTicks": 96,
          "midi": 62,
          "name": "D4",
          "ticks": 150111,
          "time": 151.3212699375,
          "velocity": 0.2125984251968504
        },
        {
          "duration": 0.09677399999998215,
          "durationTicks": 96,
          "midi": 62,
          "name": "D4",
          "ticks": 150300,
          "time": 151.51179375,
          "velocity": 0.2283464566929134
        },
        {
          "duration": 0.09677399999998215,
          "durationTicks": 96,
          "midi": 63,
          "name": "D#4",
          "ticks": 150393,
          "time": 151.6055435625,
          "velocity": 0.2125984251968504
        },
        {
          "duration": 0.09677399999998215,
          "durationTicks": 96,
          "midi": 62,
          "name": "D4",
          "ticks": 150492,
          "time": 151.70534175,
          "velocity": 0.2440944881889764
        },
        {
          "duration": 0.09677400000001057,
          "durationTicks": 96,
          "midi": 63,
          "name": "D#4",
          "ticks": 150601,
          "time": 151.8152205625,
          "velocity": 0.2283464566929134
        },
        {
          "duration": 0.09677400000001057,
          "durationTicks": 96,
          "midi": 62,
          "name": "D4",
          "ticks": 150694,
          "time": 151.908970375,
          "velocity": 0.2283464566929134
        },
        {
          "duration": 0.09677399999998215,
          "durationTicks": 96,
          "midi": 63,
          "name": "D#4",
          "ticks": 150788,
          "time": 152.00372825,
          "velocity": 0.2283464566929134
        },
        {
          "duration": 0.09677399999998215,
          "durationTicks": 96,
          "midi": 62,
          "name": "D4",
          "ticks": 150885,
          "time": 152.1015103125,
          "velocity": 0.2283464566929134
        },
        {
          "duration": 0.09677400000001057,
          "durationTicks": 96,
          "midi": 63,
          "name": "D#4",
          "ticks": 150982,
          "time": 152.199292375,
          "velocity": 0.2283464566929134
        },
        {
          "duration": 0.09677400000001057,
          "durationTicks": 96,
          "midi": 62,
          "name": "D4",
          "ticks": 151074,
          "time": 152.292034125,
          "velocity": 0.2283464566929134
        },
        {
          "duration": 0.09677399999998215,
          "durationTicks": 96,
          "midi": 63,
          "name": "D#4",
          "ticks": 151167,
          "time": 152.3857839375,
          "velocity": 0.2283464566929134
        },
        {
          "duration": 0.09677399999998215,
          "durationTicks": 96,
          "midi": 62,
          "name": "D4",
          "ticks": 151265,
          "time": 152.4845740625,
          "velocity": 0.23622047244094488
        },
        {
          "duration": 0.09677399999998215,
          "durationTicks": 96,
          "midi": 63,
          "name": "D#4",
          "ticks": 151364,
          "time": 152.58437225,
          "velocity": 0.2283464566929134
        },
        {
          "duration": 0.09677399999998215,
          "durationTicks": 96,
          "midi": 62,
          "name": "D4",
          "ticks": 151456,
          "time": 152.67711400000002,
          "velocity": 0.2283464566929134
        },
        {
          "duration": 0.09677399999998215,
          "durationTicks": 96,
          "midi": 63,
          "name": "D#4",
          "ticks": 151549,
          "time": 152.7708638125,
          "velocity": 0.2283464566929134
        },
        {
          "duration": 0.09677399999998215,
          "durationTicks": 96,
          "midi": 62,
          "name": "D4",
          "ticks": 151646,
          "time": 152.868645875,
          "velocity": 0.2283464566929134
        },
        {
          "duration": 0.09677400000001057,
          "durationTicks": 96,
          "midi": 63,
          "name": "D#4",
          "ticks": 151742,
          "time": 152.96541987499998,
          "velocity": 0.2283464566929134
        },
        {
          "duration": 0.09677399999998215,
          "durationTicks": 96,
          "midi": 62,
          "name": "D4",
          "ticks": 151835,
          "time": 153.0591696875,
          "velocity": 0.2283464566929134
        },
        {
          "duration": 0.09677399999998215,
          "durationTicks": 96,
          "midi": 63,
          "name": "D#4",
          "ticks": 151928,
          "time": 153.1529195,
          "velocity": 0.2283464566929134
        },
        {
          "duration": 0.09677399999998215,
          "durationTicks": 96,
          "midi": 67,
          "name": "G4",
          "ticks": 152027,
          "time": 153.2527176875,
          "velocity": 0.2440944881889764
        },
        {
          "duration": 0.09677400000001057,
          "durationTicks": 96,
          "midi": 68,
          "name": "G#4",
          "ticks": 152136,
          "time": 153.3625965,
          "velocity": 0.2283464566929134
        },
        {
          "duration": 0.09677400000001057,
          "durationTicks": 96,
          "midi": 67,
          "name": "G4",
          "ticks": 152229,
          "time": 153.4563463125,
          "velocity": 0.2283464566929134
        },
        {
          "duration": 0.09677399999998215,
          "durationTicks": 96,
          "midi": 68,
          "name": "G#4",
          "ticks": 152323,
          "time": 153.55110418750002,
          "velocity": 0.2283464566929134
        },
        {
          "duration": 0.09677399999998215,
          "durationTicks": 96,
          "midi": 67,
          "name": "G4",
          "ticks": 152420,
          "time": 153.64888625,
          "velocity": 0.2283464566929134
        },
        {
          "duration": 0.09677400000001057,
          "durationTicks": 96,
          "midi": 68,
          "name": "G#4",
          "ticks": 152517,
          "time": 153.7466683125,
          "velocity": 0.2283464566929134
        },
        {
          "duration": 0.09677400000001057,
          "durationTicks": 96,
          "midi": 67,
          "name": "G4",
          "ticks": 152609,
          "time": 153.83941006249998,
          "velocity": 0.2283464566929134
        },
        {
          "duration": 0.09677399999998215,
          "durationTicks": 96,
          "midi": 68,
          "name": "G#4",
          "ticks": 152702,
          "time": 153.933159875,
          "velocity": 0.2283464566929134
        },
        {
          "duration": 0.09677400000001057,
          "durationTicks": 96,
          "midi": 67,
          "name": "G4",
          "ticks": 152800,
          "time": 154.03195,
          "velocity": 0.2283464566929134
        },
        {
          "duration": 0.09677400000001057,
          "durationTicks": 96,
          "midi": 69,
          "name": "A4",
          "ticks": 152899,
          "time": 154.1317481875,
          "velocity": 0.2283464566929134
        },
        {
          "duration": 0.09677399999998215,
          "durationTicks": 96,
          "midi": 71,
          "name": "B4",
          "ticks": 152991,
          "time": 154.2244899375,
          "velocity": 0.2283464566929134
        },
        {
          "duration": 0.09677399999998215,
          "durationTicks": 96,
          "midi": 72,
          "name": "C5",
          "ticks": 153084,
          "time": 154.31823975,
          "velocity": 0.2283464566929134
        },
        {
          "duration": 0.09677400000001057,
          "durationTicks": 96,
          "midi": 74,
          "name": "D5",
          "ticks": 153181,
          "time": 154.4160218125,
          "velocity": 0.2283464566929134
        },
        {
          "duration": 0.09677400000001057,
          "durationTicks": 96,
          "midi": 75,
          "name": "D#5",
          "ticks": 153277,
          "time": 154.5127958125,
          "velocity": 0.2283464566929134
        },
        {
          "duration": 0.09677400000001057,
          "durationTicks": 96,
          "midi": 77,
          "name": "F5",
          "ticks": 153370,
          "time": 154.606545625,
          "velocity": 0.2283464566929134
        },
        {
          "duration": 0.09677399999998215,
          "durationTicks": 96,
          "midi": 79,
          "name": "G5",
          "ticks": 153463,
          "time": 154.70029543750002,
          "velocity": 0.2125984251968504
        },
        {
          "duration": 0.09677399999998215,
          "durationTicks": 96,
          "midi": 83,
          "name": "B5",
          "ticks": 153560,
          "time": 154.7980775,
          "velocity": 0.2283464566929134
        },
        {
          "duration": 0.2903220000000033,
          "durationTicks": 288,
          "midi": 84,
          "name": "C6",
          "ticks": 153638,
          "time": 154.876706375,
          "velocity": 0.2125984251968504
        },
        {
          "duration": 0.2903219999999749,
          "durationTicks": 288,
          "midi": 84,
          "name": "C6",
          "ticks": 153956,
          "time": 155.19727025,
          "velocity": 0.2283464566929134
        },
        {
          "duration": 0.09677399999998215,
          "durationTicks": 96,
          "midi": 82,
          "name": "A#5",
          "ticks": 154238,
          "time": 155.481543875,
          "velocity": 0.2283464566929134
        },
        {
          "duration": 0.09677400000001057,
          "durationTicks": 96,
          "midi": 84,
          "name": "C6",
          "ticks": 154336,
          "time": 155.580334,
          "velocity": 0.2125984251968504
        },
        {
          "duration": 0.09677399999998215,
          "durationTicks": 96,
          "midi": 82,
          "name": "A#5",
          "ticks": 154527,
          "time": 155.7728739375,
          "velocity": 0.2283464566929134
        },
        {
          "duration": 0.09677399999998215,
          "durationTicks": 96,
          "midi": 80,
          "name": "G#5",
          "ticks": 154717,
          "time": 155.96440581250002,
          "velocity": 0.2283464566929134
        },
        {
          "duration": 0.09677400000001057,
          "durationTicks": 96,
          "midi": 79,
          "name": "G5",
          "ticks": 154906,
          "time": 156.154929625,
          "velocity": 0.2283464566929134
        },
        {
          "duration": 0.09677399999998215,
          "durationTicks": 96,
          "midi": 82,
          "name": "A#5",
          "ticks": 155098,
          "time": 156.34847762500002,
          "velocity": 0.2283464566929134
        },
        {
          "duration": 0.09677400000001057,
          "durationTicks": 96,
          "midi": 80,
          "name": "G#5",
          "ticks": 155207,
          "time": 156.4583564375,
          "velocity": 0.2283464566929134
        },
        {
          "duration": 0.09677400000001057,
          "durationTicks": 96,
          "midi": 79,
          "name": "G5",
          "ticks": 155300,
          "time": 156.55210624999998,
          "velocity": 0.2283464566929134
        },
        {
          "duration": 0.09677399999998215,
          "durationTicks": 96,
          "midi": 77,
          "name": "F5",
          "ticks": 155394,
          "time": 156.646864125,
          "velocity": 0.2283464566929134
        },
        {
          "duration": 0.09677400000001057,
          "durationTicks": 96,
          "midi": 75,
          "name": "D#5",
          "ticks": 155491,
          "time": 156.7446461875,
          "velocity": 0.2125984251968504
        },
        {
          "duration": 0.09677400000001057,
          "durationTicks": 96,
          "midi": 77,
          "name": "F5",
          "ticks": 155680,
          "time": 156.93517,
          "velocity": 0.2283464566929134
        },
        {
          "duration": 0.7741919999999993,
          "durationTicks": 768,
          "midi": 79,
          "name": "G5",
          "ticks": 155871,
          "time": 157.1277099375,
          "velocity": 0.23622047244094488
        },
        {
          "duration": 0.09677400000001057,
          "durationTicks": 96,
          "midi": 81,
          "name": "A5",
          "ticks": 156631,
          "time": 157.8938374375,
          "velocity": 0.2283464566929134
        },
        {
          "duration": 0.2903220000000033,
          "durationTicks": 288,
          "midi": 82,
          "name": "A#5",
          "ticks": 156707,
          "time": 157.97045018749998,
          "velocity": 0.2125984251968504
        },
        {
          "duration": 0.2903220000000033,
          "durationTicks": 288,
          "midi": 82,
          "name": "A#5",
          "ticks": 157027,
          "time": 158.2930301875,
          "velocity": 0.2283464566929134
        },
        {
          "duration": 0.09677400000001057,
          "durationTicks": 96,
          "midi": 80,
          "name": "G#5",
          "ticks": 157309,
          "time": 158.5773038125,
          "velocity": 0.2283464566929134
        },
        {
          "duration": 0.09677400000001057,
          "durationTicks": 96,
          "midi": 79,
          "name": "G5",
          "ticks": 157407,
          "time": 158.67609393749999,
          "velocity": 0.2125984251968504
        },
        {
          "duration": 0.09677399999998215,
          "durationTicks": 96,
          "midi": 77,
          "name": "F5",
          "ticks": 157598,
          "time": 158.868633875,
          "velocity": 0.2283464566929134
        },
        {
          "duration": 0.09677399999998215,
          "durationTicks": 96,
          "midi": 75,
          "name": "D#5",
          "ticks": 157788,
          "time": 159.06016575,
          "velocity": 0.2283464566929134
        },
        {
          "duration": 0.09677400000001057,
          "durationTicks": 96,
          "midi": 77,
          "name": "F5",
          "ticks": 157977,
          "time": 159.25068956249999,
          "velocity": 0.2283464566929134
        },
        {
          "duration": 0.09677399999998215,
          "durationTicks": 96,
          "midi": 79,
          "name": "G5",
          "ticks": 158169,
          "time": 159.4442375625,
          "velocity": 0.2283464566929134
        },
        {
          "duration": 0.09677400000001057,
          "durationTicks": 96,
          "midi": 75,
          "name": "D#5",
          "ticks": 158278,
          "time": 159.554116375,
          "velocity": 0.2283464566929134
        },
        {
          "duration": 0.09677400000001057,
          "durationTicks": 96,
          "midi": 72,
          "name": "C5",
          "ticks": 158371,
          "time": 159.6478661875,
          "velocity": 0.2283464566929134
        },
        {
          "duration": 0.09677399999998215,
          "durationTicks": 96,
          "midi": 75,
          "name": "D#5",
          "ticks": 158465,
          "time": 159.7426240625,
          "velocity": 0.2283464566929134
        },
        {
          "duration": 0.09677400000001057,
          "durationTicks": 96,
          "midi": 79,
          "name": "G5",
          "ticks": 158562,
          "time": 159.840406125,
          "velocity": 0.2125984251968504
        },
        {
          "duration": 0.09677400000001057,
          "durationTicks": 96,
          "midi": 77,
          "name": "F5",
          "ticks": 158751,
          "time": 160.0309299375,
          "velocity": 0.2283464566929134
        },
        {
          "duration": 0.3870960000000139,
          "durationTicks": 384,
          "midi": 75,
          "name": "D#5",
          "ticks": 158942,
          "time": 160.22346987499998,
          "velocity": 0.23622047244094488
        },
        {
          "duration": 0.19354799999999273,
          "durationTicks": 192,
          "midi": 74,
          "name": "D5",
          "ticks": 159323,
          "time": 160.6075416875,
          "velocity": 0.2283464566929134
        },
        {
          "duration": 0.09778206250001631,
          "durationTicks": 97,
          "midi": 72,
          "name": "C5",
          "ticks": 159512,
          "time": 160.79806549999998,
          "velocity": 0.2283464566929134
        },
        {
          "duration": 0.09778206249998789,
          "durationTicks": 97,
          "midi": 75,
          "name": "D#5",
          "ticks": 159574,
          "time": 160.860565375,
          "velocity": 0.2283464566929134
        },
        {
          "duration": 0.09778206249998789,
          "durationTicks": 97,
          "midi": 79,
          "name": "G5",
          "ticks": 159637,
          "time": 160.9240733125,
          "velocity": 0.2283464566929134
        },
        {
          "duration": 0.38709599999998545,
          "durationTicks": 384,
          "midi": 84,
          "name": "C6",
          "ticks": 159706,
          "time": 160.993629625,
          "velocity": 0.2125984251968504
        },
        {
          "duration": 0.2903220000000033,
          "durationTicks": 288,
          "midi": 84,
          "name": "C6",
          "ticks": 160100,
          "time": 161.39080625,
          "velocity": 0.2283464566929134
        },
        {
          "duration": 0.09677400000001057,
          "durationTicks": 96,
          "midi": 82,
          "name": "A#5",
          "ticks": 160382,
          "time": 161.675079875,
          "velocity": 0.2283464566929134
        },
        {
          "duration": 0.09677399999998215,
          "durationTicks": 96,
          "midi": 84,
          "name": "C6",
          "ticks": 160480,
          "time": 161.77387000000002,
          "velocity": 0.2125984251968504
        },
        {
          "duration": 0.09677399999998215,
          "durationTicks": 96,
          "midi": 82,
          "name": "A#5",
          "ticks": 160671,
          "time": 161.9664099375,
          "velocity": 0.2283464566929134
        },
        {
          "duration": 0.09677399999998215,
          "durationTicks": 96,
          "midi": 80,
          "name": "G#5",
          "ticks": 160861,
          "time": 162.1579418125,
          "velocity": 0.2283464566929134
        },
        {
          "duration": 0.09677399999998215,
          "durationTicks": 96,
          "midi": 79,
          "name": "G5",
          "ticks": 161050,
          "time": 162.34846562500002,
          "velocity": 0.2283464566929134
        },
        {
          "duration": 0.09677399999998215,
          "durationTicks": 96,
          "midi": 82,
          "name": "A#5",
          "ticks": 161242,
          "time": 162.542013625,
          "velocity": 0.2283464566929134
        },
        {
          "duration": 0.09677400000001057,
          "durationTicks": 96,
          "midi": 80,
          "name": "G#5",
          "ticks": 161351,
          "time": 162.65189243749998,
          "velocity": 0.2283464566929134
        },
        {
          "duration": 0.09677399999998215,
          "durationTicks": 96,
          "midi": 79,
          "name": "G5",
          "ticks": 161444,
          "time": 162.74564225,
          "velocity": 0.2283464566929134
        },
        {
          "duration": 0.09677399999998215,
          "durationTicks": 96,
          "midi": 77,
          "name": "F5",
          "ticks": 161538,
          "time": 162.840400125,
          "velocity": 0.2283464566929134
        },
        {
          "duration": 0.09677399999998215,
          "durationTicks": 96,
          "midi": 75,
          "name": "D#5",
          "ticks": 161635,
          "time": 162.93818218750002,
          "velocity": 0.2125984251968504
        },
        {
          "duration": 0.09677400000001057,
          "durationTicks": 96,
          "midi": 77,
          "name": "F5",
          "ticks": 161824,
          "time": 163.128706,
          "velocity": 0.2283464566929134
        },
        {
          "duration": 0.7741919999999993,
          "durationTicks": 768,
          "midi": 79,
          "name": "G5",
          "ticks": 162015,
          "time": 163.3212459375,
          "velocity": 0.23622047244094488
        },
        {
          "duration": 0.38709599999998545,
          "durationTicks": 384,
          "midi": 82,
          "name": "A#5",
          "ticks": 162777,
          "time": 164.0893895625,
          "velocity": 0.2440944881889764
        },
        {
          "duration": 0.2903219999999749,
          "durationTicks": 288,
          "midi": 82,
          "name": "A#5",
          "ticks": 163171,
          "time": 164.48656618750002,
          "velocity": 0.2283464566929134
        },
        {
          "duration": 0.09677399999998215,
          "durationTicks": 96,
          "midi": 80,
          "name": "G#5",
          "ticks": 163453,
          "time": 164.77083981250001,
          "velocity": 0.2283464566929134
        },
        {
          "duration": 0.09677399999998215,
          "durationTicks": 96,
          "midi": 79,
          "name": "G5",
          "ticks": 163551,
          "time": 164.8696299375,
          "velocity": 0.2125984251968504
        },
        {
          "duration": 0.09677399999998215,
          "durationTicks": 96,
          "midi": 77,
          "name": "F5",
          "ticks": 163742,
          "time": 165.062169875,
          "velocity": 0.2283464566929134
        },
        {
          "duration": 0.09677399999998215,
          "durationTicks": 96,
          "midi": 75,
          "name": "D#5",
          "ticks": 163932,
          "time": 165.25370175,
          "velocity": 0.2283464566929134
        },
        {
          "duration": 0.09677399999998215,
          "durationTicks": 96,
          "midi": 77,
          "name": "F5",
          "ticks": 164121,
          "time": 165.4442255625,
          "velocity": 0.2283464566929134
        },
        {
          "duration": 0.09677400000001057,
          "durationTicks": 96,
          "midi": 79,
          "name": "G5",
          "ticks": 164313,
          "time": 165.6377735625,
          "velocity": 0.2283464566929134
        },
        {
          "duration": 0.09677400000001057,
          "durationTicks": 96,
          "midi": 75,
          "name": "D#5",
          "ticks": 164422,
          "time": 165.747652375,
          "velocity": 0.2283464566929134
        },
        {
          "duration": 0.09677400000001057,
          "durationTicks": 96,
          "midi": 72,
          "name": "C5",
          "ticks": 164515,
          "time": 165.8414021875,
          "velocity": 0.2283464566929134
        },
        {
          "duration": 0.09677400000001057,
          "durationTicks": 96,
          "midi": 75,
          "name": "D#5",
          "ticks": 164609,
          "time": 165.9361600625,
          "velocity": 0.2283464566929134
        },
        {
          "duration": 0.09677399999998215,
          "durationTicks": 96,
          "midi": 79,
          "name": "G5",
          "ticks": 164706,
          "time": 166.033942125,
          "velocity": 0.2125984251968504
        },
        {
          "duration": 0.09677400000001057,
          "durationTicks": 96,
          "midi": 77,
          "name": "F5",
          "ticks": 164895,
          "time": 166.22446593749999,
          "velocity": 0.2283464566929134
        },
        {
          "duration": 0.38709599999998545,
          "durationTicks": 384,
          "midi": 75,
          "name": "D#5",
          "ticks": 165086,
          "time": 166.417005875,
          "velocity": 0.23622047244094488
        },
        {
          "duration": 0.38709599999998545,
          "durationTicks": 384,
          "midi": 74,
          "name": "D5",
          "ticks": 165467,
          "time": 166.8010776875,
          "velocity": 0.2283464566929134
        },
        {
          "duration": 0.09677400000001057,
          "durationTicks": 96,
          "midi": 72,
          "name": "C5",
          "ticks": 166051,
          "time": 167.3897861875,
          "velocity": 0.2283464566929134
        },
        {
          "duration": 0.09677400000001057,
          "durationTicks": 96,
          "midi": 74,
          "name": "D5",
          "ticks": 166145,
          "time": 167.4845440625,
          "velocity": 0.2283464566929134
        },
        {
          "duration": 0.09677399999998215,
          "durationTicks": 96,
          "midi": 75,
          "name": "D#5",
          "ticks": 166242,
          "time": 167.582326125,
          "velocity": 0.2125984251968504
        },
        {
          "duration": 0.09677400000001057,
          "durationTicks": 96,
          "midi": 72,
          "name": "C5",
          "ticks": 166431,
          "time": 167.77284993749998,
          "velocity": 0.2283464566929134
        },
        {
          "duration": 0.19354799999999273,
          "durationTicks": 192,
          "midi": 77,
          "name": "F5",
          "ticks": 166622,
          "time": 167.965389875,
          "velocity": 0.2283464566929134
        },
        {
          "duration": 0.09677399999998215,
          "durationTicks": 96,
          "midi": 75,
          "name": "D#5",
          "ticks": 166813,
          "time": 168.15792981250002,
          "velocity": 0.2125984251968504
        },
        {
          "duration": 0.09677399999998215,
          "durationTicks": 96,
          "midi": 74,
          "name": "D5",
          "ticks": 167003,
          "time": 168.3494616875,
          "velocity": 0.2283464566929134
        },
        {
          "duration": 0.09677399999998215,
          "durationTicks": 96,
          "midi": 72,
          "name": "C5",
          "ticks": 167192,
          "time": 168.5399855,
          "velocity": 0.2283464566929134
        },
        {
          "duration": 0.2903220000000033,
          "durationTicks": 288,
          "midi": 70,
          "name": "A#4",
          "ticks": 167384,
          "time": 168.7335335,
          "velocity": 0.2440944881889764
        },
        {
          "duration": 0.09677400000001057,
          "durationTicks": 96,
          "midi": 68,
          "name": "G#4",
          "ticks": 167681,
          "time": 169.0329280625,
          "velocity": 0.2283464566929134
        },
        {
          "duration": 0.09677399999998215,
          "durationTicks": 96,
          "midi": 67,
          "name": "G4",
          "ticks": 167778,
          "time": 169.130710125,
          "velocity": 0.2125984251968504
        },
        {
          "duration": 0.19354799999999273,
          "durationTicks": 192,
          "midi": 68,
          "name": "G#4",
          "ticks": 167967,
          "time": 169.3212339375,
          "velocity": 0.2283464566929134
        },
        {
          "duration": 0.38709599999998545,
          "durationTicks": 384,
          "midi": 70,
          "name": "A#4",
          "ticks": 168158,
          "time": 169.513773875,
          "velocity": 0.23622047244094488
        },
        {
          "duration": 0.38709599999998545,
          "durationTicks": 384,
          "midi": 65,
          "name": "F4",
          "ticks": 168539,
          "time": 169.8978456875,
          "velocity": 0.2283464566929134
        },
        {
          "duration": 0.09677399999998215,
          "durationTicks": 96,
          "midi": 62,
          "name": "D4",
          "ticks": 169123,
          "time": 170.48655418750002,
          "velocity": 0.2283464566929134
        },
        {
          "duration": 0.09677400000001057,
          "durationTicks": 96,
          "midi": 63,
          "name": "D#4",
          "ticks": 169217,
          "time": 170.5813120625,
          "velocity": 0.2283464566929134
        },
        {
          "duration": 0.09677399999998215,
          "durationTicks": 96,
          "midi": 65,
          "name": "F4",
          "ticks": 169314,
          "time": 170.679094125,
          "velocity": 0.2125984251968504
        },
        {
          "duration": 0.09677399999998215,
          "durationTicks": 96,
          "midi": 62,
          "name": "D4",
          "ticks": 169503,
          "time": 170.8696179375,
          "velocity": 0.2283464566929134
        },
        {
          "duration": 0.19354799999999273,
          "durationTicks": 192,
          "midi": 67,
          "name": "G4",
          "ticks": 169694,
          "time": 171.062157875,
          "velocity": 0.2283464566929134
        },
        {
          "duration": 0.09677399999998215,
          "durationTicks": 96,
          "midi": 65,
          "name": "F4",
          "ticks": 169885,
          "time": 171.2546978125,
          "velocity": 0.2125984251968504
        },
        {
          "duration": 0.09677400000001057,
          "durationTicks": 96,
          "midi": 63,
          "name": "D#4",
          "ticks": 170075,
          "time": 171.4462296875,
          "velocity": 0.2283464566929134
        },
        {
          "duration": 0.09677399999998215,
          "durationTicks": 96,
          "midi": 62,
          "name": "D4",
          "ticks": 170264,
          "time": 171.6367535,
          "velocity": 0.2283464566929134
        },
        {
          "duration": 0.3870960000000139,
          "durationTicks": 384,
          "midi": 63,
          "name": "D#4",
          "ticks": 170456,
          "time": 171.8303015,
          "velocity": 0.2440944881889764
        },
        {
          "duration": 0.38709599999998545,
          "durationTicks": 384,
          "midi": 63,
          "name": "D#4",
          "ticks": 170850,
          "time": 172.227478125,
          "velocity": 0.2283464566929134
        },
        {
          "duration": 0.19354799999999273,
          "durationTicks": 192,
          "midi": 62,
          "name": "D4",
          "ticks": 171230,
          "time": 172.610541875,
          "velocity": 0.23622047244094488
        },
        {
          "duration": 0.09677400000001057,
          "durationTicks": 96,
          "midi": 60,
          "name": "C4",
          "ticks": 171418,
          "time": 172.800057625,
          "velocity": 0.2283464566929134
        },
        {
          "duration": 0.09677400000001057,
          "durationTicks": 96,
          "midi": 62,
          "name": "D4",
          "ticks": 171514,
          "time": 172.896831625,
          "velocity": 0.2283464566929134
        },
        {
          "duration": 0.09677400000001057,
          "durationTicks": 96,
          "midi": 63,
          "name": "D#4",
          "ticks": 171611,
          "time": 172.9946136875,
          "velocity": 0.2283464566929134
        },
        {
          "duration": 0.09677399999998215,
          "durationTicks": 96,
          "midi": 67,
          "name": "G4",
          "ticks": 171707,
          "time": 173.0913876875,
          "velocity": 0.2283464566929134
        },
        {
          "duration": 0.09677399999998215,
          "durationTicks": 96,
          "midi": 72,
          "name": "C5",
          "ticks": 171800,
          "time": 173.1851375,
          "velocity": 0.2283464566929134
        },
        {
          "duration": 0.09677400000001057,
          "durationTicks": 96,
          "midi": 74,
          "name": "D5",
          "ticks": 171893,
          "time": 173.2788873125,
          "velocity": 0.2283464566929134
        },
        {
          "duration": 0.09677400000001057,
          "durationTicks": 96,
          "midi": 75,
          "name": "D#5",
          "ticks": 171992,
          "time": 173.3786855,
          "velocity": 0.2125984251968504
        },
        {
          "duration": 0.09677399999998215,
          "durationTicks": 96,
          "midi": 72,
          "name": "C5",
          "ticks": 172195,
          "time": 173.58332218750002,
          "velocity": 0.2283464566929134
        },
        {
          "duration": 0.09677400000001057,
          "durationTicks": 96,
          "midi": 74,
          "name": "D5",
          "ticks": 172289,
          "time": 173.6780800625,
          "velocity": 0.2283464566929134
        },
        {
          "duration": 0.09677399999998215,
          "durationTicks": 96,
          "midi": 75,
          "name": "D#5",
          "ticks": 172386,
          "time": 173.775862125,
          "velocity": 0.2125984251968504
        },
        {
          "duration": 0.09677399999998215,
          "durationTicks": 96,
          "midi": 72,
          "name": "C5",
          "ticks": 172575,
          "time": 173.9663859375,
          "velocity": 0.2283464566929134
        },
        {
          "duration": 0.19354799999999273,
          "durationTicks": 192,
          "midi": 77,
          "name": "F5",
          "ticks": 172766,
          "time": 174.158925875,
          "velocity": 0.2283464566929134
        },
        {
          "duration": 0.09677399999998215,
          "durationTicks": 96,
          "midi": 75,
          "name": "D#5",
          "ticks": 172957,
          "time": 174.3514658125,
          "velocity": 0.2125984251968504
        },
        {
          "duration": 0.09677400000001057,
          "durationTicks": 96,
          "midi": 74,
          "name": "D5",
          "ticks": 173147,
          "time": 174.5429976875,
          "velocity": 0.2283464566929134
        },
        {
          "duration": 0.09677399999998215,
          "durationTicks": 96,
          "midi": 72,
          "name": "C5",
          "ticks": 173336,
          "time": 174.7335215,
          "velocity": 0.2283464566929134
        },
        {
          "duration": 0.09677400000001057,
          "durationTicks": 96,
          "midi": 70,
          "name": "A#4",
          "ticks": 173528,
          "time": 174.9270695,
          "velocity": 0.2283464566929134
        },
        {
          "duration": 0.09677400000001057,
          "durationTicks": 96,
          "midi": 68,
          "name": "G#4",
          "ticks": 173637,
          "time": 175.0369483125,
          "velocity": 0.2283464566929134
        },
        {
          "duration": 0.09677399999998215,
          "durationTicks": 96,
          "midi": 67,
          "name": "G4",
          "ticks": 173730,
          "time": 175.130698125,
          "velocity": 0.2283464566929134
        },
        {
          "duration": 0.09677400000001057,
          "durationTicks": 96,
          "midi": 68,
          "name": "G#4",
          "ticks": 173824,
          "time": 175.225456,
          "velocity": 0.2283464566929134
        },
        {
          "duration": 0.09677399999998215,
          "durationTicks": 96,
          "midi": 70,
          "name": "A#4",
          "ticks": 173921,
          "time": 175.3232380625,
          "velocity": 0.2125984251968504
        },
        {
          "duration": 0.09677399999998215,
          "durationTicks": 96,
          "midi": 68,
          "name": "G#4",
          "ticks": 174110,
          "time": 175.513761875,
          "velocity": 0.2283464566929134
        },
        {
          "duration": 0.38709599999998545,
          "durationTicks": 384,
          "midi": 67,
          "name": "G4",
          "ticks": 174301,
          "time": 175.70630181250002,
          "velocity": 0.23622047244094488
        },
        {
          "duration": 0.38709599999998545,
          "durationTicks": 384,
          "midi": 63,
          "name": "D#4",
          "ticks": 174682,
          "time": 176.090373625,
          "velocity": 0.2283464566929134
        },
        {
          "duration": 0.09677399999998215,
          "durationTicks": 96,
          "midi": 62,
          "name": "D4",
          "ticks": 175266,
          "time": 176.679082125,
          "velocity": 0.2283464566929134
        },
        {
          "duration": 0.09677400000001057,
          "durationTicks": 96,
          "midi": 63,
          "name": "D#4",
          "ticks": 175360,
          "time": 176.77384,
          "velocity": 0.2283464566929134
        },
        {
          "duration": 0.09677399999998215,
          "durationTicks": 96,
          "midi": 65,
          "name": "F4",
          "ticks": 175457,
          "time": 176.8716220625,
          "velocity": 0.2125984251968504
        },
        {
          "duration": 0.09677399999998215,
          "durationTicks": 96,
          "midi": 62,
          "name": "D4",
          "ticks": 175646,
          "time": 177.062145875,
          "velocity": 0.2283464566929134
        },
        {
          "duration": 0.19354799999999273,
          "durationTicks": 192,
          "midi": 67,
          "name": "G4",
          "ticks": 175837,
          "time": 177.2546858125,
          "velocity": 0.2283464566929134
        },
        {
          "duration": 0.09677400000001057,
          "durationTicks": 96,
          "midi": 65,
          "name": "F4",
          "ticks": 176028,
          "time": 177.44722575,
          "velocity": 0.2125984251968504
        },
        {
          "duration": 0.09677399999998215,
          "durationTicks": 96,
          "midi": 63,
          "name": "D#4",
          "ticks": 176218,
          "time": 177.638757625,
          "velocity": 0.2283464566929134
        },
        {
          "duration": 0.09677399999998215,
          "durationTicks": 96,
          "midi": 62,
          "name": "D4",
          "ticks": 176407,
          "time": 177.82928143750001,
          "velocity": 0.2283464566929134
        },
        {
          "duration": 0.09677400000001057,
          "durationTicks": 96,
          "midi": 67,
          "name": "G4",
          "ticks": 176599,
          "time": 178.0228294375,
          "velocity": 0.2440944881889764
        },
        {
          "duration": 0.09677400000001057,
          "durationTicks": 96,
          "midi": 68,
          "name": "G#4",
          "ticks": 176708,
          "time": 178.13270824999998,
          "velocity": 0.2283464566929134
        },
        {
          "duration": 0.09677399999998215,
          "durationTicks": 96,
          "midi": 67,
          "name": "G4",
          "ticks": 176801,
          "time": 178.2264580625,
          "velocity": 0.2283464566929134
        },
        {
          "duration": 0.09677400000001057,
          "durationTicks": 96,
          "midi": 68,
          "name": "G#4",
          "ticks": 176895,
          "time": 178.3212159375,
          "velocity": 0.2283464566929134
        },
        {
          "duration": 0.09677399999998215,
          "durationTicks": 96,
          "midi": 67,
          "name": "G4",
          "ticks": 176992,
          "time": 178.41899800000002,
          "velocity": 0.2283464566929134
        },
        {
          "duration": 0.09677399999998215,
          "durationTicks": 96,
          "midi": 68,
          "name": "G#4",
          "ticks": 177089,
          "time": 178.5167800625,
          "velocity": 0.2283464566929134
        },
        {
          "duration": 0.09677400000001057,
          "durationTicks": 96,
          "midi": 67,
          "name": "G4",
          "ticks": 177181,
          "time": 178.6095218125,
          "velocity": 0.2283464566929134
        },
        {
          "duration": 0.09677399999998215,
          "durationTicks": 96,
          "midi": 68,
          "name": "G#4",
          "ticks": 177274,
          "time": 178.703271625,
          "velocity": 0.2283464566929134
        },
        {
          "duration": 0.09677399999998215,
          "durationTicks": 96,
          "midi": 67,
          "name": "G4",
          "ticks": 177372,
          "time": 178.80206175,
          "velocity": 0.23622047244094488
        },
        {
          "duration": 0.09677399999998215,
          "durationTicks": 96,
          "midi": 69,
          "name": "A4",
          "ticks": 177471,
          "time": 178.9018599375,
          "velocity": 0.2283464566929134
        },
        {
          "duration": 0.09677400000001057,
          "durationTicks": 96,
          "midi": 71,
          "name": "B4",
          "ticks": 177563,
          "time": 178.9946016875,
          "velocity": 0.23622047244094488
        },
        {
          "duration": 0.09677400000001057,
          "durationTicks": 96,
          "midi": 72,
          "name": "C5",
          "ticks": 177656,
          "time": 179.0883515,
          "velocity": 0.2440944881889764
        },
        {
          "duration": 0.09677399999998215,
          "durationTicks": 96,
          "midi": 74,
          "name": "D5",
          "ticks": 177753,
          "time": 179.1861335625,
          "velocity": 0.2440944881889764
        },
        {
          "duration": 0.09677400000001057,
          "durationTicks": 96,
          "midi": 75,
          "name": "D#5",
          "ticks": 177849,
          "time": 179.2829075625,
          "velocity": 0.25196850393700787
        },
        {
          "duration": 0.09677399999998215,
          "durationTicks": 96,
          "midi": 77,
          "name": "F5",
          "ticks": 177942,
          "time": 179.376657375,
          "velocity": 0.25984251968503935
        },
        {
          "duration": 0.09677400000001057,
          "durationTicks": 96,
          "midi": 79,
          "name": "G5",
          "ticks": 178035,
          "time": 179.4704071875,
          "velocity": 0.25984251968503935
        },
        {
          "duration": 0.09677400000001057,
          "durationTicks": 96,
          "midi": 72,
          "name": "C5",
          "ticks": 178134,
          "time": 179.570205375,
          "velocity": 0.28346456692913385
        },
        {
          "duration": 0.09677400000001057,
          "durationTicks": 96,
          "midi": 67,
          "name": "G4",
          "ticks": 178243,
          "time": 179.6800841875,
          "velocity": 0.2677165354330709
        },
        {
          "duration": 0.09677400000001057,
          "durationTicks": 96,
          "midi": 63,
          "name": "D#4",
          "ticks": 178336,
          "time": 179.773834,
          "velocity": 0.2677165354330709
        },
        {
          "duration": 0.09677400000001057,
          "durationTicks": 96,
          "midi": 67,
          "name": "G4",
          "ticks": 178430,
          "time": 179.868591875,
          "velocity": 0.2677165354330709
        },
        {
          "duration": 0.09677399999998215,
          "durationTicks": 96,
          "midi": 72,
          "name": "C5",
          "ticks": 178527,
          "time": 179.9663739375,
          "velocity": 0.2755905511811024
        },
        {
          "duration": 0.09677400000001057,
          "durationTicks": 96,
          "midi": 67,
          "name": "G4",
          "ticks": 178624,
          "time": 180.064156,
          "velocity": 0.2677165354330709
        },
        {
          "duration": 0.09677400000001057,
          "durationTicks": 96,
          "midi": 63,
          "name": "D#4",
          "ticks": 178716,
          "time": 180.15689774999998,
          "velocity": 0.2677165354330709
        },
        {
          "duration": 0.09677399999998215,
          "durationTicks": 96,
          "midi": 67,
          "name": "G4",
          "ticks": 178809,
          "time": 180.2506475625,
          "velocity": 0.2677165354330709
        },
        {
          "duration": 0.09677399999998215,
          "durationTicks": 96,
          "midi": 72,
          "name": "C5",
          "ticks": 178907,
          "time": 180.3494376875,
          "velocity": 0.2755905511811024
        },
        {
          "duration": 0.09677399999998215,
          "durationTicks": 96,
          "midi": 67,
          "name": "G4",
          "ticks": 179006,
          "time": 180.449235875,
          "velocity": 0.2677165354330709
        },
        {
          "duration": 0.09677399999998215,
          "durationTicks": 96,
          "midi": 63,
          "name": "D#4",
          "ticks": 179098,
          "time": 180.54197762500002,
          "velocity": 0.2677165354330709
        },
        {
          "duration": 0.09677400000001057,
          "durationTicks": 96,
          "midi": 67,
          "name": "G4",
          "ticks": 179191,
          "time": 180.6357274375,
          "velocity": 0.2677165354330709
        },
        {
          "duration": 0.09677399999998215,
          "durationTicks": 96,
          "midi": 72,
          "name": "C5",
          "ticks": 179288,
          "time": 180.7335095,
          "velocity": 0.2755905511811024
        },
        {
          "duration": 0.09677400000001057,
          "durationTicks": 96,
          "midi": 67,
          "name": "G4",
          "ticks": 179384,
          "time": 180.83028349999998,
          "velocity": 0.2677165354330709
        },
        {
          "duration": 0.09677399999998215,
          "durationTicks": 96,
          "midi": 63,
          "name": "D#4",
          "ticks": 179477,
          "time": 180.9240333125,
          "velocity": 0.2677165354330709
        },
        {
          "duration": 0.09677400000001057,
          "durationTicks": 96,
          "midi": 67,
          "name": "G4",
          "ticks": 179570,
          "time": 181.017783125,
          "velocity": 0.2677165354330709
        },
        {
          "duration": 0.09677400000001057,
          "durationTicks": 96,
          "midi": 70,
          "name": "A#4",
          "ticks": 179669,
          "time": 181.1175813125,
          "velocity": 0.28346456692913385
        },
        {
          "duration": 0.09677400000001057,
          "durationTicks": 96,
          "midi": 67,
          "name": "G4",
          "ticks": 179778,
          "time": 181.227460125,
          "velocity": 0.2677165354330709
        },
        {
          "duration": 0.09677400000001057,
          "durationTicks": 96,
          "midi": 63,
          "name": "D#4",
          "ticks": 179871,
          "time": 181.3212099375,
          "velocity": 0.2677165354330709
        },
        {
          "duration": 0.09677399999998215,
          "durationTicks": 96,
          "midi": 67,
          "name": "G4",
          "ticks": 179965,
          "time": 181.4159678125,
          "velocity": 0.2677165354330709
        },
        {
          "duration": 0.09677399999998215,
          "durationTicks": 96,
          "midi": 70,
          "name": "A#4",
          "ticks": 180062,
          "time": 181.513749875,
          "velocity": 0.2755905511811024
        },
        {
          "duration": 0.09677400000001057,
          "durationTicks": 96,
          "midi": 67,
          "name": "G4",
          "ticks": 180159,
          "time": 181.6115319375,
          "velocity": 0.2677165354330709
        },
        {
          "duration": 0.09677400000001057,
          "durationTicks": 96,
          "midi": 63,
          "name": "D#4",
          "ticks": 180251,
          "time": 181.70427368749998,
          "velocity": 0.2677165354330709
        },
        {
          "duration": 0.09677399999998215,
          "durationTicks": 96,
          "midi": 67,
          "name": "G4",
          "ticks": 180344,
          "time": 181.7980235,
          "velocity": 0.2677165354330709
        },
        {
          "duration": 0.09677400000001057,
          "durationTicks": 96,
          "midi": 70,
          "name": "A#4",
          "ticks": 180442,
          "time": 181.896813625,
          "velocity": 0.2755905511811024
        },
        {
          "duration": 0.09677400000001057,
          "durationTicks": 96,
          "midi": 67,
          "name": "G4",
          "ticks": 180541,
          "time": 181.9966118125,
          "velocity": 0.2677165354330709
        },
        {
          "duration": 0.09677399999998215,
          "durationTicks": 96,
          "midi": 63,
          "name": "D#4",
          "ticks": 180633,
          "time": 182.0893535625,
          "velocity": 0.2677165354330709
        },
        {
          "duration": 0.09677399999998215,
          "durationTicks": 96,
          "midi": 67,
          "name": "G4",
          "ticks": 180726,
          "time": 182.183103375,
          "velocity": 0.2677165354330709
        },
        {
          "duration": 0.09677399999998215,
          "durationTicks": 96,
          "midi": 70,
          "name": "A#4",
          "ticks": 180823,
          "time": 182.28088543750002,
          "velocity": 0.2755905511811024
        },
        {
          "duration": 0.09677400000001057,
          "durationTicks": 96,
          "midi": 67,
          "name": "G4",
          "ticks": 180919,
          "time": 182.3776594375,
          "velocity": 0.2677165354330709
        },
        {
          "duration": 0.09677400000001057,
          "durationTicks": 96,
          "midi": 63,
          "name": "D#4",
          "ticks": 181012,
          "time": 182.47140925,
          "velocity": 0.2677165354330709
        },
        {
          "duration": 0.09677399999998215,
          "durationTicks": 96,
          "midi": 67,
          "name": "G4",
          "ticks": 181105,
          "time": 182.56515906250002,
          "velocity": 0.2677165354330709
        },
        {
          "duration": 0.09677399999998215,
          "durationTicks": 96,
          "midi": 70,
          "name": "A#4",
          "ticks": 181204,
          "time": 182.66495725000001,
          "velocity": 0.28346456692913385
        },
        {
          "duration": 0.09677400000001057,
          "durationTicks": 96,
          "midi": 65,
          "name": "F4",
          "ticks": 181313,
          "time": 182.7748360625,
          "velocity": 0.2677165354330709
        },
        {
          "duration": 0.09677400000001057,
          "durationTicks": 96,
          "midi": 62,
          "name": "D4",
          "ticks": 181406,
          "time": 182.86858587499998,
          "velocity": 0.2677165354330709
        },
        {
          "duration": 0.09677399999998215,
          "durationTicks": 96,
          "midi": 65,
          "name": "F4",
          "ticks": 181500,
          "time": 182.96334375,
          "velocity": 0.2677165354330709
        },
        {
          "duration": 0.09677400000001057,
          "durationTicks": 96,
          "midi": 70,
          "name": "A#4",
          "ticks": 181597,
          "time": 183.0611258125,
          "velocity": 0.2755905511811024
        },
        {
          "duration": 0.09677400000001057,
          "durationTicks": 96,
          "midi": 65,
          "name": "F4",
          "ticks": 181694,
          "time": 183.15890787499998,
          "velocity": 0.2677165354330709
        },
        {
          "duration": 0.09677400000001057,
          "durationTicks": 96,
          "midi": 62,
          "name": "D4",
          "ticks": 181786,
          "time": 183.251649625,
          "velocity": 0.2677165354330709
        },
        {
          "duration": 0.09677400000001057,
          "durationTicks": 96,
          "midi": 65,
          "name": "F4",
          "ticks": 181879,
          "time": 183.3453994375,
          "velocity": 0.2677165354330709
        },
        {
          "duration": 0.09677400000001057,
          "durationTicks": 96,
          "midi": 70,
          "name": "A#4",
          "ticks": 181977,
          "time": 183.4441895625,
          "velocity": 0.2755905511811024
        },
        {
          "duration": 0.09677400000001057,
          "durationTicks": 96,
          "midi": 65,
          "name": "F4",
          "ticks": 182076,
          "time": 183.54398774999999,
          "velocity": 0.2677165354330709
        },
        {
          "duration": 0.09677399999998215,
          "durationTicks": 96,
          "midi": 62,
          "name": "D4",
          "ticks": 182168,
          "time": 183.6367295,
          "velocity": 0.2677165354330709
        },
        {
          "duration": 0.09677399999998215,
          "durationTicks": 96,
          "midi": 65,
          "name": "F4",
          "ticks": 182261,
          "time": 183.7304793125,
          "velocity": 0.2677165354330709
        },
        {
          "duration": 0.09677399999998215,
          "durationTicks": 96,
          "midi": 70,
          "name": "A#4",
          "ticks": 182358,
          "time": 183.828261375,
          "velocity": 0.2755905511811024
        },
        {
          "duration": 0.09677400000001057,
          "durationTicks": 96,
          "midi": 65,
          "name": "F4",
          "ticks": 182454,
          "time": 183.925035375,
          "velocity": 0.2677165354330709
        },
        {
          "duration": 0.09677400000001057,
          "durationTicks": 96,
          "midi": 62,
          "name": "D4",
          "ticks": 182547,
          "time": 184.0187851875,
          "velocity": 0.2677165354330709
        },
        {
          "duration": 0.09677399999998215,
          "durationTicks": 96,
          "midi": 65,
          "name": "F4",
          "ticks": 182640,
          "time": 184.112535,
          "velocity": 0.2677165354330709
        },
        {
          "duration": 0.09677399999998215,
          "durationTicks": 96,
          "midi": 72,
          "name": "C5",
          "ticks": 182739,
          "time": 184.2123331875,
          "velocity": 0.28346456692913385
        },
        {
          "duration": 0.09677400000001057,
          "durationTicks": 96,
          "midi": 68,
          "name": "G#4",
          "ticks": 182848,
          "time": 184.322212,
          "velocity": 0.2677165354330709
        },
        {
          "duration": 0.09677400000001057,
          "durationTicks": 96,
          "midi": 63,
          "name": "D#4",
          "ticks": 182941,
          "time": 184.4159618125,
          "velocity": 0.25984251968503935
        },
        {
          "duration": 0.09677399999998215,
          "durationTicks": 96,
          "midi": 68,
          "name": "G#4",
          "ticks": 183035,
          "time": 184.5107196875,
          "velocity": 0.25984251968503935
        },
        {
          "duration": 0.09677400000001057,
          "durationTicks": 96,
          "midi": 72,
          "name": "C5",
          "ticks": 183132,
          "time": 184.60850175,
          "velocity": 0.25196850393700787
        },
        {
          "duration": 0.09677400000001057,
          "durationTicks": 96,
          "midi": 68,
          "name": "G#4",
          "ticks": 183229,
          "time": 184.7062838125,
          "velocity": 0.2440944881889764
        },
        {
          "duration": 0.09677400000001057,
          "durationTicks": 96,
          "midi": 63,
          "name": "D#4",
          "ticks": 183321,
          "time": 184.7990255625,
          "velocity": 0.2440944881889764
        },
        {
          "duration": 0.09677400000001057,
          "durationTicks": 96,
          "midi": 68,
          "name": "G#4",
          "ticks": 183414,
          "time": 184.89277537499999,
          "velocity": 0.23622047244094488
        },
        {
          "duration": 0.09677400000001057,
          "durationTicks": 96,
          "midi": 72,
          "name": "C5",
          "ticks": 183512,
          "time": 184.99156549999998,
          "velocity": 0.2283464566929134
        },
        {
          "duration": 0.09677400000001057,
          "durationTicks": 96,
          "midi": 67,
          "name": "G4",
          "ticks": 183611,
          "time": 185.09136368749998,
          "velocity": 0.2283464566929134
        },
        {
          "duration": 0.09677400000001057,
          "durationTicks": 96,
          "midi": 62,
          "name": "D4",
          "ticks": 183703,
          "time": 185.1841054375,
          "velocity": 0.2204724409448819
        },
        {
          "duration": 0.09677399999998215,
          "durationTicks": 96,
          "midi": 67,
          "name": "G4",
          "ticks": 183796,
          "time": 185.27785525000002,
          "velocity": 0.2125984251968504
        },
        {
          "duration": 0.09677399999998215,
          "durationTicks": 96,
          "midi": 71,
          "name": "B4",
          "ticks": 183893,
          "time": 185.3756373125,
          "velocity": 0.2125984251968504
        },
        {
          "duration": 0.09677400000001057,
          "durationTicks": 96,
          "midi": 67,
          "name": "G4",
          "ticks": 183989,
          "time": 185.4724113125,
          "velocity": 0.2047244094488189
        },
        {
          "duration": 0.09677400000001057,
          "durationTicks": 96,
          "midi": 62,
          "name": "D4",
          "ticks": 184082,
          "time": 185.56616112499998,
          "velocity": 0.1968503937007874
        },
        {
          "duration": 0.09677399999998215,
          "durationTicks": 96,
          "midi": 67,
          "name": "G4",
          "ticks": 184175,
          "time": 185.6599109375,
          "velocity": 0.1968503937007874
        },
        {
          "duration": 0.09677399999998215,
          "durationTicks": 96,
          "midi": 60,
          "name": "C4",
          "ticks": 184274,
          "time": 185.759709125,
          "velocity": 0.2047244094488189
        },
        {
          "duration": 0.09677400000001057,
          "durationTicks": 96,
          "midi": 55,
          "name": "G3",
          "ticks": 184383,
          "time": 185.8695879375,
          "velocity": 0.1889763779527559
        },
        {
          "duration": 0.09677400000001057,
          "durationTicks": 96,
          "midi": 51,
          "name": "D#3",
          "ticks": 184476,
          "time": 185.96333775,
          "velocity": 0.1889763779527559
        },
        {
          "duration": 0.09677400000001057,
          "durationTicks": 96,
          "midi": 55,
          "name": "G3",
          "ticks": 184570,
          "time": 186.058095625,
          "velocity": 0.1889763779527559
        },
        {
          "duration": 0.09677400000001057,
          "durationTicks": 96,
          "midi": 60,
          "name": "C4",
          "ticks": 184667,
          "time": 186.15587768749998,
          "velocity": 0.1889763779527559
        },
        {
          "duration": 0.09677400000001057,
          "durationTicks": 96,
          "midi": 55,
          "name": "G3",
          "ticks": 184764,
          "time": 186.25365975,
          "velocity": 0.1889763779527559
        },
        {
          "duration": 0.09677400000001057,
          "durationTicks": 96,
          "midi": 51,
          "name": "D#3",
          "ticks": 184856,
          "time": 186.34640149999998,
          "velocity": 0.1889763779527559
        },
        {
          "duration": 0.09677400000001057,
          "durationTicks": 96,
          "midi": 55,
          "name": "G3",
          "ticks": 184949,
          "time": 186.44015131249998,
          "velocity": 0.1889763779527559
        },
        {
          "duration": 0.09677400000001057,
          "durationTicks": 96,
          "midi": 60,
          "name": "C4",
          "ticks": 185047,
          "time": 186.5389414375,
          "velocity": 0.1968503937007874
        },
        {
          "duration": 0.09677400000001057,
          "durationTicks": 96,
          "midi": 55,
          "name": "G3",
          "ticks": 185146,
          "time": 186.638739625,
          "velocity": 0.1889763779527559
        },
        {
          "duration": 0.09677400000001057,
          "durationTicks": 96,
          "midi": 51,
          "name": "D#3",
          "ticks": 185238,
          "time": 186.731481375,
          "velocity": 0.1889763779527559
        },
        {
          "duration": 0.09677399999998215,
          "durationTicks": 96,
          "midi": 55,
          "name": "G3",
          "ticks": 185331,
          "time": 186.8252311875,
          "velocity": 0.1889763779527559
        },
        {
          "duration": 0.09677400000001057,
          "durationTicks": 96,
          "midi": 60,
          "name": "C4",
          "ticks": 185428,
          "time": 186.92301325,
          "velocity": 0.1889763779527559
        },
        {
          "duration": 0.09677400000001057,
          "durationTicks": 96,
          "midi": 55,
          "name": "G3",
          "ticks": 185524,
          "time": 187.01978725,
          "velocity": 0.1889763779527559
        },
        {
          "duration": 0.09677400000001057,
          "durationTicks": 96,
          "midi": 51,
          "name": "D#3",
          "ticks": 185617,
          "time": 187.1135370625,
          "velocity": 0.1889763779527559
        },
        {
          "duration": 0.09677400000001057,
          "durationTicks": 96,
          "midi": 55,
          "name": "G3",
          "ticks": 185710,
          "time": 187.207286875,
          "velocity": 0.1889763779527559
        },
        {
          "duration": 0.09677400000001057,
          "durationTicks": 96,
          "midi": 58,
          "name": "A#3",
          "ticks": 185809,
          "time": 187.3070850625,
          "velocity": 0.2047244094488189
        },
        {
          "duration": 0.09677400000001057,
          "durationTicks": 96,
          "midi": 55,
          "name": "G3",
          "ticks": 185918,
          "time": 187.416963875,
          "velocity": 0.1889763779527559
        },
        {
          "duration": 0.09677400000001057,
          "durationTicks": 96,
          "midi": 51,
          "name": "D#3",
          "ticks": 186011,
          "time": 187.5107136875,
          "velocity": 0.1889763779527559
        },
        {
          "duration": 0.09677400000001057,
          "durationTicks": 96,
          "midi": 55,
          "name": "G3",
          "ticks": 186105,
          "time": 187.6054715625,
          "velocity": 0.1889763779527559
        },
        {
          "duration": 0.09677400000001057,
          "durationTicks": 96,
          "midi": 58,
          "name": "A#3",
          "ticks": 186202,
          "time": 187.703253625,
          "velocity": 0.1889763779527559
        },
        {
          "duration": 0.09677400000001057,
          "durationTicks": 96,
          "midi": 55,
          "name": "G3",
          "ticks": 186299,
          "time": 187.8010356875,
          "velocity": 0.1889763779527559
        },
        {
          "duration": 0.09677400000001057,
          "durationTicks": 96,
          "midi": 51,
          "name": "D#3",
          "ticks": 186391,
          "time": 187.8937774375,
          "velocity": 0.1889763779527559
        },
        {
          "duration": 0.09677400000001057,
          "durationTicks": 96,
          "midi": 55,
          "name": "G3",
          "ticks": 186484,
          "time": 187.98752725,
          "velocity": 0.1889763779527559
        },
        {
          "duration": 0.09677400000001057,
          "durationTicks": 96,
          "midi": 58,
          "name": "A#3",
          "ticks": 186582,
          "time": 188.086317375,
          "velocity": 0.1968503937007874
        },
        {
          "duration": 0.09677400000001057,
          "durationTicks": 96,
          "midi": 55,
          "name": "G3",
          "ticks": 186681,
          "time": 188.1861155625,
          "velocity": 0.1889763779527559
        },
        {
          "duration": 0.09677400000001057,
          "durationTicks": 96,
          "midi": 51,
          "name": "D#3",
          "ticks": 186773,
          "time": 188.27885731249998,
          "velocity": 0.1889763779527559
        },
        {
          "duration": 0.09677399999998215,
          "durationTicks": 96,
          "midi": 55,
          "name": "G3",
          "ticks": 186866,
          "time": 188.372607125,
          "velocity": 0.1889763779527559
        },
        {
          "duration": 0.09677400000001057,
          "durationTicks": 96,
          "midi": 58,
          "name": "A#3",
          "ticks": 186963,
          "time": 188.4703891875,
          "velocity": 0.1889763779527559
        },
        {
          "duration": 0.09677400000001057,
          "durationTicks": 96,
          "midi": 55,
          "name": "G3",
          "ticks": 187059,
          "time": 188.5671631875,
          "velocity": 0.1889763779527559
        },
        {
          "duration": 0.09677400000001057,
          "durationTicks": 96,
          "midi": 51,
          "name": "D#3",
          "ticks": 187152,
          "time": 188.660913,
          "velocity": 0.1889763779527559
        },
        {
          "duration": 0.09677400000001057,
          "durationTicks": 96,
          "midi": 55,
          "name": "G3",
          "ticks": 187245,
          "time": 188.7546628125,
          "velocity": 0.1889763779527559
        },
        {
          "duration": 0.09677400000001057,
          "durationTicks": 96,
          "midi": 58,
          "name": "A#3",
          "ticks": 187344,
          "time": 188.854461,
          "velocity": 0.2047244094488189
        },
        {
          "duration": 0.09677399999998215,
          "durationTicks": 96,
          "midi": 53,
          "name": "F3",
          "ticks": 187453,
          "time": 188.96433981250001,
          "velocity": 0.1889763779527559
        },
        {
          "duration": 0.09677400000001057,
          "durationTicks": 96,
          "midi": 50,
          "name": "D3",
          "ticks": 187546,
          "time": 189.058089625,
          "velocity": 0.1889763779527559
        },
        {
          "duration": 0.09677400000001057,
          "durationTicks": 96,
          "midi": 53,
          "name": "F3",
          "ticks": 187640,
          "time": 189.15284749999998,
          "velocity": 0.1889763779527559
        },
        {
          "duration": 0.09677400000001057,
          "durationTicks": 96,
          "midi": 58,
          "name": "A#3",
          "ticks": 187737,
          "time": 189.2506295625,
          "velocity": 0.1889763779527559
        },
        {
          "duration": 0.09677399999998215,
          "durationTicks": 96,
          "midi": 53,
          "name": "F3",
          "ticks": 187834,
          "time": 189.348411625,
          "velocity": 0.1889763779527559
        },
        {
          "duration": 0.09677400000001057,
          "durationTicks": 96,
          "midi": 50,
          "name": "D3",
          "ticks": 187926,
          "time": 189.441153375,
          "velocity": 0.1889763779527559
        },
        {
          "duration": 0.09677400000001057,
          "durationTicks": 96,
          "midi": 53,
          "name": "F3",
          "ticks": 188019,
          "time": 189.5349031875,
          "velocity": 0.1889763779527559
        },
        {
          "duration": 0.09677400000001057,
          "durationTicks": 96,
          "midi": 58,
          "name": "A#3",
          "ticks": 188117,
          "time": 189.6336933125,
          "velocity": 0.1968503937007874
        },
        {
          "duration": 0.09677400000001057,
          "durationTicks": 96,
          "midi": 53,
          "name": "F3",
          "ticks": 188216,
          "time": 189.73349149999999,
          "velocity": 0.1889763779527559
        },
        {
          "duration": 0.09677400000001057,
          "durationTicks": 96,
          "midi": 50,
          "name": "D3",
          "ticks": 188308,
          "time": 189.82623325,
          "velocity": 0.1889763779527559
        },
        {
          "duration": 0.09677400000001057,
          "durationTicks": 96,
          "midi": 53,
          "name": "F3",
          "ticks": 188401,
          "time": 189.9199830625,
          "velocity": 0.1889763779527559
        },
        {
          "duration": 0.09677400000001057,
          "durationTicks": 96,
          "midi": 58,
          "name": "A#3",
          "ticks": 188498,
          "time": 190.01776512499998,
          "velocity": 0.1889763779527559
        },
        {
          "duration": 0.09677400000001057,
          "durationTicks": 96,
          "midi": 53,
          "name": "F3",
          "ticks": 188594,
          "time": 190.114539125,
          "velocity": 0.1889763779527559
        },
        {
          "duration": 0.09677400000001057,
          "durationTicks": 96,
          "midi": 50,
          "name": "D3",
          "ticks": 188687,
          "time": 190.2082889375,
          "velocity": 0.1889763779527559
        },
        {
          "duration": 0.09677400000001057,
          "durationTicks": 96,
          "midi": 53,
          "name": "F3",
          "ticks": 188780,
          "time": 190.30203874999998,
          "velocity": 0.1889763779527559
        },
        {
          "duration": 0.09677400000001057,
          "durationTicks": 96,
          "midi": 60,
          "name": "C4",
          "ticks": 188879,
          "time": 190.40183693749998,
          "velocity": 0.2047244094488189
        },
        {
          "duration": 0.09677399999998215,
          "durationTicks": 96,
          "midi": 56,
          "name": "G#3",
          "ticks": 188988,
          "time": 190.51171575,
          "velocity": 0.1889763779527559
        },
        {
          "duration": 0.09677400000001057,
          "durationTicks": 96,
          "midi": 51,
          "name": "D#3",
          "ticks": 189081,
          "time": 190.6054655625,
          "velocity": 0.1889763779527559
        },
        {
          "duration": 0.09677400000001057,
          "durationTicks": 96,
          "midi": 56,
          "name": "G#3",
          "ticks": 189175,
          "time": 190.7002234375,
          "velocity": 0.1889763779527559
        },
        {
          "duration": 0.09677400000001057,
          "durationTicks": 96,
          "midi": 60,
          "name": "C4",
          "ticks": 189272,
          "time": 190.7980055,
          "velocity": 0.1889763779527559
        },
        {
          "duration": 0.09677399999998215,
          "durationTicks": 96,
          "midi": 56,
          "name": "G#3",
          "ticks": 189369,
          "time": 190.8957875625,
          "velocity": 0.1889763779527559
        },
        {
          "duration": 0.09677400000001057,
          "durationTicks": 96,
          "midi": 51,
          "name": "D#3",
          "ticks": 189461,
          "time": 190.9885293125,
          "velocity": 0.1889763779527559
        },
        {
          "duration": 0.09677400000001057,
          "durationTicks": 96,
          "midi": 56,
          "name": "G#3",
          "ticks": 189554,
          "time": 191.08227912499999,
          "velocity": 0.1889763779527559
        },
        {
          "duration": 0.09677400000001057,
          "durationTicks": 96,
          "midi": 60,
          "name": "C4",
          "ticks": 189652,
          "time": 191.18106925,
          "velocity": 0.1968503937007874
        },
        {
          "duration": 0.09677400000001057,
          "durationTicks": 96,
          "midi": 55,
          "name": "G3",
          "ticks": 189751,
          "time": 191.2808674375,
          "velocity": 0.1889763779527559
        },
        {
          "duration": 0.09677400000001057,
          "durationTicks": 96,
          "midi": 50,
          "name": "D3",
          "ticks": 189843,
          "time": 191.3736091875,
          "velocity": 0.1889763779527559
        },
        {
          "duration": 0.09677400000001057,
          "durationTicks": 96,
          "midi": 55,
          "name": "G3",
          "ticks": 189936,
          "time": 191.467359,
          "velocity": 0.1889763779527559
        },
        {
          "duration": 0.09677400000001057,
          "durationTicks": 96,
          "midi": 59,
          "name": "B3",
          "ticks": 190033,
          "time": 191.5651410625,
          "velocity": 0.1889763779527559
        },
        {
          "duration": 0.09677399999998215,
          "durationTicks": 96,
          "midi": 55,
          "name": "G3",
          "ticks": 190129,
          "time": 191.66191506250001,
          "velocity": 0.1889763779527559
        },
        {
          "duration": 0.09677400000001057,
          "durationTicks": 96,
          "midi": 50,
          "name": "D3",
          "ticks": 190222,
          "time": 191.755664875,
          "velocity": 0.1889763779527559
        },
        {
          "duration": 0.09677400000001057,
          "durationTicks": 96,
          "midi": 55,
          "name": "G3",
          "ticks": 190315,
          "time": 191.8494146875,
          "velocity": 0.1889763779527559
        },
        {
          "duration": 0.3870960000000139,
          "durationTicks": 384,
          "midi": 84,
          "name": "C6",
          "ticks": 190414,
          "time": 191.949212875,
          "velocity": 0.2440944881889764
        },
        {
          "duration": 0.2903220000000033,
          "durationTicks": 288,
          "midi": 84,
          "name": "C6",
          "ticks": 190808,
          "time": 192.3463895,
          "velocity": 0.2283464566929134
        },
        {
          "duration": 0.09677400000001057,
          "durationTicks": 96,
          "midi": 82,
          "name": "A#5",
          "ticks": 191090,
          "time": 192.63066312499998,
          "velocity": 0.2283464566929134
        },
        {
          "duration": 0.09677400000001057,
          "durationTicks": 96,
          "midi": 84,
          "name": "C6",
          "ticks": 191188,
          "time": 192.72945325,
          "velocity": 0.2125984251968504
        },
        {
          "duration": 0.09677400000001057,
          "durationTicks": 96,
          "midi": 82,
          "name": "A#5",
          "ticks": 191379,
          "time": 192.9219931875,
          "velocity": 0.2283464566929134
        },
        {
          "duration": 0.09677400000001057,
          "durationTicks": 96,
          "midi": 80,
          "name": "G#5",
          "ticks": 191569,
          "time": 193.1135250625,
          "velocity": 0.2283464566929134
        },
        {
          "duration": 0.09677400000001057,
          "durationTicks": 96,
          "midi": 79,
          "name": "G5",
          "ticks": 191758,
          "time": 193.304048875,
          "velocity": 0.2283464566929134
        },
        {
          "duration": 0.09677400000001057,
          "durationTicks": 96,
          "midi": 82,
          "name": "A#5",
          "ticks": 191950,
          "time": 193.497596875,
          "velocity": 0.2283464566929134
        },
        {
          "duration": 0.09677399999998215,
          "durationTicks": 96,
          "midi": 80,
          "name": "G#5",
          "ticks": 192059,
          "time": 193.6074756875,
          "velocity": 0.2283464566929134
        },
        {
          "duration": 0.09677400000001057,
          "durationTicks": 96,
          "midi": 79,
          "name": "G5",
          "ticks": 192152,
          "time": 193.7012255,
          "velocity": 0.2283464566929134
        },
        {
          "duration": 0.09677400000001057,
          "durationTicks": 96,
          "midi": 77,
          "name": "F5",
          "ticks": 192246,
          "time": 193.795983375,
          "velocity": 0.2283464566929134
        },
        {
          "duration": 0.09677400000001057,
          "durationTicks": 96,
          "midi": 75,
          "name": "D#5",
          "ticks": 192343,
          "time": 193.8937654375,
          "velocity": 0.2125984251968504
        },
        {
          "duration": 0.09677399999998215,
          "durationTicks": 96,
          "midi": 77,
          "name": "F5",
          "ticks": 192532,
          "time": 194.08428925,
          "velocity": 0.2283464566929134
        },
        {
          "duration": 0.7701597500000048,
          "durationTicks": 764,
          "midi": 79,
          "name": "G5",
          "ticks": 192723,
          "time": 194.2768291875,
          "velocity": 0.23622047244094488
        },
        {
          "duration": 0.09677399999998215,
          "durationTicks": 96,
          "midi": 82,
          "name": "A#5",
          "ticks": 192911,
          "time": 194.4663449375,
          "velocity": 0.3937007874015748
        },
        {
          "duration": 0.3911282500000084,
          "durationTicks": 388,
          "midi": 79,
          "name": "G5",
          "ticks": 193103,
          "time": 194.6598929375,
          "velocity": 0.3937007874015748
        },
        {
          "duration": 0.3870960000000139,
          "durationTicks": 384,
          "midi": 82,
          "name": "A#5",
          "ticks": 193485,
          "time": 195.0449728125,
          "velocity": 0.2440944881889764
        },
        {
          "duration": 0.2903220000000033,
          "durationTicks": 288,
          "midi": 82,
          "name": "A#5",
          "ticks": 193879,
          "time": 195.4421494375,
          "velocity": 0.2283464566929134
        },
        {
          "duration": 0.09677400000001057,
          "durationTicks": 96,
          "midi": 80,
          "name": "G#5",
          "ticks": 194161,
          "time": 195.7264230625,
          "velocity": 0.2283464566929134
        },
        {
          "duration": 0.09677400000001057,
          "durationTicks": 96,
          "midi": 79,
          "name": "G5",
          "ticks": 194259,
          "time": 195.8252131875,
          "velocity": 0.2125984251968504
        },
        {
          "duration": 0.09677400000001057,
          "durationTicks": 96,
          "midi": 77,
          "name": "F5",
          "ticks": 194450,
          "time": 196.01775312499998,
          "velocity": 0.2283464566929134
        },
        {
          "duration": 0.09677400000001057,
          "durationTicks": 96,
          "midi": 75,
          "name": "D#5",
          "ticks": 194640,
          "time": 196.209285,
          "velocity": 0.2283464566929134
        },
        {
          "duration": 0.09677400000001057,
          "durationTicks": 96,
          "midi": 77,
          "name": "F5",
          "ticks": 194829,
          "time": 196.3998088125,
          "velocity": 0.2283464566929134
        },
        {
          "duration": 0.09677400000001057,
          "durationTicks": 96,
          "midi": 79,
          "name": "G5",
          "ticks": 195021,
          "time": 196.5933568125,
          "velocity": 0.2283464566929134
        },
        {
          "duration": 0.09677399999998215,
          "durationTicks": 96,
          "midi": 75,
          "name": "D#5",
          "ticks": 195130,
          "time": 196.70323562500002,
          "velocity": 0.2283464566929134
        },
        {
          "duration": 0.09677399999998215,
          "durationTicks": 96,
          "midi": 72,
          "name": "C5",
          "ticks": 195223,
          "time": 196.7969854375,
          "velocity": 0.2283464566929134
        },
        {
          "duration": 0.09677400000001057,
          "durationTicks": 96,
          "midi": 75,
          "name": "D#5",
          "ticks": 195317,
          "time": 196.89174331249998,
          "velocity": 0.2283464566929134
        },
        {
          "duration": 0.09677400000001057,
          "durationTicks": 96,
          "midi": 79,
          "name": "G5",
          "ticks": 195414,
          "time": 196.989525375,
          "velocity": 0.2125984251968504
        },
        {
          "duration": 0.09677399999998215,
          "durationTicks": 96,
          "midi": 77,
          "name": "F5",
          "ticks": 195603,
          "time": 197.1800491875,
          "velocity": 0.2283464566929134
        },
        {
          "duration": 0.3870960000000139,
          "durationTicks": 384,
          "midi": 75,
          "name": "D#5",
          "ticks": 195794,
          "time": 197.372589125,
          "velocity": 0.23622047244094488
        },
        {
          "duration": 0.3870960000000139,
          "durationTicks": 384,
          "midi": 74,
          "name": "D5",
          "ticks": 196175,
          "time": 197.7566609375,
          "velocity": 0.2283464566929134
        },
        {
          "duration": 0.3870960000000423,
          "durationTicks": 384,
          "midi": 84,
          "name": "C6",
          "ticks": 196556,
          "time": 198.14073274999998,
          "velocity": 0.2440944881889764
        },
        {
          "duration": 0.2903220000000033,
          "durationTicks": 288,
          "midi": 84,
          "name": "C6",
          "ticks": 196950,
          "time": 198.537909375,
          "velocity": 0.2283464566929134
        },
        {
          "duration": 0.09677400000001057,
          "durationTicks": 96,
          "midi": 82,
          "name": "A#5",
          "ticks": 197232,
          "time": 198.822183,
          "velocity": 0.2283464566929134
        },
        {
          "duration": 0.09677399999998215,
          "durationTicks": 96,
          "midi": 84,
          "name": "C6",
          "ticks": 197330,
          "time": 198.92097312500002,
          "velocity": 0.2125984251968504
        },
        {
          "duration": 0.09677400000001057,
          "durationTicks": 96,
          "midi": 82,
          "name": "A#5",
          "ticks": 197521,
          "time": 199.11351306249998,
          "velocity": 0.2283464566929134
        },
        {
          "duration": 0.09677400000001057,
          "durationTicks": 96,
          "midi": 80,
          "name": "G#5",
          "ticks": 197711,
          "time": 199.3050449375,
          "velocity": 0.2283464566929134
        },
        {
          "duration": 0.09677399999998215,
          "durationTicks": 96,
          "midi": 79,
          "name": "G5",
          "ticks": 197900,
          "time": 199.49556875000002,
          "velocity": 0.2283464566929134
        },
        {
          "duration": 0.09677400000001057,
          "durationTicks": 96,
          "midi": 82,
          "name": "A#5",
          "ticks": 198092,
          "time": 199.68911675,
          "velocity": 0.2283464566929134
        },
        {
          "duration": 0.09677399999998215,
          "durationTicks": 96,
          "midi": 80,
          "name": "G#5",
          "ticks": 198201,
          "time": 199.7989955625,
          "velocity": 0.2283464566929134
        },
        {
          "duration": 0.09677399999998215,
          "durationTicks": 96,
          "midi": 79,
          "name": "G5",
          "ticks": 198294,
          "time": 199.892745375,
          "velocity": 0.2283464566929134
        },
        {
          "duration": 0.09677400000001057,
          "durationTicks": 96,
          "midi": 77,
          "name": "F5",
          "ticks": 198388,
          "time": 199.98750324999997,
          "velocity": 0.2283464566929134
        },
        {
          "duration": 0.09677399999998215,
          "durationTicks": 96,
          "midi": 75,
          "name": "D#5",
          "ticks": 198485,
          "time": 200.08528531250002,
          "velocity": 0.2125984251968504
        },
        {
          "duration": 0.09677399999998215,
          "durationTicks": 96,
          "midi": 77,
          "name": "F5",
          "ticks": 198674,
          "time": 200.27580912500002,
          "velocity": 0.2283464566929134
        },
        {
          "duration": 0.2862897500000088,
          "durationTicks": 284,
          "midi": 79,
          "name": "G5",
          "ticks": 198865,
          "time": 200.46834906249998,
          "velocity": 0.23622047244094488
        },
        {
          "duration": 0.5846762499999727,
          "durationTicks": 580,
          "midi": 79,
          "name": "G5",
          "ticks": 199053,
          "time": 200.6578648125,
          "velocity": 0.3937007874015748
        },
        {
          "duration": 0.38709599999998545,
          "durationTicks": 384,
          "midi": 82,
          "name": "A#5",
          "ticks": 199245,
          "time": 200.8514128125,
          "velocity": 0.3937007874015748
        },
        {
          "duration": 0.3870960000000139,
          "durationTicks": 384,
          "midi": 82,
          "name": "A#5",
          "ticks": 199627,
          "time": 201.23649268749998,
          "velocity": 0.2440944881889764
        },
        {
          "duration": 0.2903220000000033,
          "durationTicks": 288,
          "midi": 82,
          "name": "A#5",
          "ticks": 200021,
          "time": 201.63366931250002,
          "velocity": 0.2283464566929134
        },
        {
          "duration": 0.09677400000001057,
          "durationTicks": 96,
          "midi": 80,
          "name": "G#5",
          "ticks": 200303,
          "time": 201.91794293750002,
          "velocity": 0.2283464566929134
        },
        {
          "duration": 0.09677400000001057,
          "durationTicks": 96,
          "midi": 79,
          "name": "G5",
          "ticks": 200401,
          "time": 202.01673306249998,
          "velocity": 0.2125984251968504
        },
        {
          "duration": 0.09677400000001057,
          "durationTicks": 96,
          "midi": 77,
          "name": "F5",
          "ticks": 200592,
          "time": 202.209273,
          "velocity": 0.2283464566929134
        },
        {
          "duration": 0.09677400000001057,
          "durationTicks": 96,
          "midi": 75,
          "name": "D#5",
          "ticks": 200782,
          "time": 202.40080487499998,
          "velocity": 0.2283464566929134
        },
        {
          "duration": 0.09677400000001057,
          "durationTicks": 96,
          "midi": 77,
          "name": "F5",
          "ticks": 200971,
          "time": 202.59132868749998,
          "velocity": 0.2283464566929134
        },
        {
          "duration": 0.09677400000001057,
          "durationTicks": 96,
          "midi": 79,
          "name": "G5",
          "ticks": 201163,
          "time": 202.78487668749997,
          "velocity": 0.2283464566929134
        },
        {
          "duration": 0.09677400000001057,
          "durationTicks": 96,
          "midi": 75,
          "name": "D#5",
          "ticks": 201272,
          "time": 202.8947555,
          "velocity": 0.2283464566929134
        },
        {
          "duration": 0.09677399999998215,
          "durationTicks": 96,
          "midi": 72,
          "name": "C5",
          "ticks": 201365,
          "time": 202.98850531250002,
          "velocity": 0.2283464566929134
        },
        {
          "duration": 0.09677400000001057,
          "durationTicks": 96,
          "midi": 75,
          "name": "D#5",
          "ticks": 201459,
          "time": 203.0832631875,
          "velocity": 0.2283464566929134
        },
        {
          "duration": 0.09677400000001057,
          "durationTicks": 96,
          "midi": 79,
          "name": "G5",
          "ticks": 201556,
          "time": 203.18104524999998,
          "velocity": 0.2125984251968504
        },
        {
          "duration": 0.09677400000001057,
          "durationTicks": 96,
          "midi": 77,
          "name": "F5",
          "ticks": 201745,
          "time": 203.3715690625,
          "velocity": 0.2283464566929134
        },
        {
          "duration": 0.38709599999998545,
          "durationTicks": 384,
          "midi": 75,
          "name": "D#5",
          "ticks": 201936,
          "time": 203.564109,
          "velocity": 0.23622047244094488
        },
        {
          "duration": 0.38709599999998545,
          "durationTicks": 384,
          "midi": 74,
          "name": "D5",
          "ticks": 202317,
          "time": 203.9481808125,
          "velocity": 0.2283464566929134
        },
        {
          "duration": 0.09677399999998215,
          "durationTicks": 96,
          "midi": 72,
          "name": "C5",
          "ticks": 202901,
          "time": 204.53688931250002,
          "velocity": 0.2283464566929134
        },
        {
          "duration": 0.09677400000001057,
          "durationTicks": 96,
          "midi": 74,
          "name": "D5",
          "ticks": 202995,
          "time": 204.6316471875,
          "velocity": 0.2283464566929134
        },
        {
          "duration": 0.09677400000001057,
          "durationTicks": 96,
          "midi": 75,
          "name": "D#5",
          "ticks": 203092,
          "time": 204.72942924999998,
          "velocity": 0.2125984251968504
        },
        {
          "duration": 0.09677400000001057,
          "durationTicks": 96,
          "midi": 72,
          "name": "C5",
          "ticks": 203281,
          "time": 204.91995306249999,
          "velocity": 0.2283464566929134
        },
        {
          "duration": 0.19354799999999273,
          "durationTicks": 192,
          "midi": 77,
          "name": "F5",
          "ticks": 203472,
          "time": 205.112493,
          "velocity": 0.2283464566929134
        },
        {
          "duration": 0.09677399999998215,
          "durationTicks": 96,
          "midi": 75,
          "name": "D#5",
          "ticks": 203663,
          "time": 205.30503293750002,
          "velocity": 0.2125984251968504
        },
        {
          "duration": 0.09677400000001057,
          "durationTicks": 96,
          "midi": 74,
          "name": "D5",
          "ticks": 203853,
          "time": 205.4965648125,
          "velocity": 0.2283464566929134
        },
        {
          "duration": 0.09677400000001057,
          "durationTicks": 96,
          "midi": 72,
          "name": "C5",
          "ticks": 204042,
          "time": 205.687088625,
          "velocity": 0.2283464566929134
        },
        {
          "duration": 0.2903220000000033,
          "durationTicks": 288,
          "midi": 70,
          "name": "A#4",
          "ticks": 204234,
          "time": 205.880636625,
          "velocity": 0.2440944881889764
        },
        {
          "duration": 0.09677400000001057,
          "durationTicks": 96,
          "midi": 68,
          "name": "G#4",
          "ticks": 204531,
          "time": 206.1800311875,
          "velocity": 0.2283464566929134
        },
        {
          "duration": 0.09677400000001057,
          "durationTicks": 96,
          "midi": 67,
          "name": "G4",
          "ticks": 204628,
          "time": 206.27781324999998,
          "velocity": 0.2125984251968504
        },
        {
          "duration": 0.19354799999999273,
          "durationTicks": 192,
          "midi": 68,
          "name": "G#4",
          "ticks": 204817,
          "time": 206.46833706249998,
          "velocity": 0.2283464566929134
        },
        {
          "duration": 0.38709599999998545,
          "durationTicks": 384,
          "midi": 70,
          "name": "A#4",
          "ticks": 205008,
          "time": 206.660877,
          "velocity": 0.23622047244094488
        },
        {
          "duration": 0.3870960000000139,
          "durationTicks": 384,
          "midi": 65,
          "name": "F4",
          "ticks": 205389,
          "time": 207.0449488125,
          "velocity": 0.2283464566929134
        },
        {
          "duration": 0.09677399999998215,
          "durationTicks": 96,
          "midi": 62,
          "name": "D4",
          "ticks": 205973,
          "time": 207.63365731250002,
          "velocity": 0.2283464566929134
        },
        {
          "duration": 0.09677400000001057,
          "durationTicks": 96,
          "midi": 63,
          "name": "D#4",
          "ticks": 206067,
          "time": 207.7284151875,
          "velocity": 0.2283464566929134
        },
        {
          "duration": 0.09677400000001057,
          "durationTicks": 96,
          "midi": 65,
          "name": "F4",
          "ticks": 206164,
          "time": 207.82619724999998,
          "velocity": 0.2125984251968504
        },
        {
          "duration": 0.09677400000001057,
          "durationTicks": 96,
          "midi": 62,
          "name": "D4",
          "ticks": 206353,
          "time": 208.01672106249998,
          "velocity": 0.2283464566929134
        },
        {
          "duration": 0.19354799999999273,
          "durationTicks": 192,
          "midi": 67,
          "name": "G4",
          "ticks": 206544,
          "time": 208.209261,
          "velocity": 0.2283464566929134
        },
        {
          "duration": 0.09677400000001057,
          "durationTicks": 96,
          "midi": 65,
          "name": "F4",
          "ticks": 206735,
          "time": 208.4018009375,
          "velocity": 0.2125984251968504
        },
        {
          "duration": 0.09677400000001057,
          "durationTicks": 96,
          "midi": 63,
          "name": "D#4",
          "ticks": 206925,
          "time": 208.5933328125,
          "velocity": 0.2283464566929134
        },
        {
          "duration": 0.09677400000001057,
          "durationTicks": 96,
          "midi": 62,
          "name": "D4",
          "ticks": 207114,
          "time": 208.783856625,
          "velocity": 0.2283464566929134
        },
        {
          "duration": 0.3870960000000139,
          "durationTicks": 384,
          "midi": 63,
          "name": "D#4",
          "ticks": 207306,
          "time": 208.977404625,
          "velocity": 0.2440944881889764
        },
        {
          "duration": 0.3870960000000139,
          "durationTicks": 384,
          "midi": 63,
          "name": "D#4",
          "ticks": 207700,
          "time": 209.37458124999998,
          "velocity": 0.2283464566929134
        },
        {
          "duration": 0.7741919999999993,
          "durationTicks": 768,
          "midi": 62,
          "name": "D4",
          "ticks": 208080,
          "time": 209.757645,
          "velocity": 0.23622047244094488
        },
        {
          "duration": 0.09677399999998215,
          "durationTicks": 96,
          "midi": 72,
          "name": "C5",
          "ticks": 209045,
          "time": 210.73042531250002,
          "velocity": 0.2283464566929134
        },
        {
          "duration": 0.09677400000001057,
          "durationTicks": 96,
          "midi": 74,
          "name": "D5",
          "ticks": 209139,
          "time": 210.8251831875,
          "velocity": 0.2283464566929134
        },
        {
          "duration": 0.09677400000001057,
          "durationTicks": 96,
          "midi": 75,
          "name": "D#5",
          "ticks": 209236,
          "time": 210.92296524999998,
          "velocity": 0.2125984251968504
        },
        {
          "duration": 0.09677400000001057,
          "durationTicks": 96,
          "midi": 72,
          "name": "C5",
          "ticks": 209425,
          "time": 211.11348906249998,
          "velocity": 0.2283464566929134
        },
        {
          "duration": 0.19354799999999273,
          "durationTicks": 192,
          "midi": 77,
          "name": "F5",
          "ticks": 209616,
          "time": 211.306029,
          "velocity": 0.2283464566929134
        },
        {
          "duration": 0.09677400000001057,
          "durationTicks": 96,
          "midi": 75,
          "name": "D#5",
          "ticks": 209807,
          "time": 211.4985689375,
          "velocity": 0.2125984251968504
        },
        {
          "duration": 0.09677400000001057,
          "durationTicks": 96,
          "midi": 74,
          "name": "D5",
          "ticks": 209997,
          "time": 211.6901008125,
          "velocity": 0.2283464566929134
        },
        {
          "duration": 0.09677400000001057,
          "durationTicks": 96,
          "midi": 72,
          "name": "C5",
          "ticks": 210186,
          "time": 211.880624625,
          "velocity": 0.2283464566929134
        },
        {
          "duration": 0.09677400000001057,
          "durationTicks": 96,
          "midi": 70,
          "name": "A#4",
          "ticks": 210378,
          "time": 212.074172625,
          "velocity": 0.2283464566929134
        },
        {
          "duration": 0.09677399999998215,
          "durationTicks": 96,
          "midi": 68,
          "name": "G#4",
          "ticks": 210487,
          "time": 212.1840514375,
          "velocity": 0.2283464566929134
        },
        {
          "duration": 0.09677400000001057,
          "durationTicks": 96,
          "midi": 67,
          "name": "G4",
          "ticks": 210580,
          "time": 212.27780124999998,
          "velocity": 0.2283464566929134
        },
        {
          "duration": 0.09677400000001057,
          "durationTicks": 96,
          "midi": 68,
          "name": "G#4",
          "ticks": 210674,
          "time": 212.372559125,
          "velocity": 0.2283464566929134
        },
        {
          "duration": 0.09677400000001057,
          "durationTicks": 96,
          "midi": 70,
          "name": "A#4",
          "ticks": 210771,
          "time": 212.4703411875,
          "velocity": 0.2125984251968504
        },
        {
          "duration": 0.09677400000001057,
          "durationTicks": 96,
          "midi": 68,
          "name": "G#4",
          "ticks": 210960,
          "time": 212.660865,
          "velocity": 0.2283464566929134
        },
        {
          "duration": 0.38709599999998545,
          "durationTicks": 384,
          "midi": 67,
          "name": "G4",
          "ticks": 211151,
          "time": 212.85340493750002,
          "velocity": 0.23622047244094488
        },
        {
          "duration": 0.38709599999998545,
          "durationTicks": 384,
          "midi": 63,
          "name": "D#4",
          "ticks": 211532,
          "time": 213.23747675,
          "velocity": 0.2283464566929134
        },
        {
          "duration": 0.09677400000001057,
          "durationTicks": 96,
          "midi": 62,
          "name": "D4",
          "ticks": 212116,
          "time": 213.82618524999998,
          "velocity": 0.2283464566929134
        },
        {
          "duration": 0.09677400000001057,
          "durationTicks": 96,
          "midi": 63,
          "name": "D#4",
          "ticks": 212210,
          "time": 213.920943125,
          "velocity": 0.2283464566929134
        },
        {
          "duration": 0.09677400000001057,
          "durationTicks": 96,
          "midi": 65,
          "name": "F4",
          "ticks": 212307,
          "time": 214.0187251875,
          "velocity": 0.2125984251968504
        },
        {
          "duration": 0.09677400000001057,
          "durationTicks": 96,
          "midi": 62,
          "name": "D4",
          "ticks": 212496,
          "time": 214.209249,
          "velocity": 0.2283464566929134
        },
        {
          "duration": 0.19354799999999273,
          "durationTicks": 192,
          "midi": 67,
          "name": "G4",
          "ticks": 212687,
          "time": 214.40178893750002,
          "velocity": 0.2283464566929134
        },
        {
          "duration": 0.09677400000001057,
          "durationTicks": 96,
          "midi": 65,
          "name": "F4",
          "ticks": 212878,
          "time": 214.59432887499997,
          "velocity": 0.2125984251968504
        },
        {
          "duration": 0.09677400000001057,
          "durationTicks": 96,
          "midi": 63,
          "name": "D#4",
          "ticks": 213068,
          "time": 214.78586075,
          "velocity": 0.2283464566929134
        },
        {
          "duration": 0.09677400000001057,
          "durationTicks": 96,
          "midi": 62,
          "name": "D4",
          "ticks": 213257,
          "time": 214.97638456250002,
          "velocity": 0.2283464566929134
        },
        {
          "duration": 0.09677400000001057,
          "durationTicks": 96,
          "midi": 62,
          "name": "D4",
          "ticks": 213449,
          "time": 215.1699325625,
          "velocity": 0.2440944881889764
        },
        {
          "duration": 0.09677400000001057,
          "durationTicks": 96,
          "midi": 62,
          "name": "D4",
          "ticks": 213652,
          "time": 215.37456924999998,
          "velocity": 0.2283464566929134
        },
        {
          "duration": 0.09677400000001057,
          "durationTicks": 96,
          "midi": 63,
          "name": "D#4",
          "ticks": 213746,
          "time": 215.469327125,
          "velocity": 0.2283464566929134
        },
        {
          "duration": 0.09677400000001057,
          "durationTicks": 96,
          "midi": 62,
          "name": "D4",
          "ticks": 213843,
          "time": 215.5671091875,
          "velocity": 0.2125984251968504
        },
        {
          "duration": 0.09677400000001057,
          "durationTicks": 96,
          "midi": 62,
          "name": "D4",
          "ticks": 214032,
          "time": 215.757633,
          "velocity": 0.2283464566929134
        },
        {
          "duration": 0.09677400000001057,
          "durationTicks": 96,
          "midi": 63,
          "name": "D#4",
          "ticks": 214125,
          "time": 215.8513828125,
          "velocity": 0.2283464566929134
        },
        {
          "duration": 0.09677400000001057,
          "durationTicks": 96,
          "midi": 62,
          "name": "D4",
          "ticks": 214223,
          "time": 215.9501729375,
          "velocity": 0.2125984251968504
        },
        {
          "duration": 0.09677400000001057,
          "durationTicks": 96,
          "midi": 62,
          "name": "D4",
          "ticks": 214414,
          "time": 216.14271287499997,
          "velocity": 0.2283464566929134
        },
        {
          "duration": 0.09677399999998215,
          "durationTicks": 96,
          "midi": 63,
          "name": "D#4",
          "ticks": 214507,
          "time": 216.2364626875,
          "velocity": 0.2283464566929134
        },
        {
          "duration": 0.09677400000001057,
          "durationTicks": 96,
          "midi": 62,
          "name": "D4",
          "ticks": 214604,
          "time": 216.33424475,
          "velocity": 0.2125984251968504
        },
        {
          "duration": 0.09677400000001057,
          "durationTicks": 96,
          "midi": 62,
          "name": "D4",
          "ticks": 214793,
          "time": 216.52476856250001,
          "velocity": 0.2283464566929134
        },
        {
          "duration": 0.09677400000001057,
          "durationTicks": 96,
          "midi": 63,
          "name": "D#4",
          "ticks": 214886,
          "time": 216.618518375,
          "velocity": 0.2125984251968504
        },
        {
          "duration": 0.09677400000001057,
          "durationTicks": 96,
          "midi": 62,
          "name": "D4",
          "ticks": 214985,
          "time": 216.7183165625,
          "velocity": 0.2440944881889764
        },
        {
          "duration": 0.09677399999998215,
          "durationTicks": 96,
          "midi": 63,
          "name": "D#4",
          "ticks": 215094,
          "time": 216.828195375,
          "velocity": 0.2283464566929134
        },
        {
          "duration": 0.09677400000001057,
          "durationTicks": 96,
          "midi": 62,
          "name": "D4",
          "ticks": 215187,
          "time": 216.9219451875,
          "velocity": 0.2283464566929134
        },
        {
          "duration": 0.09677400000001057,
          "durationTicks": 96,
          "midi": 63,
          "name": "D#4",
          "ticks": 215281,
          "time": 217.01670306249997,
          "velocity": 0.2283464566929134
        },
        {
          "duration": 0.09677400000001057,
          "durationTicks": 96,
          "midi": 62,
          "name": "D4",
          "ticks": 215378,
          "time": 217.11448512500002,
          "velocity": 0.2283464566929134
        },
        {
          "duration": 0.09677399999998215,
          "durationTicks": 96,
          "midi": 63,
          "name": "D#4",
          "ticks": 215475,
          "time": 217.2122671875,
          "velocity": 0.2283464566929134
        },
        {
          "duration": 0.09677399999998215,
          "durationTicks": 96,
          "midi": 62,
          "name": "D4",
          "ticks": 215567,
          "time": 217.30500893750002,
          "velocity": 0.2283464566929134
        },
        {
          "duration": 0.09677400000001057,
          "durationTicks": 96,
          "midi": 63,
          "name": "D#4",
          "ticks": 215660,
          "time": 217.39875875,
          "velocity": 0.2283464566929134
        },
        {
          "duration": 0.09677400000001057,
          "durationTicks": 96,
          "midi": 62,
          "name": "D4",
          "ticks": 215758,
          "time": 217.49754887499998,
          "velocity": 0.23622047244094488
        },
        {
          "duration": 0.09677400000001057,
          "durationTicks": 96,
          "midi": 63,
          "name": "D#4",
          "ticks": 215857,
          "time": 217.59734706249998,
          "velocity": 0.2283464566929134
        },
        {
          "duration": 0.09677400000001057,
          "durationTicks": 96,
          "midi": 62,
          "name": "D4",
          "ticks": 215949,
          "time": 217.6900888125,
          "velocity": 0.2283464566929134
        },
        {
          "duration": 0.09677400000001057,
          "durationTicks": 96,
          "midi": 63,
          "name": "D#4",
          "ticks": 216042,
          "time": 217.783838625,
          "velocity": 0.2283464566929134
        },
        {
          "duration": 0.09677400000001057,
          "durationTicks": 96,
          "midi": 62,
          "name": "D4",
          "ticks": 216139,
          "time": 217.88162068749998,
          "velocity": 0.2283464566929134
        },
        {
          "duration": 0.09677400000001057,
          "durationTicks": 96,
          "midi": 63,
          "name": "D#4",
          "ticks": 216235,
          "time": 217.97839468749999,
          "velocity": 0.2283464566929134
        },
        {
          "duration": 0.09677400000001057,
          "durationTicks": 96,
          "midi": 62,
          "name": "D4",
          "ticks": 216328,
          "time": 218.07214449999998,
          "velocity": 0.2283464566929134
        },
        {
          "duration": 0.09677400000001057,
          "durationTicks": 96,
          "midi": 63,
          "name": "D#4",
          "ticks": 216421,
          "time": 218.16589431249997,
          "velocity": 0.2283464566929134
        },
        {
          "duration": 0.09677400000001057,
          "durationTicks": 96,
          "midi": 67,
          "name": "G4",
          "ticks": 216520,
          "time": 218.26569249999997,
          "velocity": 0.2440944881889764
        },
        {
          "duration": 0.09677400000001057,
          "durationTicks": 96,
          "midi": 68,
          "name": "G#4",
          "ticks": 216629,
          "time": 218.3755713125,
          "velocity": 0.2283464566929134
        },
        {
          "duration": 0.09677399999998215,
          "durationTicks": 96,
          "midi": 67,
          "name": "G4",
          "ticks": 216722,
          "time": 218.46932112500002,
          "velocity": 0.2283464566929134
        },
        {
          "duration": 0.09677400000001057,
          "durationTicks": 96,
          "midi": 68,
          "name": "G#4",
          "ticks": 216816,
          "time": 218.564079,
          "velocity": 0.2283464566929134
        },
        {
          "duration": 0.09677400000001057,
          "durationTicks": 96,
          "midi": 67,
          "name": "G4",
          "ticks": 216913,
          "time": 218.66186106249998,
          "velocity": 0.2283464566929134
        },
        {
          "duration": 0.09677399999998215,
          "durationTicks": 96,
          "midi": 68,
          "name": "G#4",
          "ticks": 217010,
          "time": 218.75964312500003,
          "velocity": 0.2283464566929134
        },
        {
          "duration": 0.09677400000001057,
          "durationTicks": 96,
          "midi": 67,
          "name": "G4",
          "ticks": 217102,
          "time": 218.85238487499998,
          "velocity": 0.2283464566929134
        },
        {
          "duration": 0.09677400000001057,
          "durationTicks": 96,
          "midi": 68,
          "name": "G#4",
          "ticks": 217195,
          "time": 218.94613468749998,
          "velocity": 0.2283464566929134
        },
        {
          "duration": 0.09677400000001057,
          "durationTicks": 96,
          "midi": 67,
          "name": "G4",
          "ticks": 217293,
          "time": 219.0449248125,
          "velocity": 0.2283464566929134
        },
        {
          "duration": 0.09677400000001057,
          "durationTicks": 96,
          "midi": 69,
          "name": "A4",
          "ticks": 217392,
          "time": 219.144723,
          "velocity": 0.2283464566929134
        },
        {
          "duration": 0.09677400000001057,
          "durationTicks": 96,
          "midi": 71,
          "name": "B4",
          "ticks": 217484,
          "time": 219.23746475000002,
          "velocity": 0.2283464566929134
        },
        {
          "duration": 0.09677400000001057,
          "durationTicks": 96,
          "midi": 72,
          "name": "C5",
          "ticks": 217577,
          "time": 219.3312145625,
          "velocity": 0.2283464566929134
        },
        {
          "duration": 0.09677400000001057,
          "durationTicks": 96,
          "midi": 74,
          "name": "D5",
          "ticks": 217674,
          "time": 219.428996625,
          "velocity": 0.2283464566929134
        },
        {
          "duration": 0.09677399999998215,
          "durationTicks": 96,
          "midi": 75,
          "name": "D#5",
          "ticks": 217770,
          "time": 219.525770625,
          "velocity": 0.2283464566929134
        },
        {
          "duration": 0.09677400000001057,
          "durationTicks": 96,
          "midi": 77,
          "name": "F5",
          "ticks": 217863,
          "time": 219.6195204375,
          "velocity": 0.2283464566929134
        },
        {
          "duration": 0.09677400000001057,
          "durationTicks": 96,
          "midi": 79,
          "name": "G5",
          "ticks": 217956,
          "time": 219.71327025,
          "velocity": 0.2125984251968504
        },
        {
          "duration": 0.09677400000001057,
          "durationTicks": 96,
          "midi": 83,
          "name": "B5",
          "ticks": 218053,
          "time": 219.81105231249998,
          "velocity": 0.2283464566929134
        },
        {
          "duration": 0.2903220000000033,
          "durationTicks": 288,
          "midi": 84,
          "name": "C6",
          "ticks": 218131,
          "time": 219.88968118749997,
          "velocity": 0.2125984251968504
        },
        {
          "duration": 0.2903220000000033,
          "durationTicks": 288,
          "midi": 84,
          "name": "C6",
          "ticks": 218449,
          "time": 220.21024506249998,
          "velocity": 0.2283464566929134
        },
        {
          "duration": 0.09677400000001057,
          "durationTicks": 96,
          "midi": 82,
          "name": "A#5",
          "ticks": 218731,
          "time": 220.49451868749998,
          "velocity": 0.2283464566929134
        },
        {
          "duration": 0.09677400000001057,
          "durationTicks": 96,
          "midi": 84,
          "name": "C6",
          "ticks": 218829,
          "time": 220.5933088125,
          "velocity": 0.2125984251968504
        },
        {
          "duration": 0.09677400000001057,
          "durationTicks": 96,
          "midi": 82,
          "name": "A#5",
          "ticks": 219020,
          "time": 220.78584875,
          "velocity": 0.2283464566929134
        },
        {
          "duration": 0.09677400000001057,
          "durationTicks": 96,
          "midi": 80,
          "name": "G#5",
          "ticks": 219210,
          "time": 220.977380625,
          "velocity": 0.2283464566929134
        },
        {
          "duration": 0.09677400000001057,
          "durationTicks": 96,
          "midi": 79,
          "name": "G5",
          "ticks": 219399,
          "time": 221.1679044375,
          "velocity": 0.2283464566929134
        },
        {
          "duration": 0.09677400000001057,
          "durationTicks": 96,
          "midi": 82,
          "name": "A#5",
          "ticks": 219591,
          "time": 221.3614524375,
          "velocity": 0.2283464566929134
        },
        {
          "duration": 0.09677399999998215,
          "durationTicks": 96,
          "midi": 80,
          "name": "G#5",
          "ticks": 219700,
          "time": 221.47133125,
          "velocity": 0.2283464566929134
        },
        {
          "duration": 0.09677400000001057,
          "durationTicks": 96,
          "midi": 79,
          "name": "G5",
          "ticks": 219793,
          "time": 221.56508106249998,
          "velocity": 0.2283464566929134
        },
        {
          "duration": 0.09677400000001057,
          "durationTicks": 96,
          "midi": 77,
          "name": "F5",
          "ticks": 219887,
          "time": 221.6598389375,
          "velocity": 0.2283464566929134
        },
        {
          "duration": 0.09677400000001057,
          "durationTicks": 96,
          "midi": 75,
          "name": "D#5",
          "ticks": 219984,
          "time": 221.757621,
          "velocity": 0.2125984251968504
        },
        {
          "duration": 0.09677399999998215,
          "durationTicks": 96,
          "midi": 77,
          "name": "F5",
          "ticks": 220173,
          "time": 221.9481448125,
          "velocity": 0.2283464566929134
        },
        {
          "duration": 0.7741919999999993,
          "durationTicks": 768,
          "midi": 79,
          "name": "G5",
          "ticks": 220364,
          "time": 222.14068475000002,
          "velocity": 0.23622047244094488
        },
        {
          "duration": 0.09677399999998215,
          "durationTicks": 96,
          "midi": 81,
          "name": "A5",
          "ticks": 221124,
          "time": 222.90681225,
          "velocity": 0.2283464566929134
        },
        {
          "duration": 0.2903220000000033,
          "durationTicks": 288,
          "midi": 82,
          "name": "A#5",
          "ticks": 221200,
          "time": 222.98342499999998,
          "velocity": 0.2125984251968504
        },
        {
          "duration": 0.2903220000000033,
          "durationTicks": 288,
          "midi": 82,
          "name": "A#5",
          "ticks": 221520,
          "time": 223.306005,
          "velocity": 0.2283464566929134
        },
        {
          "duration": 0.09677400000001057,
          "durationTicks": 96,
          "midi": 80,
          "name": "G#5",
          "ticks": 221802,
          "time": 223.590278625,
          "velocity": 0.2283464566929134
        },
        {
          "duration": 0.09677399999998215,
          "durationTicks": 96,
          "midi": 79,
          "name": "G5",
          "ticks": 221900,
          "time": 223.68906875000002,
          "velocity": 0.2125984251968504
        },
        {
          "duration": 0.09677400000001057,
          "durationTicks": 96,
          "midi": 77,
          "name": "F5",
          "ticks": 222091,
          "time": 223.88160868749998,
          "velocity": 0.2283464566929134
        },
        {
          "duration": 0.09677400000001057,
          "durationTicks": 96,
          "midi": 75,
          "name": "D#5",
          "ticks": 222281,
          "time": 224.07314056250001,
          "velocity": 0.2283464566929134
        },
        {
          "duration": 0.09677399999998215,
          "durationTicks": 96,
          "midi": 77,
          "name": "F5",
          "ticks": 222470,
          "time": 224.26366437500002,
          "velocity": 0.2283464566929134
        },
        {
          "duration": 0.09677400000001057,
          "durationTicks": 96,
          "midi": 79,
          "name": "G5",
          "ticks": 222662,
          "time": 224.457212375,
          "velocity": 0.2283464566929134
        },
        {
          "duration": 0.09677399999998215,
          "durationTicks": 96,
          "midi": 75,
          "name": "D#5",
          "ticks": 222771,
          "time": 224.5670911875,
          "velocity": 0.2283464566929134
        },
        {
          "duration": 0.09677399999998215,
          "durationTicks": 96,
          "midi": 72,
          "name": "C5",
          "ticks": 222864,
          "time": 224.660841,
          "velocity": 0.2283464566929134
        },
        {
          "duration": 0.09677400000001057,
          "durationTicks": 96,
          "midi": 75,
          "name": "D#5",
          "ticks": 222958,
          "time": 224.75559887499998,
          "velocity": 0.2283464566929134
        },
        {
          "duration": 0.09677399999998215,
          "durationTicks": 96,
          "midi": 79,
          "name": "G5",
          "ticks": 223055,
          "time": 224.85338093750002,
          "velocity": 0.2125984251968504
        },
        {
          "duration": 0.09677399999998215,
          "durationTicks": 96,
          "midi": 77,
          "name": "F5",
          "ticks": 223244,
          "time": 225.04390475000002,
          "velocity": 0.2283464566929134
        },
        {
          "duration": 0.3870960000000139,
          "durationTicks": 384,
          "midi": 75,
          "name": "D#5",
          "ticks": 223435,
          "time": 225.23644468749998,
          "velocity": 0.23622047244094488
        },
        {
          "duration": 0.19354799999999273,
          "durationTicks": 192,
          "midi": 74,
          "name": "D5",
          "ticks": 223816,
          "time": 225.62051649999998,
          "velocity": 0.2283464566929134
        },
        {
          "duration": 0.09778206250001631,
          "durationTicks": 97,
          "midi": 72,
          "name": "C5",
          "ticks": 224005,
          "time": 225.81104031249998,
          "velocity": 0.2283464566929134
        },
        {
          "duration": 0.09778206249998789,
          "durationTicks": 97,
          "midi": 75,
          "name": "D#5",
          "ticks": 224067,
          "time": 225.8735401875,
          "velocity": 0.2283464566929134
        },
        {
          "duration": 0.09778206249998789,
          "durationTicks": 97,
          "midi": 79,
          "name": "G5",
          "ticks": 224130,
          "time": 225.937048125,
          "velocity": 0.2283464566929134
        },
        {
          "duration": 0.3870960000000139,
          "durationTicks": 384,
          "midi": 84,
          "name": "C6",
          "ticks": 224199,
          "time": 226.0066044375,
          "velocity": 0.2125984251968504
        },
        {
          "duration": 0.2903220000000033,
          "durationTicks": 288,
          "midi": 84,
          "name": "C6",
          "ticks": 224593,
          "time": 226.40378106249997,
          "velocity": 0.2283464566929134
        },
        {
          "duration": 0.09677400000001057,
          "durationTicks": 96,
          "midi": 82,
          "name": "A#5",
          "ticks": 224875,
          "time": 226.68805468749997,
          "velocity": 0.2283464566929134
        },
        {
          "duration": 0.09677400000001057,
          "durationTicks": 96,
          "midi": 84,
          "name": "C6",
          "ticks": 224973,
          "time": 226.7868448125,
          "velocity": 0.2125984251968504
        },
        {
          "duration": 0.09677400000001057,
          "durationTicks": 96,
          "midi": 82,
          "name": "A#5",
          "ticks": 225164,
          "time": 226.97938475,
          "velocity": 0.2283464566929134
        },
        {
          "duration": 0.09677400000001057,
          "durationTicks": 96,
          "midi": 80,
          "name": "G#5",
          "ticks": 225354,
          "time": 227.170916625,
          "velocity": 0.2283464566929134
        },
        {
          "duration": 0.09677400000001057,
          "durationTicks": 96,
          "midi": 79,
          "name": "G5",
          "ticks": 225543,
          "time": 227.3614404375,
          "velocity": 0.2283464566929134
        },
        {
          "duration": 0.09677400000001057,
          "durationTicks": 96,
          "midi": 82,
          "name": "A#5",
          "ticks": 225735,
          "time": 227.5549884375,
          "velocity": 0.2283464566929134
        },
        {
          "duration": 0.09677400000001057,
          "durationTicks": 96,
          "midi": 80,
          "name": "G#5",
          "ticks": 225844,
          "time": 227.66486725,
          "velocity": 0.2283464566929134
        },
        {
          "duration": 0.09677400000001057,
          "durationTicks": 96,
          "midi": 79,
          "name": "G5",
          "ticks": 225937,
          "time": 227.75861706249998,
          "velocity": 0.2283464566929134
        },
        {
          "duration": 0.09677400000001057,
          "durationTicks": 96,
          "midi": 77,
          "name": "F5",
          "ticks": 226031,
          "time": 227.8533749375,
          "velocity": 0.2283464566929134
        },
        {
          "duration": 0.09677400000001057,
          "durationTicks": 96,
          "midi": 75,
          "name": "D#5",
          "ticks": 226128,
          "time": 227.951157,
          "velocity": 0.2125984251968504
        },
        {
          "duration": 0.09677400000001057,
          "durationTicks": 96,
          "midi": 77,
          "name": "F5",
          "ticks": 226317,
          "time": 228.1416808125,
          "velocity": 0.2283464566929134
        },
        {
          "duration": 0.7741919999999993,
          "durationTicks": 768,
          "midi": 79,
          "name": "G5",
          "ticks": 226508,
          "time": 228.33422075000001,
          "velocity": 0.23622047244094488
        },
        {
          "duration": 0.3870960000000139,
          "durationTicks": 384,
          "midi": 82,
          "name": "A#5",
          "ticks": 227270,
          "time": 229.102364375,
          "velocity": 0.2440944881889764
        },
        {
          "duration": 0.2903220000000033,
          "durationTicks": 288,
          "midi": 82,
          "name": "A#5",
          "ticks": 227664,
          "time": 229.499541,
          "velocity": 0.2283464566929134
        },
        {
          "duration": 0.09677400000001057,
          "durationTicks": 96,
          "midi": 80,
          "name": "G#5",
          "ticks": 227946,
          "time": 229.783814625,
          "velocity": 0.2283464566929134
        },
        {
          "duration": 0.09677400000001057,
          "durationTicks": 96,
          "midi": 79,
          "name": "G5",
          "ticks": 228044,
          "time": 229.88260475,
          "velocity": 0.2125984251968504
        },
        {
          "duration": 0.09677400000001057,
          "durationTicks": 96,
          "midi": 77,
          "name": "F5",
          "ticks": 228235,
          "time": 230.07514468749997,
          "velocity": 0.2283464566929134
        },
        {
          "duration": 0.09677400000001057,
          "durationTicks": 96,
          "midi": 75,
          "name": "D#5",
          "ticks": 228425,
          "time": 230.2666765625,
          "velocity": 0.2283464566929134
        },
        {
          "duration": 0.09677400000001057,
          "durationTicks": 96,
          "midi": 77,
          "name": "F5",
          "ticks": 228614,
          "time": 230.457200375,
          "velocity": 0.2283464566929134
        },
        {
          "duration": 0.09677400000001057,
          "durationTicks": 96,
          "midi": 79,
          "name": "G5",
          "ticks": 228806,
          "time": 230.650748375,
          "velocity": 0.2283464566929134
        },
        {
          "duration": 0.09677399999998215,
          "durationTicks": 96,
          "midi": 75,
          "name": "D#5",
          "ticks": 228915,
          "time": 230.7606271875,
          "velocity": 0.2283464566929134
        },
        {
          "duration": 0.09677400000001057,
          "durationTicks": 96,
          "midi": 72,
          "name": "C5",
          "ticks": 229008,
          "time": 230.854377,
          "velocity": 0.2283464566929134
        },
        {
          "duration": 0.09677400000001057,
          "durationTicks": 96,
          "midi": 75,
          "name": "D#5",
          "ticks": 229102,
          "time": 230.94913487499997,
          "velocity": 0.2283464566929134
        },
        {
          "duration": 0.09677400000001057,
          "durationTicks": 96,
          "midi": 79,
          "name": "G5",
          "ticks": 229199,
          "time": 231.04691693750001,
          "velocity": 0.2125984251968504
        },
        {
          "duration": 0.09677399999998215,
          "durationTicks": 96,
          "midi": 77,
          "name": "F5",
          "ticks": 229388,
          "time": 231.23744075000002,
          "velocity": 0.2283464566929134
        },
        {
          "duration": 0.3870960000000139,
          "durationTicks": 384,
          "midi": 75,
          "name": "D#5",
          "ticks": 229579,
          "time": 231.42998068749998,
          "velocity": 0.23622047244094488
        },
        {
          "duration": 0.3870960000000139,
          "durationTicks": 384,
          "midi": 74,
          "name": "D5",
          "ticks": 229960,
          "time": 231.81405249999997,
          "velocity": 0.2283464566929134
        },
        {
          "duration": 0.09677400000001057,
          "durationTicks": 96,
          "midi": 72,
          "name": "C5",
          "ticks": 230544,
          "time": 232.402761,
          "velocity": 0.2283464566929134
        },
        {
          "duration": 0.09677400000001057,
          "durationTicks": 96,
          "midi": 74,
          "name": "D5",
          "ticks": 230638,
          "time": 232.49751887499997,
          "velocity": 0.2283464566929134
        },
        {
          "duration": 0.09677400000001057,
          "durationTicks": 96,
          "midi": 75,
          "name": "D#5",
          "ticks": 230735,
          "time": 232.5953009375,
          "velocity": 0.2125984251968504
        },
        {
          "duration": 0.09677399999998215,
          "durationTicks": 96,
          "midi": 72,
          "name": "C5",
          "ticks": 230924,
          "time": 232.78582475000002,
          "velocity": 0.2283464566929134
        },
        {
          "duration": 0.19354799999999273,
          "durationTicks": 192,
          "midi": 77,
          "name": "F5",
          "ticks": 231115,
          "time": 232.97836468749998,
          "velocity": 0.2283464566929134
        },
        {
          "duration": 0.09677400000001057,
          "durationTicks": 96,
          "midi": 75,
          "name": "D#5",
          "ticks": 231306,
          "time": 233.170904625,
          "velocity": 0.2125984251968504
        },
        {
          "duration": 0.09677400000001057,
          "durationTicks": 96,
          "midi": 74,
          "name": "D5",
          "ticks": 231496,
          "time": 233.36243649999997,
          "velocity": 0.2283464566929134
        },
        {
          "duration": 0.09677400000001057,
          "durationTicks": 96,
          "midi": 72,
          "name": "C5",
          "ticks": 231685,
          "time": 233.55296031249998,
          "velocity": 0.2283464566929134
        },
        {
          "duration": 0.2903220000000033,
          "durationTicks": 288,
          "midi": 70,
          "name": "A#4",
          "ticks": 231877,
          "time": 233.74650831249997,
          "velocity": 0.2440944881889764
        },
        {
          "duration": 0.09677399999998215,
          "durationTicks": 96,
          "midi": 68,
          "name": "G#4",
          "ticks": 232174,
          "time": 234.045902875,
          "velocity": 0.2283464566929134
        },
        {
          "duration": 0.09677400000001057,
          "durationTicks": 96,
          "midi": 67,
          "name": "G4",
          "ticks": 232271,
          "time": 234.1436849375,
          "velocity": 0.2125984251968504
        },
        {
          "duration": 0.19354799999999273,
          "durationTicks": 192,
          "midi": 68,
          "name": "G#4",
          "ticks": 232460,
          "time": 234.33420875000002,
          "velocity": 0.2283464566929134
        },
        {
          "duration": 0.3870960000000139,
          "durationTicks": 384,
          "midi": 70,
          "name": "A#4",
          "ticks": 232651,
          "time": 234.52674868749997,
          "velocity": 0.23622047244094488
        },
        {
          "duration": 0.3870960000000139,
          "durationTicks": 384,
          "midi": 65,
          "name": "F4",
          "ticks": 233032,
          "time": 234.91082049999997,
          "velocity": 0.2283464566929134
        },
        {
          "duration": 0.09677400000001057,
          "durationTicks": 96,
          "midi": 62,
          "name": "D4",
          "ticks": 233616,
          "time": 235.499529,
          "velocity": 0.2283464566929134
        },
        {
          "duration": 0.09677399999998215,
          "durationTicks": 96,
          "midi": 63,
          "name": "D#4",
          "ticks": 233710,
          "time": 235.594286875,
          "velocity": 0.2283464566929134
        },
        {
          "duration": 0.09677400000001057,
          "durationTicks": 96,
          "midi": 65,
          "name": "F4",
          "ticks": 233807,
          "time": 235.6920689375,
          "velocity": 0.2125984251968504
        },
        {
          "duration": 0.09677400000001057,
          "durationTicks": 96,
          "midi": 62,
          "name": "D4",
          "ticks": 233996,
          "time": 235.88259275000001,
          "velocity": 0.2283464566929134
        },
        {
          "duration": 0.19354800000002115,
          "durationTicks": 192,
          "midi": 67,
          "name": "G4",
          "ticks": 234187,
          "time": 236.07513268749997,
          "velocity": 0.2283464566929134
        },
        {
          "duration": 0.09677400000001057,
          "durationTicks": 96,
          "midi": 65,
          "name": "F4",
          "ticks": 234378,
          "time": 236.267672625,
          "velocity": 0.2125984251968504
        },
        {
          "duration": 0.09677400000001057,
          "durationTicks": 96,
          "midi": 63,
          "name": "D#4",
          "ticks": 234568,
          "time": 236.45920449999997,
          "velocity": 0.2283464566929134
        },
        {
          "duration": 0.09677400000001057,
          "durationTicks": 96,
          "midi": 62,
          "name": "D4",
          "ticks": 234757,
          "time": 236.64972831249997,
          "velocity": 0.2283464566929134
        },
        {
          "duration": 0.38709599999998545,
          "durationTicks": 384,
          "midi": 63,
          "name": "D#4",
          "ticks": 234949,
          "time": 236.8432763125,
          "velocity": 0.2440944881889764
        },
        {
          "duration": 0.3870960000000139,
          "durationTicks": 384,
          "midi": 63,
          "name": "D#4",
          "ticks": 235343,
          "time": 237.2404529375,
          "velocity": 0.2283464566929134
        },
        {
          "duration": 0.19354800000002115,
          "durationTicks": 192,
          "midi": 62,
          "name": "D4",
          "ticks": 235723,
          "time": 237.62351668749997,
          "velocity": 0.23622047244094488
        },
        {
          "duration": 0.09677400000001057,
          "durationTicks": 96,
          "midi": 60,
          "name": "C4",
          "ticks": 235911,
          "time": 237.8130324375,
          "velocity": 0.2283464566929134
        },
        {
          "duration": 0.09677399999998215,
          "durationTicks": 96,
          "midi": 62,
          "name": "D4",
          "ticks": 236007,
          "time": 237.9098064375,
          "velocity": 0.2283464566929134
        },
        {
          "duration": 0.09677400000001057,
          "durationTicks": 96,
          "midi": 63,
          "name": "D#4",
          "ticks": 236104,
          "time": 238.00758849999997,
          "velocity": 0.2283464566929134
        },
        {
          "duration": 0.09677400000001057,
          "durationTicks": 96,
          "midi": 67,
          "name": "G4",
          "ticks": 236200,
          "time": 238.10436249999998,
          "velocity": 0.2283464566929134
        },
        {
          "duration": 0.09677400000001057,
          "durationTicks": 96,
          "midi": 72,
          "name": "C5",
          "ticks": 236293,
          "time": 238.19811231249997,
          "velocity": 0.2283464566929134
        },
        {
          "duration": 0.09677399999998215,
          "durationTicks": 96,
          "midi": 74,
          "name": "D5",
          "ticks": 236386,
          "time": 238.291862125,
          "velocity": 0.2283464566929134
        },
        {
          "duration": 0.09677399999998215,
          "durationTicks": 96,
          "midi": 75,
          "name": "D#5",
          "ticks": 236485,
          "time": 238.3916603125,
          "velocity": 0.2125984251968504
        },
        {
          "duration": 0.09677400000001057,
          "durationTicks": 96,
          "midi": 72,
          "name": "C5",
          "ticks": 236688,
          "time": 238.596297,
          "velocity": 0.2283464566929134
        },
        {
          "duration": 0.09677399999998215,
          "durationTicks": 96,
          "midi": 74,
          "name": "D5",
          "ticks": 236782,
          "time": 238.691054875,
          "velocity": 0.2283464566929134
        },
        {
          "duration": 0.09677400000001057,
          "durationTicks": 96,
          "midi": 75,
          "name": "D#5",
          "ticks": 236879,
          "time": 238.7888369375,
          "velocity": 0.2125984251968504
        },
        {
          "duration": 0.09677400000001057,
          "durationTicks": 96,
          "midi": 72,
          "name": "C5",
          "ticks": 237068,
          "time": 238.97936075,
          "velocity": 0.2283464566929134
        },
        {
          "duration": 0.19354800000002115,
          "durationTicks": 192,
          "midi": 77,
          "name": "F5",
          "ticks": 237259,
          "time": 239.17190068749997,
          "velocity": 0.2283464566929134
        },
        {
          "duration": 0.09677400000001057,
          "durationTicks": 96,
          "midi": 75,
          "name": "D#5",
          "ticks": 237450,
          "time": 239.364440625,
          "velocity": 0.2125984251968504
        },
        {
          "duration": 0.09677399999998215,
          "durationTicks": 96,
          "midi": 74,
          "name": "D5",
          "ticks": 237640,
          "time": 239.5559725,
          "velocity": 0.2283464566929134
        },
        {
          "duration": 0.09677400000001057,
          "durationTicks": 96,
          "midi": 72,
          "name": "C5",
          "ticks": 237829,
          "time": 239.74649631249997,
          "velocity": 0.2283464566929134
        },
        {
          "duration": 0.09677399999998215,
          "durationTicks": 96,
          "midi": 70,
          "name": "A#4",
          "ticks": 238021,
          "time": 239.9400443125,
          "velocity": 0.2283464566929134
        },
        {
          "duration": 0.09677399999998215,
          "durationTicks": 96,
          "midi": 68,
          "name": "G#4",
          "ticks": 238130,
          "time": 240.04992312500002,
          "velocity": 0.2283464566929134
        },
        {
          "duration": 0.09677400000001057,
          "durationTicks": 96,
          "midi": 67,
          "name": "G4",
          "ticks": 238223,
          "time": 240.1436729375,
          "velocity": 0.2283464566929134
        },
        {
          "duration": 0.09677400000001057,
          "durationTicks": 96,
          "midi": 68,
          "name": "G#4",
          "ticks": 238317,
          "time": 240.23843081249998,
          "velocity": 0.2283464566929134
        },
        {
          "duration": 0.09677400000001057,
          "durationTicks": 96,
          "midi": 70,
          "name": "A#4",
          "ticks": 238414,
          "time": 240.33621287499997,
          "velocity": 0.2125984251968504
        },
        {
          "duration": 0.09677400000001057,
          "durationTicks": 96,
          "midi": 68,
          "name": "G#4",
          "ticks": 238603,
          "time": 240.52673668749998,
          "velocity": 0.2283464566929134
        },
        {
          "duration": 0.3870960000000139,
          "durationTicks": 384,
          "midi": 67,
          "name": "G4",
          "ticks": 238794,
          "time": 240.719276625,
          "velocity": 0.23622047244094488
        },
        {
          "duration": 0.3870960000000139,
          "durationTicks": 384,
          "midi": 63,
          "name": "D#4",
          "ticks": 239175,
          "time": 241.1033484375,
          "velocity": 0.2283464566929134
        },
        {
          "duration": 0.09677400000001057,
          "durationTicks": 96,
          "midi": 62,
          "name": "D4",
          "ticks": 239759,
          "time": 241.6920569375,
          "velocity": 0.2283464566929134
        },
        {
          "duration": 0.09677400000001057,
          "durationTicks": 96,
          "midi": 63,
          "name": "D#4",
          "ticks": 239853,
          "time": 241.78681481249998,
          "velocity": 0.2283464566929134
        },
        {
          "duration": 0.09677400000001057,
          "durationTicks": 96,
          "midi": 65,
          "name": "F4",
          "ticks": 239950,
          "time": 241.88459687499997,
          "velocity": 0.2125984251968504
        },
        {
          "duration": 0.09677400000001057,
          "durationTicks": 96,
          "midi": 62,
          "name": "D4",
          "ticks": 240139,
          "time": 242.07512068749998,
          "velocity": 0.2283464566929134
        },
        {
          "duration": 0.19354799999999273,
          "durationTicks": 192,
          "midi": 67,
          "name": "G4",
          "ticks": 240330,
          "time": 242.267660625,
          "velocity": 0.2283464566929134
        },
        {
          "duration": 0.09677400000001057,
          "durationTicks": 96,
          "midi": 65,
          "name": "F4",
          "ticks": 240521,
          "time": 242.4602005625,
          "velocity": 0.2125984251968504
        },
        {
          "duration": 0.09677400000001057,
          "durationTicks": 96,
          "midi": 63,
          "name": "D#4",
          "ticks": 240711,
          "time": 242.6517324375,
          "velocity": 0.2283464566929134
        },
        {
          "duration": 0.09677400000001057,
          "durationTicks": 96,
          "midi": 62,
          "name": "D4",
          "ticks": 240900,
          "time": 242.84225625,
          "velocity": 0.2283464566929134
        },
        {
          "duration": 0.19354800000002115,
          "durationTicks": 192,
          "midi": 67,
          "name": "G4",
          "ticks": 241092,
          "time": 243.03580424999998,
          "velocity": 0.3228346456692913
        },
        {
          "duration": 0.19354800000002115,
          "durationTicks": 192,
          "midi": 68,
          "name": "G#4",
          "ticks": 241486,
          "time": 243.43298087499997,
          "velocity": 0.30708661417322836
        },
        {
          "duration": 0.19354800000002115,
          "durationTicks": 192,
          "midi": 67,
          "name": "G4",
          "ticks": 241866,
          "time": 243.816044625,
          "velocity": 0.31496062992125984
        },
        {
          "duration": 0.19354800000002115,
          "durationTicks": 192,
          "midi": 68,
          "name": "G#4",
          "ticks": 242247,
          "time": 244.2001164375,
          "velocity": 0.30708661417322836
        }
      ],
      "endOfTrackTicks": 242439
    },
    {
      "channel": 1,
      "controlChanges": {},
      "pitchBends": [],
      "instrument": {
        "family": "strings",
        "number": 42,
        "name": "cello"
      },
      "name": "Cello (Classic)",
      "notes": [
        {
          "duration": 0.96774,
          "durationTicks": 960,
          "midi": 50,
          "name": "D3",
          "ticks": 0,
          "time": 0,
          "velocity": 0.23622047244094488
        },
        {
          "duration": 0.96774,
          "durationTicks": 960,
          "midi": 43,
          "name": "G2",
          "ticks": 0,
          "time": 0,
          "velocity": 0.23622047244094488
        },
        {
          "duration": 0.96774,
          "durationTicks": 960,
          "midi": 55,
          "name": "G3",
          "ticks": 0,
          "time": 0,
          "velocity": 0.2755905511811024
        },
        {
          "duration": 0.09677400000000003,
          "durationTicks": 96,
          "midi": 43,
          "name": "G2",
          "ticks": 963,
          "time": 0.9707641875,
          "velocity": 0.2283464566929134
        },
        {
          "duration": 0.09677400000000014,
          "durationTicks": 96,
          "midi": 45,
          "name": "A2",
          "ticks": 1153,
          "time": 1.1622960624999998,
          "velocity": 0.2283464566929134
        },
        {
          "duration": 0.09677399999999992,
          "durationTicks": 96,
          "midi": 47,
          "name": "B2",
          "ticks": 1342,
          "time": 1.352819875,
          "velocity": 0.2283464566929134
        },
        {
          "duration": 0.09677400000000036,
          "durationTicks": 96,
          "midi": 48,
          "name": "C3",
          "ticks": 1534,
          "time": 1.5463678749999998,
          "velocity": 0.2440944881889764
        },
        {
          "duration": 0.09677400000000014,
          "durationTicks": 96,
          "midi": 51,
          "name": "D#3",
          "ticks": 1737,
          "time": 1.7510045625,
          "velocity": 0.2047244094488189
        },
        {
          "duration": 0.09677400000000014,
          "durationTicks": 96,
          "midi": 55,
          "name": "G3",
          "ticks": 1737,
          "time": 1.7510045625,
          "velocity": 0.2440944881889764
        },
        {
          "duration": 0.09677399999999992,
          "durationTicks": 96,
          "midi": 43,
          "name": "G2",
          "ticks": 1928,
          "time": 1.9435444999999998,
          "velocity": 0.2283464566929134
        },
        {
          "duration": 0.09677399999999992,
          "durationTicks": 96,
          "midi": 51,
          "name": "D#3",
          "ticks": 2117,
          "time": 2.1340683124999997,
          "velocity": 0.2047244094488189
        },
        {
          "duration": 0.09677399999999992,
          "durationTicks": 96,
          "midi": 55,
          "name": "G3",
          "ticks": 2117,
          "time": 2.1340683124999997,
          "velocity": 0.2440944881889764
        },
        {
          "duration": 0.09677399999999992,
          "durationTicks": 96,
          "midi": 48,
          "name": "C3",
          "ticks": 2308,
          "time": 2.32660825,
          "velocity": 0.23622047244094488
        },
        {
          "duration": 0.09677399999999992,
          "durationTicks": 96,
          "midi": 51,
          "name": "D#3",
          "ticks": 2499,
          "time": 2.5191481875,
          "velocity": 0.2047244094488189
        },
        {
          "duration": 0.09677399999999992,
          "durationTicks": 96,
          "midi": 55,
          "name": "G3",
          "ticks": 2499,
          "time": 2.5191481875,
          "velocity": 0.2440944881889764
        },
        {
          "duration": 0.09677399999999992,
          "durationTicks": 96,
          "midi": 43,
          "name": "G2",
          "ticks": 2689,
          "time": 2.7106800625000003,
          "velocity": 0.2283464566929134
        },
        {
          "duration": 0.09677399999999992,
          "durationTicks": 96,
          "midi": 51,
          "name": "D#3",
          "ticks": 2878,
          "time": 2.901203875,
          "velocity": 0.2047244094488189
        },
        {
          "duration": 0.09677399999999992,
          "durationTicks": 96,
          "midi": 55,
          "name": "G3",
          "ticks": 2878,
          "time": 2.901203875,
          "velocity": 0.2440944881889764
        },
        {
          "duration": 0.09677399999999992,
          "durationTicks": 96,
          "midi": 48,
          "name": "C3",
          "ticks": 3070,
          "time": 3.094751875,
          "velocity": 0.2440944881889764
        },
        {
          "duration": 0.09677399999999992,
          "durationTicks": 96,
          "midi": 51,
          "name": "D#3",
          "ticks": 3273,
          "time": 3.2993885625,
          "velocity": 0.2047244094488189
        },
        {
          "duration": 0.09677399999999992,
          "durationTicks": 96,
          "midi": 55,
          "name": "G3",
          "ticks": 3273,
          "time": 3.2993885625,
          "velocity": 0.2440944881889764
        },
        {
          "duration": 0.09677399999999992,
          "durationTicks": 96,
          "midi": 43,
          "name": "G2",
          "ticks": 3464,
          "time": 3.4919285,
          "velocity": 0.2283464566929134
        },
        {
          "duration": 0.09677399999999992,
          "durationTicks": 96,
          "midi": 51,
          "name": "D#3",
          "ticks": 3653,
          "time": 3.6824523125,
          "velocity": 0.2047244094488189
        },
        {
          "duration": 0.09677399999999992,
          "durationTicks": 96,
          "midi": 55,
          "name": "G3",
          "ticks": 3653,
          "time": 3.6824523125,
          "velocity": 0.2440944881889764
        },
        {
          "duration": 0.09677400000000036,
          "durationTicks": 96,
          "midi": 48,
          "name": "C3",
          "ticks": 3844,
          "time": 3.8749922499999996,
          "velocity": 0.23622047244094488
        },
        {
          "duration": 0.09677399999999992,
          "durationTicks": 96,
          "midi": 51,
          "name": "D#3",
          "ticks": 4035,
          "time": 4.0675321875,
          "velocity": 0.2047244094488189
        },
        {
          "duration": 0.09677399999999992,
          "durationTicks": 96,
          "midi": 55,
          "name": "G3",
          "ticks": 4035,
          "time": 4.0675321875,
          "velocity": 0.2440944881889764
        },
        {
          "duration": 0.0967740000000008,
          "durationTicks": 96,
          "midi": 43,
          "name": "G2",
          "ticks": 4225,
          "time": 4.259064062499999,
          "velocity": 0.2283464566929134
        },
        {
          "duration": 0.09677399999999992,
          "durationTicks": 96,
          "midi": 51,
          "name": "D#3",
          "ticks": 4414,
          "time": 4.449587875,
          "velocity": 0.2047244094488189
        },
        {
          "duration": 0.09677399999999992,
          "durationTicks": 96,
          "midi": 55,
          "name": "G3",
          "ticks": 4414,
          "time": 4.449587875,
          "velocity": 0.2440944881889764
        },
        {
          "duration": 0.09677399999999992,
          "durationTicks": 96,
          "midi": 48,
          "name": "C3",
          "ticks": 4606,
          "time": 4.643135875,
          "velocity": 0.2440944881889764
        },
        {
          "duration": 0.09677399999999992,
          "durationTicks": 96,
          "midi": 51,
          "name": "D#3",
          "ticks": 4809,
          "time": 4.8477725625,
          "velocity": 0.2047244094488189
        },
        {
          "duration": 0.09677399999999992,
          "durationTicks": 96,
          "midi": 55,
          "name": "G3",
          "ticks": 4809,
          "time": 4.8477725625,
          "velocity": 0.2440944881889764
        },
        {
          "duration": 0.0967740000000008,
          "durationTicks": 96,
          "midi": 43,
          "name": "G2",
          "ticks": 5000,
          "time": 5.0403125,
          "velocity": 0.2283464566929134
        },
        {
          "duration": 0.09677399999999992,
          "durationTicks": 96,
          "midi": 51,
          "name": "D#3",
          "ticks": 5189,
          "time": 5.2308363125,
          "velocity": 0.2047244094488189
        },
        {
          "duration": 0.09677399999999992,
          "durationTicks": 96,
          "midi": 55,
          "name": "G3",
          "ticks": 5189,
          "time": 5.2308363125,
          "velocity": 0.2440944881889764
        },
        {
          "duration": 0.09677399999999992,
          "durationTicks": 96,
          "midi": 48,
          "name": "C3",
          "ticks": 5380,
          "time": 5.42337625,
          "velocity": 0.23622047244094488
        },
        {
          "duration": 0.09677399999999992,
          "durationTicks": 96,
          "midi": 51,
          "name": "D#3",
          "ticks": 5571,
          "time": 5.6159161875,
          "velocity": 0.2047244094488189
        },
        {
          "duration": 0.09677399999999992,
          "durationTicks": 96,
          "midi": 55,
          "name": "G3",
          "ticks": 5571,
          "time": 5.6159161875,
          "velocity": 0.2440944881889764
        },
        {
          "duration": 0.09677399999999992,
          "durationTicks": 96,
          "midi": 43,
          "name": "G2",
          "ticks": 5761,
          "time": 5.8074480625,
          "velocity": 0.2283464566929134
        },
        {
          "duration": 0.0967740000000008,
          "durationTicks": 96,
          "midi": 51,
          "name": "D#3",
          "ticks": 5950,
          "time": 5.997971874999999,
          "velocity": 0.2047244094488189
        },
        {
          "duration": 0.0967740000000008,
          "durationTicks": 96,
          "midi": 55,
          "name": "G3",
          "ticks": 5950,
          "time": 5.997971874999999,
          "velocity": 0.2440944881889764
        },
        {
          "duration": 0.0967740000000008,
          "durationTicks": 96,
          "midi": 51,
          "name": "D#3",
          "ticks": 6142,
          "time": 6.191519875,
          "velocity": 0.2440944881889764
        },
        {
          "duration": 0.09677399999999992,
          "durationTicks": 96,
          "midi": 55,
          "name": "G3",
          "ticks": 6345,
          "time": 6.3961565625,
          "velocity": 0.2047244094488189
        },
        {
          "duration": 0.09677399999999992,
          "durationTicks": 96,
          "midi": 58,
          "name": "A#3",
          "ticks": 6345,
          "time": 6.3961565625,
          "velocity": 0.2440944881889764
        },
        {
          "duration": 0.09677399999999992,
          "durationTicks": 96,
          "midi": 46,
          "name": "A#2",
          "ticks": 6536,
          "time": 6.588696499999999,
          "velocity": 0.2283464566929134
        },
        {
          "duration": 0.09677399999999992,
          "durationTicks": 96,
          "midi": 55,
          "name": "G3",
          "ticks": 6725,
          "time": 6.7792203125,
          "velocity": 0.2047244094488189
        },
        {
          "duration": 0.09677399999999992,
          "durationTicks": 96,
          "midi": 58,
          "name": "A#3",
          "ticks": 6725,
          "time": 6.7792203125,
          "velocity": 0.2440944881889764
        },
        {
          "duration": 0.0967740000000008,
          "durationTicks": 96,
          "midi": 51,
          "name": "D#3",
          "ticks": 6916,
          "time": 6.97176025,
          "velocity": 0.23622047244094488
        },
        {
          "duration": 0.09677399999999992,
          "durationTicks": 96,
          "midi": 55,
          "name": "G3",
          "ticks": 7107,
          "time": 7.1643001875,
          "velocity": 0.2047244094488189
        },
        {
          "duration": 0.09677399999999992,
          "durationTicks": 96,
          "midi": 58,
          "name": "A#3",
          "ticks": 7107,
          "time": 7.1643001875,
          "velocity": 0.2440944881889764
        },
        {
          "duration": 0.09677399999999992,
          "durationTicks": 96,
          "midi": 46,
          "name": "A#2",
          "ticks": 7297,
          "time": 7.3558320625,
          "velocity": 0.2283464566929134
        },
        {
          "duration": 0.09677399999999992,
          "durationTicks": 96,
          "midi": 55,
          "name": "G3",
          "ticks": 7486,
          "time": 7.546355875000001,
          "velocity": 0.2047244094488189
        },
        {
          "duration": 0.09677399999999992,
          "durationTicks": 96,
          "midi": 58,
          "name": "A#3",
          "ticks": 7486,
          "time": 7.546355875000001,
          "velocity": 0.2440944881889764
        },
        {
          "duration": 0.09677399999999992,
          "durationTicks": 96,
          "midi": 46,
          "name": "A#2",
          "ticks": 7678,
          "time": 7.739903875,
          "velocity": 0.2440944881889764
        },
        {
          "duration": 0.09677399999999992,
          "durationTicks": 96,
          "midi": 50,
          "name": "D3",
          "ticks": 7881,
          "time": 7.9445405625,
          "velocity": 0.2047244094488189
        },
        {
          "duration": 0.09677399999999992,
          "durationTicks": 96,
          "midi": 53,
          "name": "F3",
          "ticks": 7881,
          "time": 7.9445405625,
          "velocity": 0.2440944881889764
        },
        {
          "duration": 0.09677399999999992,
          "durationTicks": 96,
          "midi": 41,
          "name": "F2",
          "ticks": 8072,
          "time": 8.1370805,
          "velocity": 0.2283464566929134
        },
        {
          "duration": 0.09677399999999992,
          "durationTicks": 96,
          "midi": 50,
          "name": "D3",
          "ticks": 8261,
          "time": 8.3276043125,
          "velocity": 0.2047244094488189
        },
        {
          "duration": 0.09677399999999992,
          "durationTicks": 96,
          "midi": 53,
          "name": "F3",
          "ticks": 8261,
          "time": 8.3276043125,
          "velocity": 0.2440944881889764
        },
        {
          "duration": 0.09677400000000169,
          "durationTicks": 96,
          "midi": 46,
          "name": "A#2",
          "ticks": 8452,
          "time": 8.52014425,
          "velocity": 0.23622047244094488
        },
        {
          "duration": 0.09677399999999992,
          "durationTicks": 96,
          "midi": 50,
          "name": "D3",
          "ticks": 8643,
          "time": 8.7126841875,
          "velocity": 0.2047244094488189
        },
        {
          "duration": 0.09677399999999992,
          "durationTicks": 96,
          "midi": 53,
          "name": "F3",
          "ticks": 8643,
          "time": 8.7126841875,
          "velocity": 0.2440944881889764
        },
        {
          "duration": 0.09677399999999992,
          "durationTicks": 96,
          "midi": 41,
          "name": "F2",
          "ticks": 8833,
          "time": 8.9042160625,
          "velocity": 0.2283464566929134
        },
        {
          "duration": 0.09677399999999992,
          "durationTicks": 96,
          "midi": 50,
          "name": "D3",
          "ticks": 9022,
          "time": 9.094739875,
          "velocity": 0.2047244094488189
        },
        {
          "duration": 0.09677399999999992,
          "durationTicks": 96,
          "midi": 53,
          "name": "F3",
          "ticks": 9022,
          "time": 9.094739875,
          "velocity": 0.2440944881889764
        },
        {
          "duration": 0.09677399999999992,
          "durationTicks": 96,
          "midi": 44,
          "name": "G#2",
          "ticks": 9214,
          "time": 9.288287875,
          "velocity": 0.2440944881889764
        },
        {
          "duration": 0.09677399999999992,
          "durationTicks": 96,
          "midi": 48,
          "name": "C3",
          "ticks": 9417,
          "time": 9.4929245625,
          "velocity": 0.2047244094488189
        },
        {
          "duration": 0.09677399999999992,
          "durationTicks": 96,
          "midi": 51,
          "name": "D#3",
          "ticks": 9417,
          "time": 9.4929245625,
          "velocity": 0.2440944881889764
        },
        {
          "duration": 0.09677399999999992,
          "durationTicks": 96,
          "midi": 39,
          "name": "D#2",
          "ticks": 9608,
          "time": 9.6854645,
          "velocity": 0.2283464566929134
        },
        {
          "duration": 0.09677399999999992,
          "durationTicks": 96,
          "midi": 48,
          "name": "C3",
          "ticks": 9797,
          "time": 9.875988312499999,
          "velocity": 0.2047244094488189
        },
        {
          "duration": 0.09677399999999992,
          "durationTicks": 96,
          "midi": 51,
          "name": "D#3",
          "ticks": 9797,
          "time": 9.875988312499999,
          "velocity": 0.2440944881889764
        },
        {
          "duration": 0.09677399999999992,
          "durationTicks": 96,
          "midi": 43,
          "name": "G2",
          "ticks": 9988,
          "time": 10.06852825,
          "velocity": 0.23622047244094488
        },
        {
          "duration": 0.09677399999999992,
          "durationTicks": 96,
          "midi": 47,
          "name": "B2",
          "ticks": 10179,
          "time": 10.2610681875,
          "velocity": 0.2047244094488189
        },
        {
          "duration": 0.09677399999999992,
          "durationTicks": 96,
          "midi": 50,
          "name": "D3",
          "ticks": 10179,
          "time": 10.2610681875,
          "velocity": 0.2440944881889764
        },
        {
          "duration": 0.09677399999999992,
          "durationTicks": 96,
          "midi": 38,
          "name": "D2",
          "ticks": 10369,
          "time": 10.4526000625,
          "velocity": 0.2283464566929134
        },
        {
          "duration": 0.09677399999999992,
          "durationTicks": 96,
          "midi": 47,
          "name": "B2",
          "ticks": 10558,
          "time": 10.643123875,
          "velocity": 0.2047244094488189
        },
        {
          "duration": 0.09677399999999992,
          "durationTicks": 96,
          "midi": 50,
          "name": "D3",
          "ticks": 10558,
          "time": 10.643123875,
          "velocity": 0.2440944881889764
        },
        {
          "duration": 0.09677399999999992,
          "durationTicks": 96,
          "midi": 48,
          "name": "C3",
          "ticks": 10750,
          "time": 10.836671875,
          "velocity": 0.2440944881889764
        },
        {
          "duration": 0.09677399999999992,
          "durationTicks": 96,
          "midi": 51,
          "name": "D#3",
          "ticks": 10953,
          "time": 11.0413085625,
          "velocity": 0.2047244094488189
        },
        {
          "duration": 0.09677399999999992,
          "durationTicks": 96,
          "midi": 55,
          "name": "G3",
          "ticks": 10953,
          "time": 11.0413085625,
          "velocity": 0.2440944881889764
        },
        {
          "duration": 0.09677399999999992,
          "durationTicks": 96,
          "midi": 43,
          "name": "G2",
          "ticks": 11144,
          "time": 11.233848499999999,
          "velocity": 0.2283464566929134
        },
        {
          "duration": 0.09677399999999992,
          "durationTicks": 96,
          "midi": 51,
          "name": "D#3",
          "ticks": 11333,
          "time": 11.4243723125,
          "velocity": 0.2047244094488189
        },
        {
          "duration": 0.09677399999999992,
          "durationTicks": 96,
          "midi": 55,
          "name": "G3",
          "ticks": 11333,
          "time": 11.4243723125,
          "velocity": 0.2440944881889764
        },
        {
          "duration": 0.09677399999999992,
          "durationTicks": 96,
          "midi": 48,
          "name": "C3",
          "ticks": 11524,
          "time": 11.61691225,
          "velocity": 0.23622047244094488
        },
        {
          "duration": 0.09677399999999992,
          "durationTicks": 96,
          "midi": 51,
          "name": "D#3",
          "ticks": 11715,
          "time": 11.8094521875,
          "velocity": 0.2047244094488189
        },
        {
          "duration": 0.09677399999999992,
          "durationTicks": 96,
          "midi": 55,
          "name": "G3",
          "ticks": 11715,
          "time": 11.8094521875,
          "velocity": 0.2440944881889764
        },
        {
          "duration": 0.09677399999999992,
          "durationTicks": 96,
          "midi": 43,
          "name": "G2",
          "ticks": 11905,
          "time": 12.0009840625,
          "velocity": 0.2283464566929134
        },
        {
          "duration": 0.09677399999999992,
          "durationTicks": 96,
          "midi": 51,
          "name": "D#3",
          "ticks": 12094,
          "time": 12.191507875000001,
          "velocity": 0.2047244094488189
        },
        {
          "duration": 0.09677399999999992,
          "durationTicks": 96,
          "midi": 55,
          "name": "G3",
          "ticks": 12094,
          "time": 12.191507875000001,
          "velocity": 0.2440944881889764
        },
        {
          "duration": 0.09677399999999814,
          "durationTicks": 96,
          "midi": 51,
          "name": "D#3",
          "ticks": 12286,
          "time": 12.385055875,
          "velocity": 0.2440944881889764
        },
        {
          "duration": 0.09677399999999992,
          "durationTicks": 96,
          "midi": 55,
          "name": "G3",
          "ticks": 12489,
          "time": 12.5896925625,
          "velocity": 0.2047244094488189
        },
        {
          "duration": 0.09677399999999992,
          "durationTicks": 96,
          "midi": 58,
          "name": "A#3",
          "ticks": 12489,
          "time": 12.5896925625,
          "velocity": 0.2440944881889764
        },
        {
          "duration": 0.09677399999999992,
          "durationTicks": 96,
          "midi": 46,
          "name": "A#2",
          "ticks": 12680,
          "time": 12.782232500000001,
          "velocity": 0.2283464566929134
        },
        {
          "duration": 0.09677399999999992,
          "durationTicks": 96,
          "midi": 55,
          "name": "G3",
          "ticks": 12869,
          "time": 12.972756312500001,
          "velocity": 0.2047244094488189
        },
        {
          "duration": 0.09677399999999992,
          "durationTicks": 96,
          "midi": 58,
          "name": "A#3",
          "ticks": 12869,
          "time": 12.972756312500001,
          "velocity": 0.2440944881889764
        },
        {
          "duration": 0.09677399999999992,
          "durationTicks": 96,
          "midi": 51,
          "name": "D#3",
          "ticks": 13060,
          "time": 13.165296249999999,
          "velocity": 0.23622047244094488
        },
        {
          "duration": 0.09677399999999992,
          "durationTicks": 96,
          "midi": 55,
          "name": "G3",
          "ticks": 13251,
          "time": 13.3578361875,
          "velocity": 0.2047244094488189
        },
        {
          "duration": 0.09677399999999992,
          "durationTicks": 96,
          "midi": 58,
          "name": "A#3",
          "ticks": 13251,
          "time": 13.3578361875,
          "velocity": 0.2440944881889764
        },
        {
          "duration": 0.09677399999999992,
          "durationTicks": 96,
          "midi": 46,
          "name": "A#2",
          "ticks": 13441,
          "time": 13.5493680625,
          "velocity": 0.2283464566929134
        },
        {
          "duration": 0.09677399999999992,
          "durationTicks": 96,
          "midi": 55,
          "name": "G3",
          "ticks": 13630,
          "time": 13.739891875,
          "velocity": 0.2047244094488189
        },
        {
          "duration": 0.09677399999999992,
          "durationTicks": 96,
          "midi": 58,
          "name": "A#3",
          "ticks": 13630,
          "time": 13.739891875,
          "velocity": 0.2440944881889764
        },
        {
          "duration": 0.09677399999999992,
          "durationTicks": 96,
          "midi": 46,
          "name": "A#2",
          "ticks": 13822,
          "time": 13.933439875,
          "velocity": 0.2440944881889764
        },
        {
          "duration": 0.09677399999999992,
          "durationTicks": 96,
          "midi": 50,
          "name": "D3",
          "ticks": 14025,
          "time": 14.1380765625,
          "velocity": 0.2047244094488189
        },
        {
          "duration": 0.09677399999999992,
          "durationTicks": 96,
          "midi": 53,
          "name": "F3",
          "ticks": 14025,
          "time": 14.1380765625,
          "velocity": 0.2440944881889764
        },
        {
          "duration": 0.09677399999999992,
          "durationTicks": 96,
          "midi": 41,
          "name": "F2",
          "ticks": 14216,
          "time": 14.330616500000001,
          "velocity": 0.2283464566929134
        },
        {
          "duration": 0.09677399999999992,
          "durationTicks": 96,
          "midi": 50,
          "name": "D3",
          "ticks": 14405,
          "time": 14.5211403125,
          "velocity": 0.2047244094488189
        },
        {
          "duration": 0.09677399999999992,
          "durationTicks": 96,
          "midi": 53,
          "name": "F3",
          "ticks": 14405,
          "time": 14.5211403125,
          "velocity": 0.2440944881889764
        },
        {
          "duration": 0.09677399999999992,
          "durationTicks": 96,
          "midi": 46,
          "name": "A#2",
          "ticks": 14596,
          "time": 14.71368025,
          "velocity": 0.23622047244094488
        },
        {
          "duration": 0.09677399999999992,
          "durationTicks": 96,
          "midi": 50,
          "name": "D3",
          "ticks": 14787,
          "time": 14.9062201875,
          "velocity": 0.2047244094488189
        },
        {
          "duration": 0.09677399999999992,
          "durationTicks": 96,
          "midi": 53,
          "name": "F3",
          "ticks": 14787,
          "time": 14.9062201875,
          "velocity": 0.2440944881889764
        },
        {
          "duration": 0.09677399999999992,
          "durationTicks": 96,
          "midi": 41,
          "name": "F2",
          "ticks": 14977,
          "time": 15.0977520625,
          "velocity": 0.2283464566929134
        },
        {
          "duration": 0.09677399999999992,
          "durationTicks": 96,
          "midi": 50,
          "name": "D3",
          "ticks": 15166,
          "time": 15.288275874999998,
          "velocity": 0.2047244094488189
        },
        {
          "duration": 0.09677399999999992,
          "durationTicks": 96,
          "midi": 53,
          "name": "F3",
          "ticks": 15166,
          "time": 15.288275874999998,
          "velocity": 0.2440944881889764
        },
        {
          "duration": 0.09677399999999992,
          "durationTicks": 96,
          "midi": 44,
          "name": "G#2",
          "ticks": 15358,
          "time": 15.481823874999998,
          "velocity": 0.2440944881889764
        },
        {
          "duration": 0.09677399999999992,
          "durationTicks": 96,
          "midi": 48,
          "name": "C3",
          "ticks": 15561,
          "time": 15.6864605625,
          "velocity": 0.2047244094488189
        },
        {
          "duration": 0.09677399999999992,
          "durationTicks": 96,
          "midi": 51,
          "name": "D#3",
          "ticks": 15561,
          "time": 15.6864605625,
          "velocity": 0.2440944881889764
        },
        {
          "duration": 0.09677399999999992,
          "durationTicks": 96,
          "midi": 39,
          "name": "D#2",
          "ticks": 15752,
          "time": 15.8790005,
          "velocity": 0.2283464566929134
        },
        {
          "duration": 0.09677399999999992,
          "durationTicks": 96,
          "midi": 48,
          "name": "C3",
          "ticks": 15941,
          "time": 16.0695243125,
          "velocity": 0.2047244094488189
        },
        {
          "duration": 0.09677399999999992,
          "durationTicks": 96,
          "midi": 51,
          "name": "D#3",
          "ticks": 15941,
          "time": 16.0695243125,
          "velocity": 0.2440944881889764
        },
        {
          "duration": 0.09677399999999992,
          "durationTicks": 96,
          "midi": 43,
          "name": "G2",
          "ticks": 16132,
          "time": 16.262064249999998,
          "velocity": 0.23622047244094488
        },
        {
          "duration": 0.09677399999999992,
          "durationTicks": 96,
          "midi": 47,
          "name": "B2",
          "ticks": 16323,
          "time": 16.4546041875,
          "velocity": 0.2047244094488189
        },
        {
          "duration": 0.09677399999999992,
          "durationTicks": 96,
          "midi": 50,
          "name": "D3",
          "ticks": 16323,
          "time": 16.4546041875,
          "velocity": 0.2440944881889764
        },
        {
          "duration": 0.09677399999999992,
          "durationTicks": 96,
          "midi": 38,
          "name": "D2",
          "ticks": 16513,
          "time": 16.6461360625,
          "velocity": 0.2283464566929134
        },
        {
          "duration": 0.09677399999999992,
          "durationTicks": 96,
          "midi": 47,
          "name": "B2",
          "ticks": 16702,
          "time": 16.836659875,
          "velocity": 0.2047244094488189
        },
        {
          "duration": 0.09677399999999992,
          "durationTicks": 96,
          "midi": 50,
          "name": "D3",
          "ticks": 16702,
          "time": 16.836659875,
          "velocity": 0.2440944881889764
        },
        {
          "duration": 0.09677399999999992,
          "durationTicks": 96,
          "midi": 44,
          "name": "G#2",
          "ticks": 16894,
          "time": 17.030207875,
          "velocity": 0.2440944881889764
        },
        {
          "duration": 0.09677399999999992,
          "durationTicks": 96,
          "midi": 48,
          "name": "C3",
          "ticks": 17097,
          "time": 17.2348445625,
          "velocity": 0.2047244094488189
        },
        {
          "duration": 0.09677399999999992,
          "durationTicks": 96,
          "midi": 51,
          "name": "D#3",
          "ticks": 17097,
          "time": 17.2348445625,
          "velocity": 0.2440944881889764
        },
        {
          "duration": 0.09677399999999992,
          "durationTicks": 96,
          "midi": 39,
          "name": "D#2",
          "ticks": 17288,
          "time": 17.427384500000002,
          "velocity": 0.2283464566929134
        },
        {
          "duration": 0.09677399999999992,
          "durationTicks": 96,
          "midi": 48,
          "name": "C3",
          "ticks": 17477,
          "time": 17.6179083125,
          "velocity": 0.2047244094488189
        },
        {
          "duration": 0.09677399999999992,
          "durationTicks": 96,
          "midi": 51,
          "name": "D#3",
          "ticks": 17477,
          "time": 17.6179083125,
          "velocity": 0.2440944881889764
        },
        {
          "duration": 0.09677399999999992,
          "durationTicks": 96,
          "midi": 44,
          "name": "G#2",
          "ticks": 17668,
          "time": 17.81044825,
          "velocity": 0.23622047244094488
        },
        {
          "duration": 0.09677399999999992,
          "durationTicks": 96,
          "midi": 48,
          "name": "C3",
          "ticks": 17859,
          "time": 18.0029881875,
          "velocity": 0.2047244094488189
        },
        {
          "duration": 0.09677399999999992,
          "durationTicks": 96,
          "midi": 51,
          "name": "D#3",
          "ticks": 17859,
          "time": 18.0029881875,
          "velocity": 0.2440944881889764
        },
        {
          "duration": 0.09677399999999992,
          "durationTicks": 96,
          "midi": 39,
          "name": "D#2",
          "ticks": 18049,
          "time": 18.1945200625,
          "velocity": 0.2283464566929134
        },
        {
          "duration": 0.09677399999999992,
          "durationTicks": 96,
          "midi": 48,
          "name": "C3",
          "ticks": 18238,
          "time": 18.385043874999997,
          "velocity": 0.2047244094488189
        },
        {
          "duration": 0.09677399999999992,
          "durationTicks": 96,
          "midi": 51,
          "name": "D#3",
          "ticks": 18238,
          "time": 18.385043874999997,
          "velocity": 0.2440944881889764
        },
        {
          "duration": 0.09677399999999992,
          "durationTicks": 96,
          "midi": 53,
          "name": "F3",
          "ticks": 18430,
          "time": 18.578591874999997,
          "velocity": 0.2440944881889764
        },
        {
          "duration": 0.09677399999999992,
          "durationTicks": 96,
          "midi": 56,
          "name": "G#3",
          "ticks": 18633,
          "time": 18.7832285625,
          "velocity": 0.2047244094488189
        },
        {
          "duration": 0.09677399999999992,
          "durationTicks": 96,
          "midi": 60,
          "name": "C4",
          "ticks": 18633,
          "time": 18.7832285625,
          "velocity": 0.2440944881889764
        },
        {
          "duration": 0.09677399999999992,
          "durationTicks": 96,
          "midi": 48,
          "name": "C3",
          "ticks": 18824,
          "time": 18.9757685,
          "velocity": 0.2283464566929134
        },
        {
          "duration": 0.09677399999999992,
          "durationTicks": 96,
          "midi": 56,
          "name": "G#3",
          "ticks": 19013,
          "time": 19.1662923125,
          "velocity": 0.2047244094488189
        },
        {
          "duration": 0.09677399999999992,
          "durationTicks": 96,
          "midi": 60,
          "name": "C4",
          "ticks": 19013,
          "time": 19.1662923125,
          "velocity": 0.2440944881889764
        },
        {
          "duration": 0.09677399999999992,
          "durationTicks": 96,
          "midi": 53,
          "name": "F3",
          "ticks": 19204,
          "time": 19.35883225,
          "velocity": 0.23622047244094488
        },
        {
          "duration": 0.09677399999999992,
          "durationTicks": 96,
          "midi": 56,
          "name": "G#3",
          "ticks": 19395,
          "time": 19.5513721875,
          "velocity": 0.2047244094488189
        },
        {
          "duration": 0.09677399999999992,
          "durationTicks": 96,
          "midi": 60,
          "name": "C4",
          "ticks": 19395,
          "time": 19.5513721875,
          "velocity": 0.2440944881889764
        },
        {
          "duration": 0.09677399999999992,
          "durationTicks": 96,
          "midi": 48,
          "name": "C3",
          "ticks": 19585,
          "time": 19.7429040625,
          "velocity": 0.2283464566929134
        },
        {
          "duration": 0.09677399999999992,
          "durationTicks": 96,
          "midi": 56,
          "name": "G#3",
          "ticks": 19774,
          "time": 19.933427875,
          "velocity": 0.2047244094488189
        },
        {
          "duration": 0.09677399999999992,
          "durationTicks": 96,
          "midi": 60,
          "name": "C4",
          "ticks": 19774,
          "time": 19.933427875,
          "velocity": 0.2440944881889764
        },
        {
          "duration": 0.09677399999999992,
          "durationTicks": 96,
          "midi": 46,
          "name": "A#2",
          "ticks": 19966,
          "time": 20.126975875,
          "velocity": 0.2440944881889764
        },
        {
          "duration": 0.09677399999999992,
          "durationTicks": 96,
          "midi": 50,
          "name": "D3",
          "ticks": 20169,
          "time": 20.3316125625,
          "velocity": 0.2047244094488189
        },
        {
          "duration": 0.09677399999999992,
          "durationTicks": 96,
          "midi": 53,
          "name": "F3",
          "ticks": 20169,
          "time": 20.3316125625,
          "velocity": 0.2440944881889764
        },
        {
          "duration": 0.09677399999999992,
          "durationTicks": 96,
          "midi": 41,
          "name": "F2",
          "ticks": 20360,
          "time": 20.5241525,
          "velocity": 0.2283464566929134
        },
        {
          "duration": 0.09677399999999992,
          "durationTicks": 96,
          "midi": 50,
          "name": "D3",
          "ticks": 20549,
          "time": 20.7146763125,
          "velocity": 0.2047244094488189
        },
        {
          "duration": 0.09677399999999992,
          "durationTicks": 96,
          "midi": 53,
          "name": "F3",
          "ticks": 20549,
          "time": 20.7146763125,
          "velocity": 0.2440944881889764
        },
        {
          "duration": 0.09677399999999992,
          "durationTicks": 96,
          "midi": 46,
          "name": "A#2",
          "ticks": 20740,
          "time": 20.907216249999998,
          "velocity": 0.23622047244094488
        },
        {
          "duration": 0.09677399999999992,
          "durationTicks": 96,
          "midi": 50,
          "name": "D3",
          "ticks": 20931,
          "time": 21.0997561875,
          "velocity": 0.2047244094488189
        },
        {
          "duration": 0.09677399999999992,
          "durationTicks": 96,
          "midi": 53,
          "name": "F3",
          "ticks": 20931,
          "time": 21.0997561875,
          "velocity": 0.2440944881889764
        },
        {
          "duration": 0.09677399999999992,
          "durationTicks": 96,
          "midi": 41,
          "name": "F2",
          "ticks": 21121,
          "time": 21.291288062499998,
          "velocity": 0.2283464566929134
        },
        {
          "duration": 0.09677399999999992,
          "durationTicks": 96,
          "midi": 50,
          "name": "D3",
          "ticks": 21310,
          "time": 21.481811875,
          "velocity": 0.2047244094488189
        },
        {
          "duration": 0.09677399999999992,
          "durationTicks": 96,
          "midi": 53,
          "name": "F3",
          "ticks": 21310,
          "time": 21.481811875,
          "velocity": 0.2440944881889764
        },
        {
          "duration": 0.09677399999999992,
          "durationTicks": 96,
          "midi": 44,
          "name": "G#2",
          "ticks": 21502,
          "time": 21.675359874999998,
          "velocity": 0.2440944881889764
        },
        {
          "duration": 0.09677399999999992,
          "durationTicks": 96,
          "midi": 48,
          "name": "C3",
          "ticks": 21705,
          "time": 21.8799965625,
          "velocity": 0.2047244094488189
        },
        {
          "duration": 0.09677399999999992,
          "durationTicks": 96,
          "midi": 51,
          "name": "D#3",
          "ticks": 21705,
          "time": 21.8799965625,
          "velocity": 0.2440944881889764
        },
        {
          "duration": 0.09677399999999992,
          "durationTicks": 96,
          "midi": 39,
          "name": "D#2",
          "ticks": 21896,
          "time": 22.072536500000002,
          "velocity": 0.2283464566929134
        },
        {
          "duration": 0.09677399999999992,
          "durationTicks": 96,
          "midi": 48,
          "name": "C3",
          "ticks": 22085,
          "time": 22.263060312500002,
          "velocity": 0.2047244094488189
        },
        {
          "duration": 0.09677399999999992,
          "durationTicks": 96,
          "midi": 51,
          "name": "D#3",
          "ticks": 22085,
          "time": 22.263060312500002,
          "velocity": 0.2440944881889764
        },
        {
          "duration": 0.09677399999999992,
          "durationTicks": 96,
          "midi": 43,
          "name": "G2",
          "ticks": 22276,
          "time": 22.45560025,
          "velocity": 0.23622047244094488
        },
        {
          "duration": 0.09677399999999992,
          "durationTicks": 96,
          "midi": 47,
          "name": "B2",
          "ticks": 22467,
          "time": 22.6481401875,
          "velocity": 0.2047244094488189
        },
        {
          "duration": 0.09677399999999992,
          "durationTicks": 96,
          "midi": 50,
          "name": "D3",
          "ticks": 22467,
          "time": 22.6481401875,
          "velocity": 0.2440944881889764
        },
        {
          "duration": 0.09677399999999992,
          "durationTicks": 96,
          "midi": 38,
          "name": "D2",
          "ticks": 22657,
          "time": 22.8396720625,
          "velocity": 0.2283464566929134
        },
        {
          "duration": 0.09677399999999992,
          "durationTicks": 96,
          "midi": 47,
          "name": "B2",
          "ticks": 22846,
          "time": 23.030195875,
          "velocity": 0.2047244094488189
        },
        {
          "duration": 0.09677399999999992,
          "durationTicks": 96,
          "midi": 50,
          "name": "D3",
          "ticks": 22846,
          "time": 23.030195875,
          "velocity": 0.2440944881889764
        },
        {
          "duration": 0.09677399999999992,
          "durationTicks": 96,
          "midi": 44,
          "name": "G#2",
          "ticks": 23038,
          "time": 23.223743875,
          "velocity": 0.2440944881889764
        },
        {
          "duration": 0.09677399999999992,
          "durationTicks": 96,
          "midi": 48,
          "name": "C3",
          "ticks": 23241,
          "time": 23.4283805625,
          "velocity": 0.2047244094488189
        },
        {
          "duration": 0.09677399999999992,
          "durationTicks": 96,
          "midi": 51,
          "name": "D#3",
          "ticks": 23241,
          "time": 23.4283805625,
          "velocity": 0.2440944881889764
        },
        {
          "duration": 0.09677399999999992,
          "durationTicks": 96,
          "midi": 39,
          "name": "D#2",
          "ticks": 23432,
          "time": 23.6209205,
          "velocity": 0.2283464566929134
        },
        {
          "duration": 0.09677399999999992,
          "durationTicks": 96,
          "midi": 48,
          "name": "C3",
          "ticks": 23621,
          "time": 23.8114443125,
          "velocity": 0.2047244094488189
        },
        {
          "duration": 0.09677399999999992,
          "durationTicks": 96,
          "midi": 51,
          "name": "D#3",
          "ticks": 23621,
          "time": 23.8114443125,
          "velocity": 0.2440944881889764
        },
        {
          "duration": 0.09677399999999992,
          "durationTicks": 96,
          "midi": 44,
          "name": "G#2",
          "ticks": 23812,
          "time": 24.00398425,
          "velocity": 0.23622047244094488
        },
        {
          "duration": 0.09677399999999992,
          "durationTicks": 96,
          "midi": 48,
          "name": "C3",
          "ticks": 24003,
          "time": 24.1965241875,
          "velocity": 0.2047244094488189
        },
        {
          "duration": 0.09677399999999992,
          "durationTicks": 96,
          "midi": 51,
          "name": "D#3",
          "ticks": 24003,
          "time": 24.1965241875,
          "velocity": 0.2440944881889764
        },
        {
          "duration": 0.09677399999999992,
          "durationTicks": 96,
          "midi": 39,
          "name": "D#2",
          "ticks": 24193,
          "time": 24.3880560625,
          "velocity": 0.2283464566929134
        },
        {
          "duration": 0.09677399999999992,
          "durationTicks": 96,
          "midi": 48,
          "name": "C3",
          "ticks": 24382,
          "time": 24.578579875,
          "velocity": 0.2047244094488189
        },
        {
          "duration": 0.09677399999999992,
          "durationTicks": 96,
          "midi": 51,
          "name": "D#3",
          "ticks": 24382,
          "time": 24.578579875,
          "velocity": 0.2440944881889764
        },
        {
          "duration": 0.09677400000000347,
          "durationTicks": 96,
          "midi": 53,
          "name": "F3",
          "ticks": 24574,
          "time": 24.772127875,
          "velocity": 0.2440944881889764
        },
        {
          "duration": 0.09677399999999992,
          "durationTicks": 96,
          "midi": 56,
          "name": "G#3",
          "ticks": 24777,
          "time": 24.9767645625,
          "velocity": 0.2047244094488189
        },
        {
          "duration": 0.09677399999999992,
          "durationTicks": 96,
          "midi": 60,
          "name": "C4",
          "ticks": 24777,
          "time": 24.9767645625,
          "velocity": 0.2440944881889764
        },
        {
          "duration": 0.09677399999999992,
          "durationTicks": 96,
          "midi": 48,
          "name": "C3",
          "ticks": 24968,
          "time": 25.1693045,
          "velocity": 0.2283464566929134
        },
        {
          "duration": 0.09677399999999992,
          "durationTicks": 96,
          "midi": 56,
          "name": "G#3",
          "ticks": 25157,
          "time": 25.3598283125,
          "velocity": 0.2047244094488189
        },
        {
          "duration": 0.09677399999999992,
          "durationTicks": 96,
          "midi": 60,
          "name": "C4",
          "ticks": 25157,
          "time": 25.3598283125,
          "velocity": 0.2440944881889764
        },
        {
          "duration": 0.09677399999999992,
          "durationTicks": 96,
          "midi": 53,
          "name": "F3",
          "ticks": 25348,
          "time": 25.55236825,
          "velocity": 0.23622047244094488
        },
        {
          "duration": 0.09677399999999992,
          "durationTicks": 96,
          "midi": 56,
          "name": "G#3",
          "ticks": 25539,
          "time": 25.7449081875,
          "velocity": 0.2047244094488189
        },
        {
          "duration": 0.09677399999999992,
          "durationTicks": 96,
          "midi": 60,
          "name": "C4",
          "ticks": 25539,
          "time": 25.7449081875,
          "velocity": 0.2440944881889764
        },
        {
          "duration": 0.09677399999999992,
          "durationTicks": 96,
          "midi": 48,
          "name": "C3",
          "ticks": 25729,
          "time": 25.9364400625,
          "velocity": 0.2283464566929134
        },
        {
          "duration": 0.09677399999999992,
          "durationTicks": 96,
          "midi": 56,
          "name": "G#3",
          "ticks": 25918,
          "time": 26.126963875,
          "velocity": 0.2047244094488189
        },
        {
          "duration": 0.09677399999999992,
          "durationTicks": 96,
          "midi": 60,
          "name": "C4",
          "ticks": 25918,
          "time": 26.126963875,
          "velocity": 0.2440944881889764
        },
        {
          "duration": 0.09677399999999992,
          "durationTicks": 96,
          "midi": 46,
          "name": "A#2",
          "ticks": 26110,
          "time": 26.320511875,
          "velocity": 0.2440944881889764
        },
        {
          "duration": 0.09677399999999992,
          "durationTicks": 96,
          "midi": 50,
          "name": "D3",
          "ticks": 26313,
          "time": 26.5251485625,
          "velocity": 0.2047244094488189
        },
        {
          "duration": 0.09677399999999992,
          "durationTicks": 96,
          "midi": 53,
          "name": "F3",
          "ticks": 26313,
          "time": 26.5251485625,
          "velocity": 0.2440944881889764
        },
        {
          "duration": 0.09677399999999992,
          "durationTicks": 96,
          "midi": 41,
          "name": "F2",
          "ticks": 26504,
          "time": 26.717688499999998,
          "velocity": 0.2283464566929134
        },
        {
          "duration": 0.09677399999999992,
          "durationTicks": 96,
          "midi": 50,
          "name": "D3",
          "ticks": 26693,
          "time": 26.908212312499998,
          "velocity": 0.2047244094488189
        },
        {
          "duration": 0.09677399999999992,
          "durationTicks": 96,
          "midi": 53,
          "name": "F3",
          "ticks": 26693,
          "time": 26.908212312499998,
          "velocity": 0.2440944881889764
        },
        {
          "duration": 0.09677399999999992,
          "durationTicks": 96,
          "midi": 46,
          "name": "A#2",
          "ticks": 26884,
          "time": 27.100752250000003,
          "velocity": 0.23622047244094488
        },
        {
          "duration": 0.09677399999999992,
          "durationTicks": 96,
          "midi": 50,
          "name": "D3",
          "ticks": 27075,
          "time": 27.2932921875,
          "velocity": 0.2047244094488189
        },
        {
          "duration": 0.09677399999999992,
          "durationTicks": 96,
          "midi": 53,
          "name": "F3",
          "ticks": 27075,
          "time": 27.2932921875,
          "velocity": 0.2440944881889764
        },
        {
          "duration": 0.09677399999999992,
          "durationTicks": 96,
          "midi": 41,
          "name": "F2",
          "ticks": 27265,
          "time": 27.484824062500003,
          "velocity": 0.2283464566929134
        },
        {
          "duration": 0.09677399999999992,
          "durationTicks": 96,
          "midi": 50,
          "name": "D3",
          "ticks": 27454,
          "time": 27.675347875,
          "velocity": 0.2047244094488189
        },
        {
          "duration": 0.09677399999999992,
          "durationTicks": 96,
          "midi": 53,
          "name": "F3",
          "ticks": 27454,
          "time": 27.675347875,
          "velocity": 0.2440944881889764
        },
        {
          "duration": 0.3870960000000032,
          "durationTicks": 384,
          "midi": 31,
          "name": "G1",
          "ticks": 27646,
          "time": 27.868895875,
          "velocity": 0.2125984251968504
        },
        {
          "duration": 0.3870960000000032,
          "durationTicks": 384,
          "midi": 43,
          "name": "G2",
          "ticks": 27646,
          "time": 27.868895875,
          "velocity": 0.25984251968503935
        },
        {
          "duration": 0.3870960000000032,
          "durationTicks": 384,
          "midi": 32,
          "name": "G#1",
          "ticks": 28040,
          "time": 28.266072499999996,
          "velocity": 0.1968503937007874
        },
        {
          "duration": 0.3870960000000032,
          "durationTicks": 384,
          "midi": 44,
          "name": "G#2",
          "ticks": 28040,
          "time": 28.266072499999996,
          "velocity": 0.25196850393700787
        },
        {
          "duration": 0.38709599999999966,
          "durationTicks": 384,
          "midi": 31,
          "name": "G1",
          "ticks": 28420,
          "time": 28.64913625,
          "velocity": 0.2047244094488189
        },
        {
          "duration": 0.38709599999999966,
          "durationTicks": 384,
          "midi": 43,
          "name": "G2",
          "ticks": 28420,
          "time": 28.64913625,
          "velocity": 0.25984251968503935
        },
        {
          "duration": 0.38709599999999966,
          "durationTicks": 384,
          "midi": 32,
          "name": "G#1",
          "ticks": 28801,
          "time": 29.0332080625,
          "velocity": 0.1968503937007874
        },
        {
          "duration": 0.38709599999999966,
          "durationTicks": 384,
          "midi": 44,
          "name": "G#2",
          "ticks": 28801,
          "time": 29.0332080625,
          "velocity": 0.25196850393700787
        },
        {
          "duration": 0.19354799999999983,
          "durationTicks": 192,
          "midi": 31,
          "name": "G1",
          "ticks": 29182,
          "time": 29.417279875000002,
          "velocity": 0.2125984251968504
        },
        {
          "duration": 0.19354799999999983,
          "durationTicks": 192,
          "midi": 43,
          "name": "G2",
          "ticks": 29182,
          "time": 29.417279875000002,
          "velocity": 0.25984251968503935
        },
        {
          "duration": 0.19354799999999983,
          "durationTicks": 192,
          "midi": 32,
          "name": "G#1",
          "ticks": 29385,
          "time": 29.6219165625,
          "velocity": 0.1968503937007874
        },
        {
          "duration": 0.19354799999999983,
          "durationTicks": 192,
          "midi": 44,
          "name": "G#2",
          "ticks": 29385,
          "time": 29.6219165625,
          "velocity": 0.2440944881889764
        },
        {
          "duration": 0.19354799999999983,
          "durationTicks": 192,
          "midi": 31,
          "name": "G1",
          "ticks": 29576,
          "time": 29.8144565,
          "velocity": 0.1968503937007874
        },
        {
          "duration": 0.19354799999999983,
          "durationTicks": 192,
          "midi": 43,
          "name": "G2",
          "ticks": 29576,
          "time": 29.8144565,
          "velocity": 0.25196850393700787
        },
        {
          "duration": 0.19354799999999983,
          "durationTicks": 192,
          "midi": 32,
          "name": "G#1",
          "ticks": 29765,
          "time": 30.0049803125,
          "velocity": 0.1968503937007874
        },
        {
          "duration": 0.19354799999999983,
          "durationTicks": 192,
          "midi": 44,
          "name": "G#2",
          "ticks": 29765,
          "time": 30.0049803125,
          "velocity": 0.2440944881889764
        },
        {
          "duration": 0.19354799999999983,
          "durationTicks": 192,
          "midi": 31,
          "name": "G1",
          "ticks": 29956,
          "time": 30.19752025,
          "velocity": 0.2047244094488189
        },
        {
          "duration": 0.19354799999999983,
          "durationTicks": 192,
          "midi": 43,
          "name": "G2",
          "ticks": 29956,
          "time": 30.19752025,
          "velocity": 0.25984251968503935
        },
        {
          "duration": 0.19354799999999983,
          "durationTicks": 192,
          "midi": 32,
          "name": "G#1",
          "ticks": 30147,
          "time": 30.3900601875,
          "velocity": 0.1968503937007874
        },
        {
          "duration": 0.19354799999999983,
          "durationTicks": 192,
          "midi": 44,
          "name": "G#2",
          "ticks": 30147,
          "time": 30.3900601875,
          "velocity": 0.2440944881889764
        },
        {
          "duration": 0.19354799999999983,
          "durationTicks": 192,
          "midi": 31,
          "name": "G1",
          "ticks": 30337,
          "time": 30.5815920625,
          "velocity": 0.1968503937007874
        },
        {
          "duration": 0.19354799999999983,
          "durationTicks": 192,
          "midi": 43,
          "name": "G2",
          "ticks": 30337,
          "time": 30.5815920625,
          "velocity": 0.25196850393700787
        },
        {
          "duration": 0.19354799999999983,
          "durationTicks": 192,
          "midi": 32,
          "name": "G#1",
          "ticks": 30526,
          "time": 30.772115875,
          "velocity": 0.1968503937007874
        },
        {
          "duration": 0.19354799999999983,
          "durationTicks": 192,
          "midi": 44,
          "name": "G#2",
          "ticks": 30526,
          "time": 30.772115875,
          "velocity": 0.2440944881889764
        },
        {
          "duration": 0.19354799999999983,
          "durationTicks": 192,
          "midi": 31,
          "name": "G1",
          "ticks": 30718,
          "time": 30.965663875,
          "velocity": 0.2125984251968504
        },
        {
          "duration": 0.19354799999999983,
          "durationTicks": 192,
          "midi": 43,
          "name": "G2",
          "ticks": 30718,
          "time": 30.965663875,
          "velocity": 0.25984251968503935
        },
        {
          "duration": 0.19354799999999983,
          "durationTicks": 192,
          "midi": 32,
          "name": "G#1",
          "ticks": 30921,
          "time": 31.1703005625,
          "velocity": 0.1968503937007874
        },
        {
          "duration": 0.19354799999999983,
          "durationTicks": 192,
          "midi": 44,
          "name": "G#2",
          "ticks": 30921,
          "time": 31.1703005625,
          "velocity": 0.2440944881889764
        },
        {
          "duration": 0.19354799999999983,
          "durationTicks": 192,
          "midi": 31,
          "name": "G1",
          "ticks": 31112,
          "time": 31.362840499999997,
          "velocity": 0.1968503937007874
        },
        {
          "duration": 0.19354799999999983,
          "durationTicks": 192,
          "midi": 43,
          "name": "G2",
          "ticks": 31112,
          "time": 31.362840499999997,
          "velocity": 0.25196850393700787
        },
        {
          "duration": 0.19354799999999983,
          "durationTicks": 192,
          "midi": 32,
          "name": "G#1",
          "ticks": 31301,
          "time": 31.553364312499998,
          "velocity": 0.1968503937007874
        },
        {
          "duration": 0.19354799999999983,
          "durationTicks": 192,
          "midi": 44,
          "name": "G#2",
          "ticks": 31301,
          "time": 31.553364312499998,
          "velocity": 0.2440944881889764
        },
        {
          "duration": 0.19354799999999983,
          "durationTicks": 192,
          "midi": 31,
          "name": "G1",
          "ticks": 31492,
          "time": 31.745904250000002,
          "velocity": 0.25984251968503935
        },
        {
          "duration": 0.19354799999999983,
          "durationTicks": 192,
          "midi": 43,
          "name": "G2",
          "ticks": 31492,
          "time": 31.745904250000002,
          "velocity": 0.31496062992125984
        },
        {
          "duration": 0.19354799999999628,
          "durationTicks": 192,
          "midi": 31,
          "name": "G1",
          "ticks": 31683,
          "time": 31.9384441875,
          "velocity": 0.25196850393700787
        },
        {
          "duration": 0.19354799999999628,
          "durationTicks": 192,
          "midi": 43,
          "name": "G2",
          "ticks": 31683,
          "time": 31.9384441875,
          "velocity": 0.29133858267716534
        },
        {
          "duration": 0.19354799999999983,
          "durationTicks": 192,
          "midi": 31,
          "name": "G1",
          "ticks": 31873,
          "time": 32.1299760625,
          "velocity": 0.25984251968503935
        },
        {
          "duration": 0.19354799999999983,
          "durationTicks": 192,
          "midi": 43,
          "name": "G2",
          "ticks": 31873,
          "time": 32.1299760625,
          "velocity": 0.2992125984251969
        },
        {
          "duration": 0.19354799999999983,
          "durationTicks": 192,
          "midi": 31,
          "name": "G1",
          "ticks": 32062,
          "time": 32.320499875,
          "velocity": 0.25196850393700787
        },
        {
          "duration": 0.19354799999999983,
          "durationTicks": 192,
          "midi": 43,
          "name": "G2",
          "ticks": 32062,
          "time": 32.320499875,
          "velocity": 0.29133858267716534
        },
        {
          "duration": 0.09677399999999636,
          "durationTicks": 96,
          "midi": 48,
          "name": "C3",
          "ticks": 32254,
          "time": 32.514047875,
          "velocity": 0.2440944881889764
        },
        {
          "duration": 0.09677399999999636,
          "durationTicks": 96,
          "midi": 51,
          "name": "D#3",
          "ticks": 32457,
          "time": 32.7186845625,
          "velocity": 0.2047244094488189
        },
        {
          "duration": 0.09677399999999636,
          "durationTicks": 96,
          "midi": 55,
          "name": "G3",
          "ticks": 32457,
          "time": 32.7186845625,
          "velocity": 0.2440944881889764
        },
        {
          "duration": 0.09677400000000347,
          "durationTicks": 96,
          "midi": 43,
          "name": "G2",
          "ticks": 32648,
          "time": 32.911224499999996,
          "velocity": 0.2283464566929134
        },
        {
          "duration": 0.09677399999999636,
          "durationTicks": 96,
          "midi": 51,
          "name": "D#3",
          "ticks": 32837,
          "time": 33.1017483125,
          "velocity": 0.2047244094488189
        },
        {
          "duration": 0.09677399999999636,
          "durationTicks": 96,
          "midi": 55,
          "name": "G3",
          "ticks": 32837,
          "time": 33.1017483125,
          "velocity": 0.2440944881889764
        },
        {
          "duration": 0.09677400000000347,
          "durationTicks": 96,
          "midi": 48,
          "name": "C3",
          "ticks": 33028,
          "time": 33.29428825,
          "velocity": 0.23622047244094488
        },
        {
          "duration": 0.09677399999999636,
          "durationTicks": 96,
          "midi": 51,
          "name": "D#3",
          "ticks": 33219,
          "time": 33.4868281875,
          "velocity": 0.2047244094488189
        },
        {
          "duration": 0.09677399999999636,
          "durationTicks": 96,
          "midi": 55,
          "name": "G3",
          "ticks": 33219,
          "time": 33.4868281875,
          "velocity": 0.2440944881889764
        },
        {
          "duration": 0.09677399999999636,
          "durationTicks": 96,
          "midi": 43,
          "name": "G2",
          "ticks": 33409,
          "time": 33.678360062500005,
          "velocity": 0.2283464566929134
        },
        {
          "duration": 0.09677399999999636,
          "durationTicks": 96,
          "midi": 51,
          "name": "D#3",
          "ticks": 33598,
          "time": 33.868883875,
          "velocity": 0.2047244094488189
        },
        {
          "duration": 0.09677399999999636,
          "durationTicks": 96,
          "midi": 55,
          "name": "G3",
          "ticks": 33598,
          "time": 33.868883875,
          "velocity": 0.2440944881889764
        },
        {
          "duration": 0.09677400000000347,
          "durationTicks": 96,
          "midi": 51,
          "name": "D#3",
          "ticks": 33790,
          "time": 34.062431875,
          "velocity": 0.2440944881889764
        },
        {
          "duration": 0.09677399999999636,
          "durationTicks": 96,
          "midi": 55,
          "name": "G3",
          "ticks": 33993,
          "time": 34.2670685625,
          "velocity": 0.2047244094488189
        },
        {
          "duration": 0.09677399999999636,
          "durationTicks": 96,
          "midi": 58,
          "name": "A#3",
          "ticks": 33993,
          "time": 34.2670685625,
          "velocity": 0.2440944881889764
        },
        {
          "duration": 0.09677400000000347,
          "durationTicks": 96,
          "midi": 46,
          "name": "A#2",
          "ticks": 34184,
          "time": 34.459608499999995,
          "velocity": 0.2283464566929134
        },
        {
          "duration": 0.09677399999999636,
          "durationTicks": 96,
          "midi": 55,
          "name": "G3",
          "ticks": 34373,
          "time": 34.6501323125,
          "velocity": 0.2047244094488189
        },
        {
          "duration": 0.09677399999999636,
          "durationTicks": 96,
          "midi": 58,
          "name": "A#3",
          "ticks": 34373,
          "time": 34.6501323125,
          "velocity": 0.2440944881889764
        },
        {
          "duration": 0.09677400000000347,
          "durationTicks": 96,
          "midi": 51,
          "name": "D#3",
          "ticks": 34564,
          "time": 34.84267225,
          "velocity": 0.23622047244094488
        },
        {
          "duration": 0.09677399999999636,
          "durationTicks": 96,
          "midi": 55,
          "name": "G3",
          "ticks": 34755,
          "time": 35.0352121875,
          "velocity": 0.2047244094488189
        },
        {
          "duration": 0.09677399999999636,
          "durationTicks": 96,
          "midi": 58,
          "name": "A#3",
          "ticks": 34755,
          "time": 35.0352121875,
          "velocity": 0.2440944881889764
        },
        {
          "duration": 0.09677399999999636,
          "durationTicks": 96,
          "midi": 46,
          "name": "A#2",
          "ticks": 34945,
          "time": 35.2267440625,
          "velocity": 0.2283464566929134
        },
        {
          "duration": 0.09677400000000347,
          "durationTicks": 96,
          "midi": 55,
          "name": "G3",
          "ticks": 35134,
          "time": 35.417267875,
          "velocity": 0.2047244094488189
        },
        {
          "duration": 0.09677400000000347,
          "durationTicks": 96,
          "midi": 58,
          "name": "A#3",
          "ticks": 35134,
          "time": 35.417267875,
          "velocity": 0.2440944881889764
        },
        {
          "duration": 0.09677400000000347,
          "durationTicks": 96,
          "midi": 46,
          "name": "A#2",
          "ticks": 35326,
          "time": 35.610815875,
          "velocity": 0.2440944881889764
        },
        {
          "duration": 0.09677400000000347,
          "durationTicks": 96,
          "midi": 50,
          "name": "D3",
          "ticks": 35529,
          "time": 35.8154525625,
          "velocity": 0.2047244094488189
        },
        {
          "duration": 0.09677400000000347,
          "durationTicks": 96,
          "midi": 53,
          "name": "F3",
          "ticks": 35529,
          "time": 35.8154525625,
          "velocity": 0.2440944881889764
        },
        {
          "duration": 0.09677399999999636,
          "durationTicks": 96,
          "midi": 41,
          "name": "F2",
          "ticks": 35720,
          "time": 36.0079925,
          "velocity": 0.2283464566929134
        },
        {
          "duration": 0.09677400000000347,
          "durationTicks": 96,
          "midi": 50,
          "name": "D3",
          "ticks": 35909,
          "time": 36.1985163125,
          "velocity": 0.2047244094488189
        },
        {
          "duration": 0.09677400000000347,
          "durationTicks": 96,
          "midi": 53,
          "name": "F3",
          "ticks": 35909,
          "time": 36.1985163125,
          "velocity": 0.2440944881889764
        },
        {
          "duration": 0.09677400000000347,
          "durationTicks": 96,
          "midi": 46,
          "name": "A#2",
          "ticks": 36100,
          "time": 36.39105625,
          "velocity": 0.23622047244094488
        },
        {
          "duration": 0.09677400000000347,
          "durationTicks": 96,
          "midi": 50,
          "name": "D3",
          "ticks": 36291,
          "time": 36.5835961875,
          "velocity": 0.2047244094488189
        },
        {
          "duration": 0.09677400000000347,
          "durationTicks": 96,
          "midi": 53,
          "name": "F3",
          "ticks": 36291,
          "time": 36.5835961875,
          "velocity": 0.2440944881889764
        },
        {
          "duration": 0.09677399999999636,
          "durationTicks": 96,
          "midi": 41,
          "name": "F2",
          "ticks": 36481,
          "time": 36.7751280625,
          "velocity": 0.2283464566929134
        },
        {
          "duration": 0.09677400000000347,
          "durationTicks": 96,
          "midi": 50,
          "name": "D3",
          "ticks": 36670,
          "time": 36.965651875,
          "velocity": 0.2047244094488189
        },
        {
          "duration": 0.09677400000000347,
          "durationTicks": 96,
          "midi": 53,
          "name": "F3",
          "ticks": 36670,
          "time": 36.965651875,
          "velocity": 0.2440944881889764
        },
        {
          "duration": 0.09677400000000347,
          "durationTicks": 96,
          "midi": 44,
          "name": "G#2",
          "ticks": 36862,
          "time": 37.159199875,
          "velocity": 0.2440944881889764
        },
        {
          "duration": 0.09677400000000347,
          "durationTicks": 96,
          "midi": 48,
          "name": "C3",
          "ticks": 37065,
          "time": 37.3638365625,
          "velocity": 0.2047244094488189
        },
        {
          "duration": 0.09677400000000347,
          "durationTicks": 96,
          "midi": 51,
          "name": "D#3",
          "ticks": 37065,
          "time": 37.3638365625,
          "velocity": 0.2440944881889764
        },
        {
          "duration": 0.09677399999999636,
          "durationTicks": 96,
          "midi": 39,
          "name": "D#2",
          "ticks": 37256,
          "time": 37.5563765,
          "velocity": 0.2283464566929134
        },
        {
          "duration": 0.09677400000000347,
          "durationTicks": 96,
          "midi": 48,
          "name": "C3",
          "ticks": 37445,
          "time": 37.746900312499996,
          "velocity": 0.2047244094488189
        },
        {
          "duration": 0.09677400000000347,
          "durationTicks": 96,
          "midi": 51,
          "name": "D#3",
          "ticks": 37445,
          "time": 37.746900312499996,
          "velocity": 0.2440944881889764
        },
        {
          "duration": 0.09677399999999636,
          "durationTicks": 96,
          "midi": 43,
          "name": "G2",
          "ticks": 37636,
          "time": 37.939440250000004,
          "velocity": 0.23622047244094488
        },
        {
          "duration": 0.09677400000000347,
          "durationTicks": 96,
          "midi": 47,
          "name": "B2",
          "ticks": 37827,
          "time": 38.1319801875,
          "velocity": 0.2047244094488189
        },
        {
          "duration": 0.09677400000000347,
          "durationTicks": 96,
          "midi": 50,
          "name": "D3",
          "ticks": 37827,
          "time": 38.1319801875,
          "velocity": 0.2440944881889764
        },
        {
          "duration": 0.09677400000000347,
          "durationTicks": 96,
          "midi": 38,
          "name": "D2",
          "ticks": 38017,
          "time": 38.3235120625,
          "velocity": 0.2283464566929134
        },
        {
          "duration": 0.09677399999999636,
          "durationTicks": 96,
          "midi": 47,
          "name": "B2",
          "ticks": 38206,
          "time": 38.514035875000005,
          "velocity": 0.2047244094488189
        },
        {
          "duration": 0.09677399999999636,
          "durationTicks": 96,
          "midi": 50,
          "name": "D3",
          "ticks": 38206,
          "time": 38.514035875000005,
          "velocity": 0.2440944881889764
        },
        {
          "duration": 0.09677399999999636,
          "durationTicks": 96,
          "midi": 48,
          "name": "C3",
          "ticks": 38398,
          "time": 38.707583875000005,
          "velocity": 0.2440944881889764
        },
        {
          "duration": 0.09677400000000347,
          "durationTicks": 96,
          "midi": 51,
          "name": "D#3",
          "ticks": 38601,
          "time": 38.912220562499996,
          "velocity": 0.2047244094488189
        },
        {
          "duration": 0.09677400000000347,
          "durationTicks": 96,
          "midi": 55,
          "name": "G3",
          "ticks": 38601,
          "time": 38.912220562499996,
          "velocity": 0.2440944881889764
        },
        {
          "duration": 0.09677400000000347,
          "durationTicks": 96,
          "midi": 43,
          "name": "G2",
          "ticks": 38792,
          "time": 39.1047605,
          "velocity": 0.2283464566929134
        },
        {
          "duration": 0.09677400000000347,
          "durationTicks": 96,
          "midi": 51,
          "name": "D#3",
          "ticks": 38981,
          "time": 39.295284312499994,
          "velocity": 0.2047244094488189
        },
        {
          "duration": 0.09677400000000347,
          "durationTicks": 96,
          "midi": 55,
          "name": "G3",
          "ticks": 38981,
          "time": 39.295284312499994,
          "velocity": 0.2440944881889764
        },
        {
          "duration": 0.09677399999999636,
          "durationTicks": 96,
          "midi": 48,
          "name": "C3",
          "ticks": 39172,
          "time": 39.48782425,
          "velocity": 0.23622047244094488
        },
        {
          "duration": 0.09677400000000347,
          "durationTicks": 96,
          "midi": 51,
          "name": "D#3",
          "ticks": 39363,
          "time": 39.6803641875,
          "velocity": 0.2047244094488189
        },
        {
          "duration": 0.09677400000000347,
          "durationTicks": 96,
          "midi": 55,
          "name": "G3",
          "ticks": 39363,
          "time": 39.6803641875,
          "velocity": 0.2440944881889764
        },
        {
          "duration": 0.09677400000000347,
          "durationTicks": 96,
          "midi": 43,
          "name": "G2",
          "ticks": 39553,
          "time": 39.8718960625,
          "velocity": 0.2283464566929134
        },
        {
          "duration": 0.09677399999999636,
          "durationTicks": 96,
          "midi": 51,
          "name": "D#3",
          "ticks": 39742,
          "time": 40.062419875,
          "velocity": 0.2047244094488189
        },
        {
          "duration": 0.09677399999999636,
          "durationTicks": 96,
          "midi": 55,
          "name": "G3",
          "ticks": 39742,
          "time": 40.062419875,
          "velocity": 0.2440944881889764
        },
        {
          "duration": 0.09677399999999636,
          "durationTicks": 96,
          "midi": 51,
          "name": "D#3",
          "ticks": 39934,
          "time": 40.255967875,
          "velocity": 0.2440944881889764
        },
        {
          "duration": 0.09677399999999636,
          "durationTicks": 96,
          "midi": 55,
          "name": "G3",
          "ticks": 40137,
          "time": 40.4606045625,
          "velocity": 0.2047244094488189
        },
        {
          "duration": 0.09677399999999636,
          "durationTicks": 96,
          "midi": 58,
          "name": "A#3",
          "ticks": 40137,
          "time": 40.4606045625,
          "velocity": 0.2440944881889764
        },
        {
          "duration": 0.09677400000000347,
          "durationTicks": 96,
          "midi": 46,
          "name": "A#2",
          "ticks": 40328,
          "time": 40.653144499999996,
          "velocity": 0.2283464566929134
        },
        {
          "duration": 0.09677399999999636,
          "durationTicks": 96,
          "midi": 55,
          "name": "G3",
          "ticks": 40517,
          "time": 40.8436683125,
          "velocity": 0.2047244094488189
        },
        {
          "duration": 0.09677399999999636,
          "durationTicks": 96,
          "midi": 58,
          "name": "A#3",
          "ticks": 40517,
          "time": 40.8436683125,
          "velocity": 0.2440944881889764
        },
        {
          "duration": 0.09677400000000347,
          "durationTicks": 96,
          "midi": 51,
          "name": "D#3",
          "ticks": 40708,
          "time": 41.03620825,
          "velocity": 0.23622047244094488
        },
        {
          "duration": 0.09677399999999636,
          "durationTicks": 96,
          "midi": 55,
          "name": "G3",
          "ticks": 40899,
          "time": 41.2287481875,
          "velocity": 0.2047244094488189
        },
        {
          "duration": 0.09677399999999636,
          "durationTicks": 96,
          "midi": 58,
          "name": "A#3",
          "ticks": 40899,
          "time": 41.2287481875,
          "velocity": 0.2440944881889764
        },
        {
          "duration": 0.09677400000000347,
          "durationTicks": 96,
          "midi": 46,
          "name": "A#2",
          "ticks": 41089,
          "time": 41.4202800625,
          "velocity": 0.2283464566929134
        },
        {
          "duration": 0.09677399999999636,
          "durationTicks": 96,
          "midi": 55,
          "name": "G3",
          "ticks": 41278,
          "time": 41.610803875,
          "velocity": 0.2047244094488189
        },
        {
          "duration": 0.09677399999999636,
          "durationTicks": 96,
          "midi": 58,
          "name": "A#3",
          "ticks": 41278,
          "time": 41.610803875,
          "velocity": 0.2440944881889764
        },
        {
          "duration": 0.09677399999999636,
          "durationTicks": 96,
          "midi": 46,
          "name": "A#2",
          "ticks": 41470,
          "time": 41.804351875,
          "velocity": 0.2440944881889764
        },
        {
          "duration": 0.09677399999999636,
          "durationTicks": 96,
          "midi": 50,
          "name": "D3",
          "ticks": 41673,
          "time": 42.0089885625,
          "velocity": 0.2047244094488189
        },
        {
          "duration": 0.09677399999999636,
          "durationTicks": 96,
          "midi": 53,
          "name": "F3",
          "ticks": 41673,
          "time": 42.0089885625,
          "velocity": 0.2440944881889764
        },
        {
          "duration": 0.09677400000000347,
          "durationTicks": 96,
          "midi": 41,
          "name": "F2",
          "ticks": 41864,
          "time": 42.201528499999995,
          "velocity": 0.2283464566929134
        },
        {
          "duration": 0.09677399999999636,
          "durationTicks": 96,
          "midi": 50,
          "name": "D3",
          "ticks": 42053,
          "time": 42.3920523125,
          "velocity": 0.2047244094488189
        },
        {
          "duration": 0.09677399999999636,
          "durationTicks": 96,
          "midi": 53,
          "name": "F3",
          "ticks": 42053,
          "time": 42.3920523125,
          "velocity": 0.2440944881889764
        },
        {
          "duration": 0.09677400000000347,
          "durationTicks": 96,
          "midi": 46,
          "name": "A#2",
          "ticks": 42244,
          "time": 42.58459225,
          "velocity": 0.23622047244094488
        },
        {
          "duration": 0.09677399999999636,
          "durationTicks": 96,
          "midi": 50,
          "name": "D3",
          "ticks": 42435,
          "time": 42.7771321875,
          "velocity": 0.2047244094488189
        },
        {
          "duration": 0.09677399999999636,
          "durationTicks": 96,
          "midi": 53,
          "name": "F3",
          "ticks": 42435,
          "time": 42.7771321875,
          "velocity": 0.2440944881889764
        },
        {
          "duration": 0.09677399999999636,
          "durationTicks": 96,
          "midi": 41,
          "name": "F2",
          "ticks": 42625,
          "time": 42.968664062500004,
          "velocity": 0.2283464566929134
        },
        {
          "duration": 0.09677400000000347,
          "durationTicks": 96,
          "midi": 50,
          "name": "D3",
          "ticks": 42814,
          "time": 43.159187875,
          "velocity": 0.2047244094488189
        },
        {
          "duration": 0.09677400000000347,
          "durationTicks": 96,
          "midi": 53,
          "name": "F3",
          "ticks": 42814,
          "time": 43.159187875,
          "velocity": 0.2440944881889764
        },
        {
          "duration": 0.09677400000000347,
          "durationTicks": 96,
          "midi": 44,
          "name": "G#2",
          "ticks": 43006,
          "time": 43.352735875,
          "velocity": 0.2440944881889764
        },
        {
          "duration": 0.09677400000000347,
          "durationTicks": 96,
          "midi": 48,
          "name": "C3",
          "ticks": 43209,
          "time": 43.5573725625,
          "velocity": 0.2047244094488189
        },
        {
          "duration": 0.09677400000000347,
          "durationTicks": 96,
          "midi": 51,
          "name": "D#3",
          "ticks": 43209,
          "time": 43.5573725625,
          "velocity": 0.2440944881889764
        },
        {
          "duration": 0.09677399999999636,
          "durationTicks": 96,
          "midi": 39,
          "name": "D#2",
          "ticks": 43400,
          "time": 43.7499125,
          "velocity": 0.2283464566929134
        },
        {
          "duration": 0.09677400000000347,
          "durationTicks": 96,
          "midi": 48,
          "name": "C3",
          "ticks": 43589,
          "time": 43.9404363125,
          "velocity": 0.2047244094488189
        },
        {
          "duration": 0.09677400000000347,
          "durationTicks": 96,
          "midi": 51,
          "name": "D#3",
          "ticks": 43589,
          "time": 43.9404363125,
          "velocity": 0.2440944881889764
        },
        {
          "duration": 0.09677400000000347,
          "durationTicks": 96,
          "midi": 43,
          "name": "G2",
          "ticks": 43780,
          "time": 44.13297625,
          "velocity": 0.23622047244094488
        },
        {
          "duration": 0.09677399999999636,
          "durationTicks": 96,
          "midi": 47,
          "name": "B2",
          "ticks": 43971,
          "time": 44.3255161875,
          "velocity": 0.2047244094488189
        },
        {
          "duration": 0.09677399999999636,
          "durationTicks": 96,
          "midi": 50,
          "name": "D3",
          "ticks": 43971,
          "time": 44.3255161875,
          "velocity": 0.2440944881889764
        },
        {
          "duration": 0.09677399999999636,
          "durationTicks": 96,
          "midi": 38,
          "name": "D2",
          "ticks": 44161,
          "time": 44.5170480625,
          "velocity": 0.2283464566929134
        },
        {
          "duration": 0.09677400000000347,
          "durationTicks": 96,
          "midi": 47,
          "name": "B2",
          "ticks": 44350,
          "time": 44.707571875,
          "velocity": 0.2047244094488189
        },
        {
          "duration": 0.09677400000000347,
          "durationTicks": 96,
          "midi": 50,
          "name": "D3",
          "ticks": 44350,
          "time": 44.707571875,
          "velocity": 0.2440944881889764
        },
        {
          "duration": 0.09677400000000347,
          "durationTicks": 96,
          "midi": 44,
          "name": "G#2",
          "ticks": 44542,
          "time": 44.901119875,
          "velocity": 0.2440944881889764
        },
        {
          "duration": 0.09677400000000347,
          "durationTicks": 96,
          "midi": 48,
          "name": "C3",
          "ticks": 44745,
          "time": 45.1057565625,
          "velocity": 0.2047244094488189
        },
        {
          "duration": 0.09677400000000347,
          "durationTicks": 96,
          "midi": 51,
          "name": "D#3",
          "ticks": 44745,
          "time": 45.1057565625,
          "velocity": 0.2440944881889764
        },
        {
          "duration": 0.09677399999999636,
          "durationTicks": 96,
          "midi": 39,
          "name": "D#2",
          "ticks": 44936,
          "time": 45.2982965,
          "velocity": 0.2283464566929134
        },
        {
          "duration": 0.09677400000000347,
          "durationTicks": 96,
          "midi": 48,
          "name": "C3",
          "ticks": 45125,
          "time": 45.488820312499996,
          "velocity": 0.2047244094488189
        },
        {
          "duration": 0.09677400000000347,
          "durationTicks": 96,
          "midi": 51,
          "name": "D#3",
          "ticks": 45125,
          "time": 45.488820312499996,
          "velocity": 0.2440944881889764
        },
        {
          "duration": 0.09677399999999636,
          "durationTicks": 96,
          "midi": 44,
          "name": "G#2",
          "ticks": 45316,
          "time": 45.681360250000004,
          "velocity": 0.23622047244094488
        },
        {
          "duration": 0.09677400000000347,
          "durationTicks": 96,
          "midi": 48,
          "name": "C3",
          "ticks": 45507,
          "time": 45.8739001875,
          "velocity": 0.2047244094488189
        },
        {
          "duration": 0.09677400000000347,
          "durationTicks": 96,
          "midi": 51,
          "name": "D#3",
          "ticks": 45507,
          "time": 45.8739001875,
          "velocity": 0.2440944881889764
        },
        {
          "duration": 0.09677400000000347,
          "durationTicks": 96,
          "midi": 39,
          "name": "D#2",
          "ticks": 45697,
          "time": 46.0654320625,
          "velocity": 0.2283464566929134
        },
        {
          "duration": 0.09677400000000347,
          "durationTicks": 96,
          "midi": 48,
          "name": "C3",
          "ticks": 45886,
          "time": 46.255955875,
          "velocity": 0.2047244094488189
        },
        {
          "duration": 0.09677400000000347,
          "durationTicks": 96,
          "midi": 51,
          "name": "D#3",
          "ticks": 45886,
          "time": 46.255955875,
          "velocity": 0.2440944881889764
        },
        {
          "duration": 0.09677400000000347,
          "durationTicks": 96,
          "midi": 53,
          "name": "F3",
          "ticks": 46078,
          "time": 46.449503875,
          "velocity": 0.2440944881889764
        },
        {
          "duration": 0.09677400000000347,
          "durationTicks": 96,
          "midi": 56,
          "name": "G#3",
          "ticks": 46281,
          "time": 46.6541405625,
          "velocity": 0.2047244094488189
        },
        {
          "duration": 0.09677400000000347,
          "durationTicks": 96,
          "midi": 60,
          "name": "C4",
          "ticks": 46281,
          "time": 46.6541405625,
          "velocity": 0.2440944881889764
        },
        {
          "duration": 0.09677399999999636,
          "durationTicks": 96,
          "midi": 48,
          "name": "C3",
          "ticks": 46472,
          "time": 46.8466805,
          "velocity": 0.2283464566929134
        },
        {
          "duration": 0.09677400000000347,
          "durationTicks": 96,
          "midi": 56,
          "name": "G#3",
          "ticks": 46661,
          "time": 47.037204312499995,
          "velocity": 0.2047244094488189
        },
        {
          "duration": 0.09677400000000347,
          "durationTicks": 96,
          "midi": 60,
          "name": "C4",
          "ticks": 46661,
          "time": 47.037204312499995,
          "velocity": 0.2440944881889764
        },
        {
          "duration": 0.09677399999999636,
          "durationTicks": 96,
          "midi": 53,
          "name": "F3",
          "ticks": 46852,
          "time": 47.22974425,
          "velocity": 0.23622047244094488
        },
        {
          "duration": 0.09677400000000347,
          "durationTicks": 96,
          "midi": 56,
          "name": "G#3",
          "ticks": 47043,
          "time": 47.4222841875,
          "velocity": 0.2047244094488189
        },
        {
          "duration": 0.09677400000000347,
          "durationTicks": 96,
          "midi": 60,
          "name": "C4",
          "ticks": 47043,
          "time": 47.4222841875,
          "velocity": 0.2440944881889764
        },
        {
          "duration": 0.09677400000000347,
          "durationTicks": 96,
          "midi": 48,
          "name": "C3",
          "ticks": 47233,
          "time": 47.6138160625,
          "velocity": 0.2283464566929134
        },
        {
          "duration": 0.09677399999999636,
          "durationTicks": 96,
          "midi": 56,
          "name": "G#3",
          "ticks": 47422,
          "time": 47.804339875000004,
          "velocity": 0.2047244094488189
        },
        {
          "duration": 0.09677399999999636,
          "durationTicks": 96,
          "midi": 60,
          "name": "C4",
          "ticks": 47422,
          "time": 47.804339875000004,
          "velocity": 0.2440944881889764
        },
        {
          "duration": 0.09677399999999636,
          "durationTicks": 96,
          "midi": 46,
          "name": "A#2",
          "ticks": 47614,
          "time": 47.997887875,
          "velocity": 0.2440944881889764
        },
        {
          "duration": 0.09677399999999636,
          "durationTicks": 96,
          "midi": 50,
          "name": "D3",
          "ticks": 47817,
          "time": 48.2025245625,
          "velocity": 0.2047244094488189
        },
        {
          "duration": 0.09677399999999636,
          "durationTicks": 96,
          "midi": 53,
          "name": "F3",
          "ticks": 47817,
          "time": 48.2025245625,
          "velocity": 0.2440944881889764
        },
        {
          "duration": 0.09677400000000347,
          "durationTicks": 96,
          "midi": 41,
          "name": "F2",
          "ticks": 48008,
          "time": 48.3950645,
          "velocity": 0.2283464566929134
        },
        {
          "duration": 0.09677399999999636,
          "durationTicks": 96,
          "midi": 50,
          "name": "D3",
          "ticks": 48197,
          "time": 48.5855883125,
          "velocity": 0.2047244094488189
        },
        {
          "duration": 0.09677399999999636,
          "durationTicks": 96,
          "midi": 53,
          "name": "F3",
          "ticks": 48197,
          "time": 48.5855883125,
          "velocity": 0.2440944881889764
        },
        {
          "duration": 0.09677399999999636,
          "durationTicks": 96,
          "midi": 46,
          "name": "A#2",
          "ticks": 48388,
          "time": 48.77812825,
          "velocity": 0.23622047244094488
        },
        {
          "duration": 0.09677399999999636,
          "durationTicks": 96,
          "midi": 50,
          "name": "D3",
          "ticks": 48579,
          "time": 48.9706681875,
          "velocity": 0.2047244094488189
        },
        {
          "duration": 0.09677399999999636,
          "durationTicks": 96,
          "midi": 53,
          "name": "F3",
          "ticks": 48579,
          "time": 48.9706681875,
          "velocity": 0.2440944881889764
        },
        {
          "duration": 0.09677400000000347,
          "durationTicks": 96,
          "midi": 41,
          "name": "F2",
          "ticks": 48769,
          "time": 49.1622000625,
          "velocity": 0.2283464566929134
        },
        {
          "duration": 0.09677399999999636,
          "durationTicks": 96,
          "midi": 50,
          "name": "D3",
          "ticks": 48958,
          "time": 49.352723875,
          "velocity": 0.2047244094488189
        },
        {
          "duration": 0.09677399999999636,
          "durationTicks": 96,
          "midi": 53,
          "name": "F3",
          "ticks": 48958,
          "time": 49.352723875,
          "velocity": 0.2440944881889764
        },
        {
          "duration": 0.09677399999999636,
          "durationTicks": 96,
          "midi": 44,
          "name": "G#2",
          "ticks": 49150,
          "time": 49.546271875,
          "velocity": 0.2440944881889764
        },
        {
          "duration": 0.09677399999999636,
          "durationTicks": 96,
          "midi": 48,
          "name": "C3",
          "ticks": 49353,
          "time": 49.7509085625,
          "velocity": 0.2047244094488189
        },
        {
          "duration": 0.09677399999999636,
          "durationTicks": 96,
          "midi": 51,
          "name": "D#3",
          "ticks": 49353,
          "time": 49.7509085625,
          "velocity": 0.2440944881889764
        },
        {
          "duration": 0.09677400000000347,
          "durationTicks": 96,
          "midi": 39,
          "name": "D#2",
          "ticks": 49544,
          "time": 49.9434485,
          "velocity": 0.2283464566929134
        },
        {
          "duration": 0.09677399999999636,
          "durationTicks": 96,
          "midi": 48,
          "name": "C3",
          "ticks": 49733,
          "time": 50.133972312500006,
          "velocity": 0.2047244094488189
        },
        {
          "duration": 0.09677399999999636,
          "durationTicks": 96,
          "midi": 51,
          "name": "D#3",
          "ticks": 49733,
          "time": 50.133972312500006,
          "velocity": 0.2440944881889764
        },
        {
          "duration": 0.09677400000000347,
          "durationTicks": 96,
          "midi": 43,
          "name": "G2",
          "ticks": 49924,
          "time": 50.32651224999999,
          "velocity": 0.23622047244094488
        },
        {
          "duration": 0.09677399999999636,
          "durationTicks": 96,
          "midi": 47,
          "name": "B2",
          "ticks": 50115,
          "time": 50.5190521875,
          "velocity": 0.2047244094488189
        },
        {
          "duration": 0.09677399999999636,
          "durationTicks": 96,
          "midi": 50,
          "name": "D3",
          "ticks": 50115,
          "time": 50.5190521875,
          "velocity": 0.2440944881889764
        },
        {
          "duration": 0.09677399999999636,
          "durationTicks": 96,
          "midi": 38,
          "name": "D2",
          "ticks": 50305,
          "time": 50.7105840625,
          "velocity": 0.2283464566929134
        },
        {
          "duration": 0.09677400000000347,
          "durationTicks": 96,
          "midi": 47,
          "name": "B2",
          "ticks": 50494,
          "time": 50.901107874999994,
          "velocity": 0.2047244094488189
        },
        {
          "duration": 0.09677400000000347,
          "durationTicks": 96,
          "midi": 50,
          "name": "D3",
          "ticks": 50494,
          "time": 50.901107874999994,
          "velocity": 0.2440944881889764
        },
        {
          "duration": 0.09677400000000347,
          "durationTicks": 96,
          "midi": 44,
          "name": "G#2",
          "ticks": 50686,
          "time": 51.094655874999994,
          "velocity": 0.2440944881889764
        },
        {
          "duration": 0.09677399999999636,
          "durationTicks": 96,
          "midi": 48,
          "name": "C3",
          "ticks": 50889,
          "time": 51.2992925625,
          "velocity": 0.2047244094488189
        },
        {
          "duration": 0.09677399999999636,
          "durationTicks": 96,
          "midi": 51,
          "name": "D#3",
          "ticks": 50889,
          "time": 51.2992925625,
          "velocity": 0.2440944881889764
        },
        {
          "duration": 0.09677400000000347,
          "durationTicks": 96,
          "midi": 39,
          "name": "D#2",
          "ticks": 51080,
          "time": 51.4918325,
          "velocity": 0.2283464566929134
        },
        {
          "duration": 0.09677399999999636,
          "durationTicks": 96,
          "midi": 48,
          "name": "C3",
          "ticks": 51269,
          "time": 51.682356312500005,
          "velocity": 0.2047244094488189
        },
        {
          "duration": 0.09677399999999636,
          "durationTicks": 96,
          "midi": 51,
          "name": "D#3",
          "ticks": 51269,
          "time": 51.682356312500005,
          "velocity": 0.2440944881889764
        },
        {
          "duration": 0.09677399999999636,
          "durationTicks": 96,
          "midi": 44,
          "name": "G#2",
          "ticks": 51460,
          "time": 51.87489625,
          "velocity": 0.23622047244094488
        },
        {
          "duration": 0.09677399999999636,
          "durationTicks": 96,
          "midi": 48,
          "name": "C3",
          "ticks": 51651,
          "time": 52.0674361875,
          "velocity": 0.2047244094488189
        },
        {
          "duration": 0.09677399999999636,
          "durationTicks": 96,
          "midi": 51,
          "name": "D#3",
          "ticks": 51651,
          "time": 52.0674361875,
          "velocity": 0.2440944881889764
        },
        {
          "duration": 0.09677400000000347,
          "durationTicks": 96,
          "midi": 39,
          "name": "D#2",
          "ticks": 51841,
          "time": 52.258968062499996,
          "velocity": 0.2283464566929134
        },
        {
          "duration": 0.09677400000000347,
          "durationTicks": 96,
          "midi": 48,
          "name": "C3",
          "ticks": 52030,
          "time": 52.44949187499999,
          "velocity": 0.2047244094488189
        },
        {
          "duration": 0.09677400000000347,
          "durationTicks": 96,
          "midi": 51,
          "name": "D#3",
          "ticks": 52030,
          "time": 52.44949187499999,
          "velocity": 0.2440944881889764
        },
        {
          "duration": 0.09677400000000347,
          "durationTicks": 96,
          "midi": 53,
          "name": "F3",
          "ticks": 52222,
          "time": 52.64303987499999,
          "velocity": 0.2440944881889764
        },
        {
          "duration": 0.09677400000000347,
          "durationTicks": 96,
          "midi": 56,
          "name": "G#3",
          "ticks": 52425,
          "time": 52.8476765625,
          "velocity": 0.2047244094488189
        },
        {
          "duration": 0.09677400000000347,
          "durationTicks": 96,
          "midi": 60,
          "name": "C4",
          "ticks": 52425,
          "time": 52.8476765625,
          "velocity": 0.2440944881889764
        },
        {
          "duration": 0.09677400000000347,
          "durationTicks": 96,
          "midi": 48,
          "name": "C3",
          "ticks": 52616,
          "time": 53.0402165,
          "velocity": 0.2283464566929134
        },
        {
          "duration": 0.09677399999999636,
          "durationTicks": 96,
          "midi": 56,
          "name": "G#3",
          "ticks": 52805,
          "time": 53.230740312500004,
          "velocity": 0.2047244094488189
        },
        {
          "duration": 0.09677399999999636,
          "durationTicks": 96,
          "midi": 60,
          "name": "C4",
          "ticks": 52805,
          "time": 53.230740312500004,
          "velocity": 0.2440944881889764
        },
        {
          "duration": 0.09677399999999636,
          "durationTicks": 96,
          "midi": 53,
          "name": "F3",
          "ticks": 52996,
          "time": 53.42328025,
          "velocity": 0.23622047244094488
        },
        {
          "duration": 0.09677400000000347,
          "durationTicks": 96,
          "midi": 56,
          "name": "G#3",
          "ticks": 53187,
          "time": 53.6158201875,
          "velocity": 0.2047244094488189
        },
        {
          "duration": 0.09677400000000347,
          "durationTicks": 96,
          "midi": 60,
          "name": "C4",
          "ticks": 53187,
          "time": 53.6158201875,
          "velocity": 0.2440944881889764
        },
        {
          "duration": 0.09677400000000347,
          "durationTicks": 96,
          "midi": 48,
          "name": "C3",
          "ticks": 53377,
          "time": 53.807352062499994,
          "velocity": 0.2283464566929134
        },
        {
          "duration": 0.09677399999999636,
          "durationTicks": 96,
          "midi": 56,
          "name": "G#3",
          "ticks": 53566,
          "time": 53.997875875,
          "velocity": 0.2047244094488189
        },
        {
          "duration": 0.09677399999999636,
          "durationTicks": 96,
          "midi": 60,
          "name": "C4",
          "ticks": 53566,
          "time": 53.997875875,
          "velocity": 0.2440944881889764
        },
        {
          "duration": 0.09677399999999636,
          "durationTicks": 96,
          "midi": 46,
          "name": "A#2",
          "ticks": 53758,
          "time": 54.191423875,
          "velocity": 0.2440944881889764
        },
        {
          "duration": 0.09677400000000347,
          "durationTicks": 96,
          "midi": 50,
          "name": "D3",
          "ticks": 53961,
          "time": 54.3960605625,
          "velocity": 0.2047244094488189
        },
        {
          "duration": 0.09677400000000347,
          "durationTicks": 96,
          "midi": 53,
          "name": "F3",
          "ticks": 53961,
          "time": 54.3960605625,
          "velocity": 0.2440944881889764
        },
        {
          "duration": 0.09677399999999636,
          "durationTicks": 96,
          "midi": 41,
          "name": "F2",
          "ticks": 54152,
          "time": 54.588600500000005,
          "velocity": 0.2283464566929134
        },
        {
          "duration": 0.09677400000000347,
          "durationTicks": 96,
          "midi": 50,
          "name": "D3",
          "ticks": 54341,
          "time": 54.7791243125,
          "velocity": 0.2047244094488189
        },
        {
          "duration": 0.09677400000000347,
          "durationTicks": 96,
          "midi": 53,
          "name": "F3",
          "ticks": 54341,
          "time": 54.7791243125,
          "velocity": 0.2440944881889764
        },
        {
          "duration": 0.09677399999999636,
          "durationTicks": 96,
          "midi": 46,
          "name": "A#2",
          "ticks": 54532,
          "time": 54.971664249999996,
          "velocity": 0.23622047244094488
        },
        {
          "duration": 0.09677400000000347,
          "durationTicks": 96,
          "midi": 50,
          "name": "D3",
          "ticks": 54723,
          "time": 55.1642041875,
          "velocity": 0.2047244094488189
        },
        {
          "duration": 0.09677400000000347,
          "durationTicks": 96,
          "midi": 53,
          "name": "F3",
          "ticks": 54723,
          "time": 55.1642041875,
          "velocity": 0.2440944881889764
        },
        {
          "duration": 0.09677400000000347,
          "durationTicks": 96,
          "midi": 41,
          "name": "F2",
          "ticks": 54913,
          "time": 55.35573606249999,
          "velocity": 0.2283464566929134
        },
        {
          "duration": 0.09677399999999636,
          "durationTicks": 96,
          "midi": 50,
          "name": "D3",
          "ticks": 55102,
          "time": 55.546259875,
          "velocity": 0.2047244094488189
        },
        {
          "duration": 0.09677399999999636,
          "durationTicks": 96,
          "midi": 53,
          "name": "F3",
          "ticks": 55102,
          "time": 55.546259875,
          "velocity": 0.2440944881889764
        },
        {
          "duration": 0.09677399999999636,
          "durationTicks": 96,
          "midi": 44,
          "name": "G#2",
          "ticks": 55294,
          "time": 55.739807875,
          "velocity": 0.2440944881889764
        },
        {
          "duration": 0.09677399999999636,
          "durationTicks": 96,
          "midi": 48,
          "name": "C3",
          "ticks": 55497,
          "time": 55.9444445625,
          "velocity": 0.2047244094488189
        },
        {
          "duration": 0.09677399999999636,
          "durationTicks": 96,
          "midi": 51,
          "name": "D#3",
          "ticks": 55497,
          "time": 55.9444445625,
          "velocity": 0.2440944881889764
        },
        {
          "duration": 0.09677399999999636,
          "durationTicks": 96,
          "midi": 39,
          "name": "D#2",
          "ticks": 55688,
          "time": 56.136984500000004,
          "velocity": 0.2283464566929134
        },
        {
          "duration": 0.09677400000000347,
          "durationTicks": 96,
          "midi": 48,
          "name": "C3",
          "ticks": 55877,
          "time": 56.3275083125,
          "velocity": 0.2047244094488189
        },
        {
          "duration": 0.09677400000000347,
          "durationTicks": 96,
          "midi": 51,
          "name": "D#3",
          "ticks": 55877,
          "time": 56.3275083125,
          "velocity": 0.2440944881889764
        },
        {
          "duration": 0.09677400000000347,
          "durationTicks": 96,
          "midi": 43,
          "name": "G2",
          "ticks": 56068,
          "time": 56.520048249999995,
          "velocity": 0.23622047244094488
        },
        {
          "duration": 0.09677400000000347,
          "durationTicks": 96,
          "midi": 47,
          "name": "B2",
          "ticks": 56259,
          "time": 56.712588187499996,
          "velocity": 0.2125984251968504
        },
        {
          "duration": 0.09677400000000347,
          "durationTicks": 96,
          "midi": 50,
          "name": "D3",
          "ticks": 56259,
          "time": 56.712588187499996,
          "velocity": 0.25196850393700787
        },
        {
          "duration": 0.09677399999999636,
          "durationTicks": 96,
          "midi": 38,
          "name": "D2",
          "ticks": 56449,
          "time": 56.9041200625,
          "velocity": 0.2440944881889764
        },
        {
          "duration": 0.09677400000000347,
          "durationTicks": 96,
          "midi": 47,
          "name": "B2",
          "ticks": 56638,
          "time": 57.094643874999996,
          "velocity": 0.23622047244094488
        },
        {
          "duration": 0.09677400000000347,
          "durationTicks": 96,
          "midi": 50,
          "name": "D3",
          "ticks": 56638,
          "time": 57.094643874999996,
          "velocity": 0.2755905511811024
        },
        {
          "duration": 0.09677400000000347,
          "durationTicks": 96,
          "midi": 48,
          "name": "C3",
          "ticks": 56830,
          "time": 57.288191874999995,
          "velocity": 0.28346456692913385
        },
        {
          "duration": 0.09677399999999636,
          "durationTicks": 96,
          "midi": 51,
          "name": "D#3",
          "ticks": 57033,
          "time": 57.4928285625,
          "velocity": 0.2440944881889764
        },
        {
          "duration": 0.09677399999999636,
          "durationTicks": 96,
          "midi": 55,
          "name": "G3",
          "ticks": 57033,
          "time": 57.4928285625,
          "velocity": 0.28346456692913385
        },
        {
          "duration": 0.09677400000000347,
          "durationTicks": 96,
          "midi": 43,
          "name": "G2",
          "ticks": 57224,
          "time": 57.6853685,
          "velocity": 0.2677165354330709
        },
        {
          "duration": 0.09677400000000347,
          "durationTicks": 96,
          "midi": 51,
          "name": "D#3",
          "ticks": 57413,
          "time": 57.8758923125,
          "velocity": 0.2440944881889764
        },
        {
          "duration": 0.09677400000000347,
          "durationTicks": 96,
          "midi": 55,
          "name": "G3",
          "ticks": 57413,
          "time": 57.8758923125,
          "velocity": 0.28346456692913385
        },
        {
          "duration": 0.09677400000000347,
          "durationTicks": 96,
          "midi": 48,
          "name": "C3",
          "ticks": 57604,
          "time": 58.068432249999994,
          "velocity": 0.2755905511811024
        },
        {
          "duration": 0.09677399999999636,
          "durationTicks": 96,
          "midi": 51,
          "name": "D#3",
          "ticks": 57795,
          "time": 58.2609721875,
          "velocity": 0.2440944881889764
        },
        {
          "duration": 0.09677399999999636,
          "durationTicks": 96,
          "midi": 55,
          "name": "G3",
          "ticks": 57795,
          "time": 58.2609721875,
          "velocity": 0.28346456692913385
        },
        {
          "duration": 0.09677399999999636,
          "durationTicks": 96,
          "midi": 43,
          "name": "G2",
          "ticks": 57985,
          "time": 58.4525040625,
          "velocity": 0.2677165354330709
        },
        {
          "duration": 0.09677400000000347,
          "durationTicks": 96,
          "midi": 51,
          "name": "D#3",
          "ticks": 58174,
          "time": 58.643027874999994,
          "velocity": 0.2440944881889764
        },
        {
          "duration": 0.09677400000000347,
          "durationTicks": 96,
          "midi": 55,
          "name": "G3",
          "ticks": 58174,
          "time": 58.643027874999994,
          "velocity": 0.28346456692913385
        },
        {
          "duration": 0.09677400000000347,
          "durationTicks": 96,
          "midi": 51,
          "name": "D#3",
          "ticks": 58366,
          "time": 58.836575874999994,
          "velocity": 0.28346456692913385
        },
        {
          "duration": 0.09677399999999636,
          "durationTicks": 96,
          "midi": 55,
          "name": "G3",
          "ticks": 58569,
          "time": 59.0412125625,
          "velocity": 0.2440944881889764
        },
        {
          "duration": 0.09677399999999636,
          "durationTicks": 96,
          "midi": 58,
          "name": "A#3",
          "ticks": 58569,
          "time": 59.0412125625,
          "velocity": 0.28346456692913385
        },
        {
          "duration": 0.09677400000000347,
          "durationTicks": 96,
          "midi": 46,
          "name": "A#2",
          "ticks": 58760,
          "time": 59.2337525,
          "velocity": 0.2677165354330709
        },
        {
          "duration": 0.09677399999999636,
          "durationTicks": 96,
          "midi": 55,
          "name": "G3",
          "ticks": 58949,
          "time": 59.424276312500005,
          "velocity": 0.2440944881889764
        },
        {
          "duration": 0.09677399999999636,
          "durationTicks": 96,
          "midi": 58,
          "name": "A#3",
          "ticks": 58949,
          "time": 59.424276312500005,
          "velocity": 0.28346456692913385
        },
        {
          "duration": 0.09677400000000347,
          "durationTicks": 96,
          "midi": 51,
          "name": "D#3",
          "ticks": 59140,
          "time": 59.61681624999999,
          "velocity": 0.2755905511811024
        },
        {
          "duration": 0.09677399999999636,
          "durationTicks": 96,
          "midi": 55,
          "name": "G3",
          "ticks": 59331,
          "time": 59.8093561875,
          "velocity": 0.2440944881889764
        },
        {
          "duration": 0.09677399999999636,
          "durationTicks": 96,
          "midi": 58,
          "name": "A#3",
          "ticks": 59331,
          "time": 59.8093561875,
          "velocity": 0.28346456692913385
        },
        {
          "duration": 0.09677399999999636,
          "durationTicks": 96,
          "midi": 46,
          "name": "A#2",
          "ticks": 59521,
          "time": 60.000888062499996,
          "velocity": 0.2677165354330709
        },
        {
          "duration": 0.09677400000000347,
          "durationTicks": 96,
          "midi": 55,
          "name": "G3",
          "ticks": 59710,
          "time": 60.19141187499999,
          "velocity": 0.2440944881889764
        },
        {
          "duration": 0.09677400000000347,
          "durationTicks": 96,
          "midi": 58,
          "name": "A#3",
          "ticks": 59710,
          "time": 60.19141187499999,
          "velocity": 0.28346456692913385
        },
        {
          "duration": 0.09677400000000347,
          "durationTicks": 96,
          "midi": 46,
          "name": "A#2",
          "ticks": 59902,
          "time": 60.38495987499999,
          "velocity": 0.28346456692913385
        },
        {
          "duration": 0.09677400000000347,
          "durationTicks": 96,
          "midi": 50,
          "name": "D3",
          "ticks": 60105,
          "time": 60.5895965625,
          "velocity": 0.2440944881889764
        },
        {
          "duration": 0.09677400000000347,
          "durationTicks": 96,
          "midi": 53,
          "name": "F3",
          "ticks": 60105,
          "time": 60.5895965625,
          "velocity": 0.28346456692913385
        },
        {
          "duration": 0.09677400000000347,
          "durationTicks": 96,
          "midi": 41,
          "name": "F2",
          "ticks": 60296,
          "time": 60.7821365,
          "velocity": 0.2677165354330709
        },
        {
          "duration": 0.09677399999999636,
          "durationTicks": 96,
          "midi": 50,
          "name": "D3",
          "ticks": 60485,
          "time": 60.972660312500004,
          "velocity": 0.2440944881889764
        },
        {
          "duration": 0.09677399999999636,
          "durationTicks": 96,
          "midi": 53,
          "name": "F3",
          "ticks": 60485,
          "time": 60.972660312500004,
          "velocity": 0.28346456692913385
        },
        {
          "duration": 0.09677399999999636,
          "durationTicks": 96,
          "midi": 46,
          "name": "A#2",
          "ticks": 60676,
          "time": 61.16520025,
          "velocity": 0.2755905511811024
        },
        {
          "duration": 0.09677400000000347,
          "durationTicks": 96,
          "midi": 50,
          "name": "D3",
          "ticks": 60867,
          "time": 61.3577401875,
          "velocity": 0.2440944881889764
        },
        {
          "duration": 0.09677400000000347,
          "durationTicks": 96,
          "midi": 53,
          "name": "F3",
          "ticks": 60867,
          "time": 61.3577401875,
          "velocity": 0.28346456692913385
        },
        {
          "duration": 0.09677400000000347,
          "durationTicks": 96,
          "midi": 41,
          "name": "F2",
          "ticks": 61057,
          "time": 61.549272062499995,
          "velocity": 0.2677165354330709
        },
        {
          "duration": 0.09677399999999636,
          "durationTicks": 96,
          "midi": 50,
          "name": "D3",
          "ticks": 61246,
          "time": 61.739795875,
          "velocity": 0.2440944881889764
        },
        {
          "duration": 0.09677399999999636,
          "durationTicks": 96,
          "midi": 53,
          "name": "F3",
          "ticks": 61246,
          "time": 61.739795875,
          "velocity": 0.28346456692913385
        },
        {
          "duration": 0.09677399999999636,
          "durationTicks": 96,
          "midi": 44,
          "name": "G#2",
          "ticks": 61438,
          "time": 61.933343875,
          "velocity": 0.28346456692913385
        },
        {
          "duration": 0.09677400000000347,
          "durationTicks": 96,
          "midi": 48,
          "name": "C3",
          "ticks": 61641,
          "time": 62.1379805625,
          "velocity": 0.2047244094488189
        },
        {
          "duration": 0.09677400000000347,
          "durationTicks": 96,
          "midi": 51,
          "name": "D#3",
          "ticks": 61641,
          "time": 62.1379805625,
          "velocity": 0.2440944881889764
        },
        {
          "duration": 0.09677399999999636,
          "durationTicks": 96,
          "midi": 39,
          "name": "D#2",
          "ticks": 61821,
          "time": 62.3194318125,
          "velocity": 0.2283464566929134
        },
        {
          "duration": 0.09677399999999636,
          "durationTicks": 96,
          "midi": 48,
          "name": "C3",
          "ticks": 62022,
          "time": 62.522052375,
          "velocity": 0.2047244094488189
        },
        {
          "duration": 0.09677399999999636,
          "durationTicks": 96,
          "midi": 51,
          "name": "D#3",
          "ticks": 62022,
          "time": 62.522052375,
          "velocity": 0.2440944881889764
        },
        {
          "duration": 0.09677400000000347,
          "durationTicks": 96,
          "midi": 43,
          "name": "G2",
          "ticks": 62213,
          "time": 62.7145923125,
          "velocity": 0.23622047244094488
        },
        {
          "duration": 0.09677399999999636,
          "durationTicks": 96,
          "midi": 47,
          "name": "B2",
          "ticks": 62404,
          "time": 62.90713225,
          "velocity": 0.2047244094488189
        },
        {
          "duration": 0.09677399999999636,
          "durationTicks": 96,
          "midi": 50,
          "name": "D3",
          "ticks": 62404,
          "time": 62.90713225,
          "velocity": 0.2440944881889764
        },
        {
          "duration": 0.09677399999999636,
          "durationTicks": 96,
          "midi": 38,
          "name": "D2",
          "ticks": 62594,
          "time": 63.098664125000006,
          "velocity": 0.2283464566929134
        },
        {
          "duration": 0.09677399999999636,
          "durationTicks": 96,
          "midi": 47,
          "name": "B2",
          "ticks": 62783,
          "time": 63.2891879375,
          "velocity": 0.2047244094488189
        },
        {
          "duration": 0.09677399999999636,
          "durationTicks": 96,
          "midi": 50,
          "name": "D3",
          "ticks": 62783,
          "time": 63.2891879375,
          "velocity": 0.2440944881889764
        },
        {
          "duration": 0.19354799999999983,
          "durationTicks": 192,
          "midi": 48,
          "name": "C3",
          "ticks": 62975,
          "time": 63.4827359375,
          "velocity": 0.2440944881889764
        },
        {
          "duration": 0.19354800000000694,
          "durationTicks": 192,
          "midi": 43,
          "name": "G2",
          "ticks": 63369,
          "time": 63.879912562499996,
          "velocity": 0.2283464566929134
        },
        {
          "duration": 0.19354800000000694,
          "durationTicks": 192,
          "midi": 48,
          "name": "C3",
          "ticks": 63749,
          "time": 64.2629763125,
          "velocity": 0.23622047244094488
        },
        {
          "duration": 0.19354800000000694,
          "durationTicks": 192,
          "midi": 43,
          "name": "G2",
          "ticks": 64130,
          "time": 64.647048125,
          "velocity": 0.2283464566929134
        },
        {
          "duration": 0.19354799999999273,
          "durationTicks": 192,
          "midi": 51,
          "name": "D#3",
          "ticks": 64511,
          "time": 65.03111993750001,
          "velocity": 0.2440944881889764
        },
        {
          "duration": 0.19354800000000694,
          "durationTicks": 192,
          "midi": 46,
          "name": "A#2",
          "ticks": 64905,
          "time": 65.4282965625,
          "velocity": 0.2283464566929134
        },
        {
          "duration": 0.19354800000000694,
          "durationTicks": 192,
          "midi": 51,
          "name": "D#3",
          "ticks": 65285,
          "time": 65.8113603125,
          "velocity": 0.23622047244094488
        },
        {
          "duration": 0.19354800000000694,
          "durationTicks": 192,
          "midi": 46,
          "name": "A#2",
          "ticks": 65666,
          "time": 66.195432125,
          "velocity": 0.2283464566929134
        },
        {
          "duration": 0.19354799999999273,
          "durationTicks": 192,
          "midi": 46,
          "name": "A#2",
          "ticks": 66047,
          "time": 66.57950393750001,
          "velocity": 0.2440944881889764
        },
        {
          "duration": 0.19354800000000694,
          "durationTicks": 192,
          "midi": 41,
          "name": "F2",
          "ticks": 66441,
          "time": 66.9766805625,
          "velocity": 0.2283464566929134
        },
        {
          "duration": 0.19354800000000694,
          "durationTicks": 192,
          "midi": 46,
          "name": "A#2",
          "ticks": 66821,
          "time": 67.3597443125,
          "velocity": 0.23622047244094488
        },
        {
          "duration": 0.19354799999999273,
          "durationTicks": 192,
          "midi": 41,
          "name": "F2",
          "ticks": 67202,
          "time": 67.74381612500001,
          "velocity": 0.2283464566929134
        },
        {
          "duration": 0.19354799999999273,
          "durationTicks": 192,
          "midi": 44,
          "name": "G#2",
          "ticks": 67583,
          "time": 68.1278879375,
          "velocity": 0.2440944881889764
        },
        {
          "duration": 0.19354799999999273,
          "durationTicks": 192,
          "midi": 39,
          "name": "D#2",
          "ticks": 67977,
          "time": 68.5250645625,
          "velocity": 0.2283464566929134
        },
        {
          "duration": 0.19354800000000694,
          "durationTicks": 192,
          "midi": 43,
          "name": "G2",
          "ticks": 68357,
          "time": 68.9081283125,
          "velocity": 0.23622047244094488
        },
        {
          "duration": 0.19354799999999273,
          "durationTicks": 192,
          "midi": 38,
          "name": "D2",
          "ticks": 68738,
          "time": 69.29220012500001,
          "velocity": 0.2283464566929134
        },
        {
          "duration": 0.09677399999999636,
          "durationTicks": 96,
          "midi": 48,
          "name": "C3",
          "ticks": 69121,
          "time": 69.6782880625,
          "velocity": 0.2440944881889764
        },
        {
          "duration": 0.09677400000001057,
          "durationTicks": 96,
          "midi": 51,
          "name": "D#3",
          "ticks": 69322,
          "time": 69.88090862499999,
          "velocity": 0.2047244094488189
        },
        {
          "duration": 0.09677400000001057,
          "durationTicks": 96,
          "midi": 55,
          "name": "G3",
          "ticks": 69322,
          "time": 69.88090862499999,
          "velocity": 0.2440944881889764
        },
        {
          "duration": 0.09677399999999636,
          "durationTicks": 96,
          "midi": 43,
          "name": "G2",
          "ticks": 69513,
          "time": 70.0734485625,
          "velocity": 0.2283464566929134
        },
        {
          "duration": 0.09677400000001057,
          "durationTicks": 96,
          "midi": 51,
          "name": "D#3",
          "ticks": 69702,
          "time": 70.263972375,
          "velocity": 0.2047244094488189
        },
        {
          "duration": 0.09677400000001057,
          "durationTicks": 96,
          "midi": 55,
          "name": "G3",
          "ticks": 69702,
          "time": 70.263972375,
          "velocity": 0.2440944881889764
        },
        {
          "duration": 0.09677399999999636,
          "durationTicks": 96,
          "midi": 48,
          "name": "C3",
          "ticks": 69893,
          "time": 70.45651231250001,
          "velocity": 0.23622047244094488
        },
        {
          "duration": 0.09677399999999636,
          "durationTicks": 96,
          "midi": 51,
          "name": "D#3",
          "ticks": 70084,
          "time": 70.64905225,
          "velocity": 0.2047244094488189
        },
        {
          "duration": 0.09677399999999636,
          "durationTicks": 96,
          "midi": 55,
          "name": "G3",
          "ticks": 70084,
          "time": 70.64905225,
          "velocity": 0.2440944881889764
        },
        {
          "duration": 0.09677399999999636,
          "durationTicks": 96,
          "midi": 43,
          "name": "G2",
          "ticks": 70274,
          "time": 70.840584125,
          "velocity": 0.2283464566929134
        },
        {
          "duration": 0.09677400000001057,
          "durationTicks": 96,
          "midi": 51,
          "name": "D#3",
          "ticks": 70463,
          "time": 71.0311079375,
          "velocity": 0.2047244094488189
        },
        {
          "duration": 0.09677400000001057,
          "durationTicks": 96,
          "midi": 55,
          "name": "G3",
          "ticks": 70463,
          "time": 71.0311079375,
          "velocity": 0.2440944881889764
        },
        {
          "duration": 0.09677399999999636,
          "durationTicks": 96,
          "midi": 51,
          "name": "D#3",
          "ticks": 70655,
          "time": 71.2246559375,
          "velocity": 0.2440944881889764
        },
        {
          "duration": 0.09677399999999636,
          "durationTicks": 96,
          "midi": 55,
          "name": "G3",
          "ticks": 70858,
          "time": 71.429292625,
          "velocity": 0.2047244094488189
        },
        {
          "duration": 0.09677399999999636,
          "durationTicks": 96,
          "midi": 58,
          "name": "A#3",
          "ticks": 70858,
          "time": 71.429292625,
          "velocity": 0.2440944881889764
        },
        {
          "duration": 0.09677399999999636,
          "durationTicks": 96,
          "midi": 46,
          "name": "A#2",
          "ticks": 71049,
          "time": 71.6218325625,
          "velocity": 0.2283464566929134
        },
        {
          "duration": 0.09677400000001057,
          "durationTicks": 96,
          "midi": 55,
          "name": "G3",
          "ticks": 71238,
          "time": 71.812356375,
          "velocity": 0.2047244094488189
        },
        {
          "duration": 0.09677400000001057,
          "durationTicks": 96,
          "midi": 58,
          "name": "A#3",
          "ticks": 71238,
          "time": 71.812356375,
          "velocity": 0.2440944881889764
        },
        {
          "duration": 0.09677399999999636,
          "durationTicks": 96,
          "midi": 51,
          "name": "D#3",
          "ticks": 71429,
          "time": 72.00489631250001,
          "velocity": 0.23622047244094488
        },
        {
          "duration": 0.09677399999999636,
          "durationTicks": 96,
          "midi": 55,
          "name": "G3",
          "ticks": 71620,
          "time": 72.19743625,
          "velocity": 0.2047244094488189
        },
        {
          "duration": 0.09677399999999636,
          "durationTicks": 96,
          "midi": 58,
          "name": "A#3",
          "ticks": 71620,
          "time": 72.19743625,
          "velocity": 0.2440944881889764
        },
        {
          "duration": 0.09677399999999636,
          "durationTicks": 96,
          "midi": 46,
          "name": "A#2",
          "ticks": 71810,
          "time": 72.388968125,
          "velocity": 0.2283464566929134
        },
        {
          "duration": 0.09677399999999636,
          "durationTicks": 96,
          "midi": 55,
          "name": "G3",
          "ticks": 71999,
          "time": 72.57949193750001,
          "velocity": 0.2047244094488189
        },
        {
          "duration": 0.09677399999999636,
          "durationTicks": 96,
          "midi": 58,
          "name": "A#3",
          "ticks": 71999,
          "time": 72.57949193750001,
          "velocity": 0.2440944881889764
        },
        {
          "duration": 0.09677399999999636,
          "durationTicks": 96,
          "midi": 46,
          "name": "A#2",
          "ticks": 72191,
          "time": 72.7730399375,
          "velocity": 0.2440944881889764
        },
        {
          "duration": 0.09677399999999636,
          "durationTicks": 96,
          "midi": 50,
          "name": "D3",
          "ticks": 72394,
          "time": 72.977676625,
          "velocity": 0.2047244094488189
        },
        {
          "duration": 0.09677399999999636,
          "durationTicks": 96,
          "midi": 53,
          "name": "F3",
          "ticks": 72394,
          "time": 72.977676625,
          "velocity": 0.2440944881889764
        },
        {
          "duration": 0.09677399999999636,
          "durationTicks": 96,
          "midi": 41,
          "name": "F2",
          "ticks": 72585,
          "time": 73.1702165625,
          "velocity": 0.2283464566929134
        },
        {
          "duration": 0.09677399999999636,
          "durationTicks": 96,
          "midi": 50,
          "name": "D3",
          "ticks": 72774,
          "time": 73.360740375,
          "velocity": 0.2047244094488189
        },
        {
          "duration": 0.09677399999999636,
          "durationTicks": 96,
          "midi": 53,
          "name": "F3",
          "ticks": 72774,
          "time": 73.360740375,
          "velocity": 0.2440944881889764
        },
        {
          "duration": 0.09677399999999636,
          "durationTicks": 96,
          "midi": 46,
          "name": "A#2",
          "ticks": 72965,
          "time": 73.55328031250001,
          "velocity": 0.23622047244094488
        },
        {
          "duration": 0.09677399999999636,
          "durationTicks": 96,
          "midi": 50,
          "name": "D3",
          "ticks": 73156,
          "time": 73.74582025,
          "velocity": 0.2047244094488189
        },
        {
          "duration": 0.09677399999999636,
          "durationTicks": 96,
          "midi": 53,
          "name": "F3",
          "ticks": 73156,
          "time": 73.74582025,
          "velocity": 0.2440944881889764
        },
        {
          "duration": 0.09677399999999636,
          "durationTicks": 96,
          "midi": 41,
          "name": "F2",
          "ticks": 73346,
          "time": 73.937352125,
          "velocity": 0.2283464566929134
        },
        {
          "duration": 0.09677399999999636,
          "durationTicks": 96,
          "midi": 50,
          "name": "D3",
          "ticks": 73535,
          "time": 74.12787593750001,
          "velocity": 0.2047244094488189
        },
        {
          "duration": 0.09677399999999636,
          "durationTicks": 96,
          "midi": 53,
          "name": "F3",
          "ticks": 73535,
          "time": 74.12787593750001,
          "velocity": 0.2440944881889764
        },
        {
          "duration": 0.09677399999999636,
          "durationTicks": 96,
          "midi": 44,
          "name": "G#2",
          "ticks": 73727,
          "time": 74.3214239375,
          "velocity": 0.2440944881889764
        },
        {
          "duration": 0.09677399999999636,
          "durationTicks": 96,
          "midi": 48,
          "name": "C3",
          "ticks": 73930,
          "time": 74.526060625,
          "velocity": 0.2047244094488189
        },
        {
          "duration": 0.09677399999999636,
          "durationTicks": 96,
          "midi": 51,
          "name": "D#3",
          "ticks": 73930,
          "time": 74.526060625,
          "velocity": 0.2440944881889764
        },
        {
          "duration": 0.09677399999999636,
          "durationTicks": 96,
          "midi": 39,
          "name": "D#2",
          "ticks": 74121,
          "time": 74.7186005625,
          "velocity": 0.2283464566929134
        },
        {
          "duration": 0.09677399999999636,
          "durationTicks": 96,
          "midi": 48,
          "name": "C3",
          "ticks": 74310,
          "time": 74.909124375,
          "velocity": 0.2047244094488189
        },
        {
          "duration": 0.09677399999999636,
          "durationTicks": 96,
          "midi": 51,
          "name": "D#3",
          "ticks": 74310,
          "time": 74.909124375,
          "velocity": 0.2440944881889764
        },
        {
          "duration": 0.09677399999999636,
          "durationTicks": 96,
          "midi": 43,
          "name": "G2",
          "ticks": 74501,
          "time": 75.1016643125,
          "velocity": 0.23622047244094488
        },
        {
          "duration": 0.09677399999999636,
          "durationTicks": 96,
          "midi": 47,
          "name": "B2",
          "ticks": 74692,
          "time": 75.29420424999999,
          "velocity": 0.2047244094488189
        },
        {
          "duration": 0.09677399999999636,
          "durationTicks": 96,
          "midi": 50,
          "name": "D3",
          "ticks": 74692,
          "time": 75.29420424999999,
          "velocity": 0.2440944881889764
        },
        {
          "duration": 0.09677399999999636,
          "durationTicks": 96,
          "midi": 38,
          "name": "D2",
          "ticks": 74882,
          "time": 75.485736125,
          "velocity": 0.2283464566929134
        },
        {
          "duration": 0.09677399999999636,
          "durationTicks": 96,
          "midi": 47,
          "name": "B2",
          "ticks": 75071,
          "time": 75.6762599375,
          "velocity": 0.2047244094488189
        },
        {
          "duration": 0.09677399999999636,
          "durationTicks": 96,
          "midi": 50,
          "name": "D3",
          "ticks": 75071,
          "time": 75.6762599375,
          "velocity": 0.2440944881889764
        },
        {
          "duration": 0.09677400000001057,
          "durationTicks": 96,
          "midi": 48,
          "name": "C3",
          "ticks": 75263,
          "time": 75.8698079375,
          "velocity": 0.2440944881889764
        },
        {
          "duration": 0.09677399999999636,
          "durationTicks": 96,
          "midi": 51,
          "name": "D#3",
          "ticks": 75466,
          "time": 76.074444625,
          "velocity": 0.2047244094488189
        },
        {
          "duration": 0.09677399999999636,
          "durationTicks": 96,
          "midi": 55,
          "name": "G3",
          "ticks": 75466,
          "time": 76.074444625,
          "velocity": 0.2440944881889764
        },
        {
          "duration": 0.09677399999999636,
          "durationTicks": 96,
          "midi": 43,
          "name": "G2",
          "ticks": 75657,
          "time": 76.2669845625,
          "velocity": 0.2283464566929134
        },
        {
          "duration": 0.09677399999999636,
          "durationTicks": 96,
          "midi": 51,
          "name": "D#3",
          "ticks": 75846,
          "time": 76.457508375,
          "velocity": 0.2047244094488189
        },
        {
          "duration": 0.09677399999999636,
          "durationTicks": 96,
          "midi": 55,
          "name": "G3",
          "ticks": 75846,
          "time": 76.457508375,
          "velocity": 0.2440944881889764
        },
        {
          "duration": 0.09677399999999636,
          "durationTicks": 96,
          "midi": 48,
          "name": "C3",
          "ticks": 76037,
          "time": 76.6500483125,
          "velocity": 0.23622047244094488
        },
        {
          "duration": 0.09677400000001057,
          "durationTicks": 96,
          "midi": 51,
          "name": "D#3",
          "ticks": 76228,
          "time": 76.84258824999999,
          "velocity": 0.2047244094488189
        },
        {
          "duration": 0.09677400000001057,
          "durationTicks": 96,
          "midi": 55,
          "name": "G3",
          "ticks": 76228,
          "time": 76.84258824999999,
          "velocity": 0.2440944881889764
        },
        {
          "duration": 0.09677399999999636,
          "durationTicks": 96,
          "midi": 43,
          "name": "G2",
          "ticks": 76418,
          "time": 77.034120125,
          "velocity": 0.2283464566929134
        },
        {
          "duration": 0.09677399999999636,
          "durationTicks": 96,
          "midi": 51,
          "name": "D#3",
          "ticks": 76607,
          "time": 77.2246439375,
          "velocity": 0.2047244094488189
        },
        {
          "duration": 0.09677399999999636,
          "durationTicks": 96,
          "midi": 55,
          "name": "G3",
          "ticks": 76607,
          "time": 77.2246439375,
          "velocity": 0.2440944881889764
        },
        {
          "duration": 0.09677400000001057,
          "durationTicks": 96,
          "midi": 51,
          "name": "D#3",
          "ticks": 76799,
          "time": 77.4181919375,
          "velocity": 0.2440944881889764
        },
        {
          "duration": 0.09677399999999636,
          "durationTicks": 96,
          "midi": 55,
          "name": "G3",
          "ticks": 77002,
          "time": 77.622828625,
          "velocity": 0.2047244094488189
        },
        {
          "duration": 0.09677399999999636,
          "durationTicks": 96,
          "midi": 58,
          "name": "A#3",
          "ticks": 77002,
          "time": 77.622828625,
          "velocity": 0.2440944881889764
        },
        {
          "duration": 0.09677399999999636,
          "durationTicks": 96,
          "midi": 46,
          "name": "A#2",
          "ticks": 77193,
          "time": 77.8153685625,
          "velocity": 0.2283464566929134
        },
        {
          "duration": 0.09677399999999636,
          "durationTicks": 96,
          "midi": 55,
          "name": "G3",
          "ticks": 77382,
          "time": 78.005892375,
          "velocity": 0.2047244094488189
        },
        {
          "duration": 0.09677399999999636,
          "durationTicks": 96,
          "midi": 58,
          "name": "A#3",
          "ticks": 77382,
          "time": 78.005892375,
          "velocity": 0.2440944881889764
        },
        {
          "duration": 0.09677399999999636,
          "durationTicks": 96,
          "midi": 51,
          "name": "D#3",
          "ticks": 77573,
          "time": 78.1984323125,
          "velocity": 0.23622047244094488
        },
        {
          "duration": 0.09677400000001057,
          "durationTicks": 96,
          "midi": 55,
          "name": "G3",
          "ticks": 77764,
          "time": 78.39097224999999,
          "velocity": 0.2047244094488189
        },
        {
          "duration": 0.09677400000001057,
          "durationTicks": 96,
          "midi": 58,
          "name": "A#3",
          "ticks": 77764,
          "time": 78.39097224999999,
          "velocity": 0.2440944881889764
        },
        {
          "duration": 0.09677399999999636,
          "durationTicks": 96,
          "midi": 46,
          "name": "A#2",
          "ticks": 77954,
          "time": 78.582504125,
          "velocity": 0.2283464566929134
        },
        {
          "duration": 0.09677399999999636,
          "durationTicks": 96,
          "midi": 55,
          "name": "G3",
          "ticks": 78143,
          "time": 78.7730279375,
          "velocity": 0.2047244094488189
        },
        {
          "duration": 0.09677399999999636,
          "durationTicks": 96,
          "midi": 58,
          "name": "A#3",
          "ticks": 78143,
          "time": 78.7730279375,
          "velocity": 0.2440944881889764
        },
        {
          "duration": 0.09677400000001057,
          "durationTicks": 96,
          "midi": 46,
          "name": "A#2",
          "ticks": 78335,
          "time": 78.9665759375,
          "velocity": 0.2440944881889764
        },
        {
          "duration": 0.09677399999999636,
          "durationTicks": 96,
          "midi": 50,
          "name": "D3",
          "ticks": 78538,
          "time": 79.171212625,
          "velocity": 0.2047244094488189
        },
        {
          "duration": 0.09677399999999636,
          "durationTicks": 96,
          "midi": 53,
          "name": "F3",
          "ticks": 78538,
          "time": 79.171212625,
          "velocity": 0.2440944881889764
        },
        {
          "duration": 0.09677399999999636,
          "durationTicks": 96,
          "midi": 41,
          "name": "F2",
          "ticks": 78729,
          "time": 79.3637525625,
          "velocity": 0.2283464566929134
        },
        {
          "duration": 0.09677399999999636,
          "durationTicks": 96,
          "midi": 50,
          "name": "D3",
          "ticks": 78918,
          "time": 79.554276375,
          "velocity": 0.2047244094488189
        },
        {
          "duration": 0.09677399999999636,
          "durationTicks": 96,
          "midi": 53,
          "name": "F3",
          "ticks": 78918,
          "time": 79.554276375,
          "velocity": 0.2440944881889764
        },
        {
          "duration": 0.09677399999999636,
          "durationTicks": 96,
          "midi": 46,
          "name": "A#2",
          "ticks": 79109,
          "time": 79.7468163125,
          "velocity": 0.23622047244094488
        },
        {
          "duration": 0.09677400000001057,
          "durationTicks": 96,
          "midi": 50,
          "name": "D3",
          "ticks": 79300,
          "time": 79.93935624999999,
          "velocity": 0.2047244094488189
        },
        {
          "duration": 0.09677400000001057,
          "durationTicks": 96,
          "midi": 53,
          "name": "F3",
          "ticks": 79300,
          "time": 79.93935624999999,
          "velocity": 0.2440944881889764
        },
        {
          "duration": 0.09677400000001057,
          "durationTicks": 96,
          "midi": 41,
          "name": "F2",
          "ticks": 79490,
          "time": 80.130888125,
          "velocity": 0.2283464566929134
        },
        {
          "duration": 0.09677399999999636,
          "durationTicks": 96,
          "midi": 50,
          "name": "D3",
          "ticks": 79679,
          "time": 80.3214119375,
          "velocity": 0.2047244094488189
        },
        {
          "duration": 0.09677399999999636,
          "durationTicks": 96,
          "midi": 53,
          "name": "F3",
          "ticks": 79679,
          "time": 80.3214119375,
          "velocity": 0.2440944881889764
        },
        {
          "duration": 0.09677399999999636,
          "durationTicks": 96,
          "midi": 44,
          "name": "G#2",
          "ticks": 79871,
          "time": 80.51495993750001,
          "velocity": 0.2440944881889764
        },
        {
          "duration": 0.09677399999999636,
          "durationTicks": 96,
          "midi": 48,
          "name": "C3",
          "ticks": 80074,
          "time": 80.719596625,
          "velocity": 0.2047244094488189
        },
        {
          "duration": 0.09677399999999636,
          "durationTicks": 96,
          "midi": 51,
          "name": "D#3",
          "ticks": 80074,
          "time": 80.719596625,
          "velocity": 0.2440944881889764
        },
        {
          "duration": 0.09677400000001057,
          "durationTicks": 96,
          "midi": 39,
          "name": "D#2",
          "ticks": 80265,
          "time": 80.9121365625,
          "velocity": 0.2283464566929134
        },
        {
          "duration": 0.09677399999999636,
          "durationTicks": 96,
          "midi": 48,
          "name": "C3",
          "ticks": 80454,
          "time": 81.102660375,
          "velocity": 0.2047244094488189
        },
        {
          "duration": 0.09677399999999636,
          "durationTicks": 96,
          "midi": 51,
          "name": "D#3",
          "ticks": 80454,
          "time": 81.102660375,
          "velocity": 0.2440944881889764
        },
        {
          "duration": 0.09677399999999636,
          "durationTicks": 96,
          "midi": 43,
          "name": "G2",
          "ticks": 80645,
          "time": 81.2952003125,
          "velocity": 0.23622047244094488
        },
        {
          "duration": 0.09677399999999636,
          "durationTicks": 96,
          "midi": 47,
          "name": "B2",
          "ticks": 80836,
          "time": 81.48774025,
          "velocity": 0.2047244094488189
        },
        {
          "duration": 0.09677399999999636,
          "durationTicks": 96,
          "midi": 50,
          "name": "D3",
          "ticks": 80836,
          "time": 81.48774025,
          "velocity": 0.2440944881889764
        },
        {
          "duration": 0.09677400000001057,
          "durationTicks": 96,
          "midi": 38,
          "name": "D2",
          "ticks": 81026,
          "time": 81.679272125,
          "velocity": 0.2283464566929134
        },
        {
          "duration": 0.09677399999999636,
          "durationTicks": 96,
          "midi": 47,
          "name": "B2",
          "ticks": 81215,
          "time": 81.8697959375,
          "velocity": 0.2047244094488189
        },
        {
          "duration": 0.09677399999999636,
          "durationTicks": 96,
          "midi": 50,
          "name": "D3",
          "ticks": 81215,
          "time": 81.8697959375,
          "velocity": 0.2440944881889764
        },
        {
          "duration": 0.09677399999999636,
          "durationTicks": 96,
          "midi": 44,
          "name": "G#2",
          "ticks": 81407,
          "time": 82.06334393750001,
          "velocity": 0.2440944881889764
        },
        {
          "duration": 0.09677399999999636,
          "durationTicks": 96,
          "midi": 48,
          "name": "C3",
          "ticks": 81610,
          "time": 82.26798062499999,
          "velocity": 0.2047244094488189
        },
        {
          "duration": 0.09677399999999636,
          "durationTicks": 96,
          "midi": 51,
          "name": "D#3",
          "ticks": 81610,
          "time": 82.26798062499999,
          "velocity": 0.2440944881889764
        },
        {
          "duration": 0.09677400000001057,
          "durationTicks": 96,
          "midi": 39,
          "name": "D#2",
          "ticks": 81801,
          "time": 82.4605205625,
          "velocity": 0.2283464566929134
        },
        {
          "duration": 0.09677399999999636,
          "durationTicks": 96,
          "midi": 48,
          "name": "C3",
          "ticks": 81990,
          "time": 82.651044375,
          "velocity": 0.2047244094488189
        },
        {
          "duration": 0.09677399999999636,
          "durationTicks": 96,
          "midi": 51,
          "name": "D#3",
          "ticks": 81990,
          "time": 82.651044375,
          "velocity": 0.2440944881889764
        },
        {
          "duration": 0.09677400000001057,
          "durationTicks": 96,
          "midi": 44,
          "name": "G#2",
          "ticks": 82181,
          "time": 82.8435843125,
          "velocity": 0.23622047244094488
        },
        {
          "duration": 0.09677399999999636,
          "durationTicks": 96,
          "midi": 48,
          "name": "C3",
          "ticks": 82372,
          "time": 83.03612425,
          "velocity": 0.2047244094488189
        },
        {
          "duration": 0.09677399999999636,
          "durationTicks": 96,
          "midi": 51,
          "name": "D#3",
          "ticks": 82372,
          "time": 83.03612425,
          "velocity": 0.2440944881889764
        },
        {
          "duration": 0.09677400000001057,
          "durationTicks": 96,
          "midi": 39,
          "name": "D#2",
          "ticks": 82562,
          "time": 83.227656125,
          "velocity": 0.2283464566929134
        },
        {
          "duration": 0.09677399999999636,
          "durationTicks": 96,
          "midi": 48,
          "name": "C3",
          "ticks": 82751,
          "time": 83.4181799375,
          "velocity": 0.2047244094488189
        },
        {
          "duration": 0.09677399999999636,
          "durationTicks": 96,
          "midi": 51,
          "name": "D#3",
          "ticks": 82751,
          "time": 83.4181799375,
          "velocity": 0.2440944881889764
        },
        {
          "duration": 0.09677399999999636,
          "durationTicks": 96,
          "midi": 53,
          "name": "F3",
          "ticks": 82943,
          "time": 83.6117279375,
          "velocity": 0.2440944881889764
        },
        {
          "duration": 0.09677400000001057,
          "durationTicks": 96,
          "midi": 56,
          "name": "G#3",
          "ticks": 83146,
          "time": 83.81636462499999,
          "velocity": 0.2047244094488189
        },
        {
          "duration": 0.09677400000001057,
          "durationTicks": 96,
          "midi": 60,
          "name": "C4",
          "ticks": 83146,
          "time": 83.81636462499999,
          "velocity": 0.2440944881889764
        },
        {
          "duration": 0.09677400000001057,
          "durationTicks": 96,
          "midi": 48,
          "name": "C3",
          "ticks": 83337,
          "time": 84.00890456249999,
          "velocity": 0.2283464566929134
        },
        {
          "duration": 0.09677399999999636,
          "durationTicks": 96,
          "midi": 56,
          "name": "G#3",
          "ticks": 83526,
          "time": 84.199428375,
          "velocity": 0.2047244094488189
        },
        {
          "duration": 0.09677399999999636,
          "durationTicks": 96,
          "midi": 60,
          "name": "C4",
          "ticks": 83526,
          "time": 84.199428375,
          "velocity": 0.2440944881889764
        },
        {
          "duration": 0.09677400000001057,
          "durationTicks": 96,
          "midi": 53,
          "name": "F3",
          "ticks": 83717,
          "time": 84.3919683125,
          "velocity": 0.23622047244094488
        },
        {
          "duration": 0.09677399999999636,
          "durationTicks": 96,
          "midi": 56,
          "name": "G#3",
          "ticks": 83908,
          "time": 84.58450825,
          "velocity": 0.2047244094488189
        },
        {
          "duration": 0.09677399999999636,
          "durationTicks": 96,
          "midi": 60,
          "name": "C4",
          "ticks": 83908,
          "time": 84.58450825,
          "velocity": 0.2440944881889764
        },
        {
          "duration": 0.09677399999999636,
          "durationTicks": 96,
          "midi": 48,
          "name": "C3",
          "ticks": 84098,
          "time": 84.77604012500001,
          "velocity": 0.2283464566929134
        },
        {
          "duration": 0.09677400000001057,
          "durationTicks": 96,
          "midi": 56,
          "name": "G#3",
          "ticks": 84287,
          "time": 84.9665639375,
          "velocity": 0.2047244094488189
        },
        {
          "duration": 0.09677400000001057,
          "durationTicks": 96,
          "midi": 60,
          "name": "C4",
          "ticks": 84287,
          "time": 84.9665639375,
          "velocity": 0.2440944881889764
        },
        {
          "duration": 0.09677399999999636,
          "durationTicks": 96,
          "midi": 46,
          "name": "A#2",
          "ticks": 84479,
          "time": 85.1601119375,
          "velocity": 0.2440944881889764
        },
        {
          "duration": 0.09677400000001057,
          "durationTicks": 96,
          "midi": 50,
          "name": "D3",
          "ticks": 84682,
          "time": 85.36474862499999,
          "velocity": 0.2047244094488189
        },
        {
          "duration": 0.09677400000001057,
          "durationTicks": 96,
          "midi": 53,
          "name": "F3",
          "ticks": 84682,
          "time": 85.36474862499999,
          "velocity": 0.2440944881889764
        },
        {
          "duration": 0.09677399999999636,
          "durationTicks": 96,
          "midi": 41,
          "name": "F2",
          "ticks": 84873,
          "time": 85.5572885625,
          "velocity": 0.2283464566929134
        },
        {
          "duration": 0.09677400000001057,
          "durationTicks": 96,
          "midi": 50,
          "name": "D3",
          "ticks": 85062,
          "time": 85.747812375,
          "velocity": 0.2047244094488189
        },
        {
          "duration": 0.09677400000001057,
          "durationTicks": 96,
          "midi": 53,
          "name": "F3",
          "ticks": 85062,
          "time": 85.747812375,
          "velocity": 0.2440944881889764
        },
        {
          "duration": 0.09677400000001057,
          "durationTicks": 96,
          "midi": 46,
          "name": "A#2",
          "ticks": 85253,
          "time": 85.9403523125,
          "velocity": 0.23622047244094488
        },
        {
          "duration": 0.09677399999999636,
          "durationTicks": 96,
          "midi": 50,
          "name": "D3",
          "ticks": 85444,
          "time": 86.13289225,
          "velocity": 0.2047244094488189
        },
        {
          "duration": 0.09677399999999636,
          "durationTicks": 96,
          "midi": 53,
          "name": "F3",
          "ticks": 85444,
          "time": 86.13289225,
          "velocity": 0.2440944881889764
        },
        {
          "duration": 0.09677399999999636,
          "durationTicks": 96,
          "midi": 41,
          "name": "F2",
          "ticks": 85634,
          "time": 86.32442412500001,
          "velocity": 0.2283464566929134
        },
        {
          "duration": 0.09677400000001057,
          "durationTicks": 96,
          "midi": 50,
          "name": "D3",
          "ticks": 85823,
          "time": 86.5149479375,
          "velocity": 0.2047244094488189
        },
        {
          "duration": 0.09677400000001057,
          "durationTicks": 96,
          "midi": 53,
          "name": "F3",
          "ticks": 85823,
          "time": 86.5149479375,
          "velocity": 0.2440944881889764
        },
        {
          "duration": 0.09677399999999636,
          "durationTicks": 96,
          "midi": 44,
          "name": "G#2",
          "ticks": 86015,
          "time": 86.7084959375,
          "velocity": 0.2440944881889764
        },
        {
          "duration": 0.09677400000001057,
          "durationTicks": 96,
          "midi": 48,
          "name": "C3",
          "ticks": 86218,
          "time": 86.91313262499999,
          "velocity": 0.2047244094488189
        },
        {
          "duration": 0.09677400000001057,
          "durationTicks": 96,
          "midi": 51,
          "name": "D#3",
          "ticks": 86218,
          "time": 86.91313262499999,
          "velocity": 0.2440944881889764
        },
        {
          "duration": 0.09677399999999636,
          "durationTicks": 96,
          "midi": 39,
          "name": "D#2",
          "ticks": 86409,
          "time": 87.1056725625,
          "velocity": 0.2283464566929134
        },
        {
          "duration": 0.09677400000001057,
          "durationTicks": 96,
          "midi": 48,
          "name": "C3",
          "ticks": 86598,
          "time": 87.296196375,
          "velocity": 0.2047244094488189
        },
        {
          "duration": 0.09677400000001057,
          "durationTicks": 96,
          "midi": 51,
          "name": "D#3",
          "ticks": 86598,
          "time": 87.296196375,
          "velocity": 0.2440944881889764
        },
        {
          "duration": 0.09677399999999636,
          "durationTicks": 96,
          "midi": 43,
          "name": "G2",
          "ticks": 86789,
          "time": 87.48873631250001,
          "velocity": 0.23622047244094488
        },
        {
          "duration": 0.09677399999999636,
          "durationTicks": 96,
          "midi": 47,
          "name": "B2",
          "ticks": 86980,
          "time": 87.68127625,
          "velocity": 0.2047244094488189
        },
        {
          "duration": 0.09677399999999636,
          "durationTicks": 96,
          "midi": 50,
          "name": "D3",
          "ticks": 86980,
          "time": 87.68127625,
          "velocity": 0.2440944881889764
        },
        {
          "duration": 0.09677399999999636,
          "durationTicks": 96,
          "midi": 38,
          "name": "D2",
          "ticks": 87170,
          "time": 87.872808125,
          "velocity": 0.2283464566929134
        },
        {
          "duration": 0.09677400000001057,
          "durationTicks": 96,
          "midi": 47,
          "name": "B2",
          "ticks": 87359,
          "time": 88.0633319375,
          "velocity": 0.2047244094488189
        },
        {
          "duration": 0.09677400000001057,
          "durationTicks": 96,
          "midi": 50,
          "name": "D3",
          "ticks": 87359,
          "time": 88.0633319375,
          "velocity": 0.2440944881889764
        },
        {
          "duration": 0.09677399999999636,
          "durationTicks": 96,
          "midi": 44,
          "name": "G#2",
          "ticks": 87551,
          "time": 88.2568799375,
          "velocity": 0.2440944881889764
        },
        {
          "duration": 0.09677399999999636,
          "durationTicks": 96,
          "midi": 48,
          "name": "C3",
          "ticks": 87754,
          "time": 88.461516625,
          "velocity": 0.2047244094488189
        },
        {
          "duration": 0.09677399999999636,
          "durationTicks": 96,
          "midi": 51,
          "name": "D#3",
          "ticks": 87754,
          "time": 88.461516625,
          "velocity": 0.2440944881889764
        },
        {
          "duration": 0.09677399999999636,
          "durationTicks": 96,
          "midi": 39,
          "name": "D#2",
          "ticks": 87945,
          "time": 88.6540565625,
          "velocity": 0.2283464566929134
        },
        {
          "duration": 0.09677400000001057,
          "durationTicks": 96,
          "midi": 48,
          "name": "C3",
          "ticks": 88134,
          "time": 88.84458037499999,
          "velocity": 0.2047244094488189
        },
        {
          "duration": 0.09677400000001057,
          "durationTicks": 96,
          "midi": 51,
          "name": "D#3",
          "ticks": 88134,
          "time": 88.84458037499999,
          "velocity": 0.2440944881889764
        },
        {
          "duration": 0.09677399999999636,
          "durationTicks": 96,
          "midi": 44,
          "name": "G#2",
          "ticks": 88325,
          "time": 89.03712031250001,
          "velocity": 0.23622047244094488
        },
        {
          "duration": 0.09677399999999636,
          "durationTicks": 96,
          "midi": 48,
          "name": "C3",
          "ticks": 88516,
          "time": 89.22966025,
          "velocity": 0.2047244094488189
        },
        {
          "duration": 0.09677399999999636,
          "durationTicks": 96,
          "midi": 51,
          "name": "D#3",
          "ticks": 88516,
          "time": 89.22966025,
          "velocity": 0.2440944881889764
        },
        {
          "duration": 0.09677399999999636,
          "durationTicks": 96,
          "midi": 39,
          "name": "D#2",
          "ticks": 88706,
          "time": 89.421192125,
          "velocity": 0.2283464566929134
        },
        {
          "duration": 0.09677399999999636,
          "durationTicks": 96,
          "midi": 48,
          "name": "C3",
          "ticks": 88895,
          "time": 89.61171593750001,
          "velocity": 0.2047244094488189
        },
        {
          "duration": 0.09677399999999636,
          "durationTicks": 96,
          "midi": 51,
          "name": "D#3",
          "ticks": 88895,
          "time": 89.61171593750001,
          "velocity": 0.2440944881889764
        },
        {
          "duration": 0.09677399999999636,
          "durationTicks": 96,
          "midi": 53,
          "name": "F3",
          "ticks": 89087,
          "time": 89.8052639375,
          "velocity": 0.2440944881889764
        },
        {
          "duration": 0.09677399999999636,
          "durationTicks": 96,
          "midi": 56,
          "name": "G#3",
          "ticks": 89290,
          "time": 90.009900625,
          "velocity": 0.2047244094488189
        },
        {
          "duration": 0.09677399999999636,
          "durationTicks": 96,
          "midi": 60,
          "name": "C4",
          "ticks": 89290,
          "time": 90.009900625,
          "velocity": 0.2440944881889764
        },
        {
          "duration": 0.09677399999999636,
          "durationTicks": 96,
          "midi": 48,
          "name": "C3",
          "ticks": 89481,
          "time": 90.2024405625,
          "velocity": 0.2283464566929134
        },
        {
          "duration": 0.09677399999999636,
          "durationTicks": 96,
          "midi": 56,
          "name": "G#3",
          "ticks": 89670,
          "time": 90.392964375,
          "velocity": 0.2047244094488189
        },
        {
          "duration": 0.09677399999999636,
          "durationTicks": 96,
          "midi": 60,
          "name": "C4",
          "ticks": 89670,
          "time": 90.392964375,
          "velocity": 0.2440944881889764
        },
        {
          "duration": 0.09677399999999636,
          "durationTicks": 96,
          "midi": 53,
          "name": "F3",
          "ticks": 89861,
          "time": 90.5855043125,
          "velocity": 0.23622047244094488
        },
        {
          "duration": 0.09677399999999636,
          "durationTicks": 96,
          "midi": 56,
          "name": "G#3",
          "ticks": 90052,
          "time": 90.77804425,
          "velocity": 0.2047244094488189
        },
        {
          "duration": 0.09677399999999636,
          "durationTicks": 96,
          "midi": 60,
          "name": "C4",
          "ticks": 90052,
          "time": 90.77804425,
          "velocity": 0.2440944881889764
        },
        {
          "duration": 0.09677399999999636,
          "durationTicks": 96,
          "midi": 48,
          "name": "C3",
          "ticks": 90242,
          "time": 90.969576125,
          "velocity": 0.2283464566929134
        },
        {
          "duration": 0.09677399999999636,
          "durationTicks": 96,
          "midi": 56,
          "name": "G#3",
          "ticks": 90431,
          "time": 91.16009993750001,
          "velocity": 0.2047244094488189
        },
        {
          "duration": 0.09677399999999636,
          "durationTicks": 96,
          "midi": 60,
          "name": "C4",
          "ticks": 90431,
          "time": 91.16009993750001,
          "velocity": 0.2440944881889764
        },
        {
          "duration": 0.09677399999999636,
          "durationTicks": 96,
          "midi": 46,
          "name": "A#2",
          "ticks": 90623,
          "time": 91.3536479375,
          "velocity": 0.2440944881889764
        },
        {
          "duration": 0.09677399999999636,
          "durationTicks": 96,
          "midi": 50,
          "name": "D3",
          "ticks": 90826,
          "time": 91.558284625,
          "velocity": 0.2047244094488189
        },
        {
          "duration": 0.09677399999999636,
          "durationTicks": 96,
          "midi": 53,
          "name": "F3",
          "ticks": 90826,
          "time": 91.558284625,
          "velocity": 0.2440944881889764
        },
        {
          "duration": 0.09677399999999636,
          "durationTicks": 96,
          "midi": 41,
          "name": "F2",
          "ticks": 91017,
          "time": 91.7508245625,
          "velocity": 0.2283464566929134
        },
        {
          "duration": 0.09677399999999636,
          "durationTicks": 96,
          "midi": 50,
          "name": "D3",
          "ticks": 91206,
          "time": 91.941348375,
          "velocity": 0.2047244094488189
        },
        {
          "duration": 0.09677399999999636,
          "durationTicks": 96,
          "midi": 53,
          "name": "F3",
          "ticks": 91206,
          "time": 91.941348375,
          "velocity": 0.2440944881889764
        },
        {
          "duration": 0.09677399999999636,
          "durationTicks": 96,
          "midi": 46,
          "name": "A#2",
          "ticks": 91397,
          "time": 92.1338883125,
          "velocity": 0.23622047244094488
        },
        {
          "duration": 0.09677399999999636,
          "durationTicks": 96,
          "midi": 50,
          "name": "D3",
          "ticks": 91588,
          "time": 92.32642824999999,
          "velocity": 0.2047244094488189
        },
        {
          "duration": 0.09677399999999636,
          "durationTicks": 96,
          "midi": 53,
          "name": "F3",
          "ticks": 91588,
          "time": 92.32642824999999,
          "velocity": 0.2440944881889764
        },
        {
          "duration": 0.09677399999999636,
          "durationTicks": 96,
          "midi": 41,
          "name": "F2",
          "ticks": 91778,
          "time": 92.517960125,
          "velocity": 0.2283464566929134
        },
        {
          "duration": 0.09677399999999636,
          "durationTicks": 96,
          "midi": 50,
          "name": "D3",
          "ticks": 91967,
          "time": 92.7084839375,
          "velocity": 0.2047244094488189
        },
        {
          "duration": 0.09677399999999636,
          "durationTicks": 96,
          "midi": 53,
          "name": "F3",
          "ticks": 91967,
          "time": 92.7084839375,
          "velocity": 0.2440944881889764
        },
        {
          "duration": 0.38709599999999966,
          "durationTicks": 384,
          "midi": 31,
          "name": "G1",
          "ticks": 92159,
          "time": 92.9020319375,
          "velocity": 0.2125984251968504
        },
        {
          "duration": 0.38709599999999966,
          "durationTicks": 384,
          "midi": 43,
          "name": "G2",
          "ticks": 92159,
          "time": 92.9020319375,
          "velocity": 0.25984251968503935
        },
        {
          "duration": 0.38709599999999966,
          "durationTicks": 384,
          "midi": 32,
          "name": "G#1",
          "ticks": 92553,
          "time": 93.2992085625,
          "velocity": 0.1968503937007874
        },
        {
          "duration": 0.38709599999999966,
          "durationTicks": 384,
          "midi": 44,
          "name": "G#2",
          "ticks": 92553,
          "time": 93.2992085625,
          "velocity": 0.25196850393700787
        },
        {
          "duration": 0.38709599999999966,
          "durationTicks": 384,
          "midi": 31,
          "name": "G1",
          "ticks": 92933,
          "time": 93.6822723125,
          "velocity": 0.2047244094488189
        },
        {
          "duration": 0.38709599999999966,
          "durationTicks": 384,
          "midi": 43,
          "name": "G2",
          "ticks": 92933,
          "time": 93.6822723125,
          "velocity": 0.25984251968503935
        },
        {
          "duration": 0.38709599999999966,
          "durationTicks": 384,
          "midi": 32,
          "name": "G#1",
          "ticks": 93314,
          "time": 94.066344125,
          "velocity": 0.1968503937007874
        },
        {
          "duration": 0.38709599999999966,
          "durationTicks": 384,
          "midi": 44,
          "name": "G#2",
          "ticks": 93314,
          "time": 94.066344125,
          "velocity": 0.25196850393700787
        },
        {
          "duration": 0.19354800000000694,
          "durationTicks": 192,
          "midi": 31,
          "name": "G1",
          "ticks": 93695,
          "time": 94.4504159375,
          "velocity": 0.2125984251968504
        },
        {
          "duration": 0.19354800000000694,
          "durationTicks": 192,
          "midi": 43,
          "name": "G2",
          "ticks": 93695,
          "time": 94.4504159375,
          "velocity": 0.25984251968503935
        },
        {
          "duration": 0.19354799999999273,
          "durationTicks": 192,
          "midi": 32,
          "name": "G#1",
          "ticks": 93898,
          "time": 94.655052625,
          "velocity": 0.1968503937007874
        },
        {
          "duration": 0.19354799999999273,
          "durationTicks": 192,
          "midi": 44,
          "name": "G#2",
          "ticks": 93898,
          "time": 94.655052625,
          "velocity": 0.2440944881889764
        },
        {
          "duration": 0.19354800000000694,
          "durationTicks": 192,
          "midi": 31,
          "name": "G1",
          "ticks": 94089,
          "time": 94.8475925625,
          "velocity": 0.1968503937007874
        },
        {
          "duration": 0.19354800000000694,
          "durationTicks": 192,
          "midi": 43,
          "name": "G2",
          "ticks": 94089,
          "time": 94.8475925625,
          "velocity": 0.25196850393700787
        },
        {
          "duration": 0.19354799999999273,
          "durationTicks": 192,
          "midi": 32,
          "name": "G#1",
          "ticks": 94278,
          "time": 95.038116375,
          "velocity": 0.1968503937007874
        },
        {
          "duration": 0.19354799999999273,
          "durationTicks": 192,
          "midi": 44,
          "name": "G#2",
          "ticks": 94278,
          "time": 95.038116375,
          "velocity": 0.2440944881889764
        },
        {
          "duration": 0.19354800000000694,
          "durationTicks": 192,
          "midi": 31,
          "name": "G1",
          "ticks": 94469,
          "time": 95.2306563125,
          "velocity": 0.2047244094488189
        },
        {
          "duration": 0.19354800000000694,
          "durationTicks": 192,
          "midi": 43,
          "name": "G2",
          "ticks": 94469,
          "time": 95.2306563125,
          "velocity": 0.25984251968503935
        },
        {
          "duration": 0.19354800000000694,
          "durationTicks": 192,
          "midi": 32,
          "name": "G#1",
          "ticks": 94660,
          "time": 95.42319624999999,
          "velocity": 0.1968503937007874
        },
        {
          "duration": 0.19354800000000694,
          "durationTicks": 192,
          "midi": 44,
          "name": "G#2",
          "ticks": 94660,
          "time": 95.42319624999999,
          "velocity": 0.2440944881889764
        },
        {
          "duration": 0.19354800000000694,
          "durationTicks": 192,
          "midi": 31,
          "name": "G1",
          "ticks": 94850,
          "time": 95.614728125,
          "velocity": 0.1968503937007874
        },
        {
          "duration": 0.19354800000000694,
          "durationTicks": 192,
          "midi": 43,
          "name": "G2",
          "ticks": 94850,
          "time": 95.614728125,
          "velocity": 0.25196850393700787
        },
        {
          "duration": 0.19354799999999273,
          "durationTicks": 192,
          "midi": 32,
          "name": "G#1",
          "ticks": 95039,
          "time": 95.8052519375,
          "velocity": 0.1968503937007874
        },
        {
          "duration": 0.19354799999999273,
          "durationTicks": 192,
          "midi": 44,
          "name": "G#2",
          "ticks": 95039,
          "time": 95.8052519375,
          "velocity": 0.2440944881889764
        },
        {
          "duration": 0.19354800000000694,
          "durationTicks": 192,
          "midi": 31,
          "name": "G1",
          "ticks": 95231,
          "time": 95.9987999375,
          "velocity": 0.2125984251968504
        },
        {
          "duration": 0.19354800000000694,
          "durationTicks": 192,
          "midi": 43,
          "name": "G2",
          "ticks": 95231,
          "time": 95.9987999375,
          "velocity": 0.25984251968503935
        },
        {
          "duration": 0.19354800000000694,
          "durationTicks": 192,
          "midi": 32,
          "name": "G#1",
          "ticks": 95434,
          "time": 96.203436625,
          "velocity": 0.1968503937007874
        },
        {
          "duration": 0.19354800000000694,
          "durationTicks": 192,
          "midi": 44,
          "name": "G#2",
          "ticks": 95434,
          "time": 96.203436625,
          "velocity": 0.2440944881889764
        },
        {
          "duration": 0.19354800000000694,
          "durationTicks": 192,
          "midi": 31,
          "name": "G1",
          "ticks": 95625,
          "time": 96.3959765625,
          "velocity": 0.1968503937007874
        },
        {
          "duration": 0.19354800000000694,
          "durationTicks": 192,
          "midi": 43,
          "name": "G2",
          "ticks": 95625,
          "time": 96.3959765625,
          "velocity": 0.25196850393700787
        },
        {
          "duration": 0.19354799999999273,
          "durationTicks": 192,
          "midi": 32,
          "name": "G#1",
          "ticks": 95814,
          "time": 96.586500375,
          "velocity": 0.1968503937007874
        },
        {
          "duration": 0.19354799999999273,
          "durationTicks": 192,
          "midi": 44,
          "name": "G#2",
          "ticks": 95814,
          "time": 96.586500375,
          "velocity": 0.2440944881889764
        },
        {
          "duration": 0.19354800000000694,
          "durationTicks": 192,
          "midi": 31,
          "name": "G1",
          "ticks": 96005,
          "time": 96.7790403125,
          "velocity": 0.25984251968503935
        },
        {
          "duration": 0.19354800000000694,
          "durationTicks": 192,
          "midi": 43,
          "name": "G2",
          "ticks": 96005,
          "time": 96.7790403125,
          "velocity": 0.31496062992125984
        },
        {
          "duration": 0.19354800000000694,
          "durationTicks": 192,
          "midi": 31,
          "name": "G1",
          "ticks": 96196,
          "time": 96.97158024999999,
          "velocity": 0.25196850393700787
        },
        {
          "duration": 0.19354800000000694,
          "durationTicks": 192,
          "midi": 43,
          "name": "G2",
          "ticks": 96196,
          "time": 96.97158024999999,
          "velocity": 0.29133858267716534
        },
        {
          "duration": 0.19354800000000694,
          "durationTicks": 192,
          "midi": 31,
          "name": "G1",
          "ticks": 96386,
          "time": 97.163112125,
          "velocity": 0.25984251968503935
        },
        {
          "duration": 0.19354800000000694,
          "durationTicks": 192,
          "midi": 43,
          "name": "G2",
          "ticks": 96386,
          "time": 97.163112125,
          "velocity": 0.2992125984251969
        },
        {
          "duration": 0.19354800000000694,
          "durationTicks": 192,
          "midi": 31,
          "name": "G1",
          "ticks": 96575,
          "time": 97.3536359375,
          "velocity": 0.25196850393700787
        },
        {
          "duration": 0.19354800000000694,
          "durationTicks": 192,
          "midi": 43,
          "name": "G2",
          "ticks": 96575,
          "time": 97.3536359375,
          "velocity": 0.29133858267716534
        },
        {
          "duration": 0.09677399999999636,
          "durationTicks": 96,
          "midi": 48,
          "name": "C3",
          "ticks": 96767,
          "time": 97.54718393750001,
          "velocity": 0.2440944881889764
        },
        {
          "duration": 0.09677399999999636,
          "durationTicks": 96,
          "midi": 51,
          "name": "D#3",
          "ticks": 96970,
          "time": 97.751820625,
          "velocity": 0.2047244094488189
        },
        {
          "duration": 0.09677399999999636,
          "durationTicks": 96,
          "midi": 55,
          "name": "G3",
          "ticks": 96970,
          "time": 97.751820625,
          "velocity": 0.2440944881889764
        },
        {
          "duration": 0.09677400000001057,
          "durationTicks": 96,
          "midi": 43,
          "name": "G2",
          "ticks": 97161,
          "time": 97.9443605625,
          "velocity": 0.2283464566929134
        },
        {
          "duration": 0.09677399999999636,
          "durationTicks": 96,
          "midi": 51,
          "name": "D#3",
          "ticks": 97350,
          "time": 98.134884375,
          "velocity": 0.2047244094488189
        },
        {
          "duration": 0.09677399999999636,
          "durationTicks": 96,
          "midi": 55,
          "name": "G3",
          "ticks": 97350,
          "time": 98.134884375,
          "velocity": 0.2440944881889764
        },
        {
          "duration": 0.09677399999999636,
          "durationTicks": 96,
          "midi": 48,
          "name": "C3",
          "ticks": 97541,
          "time": 98.3274243125,
          "velocity": 0.23622047244094488
        },
        {
          "duration": 0.09677399999999636,
          "durationTicks": 96,
          "midi": 51,
          "name": "D#3",
          "ticks": 97732,
          "time": 98.51996425,
          "velocity": 0.2047244094488189
        },
        {
          "duration": 0.09677399999999636,
          "durationTicks": 96,
          "midi": 55,
          "name": "G3",
          "ticks": 97732,
          "time": 98.51996425,
          "velocity": 0.2440944881889764
        },
        {
          "duration": 0.09677400000001057,
          "durationTicks": 96,
          "midi": 43,
          "name": "G2",
          "ticks": 97922,
          "time": 98.711496125,
          "velocity": 0.2283464566929134
        },
        {
          "duration": 0.09677399999999636,
          "durationTicks": 96,
          "midi": 51,
          "name": "D#3",
          "ticks": 98111,
          "time": 98.9020199375,
          "velocity": 0.2047244094488189
        },
        {
          "duration": 0.09677399999999636,
          "durationTicks": 96,
          "midi": 55,
          "name": "G3",
          "ticks": 98111,
          "time": 98.9020199375,
          "velocity": 0.2440944881889764
        },
        {
          "duration": 0.09677399999998215,
          "durationTicks": 96,
          "midi": 51,
          "name": "D#3",
          "ticks": 98303,
          "time": 99.09556793750001,
          "velocity": 0.2440944881889764
        },
        {
          "duration": 0.09677399999999636,
          "durationTicks": 96,
          "midi": 55,
          "name": "G3",
          "ticks": 98506,
          "time": 99.300204625,
          "velocity": 0.2047244094488189
        },
        {
          "duration": 0.09677399999999636,
          "durationTicks": 96,
          "midi": 58,
          "name": "A#3",
          "ticks": 98506,
          "time": 99.300204625,
          "velocity": 0.2440944881889764
        },
        {
          "duration": 0.09677400000001057,
          "durationTicks": 96,
          "midi": 46,
          "name": "A#2",
          "ticks": 98697,
          "time": 99.4927445625,
          "velocity": 0.2283464566929134
        },
        {
          "duration": 0.09677399999999636,
          "durationTicks": 96,
          "midi": 55,
          "name": "G3",
          "ticks": 98886,
          "time": 99.683268375,
          "velocity": 0.2047244094488189
        },
        {
          "duration": 0.09677399999999636,
          "durationTicks": 96,
          "midi": 58,
          "name": "A#3",
          "ticks": 98886,
          "time": 99.683268375,
          "velocity": 0.2440944881889764
        },
        {
          "duration": 0.09677399999999636,
          "durationTicks": 96,
          "midi": 51,
          "name": "D#3",
          "ticks": 99077,
          "time": 99.8758083125,
          "velocity": 0.23622047244094488
        },
        {
          "duration": 0.09677400000001057,
          "durationTicks": 96,
          "midi": 55,
          "name": "G3",
          "ticks": 99268,
          "time": 100.06834825,
          "velocity": 0.2047244094488189
        },
        {
          "duration": 0.09677400000001057,
          "durationTicks": 96,
          "midi": 58,
          "name": "A#3",
          "ticks": 99268,
          "time": 100.06834825,
          "velocity": 0.2440944881889764
        },
        {
          "duration": 0.09677399999999636,
          "durationTicks": 96,
          "midi": 46,
          "name": "A#2",
          "ticks": 99458,
          "time": 100.259880125,
          "velocity": 0.2283464566929134
        },
        {
          "duration": 0.09677400000001057,
          "durationTicks": 96,
          "midi": 55,
          "name": "G3",
          "ticks": 99647,
          "time": 100.45040393749998,
          "velocity": 0.2047244094488189
        },
        {
          "duration": 0.09677400000001057,
          "durationTicks": 96,
          "midi": 58,
          "name": "A#3",
          "ticks": 99647,
          "time": 100.45040393749998,
          "velocity": 0.2440944881889764
        },
        {
          "duration": 0.09677399999999636,
          "durationTicks": 96,
          "midi": 46,
          "name": "A#2",
          "ticks": 99839,
          "time": 100.64395193749999,
          "velocity": 0.2440944881889764
        },
        {
          "duration": 0.09677399999999636,
          "durationTicks": 96,
          "midi": 50,
          "name": "D3",
          "ticks": 100042,
          "time": 100.848588625,
          "velocity": 0.2047244094488189
        },
        {
          "duration": 0.09677399999999636,
          "durationTicks": 96,
          "midi": 53,
          "name": "F3",
          "ticks": 100042,
          "time": 100.848588625,
          "velocity": 0.2440944881889764
        },
        {
          "duration": 0.09677400000001057,
          "durationTicks": 96,
          "midi": 41,
          "name": "F2",
          "ticks": 100233,
          "time": 101.04112856249999,
          "velocity": 0.2283464566929134
        },
        {
          "duration": 0.09677399999999636,
          "durationTicks": 96,
          "midi": 50,
          "name": "D3",
          "ticks": 100422,
          "time": 101.231652375,
          "velocity": 0.2047244094488189
        },
        {
          "duration": 0.09677399999999636,
          "durationTicks": 96,
          "midi": 53,
          "name": "F3",
          "ticks": 100422,
          "time": 101.231652375,
          "velocity": 0.2440944881889764
        },
        {
          "duration": 0.09677399999999636,
          "durationTicks": 96,
          "midi": 46,
          "name": "A#2",
          "ticks": 100613,
          "time": 101.4241923125,
          "velocity": 0.23622047244094488
        },
        {
          "duration": 0.09677399999999636,
          "durationTicks": 96,
          "midi": 50,
          "name": "D3",
          "ticks": 100804,
          "time": 101.61673225000001,
          "velocity": 0.2047244094488189
        },
        {
          "duration": 0.09677399999999636,
          "durationTicks": 96,
          "midi": 53,
          "name": "F3",
          "ticks": 100804,
          "time": 101.61673225000001,
          "velocity": 0.2440944881889764
        },
        {
          "duration": 0.09677399999999636,
          "durationTicks": 96,
          "midi": 41,
          "name": "F2",
          "ticks": 100994,
          "time": 101.808264125,
          "velocity": 0.2283464566929134
        },
        {
          "duration": 0.09677399999999636,
          "durationTicks": 96,
          "midi": 50,
          "name": "D3",
          "ticks": 101183,
          "time": 101.9987879375,
          "velocity": 0.2047244094488189
        },
        {
          "duration": 0.09677399999999636,
          "durationTicks": 96,
          "midi": 53,
          "name": "F3",
          "ticks": 101183,
          "time": 101.9987879375,
          "velocity": 0.2440944881889764
        },
        {
          "duration": 0.09677399999999636,
          "durationTicks": 96,
          "midi": 44,
          "name": "G#2",
          "ticks": 101375,
          "time": 102.19233593749999,
          "velocity": 0.2440944881889764
        },
        {
          "duration": 0.09677399999999636,
          "durationTicks": 96,
          "midi": 48,
          "name": "C3",
          "ticks": 101578,
          "time": 102.396972625,
          "velocity": 0.2047244094488189
        },
        {
          "duration": 0.09677399999999636,
          "durationTicks": 96,
          "midi": 51,
          "name": "D#3",
          "ticks": 101578,
          "time": 102.396972625,
          "velocity": 0.2440944881889764
        },
        {
          "duration": 0.09677399999999636,
          "durationTicks": 96,
          "midi": 39,
          "name": "D#2",
          "ticks": 101769,
          "time": 102.5895125625,
          "velocity": 0.2283464566929134
        },
        {
          "duration": 0.09677400000001057,
          "durationTicks": 96,
          "midi": 48,
          "name": "C3",
          "ticks": 101958,
          "time": 102.780036375,
          "velocity": 0.2047244094488189
        },
        {
          "duration": 0.09677400000001057,
          "durationTicks": 96,
          "midi": 51,
          "name": "D#3",
          "ticks": 101958,
          "time": 102.780036375,
          "velocity": 0.2440944881889764
        },
        {
          "duration": 0.09677399999999636,
          "durationTicks": 96,
          "midi": 43,
          "name": "G2",
          "ticks": 102149,
          "time": 102.9725763125,
          "velocity": 0.23622047244094488
        },
        {
          "duration": 0.09677399999999636,
          "durationTicks": 96,
          "midi": 47,
          "name": "B2",
          "ticks": 102340,
          "time": 103.16511625000001,
          "velocity": 0.2047244094488189
        },
        {
          "duration": 0.09677399999999636,
          "durationTicks": 96,
          "midi": 50,
          "name": "D3",
          "ticks": 102340,
          "time": 103.16511625000001,
          "velocity": 0.2440944881889764
        },
        {
          "duration": 0.09677400000001057,
          "durationTicks": 96,
          "midi": 38,
          "name": "D2",
          "ticks": 102525,
          "time": 103.35160781249999,
          "velocity": 0.2283464566929134
        },
        {
          "duration": 0.09677399999999636,
          "durationTicks": 96,
          "midi": 47,
          "name": "B2",
          "ticks": 102719,
          "time": 103.5471719375,
          "velocity": 0.2047244094488189
        },
        {
          "duration": 0.09677399999999636,
          "durationTicks": 96,
          "midi": 50,
          "name": "D3",
          "ticks": 102719,
          "time": 103.5471719375,
          "velocity": 0.2440944881889764
        },
        {
          "duration": 0.09677399999999636,
          "durationTicks": 96,
          "midi": 48,
          "name": "C3",
          "ticks": 102911,
          "time": 103.74071993749999,
          "velocity": 0.2440944881889764
        },
        {
          "duration": 0.09677400000001057,
          "durationTicks": 96,
          "midi": 51,
          "name": "D#3",
          "ticks": 103114,
          "time": 103.945356625,
          "velocity": 0.2047244094488189
        },
        {
          "duration": 0.09677400000001057,
          "durationTicks": 96,
          "midi": 55,
          "name": "G3",
          "ticks": 103114,
          "time": 103.945356625,
          "velocity": 0.2440944881889764
        },
        {
          "duration": 0.09677399999999636,
          "durationTicks": 96,
          "midi": 43,
          "name": "G2",
          "ticks": 103305,
          "time": 104.1378965625,
          "velocity": 0.2283464566929134
        },
        {
          "duration": 0.09677400000001057,
          "durationTicks": 96,
          "midi": 51,
          "name": "D#3",
          "ticks": 103494,
          "time": 104.328420375,
          "velocity": 0.2047244094488189
        },
        {
          "duration": 0.09677400000001057,
          "durationTicks": 96,
          "midi": 55,
          "name": "G3",
          "ticks": 103494,
          "time": 104.328420375,
          "velocity": 0.2440944881889764
        },
        {
          "duration": 0.09677399999999636,
          "durationTicks": 96,
          "midi": 48,
          "name": "C3",
          "ticks": 103685,
          "time": 104.5209603125,
          "velocity": 0.23622047244094488
        },
        {
          "duration": 0.09677399999999636,
          "durationTicks": 96,
          "midi": 51,
          "name": "D#3",
          "ticks": 103876,
          "time": 104.71350025000001,
          "velocity": 0.2047244094488189
        },
        {
          "duration": 0.09677399999999636,
          "durationTicks": 96,
          "midi": 55,
          "name": "G3",
          "ticks": 103876,
          "time": 104.71350025000001,
          "velocity": 0.2440944881889764
        },
        {
          "duration": 0.09677399999999636,
          "durationTicks": 96,
          "midi": 43,
          "name": "G2",
          "ticks": 104066,
          "time": 104.90503212499999,
          "velocity": 0.2283464566929134
        },
        {
          "duration": 0.09677399999999636,
          "durationTicks": 96,
          "midi": 51,
          "name": "D#3",
          "ticks": 104255,
          "time": 105.0955559375,
          "velocity": 0.2047244094488189
        },
        {
          "duration": 0.09677399999999636,
          "durationTicks": 96,
          "midi": 55,
          "name": "G3",
          "ticks": 104255,
          "time": 105.0955559375,
          "velocity": 0.2440944881889764
        },
        {
          "duration": 0.09677400000001057,
          "durationTicks": 96,
          "midi": 51,
          "name": "D#3",
          "ticks": 104447,
          "time": 105.28910393749999,
          "velocity": 0.2440944881889764
        },
        {
          "duration": 0.09677400000001057,
          "durationTicks": 96,
          "midi": 55,
          "name": "G3",
          "ticks": 104650,
          "time": 105.493740625,
          "velocity": 0.2047244094488189
        },
        {
          "duration": 0.09677400000001057,
          "durationTicks": 96,
          "midi": 58,
          "name": "A#3",
          "ticks": 104650,
          "time": 105.493740625,
          "velocity": 0.2440944881889764
        },
        {
          "duration": 0.09677399999999636,
          "durationTicks": 96,
          "midi": 46,
          "name": "A#2",
          "ticks": 104841,
          "time": 105.6862805625,
          "velocity": 0.2283464566929134
        },
        {
          "duration": 0.09677400000001057,
          "durationTicks": 96,
          "midi": 55,
          "name": "G3",
          "ticks": 105030,
          "time": 105.87680437499999,
          "velocity": 0.2047244094488189
        },
        {
          "duration": 0.09677400000001057,
          "durationTicks": 96,
          "midi": 58,
          "name": "A#3",
          "ticks": 105030,
          "time": 105.87680437499999,
          "velocity": 0.2440944881889764
        },
        {
          "duration": 0.09677399999999636,
          "durationTicks": 96,
          "midi": 51,
          "name": "D#3",
          "ticks": 105221,
          "time": 106.0693443125,
          "velocity": 0.23622047244094488
        },
        {
          "duration": 0.09677399999999636,
          "durationTicks": 96,
          "midi": 55,
          "name": "G3",
          "ticks": 105412,
          "time": 106.26188425000001,
          "velocity": 0.2047244094488189
        },
        {
          "duration": 0.09677399999999636,
          "durationTicks": 96,
          "midi": 58,
          "name": "A#3",
          "ticks": 105412,
          "time": 106.26188425000001,
          "velocity": 0.2440944881889764
        },
        {
          "duration": 0.09677399999999636,
          "durationTicks": 96,
          "midi": 46,
          "name": "A#2",
          "ticks": 105602,
          "time": 106.45341612499999,
          "velocity": 0.2283464566929134
        },
        {
          "duration": 0.09677399999999636,
          "durationTicks": 96,
          "midi": 55,
          "name": "G3",
          "ticks": 105791,
          "time": 106.6439399375,
          "velocity": 0.2047244094488189
        },
        {
          "duration": 0.09677399999999636,
          "durationTicks": 96,
          "midi": 58,
          "name": "A#3",
          "ticks": 105791,
          "time": 106.6439399375,
          "velocity": 0.2440944881889764
        },
        {
          "duration": 0.09677400000001057,
          "durationTicks": 96,
          "midi": 46,
          "name": "A#2",
          "ticks": 105983,
          "time": 106.83748793749999,
          "velocity": 0.2440944881889764
        },
        {
          "duration": 0.09677400000001057,
          "durationTicks": 96,
          "midi": 50,
          "name": "D3",
          "ticks": 106186,
          "time": 107.042124625,
          "velocity": 0.2047244094488189
        },
        {
          "duration": 0.09677400000001057,
          "durationTicks": 96,
          "midi": 53,
          "name": "F3",
          "ticks": 106186,
          "time": 107.042124625,
          "velocity": 0.2440944881889764
        },
        {
          "duration": 0.09677399999999636,
          "durationTicks": 96,
          "midi": 41,
          "name": "F2",
          "ticks": 106377,
          "time": 107.2346645625,
          "velocity": 0.2283464566929134
        },
        {
          "duration": 0.09677399999999636,
          "durationTicks": 96,
          "midi": 50,
          "name": "D3",
          "ticks": 106566,
          "time": 107.425188375,
          "velocity": 0.2047244094488189
        },
        {
          "duration": 0.09677399999999636,
          "durationTicks": 96,
          "midi": 53,
          "name": "F3",
          "ticks": 106566,
          "time": 107.425188375,
          "velocity": 0.2440944881889764
        },
        {
          "duration": 0.09677399999999636,
          "durationTicks": 96,
          "midi": 46,
          "name": "A#2",
          "ticks": 106757,
          "time": 107.61772831249999,
          "velocity": 0.23622047244094488
        },
        {
          "duration": 0.09677399999999636,
          "durationTicks": 96,
          "midi": 50,
          "name": "D3",
          "ticks": 106948,
          "time": 107.81026825000001,
          "velocity": 0.2047244094488189
        },
        {
          "duration": 0.09677399999999636,
          "durationTicks": 96,
          "midi": 53,
          "name": "F3",
          "ticks": 106948,
          "time": 107.81026825000001,
          "velocity": 0.2440944881889764
        },
        {
          "duration": 0.09677399999999636,
          "durationTicks": 96,
          "midi": 41,
          "name": "F2",
          "ticks": 107138,
          "time": 108.00180012499999,
          "velocity": 0.2283464566929134
        },
        {
          "duration": 0.09677399999999636,
          "durationTicks": 96,
          "midi": 50,
          "name": "D3",
          "ticks": 107327,
          "time": 108.19232393749999,
          "velocity": 0.2047244094488189
        },
        {
          "duration": 0.09677399999999636,
          "durationTicks": 96,
          "midi": 53,
          "name": "F3",
          "ticks": 107327,
          "time": 108.19232393749999,
          "velocity": 0.2440944881889764
        },
        {
          "duration": 0.09677400000001057,
          "durationTicks": 96,
          "midi": 44,
          "name": "G#2",
          "ticks": 107519,
          "time": 108.38587193749999,
          "velocity": 0.2440944881889764
        },
        {
          "duration": 0.09677399999999636,
          "durationTicks": 96,
          "midi": 48,
          "name": "C3",
          "ticks": 107722,
          "time": 108.59050862500001,
          "velocity": 0.2047244094488189
        },
        {
          "duration": 0.09677399999999636,
          "durationTicks": 96,
          "midi": 51,
          "name": "D#3",
          "ticks": 107722,
          "time": 108.59050862500001,
          "velocity": 0.2440944881889764
        },
        {
          "duration": 0.09677399999999636,
          "durationTicks": 96,
          "midi": 39,
          "name": "D#2",
          "ticks": 107913,
          "time": 108.7830485625,
          "velocity": 0.2283464566929134
        },
        {
          "duration": 0.09677399999999636,
          "durationTicks": 96,
          "midi": 48,
          "name": "C3",
          "ticks": 108102,
          "time": 108.973572375,
          "velocity": 0.2047244094488189
        },
        {
          "duration": 0.09677399999999636,
          "durationTicks": 96,
          "midi": 51,
          "name": "D#3",
          "ticks": 108102,
          "time": 108.973572375,
          "velocity": 0.2440944881889764
        },
        {
          "duration": 0.09677399999999636,
          "durationTicks": 96,
          "midi": 43,
          "name": "G2",
          "ticks": 108293,
          "time": 109.16611231249999,
          "velocity": 0.23622047244094488
        },
        {
          "duration": 0.09677399999999636,
          "durationTicks": 96,
          "midi": 47,
          "name": "B2",
          "ticks": 108484,
          "time": 109.35865225,
          "velocity": 0.2047244094488189
        },
        {
          "duration": 0.09677399999999636,
          "durationTicks": 96,
          "midi": 50,
          "name": "D3",
          "ticks": 108484,
          "time": 109.35865225,
          "velocity": 0.2440944881889764
        },
        {
          "duration": 0.09677400000001057,
          "durationTicks": 96,
          "midi": 38,
          "name": "D2",
          "ticks": 108674,
          "time": 109.55018412499999,
          "velocity": 0.2283464566929134
        },
        {
          "duration": 0.09677399999999636,
          "durationTicks": 96,
          "midi": 47,
          "name": "B2",
          "ticks": 108863,
          "time": 109.74070793749999,
          "velocity": 0.2047244094488189
        },
        {
          "duration": 0.09677399999999636,
          "durationTicks": 96,
          "midi": 50,
          "name": "D3",
          "ticks": 108863,
          "time": 109.74070793749999,
          "velocity": 0.2440944881889764
        },
        {
          "duration": 0.09677399999999636,
          "durationTicks": 96,
          "midi": 44,
          "name": "G#2",
          "ticks": 109055,
          "time": 109.9342559375,
          "velocity": 0.2440944881889764
        },
        {
          "duration": 0.09677399999999636,
          "durationTicks": 96,
          "midi": 48,
          "name": "C3",
          "ticks": 109258,
          "time": 110.13889262500001,
          "velocity": 0.2047244094488189
        },
        {
          "duration": 0.09677399999999636,
          "durationTicks": 96,
          "midi": 51,
          "name": "D#3",
          "ticks": 109258,
          "time": 110.13889262500001,
          "velocity": 0.2440944881889764
        },
        {
          "duration": 0.09677399999999636,
          "durationTicks": 96,
          "midi": 39,
          "name": "D#2",
          "ticks": 109449,
          "time": 110.3314325625,
          "velocity": 0.2283464566929134
        },
        {
          "duration": 0.09677399999999636,
          "durationTicks": 96,
          "midi": 48,
          "name": "C3",
          "ticks": 109638,
          "time": 110.521956375,
          "velocity": 0.2047244094488189
        },
        {
          "duration": 0.09677399999999636,
          "durationTicks": 96,
          "midi": 51,
          "name": "D#3",
          "ticks": 109638,
          "time": 110.521956375,
          "velocity": 0.2440944881889764
        },
        {
          "duration": 0.09677399999999636,
          "durationTicks": 96,
          "midi": 44,
          "name": "G#2",
          "ticks": 109829,
          "time": 110.71449631249999,
          "velocity": 0.23622047244094488
        },
        {
          "duration": 0.09677399999999636,
          "durationTicks": 96,
          "midi": 48,
          "name": "C3",
          "ticks": 110020,
          "time": 110.90703625,
          "velocity": 0.2047244094488189
        },
        {
          "duration": 0.09677399999999636,
          "durationTicks": 96,
          "midi": 51,
          "name": "D#3",
          "ticks": 110020,
          "time": 110.90703625,
          "velocity": 0.2440944881889764
        },
        {
          "duration": 0.09677399999999636,
          "durationTicks": 96,
          "midi": 39,
          "name": "D#2",
          "ticks": 110205,
          "time": 111.0935278125,
          "velocity": 0.2283464566929134
        },
        {
          "duration": 0.09677399999999636,
          "durationTicks": 96,
          "midi": 48,
          "name": "C3",
          "ticks": 110399,
          "time": 111.28909193749999,
          "velocity": 0.2047244094488189
        },
        {
          "duration": 0.09677399999999636,
          "durationTicks": 96,
          "midi": 51,
          "name": "D#3",
          "ticks": 110399,
          "time": 111.28909193749999,
          "velocity": 0.2440944881889764
        },
        {
          "duration": 0.09677399999999636,
          "durationTicks": 96,
          "midi": 53,
          "name": "F3",
          "ticks": 110591,
          "time": 111.4826399375,
          "velocity": 0.2440944881889764
        },
        {
          "duration": 0.09677399999999636,
          "durationTicks": 96,
          "midi": 56,
          "name": "G#3",
          "ticks": 110794,
          "time": 111.68727662500001,
          "velocity": 0.2047244094488189
        },
        {
          "duration": 0.09677399999999636,
          "durationTicks": 96,
          "midi": 60,
          "name": "C4",
          "ticks": 110794,
          "time": 111.68727662500001,
          "velocity": 0.2440944881889764
        },
        {
          "duration": 0.09677399999999636,
          "durationTicks": 96,
          "midi": 48,
          "name": "C3",
          "ticks": 110985,
          "time": 111.8798165625,
          "velocity": 0.2283464566929134
        },
        {
          "duration": 0.09677399999999636,
          "durationTicks": 96,
          "midi": 56,
          "name": "G#3",
          "ticks": 111174,
          "time": 112.070340375,
          "velocity": 0.2047244094488189
        },
        {
          "duration": 0.09677399999999636,
          "durationTicks": 96,
          "midi": 60,
          "name": "C4",
          "ticks": 111174,
          "time": 112.070340375,
          "velocity": 0.2440944881889764
        },
        {
          "duration": 0.09677400000001057,
          "durationTicks": 96,
          "midi": 53,
          "name": "F3",
          "ticks": 111365,
          "time": 112.26288031249999,
          "velocity": 0.23622047244094488
        },
        {
          "duration": 0.09677399999999636,
          "durationTicks": 96,
          "midi": 56,
          "name": "G#3",
          "ticks": 111556,
          "time": 112.45542025,
          "velocity": 0.2047244094488189
        },
        {
          "duration": 0.09677399999999636,
          "durationTicks": 96,
          "midi": 60,
          "name": "C4",
          "ticks": 111556,
          "time": 112.45542025,
          "velocity": 0.2440944881889764
        },
        {
          "duration": 0.09677400000001057,
          "durationTicks": 96,
          "midi": 48,
          "name": "C3",
          "ticks": 111746,
          "time": 112.64695212499998,
          "velocity": 0.2283464566929134
        },
        {
          "duration": 0.09677399999999636,
          "durationTicks": 96,
          "midi": 56,
          "name": "G#3",
          "ticks": 111935,
          "time": 112.83747593749999,
          "velocity": 0.2047244094488189
        },
        {
          "duration": 0.09677399999999636,
          "durationTicks": 96,
          "midi": 60,
          "name": "C4",
          "ticks": 111935,
          "time": 112.83747593749999,
          "velocity": 0.2440944881889764
        },
        {
          "duration": 0.09677399999999636,
          "durationTicks": 96,
          "midi": 46,
          "name": "A#2",
          "ticks": 112127,
          "time": 113.0310239375,
          "velocity": 0.2440944881889764
        },
        {
          "duration": 0.09677399999999636,
          "durationTicks": 96,
          "midi": 50,
          "name": "D3",
          "ticks": 112330,
          "time": 113.23566062500001,
          "velocity": 0.2047244094488189
        },
        {
          "duration": 0.09677399999999636,
          "durationTicks": 96,
          "midi": 53,
          "name": "F3",
          "ticks": 112330,
          "time": 113.23566062500001,
          "velocity": 0.2440944881889764
        },
        {
          "duration": 0.09677399999999636,
          "durationTicks": 96,
          "midi": 41,
          "name": "F2",
          "ticks": 112521,
          "time": 113.4282005625,
          "velocity": 0.2283464566929134
        },
        {
          "duration": 0.09677399999999636,
          "durationTicks": 96,
          "midi": 50,
          "name": "D3",
          "ticks": 112710,
          "time": 113.618724375,
          "velocity": 0.2047244094488189
        },
        {
          "duration": 0.09677399999999636,
          "durationTicks": 96,
          "midi": 53,
          "name": "F3",
          "ticks": 112710,
          "time": 113.618724375,
          "velocity": 0.2440944881889764
        },
        {
          "duration": 0.09677400000001057,
          "durationTicks": 96,
          "midi": 46,
          "name": "A#2",
          "ticks": 112901,
          "time": 113.81126431249999,
          "velocity": 0.23622047244094488
        },
        {
          "duration": 0.09677400000001057,
          "durationTicks": 96,
          "midi": 50,
          "name": "D3",
          "ticks": 113092,
          "time": 114.00380425,
          "velocity": 0.2047244094488189
        },
        {
          "duration": 0.09677400000001057,
          "durationTicks": 96,
          "midi": 53,
          "name": "F3",
          "ticks": 113092,
          "time": 114.00380425,
          "velocity": 0.2440944881889764
        },
        {
          "duration": 0.09677399999999636,
          "durationTicks": 96,
          "midi": 41,
          "name": "F2",
          "ticks": 113282,
          "time": 114.195336125,
          "velocity": 0.2283464566929134
        },
        {
          "duration": 0.09677400000001057,
          "durationTicks": 96,
          "midi": 50,
          "name": "D3",
          "ticks": 113471,
          "time": 114.38585993749999,
          "velocity": 0.2047244094488189
        },
        {
          "duration": 0.09677400000001057,
          "durationTicks": 96,
          "midi": 53,
          "name": "F3",
          "ticks": 113471,
          "time": 114.38585993749999,
          "velocity": 0.2440944881889764
        },
        {
          "duration": 0.09677399999999636,
          "durationTicks": 96,
          "midi": 44,
          "name": "G#2",
          "ticks": 113663,
          "time": 114.5794079375,
          "velocity": 0.2440944881889764
        },
        {
          "duration": 0.09677399999999636,
          "durationTicks": 96,
          "midi": 48,
          "name": "C3",
          "ticks": 113866,
          "time": 114.784044625,
          "velocity": 0.2047244094488189
        },
        {
          "duration": 0.09677399999999636,
          "durationTicks": 96,
          "midi": 51,
          "name": "D#3",
          "ticks": 113866,
          "time": 114.784044625,
          "velocity": 0.2440944881889764
        },
        {
          "duration": 0.09677400000001057,
          "durationTicks": 96,
          "midi": 39,
          "name": "D#2",
          "ticks": 114057,
          "time": 114.9765845625,
          "velocity": 0.2283464566929134
        },
        {
          "duration": 0.09677399999999636,
          "durationTicks": 96,
          "midi": 48,
          "name": "C3",
          "ticks": 114246,
          "time": 115.167108375,
          "velocity": 0.2047244094488189
        },
        {
          "duration": 0.09677399999999636,
          "durationTicks": 96,
          "midi": 51,
          "name": "D#3",
          "ticks": 114246,
          "time": 115.167108375,
          "velocity": 0.2440944881889764
        },
        {
          "duration": 0.09677400000001057,
          "durationTicks": 96,
          "midi": 43,
          "name": "G2",
          "ticks": 114437,
          "time": 115.35964831249998,
          "velocity": 0.23622047244094488
        },
        {
          "duration": 0.09677400000001057,
          "durationTicks": 96,
          "midi": 47,
          "name": "B2",
          "ticks": 114628,
          "time": 115.55218825,
          "velocity": 0.2047244094488189
        },
        {
          "duration": 0.09677400000001057,
          "durationTicks": 96,
          "midi": 50,
          "name": "D3",
          "ticks": 114628,
          "time": 115.55218825,
          "velocity": 0.2440944881889764
        },
        {
          "duration": 0.09677399999999636,
          "durationTicks": 96,
          "midi": 38,
          "name": "D2",
          "ticks": 114818,
          "time": 115.743720125,
          "velocity": 0.2283464566929134
        },
        {
          "duration": 0.09677400000001057,
          "durationTicks": 96,
          "midi": 47,
          "name": "B2",
          "ticks": 115007,
          "time": 115.93424393749999,
          "velocity": 0.2047244094488189
        },
        {
          "duration": 0.09677400000001057,
          "durationTicks": 96,
          "midi": 50,
          "name": "D3",
          "ticks": 115007,
          "time": 115.93424393749999,
          "velocity": 0.2440944881889764
        },
        {
          "duration": 0.09677399999999636,
          "durationTicks": 96,
          "midi": 44,
          "name": "G#2",
          "ticks": 115199,
          "time": 116.12779193749999,
          "velocity": 0.2440944881889764
        },
        {
          "duration": 0.09677399999999636,
          "durationTicks": 96,
          "midi": 48,
          "name": "C3",
          "ticks": 115402,
          "time": 116.332428625,
          "velocity": 0.2047244094488189
        },
        {
          "duration": 0.09677399999999636,
          "durationTicks": 96,
          "midi": 51,
          "name": "D#3",
          "ticks": 115402,
          "time": 116.332428625,
          "velocity": 0.2440944881889764
        },
        {
          "duration": 0.09677400000001057,
          "durationTicks": 96,
          "midi": 39,
          "name": "D#2",
          "ticks": 115593,
          "time": 116.52496856249999,
          "velocity": 0.2283464566929134
        },
        {
          "duration": 0.09677399999999636,
          "durationTicks": 96,
          "midi": 48,
          "name": "C3",
          "ticks": 115782,
          "time": 116.715492375,
          "velocity": 0.2047244094488189
        },
        {
          "duration": 0.09677399999999636,
          "durationTicks": 96,
          "midi": 51,
          "name": "D#3",
          "ticks": 115782,
          "time": 116.715492375,
          "velocity": 0.2440944881889764
        },
        {
          "duration": 0.09677399999999636,
          "durationTicks": 96,
          "midi": 44,
          "name": "G#2",
          "ticks": 115973,
          "time": 116.9080323125,
          "velocity": 0.23622047244094488
        },
        {
          "duration": 0.09677400000001057,
          "durationTicks": 96,
          "midi": 48,
          "name": "C3",
          "ticks": 116164,
          "time": 117.10057225,
          "velocity": 0.2047244094488189
        },
        {
          "duration": 0.09677400000001057,
          "durationTicks": 96,
          "midi": 51,
          "name": "D#3",
          "ticks": 116164,
          "time": 117.10057225,
          "velocity": 0.2440944881889764
        },
        {
          "duration": 0.09677399999999636,
          "durationTicks": 96,
          "midi": 39,
          "name": "D#2",
          "ticks": 116354,
          "time": 117.292104125,
          "velocity": 0.2283464566929134
        },
        {
          "duration": 0.09677399999999636,
          "durationTicks": 96,
          "midi": 48,
          "name": "C3",
          "ticks": 116543,
          "time": 117.4826279375,
          "velocity": 0.2047244094488189
        },
        {
          "duration": 0.09677399999999636,
          "durationTicks": 96,
          "midi": 51,
          "name": "D#3",
          "ticks": 116543,
          "time": 117.4826279375,
          "velocity": 0.2440944881889764
        },
        {
          "duration": 0.09677399999999636,
          "durationTicks": 96,
          "midi": 53,
          "name": "F3",
          "ticks": 116735,
          "time": 117.67617593749999,
          "velocity": 0.2440944881889764
        },
        {
          "duration": 0.09677399999999636,
          "durationTicks": 96,
          "midi": 56,
          "name": "G#3",
          "ticks": 116938,
          "time": 117.880812625,
          "velocity": 0.2047244094488189
        },
        {
          "duration": 0.09677399999999636,
          "durationTicks": 96,
          "midi": 60,
          "name": "C4",
          "ticks": 116938,
          "time": 117.880812625,
          "velocity": 0.2440944881889764
        },
        {
          "duration": 0.09677399999999636,
          "durationTicks": 96,
          "midi": 48,
          "name": "C3",
          "ticks": 117129,
          "time": 118.0733525625,
          "velocity": 0.2283464566929134
        },
        {
          "duration": 0.09677399999999636,
          "durationTicks": 96,
          "midi": 56,
          "name": "G#3",
          "ticks": 117318,
          "time": 118.263876375,
          "velocity": 0.2047244094488189
        },
        {
          "duration": 0.09677399999999636,
          "durationTicks": 96,
          "midi": 60,
          "name": "C4",
          "ticks": 117318,
          "time": 118.263876375,
          "velocity": 0.2440944881889764
        },
        {
          "duration": 0.09677399999999636,
          "durationTicks": 96,
          "midi": 53,
          "name": "F3",
          "ticks": 117509,
          "time": 118.4564163125,
          "velocity": 0.23622047244094488
        },
        {
          "duration": 0.09677399999999636,
          "durationTicks": 96,
          "midi": 56,
          "name": "G#3",
          "ticks": 117700,
          "time": 118.64895625000001,
          "velocity": 0.2047244094488189
        },
        {
          "duration": 0.09677399999999636,
          "durationTicks": 96,
          "midi": 60,
          "name": "C4",
          "ticks": 117700,
          "time": 118.64895625000001,
          "velocity": 0.2440944881889764
        },
        {
          "duration": 0.09677399999999636,
          "durationTicks": 96,
          "midi": 48,
          "name": "C3",
          "ticks": 117890,
          "time": 118.840488125,
          "velocity": 0.2283464566929134
        },
        {
          "duration": 0.09677399999999636,
          "durationTicks": 96,
          "midi": 56,
          "name": "G#3",
          "ticks": 118079,
          "time": 119.0310119375,
          "velocity": 0.2047244094488189
        },
        {
          "duration": 0.09677399999999636,
          "durationTicks": 96,
          "midi": 60,
          "name": "C4",
          "ticks": 118079,
          "time": 119.0310119375,
          "velocity": 0.2440944881889764
        },
        {
          "duration": 0.09677399999999636,
          "durationTicks": 96,
          "midi": 46,
          "name": "A#2",
          "ticks": 118271,
          "time": 119.22455993749999,
          "velocity": 0.2440944881889764
        },
        {
          "duration": 0.09677399999999636,
          "durationTicks": 96,
          "midi": 50,
          "name": "D3",
          "ticks": 118474,
          "time": 119.429196625,
          "velocity": 0.2047244094488189
        },
        {
          "duration": 0.09677399999999636,
          "durationTicks": 96,
          "midi": 53,
          "name": "F3",
          "ticks": 118474,
          "time": 119.429196625,
          "velocity": 0.2440944881889764
        },
        {
          "duration": 0.09677399999999636,
          "durationTicks": 96,
          "midi": 41,
          "name": "F2",
          "ticks": 118665,
          "time": 119.6217365625,
          "velocity": 0.2283464566929134
        },
        {
          "duration": 0.09677400000001057,
          "durationTicks": 96,
          "midi": 50,
          "name": "D3",
          "ticks": 118854,
          "time": 119.812260375,
          "velocity": 0.2047244094488189
        },
        {
          "duration": 0.09677400000001057,
          "durationTicks": 96,
          "midi": 53,
          "name": "F3",
          "ticks": 118854,
          "time": 119.812260375,
          "velocity": 0.2440944881889764
        },
        {
          "duration": 0.09677399999999636,
          "durationTicks": 96,
          "midi": 46,
          "name": "A#2",
          "ticks": 119045,
          "time": 120.0048003125,
          "velocity": 0.23622047244094488
        },
        {
          "duration": 0.09677399999999636,
          "durationTicks": 96,
          "midi": 50,
          "name": "D3",
          "ticks": 119236,
          "time": 120.19734025000001,
          "velocity": 0.2047244094488189
        },
        {
          "duration": 0.09677399999999636,
          "durationTicks": 96,
          "midi": 53,
          "name": "F3",
          "ticks": 119236,
          "time": 120.19734025000001,
          "velocity": 0.2440944881889764
        },
        {
          "duration": 0.09677399999999636,
          "durationTicks": 96,
          "midi": 41,
          "name": "F2",
          "ticks": 119426,
          "time": 120.38887212499999,
          "velocity": 0.2283464566929134
        },
        {
          "duration": 0.09677399999999636,
          "durationTicks": 96,
          "midi": 50,
          "name": "D3",
          "ticks": 119615,
          "time": 120.5793959375,
          "velocity": 0.2047244094488189
        },
        {
          "duration": 0.09677399999999636,
          "durationTicks": 96,
          "midi": 53,
          "name": "F3",
          "ticks": 119615,
          "time": 120.5793959375,
          "velocity": 0.2440944881889764
        },
        {
          "duration": 0.19354800000000694,
          "durationTicks": 192,
          "midi": 55,
          "name": "G3",
          "ticks": 119807,
          "time": 120.77294393749999,
          "velocity": 0.2755905511811024
        },
        {
          "duration": 0.19354800000000694,
          "durationTicks": 192,
          "midi": 31,
          "name": "G1",
          "ticks": 119807,
          "time": 120.77294393749999,
          "velocity": 0.2677165354330709
        },
        {
          "duration": 0.19354800000000694,
          "durationTicks": 192,
          "midi": 43,
          "name": "G2",
          "ticks": 119807,
          "time": 120.77294393749999,
          "velocity": 0.3228346456692913
        },
        {
          "duration": 0.19354799999999273,
          "durationTicks": 192,
          "midi": 56,
          "name": "G#3",
          "ticks": 120201,
          "time": 121.1701205625,
          "velocity": 0.2677165354330709
        },
        {
          "duration": 0.19354799999999273,
          "durationTicks": 192,
          "midi": 32,
          "name": "G#1",
          "ticks": 120201,
          "time": 121.1701205625,
          "velocity": 0.25984251968503935
        },
        {
          "duration": 0.19354799999999273,
          "durationTicks": 192,
          "midi": 44,
          "name": "G#2",
          "ticks": 120201,
          "time": 121.1701205625,
          "velocity": 0.30708661417322836
        },
        {
          "duration": 0.19354799999999273,
          "durationTicks": 192,
          "midi": 55,
          "name": "G3",
          "ticks": 120581,
          "time": 121.5531843125,
          "velocity": 0.2755905511811024
        },
        {
          "duration": 0.19354799999999273,
          "durationTicks": 192,
          "midi": 31,
          "name": "G1",
          "ticks": 120581,
          "time": 121.5531843125,
          "velocity": 0.25984251968503935
        },
        {
          "duration": 0.19354799999999273,
          "durationTicks": 192,
          "midi": 43,
          "name": "G2",
          "ticks": 120581,
          "time": 121.5531843125,
          "velocity": 0.31496062992125984
        },
        {
          "duration": 0.19354800000000694,
          "durationTicks": 192,
          "midi": 56,
          "name": "G#3",
          "ticks": 120962,
          "time": 121.93725612499999,
          "velocity": 0.2677165354330709
        },
        {
          "duration": 0.19354800000000694,
          "durationTicks": 192,
          "midi": 32,
          "name": "G#1",
          "ticks": 120962,
          "time": 121.93725612499999,
          "velocity": 0.25984251968503935
        },
        {
          "duration": 0.19354800000000694,
          "durationTicks": 192,
          "midi": 44,
          "name": "G#2",
          "ticks": 120962,
          "time": 121.93725612499999,
          "velocity": 0.30708661417322836
        },
        {
          "duration": 0.967739999999992,
          "durationTicks": 960,
          "midi": 50,
          "name": "D3",
          "ticks": 121345,
          "time": 122.32334406250001,
          "velocity": 0.2755905511811024
        },
        {
          "duration": 0.967739999999992,
          "durationTicks": 960,
          "midi": 43,
          "name": "G2",
          "ticks": 121345,
          "time": 122.32334406250001,
          "velocity": 0.2755905511811024
        },
        {
          "duration": 0.967739999999992,
          "durationTicks": 960,
          "midi": 55,
          "name": "G3",
          "ticks": 121345,
          "time": 122.32334406250001,
          "velocity": 0.3228346456692913
        },
        {
          "duration": 0.09677399999999636,
          "durationTicks": 96,
          "midi": 43,
          "name": "G2",
          "ticks": 122308,
          "time": 123.29410825000001,
          "velocity": 0.2283464566929134
        },
        {
          "duration": 0.09677399999999636,
          "durationTicks": 96,
          "midi": 45,
          "name": "A2",
          "ticks": 122498,
          "time": 123.48564012499999,
          "velocity": 0.2283464566929134
        },
        {
          "duration": 0.09677399999999636,
          "durationTicks": 96,
          "midi": 47,
          "name": "B2",
          "ticks": 122687,
          "time": 123.6761639375,
          "velocity": 0.2283464566929134
        },
        {
          "duration": 0.09677400000001057,
          "durationTicks": 96,
          "midi": 48,
          "name": "C3",
          "ticks": 122879,
          "time": 123.86971193749999,
          "velocity": 0.2440944881889764
        },
        {
          "duration": 0.09677400000001057,
          "durationTicks": 96,
          "midi": 51,
          "name": "D#3",
          "ticks": 123082,
          "time": 124.074348625,
          "velocity": 0.2047244094488189
        },
        {
          "duration": 0.09677400000001057,
          "durationTicks": 96,
          "midi": 55,
          "name": "G3",
          "ticks": 123082,
          "time": 124.074348625,
          "velocity": 0.2440944881889764
        },
        {
          "duration": 0.09677399999999636,
          "durationTicks": 96,
          "midi": 43,
          "name": "G2",
          "ticks": 123273,
          "time": 124.2668885625,
          "velocity": 0.2283464566929134
        },
        {
          "duration": 0.09677399999999636,
          "durationTicks": 96,
          "midi": 51,
          "name": "D#3",
          "ticks": 123462,
          "time": 124.457412375,
          "velocity": 0.2047244094488189
        },
        {
          "duration": 0.09677399999999636,
          "durationTicks": 96,
          "midi": 55,
          "name": "G3",
          "ticks": 123462,
          "time": 124.457412375,
          "velocity": 0.2440944881889764
        },
        {
          "duration": 0.09677399999999636,
          "durationTicks": 96,
          "midi": 48,
          "name": "C3",
          "ticks": 123653,
          "time": 124.64995231249999,
          "velocity": 0.23622047244094488
        },
        {
          "duration": 0.09677399999999636,
          "durationTicks": 96,
          "midi": 51,
          "name": "D#3",
          "ticks": 123844,
          "time": 124.84249225,
          "velocity": 0.2047244094488189
        },
        {
          "duration": 0.09677399999999636,
          "durationTicks": 96,
          "midi": 55,
          "name": "G3",
          "ticks": 123844,
          "time": 124.84249225,
          "velocity": 0.2440944881889764
        },
        {
          "duration": 0.09677400000001057,
          "durationTicks": 96,
          "midi": 43,
          "name": "G2",
          "ticks": 124034,
          "time": 125.03402412499999,
          "velocity": 0.2283464566929134
        },
        {
          "duration": 0.09677399999999636,
          "durationTicks": 96,
          "midi": 51,
          "name": "D#3",
          "ticks": 124223,
          "time": 125.22454793749999,
          "velocity": 0.2047244094488189
        },
        {
          "duration": 0.09677399999999636,
          "durationTicks": 96,
          "midi": 55,
          "name": "G3",
          "ticks": 124223,
          "time": 125.22454793749999,
          "velocity": 0.2440944881889764
        },
        {
          "duration": 0.09677400000001057,
          "durationTicks": 96,
          "midi": 48,
          "name": "C3",
          "ticks": 124415,
          "time": 125.41809593749998,
          "velocity": 0.2440944881889764
        },
        {
          "duration": 0.09677399999999636,
          "durationTicks": 96,
          "midi": 51,
          "name": "D#3",
          "ticks": 124618,
          "time": 125.62273262500001,
          "velocity": 0.2047244094488189
        },
        {
          "duration": 0.09677399999999636,
          "durationTicks": 96,
          "midi": 55,
          "name": "G3",
          "ticks": 124618,
          "time": 125.62273262500001,
          "velocity": 0.2440944881889764
        },
        {
          "duration": 0.09677399999999636,
          "durationTicks": 96,
          "midi": 43,
          "name": "G2",
          "ticks": 124809,
          "time": 125.8152725625,
          "velocity": 0.2283464566929134
        },
        {
          "duration": 0.09677399999999636,
          "durationTicks": 96,
          "midi": 51,
          "name": "D#3",
          "ticks": 124998,
          "time": 126.005796375,
          "velocity": 0.2047244094488189
        },
        {
          "duration": 0.09677399999999636,
          "durationTicks": 96,
          "midi": 55,
          "name": "G3",
          "ticks": 124998,
          "time": 126.005796375,
          "velocity": 0.2440944881889764
        },
        {
          "duration": 0.09677399999999636,
          "durationTicks": 96,
          "midi": 48,
          "name": "C3",
          "ticks": 125189,
          "time": 126.19833631249999,
          "velocity": 0.23622047244094488
        },
        {
          "duration": 0.09677399999999636,
          "durationTicks": 96,
          "midi": 51,
          "name": "D#3",
          "ticks": 125380,
          "time": 126.39087625,
          "velocity": 0.2047244094488189
        },
        {
          "duration": 0.09677399999999636,
          "durationTicks": 96,
          "midi": 55,
          "name": "G3",
          "ticks": 125380,
          "time": 126.39087625,
          "velocity": 0.2440944881889764
        },
        {
          "duration": 0.09677400000001057,
          "durationTicks": 96,
          "midi": 43,
          "name": "G2",
          "ticks": 125570,
          "time": 126.58240812499999,
          "velocity": 0.2283464566929134
        },
        {
          "duration": 0.09677399999999636,
          "durationTicks": 96,
          "midi": 51,
          "name": "D#3",
          "ticks": 125759,
          "time": 126.77293193749999,
          "velocity": 0.2047244094488189
        },
        {
          "duration": 0.09677399999999636,
          "durationTicks": 96,
          "midi": 55,
          "name": "G3",
          "ticks": 125759,
          "time": 126.77293193749999,
          "velocity": 0.2440944881889764
        },
        {
          "duration": 0.09677399999999636,
          "durationTicks": 96,
          "midi": 48,
          "name": "C3",
          "ticks": 125951,
          "time": 126.9664799375,
          "velocity": 0.2440944881889764
        },
        {
          "duration": 0.09677399999999636,
          "durationTicks": 96,
          "midi": 51,
          "name": "D#3",
          "ticks": 126154,
          "time": 127.17111662500001,
          "velocity": 0.2047244094488189
        },
        {
          "duration": 0.09677399999999636,
          "durationTicks": 96,
          "midi": 55,
          "name": "G3",
          "ticks": 126154,
          "time": 127.17111662500001,
          "velocity": 0.2440944881889764
        },
        {
          "duration": 0.09677399999999636,
          "durationTicks": 96,
          "midi": 43,
          "name": "G2",
          "ticks": 126345,
          "time": 127.3636565625,
          "velocity": 0.2283464566929134
        },
        {
          "duration": 0.09677399999999636,
          "durationTicks": 96,
          "midi": 51,
          "name": "D#3",
          "ticks": 126534,
          "time": 127.554180375,
          "velocity": 0.2047244094488189
        },
        {
          "duration": 0.09677399999999636,
          "durationTicks": 96,
          "midi": 55,
          "name": "G3",
          "ticks": 126534,
          "time": 127.554180375,
          "velocity": 0.2440944881889764
        },
        {
          "duration": 0.09677399999999636,
          "durationTicks": 96,
          "midi": 48,
          "name": "C3",
          "ticks": 126725,
          "time": 127.74672031249999,
          "velocity": 0.23622047244094488
        },
        {
          "duration": 0.09677399999999636,
          "durationTicks": 96,
          "midi": 51,
          "name": "D#3",
          "ticks": 126916,
          "time": 127.93926025,
          "velocity": 0.2047244094488189
        },
        {
          "duration": 0.09677399999999636,
          "durationTicks": 96,
          "midi": 55,
          "name": "G3",
          "ticks": 126916,
          "time": 127.93926025,
          "velocity": 0.2440944881889764
        },
        {
          "duration": 0.09677399999998215,
          "durationTicks": 96,
          "midi": 43,
          "name": "G2",
          "ticks": 127106,
          "time": 128.130792125,
          "velocity": 0.2283464566929134
        },
        {
          "duration": 0.09677399999998215,
          "durationTicks": 96,
          "midi": 51,
          "name": "D#3",
          "ticks": 127295,
          "time": 128.3213159375,
          "velocity": 0.2047244094488189
        },
        {
          "duration": 0.09677399999998215,
          "durationTicks": 96,
          "midi": 55,
          "name": "G3",
          "ticks": 127295,
          "time": 128.3213159375,
          "velocity": 0.2440944881889764
        },
        {
          "duration": 0.09677399999998215,
          "durationTicks": 96,
          "midi": 51,
          "name": "D#3",
          "ticks": 127487,
          "time": 128.5148639375,
          "velocity": 0.2440944881889764
        },
        {
          "duration": 0.09677400000001057,
          "durationTicks": 96,
          "midi": 55,
          "name": "G3",
          "ticks": 127690,
          "time": 128.719500625,
          "velocity": 0.2047244094488189
        },
        {
          "duration": 0.09677400000001057,
          "durationTicks": 96,
          "midi": 58,
          "name": "A#3",
          "ticks": 127690,
          "time": 128.719500625,
          "velocity": 0.2440944881889764
        },
        {
          "duration": 0.09677399999998215,
          "durationTicks": 96,
          "midi": 46,
          "name": "A#2",
          "ticks": 127881,
          "time": 128.9120405625,
          "velocity": 0.2283464566929134
        },
        {
          "duration": 0.09677400000001057,
          "durationTicks": 96,
          "midi": 55,
          "name": "G3",
          "ticks": 128070,
          "time": 129.102564375,
          "velocity": 0.2047244094488189
        },
        {
          "duration": 0.09677400000001057,
          "durationTicks": 96,
          "midi": 58,
          "name": "A#3",
          "ticks": 128070,
          "time": 129.102564375,
          "velocity": 0.2440944881889764
        },
        {
          "duration": 0.09677399999998215,
          "durationTicks": 96,
          "midi": 51,
          "name": "D#3",
          "ticks": 128261,
          "time": 129.2951043125,
          "velocity": 0.23622047244094488
        },
        {
          "duration": 0.09677399999998215,
          "durationTicks": 96,
          "midi": 55,
          "name": "G3",
          "ticks": 128452,
          "time": 129.48764425000002,
          "velocity": 0.2047244094488189
        },
        {
          "duration": 0.09677399999998215,
          "durationTicks": 96,
          "midi": 58,
          "name": "A#3",
          "ticks": 128452,
          "time": 129.48764425000002,
          "velocity": 0.2440944881889764
        },
        {
          "duration": 0.09677399999998215,
          "durationTicks": 96,
          "midi": 46,
          "name": "A#2",
          "ticks": 128642,
          "time": 129.679176125,
          "velocity": 0.2283464566929134
        },
        {
          "duration": 0.09677399999998215,
          "durationTicks": 96,
          "midi": 55,
          "name": "G3",
          "ticks": 128831,
          "time": 129.8696999375,
          "velocity": 0.2047244094488189
        },
        {
          "duration": 0.09677399999998215,
          "durationTicks": 96,
          "midi": 58,
          "name": "A#3",
          "ticks": 128831,
          "time": 129.8696999375,
          "velocity": 0.2440944881889764
        },
        {
          "duration": 0.09677400000001057,
          "durationTicks": 96,
          "midi": 46,
          "name": "A#2",
          "ticks": 129023,
          "time": 130.0632479375,
          "velocity": 0.2440944881889764
        },
        {
          "duration": 0.09677400000001057,
          "durationTicks": 96,
          "midi": 50,
          "name": "D3",
          "ticks": 129226,
          "time": 130.267884625,
          "velocity": 0.2047244094488189
        },
        {
          "duration": 0.09677400000001057,
          "durationTicks": 96,
          "midi": 53,
          "name": "F3",
          "ticks": 129226,
          "time": 130.267884625,
          "velocity": 0.2440944881889764
        },
        {
          "duration": 0.09677399999998215,
          "durationTicks": 96,
          "midi": 41,
          "name": "F2",
          "ticks": 129417,
          "time": 130.4604245625,
          "velocity": 0.2283464566929134
        },
        {
          "duration": 0.09677400000001057,
          "durationTicks": 96,
          "midi": 50,
          "name": "D3",
          "ticks": 129606,
          "time": 130.65094837499998,
          "velocity": 0.2047244094488189
        },
        {
          "duration": 0.09677400000001057,
          "durationTicks": 96,
          "midi": 53,
          "name": "F3",
          "ticks": 129606,
          "time": 130.65094837499998,
          "velocity": 0.2440944881889764
        },
        {
          "duration": 0.09677399999998215,
          "durationTicks": 96,
          "midi": 46,
          "name": "A#2",
          "ticks": 129797,
          "time": 130.8434883125,
          "velocity": 0.23622047244094488
        },
        {
          "duration": 0.09677399999998215,
          "durationTicks": 96,
          "midi": 50,
          "name": "D3",
          "ticks": 129988,
          "time": 131.03602825000002,
          "velocity": 0.2047244094488189
        },
        {
          "duration": 0.09677399999998215,
          "durationTicks": 96,
          "midi": 53,
          "name": "F3",
          "ticks": 129988,
          "time": 131.03602825000002,
          "velocity": 0.2440944881889764
        },
        {
          "duration": 0.09677399999998215,
          "durationTicks": 96,
          "midi": 41,
          "name": "F2",
          "ticks": 130178,
          "time": 131.227560125,
          "velocity": 0.2283464566929134
        },
        {
          "duration": 0.09677399999998215,
          "durationTicks": 96,
          "midi": 50,
          "name": "D3",
          "ticks": 130367,
          "time": 131.4180839375,
          "velocity": 0.2047244094488189
        },
        {
          "duration": 0.09677399999998215,
          "durationTicks": 96,
          "midi": 53,
          "name": "F3",
          "ticks": 130367,
          "time": 131.4180839375,
          "velocity": 0.2440944881889764
        },
        {
          "duration": 0.09677400000001057,
          "durationTicks": 96,
          "midi": 44,
          "name": "G#2",
          "ticks": 130559,
          "time": 131.6116319375,
          "velocity": 0.2440944881889764
        },
        {
          "duration": 0.09677400000001057,
          "durationTicks": 96,
          "midi": 48,
          "name": "C3",
          "ticks": 130762,
          "time": 131.816268625,
          "velocity": 0.2047244094488189
        },
        {
          "duration": 0.09677400000001057,
          "durationTicks": 96,
          "midi": 51,
          "name": "D#3",
          "ticks": 130762,
          "time": 131.816268625,
          "velocity": 0.2440944881889764
        },
        {
          "duration": 0.09677399999998215,
          "durationTicks": 96,
          "midi": 39,
          "name": "D#2",
          "ticks": 130953,
          "time": 132.0088085625,
          "velocity": 0.2283464566929134
        },
        {
          "duration": 0.09677399999998215,
          "durationTicks": 96,
          "midi": 48,
          "name": "C3",
          "ticks": 131142,
          "time": 132.199332375,
          "velocity": 0.2047244094488189
        },
        {
          "duration": 0.09677399999998215,
          "durationTicks": 96,
          "midi": 51,
          "name": "D#3",
          "ticks": 131142,
          "time": 132.199332375,
          "velocity": 0.2440944881889764
        },
        {
          "duration": 0.09677399999998215,
          "durationTicks": 96,
          "midi": 43,
          "name": "G2",
          "ticks": 131333,
          "time": 132.3918723125,
          "velocity": 0.23622047244094488
        },
        {
          "duration": 0.09677399999998215,
          "durationTicks": 96,
          "midi": 47,
          "name": "B2",
          "ticks": 131524,
          "time": 132.58441225,
          "velocity": 0.2047244094488189
        },
        {
          "duration": 0.09677399999998215,
          "durationTicks": 96,
          "midi": 50,
          "name": "D3",
          "ticks": 131524,
          "time": 132.58441225,
          "velocity": 0.2440944881889764
        },
        {
          "duration": 0.09677399999998215,
          "durationTicks": 96,
          "midi": 38,
          "name": "D2",
          "ticks": 131714,
          "time": 132.775944125,
          "velocity": 0.2283464566929134
        },
        {
          "duration": 0.09677399999998215,
          "durationTicks": 96,
          "midi": 47,
          "name": "B2",
          "ticks": 131903,
          "time": 132.9664679375,
          "velocity": 0.2047244094488189
        },
        {
          "duration": 0.09677399999998215,
          "durationTicks": 96,
          "midi": 50,
          "name": "D3",
          "ticks": 131903,
          "time": 132.9664679375,
          "velocity": 0.2440944881889764
        },
        {
          "duration": 0.09677400000001057,
          "durationTicks": 96,
          "midi": 48,
          "name": "C3",
          "ticks": 132095,
          "time": 133.1600159375,
          "velocity": 0.2440944881889764
        },
        {
          "duration": 0.09677399999998215,
          "durationTicks": 96,
          "midi": 51,
          "name": "D#3",
          "ticks": 132298,
          "time": 133.36465262500002,
          "velocity": 0.2047244094488189
        },
        {
          "duration": 0.09677399999998215,
          "durationTicks": 96,
          "midi": 55,
          "name": "G3",
          "ticks": 132298,
          "time": 133.36465262500002,
          "velocity": 0.2440944881889764
        },
        {
          "duration": 0.09677399999998215,
          "durationTicks": 96,
          "midi": 43,
          "name": "G2",
          "ticks": 132489,
          "time": 133.5571925625,
          "velocity": 0.2283464566929134
        },
        {
          "duration": 0.09677399999998215,
          "durationTicks": 96,
          "midi": 51,
          "name": "D#3",
          "ticks": 132678,
          "time": 133.747716375,
          "velocity": 0.2047244094488189
        },
        {
          "duration": 0.09677399999998215,
          "durationTicks": 96,
          "midi": 55,
          "name": "G3",
          "ticks": 132678,
          "time": 133.747716375,
          "velocity": 0.2440944881889764
        },
        {
          "duration": 0.09677399999998215,
          "durationTicks": 96,
          "midi": 48,
          "name": "C3",
          "ticks": 132869,
          "time": 133.9402563125,
          "velocity": 0.23622047244094488
        },
        {
          "duration": 0.09677399999998215,
          "durationTicks": 96,
          "midi": 51,
          "name": "D#3",
          "ticks": 133060,
          "time": 134.13279625,
          "velocity": 0.2047244094488189
        },
        {
          "duration": 0.09677399999998215,
          "durationTicks": 96,
          "midi": 55,
          "name": "G3",
          "ticks": 133060,
          "time": 134.13279625,
          "velocity": 0.2440944881889764
        },
        {
          "duration": 0.09677400000001057,
          "durationTicks": 96,
          "midi": 43,
          "name": "G2",
          "ticks": 133250,
          "time": 134.324328125,
          "velocity": 0.2283464566929134
        },
        {
          "duration": 0.09677399999998215,
          "durationTicks": 96,
          "midi": 51,
          "name": "D#3",
          "ticks": 133439,
          "time": 134.5148519375,
          "velocity": 0.2047244094488189
        },
        {
          "duration": 0.09677399999998215,
          "durationTicks": 96,
          "midi": 55,
          "name": "G3",
          "ticks": 133439,
          "time": 134.5148519375,
          "velocity": 0.2440944881889764
        },
        {
          "duration": 0.09677400000001057,
          "durationTicks": 96,
          "midi": 51,
          "name": "D#3",
          "ticks": 133631,
          "time": 134.7083999375,
          "velocity": 0.2440944881889764
        },
        {
          "duration": 0.09677399999998215,
          "durationTicks": 96,
          "midi": 55,
          "name": "G3",
          "ticks": 133834,
          "time": 134.91303662500002,
          "velocity": 0.2047244094488189
        },
        {
          "duration": 0.09677399999998215,
          "durationTicks": 96,
          "midi": 58,
          "name": "A#3",
          "ticks": 133834,
          "time": 134.91303662500002,
          "velocity": 0.2440944881889764
        },
        {
          "duration": 0.09677399999998215,
          "durationTicks": 96,
          "midi": 46,
          "name": "A#2",
          "ticks": 134025,
          "time": 135.1055765625,
          "velocity": 0.2283464566929134
        },
        {
          "duration": 0.09677399999998215,
          "durationTicks": 96,
          "midi": 55,
          "name": "G3",
          "ticks": 134214,
          "time": 135.296100375,
          "velocity": 0.2047244094488189
        },
        {
          "duration": 0.09677399999998215,
          "durationTicks": 96,
          "midi": 58,
          "name": "A#3",
          "ticks": 134214,
          "time": 135.296100375,
          "velocity": 0.2440944881889764
        },
        {
          "duration": 0.09677399999998215,
          "durationTicks": 96,
          "midi": 51,
          "name": "D#3",
          "ticks": 134405,
          "time": 135.4886403125,
          "velocity": 0.23622047244094488
        },
        {
          "duration": 0.09677399999998215,
          "durationTicks": 96,
          "midi": 55,
          "name": "G3",
          "ticks": 134596,
          "time": 135.68118025,
          "velocity": 0.2047244094488189
        },
        {
          "duration": 0.09677399999998215,
          "durationTicks": 96,
          "midi": 58,
          "name": "A#3",
          "ticks": 134596,
          "time": 135.68118025,
          "velocity": 0.2440944881889764
        },
        {
          "duration": 0.09677400000001057,
          "durationTicks": 96,
          "midi": 46,
          "name": "A#2",
          "ticks": 134786,
          "time": 135.872712125,
          "velocity": 0.2283464566929134
        },
        {
          "duration": 0.09677399999998215,
          "durationTicks": 96,
          "midi": 55,
          "name": "G3",
          "ticks": 134975,
          "time": 136.0632359375,
          "velocity": 0.2047244094488189
        },
        {
          "duration": 0.09677399999998215,
          "durationTicks": 96,
          "midi": 58,
          "name": "A#3",
          "ticks": 134975,
          "time": 136.0632359375,
          "velocity": 0.2440944881889764
        },
        {
          "duration": 0.09677400000001057,
          "durationTicks": 96,
          "midi": 46,
          "name": "A#2",
          "ticks": 135167,
          "time": 136.2567839375,
          "velocity": 0.2440944881889764
        },
        {
          "duration": 0.09677399999998215,
          "durationTicks": 96,
          "midi": 50,
          "name": "D3",
          "ticks": 135370,
          "time": 136.46142062500002,
          "velocity": 0.2047244094488189
        },
        {
          "duration": 0.09677399999998215,
          "durationTicks": 96,
          "midi": 53,
          "name": "F3",
          "ticks": 135370,
          "time": 136.46142062500002,
          "velocity": 0.2440944881889764
        },
        {
          "duration": 0.09677399999998215,
          "durationTicks": 96,
          "midi": 41,
          "name": "F2",
          "ticks": 135561,
          "time": 136.6539605625,
          "velocity": 0.2283464566929134
        },
        {
          "duration": 0.09677399999998215,
          "durationTicks": 96,
          "midi": 50,
          "name": "D3",
          "ticks": 135750,
          "time": 136.844484375,
          "velocity": 0.2047244094488189
        },
        {
          "duration": 0.09677399999998215,
          "durationTicks": 96,
          "midi": 53,
          "name": "F3",
          "ticks": 135750,
          "time": 136.844484375,
          "velocity": 0.2440944881889764
        },
        {
          "duration": 0.09677400000001057,
          "durationTicks": 96,
          "midi": 46,
          "name": "A#2",
          "ticks": 135941,
          "time": 137.0370243125,
          "velocity": 0.23622047244094488
        },
        {
          "duration": 0.09677399999998215,
          "durationTicks": 96,
          "midi": 50,
          "name": "D3",
          "ticks": 136132,
          "time": 137.22956425,
          "velocity": 0.2047244094488189
        },
        {
          "duration": 0.09677399999998215,
          "durationTicks": 96,
          "midi": 53,
          "name": "F3",
          "ticks": 136132,
          "time": 137.22956425,
          "velocity": 0.2440944881889764
        },
        {
          "duration": 0.09677400000001057,
          "durationTicks": 96,
          "midi": 41,
          "name": "F2",
          "ticks": 136322,
          "time": 137.421096125,
          "velocity": 0.2283464566929134
        },
        {
          "duration": 0.09677399999998215,
          "durationTicks": 96,
          "midi": 50,
          "name": "D3",
          "ticks": 136511,
          "time": 137.6116199375,
          "velocity": 0.2047244094488189
        },
        {
          "duration": 0.09677399999998215,
          "durationTicks": 96,
          "midi": 53,
          "name": "F3",
          "ticks": 136511,
          "time": 137.6116199375,
          "velocity": 0.2440944881889764
        },
        {
          "duration": 0.09677400000001057,
          "durationTicks": 96,
          "midi": 44,
          "name": "G#2",
          "ticks": 136703,
          "time": 137.8051679375,
          "velocity": 0.2440944881889764
        },
        {
          "duration": 0.09677399999998215,
          "durationTicks": 96,
          "midi": 48,
          "name": "C3",
          "ticks": 136906,
          "time": 138.00980462500002,
          "velocity": 0.2047244094488189
        },
        {
          "duration": 0.09677399999998215,
          "durationTicks": 96,
          "midi": 51,
          "name": "D#3",
          "ticks": 136906,
          "time": 138.00980462500002,
          "velocity": 0.2440944881889764
        },
        {
          "duration": 0.09677399999998215,
          "durationTicks": 96,
          "midi": 39,
          "name": "D#2",
          "ticks": 137097,
          "time": 138.2023445625,
          "velocity": 0.2283464566929134
        },
        {
          "duration": 0.09677399999998215,
          "durationTicks": 96,
          "midi": 48,
          "name": "C3",
          "ticks": 137286,
          "time": 138.392868375,
          "velocity": 0.2047244094488189
        },
        {
          "duration": 0.09677399999998215,
          "durationTicks": 96,
          "midi": 51,
          "name": "D#3",
          "ticks": 137286,
          "time": 138.392868375,
          "velocity": 0.2440944881889764
        },
        {
          "duration": 0.09677400000001057,
          "durationTicks": 96,
          "midi": 43,
          "name": "G2",
          "ticks": 137477,
          "time": 138.5854083125,
          "velocity": 0.23622047244094488
        },
        {
          "duration": 0.09677400000001057,
          "durationTicks": 96,
          "midi": 47,
          "name": "B2",
          "ticks": 137668,
          "time": 138.77794825,
          "velocity": 0.2047244094488189
        },
        {
          "duration": 0.09677400000001057,
          "durationTicks": 96,
          "midi": 50,
          "name": "D3",
          "ticks": 137668,
          "time": 138.77794825,
          "velocity": 0.2440944881889764
        },
        {
          "duration": 0.09677400000001057,
          "durationTicks": 96,
          "midi": 38,
          "name": "D2",
          "ticks": 137858,
          "time": 138.969480125,
          "velocity": 0.2283464566929134
        },
        {
          "duration": 0.09677400000001057,
          "durationTicks": 96,
          "midi": 47,
          "name": "B2",
          "ticks": 138047,
          "time": 139.1600039375,
          "velocity": 0.2047244094488189
        },
        {
          "duration": 0.09677400000001057,
          "durationTicks": 96,
          "midi": 50,
          "name": "D3",
          "ticks": 138047,
          "time": 139.1600039375,
          "velocity": 0.2440944881889764
        },
        {
          "duration": 0.09677400000001057,
          "durationTicks": 96,
          "midi": 44,
          "name": "G#2",
          "ticks": 138239,
          "time": 139.3535519375,
          "velocity": 0.2440944881889764
        },
        {
          "duration": 0.09677399999998215,
          "durationTicks": 96,
          "midi": 48,
          "name": "C3",
          "ticks": 138442,
          "time": 139.558188625,
          "velocity": 0.2047244094488189
        },
        {
          "duration": 0.09677399999998215,
          "durationTicks": 96,
          "midi": 51,
          "name": "D#3",
          "ticks": 138442,
          "time": 139.558188625,
          "velocity": 0.2440944881889764
        },
        {
          "duration": 0.09677400000001057,
          "durationTicks": 96,
          "midi": 39,
          "name": "D#2",
          "ticks": 138633,
          "time": 139.7507285625,
          "velocity": 0.2283464566929134
        },
        {
          "duration": 0.09677399999998215,
          "durationTicks": 96,
          "midi": 48,
          "name": "C3",
          "ticks": 138822,
          "time": 139.941252375,
          "velocity": 0.2047244094488189
        },
        {
          "duration": 0.09677399999998215,
          "durationTicks": 96,
          "midi": 51,
          "name": "D#3",
          "ticks": 138822,
          "time": 139.941252375,
          "velocity": 0.2440944881889764
        },
        {
          "duration": 0.09677400000001057,
          "durationTicks": 96,
          "midi": 44,
          "name": "G#2",
          "ticks": 139013,
          "time": 140.1337923125,
          "velocity": 0.23622047244094488
        },
        {
          "duration": 0.09677400000001057,
          "durationTicks": 96,
          "midi": 48,
          "name": "C3",
          "ticks": 139204,
          "time": 140.32633225,
          "velocity": 0.2047244094488189
        },
        {
          "duration": 0.09677400000001057,
          "durationTicks": 96,
          "midi": 51,
          "name": "D#3",
          "ticks": 139204,
          "time": 140.32633225,
          "velocity": 0.2440944881889764
        },
        {
          "duration": 0.09677400000001057,
          "durationTicks": 96,
          "midi": 39,
          "name": "D#2",
          "ticks": 139394,
          "time": 140.517864125,
          "velocity": 0.2283464566929134
        },
        {
          "duration": 0.09677400000001057,
          "durationTicks": 96,
          "midi": 48,
          "name": "C3",
          "ticks": 139583,
          "time": 140.7083879375,
          "velocity": 0.2047244094488189
        },
        {
          "duration": 0.09677400000001057,
          "durationTicks": 96,
          "midi": 51,
          "name": "D#3",
          "ticks": 139583,
          "time": 140.7083879375,
          "velocity": 0.2440944881889764
        },
        {
          "duration": 0.09677400000001057,
          "durationTicks": 96,
          "midi": 53,
          "name": "F3",
          "ticks": 139775,
          "time": 140.90193593749999,
          "velocity": 0.2440944881889764
        },
        {
          "duration": 0.09677399999998215,
          "durationTicks": 96,
          "midi": 56,
          "name": "G#3",
          "ticks": 139978,
          "time": 141.106572625,
          "velocity": 0.2047244094488189
        },
        {
          "duration": 0.09677399999998215,
          "durationTicks": 96,
          "midi": 60,
          "name": "C4",
          "ticks": 139978,
          "time": 141.106572625,
          "velocity": 0.2440944881889764
        },
        {
          "duration": 0.09677400000001057,
          "durationTicks": 96,
          "midi": 48,
          "name": "C3",
          "ticks": 140169,
          "time": 141.2991125625,
          "velocity": 0.2283464566929134
        },
        {
          "duration": 0.09677399999998215,
          "durationTicks": 96,
          "midi": 56,
          "name": "G#3",
          "ticks": 140358,
          "time": 141.489636375,
          "velocity": 0.2047244094488189
        },
        {
          "duration": 0.09677399999998215,
          "durationTicks": 96,
          "midi": 60,
          "name": "C4",
          "ticks": 140358,
          "time": 141.489636375,
          "velocity": 0.2440944881889764
        },
        {
          "duration": 0.09677400000001057,
          "durationTicks": 96,
          "midi": 53,
          "name": "F3",
          "ticks": 140549,
          "time": 141.6821763125,
          "velocity": 0.23622047244094488
        },
        {
          "duration": 0.09677400000001057,
          "durationTicks": 96,
          "midi": 56,
          "name": "G#3",
          "ticks": 140740,
          "time": 141.87471625,
          "velocity": 0.2047244094488189
        },
        {
          "duration": 0.09677400000001057,
          "durationTicks": 96,
          "midi": 60,
          "name": "C4",
          "ticks": 140740,
          "time": 141.87471625,
          "velocity": 0.2440944881889764
        },
        {
          "duration": 0.09677400000001057,
          "durationTicks": 96,
          "midi": 48,
          "name": "C3",
          "ticks": 140930,
          "time": 142.066248125,
          "velocity": 0.2283464566929134
        },
        {
          "duration": 0.09677400000001057,
          "durationTicks": 96,
          "midi": 56,
          "name": "G#3",
          "ticks": 141119,
          "time": 142.2567719375,
          "velocity": 0.2047244094488189
        },
        {
          "duration": 0.09677400000001057,
          "durationTicks": 96,
          "midi": 60,
          "name": "C4",
          "ticks": 141119,
          "time": 142.2567719375,
          "velocity": 0.2440944881889764
        },
        {
          "duration": 0.09677400000001057,
          "durationTicks": 96,
          "midi": 46,
          "name": "A#2",
          "ticks": 141311,
          "time": 142.45031993749998,
          "velocity": 0.2440944881889764
        },
        {
          "duration": 0.09677399999998215,
          "durationTicks": 96,
          "midi": 50,
          "name": "D3",
          "ticks": 141514,
          "time": 142.654956625,
          "velocity": 0.2047244094488189
        },
        {
          "duration": 0.09677399999998215,
          "durationTicks": 96,
          "midi": 53,
          "name": "F3",
          "ticks": 141514,
          "time": 142.654956625,
          "velocity": 0.2440944881889764
        },
        {
          "duration": 0.09677400000001057,
          "durationTicks": 96,
          "midi": 41,
          "name": "F2",
          "ticks": 141705,
          "time": 142.8474965625,
          "velocity": 0.2283464566929134
        },
        {
          "duration": 0.09677399999998215,
          "durationTicks": 96,
          "midi": 50,
          "name": "D3",
          "ticks": 141894,
          "time": 143.038020375,
          "velocity": 0.2047244094488189
        },
        {
          "duration": 0.09677399999998215,
          "durationTicks": 96,
          "midi": 53,
          "name": "F3",
          "ticks": 141894,
          "time": 143.038020375,
          "velocity": 0.2440944881889764
        },
        {
          "duration": 0.09677400000001057,
          "durationTicks": 96,
          "midi": 46,
          "name": "A#2",
          "ticks": 142085,
          "time": 143.2305603125,
          "velocity": 0.23622047244094488
        },
        {
          "duration": 0.09677400000001057,
          "durationTicks": 96,
          "midi": 50,
          "name": "D3",
          "ticks": 142276,
          "time": 143.42310025,
          "velocity": 0.2047244094488189
        },
        {
          "duration": 0.09677400000001057,
          "durationTicks": 96,
          "midi": 53,
          "name": "F3",
          "ticks": 142276,
          "time": 143.42310025,
          "velocity": 0.2440944881889764
        },
        {
          "duration": 0.09677400000001057,
          "durationTicks": 96,
          "midi": 41,
          "name": "F2",
          "ticks": 142466,
          "time": 143.61463212499999,
          "velocity": 0.2283464566929134
        },
        {
          "duration": 0.09677400000001057,
          "durationTicks": 96,
          "midi": 50,
          "name": "D3",
          "ticks": 142655,
          "time": 143.8051559375,
          "velocity": 0.2047244094488189
        },
        {
          "duration": 0.09677400000001057,
          "durationTicks": 96,
          "midi": 53,
          "name": "F3",
          "ticks": 142655,
          "time": 143.8051559375,
          "velocity": 0.2440944881889764
        },
        {
          "duration": 0.09677400000001057,
          "durationTicks": 96,
          "midi": 44,
          "name": "G#2",
          "ticks": 142847,
          "time": 143.99870393749998,
          "velocity": 0.2440944881889764
        },
        {
          "duration": 0.09677399999998215,
          "durationTicks": 96,
          "midi": 48,
          "name": "C3",
          "ticks": 143050,
          "time": 144.203340625,
          "velocity": 0.2047244094488189
        },
        {
          "duration": 0.09677399999998215,
          "durationTicks": 96,
          "midi": 51,
          "name": "D#3",
          "ticks": 143050,
          "time": 144.203340625,
          "velocity": 0.2440944881889764
        },
        {
          "duration": 0.09677400000001057,
          "durationTicks": 96,
          "midi": 39,
          "name": "D#2",
          "ticks": 143241,
          "time": 144.3958805625,
          "velocity": 0.2283464566929134
        },
        {
          "duration": 0.09677400000001057,
          "durationTicks": 96,
          "midi": 48,
          "name": "C3",
          "ticks": 143430,
          "time": 144.586404375,
          "velocity": 0.2047244094488189
        },
        {
          "duration": 0.09677400000001057,
          "durationTicks": 96,
          "midi": 51,
          "name": "D#3",
          "ticks": 143430,
          "time": 144.586404375,
          "velocity": 0.2440944881889764
        },
        {
          "duration": 0.09677400000001057,
          "durationTicks": 96,
          "midi": 43,
          "name": "G2",
          "ticks": 143621,
          "time": 144.7789443125,
          "velocity": 0.23622047244094488
        },
        {
          "duration": 0.09677400000001057,
          "durationTicks": 96,
          "midi": 47,
          "name": "B2",
          "ticks": 143812,
          "time": 144.97148425,
          "velocity": 0.2047244094488189
        },
        {
          "duration": 0.09677400000001057,
          "durationTicks": 96,
          "midi": 50,
          "name": "D3",
          "ticks": 143812,
          "time": 144.97148425,
          "velocity": 0.2440944881889764
        },
        {
          "duration": 0.09677400000001057,
          "durationTicks": 96,
          "midi": 38,
          "name": "D2",
          "ticks": 144002,
          "time": 145.16301612499998,
          "velocity": 0.2283464566929134
        },
        {
          "duration": 0.09677400000001057,
          "durationTicks": 96,
          "midi": 47,
          "name": "B2",
          "ticks": 144191,
          "time": 145.3535399375,
          "velocity": 0.2047244094488189
        },
        {
          "duration": 0.09677400000001057,
          "durationTicks": 96,
          "midi": 50,
          "name": "D3",
          "ticks": 144191,
          "time": 145.3535399375,
          "velocity": 0.2440944881889764
        },
        {
          "duration": 0.09677400000001057,
          "durationTicks": 96,
          "midi": 44,
          "name": "G#2",
          "ticks": 144383,
          "time": 145.54708793749998,
          "velocity": 0.2440944881889764
        },
        {
          "duration": 0.09677400000001057,
          "durationTicks": 96,
          "midi": 48,
          "name": "C3",
          "ticks": 144586,
          "time": 145.751724625,
          "velocity": 0.2047244094488189
        },
        {
          "duration": 0.09677400000001057,
          "durationTicks": 96,
          "midi": 51,
          "name": "D#3",
          "ticks": 144586,
          "time": 145.751724625,
          "velocity": 0.2440944881889764
        },
        {
          "duration": 0.09677400000001057,
          "durationTicks": 96,
          "midi": 39,
          "name": "D#2",
          "ticks": 144777,
          "time": 145.9442645625,
          "velocity": 0.2283464566929134
        },
        {
          "duration": 0.09677400000001057,
          "durationTicks": 96,
          "midi": 48,
          "name": "C3",
          "ticks": 144966,
          "time": 146.134788375,
          "velocity": 0.2047244094488189
        },
        {
          "duration": 0.09677400000001057,
          "durationTicks": 96,
          "midi": 51,
          "name": "D#3",
          "ticks": 144966,
          "time": 146.134788375,
          "velocity": 0.2440944881889764
        },
        {
          "duration": 0.09677400000001057,
          "durationTicks": 96,
          "midi": 44,
          "name": "G#2",
          "ticks": 145157,
          "time": 146.3273283125,
          "velocity": 0.23622047244094488
        },
        {
          "duration": 0.09677400000001057,
          "durationTicks": 96,
          "midi": 48,
          "name": "C3",
          "ticks": 145348,
          "time": 146.51986825,
          "velocity": 0.2047244094488189
        },
        {
          "duration": 0.09677400000001057,
          "durationTicks": 96,
          "midi": 51,
          "name": "D#3",
          "ticks": 145348,
          "time": 146.51986825,
          "velocity": 0.2440944881889764
        },
        {
          "duration": 0.09677400000001057,
          "durationTicks": 96,
          "midi": 39,
          "name": "D#2",
          "ticks": 145538,
          "time": 146.71140012499998,
          "velocity": 0.2283464566929134
        },
        {
          "duration": 0.09677400000001057,
          "durationTicks": 96,
          "midi": 48,
          "name": "C3",
          "ticks": 145727,
          "time": 146.9019239375,
          "velocity": 0.2047244094488189
        },
        {
          "duration": 0.09677400000001057,
          "durationTicks": 96,
          "midi": 51,
          "name": "D#3",
          "ticks": 145727,
          "time": 146.9019239375,
          "velocity": 0.2440944881889764
        },
        {
          "duration": 0.09677400000001057,
          "durationTicks": 96,
          "midi": 53,
          "name": "F3",
          "ticks": 145919,
          "time": 147.09547193749998,
          "velocity": 0.2440944881889764
        },
        {
          "duration": 0.09677400000001057,
          "durationTicks": 96,
          "midi": 56,
          "name": "G#3",
          "ticks": 146122,
          "time": 147.300108625,
          "velocity": 0.2047244094488189
        },
        {
          "duration": 0.09677400000001057,
          "durationTicks": 96,
          "midi": 60,
          "name": "C4",
          "ticks": 146122,
          "time": 147.300108625,
          "velocity": 0.2440944881889764
        },
        {
          "duration": 0.09677400000001057,
          "durationTicks": 96,
          "midi": 48,
          "name": "C3",
          "ticks": 146313,
          "time": 147.4926485625,
          "velocity": 0.2283464566929134
        },
        {
          "duration": 0.09677400000001057,
          "durationTicks": 96,
          "midi": 56,
          "name": "G#3",
          "ticks": 146502,
          "time": 147.683172375,
          "velocity": 0.2047244094488189
        },
        {
          "duration": 0.09677400000001057,
          "durationTicks": 96,
          "midi": 60,
          "name": "C4",
          "ticks": 146502,
          "time": 147.683172375,
          "velocity": 0.2440944881889764
        },
        {
          "duration": 0.09677400000001057,
          "durationTicks": 96,
          "midi": 53,
          "name": "F3",
          "ticks": 146693,
          "time": 147.87571231249999,
          "velocity": 0.23622047244094488
        },
        {
          "duration": 0.09677400000001057,
          "durationTicks": 96,
          "midi": 56,
          "name": "G#3",
          "ticks": 146884,
          "time": 148.06825225,
          "velocity": 0.2047244094488189
        },
        {
          "duration": 0.09677400000001057,
          "durationTicks": 96,
          "midi": 60,
          "name": "C4",
          "ticks": 146884,
          "time": 148.06825225,
          "velocity": 0.2440944881889764
        },
        {
          "duration": 0.09677400000001057,
          "durationTicks": 96,
          "midi": 48,
          "name": "C3",
          "ticks": 147074,
          "time": 148.25978412499998,
          "velocity": 0.2283464566929134
        },
        {
          "duration": 0.09677400000001057,
          "durationTicks": 96,
          "midi": 56,
          "name": "G#3",
          "ticks": 147263,
          "time": 148.45030793749999,
          "velocity": 0.2047244094488189
        },
        {
          "duration": 0.09677400000001057,
          "durationTicks": 96,
          "midi": 60,
          "name": "C4",
          "ticks": 147263,
          "time": 148.45030793749999,
          "velocity": 0.2440944881889764
        },
        {
          "duration": 0.09677400000001057,
          "durationTicks": 96,
          "midi": 46,
          "name": "A#2",
          "ticks": 147455,
          "time": 148.64385593749998,
          "velocity": 0.2440944881889764
        },
        {
          "duration": 0.09677400000001057,
          "durationTicks": 96,
          "midi": 50,
          "name": "D3",
          "ticks": 147658,
          "time": 148.848492625,
          "velocity": 0.2047244094488189
        },
        {
          "duration": 0.09677400000001057,
          "durationTicks": 96,
          "midi": 53,
          "name": "F3",
          "ticks": 147658,
          "time": 148.848492625,
          "velocity": 0.2440944881889764
        },
        {
          "duration": 0.09677400000001057,
          "durationTicks": 96,
          "midi": 41,
          "name": "F2",
          "ticks": 147849,
          "time": 149.0410325625,
          "velocity": 0.2283464566929134
        },
        {
          "duration": 0.09677400000001057,
          "durationTicks": 96,
          "midi": 50,
          "name": "D3",
          "ticks": 148038,
          "time": 149.231556375,
          "velocity": 0.2047244094488189
        },
        {
          "duration": 0.09677400000001057,
          "durationTicks": 96,
          "midi": 53,
          "name": "F3",
          "ticks": 148038,
          "time": 149.231556375,
          "velocity": 0.2440944881889764
        },
        {
          "duration": 0.09677400000001057,
          "durationTicks": 96,
          "midi": 46,
          "name": "A#2",
          "ticks": 148229,
          "time": 149.42409631249998,
          "velocity": 0.23622047244094488
        },
        {
          "duration": 0.09677400000001057,
          "durationTicks": 96,
          "midi": 50,
          "name": "D3",
          "ticks": 148420,
          "time": 149.61663625,
          "velocity": 0.2047244094488189
        },
        {
          "duration": 0.09677400000001057,
          "durationTicks": 96,
          "midi": 53,
          "name": "F3",
          "ticks": 148420,
          "time": 149.61663625,
          "velocity": 0.2440944881889764
        },
        {
          "duration": 0.09677400000001057,
          "durationTicks": 96,
          "midi": 41,
          "name": "F2",
          "ticks": 148610,
          "time": 149.80816812499998,
          "velocity": 0.2283464566929134
        },
        {
          "duration": 0.09677400000001057,
          "durationTicks": 96,
          "midi": 50,
          "name": "D3",
          "ticks": 148799,
          "time": 149.99869193749998,
          "velocity": 0.2047244094488189
        },
        {
          "duration": 0.09677400000001057,
          "durationTicks": 96,
          "midi": 53,
          "name": "F3",
          "ticks": 148799,
          "time": 149.99869193749998,
          "velocity": 0.2440944881889764
        },
        {
          "duration": 0.3870960000000139,
          "durationTicks": 384,
          "midi": 31,
          "name": "G1",
          "ticks": 148991,
          "time": 150.19223993749998,
          "velocity": 0.2125984251968504
        },
        {
          "duration": 0.3870960000000139,
          "durationTicks": 384,
          "midi": 43,
          "name": "G2",
          "ticks": 148991,
          "time": 150.19223993749998,
          "velocity": 0.25984251968503935
        },
        {
          "duration": 0.3870960000000139,
          "durationTicks": 384,
          "midi": 32,
          "name": "G#1",
          "ticks": 149385,
          "time": 150.5894165625,
          "velocity": 0.1968503937007874
        },
        {
          "duration": 0.3870960000000139,
          "durationTicks": 384,
          "midi": 44,
          "name": "G#2",
          "ticks": 149385,
          "time": 150.5894165625,
          "velocity": 0.25196850393700787
        },
        {
          "duration": 0.3870960000000139,
          "durationTicks": 384,
          "midi": 31,
          "name": "G1",
          "ticks": 149765,
          "time": 150.97248031249998,
          "velocity": 0.2047244094488189
        },
        {
          "duration": 0.3870960000000139,
          "durationTicks": 384,
          "midi": 43,
          "name": "G2",
          "ticks": 149765,
          "time": 150.97248031249998,
          "velocity": 0.25984251968503935
        },
        {
          "duration": 0.3870960000000139,
          "durationTicks": 384,
          "midi": 32,
          "name": "G#1",
          "ticks": 150146,
          "time": 151.35655212499998,
          "velocity": 0.1968503937007874
        },
        {
          "duration": 0.3870960000000139,
          "durationTicks": 384,
          "midi": 44,
          "name": "G#2",
          "ticks": 150146,
          "time": 151.35655212499998,
          "velocity": 0.25196850393700787
        },
        {
          "duration": 0.19354799999999273,
          "durationTicks": 192,
          "midi": 31,
          "name": "G1",
          "ticks": 150527,
          "time": 151.7406239375,
          "velocity": 0.2125984251968504
        },
        {
          "duration": 0.19354799999999273,
          "durationTicks": 192,
          "midi": 43,
          "name": "G2",
          "ticks": 150527,
          "time": 151.7406239375,
          "velocity": 0.25984251968503935
        },
        {
          "duration": 0.19354799999999273,
          "durationTicks": 192,
          "midi": 32,
          "name": "G#1",
          "ticks": 150730,
          "time": 151.945260625,
          "velocity": 0.1968503937007874
        },
        {
          "duration": 0.19354799999999273,
          "durationTicks": 192,
          "midi": 44,
          "name": "G#2",
          "ticks": 150730,
          "time": 151.945260625,
          "velocity": 0.2440944881889764
        },
        {
          "duration": 0.19354800000002115,
          "durationTicks": 192,
          "midi": 31,
          "name": "G1",
          "ticks": 150921,
          "time": 152.1378005625,
          "velocity": 0.1968503937007874
        },
        {
          "duration": 0.19354800000002115,
          "durationTicks": 192,
          "midi": 43,
          "name": "G2",
          "ticks": 150921,
          "time": 152.1378005625,
          "velocity": 0.25196850393700787
        },
        {
          "duration": 0.19354799999999273,
          "durationTicks": 192,
          "midi": 32,
          "name": "G#1",
          "ticks": 151110,
          "time": 152.328324375,
          "velocity": 0.1968503937007874
        },
        {
          "duration": 0.19354799999999273,
          "durationTicks": 192,
          "midi": 44,
          "name": "G#2",
          "ticks": 151110,
          "time": 152.328324375,
          "velocity": 0.2440944881889764
        },
        {
          "duration": 0.19354800000002115,
          "durationTicks": 192,
          "midi": 31,
          "name": "G1",
          "ticks": 151301,
          "time": 152.52086431249998,
          "velocity": 0.2047244094488189
        },
        {
          "duration": 0.19354800000002115,
          "durationTicks": 192,
          "midi": 43,
          "name": "G2",
          "ticks": 151301,
          "time": 152.52086431249998,
          "velocity": 0.25984251968503935
        },
        {
          "duration": 0.19354800000002115,
          "durationTicks": 192,
          "midi": 32,
          "name": "G#1",
          "ticks": 151492,
          "time": 152.71340425,
          "velocity": 0.1968503937007874
        },
        {
          "duration": 0.19354800000002115,
          "durationTicks": 192,
          "midi": 44,
          "name": "G#2",
          "ticks": 151492,
          "time": 152.71340425,
          "velocity": 0.2440944881889764
        },
        {
          "duration": 0.19354800000002115,
          "durationTicks": 192,
          "midi": 31,
          "name": "G1",
          "ticks": 151682,
          "time": 152.90493612499998,
          "velocity": 0.1968503937007874
        },
        {
          "duration": 0.19354800000002115,
          "durationTicks": 192,
          "midi": 43,
          "name": "G2",
          "ticks": 151682,
          "time": 152.90493612499998,
          "velocity": 0.25196850393700787
        },
        {
          "duration": 0.19354800000002115,
          "durationTicks": 192,
          "midi": 32,
          "name": "G#1",
          "ticks": 151871,
          "time": 153.09545993749998,
          "velocity": 0.1968503937007874
        },
        {
          "duration": 0.19354800000002115,
          "durationTicks": 192,
          "midi": 44,
          "name": "G#2",
          "ticks": 151871,
          "time": 153.09545993749998,
          "velocity": 0.2440944881889764
        },
        {
          "duration": 0.19354799999999273,
          "durationTicks": 192,
          "midi": 31,
          "name": "G1",
          "ticks": 152063,
          "time": 153.2890079375,
          "velocity": 0.2125984251968504
        },
        {
          "duration": 0.19354799999999273,
          "durationTicks": 192,
          "midi": 43,
          "name": "G2",
          "ticks": 152063,
          "time": 153.2890079375,
          "velocity": 0.25984251968503935
        },
        {
          "duration": 0.19354799999999273,
          "durationTicks": 192,
          "midi": 32,
          "name": "G#1",
          "ticks": 152266,
          "time": 153.493644625,
          "velocity": 0.1968503937007874
        },
        {
          "duration": 0.19354799999999273,
          "durationTicks": 192,
          "midi": 44,
          "name": "G#2",
          "ticks": 152266,
          "time": 153.493644625,
          "velocity": 0.2440944881889764
        },
        {
          "duration": 0.19354800000002115,
          "durationTicks": 192,
          "midi": 31,
          "name": "G1",
          "ticks": 152457,
          "time": 153.6861845625,
          "velocity": 0.1968503937007874
        },
        {
          "duration": 0.19354800000002115,
          "durationTicks": 192,
          "midi": 43,
          "name": "G2",
          "ticks": 152457,
          "time": 153.6861845625,
          "velocity": 0.25196850393700787
        },
        {
          "duration": 0.19354799999999273,
          "durationTicks": 192,
          "midi": 32,
          "name": "G#1",
          "ticks": 152646,
          "time": 153.876708375,
          "velocity": 0.1968503937007874
        },
        {
          "duration": 0.19354799999999273,
          "durationTicks": 192,
          "midi": 44,
          "name": "G#2",
          "ticks": 152646,
          "time": 153.876708375,
          "velocity": 0.2440944881889764
        },
        {
          "duration": 0.19354800000002115,
          "durationTicks": 192,
          "midi": 31,
          "name": "G1",
          "ticks": 152837,
          "time": 154.06924831249998,
          "velocity": 0.25984251968503935
        },
        {
          "duration": 0.19354800000002115,
          "durationTicks": 192,
          "midi": 43,
          "name": "G2",
          "ticks": 152837,
          "time": 154.06924831249998,
          "velocity": 0.31496062992125984
        },
        {
          "duration": 0.19354800000002115,
          "durationTicks": 192,
          "midi": 31,
          "name": "G1",
          "ticks": 153028,
          "time": 154.26178825,
          "velocity": 0.25196850393700787
        },
        {
          "duration": 0.19354800000002115,
          "durationTicks": 192,
          "midi": 43,
          "name": "G2",
          "ticks": 153028,
          "time": 154.26178825,
          "velocity": 0.29133858267716534
        },
        {
          "duration": 0.19354799999999273,
          "durationTicks": 192,
          "midi": 31,
          "name": "G1",
          "ticks": 153218,
          "time": 154.453320125,
          "velocity": 0.25984251968503935
        },
        {
          "duration": 0.19354799999999273,
          "durationTicks": 192,
          "midi": 43,
          "name": "G2",
          "ticks": 153218,
          "time": 154.453320125,
          "velocity": 0.2992125984251969
        },
        {
          "duration": 0.19354800000002115,
          "durationTicks": 192,
          "midi": 31,
          "name": "G1",
          "ticks": 153407,
          "time": 154.64384393749998,
          "velocity": 0.25196850393700787
        },
        {
          "duration": 0.19354800000002115,
          "durationTicks": 192,
          "midi": 43,
          "name": "G2",
          "ticks": 153407,
          "time": 154.64384393749998,
          "velocity": 0.29133858267716534
        },
        {
          "duration": 0.09677399999998215,
          "durationTicks": 96,
          "midi": 48,
          "name": "C3",
          "ticks": 153599,
          "time": 154.8373919375,
          "velocity": 0.2440944881889764
        },
        {
          "duration": 0.09677400000001057,
          "durationTicks": 96,
          "midi": 51,
          "name": "D#3",
          "ticks": 153802,
          "time": 155.042028625,
          "velocity": 0.2047244094488189
        },
        {
          "duration": 0.09677400000001057,
          "durationTicks": 96,
          "midi": 55,
          "name": "G3",
          "ticks": 153802,
          "time": 155.042028625,
          "velocity": 0.2440944881889764
        },
        {
          "duration": 0.09677400000001057,
          "durationTicks": 96,
          "midi": 43,
          "name": "G2",
          "ticks": 153993,
          "time": 155.2345685625,
          "velocity": 0.2283464566929134
        },
        {
          "duration": 0.09677400000001057,
          "durationTicks": 96,
          "midi": 51,
          "name": "D#3",
          "ticks": 154182,
          "time": 155.425092375,
          "velocity": 0.2047244094488189
        },
        {
          "duration": 0.09677400000001057,
          "durationTicks": 96,
          "midi": 55,
          "name": "G3",
          "ticks": 154182,
          "time": 155.425092375,
          "velocity": 0.2440944881889764
        },
        {
          "duration": 0.09677400000001057,
          "durationTicks": 96,
          "midi": 48,
          "name": "C3",
          "ticks": 154373,
          "time": 155.61763231249998,
          "velocity": 0.23622047244094488
        },
        {
          "duration": 0.09677400000001057,
          "durationTicks": 96,
          "midi": 51,
          "name": "D#3",
          "ticks": 154564,
          "time": 155.81017225,
          "velocity": 0.2047244094488189
        },
        {
          "duration": 0.09677400000001057,
          "durationTicks": 96,
          "midi": 55,
          "name": "G3",
          "ticks": 154564,
          "time": 155.81017225,
          "velocity": 0.2440944881889764
        },
        {
          "duration": 0.09677399999998215,
          "durationTicks": 96,
          "midi": 43,
          "name": "G2",
          "ticks": 154754,
          "time": 156.001704125,
          "velocity": 0.2283464566929134
        },
        {
          "duration": 0.09677400000001057,
          "durationTicks": 96,
          "midi": 51,
          "name": "D#3",
          "ticks": 154943,
          "time": 156.19222793749998,
          "velocity": 0.2047244094488189
        },
        {
          "duration": 0.09677400000001057,
          "durationTicks": 96,
          "midi": 55,
          "name": "G3",
          "ticks": 154943,
          "time": 156.19222793749998,
          "velocity": 0.2440944881889764
        },
        {
          "duration": 0.09677399999998215,
          "durationTicks": 96,
          "midi": 51,
          "name": "D#3",
          "ticks": 155135,
          "time": 156.3857759375,
          "velocity": 0.2440944881889764
        },
        {
          "duration": 0.09677400000001057,
          "durationTicks": 96,
          "midi": 55,
          "name": "G3",
          "ticks": 155338,
          "time": 156.590412625,
          "velocity": 0.2047244094488189
        },
        {
          "duration": 0.09677400000001057,
          "durationTicks": 96,
          "midi": 58,
          "name": "A#3",
          "ticks": 155338,
          "time": 156.590412625,
          "velocity": 0.2440944881889764
        },
        {
          "duration": 0.09677400000001057,
          "durationTicks": 96,
          "midi": 46,
          "name": "A#2",
          "ticks": 155529,
          "time": 156.7829525625,
          "velocity": 0.2283464566929134
        },
        {
          "duration": 0.09677400000001057,
          "durationTicks": 96,
          "midi": 55,
          "name": "G3",
          "ticks": 155718,
          "time": 156.973476375,
          "velocity": 0.2047244094488189
        },
        {
          "duration": 0.09677400000001057,
          "durationTicks": 96,
          "midi": 58,
          "name": "A#3",
          "ticks": 155718,
          "time": 156.973476375,
          "velocity": 0.2440944881889764
        },
        {
          "duration": 0.09677400000001057,
          "durationTicks": 96,
          "midi": 51,
          "name": "D#3",
          "ticks": 155909,
          "time": 157.16601631249998,
          "velocity": 0.23622047244094488
        },
        {
          "duration": 0.09677400000001057,
          "durationTicks": 96,
          "midi": 55,
          "name": "G3",
          "ticks": 156100,
          "time": 157.35855625,
          "velocity": 0.2047244094488189
        },
        {
          "duration": 0.09677400000001057,
          "durationTicks": 96,
          "midi": 58,
          "name": "A#3",
          "ticks": 156100,
          "time": 157.35855625,
          "velocity": 0.2440944881889764
        },
        {
          "duration": 0.09677399999998215,
          "durationTicks": 96,
          "midi": 46,
          "name": "A#2",
          "ticks": 156290,
          "time": 157.550088125,
          "velocity": 0.2283464566929134
        },
        {
          "duration": 0.09677400000001057,
          "durationTicks": 96,
          "midi": 55,
          "name": "G3",
          "ticks": 156479,
          "time": 157.74061193749998,
          "velocity": 0.2047244094488189
        },
        {
          "duration": 0.09677400000001057,
          "durationTicks": 96,
          "midi": 58,
          "name": "A#3",
          "ticks": 156479,
          "time": 157.74061193749998,
          "velocity": 0.2440944881889764
        },
        {
          "duration": 0.09677399999998215,
          "durationTicks": 96,
          "midi": 46,
          "name": "A#2",
          "ticks": 156671,
          "time": 157.9341599375,
          "velocity": 0.2440944881889764
        },
        {
          "duration": 0.09677400000001057,
          "durationTicks": 96,
          "midi": 50,
          "name": "D3",
          "ticks": 156874,
          "time": 158.138796625,
          "velocity": 0.2047244094488189
        },
        {
          "duration": 0.09677400000001057,
          "durationTicks": 96,
          "midi": 53,
          "name": "F3",
          "ticks": 156874,
          "time": 158.138796625,
          "velocity": 0.2440944881889764
        },
        {
          "duration": 0.09677400000001057,
          "durationTicks": 96,
          "midi": 41,
          "name": "F2",
          "ticks": 157065,
          "time": 158.33133656249998,
          "velocity": 0.2283464566929134
        },
        {
          "duration": 0.09677400000001057,
          "durationTicks": 96,
          "midi": 50,
          "name": "D3",
          "ticks": 157254,
          "time": 158.521860375,
          "velocity": 0.2047244094488189
        },
        {
          "duration": 0.09677400000001057,
          "durationTicks": 96,
          "midi": 53,
          "name": "F3",
          "ticks": 157254,
          "time": 158.521860375,
          "velocity": 0.2440944881889764
        },
        {
          "duration": 0.09677399999998215,
          "durationTicks": 96,
          "midi": 46,
          "name": "A#2",
          "ticks": 157445,
          "time": 158.7144003125,
          "velocity": 0.23622047244094488
        },
        {
          "duration": 0.09677399999998215,
          "durationTicks": 96,
          "midi": 50,
          "name": "D3",
          "ticks": 157636,
          "time": 158.90694025000002,
          "velocity": 0.2047244094488189
        },
        {
          "duration": 0.09677399999998215,
          "durationTicks": 96,
          "midi": 53,
          "name": "F3",
          "ticks": 157636,
          "time": 158.90694025000002,
          "velocity": 0.2440944881889764
        },
        {
          "duration": 0.09677399999998215,
          "durationTicks": 96,
          "midi": 41,
          "name": "F2",
          "ticks": 157826,
          "time": 159.098472125,
          "velocity": 0.2283464566929134
        },
        {
          "duration": 0.09677399999998215,
          "durationTicks": 96,
          "midi": 50,
          "name": "D3",
          "ticks": 158015,
          "time": 159.2889959375,
          "velocity": 0.2047244094488189
        },
        {
          "duration": 0.09677399999998215,
          "durationTicks": 96,
          "midi": 53,
          "name": "F3",
          "ticks": 158015,
          "time": 159.2889959375,
          "velocity": 0.2440944881889764
        },
        {
          "duration": 0.09677399999998215,
          "durationTicks": 96,
          "midi": 44,
          "name": "G#2",
          "ticks": 158207,
          "time": 159.4825439375,
          "velocity": 0.2440944881889764
        },
        {
          "duration": 0.09677400000001057,
          "durationTicks": 96,
          "midi": 48,
          "name": "C3",
          "ticks": 158410,
          "time": 159.687180625,
          "velocity": 0.2047244094488189
        },
        {
          "duration": 0.09677400000001057,
          "durationTicks": 96,
          "midi": 51,
          "name": "D#3",
          "ticks": 158410,
          "time": 159.687180625,
          "velocity": 0.2440944881889764
        },
        {
          "duration": 0.09677399999998215,
          "durationTicks": 96,
          "midi": 39,
          "name": "D#2",
          "ticks": 158601,
          "time": 159.8797205625,
          "velocity": 0.2283464566929134
        },
        {
          "duration": 0.09677400000001057,
          "durationTicks": 96,
          "midi": 48,
          "name": "C3",
          "ticks": 158790,
          "time": 160.070244375,
          "velocity": 0.2047244094488189
        },
        {
          "duration": 0.09677400000001057,
          "durationTicks": 96,
          "midi": 51,
          "name": "D#3",
          "ticks": 158790,
          "time": 160.070244375,
          "velocity": 0.2440944881889764
        },
        {
          "duration": 0.09677399999998215,
          "durationTicks": 96,
          "midi": 43,
          "name": "G2",
          "ticks": 158981,
          "time": 160.2627843125,
          "velocity": 0.23622047244094488
        },
        {
          "duration": 0.09677399999998215,
          "durationTicks": 96,
          "midi": 47,
          "name": "B2",
          "ticks": 159172,
          "time": 160.45532425000002,
          "velocity": 0.2047244094488189
        },
        {
          "duration": 0.09677399999998215,
          "durationTicks": 96,
          "midi": 50,
          "name": "D3",
          "ticks": 159172,
          "time": 160.45532425000002,
          "velocity": 0.2440944881889764
        },
        {
          "duration": 0.09677399999998215,
          "durationTicks": 96,
          "midi": 38,
          "name": "D2",
          "ticks": 159362,
          "time": 160.646856125,
          "velocity": 0.2283464566929134
        },
        {
          "duration": 0.09677399999998215,
          "durationTicks": 96,
          "midi": 47,
          "name": "B2",
          "ticks": 159551,
          "time": 160.8373799375,
          "velocity": 0.2047244094488189
        },
        {
          "duration": 0.09677399999998215,
          "durationTicks": 96,
          "midi": 50,
          "name": "D3",
          "ticks": 159551,
          "time": 160.8373799375,
          "velocity": 0.2440944881889764
        },
        {
          "duration": 0.09677399999998215,
          "durationTicks": 96,
          "midi": 48,
          "name": "C3",
          "ticks": 159743,
          "time": 161.0309279375,
          "velocity": 0.2440944881889764
        },
        {
          "duration": 0.09677400000001057,
          "durationTicks": 96,
          "midi": 51,
          "name": "D#3",
          "ticks": 159946,
          "time": 161.235564625,
          "velocity": 0.2047244094488189
        },
        {
          "duration": 0.09677400000001057,
          "durationTicks": 96,
          "midi": 55,
          "name": "G3",
          "ticks": 159946,
          "time": 161.235564625,
          "velocity": 0.2440944881889764
        },
        {
          "duration": 0.09677399999998215,
          "durationTicks": 96,
          "midi": 43,
          "name": "G2",
          "ticks": 160137,
          "time": 161.4281045625,
          "velocity": 0.2283464566929134
        },
        {
          "duration": 0.09677400000001057,
          "durationTicks": 96,
          "midi": 51,
          "name": "D#3",
          "ticks": 160326,
          "time": 161.618628375,
          "velocity": 0.2047244094488189
        },
        {
          "duration": 0.09677400000001057,
          "durationTicks": 96,
          "midi": 55,
          "name": "G3",
          "ticks": 160326,
          "time": 161.618628375,
          "velocity": 0.2440944881889764
        },
        {
          "duration": 0.09677399999998215,
          "durationTicks": 96,
          "midi": 48,
          "name": "C3",
          "ticks": 160517,
          "time": 161.8111683125,
          "velocity": 0.23622047244094488
        },
        {
          "duration": 0.09677399999998215,
          "durationTicks": 96,
          "midi": 51,
          "name": "D#3",
          "ticks": 160708,
          "time": 162.00370825000002,
          "velocity": 0.2047244094488189
        },
        {
          "duration": 0.09677399999998215,
          "durationTicks": 96,
          "midi": 55,
          "name": "G3",
          "ticks": 160708,
          "time": 162.00370825000002,
          "velocity": 0.2440944881889764
        },
        {
          "duration": 0.09677399999998215,
          "durationTicks": 96,
          "midi": 43,
          "name": "G2",
          "ticks": 160898,
          "time": 162.195240125,
          "velocity": 0.2283464566929134
        },
        {
          "duration": 0.09677399999998215,
          "durationTicks": 96,
          "midi": 51,
          "name": "D#3",
          "ticks": 161087,
          "time": 162.3857639375,
          "velocity": 0.2047244094488189
        },
        {
          "duration": 0.09677399999998215,
          "durationTicks": 96,
          "midi": 55,
          "name": "G3",
          "ticks": 161087,
          "time": 162.3857639375,
          "velocity": 0.2440944881889764
        },
        {
          "duration": 0.09677399999998215,
          "durationTicks": 96,
          "midi": 51,
          "name": "D#3",
          "ticks": 161279,
          "time": 162.5793119375,
          "velocity": 0.2440944881889764
        },
        {
          "duration": 0.09677400000001057,
          "durationTicks": 96,
          "midi": 55,
          "name": "G3",
          "ticks": 161482,
          "time": 162.783948625,
          "velocity": 0.2047244094488189
        },
        {
          "duration": 0.09677400000001057,
          "durationTicks": 96,
          "midi": 58,
          "name": "A#3",
          "ticks": 161482,
          "time": 162.783948625,
          "velocity": 0.2440944881889764
        },
        {
          "duration": 0.09677399999998215,
          "durationTicks": 96,
          "midi": 46,
          "name": "A#2",
          "ticks": 161673,
          "time": 162.9764885625,
          "velocity": 0.2283464566929134
        },
        {
          "duration": 0.09677400000001057,
          "durationTicks": 96,
          "midi": 55,
          "name": "G3",
          "ticks": 161862,
          "time": 163.16701237499998,
          "velocity": 0.2047244094488189
        },
        {
          "duration": 0.09677400000001057,
          "durationTicks": 96,
          "midi": 58,
          "name": "A#3",
          "ticks": 161862,
          "time": 163.16701237499998,
          "velocity": 0.2440944881889764
        },
        {
          "duration": 0.09677399999998215,
          "durationTicks": 96,
          "midi": 51,
          "name": "D#3",
          "ticks": 162053,
          "time": 163.3595523125,
          "velocity": 0.23622047244094488
        },
        {
          "duration": 0.09677399999998215,
          "durationTicks": 96,
          "midi": 55,
          "name": "G3",
          "ticks": 162244,
          "time": 163.55209225000002,
          "velocity": 0.2047244094488189
        },
        {
          "duration": 0.09677399999998215,
          "durationTicks": 96,
          "midi": 58,
          "name": "A#3",
          "ticks": 162244,
          "time": 163.55209225000002,
          "velocity": 0.2440944881889764
        },
        {
          "duration": 0.09677399999998215,
          "durationTicks": 96,
          "midi": 46,
          "name": "A#2",
          "ticks": 162434,
          "time": 163.743624125,
          "velocity": 0.2283464566929134
        },
        {
          "duration": 0.09677399999998215,
          "durationTicks": 96,
          "midi": 55,
          "name": "G3",
          "ticks": 162623,
          "time": 163.9341479375,
          "velocity": 0.2047244094488189
        },
        {
          "duration": 0.09677399999998215,
          "durationTicks": 96,
          "midi": 58,
          "name": "A#3",
          "ticks": 162623,
          "time": 163.9341479375,
          "velocity": 0.2440944881889764
        },
        {
          "duration": 0.09677400000001057,
          "durationTicks": 96,
          "midi": 46,
          "name": "A#2",
          "ticks": 162815,
          "time": 164.1276959375,
          "velocity": 0.2440944881889764
        },
        {
          "duration": 0.09677400000001057,
          "durationTicks": 96,
          "midi": 50,
          "name": "D3",
          "ticks": 163018,
          "time": 164.332332625,
          "velocity": 0.2047244094488189
        },
        {
          "duration": 0.09677400000001057,
          "durationTicks": 96,
          "midi": 53,
          "name": "F3",
          "ticks": 163018,
          "time": 164.332332625,
          "velocity": 0.2440944881889764
        },
        {
          "duration": 0.09677399999998215,
          "durationTicks": 96,
          "midi": 41,
          "name": "F2",
          "ticks": 163209,
          "time": 164.5248725625,
          "velocity": 0.2283464566929134
        },
        {
          "duration": 0.09677399999998215,
          "durationTicks": 96,
          "midi": 50,
          "name": "D3",
          "ticks": 163398,
          "time": 164.715396375,
          "velocity": 0.2047244094488189
        },
        {
          "duration": 0.09677399999998215,
          "durationTicks": 96,
          "midi": 53,
          "name": "F3",
          "ticks": 163398,
          "time": 164.715396375,
          "velocity": 0.2440944881889764
        },
        {
          "duration": 0.09677399999998215,
          "durationTicks": 96,
          "midi": 46,
          "name": "A#2",
          "ticks": 163589,
          "time": 164.9079363125,
          "velocity": 0.23622047244094488
        },
        {
          "duration": 0.09677399999998215,
          "durationTicks": 96,
          "midi": 50,
          "name": "D3",
          "ticks": 163780,
          "time": 165.10047625,
          "velocity": 0.2047244094488189
        },
        {
          "duration": 0.09677399999998215,
          "durationTicks": 96,
          "midi": 53,
          "name": "F3",
          "ticks": 163780,
          "time": 165.10047625,
          "velocity": 0.2440944881889764
        },
        {
          "duration": 0.09677399999998215,
          "durationTicks": 96,
          "midi": 41,
          "name": "F2",
          "ticks": 163970,
          "time": 165.292008125,
          "velocity": 0.2283464566929134
        },
        {
          "duration": 0.09677399999998215,
          "durationTicks": 96,
          "midi": 50,
          "name": "D3",
          "ticks": 164159,
          "time": 165.4825319375,
          "velocity": 0.2047244094488189
        },
        {
          "duration": 0.09677399999998215,
          "durationTicks": 96,
          "midi": 53,
          "name": "F3",
          "ticks": 164159,
          "time": 165.4825319375,
          "velocity": 0.2440944881889764
        },
        {
          "duration": 0.09677400000001057,
          "durationTicks": 96,
          "midi": 44,
          "name": "G#2",
          "ticks": 164351,
          "time": 165.6760799375,
          "velocity": 0.2440944881889764
        },
        {
          "duration": 0.09677399999998215,
          "durationTicks": 96,
          "midi": 48,
          "name": "C3",
          "ticks": 164554,
          "time": 165.88071662500002,
          "velocity": 0.2047244094488189
        },
        {
          "duration": 0.09677399999998215,
          "durationTicks": 96,
          "midi": 51,
          "name": "D#3",
          "ticks": 164554,
          "time": 165.88071662500002,
          "velocity": 0.2440944881889764
        },
        {
          "duration": 0.09677399999998215,
          "durationTicks": 96,
          "midi": 39,
          "name": "D#2",
          "ticks": 164745,
          "time": 166.0732565625,
          "velocity": 0.2283464566929134
        },
        {
          "duration": 0.09677399999998215,
          "durationTicks": 96,
          "midi": 48,
          "name": "C3",
          "ticks": 164934,
          "time": 166.263780375,
          "velocity": 0.2047244094488189
        },
        {
          "duration": 0.09677399999998215,
          "durationTicks": 96,
          "midi": 51,
          "name": "D#3",
          "ticks": 164934,
          "time": 166.263780375,
          "velocity": 0.2440944881889764
        },
        {
          "duration": 0.09677399999998215,
          "durationTicks": 96,
          "midi": 43,
          "name": "G2",
          "ticks": 165125,
          "time": 166.4563203125,
          "velocity": 0.23622047244094488
        },
        {
          "duration": 0.09677399999998215,
          "durationTicks": 96,
          "midi": 47,
          "name": "B2",
          "ticks": 165316,
          "time": 166.64886025,
          "velocity": 0.2047244094488189
        },
        {
          "duration": 0.09677399999998215,
          "durationTicks": 96,
          "midi": 50,
          "name": "D3",
          "ticks": 165316,
          "time": 166.64886025,
          "velocity": 0.2440944881889764
        },
        {
          "duration": 0.09677400000001057,
          "durationTicks": 96,
          "midi": 38,
          "name": "D2",
          "ticks": 165506,
          "time": 166.840392125,
          "velocity": 0.2283464566929134
        },
        {
          "duration": 0.09677399999998215,
          "durationTicks": 96,
          "midi": 47,
          "name": "B2",
          "ticks": 165695,
          "time": 167.0309159375,
          "velocity": 0.2047244094488189
        },
        {
          "duration": 0.09677399999998215,
          "durationTicks": 96,
          "midi": 50,
          "name": "D3",
          "ticks": 165695,
          "time": 167.0309159375,
          "velocity": 0.2440944881889764
        },
        {
          "duration": 0.09677400000001057,
          "durationTicks": 96,
          "midi": 44,
          "name": "G#2",
          "ticks": 165887,
          "time": 167.2244639375,
          "velocity": 0.2440944881889764
        },
        {
          "duration": 0.09677399999998215,
          "durationTicks": 96,
          "midi": 48,
          "name": "C3",
          "ticks": 166090,
          "time": 167.42910062500002,
          "velocity": 0.2047244094488189
        },
        {
          "duration": 0.09677399999998215,
          "durationTicks": 96,
          "midi": 51,
          "name": "D#3",
          "ticks": 166090,
          "time": 167.42910062500002,
          "velocity": 0.2440944881889764
        },
        {
          "duration": 0.09677399999998215,
          "durationTicks": 96,
          "midi": 39,
          "name": "D#2",
          "ticks": 166281,
          "time": 167.6216405625,
          "velocity": 0.2283464566929134
        },
        {
          "duration": 0.09677399999998215,
          "durationTicks": 96,
          "midi": 48,
          "name": "C3",
          "ticks": 166470,
          "time": 167.812164375,
          "velocity": 0.2047244094488189
        },
        {
          "duration": 0.09677399999998215,
          "durationTicks": 96,
          "midi": 51,
          "name": "D#3",
          "ticks": 166470,
          "time": 167.812164375,
          "velocity": 0.2440944881889764
        },
        {
          "duration": 0.09677399999998215,
          "durationTicks": 96,
          "midi": 44,
          "name": "G#2",
          "ticks": 166661,
          "time": 168.0047043125,
          "velocity": 0.23622047244094488
        },
        {
          "duration": 0.09677399999998215,
          "durationTicks": 96,
          "midi": 48,
          "name": "C3",
          "ticks": 166852,
          "time": 168.19724425,
          "velocity": 0.2047244094488189
        },
        {
          "duration": 0.09677399999998215,
          "durationTicks": 96,
          "midi": 51,
          "name": "D#3",
          "ticks": 166852,
          "time": 168.19724425,
          "velocity": 0.2440944881889764
        },
        {
          "duration": 0.09677400000001057,
          "durationTicks": 96,
          "midi": 39,
          "name": "D#2",
          "ticks": 167042,
          "time": 168.388776125,
          "velocity": 0.2283464566929134
        },
        {
          "duration": 0.09677399999998215,
          "durationTicks": 96,
          "midi": 48,
          "name": "C3",
          "ticks": 167231,
          "time": 168.5792999375,
          "velocity": 0.2047244094488189
        },
        {
          "duration": 0.09677399999998215,
          "durationTicks": 96,
          "midi": 51,
          "name": "D#3",
          "ticks": 167231,
          "time": 168.5792999375,
          "velocity": 0.2440944881889764
        },
        {
          "duration": 0.09677400000001057,
          "durationTicks": 96,
          "midi": 53,
          "name": "F3",
          "ticks": 167423,
          "time": 168.7728479375,
          "velocity": 0.2440944881889764
        },
        {
          "duration": 0.09677399999998215,
          "durationTicks": 96,
          "midi": 56,
          "name": "G#3",
          "ticks": 167626,
          "time": 168.97748462500002,
          "velocity": 0.2047244094488189
        },
        {
          "duration": 0.09677399999998215,
          "durationTicks": 96,
          "midi": 60,
          "name": "C4",
          "ticks": 167626,
          "time": 168.97748462500002,
          "velocity": 0.2440944881889764
        },
        {
          "duration": 0.09677399999998215,
          "durationTicks": 96,
          "midi": 48,
          "name": "C3",
          "ticks": 167817,
          "time": 169.1700245625,
          "velocity": 0.2283464566929134
        },
        {
          "duration": 0.09677399999998215,
          "durationTicks": 96,
          "midi": 56,
          "name": "G#3",
          "ticks": 168006,
          "time": 169.360548375,
          "velocity": 0.2047244094488189
        },
        {
          "duration": 0.09677399999998215,
          "durationTicks": 96,
          "midi": 60,
          "name": "C4",
          "ticks": 168006,
          "time": 169.360548375,
          "velocity": 0.2440944881889764
        },
        {
          "duration": 0.09677399999998215,
          "durationTicks": 96,
          "midi": 53,
          "name": "F3",
          "ticks": 168197,
          "time": 169.5530883125,
          "velocity": 0.23622047244094488
        },
        {
          "duration": 0.09677399999998215,
          "durationTicks": 96,
          "midi": 56,
          "name": "G#3",
          "ticks": 168388,
          "time": 169.74562825,
          "velocity": 0.2047244094488189
        },
        {
          "duration": 0.09677399999998215,
          "durationTicks": 96,
          "midi": 60,
          "name": "C4",
          "ticks": 168388,
          "time": 169.74562825,
          "velocity": 0.2440944881889764
        },
        {
          "duration": 0.09677400000001057,
          "durationTicks": 96,
          "midi": 48,
          "name": "C3",
          "ticks": 168578,
          "time": 169.937160125,
          "velocity": 0.2283464566929134
        },
        {
          "duration": 0.09677399999998215,
          "durationTicks": 96,
          "midi": 56,
          "name": "G#3",
          "ticks": 168767,
          "time": 170.1276839375,
          "velocity": 0.2047244094488189
        },
        {
          "duration": 0.09677399999998215,
          "durationTicks": 96,
          "midi": 60,
          "name": "C4",
          "ticks": 168767,
          "time": 170.1276839375,
          "velocity": 0.2440944881889764
        },
        {
          "duration": 0.09677400000001057,
          "durationTicks": 96,
          "midi": 46,
          "name": "A#2",
          "ticks": 168959,
          "time": 170.3212319375,
          "velocity": 0.2440944881889764
        },
        {
          "duration": 0.09677399999998215,
          "durationTicks": 96,
          "midi": 50,
          "name": "D3",
          "ticks": 169162,
          "time": 170.52586862500002,
          "velocity": 0.2047244094488189
        },
        {
          "duration": 0.09677399999998215,
          "durationTicks": 96,
          "midi": 53,
          "name": "F3",
          "ticks": 169162,
          "time": 170.52586862500002,
          "velocity": 0.2440944881889764
        },
        {
          "duration": 0.09677399999998215,
          "durationTicks": 96,
          "midi": 41,
          "name": "F2",
          "ticks": 169353,
          "time": 170.7184085625,
          "velocity": 0.2283464566929134
        },
        {
          "duration": 0.09677399999998215,
          "durationTicks": 96,
          "midi": 50,
          "name": "D3",
          "ticks": 169542,
          "time": 170.908932375,
          "velocity": 0.2047244094488189
        },
        {
          "duration": 0.09677399999998215,
          "durationTicks": 96,
          "midi": 53,
          "name": "F3",
          "ticks": 169542,
          "time": 170.908932375,
          "velocity": 0.2440944881889764
        },
        {
          "duration": 0.09677400000001057,
          "durationTicks": 96,
          "midi": 46,
          "name": "A#2",
          "ticks": 169733,
          "time": 171.1014723125,
          "velocity": 0.23622047244094488
        },
        {
          "duration": 0.09677400000001057,
          "durationTicks": 96,
          "midi": 50,
          "name": "D3",
          "ticks": 169924,
          "time": 171.29401225,
          "velocity": 0.2047244094488189
        },
        {
          "duration": 0.09677400000001057,
          "durationTicks": 96,
          "midi": 53,
          "name": "F3",
          "ticks": 169924,
          "time": 171.29401225,
          "velocity": 0.2440944881889764
        },
        {
          "duration": 0.09677400000001057,
          "durationTicks": 96,
          "midi": 41,
          "name": "F2",
          "ticks": 170114,
          "time": 171.485544125,
          "velocity": 0.2283464566929134
        },
        {
          "duration": 0.09677400000001057,
          "durationTicks": 96,
          "midi": 50,
          "name": "D3",
          "ticks": 170303,
          "time": 171.6760679375,
          "velocity": 0.2047244094488189
        },
        {
          "duration": 0.09677400000001057,
          "durationTicks": 96,
          "midi": 53,
          "name": "F3",
          "ticks": 170303,
          "time": 171.6760679375,
          "velocity": 0.2440944881889764
        },
        {
          "duration": 0.09677400000001057,
          "durationTicks": 96,
          "midi": 44,
          "name": "G#2",
          "ticks": 170495,
          "time": 171.8696159375,
          "velocity": 0.2440944881889764
        },
        {
          "duration": 0.09677399999998215,
          "durationTicks": 96,
          "midi": 48,
          "name": "C3",
          "ticks": 170698,
          "time": 172.074252625,
          "velocity": 0.2047244094488189
        },
        {
          "duration": 0.09677399999998215,
          "durationTicks": 96,
          "midi": 51,
          "name": "D#3",
          "ticks": 170698,
          "time": 172.074252625,
          "velocity": 0.2440944881889764
        },
        {
          "duration": 0.09677400000001057,
          "durationTicks": 96,
          "midi": 39,
          "name": "D#2",
          "ticks": 170889,
          "time": 172.2667925625,
          "velocity": 0.2283464566929134
        },
        {
          "duration": 0.09677399999998215,
          "durationTicks": 96,
          "midi": 48,
          "name": "C3",
          "ticks": 171078,
          "time": 172.457316375,
          "velocity": 0.2047244094488189
        },
        {
          "duration": 0.09677399999998215,
          "durationTicks": 96,
          "midi": 51,
          "name": "D#3",
          "ticks": 171078,
          "time": 172.457316375,
          "velocity": 0.2440944881889764
        },
        {
          "duration": 0.09677400000001057,
          "durationTicks": 96,
          "midi": 43,
          "name": "G2",
          "ticks": 171269,
          "time": 172.6498563125,
          "velocity": 0.23622047244094488
        },
        {
          "duration": 0.09677400000001057,
          "durationTicks": 96,
          "midi": 47,
          "name": "B2",
          "ticks": 171460,
          "time": 172.84239625,
          "velocity": 0.2047244094488189
        },
        {
          "duration": 0.09677400000001057,
          "durationTicks": 96,
          "midi": 50,
          "name": "D3",
          "ticks": 171460,
          "time": 172.84239625,
          "velocity": 0.2440944881889764
        },
        {
          "duration": 0.09677400000001057,
          "durationTicks": 96,
          "midi": 38,
          "name": "D2",
          "ticks": 171650,
          "time": 173.033928125,
          "velocity": 0.2283464566929134
        },
        {
          "duration": 0.09677400000001057,
          "durationTicks": 96,
          "midi": 47,
          "name": "B2",
          "ticks": 171839,
          "time": 173.2244519375,
          "velocity": 0.2047244094488189
        },
        {
          "duration": 0.09677400000001057,
          "durationTicks": 96,
          "midi": 50,
          "name": "D3",
          "ticks": 171839,
          "time": 173.2244519375,
          "velocity": 0.2440944881889764
        },
        {
          "duration": 0.09677400000001057,
          "durationTicks": 96,
          "midi": 44,
          "name": "G#2",
          "ticks": 172031,
          "time": 173.41799993749999,
          "velocity": 0.2440944881889764
        },
        {
          "duration": 0.09677399999998215,
          "durationTicks": 96,
          "midi": 48,
          "name": "C3",
          "ticks": 172234,
          "time": 173.622636625,
          "velocity": 0.2047244094488189
        },
        {
          "duration": 0.09677399999998215,
          "durationTicks": 96,
          "midi": 51,
          "name": "D#3",
          "ticks": 172234,
          "time": 173.622636625,
          "velocity": 0.2440944881889764
        },
        {
          "duration": 0.09677400000001057,
          "durationTicks": 96,
          "midi": 39,
          "name": "D#2",
          "ticks": 172425,
          "time": 173.8151765625,
          "velocity": 0.2283464566929134
        },
        {
          "duration": 0.09677399999998215,
          "durationTicks": 96,
          "midi": 48,
          "name": "C3",
          "ticks": 172614,
          "time": 174.005700375,
          "velocity": 0.2047244094488189
        },
        {
          "duration": 0.09677399999998215,
          "durationTicks": 96,
          "midi": 51,
          "name": "D#3",
          "ticks": 172614,
          "time": 174.005700375,
          "velocity": 0.2440944881889764
        },
        {
          "duration": 0.09677400000001057,
          "durationTicks": 96,
          "midi": 44,
          "name": "G#2",
          "ticks": 172805,
          "time": 174.1982403125,
          "velocity": 0.23622047244094488
        },
        {
          "duration": 0.09677400000001057,
          "durationTicks": 96,
          "midi": 48,
          "name": "C3",
          "ticks": 172996,
          "time": 174.39078025,
          "velocity": 0.2047244094488189
        },
        {
          "duration": 0.09677400000001057,
          "durationTicks": 96,
          "midi": 51,
          "name": "D#3",
          "ticks": 172996,
          "time": 174.39078025,
          "velocity": 0.2440944881889764
        },
        {
          "duration": 0.09677400000001057,
          "durationTicks": 96,
          "midi": 39,
          "name": "D#2",
          "ticks": 173186,
          "time": 174.582312125,
          "velocity": 0.2283464566929134
        },
        {
          "duration": 0.09677400000001057,
          "durationTicks": 96,
          "midi": 48,
          "name": "C3",
          "ticks": 173375,
          "time": 174.7728359375,
          "velocity": 0.2047244094488189
        },
        {
          "duration": 0.09677400000001057,
          "durationTicks": 96,
          "midi": 51,
          "name": "D#3",
          "ticks": 173375,
          "time": 174.7728359375,
          "velocity": 0.2440944881889764
        },
        {
          "duration": 0.09677400000001057,
          "durationTicks": 96,
          "midi": 53,
          "name": "F3",
          "ticks": 173567,
          "time": 174.96638393749998,
          "velocity": 0.2440944881889764
        },
        {
          "duration": 0.09677399999998215,
          "durationTicks": 96,
          "midi": 56,
          "name": "G#3",
          "ticks": 173770,
          "time": 175.171020625,
          "velocity": 0.2047244094488189
        },
        {
          "duration": 0.09677399999998215,
          "durationTicks": 96,
          "midi": 60,
          "name": "C4",
          "ticks": 173770,
          "time": 175.171020625,
          "velocity": 0.2440944881889764
        },
        {
          "duration": 0.09677400000001057,
          "durationTicks": 96,
          "midi": 48,
          "name": "C3",
          "ticks": 173961,
          "time": 175.3635605625,
          "velocity": 0.2283464566929134
        },
        {
          "duration": 0.09677399999998215,
          "durationTicks": 96,
          "midi": 56,
          "name": "G#3",
          "ticks": 174150,
          "time": 175.554084375,
          "velocity": 0.2047244094488189
        },
        {
          "duration": 0.09677399999998215,
          "durationTicks": 96,
          "midi": 60,
          "name": "C4",
          "ticks": 174150,
          "time": 175.554084375,
          "velocity": 0.2440944881889764
        },
        {
          "duration": 0.09677400000001057,
          "durationTicks": 96,
          "midi": 53,
          "name": "F3",
          "ticks": 174341,
          "time": 175.7466243125,
          "velocity": 0.23622047244094488
        },
        {
          "duration": 0.09677400000001057,
          "durationTicks": 96,
          "midi": 56,
          "name": "G#3",
          "ticks": 174532,
          "time": 175.93916425,
          "velocity": 0.2047244094488189
        },
        {
          "duration": 0.09677400000001057,
          "durationTicks": 96,
          "midi": 60,
          "name": "C4",
          "ticks": 174532,
          "time": 175.93916425,
          "velocity": 0.2440944881889764
        },
        {
          "duration": 0.09677400000001057,
          "durationTicks": 96,
          "midi": 48,
          "name": "C3",
          "ticks": 174722,
          "time": 176.130696125,
          "velocity": 0.2283464566929134
        },
        {
          "duration": 0.09677400000001057,
          "durationTicks": 96,
          "midi": 56,
          "name": "G#3",
          "ticks": 174911,
          "time": 176.3212199375,
          "velocity": 0.2047244094488189
        },
        {
          "duration": 0.09677400000001057,
          "durationTicks": 96,
          "midi": 60,
          "name": "C4",
          "ticks": 174911,
          "time": 176.3212199375,
          "velocity": 0.2440944881889764
        },
        {
          "duration": 0.09677400000001057,
          "durationTicks": 96,
          "midi": 46,
          "name": "A#2",
          "ticks": 175103,
          "time": 176.51476793749998,
          "velocity": 0.2440944881889764
        },
        {
          "duration": 0.09677399999998215,
          "durationTicks": 96,
          "midi": 50,
          "name": "D3",
          "ticks": 175306,
          "time": 176.719404625,
          "velocity": 0.2047244094488189
        },
        {
          "duration": 0.09677399999998215,
          "durationTicks": 96,
          "midi": 53,
          "name": "F3",
          "ticks": 175306,
          "time": 176.719404625,
          "velocity": 0.2440944881889764
        },
        {
          "duration": 0.09677400000001057,
          "durationTicks": 96,
          "midi": 41,
          "name": "F2",
          "ticks": 175497,
          "time": 176.9119445625,
          "velocity": 0.2283464566929134
        },
        {
          "duration": 0.09677400000001057,
          "durationTicks": 96,
          "midi": 50,
          "name": "D3",
          "ticks": 175686,
          "time": 177.102468375,
          "velocity": 0.2047244094488189
        },
        {
          "duration": 0.09677400000001057,
          "durationTicks": 96,
          "midi": 53,
          "name": "F3",
          "ticks": 175686,
          "time": 177.102468375,
          "velocity": 0.2440944881889764
        },
        {
          "duration": 0.09677400000001057,
          "durationTicks": 96,
          "midi": 46,
          "name": "A#2",
          "ticks": 175877,
          "time": 177.2950083125,
          "velocity": 0.23622047244094488
        },
        {
          "duration": 0.09677400000001057,
          "durationTicks": 96,
          "midi": 50,
          "name": "D3",
          "ticks": 176068,
          "time": 177.48754825,
          "velocity": 0.2047244094488189
        },
        {
          "duration": 0.09677400000001057,
          "durationTicks": 96,
          "midi": 53,
          "name": "F3",
          "ticks": 176068,
          "time": 177.48754825,
          "velocity": 0.2440944881889764
        },
        {
          "duration": 0.09677400000001057,
          "durationTicks": 96,
          "midi": 41,
          "name": "F2",
          "ticks": 176258,
          "time": 177.67908012499998,
          "velocity": 0.2283464566929134
        },
        {
          "duration": 0.09677400000001057,
          "durationTicks": 96,
          "midi": 50,
          "name": "D3",
          "ticks": 176447,
          "time": 177.8696039375,
          "velocity": 0.2047244094488189
        },
        {
          "duration": 0.09677400000001057,
          "durationTicks": 96,
          "midi": 53,
          "name": "F3",
          "ticks": 176447,
          "time": 177.8696039375,
          "velocity": 0.2440944881889764
        },
        {
          "duration": 0.09677400000001057,
          "durationTicks": 96,
          "midi": 44,
          "name": "G#2",
          "ticks": 176639,
          "time": 178.06315193749998,
          "velocity": 0.2440944881889764
        },
        {
          "duration": 0.09677400000001057,
          "durationTicks": 96,
          "midi": 48,
          "name": "C3",
          "ticks": 176842,
          "time": 178.267788625,
          "velocity": 0.2047244094488189
        },
        {
          "duration": 0.09677400000001057,
          "durationTicks": 96,
          "midi": 51,
          "name": "D#3",
          "ticks": 176842,
          "time": 178.267788625,
          "velocity": 0.2440944881889764
        },
        {
          "duration": 0.09677400000001057,
          "durationTicks": 96,
          "midi": 39,
          "name": "D#2",
          "ticks": 177033,
          "time": 178.4603285625,
          "velocity": 0.2283464566929134
        },
        {
          "duration": 0.09677400000001057,
          "durationTicks": 96,
          "midi": 48,
          "name": "C3",
          "ticks": 177222,
          "time": 178.650852375,
          "velocity": 0.2047244094488189
        },
        {
          "duration": 0.09677400000001057,
          "durationTicks": 96,
          "midi": 51,
          "name": "D#3",
          "ticks": 177222,
          "time": 178.650852375,
          "velocity": 0.2440944881889764
        },
        {
          "duration": 0.09677400000001057,
          "durationTicks": 96,
          "midi": 43,
          "name": "G2",
          "ticks": 177413,
          "time": 178.8433923125,
          "velocity": 0.23622047244094488
        },
        {
          "duration": 0.09677400000001057,
          "durationTicks": 96,
          "midi": 47,
          "name": "B2",
          "ticks": 177604,
          "time": 179.03593225,
          "velocity": 0.2125984251968504
        },
        {
          "duration": 0.09677400000001057,
          "durationTicks": 96,
          "midi": 50,
          "name": "D3",
          "ticks": 177604,
          "time": 179.03593225,
          "velocity": 0.25196850393700787
        },
        {
          "duration": 0.09677400000001057,
          "durationTicks": 96,
          "midi": 38,
          "name": "D2",
          "ticks": 177794,
          "time": 179.22746412499998,
          "velocity": 0.2440944881889764
        },
        {
          "duration": 0.09677400000001057,
          "durationTicks": 96,
          "midi": 47,
          "name": "B2",
          "ticks": 177983,
          "time": 179.4179879375,
          "velocity": 0.23622047244094488
        },
        {
          "duration": 0.09677400000001057,
          "durationTicks": 96,
          "midi": 50,
          "name": "D3",
          "ticks": 177983,
          "time": 179.4179879375,
          "velocity": 0.2755905511811024
        },
        {
          "duration": 0.09677400000001057,
          "durationTicks": 96,
          "midi": 48,
          "name": "C3",
          "ticks": 178175,
          "time": 179.61153593749998,
          "velocity": 0.28346456692913385
        },
        {
          "duration": 0.09677400000001057,
          "durationTicks": 96,
          "midi": 51,
          "name": "D#3",
          "ticks": 178378,
          "time": 179.816172625,
          "velocity": 0.2440944881889764
        },
        {
          "duration": 0.09677400000001057,
          "durationTicks": 96,
          "midi": 55,
          "name": "G3",
          "ticks": 178378,
          "time": 179.816172625,
          "velocity": 0.28346456692913385
        },
        {
          "duration": 0.09677400000001057,
          "durationTicks": 96,
          "midi": 43,
          "name": "G2",
          "ticks": 178569,
          "time": 180.0087125625,
          "velocity": 0.2677165354330709
        },
        {
          "duration": 0.09677400000001057,
          "durationTicks": 96,
          "midi": 51,
          "name": "D#3",
          "ticks": 178758,
          "time": 180.199236375,
          "velocity": 0.2440944881889764
        },
        {
          "duration": 0.09677400000001057,
          "durationTicks": 96,
          "midi": 55,
          "name": "G3",
          "ticks": 178758,
          "time": 180.199236375,
          "velocity": 0.28346456692913385
        },
        {
          "duration": 0.09677400000001057,
          "durationTicks": 96,
          "midi": 48,
          "name": "C3",
          "ticks": 178949,
          "time": 180.39177631249999,
          "velocity": 0.2755905511811024
        },
        {
          "duration": 0.09677400000001057,
          "durationTicks": 96,
          "midi": 51,
          "name": "D#3",
          "ticks": 179140,
          "time": 180.58431625,
          "velocity": 0.2440944881889764
        },
        {
          "duration": 0.09677400000001057,
          "durationTicks": 96,
          "midi": 55,
          "name": "G3",
          "ticks": 179140,
          "time": 180.58431625,
          "velocity": 0.28346456692913385
        },
        {
          "duration": 0.09677400000001057,
          "durationTicks": 96,
          "midi": 43,
          "name": "G2",
          "ticks": 179330,
          "time": 180.77584812499998,
          "velocity": 0.2677165354330709
        },
        {
          "duration": 0.09677400000001057,
          "durationTicks": 96,
          "midi": 51,
          "name": "D#3",
          "ticks": 179519,
          "time": 180.96637193749999,
          "velocity": 0.2440944881889764
        },
        {
          "duration": 0.09677400000001057,
          "durationTicks": 96,
          "midi": 55,
          "name": "G3",
          "ticks": 179519,
          "time": 180.96637193749999,
          "velocity": 0.28346456692913385
        },
        {
          "duration": 0.09677400000001057,
          "durationTicks": 96,
          "midi": 51,
          "name": "D#3",
          "ticks": 179711,
          "time": 181.15991993749998,
          "velocity": 0.28346456692913385
        },
        {
          "duration": 0.09677400000001057,
          "durationTicks": 96,
          "midi": 55,
          "name": "G3",
          "ticks": 179914,
          "time": 181.364556625,
          "velocity": 0.2440944881889764
        },
        {
          "duration": 0.09677400000001057,
          "durationTicks": 96,
          "midi": 58,
          "name": "A#3",
          "ticks": 179914,
          "time": 181.364556625,
          "velocity": 0.28346456692913385
        },
        {
          "duration": 0.09677400000001057,
          "durationTicks": 96,
          "midi": 46,
          "name": "A#2",
          "ticks": 180105,
          "time": 181.5570965625,
          "velocity": 0.2677165354330709
        },
        {
          "duration": 0.09677400000001057,
          "durationTicks": 96,
          "midi": 55,
          "name": "G3",
          "ticks": 180294,
          "time": 181.747620375,
          "velocity": 0.2440944881889764
        },
        {
          "duration": 0.09677400000001057,
          "durationTicks": 96,
          "midi": 58,
          "name": "A#3",
          "ticks": 180294,
          "time": 181.747620375,
          "velocity": 0.28346456692913385
        },
        {
          "duration": 0.09677400000001057,
          "durationTicks": 96,
          "midi": 51,
          "name": "D#3",
          "ticks": 180485,
          "time": 181.94016031249998,
          "velocity": 0.2755905511811024
        },
        {
          "duration": 0.09677400000001057,
          "durationTicks": 96,
          "midi": 55,
          "name": "G3",
          "ticks": 180676,
          "time": 182.13270025,
          "velocity": 0.2440944881889764
        },
        {
          "duration": 0.09677400000001057,
          "durationTicks": 96,
          "midi": 58,
          "name": "A#3",
          "ticks": 180676,
          "time": 182.13270025,
          "velocity": 0.28346456692913385
        },
        {
          "duration": 0.09677400000001057,
          "durationTicks": 96,
          "midi": 46,
          "name": "A#2",
          "ticks": 180866,
          "time": 182.32423212499998,
          "velocity": 0.2677165354330709
        },
        {
          "duration": 0.09677400000001057,
          "durationTicks": 96,
          "midi": 55,
          "name": "G3",
          "ticks": 181055,
          "time": 182.51475593749998,
          "velocity": 0.2440944881889764
        },
        {
          "duration": 0.09677400000001057,
          "durationTicks": 96,
          "midi": 58,
          "name": "A#3",
          "ticks": 181055,
          "time": 182.51475593749998,
          "velocity": 0.28346456692913385
        },
        {
          "duration": 0.09677400000001057,
          "durationTicks": 96,
          "midi": 46,
          "name": "A#2",
          "ticks": 181247,
          "time": 182.70830393749998,
          "velocity": 0.28346456692913385
        },
        {
          "duration": 0.09677400000001057,
          "durationTicks": 96,
          "midi": 50,
          "name": "D3",
          "ticks": 181450,
          "time": 182.912940625,
          "velocity": 0.2440944881889764
        },
        {
          "duration": 0.09677400000001057,
          "durationTicks": 96,
          "midi": 53,
          "name": "F3",
          "ticks": 181450,
          "time": 182.912940625,
          "velocity": 0.28346456692913385
        },
        {
          "duration": 0.09677400000001057,
          "durationTicks": 96,
          "midi": 41,
          "name": "F2",
          "ticks": 181641,
          "time": 183.1054805625,
          "velocity": 0.2677165354330709
        },
        {
          "duration": 0.09677400000001057,
          "durationTicks": 96,
          "midi": 50,
          "name": "D3",
          "ticks": 181830,
          "time": 183.296004375,
          "velocity": 0.2440944881889764
        },
        {
          "duration": 0.09677400000001057,
          "durationTicks": 96,
          "midi": 53,
          "name": "F3",
          "ticks": 181830,
          "time": 183.296004375,
          "velocity": 0.28346456692913385
        },
        {
          "duration": 0.09677400000001057,
          "durationTicks": 96,
          "midi": 46,
          "name": "A#2",
          "ticks": 182021,
          "time": 183.48854431249998,
          "velocity": 0.2755905511811024
        },
        {
          "duration": 0.09677400000001057,
          "durationTicks": 96,
          "midi": 50,
          "name": "D3",
          "ticks": 182212,
          "time": 183.68108425,
          "velocity": 0.2440944881889764
        },
        {
          "duration": 0.09677400000001057,
          "durationTicks": 96,
          "midi": 53,
          "name": "F3",
          "ticks": 182212,
          "time": 183.68108425,
          "velocity": 0.28346456692913385
        },
        {
          "duration": 0.09677400000001057,
          "durationTicks": 96,
          "midi": 41,
          "name": "F2",
          "ticks": 182402,
          "time": 183.87261612499998,
          "velocity": 0.2677165354330709
        },
        {
          "duration": 0.09677400000001057,
          "durationTicks": 96,
          "midi": 50,
          "name": "D3",
          "ticks": 182591,
          "time": 184.06313993749998,
          "velocity": 0.2440944881889764
        },
        {
          "duration": 0.09677400000001057,
          "durationTicks": 96,
          "midi": 53,
          "name": "F3",
          "ticks": 182591,
          "time": 184.06313993749998,
          "velocity": 0.28346456692913385
        },
        {
          "duration": 0.09677399999998215,
          "durationTicks": 96,
          "midi": 44,
          "name": "G#2",
          "ticks": 182783,
          "time": 184.2566879375,
          "velocity": 0.28346456692913385
        },
        {
          "duration": 0.09677400000001057,
          "durationTicks": 96,
          "midi": 48,
          "name": "C3",
          "ticks": 182986,
          "time": 184.461324625,
          "velocity": 0.2047244094488189
        },
        {
          "duration": 0.09677400000001057,
          "durationTicks": 96,
          "midi": 51,
          "name": "D#3",
          "ticks": 182986,
          "time": 184.461324625,
          "velocity": 0.2440944881889764
        },
        {
          "duration": 0.09677400000001057,
          "durationTicks": 96,
          "midi": 39,
          "name": "D#2",
          "ticks": 183177,
          "time": 184.6538645625,
          "velocity": 0.2283464566929134
        },
        {
          "duration": 0.09677400000001057,
          "durationTicks": 96,
          "midi": 48,
          "name": "C3",
          "ticks": 183366,
          "time": 184.844388375,
          "velocity": 0.2047244094488189
        },
        {
          "duration": 0.09677400000001057,
          "durationTicks": 96,
          "midi": 51,
          "name": "D#3",
          "ticks": 183366,
          "time": 184.844388375,
          "velocity": 0.2440944881889764
        },
        {
          "duration": 0.09677400000001057,
          "durationTicks": 96,
          "midi": 43,
          "name": "G2",
          "ticks": 183557,
          "time": 185.03692831249998,
          "velocity": 0.23622047244094488
        },
        {
          "duration": 0.09677400000001057,
          "durationTicks": 96,
          "midi": 47,
          "name": "B2",
          "ticks": 183748,
          "time": 185.22946825,
          "velocity": 0.2047244094488189
        },
        {
          "duration": 0.09677400000001057,
          "durationTicks": 96,
          "midi": 50,
          "name": "D3",
          "ticks": 183748,
          "time": 185.22946825,
          "velocity": 0.2440944881889764
        },
        {
          "duration": 0.09677400000001057,
          "durationTicks": 96,
          "midi": 38,
          "name": "D2",
          "ticks": 183938,
          "time": 185.42100012499998,
          "velocity": 0.2283464566929134
        },
        {
          "duration": 0.09677400000001057,
          "durationTicks": 96,
          "midi": 47,
          "name": "B2",
          "ticks": 184127,
          "time": 185.61152393749998,
          "velocity": 0.2047244094488189
        },
        {
          "duration": 0.09677400000001057,
          "durationTicks": 96,
          "midi": 50,
          "name": "D3",
          "ticks": 184127,
          "time": 185.61152393749998,
          "velocity": 0.2440944881889764
        },
        {
          "duration": 0.19354799999999273,
          "durationTicks": 192,
          "midi": 48,
          "name": "C3",
          "ticks": 184319,
          "time": 185.8050719375,
          "velocity": 0.2440944881889764
        },
        {
          "duration": 0.19354800000002115,
          "durationTicks": 192,
          "midi": 43,
          "name": "G2",
          "ticks": 184713,
          "time": 186.2022485625,
          "velocity": 0.2283464566929134
        },
        {
          "duration": 0.19354800000002115,
          "durationTicks": 192,
          "midi": 48,
          "name": "C3",
          "ticks": 185093,
          "time": 186.58531231249998,
          "velocity": 0.23622047244094488
        },
        {
          "duration": 0.19354800000002115,
          "durationTicks": 192,
          "midi": 43,
          "name": "G2",
          "ticks": 185474,
          "time": 186.96938412499998,
          "velocity": 0.2283464566929134
        },
        {
          "duration": 0.19354799999999273,
          "durationTicks": 192,
          "midi": 51,
          "name": "D#3",
          "ticks": 185855,
          "time": 187.3534559375,
          "velocity": 0.2440944881889764
        },
        {
          "duration": 0.19354800000002115,
          "durationTicks": 192,
          "midi": 46,
          "name": "A#2",
          "ticks": 186249,
          "time": 187.7506325625,
          "velocity": 0.2283464566929134
        },
        {
          "duration": 0.19354800000002115,
          "durationTicks": 192,
          "midi": 51,
          "name": "D#3",
          "ticks": 186629,
          "time": 188.13369631249998,
          "velocity": 0.23622047244094488
        },
        {
          "duration": 0.19354799999999273,
          "durationTicks": 192,
          "midi": 46,
          "name": "A#2",
          "ticks": 187010,
          "time": 188.517768125,
          "velocity": 0.2283464566929134
        },
        {
          "duration": 0.19354799999999273,
          "durationTicks": 192,
          "midi": 46,
          "name": "A#2",
          "ticks": 187391,
          "time": 188.9018399375,
          "velocity": 0.2440944881889764
        },
        {
          "duration": 0.19354800000002115,
          "durationTicks": 192,
          "midi": 41,
          "name": "F2",
          "ticks": 187785,
          "time": 189.2990165625,
          "velocity": 0.2283464566929134
        },
        {
          "duration": 0.19354800000002115,
          "durationTicks": 192,
          "midi": 46,
          "name": "A#2",
          "ticks": 188165,
          "time": 189.68208031249998,
          "velocity": 0.23622047244094488
        },
        {
          "duration": 0.19354799999999273,
          "durationTicks": 192,
          "midi": 41,
          "name": "F2",
          "ticks": 188546,
          "time": 190.066152125,
          "velocity": 0.2283464566929134
        },
        {
          "duration": 0.19354799999999273,
          "durationTicks": 192,
          "midi": 44,
          "name": "G#2",
          "ticks": 188927,
          "time": 190.4502239375,
          "velocity": 0.2440944881889764
        },
        {
          "duration": 0.19354800000002115,
          "durationTicks": 192,
          "midi": 39,
          "name": "D#2",
          "ticks": 189321,
          "time": 190.84740056249998,
          "velocity": 0.2283464566929134
        },
        {
          "duration": 0.19354799999999273,
          "durationTicks": 192,
          "midi": 43,
          "name": "G2",
          "ticks": 189701,
          "time": 191.2304643125,
          "velocity": 0.23622047244094488
        },
        {
          "duration": 0.19354799999999273,
          "durationTicks": 192,
          "midi": 38,
          "name": "D2",
          "ticks": 190082,
          "time": 191.614536125,
          "velocity": 0.2283464566929134
        },
        {
          "duration": 0.09677399999998215,
          "durationTicks": 96,
          "midi": 48,
          "name": "C3",
          "ticks": 190463,
          "time": 191.9986079375,
          "velocity": 0.2440944881889764
        },
        {
          "duration": 0.09677400000001057,
          "durationTicks": 96,
          "midi": 51,
          "name": "D#3",
          "ticks": 190666,
          "time": 192.203244625,
          "velocity": 0.2047244094488189
        },
        {
          "duration": 0.09677400000001057,
          "durationTicks": 96,
          "midi": 55,
          "name": "G3",
          "ticks": 190666,
          "time": 192.203244625,
          "velocity": 0.2440944881889764
        },
        {
          "duration": 0.09677399999998215,
          "durationTicks": 96,
          "midi": 43,
          "name": "G2",
          "ticks": 190857,
          "time": 192.3957845625,
          "velocity": 0.2283464566929134
        },
        {
          "duration": 0.09677400000001057,
          "durationTicks": 96,
          "midi": 51,
          "name": "D#3",
          "ticks": 191046,
          "time": 192.586308375,
          "velocity": 0.2047244094488189
        },
        {
          "duration": 0.09677400000001057,
          "durationTicks": 96,
          "midi": 55,
          "name": "G3",
          "ticks": 191046,
          "time": 192.586308375,
          "velocity": 0.2440944881889764
        },
        {
          "duration": 0.09677399999998215,
          "durationTicks": 96,
          "midi": 48,
          "name": "C3",
          "ticks": 191237,
          "time": 192.7788483125,
          "velocity": 0.23622047244094488
        },
        {
          "duration": 0.09677399999998215,
          "durationTicks": 96,
          "midi": 51,
          "name": "D#3",
          "ticks": 191428,
          "time": 192.97138825000002,
          "velocity": 0.2047244094488189
        },
        {
          "duration": 0.09677399999998215,
          "durationTicks": 96,
          "midi": 55,
          "name": "G3",
          "ticks": 191428,
          "time": 192.97138825000002,
          "velocity": 0.2440944881889764
        },
        {
          "duration": 0.09677399999998215,
          "durationTicks": 96,
          "midi": 43,
          "name": "G2",
          "ticks": 191618,
          "time": 193.162920125,
          "velocity": 0.2283464566929134
        },
        {
          "duration": 0.09677399999998215,
          "durationTicks": 96,
          "midi": 51,
          "name": "D#3",
          "ticks": 191807,
          "time": 193.3534439375,
          "velocity": 0.2047244094488189
        },
        {
          "duration": 0.09677399999998215,
          "durationTicks": 96,
          "midi": 55,
          "name": "G3",
          "ticks": 191807,
          "time": 193.3534439375,
          "velocity": 0.2440944881889764
        },
        {
          "duration": 0.09677399999998215,
          "durationTicks": 96,
          "midi": 51,
          "name": "D#3",
          "ticks": 191999,
          "time": 193.5469919375,
          "velocity": 0.2440944881889764
        },
        {
          "duration": 0.09677400000001057,
          "durationTicks": 96,
          "midi": 55,
          "name": "G3",
          "ticks": 192202,
          "time": 193.751628625,
          "velocity": 0.2047244094488189
        },
        {
          "duration": 0.09677400000001057,
          "durationTicks": 96,
          "midi": 58,
          "name": "A#3",
          "ticks": 192202,
          "time": 193.751628625,
          "velocity": 0.2440944881889764
        },
        {
          "duration": 0.09677399999998215,
          "durationTicks": 96,
          "midi": 46,
          "name": "A#2",
          "ticks": 192393,
          "time": 193.9441685625,
          "velocity": 0.2283464566929134
        },
        {
          "duration": 0.09677400000001057,
          "durationTicks": 96,
          "midi": 55,
          "name": "G3",
          "ticks": 192582,
          "time": 194.134692375,
          "velocity": 0.2047244094488189
        },
        {
          "duration": 0.09677400000001057,
          "durationTicks": 96,
          "midi": 58,
          "name": "A#3",
          "ticks": 192582,
          "time": 194.134692375,
          "velocity": 0.2440944881889764
        },
        {
          "duration": 0.09677399999998215,
          "durationTicks": 96,
          "midi": 51,
          "name": "D#3",
          "ticks": 192773,
          "time": 194.3272323125,
          "velocity": 0.23622047244094488
        },
        {
          "duration": 0.09677399999998215,
          "durationTicks": 96,
          "midi": 55,
          "name": "G3",
          "ticks": 192964,
          "time": 194.51977225000002,
          "velocity": 0.2047244094488189
        },
        {
          "duration": 0.09677399999998215,
          "durationTicks": 96,
          "midi": 58,
          "name": "A#3",
          "ticks": 192964,
          "time": 194.51977225000002,
          "velocity": 0.2440944881889764
        },
        {
          "duration": 0.09677399999998215,
          "durationTicks": 96,
          "midi": 46,
          "name": "A#2",
          "ticks": 193154,
          "time": 194.711304125,
          "velocity": 0.2283464566929134
        },
        {
          "duration": 0.09677399999998215,
          "durationTicks": 96,
          "midi": 55,
          "name": "G3",
          "ticks": 193343,
          "time": 194.9018279375,
          "velocity": 0.2047244094488189
        },
        {
          "duration": 0.09677399999998215,
          "durationTicks": 96,
          "midi": 58,
          "name": "A#3",
          "ticks": 193343,
          "time": 194.9018279375,
          "velocity": 0.2440944881889764
        },
        {
          "duration": 0.09677399999998215,
          "durationTicks": 96,
          "midi": 46,
          "name": "A#2",
          "ticks": 193535,
          "time": 195.0953759375,
          "velocity": 0.2440944881889764
        },
        {
          "duration": 0.09677400000001057,
          "durationTicks": 96,
          "midi": 50,
          "name": "D3",
          "ticks": 193738,
          "time": 195.300012625,
          "velocity": 0.2047244094488189
        },
        {
          "duration": 0.09677400000001057,
          "durationTicks": 96,
          "midi": 53,
          "name": "F3",
          "ticks": 193738,
          "time": 195.300012625,
          "velocity": 0.2440944881889764
        },
        {
          "duration": 0.09677399999998215,
          "durationTicks": 96,
          "midi": 41,
          "name": "F2",
          "ticks": 193929,
          "time": 195.4925525625,
          "velocity": 0.2283464566929134
        },
        {
          "duration": 0.09677400000001057,
          "durationTicks": 96,
          "midi": 50,
          "name": "D3",
          "ticks": 194118,
          "time": 195.68307637499998,
          "velocity": 0.2047244094488189
        },
        {
          "duration": 0.09677400000001057,
          "durationTicks": 96,
          "midi": 53,
          "name": "F3",
          "ticks": 194118,
          "time": 195.68307637499998,
          "velocity": 0.2440944881889764
        },
        {
          "duration": 0.09677399999998215,
          "durationTicks": 96,
          "midi": 46,
          "name": "A#2",
          "ticks": 194309,
          "time": 195.8756163125,
          "velocity": 0.23622047244094488
        },
        {
          "duration": 0.09677399999998215,
          "durationTicks": 96,
          "midi": 50,
          "name": "D3",
          "ticks": 194500,
          "time": 196.06815625000002,
          "velocity": 0.2047244094488189
        },
        {
          "duration": 0.09677399999998215,
          "durationTicks": 96,
          "midi": 53,
          "name": "F3",
          "ticks": 194500,
          "time": 196.06815625000002,
          "velocity": 0.2440944881889764
        },
        {
          "duration": 0.09677399999998215,
          "durationTicks": 96,
          "midi": 41,
          "name": "F2",
          "ticks": 194690,
          "time": 196.259688125,
          "velocity": 0.2283464566929134
        },
        {
          "duration": 0.09677399999998215,
          "durationTicks": 96,
          "midi": 50,
          "name": "D3",
          "ticks": 194879,
          "time": 196.4502119375,
          "velocity": 0.2047244094488189
        },
        {
          "duration": 0.09677399999998215,
          "durationTicks": 96,
          "midi": 53,
          "name": "F3",
          "ticks": 194879,
          "time": 196.4502119375,
          "velocity": 0.2440944881889764
        },
        {
          "duration": 0.09677400000001057,
          "durationTicks": 96,
          "midi": 44,
          "name": "G#2",
          "ticks": 195071,
          "time": 196.6437599375,
          "velocity": 0.2440944881889764
        },
        {
          "duration": 0.09677400000001057,
          "durationTicks": 96,
          "midi": 48,
          "name": "C3",
          "ticks": 195274,
          "time": 196.848396625,
          "velocity": 0.2047244094488189
        },
        {
          "duration": 0.09677400000001057,
          "durationTicks": 96,
          "midi": 51,
          "name": "D#3",
          "ticks": 195274,
          "time": 196.848396625,
          "velocity": 0.2440944881889764
        },
        {
          "duration": 0.09677399999998215,
          "durationTicks": 96,
          "midi": 39,
          "name": "D#2",
          "ticks": 195465,
          "time": 197.0409365625,
          "velocity": 0.2283464566929134
        },
        {
          "duration": 0.09677399999998215,
          "durationTicks": 96,
          "midi": 48,
          "name": "C3",
          "ticks": 195654,
          "time": 197.231460375,
          "velocity": 0.2047244094488189
        },
        {
          "duration": 0.09677399999998215,
          "durationTicks": 96,
          "midi": 51,
          "name": "D#3",
          "ticks": 195654,
          "time": 197.231460375,
          "velocity": 0.2440944881889764
        },
        {
          "duration": 0.09677399999998215,
          "durationTicks": 96,
          "midi": 43,
          "name": "G2",
          "ticks": 195845,
          "time": 197.4240003125,
          "velocity": 0.23622047244094488
        },
        {
          "duration": 0.09677399999998215,
          "durationTicks": 96,
          "midi": 47,
          "name": "B2",
          "ticks": 196036,
          "time": 197.61654025,
          "velocity": 0.2047244094488189
        },
        {
          "duration": 0.09677399999998215,
          "durationTicks": 96,
          "midi": 50,
          "name": "D3",
          "ticks": 196036,
          "time": 197.61654025,
          "velocity": 0.2440944881889764
        },
        {
          "duration": 0.09677399999998215,
          "durationTicks": 96,
          "midi": 38,
          "name": "D2",
          "ticks": 196226,
          "time": 197.808072125,
          "velocity": 0.2283464566929134
        },
        {
          "duration": 0.09677399999998215,
          "durationTicks": 96,
          "midi": 47,
          "name": "B2",
          "ticks": 196415,
          "time": 197.9985959375,
          "velocity": 0.2047244094488189
        },
        {
          "duration": 0.09677399999998215,
          "durationTicks": 96,
          "midi": 50,
          "name": "D3",
          "ticks": 196415,
          "time": 197.9985959375,
          "velocity": 0.2440944881889764
        },
        {
          "duration": 0.09677400000001057,
          "durationTicks": 96,
          "midi": 48,
          "name": "C3",
          "ticks": 196607,
          "time": 198.1921439375,
          "velocity": 0.2440944881889764
        },
        {
          "duration": 0.09677399999998215,
          "durationTicks": 96,
          "midi": 51,
          "name": "D#3",
          "ticks": 196810,
          "time": 198.396780625,
          "velocity": 0.2047244094488189
        },
        {
          "duration": 0.09677399999998215,
          "durationTicks": 96,
          "midi": 55,
          "name": "G3",
          "ticks": 196810,
          "time": 198.396780625,
          "velocity": 0.2440944881889764
        },
        {
          "duration": 0.09677399999998215,
          "durationTicks": 96,
          "midi": 43,
          "name": "G2",
          "ticks": 197001,
          "time": 198.5893205625,
          "velocity": 0.2283464566929134
        },
        {
          "duration": 0.09677399999998215,
          "durationTicks": 96,
          "midi": 51,
          "name": "D#3",
          "ticks": 197190,
          "time": 198.779844375,
          "velocity": 0.2047244094488189
        },
        {
          "duration": 0.09677399999998215,
          "durationTicks": 96,
          "midi": 55,
          "name": "G3",
          "ticks": 197190,
          "time": 198.779844375,
          "velocity": 0.2440944881889764
        },
        {
          "duration": 0.09677399999998215,
          "durationTicks": 96,
          "midi": 48,
          "name": "C3",
          "ticks": 197381,
          "time": 198.97238431250003,
          "velocity": 0.23622047244094488
        },
        {
          "duration": 0.09677400000001057,
          "durationTicks": 96,
          "midi": 51,
          "name": "D#3",
          "ticks": 197572,
          "time": 199.16492424999998,
          "velocity": 0.2047244094488189
        },
        {
          "duration": 0.09677400000001057,
          "durationTicks": 96,
          "midi": 55,
          "name": "G3",
          "ticks": 197572,
          "time": 199.16492424999998,
          "velocity": 0.2440944881889764
        },
        {
          "duration": 0.09677399999998215,
          "durationTicks": 96,
          "midi": 43,
          "name": "G2",
          "ticks": 197762,
          "time": 199.35645612500002,
          "velocity": 0.2283464566929134
        },
        {
          "duration": 0.09677399999998215,
          "durationTicks": 96,
          "midi": 51,
          "name": "D#3",
          "ticks": 197951,
          "time": 199.54697993750003,
          "velocity": 0.2047244094488189
        },
        {
          "duration": 0.09677399999998215,
          "durationTicks": 96,
          "midi": 55,
          "name": "G3",
          "ticks": 197951,
          "time": 199.54697993750003,
          "velocity": 0.2440944881889764
        },
        {
          "duration": 0.09677399999998215,
          "durationTicks": 96,
          "midi": 51,
          "name": "D#3",
          "ticks": 198143,
          "time": 199.74052793750002,
          "velocity": 0.2440944881889764
        },
        {
          "duration": 0.09677399999998215,
          "durationTicks": 96,
          "midi": 55,
          "name": "G3",
          "ticks": 198346,
          "time": 199.945164625,
          "velocity": 0.2047244094488189
        },
        {
          "duration": 0.09677399999998215,
          "durationTicks": 96,
          "midi": 58,
          "name": "A#3",
          "ticks": 198346,
          "time": 199.945164625,
          "velocity": 0.2440944881889764
        },
        {
          "duration": 0.09677399999998215,
          "durationTicks": 96,
          "midi": 46,
          "name": "A#2",
          "ticks": 198537,
          "time": 200.1377045625,
          "velocity": 0.2283464566929134
        },
        {
          "duration": 0.09677399999998215,
          "durationTicks": 96,
          "midi": 55,
          "name": "G3",
          "ticks": 198726,
          "time": 200.328228375,
          "velocity": 0.2047244094488189
        },
        {
          "duration": 0.09677399999998215,
          "durationTicks": 96,
          "midi": 58,
          "name": "A#3",
          "ticks": 198726,
          "time": 200.328228375,
          "velocity": 0.2440944881889764
        },
        {
          "duration": 0.09677399999998215,
          "durationTicks": 96,
          "midi": 51,
          "name": "D#3",
          "ticks": 198917,
          "time": 200.52076831250002,
          "velocity": 0.23622047244094488
        },
        {
          "duration": 0.09677400000001057,
          "durationTicks": 96,
          "midi": 55,
          "name": "G3",
          "ticks": 199108,
          "time": 200.71330824999998,
          "velocity": 0.2047244094488189
        },
        {
          "duration": 0.09677400000001057,
          "durationTicks": 96,
          "midi": 58,
          "name": "A#3",
          "ticks": 199108,
          "time": 200.71330824999998,
          "velocity": 0.2440944881889764
        },
        {
          "duration": 0.09677399999998215,
          "durationTicks": 96,
          "midi": 46,
          "name": "A#2",
          "ticks": 199298,
          "time": 200.90484012500002,
          "velocity": 0.2283464566929134
        },
        {
          "duration": 0.09677399999998215,
          "durationTicks": 96,
          "midi": 55,
          "name": "G3",
          "ticks": 199487,
          "time": 201.09536393750003,
          "velocity": 0.2047244094488189
        },
        {
          "duration": 0.09677399999998215,
          "durationTicks": 96,
          "midi": 58,
          "name": "A#3",
          "ticks": 199487,
          "time": 201.09536393750003,
          "velocity": 0.2440944881889764
        },
        {
          "duration": 0.09677399999998215,
          "durationTicks": 96,
          "midi": 46,
          "name": "A#2",
          "ticks": 199679,
          "time": 201.28891193750002,
          "velocity": 0.2440944881889764
        },
        {
          "duration": 0.09677399999998215,
          "durationTicks": 96,
          "midi": 50,
          "name": "D3",
          "ticks": 199882,
          "time": 201.493548625,
          "velocity": 0.2047244094488189
        },
        {
          "duration": 0.09677399999998215,
          "durationTicks": 96,
          "midi": 53,
          "name": "F3",
          "ticks": 199882,
          "time": 201.493548625,
          "velocity": 0.2440944881889764
        },
        {
          "duration": 0.09677399999998215,
          "durationTicks": 96,
          "midi": 41,
          "name": "F2",
          "ticks": 200073,
          "time": 201.6860885625,
          "velocity": 0.2283464566929134
        },
        {
          "duration": 0.09677399999998215,
          "durationTicks": 96,
          "midi": 50,
          "name": "D3",
          "ticks": 200262,
          "time": 201.876612375,
          "velocity": 0.2047244094488189
        },
        {
          "duration": 0.09677399999998215,
          "durationTicks": 96,
          "midi": 53,
          "name": "F3",
          "ticks": 200262,
          "time": 201.876612375,
          "velocity": 0.2440944881889764
        },
        {
          "duration": 0.09677399999998215,
          "durationTicks": 96,
          "midi": 46,
          "name": "A#2",
          "ticks": 200453,
          "time": 202.06915231250002,
          "velocity": 0.23622047244094488
        },
        {
          "duration": 0.09677400000001057,
          "durationTicks": 96,
          "midi": 50,
          "name": "D3",
          "ticks": 200644,
          "time": 202.26169224999998,
          "velocity": 0.2047244094488189
        },
        {
          "duration": 0.09677400000001057,
          "durationTicks": 96,
          "midi": 53,
          "name": "F3",
          "ticks": 200644,
          "time": 202.26169224999998,
          "velocity": 0.2440944881889764
        },
        {
          "duration": 0.09677399999998215,
          "durationTicks": 96,
          "midi": 41,
          "name": "F2",
          "ticks": 200834,
          "time": 202.45322412500002,
          "velocity": 0.2283464566929134
        },
        {
          "duration": 0.09677399999998215,
          "durationTicks": 96,
          "midi": 50,
          "name": "D3",
          "ticks": 201023,
          "time": 202.64374793750002,
          "velocity": 0.2047244094488189
        },
        {
          "duration": 0.09677399999998215,
          "durationTicks": 96,
          "midi": 53,
          "name": "F3",
          "ticks": 201023,
          "time": 202.64374793750002,
          "velocity": 0.2440944881889764
        },
        {
          "duration": 0.09677399999998215,
          "durationTicks": 96,
          "midi": 44,
          "name": "G#2",
          "ticks": 201215,
          "time": 202.83729593750002,
          "velocity": 0.2440944881889764
        },
        {
          "duration": 0.09677399999998215,
          "durationTicks": 96,
          "midi": 48,
          "name": "C3",
          "ticks": 201418,
          "time": 203.041932625,
          "velocity": 0.2047244094488189
        },
        {
          "duration": 0.09677399999998215,
          "durationTicks": 96,
          "midi": 51,
          "name": "D#3",
          "ticks": 201418,
          "time": 203.041932625,
          "velocity": 0.2440944881889764
        },
        {
          "duration": 0.09677399999998215,
          "durationTicks": 96,
          "midi": 39,
          "name": "D#2",
          "ticks": 201609,
          "time": 203.2344725625,
          "velocity": 0.2283464566929134
        },
        {
          "duration": 0.09677399999998215,
          "durationTicks": 96,
          "midi": 48,
          "name": "C3",
          "ticks": 201798,
          "time": 203.424996375,
          "velocity": 0.2047244094488189
        },
        {
          "duration": 0.09677399999998215,
          "durationTicks": 96,
          "midi": 51,
          "name": "D#3",
          "ticks": 201798,
          "time": 203.424996375,
          "velocity": 0.2440944881889764
        },
        {
          "duration": 0.09677399999998215,
          "durationTicks": 96,
          "midi": 43,
          "name": "G2",
          "ticks": 201989,
          "time": 203.61753631250002,
          "velocity": 0.23622047244094488
        },
        {
          "duration": 0.09677400000001057,
          "durationTicks": 96,
          "midi": 47,
          "name": "B2",
          "ticks": 202180,
          "time": 203.81007624999998,
          "velocity": 0.2047244094488189
        },
        {
          "duration": 0.09677400000001057,
          "durationTicks": 96,
          "midi": 50,
          "name": "D3",
          "ticks": 202180,
          "time": 203.81007624999998,
          "velocity": 0.2440944881889764
        },
        {
          "duration": 0.09677399999998215,
          "durationTicks": 96,
          "midi": 38,
          "name": "D2",
          "ticks": 202370,
          "time": 204.00160812500002,
          "velocity": 0.2283464566929134
        },
        {
          "duration": 0.09677399999998215,
          "durationTicks": 96,
          "midi": 47,
          "name": "B2",
          "ticks": 202559,
          "time": 204.19213193750002,
          "velocity": 0.2047244094488189
        },
        {
          "duration": 0.09677399999998215,
          "durationTicks": 96,
          "midi": 50,
          "name": "D3",
          "ticks": 202559,
          "time": 204.19213193750002,
          "velocity": 0.2440944881889764
        },
        {
          "duration": 0.09677400000001057,
          "durationTicks": 96,
          "midi": 44,
          "name": "G#2",
          "ticks": 202751,
          "time": 204.38567993750002,
          "velocity": 0.2440944881889764
        },
        {
          "duration": 0.09677400000001057,
          "durationTicks": 96,
          "midi": 48,
          "name": "C3",
          "ticks": 202954,
          "time": 204.59031662499999,
          "velocity": 0.2047244094488189
        },
        {
          "duration": 0.09677400000001057,
          "durationTicks": 96,
          "midi": 51,
          "name": "D#3",
          "ticks": 202954,
          "time": 204.59031662499999,
          "velocity": 0.2440944881889764
        },
        {
          "duration": 0.09677400000001057,
          "durationTicks": 96,
          "midi": 39,
          "name": "D#2",
          "ticks": 203145,
          "time": 204.7828565625,
          "velocity": 0.2283464566929134
        },
        {
          "duration": 0.09677399999998215,
          "durationTicks": 96,
          "midi": 48,
          "name": "C3",
          "ticks": 203334,
          "time": 204.973380375,
          "velocity": 0.2047244094488189
        },
        {
          "duration": 0.09677399999998215,
          "durationTicks": 96,
          "midi": 51,
          "name": "D#3",
          "ticks": 203334,
          "time": 204.973380375,
          "velocity": 0.2440944881889764
        },
        {
          "duration": 0.09677399999998215,
          "durationTicks": 96,
          "midi": 44,
          "name": "G#2",
          "ticks": 203525,
          "time": 205.16592031250002,
          "velocity": 0.23622047244094488
        },
        {
          "duration": 0.09677400000001057,
          "durationTicks": 96,
          "midi": 48,
          "name": "C3",
          "ticks": 203716,
          "time": 205.35846024999998,
          "velocity": 0.2047244094488189
        },
        {
          "duration": 0.09677400000001057,
          "durationTicks": 96,
          "midi": 51,
          "name": "D#3",
          "ticks": 203716,
          "time": 205.35846024999998,
          "velocity": 0.2440944881889764
        },
        {
          "duration": 0.09677399999998215,
          "durationTicks": 96,
          "midi": 39,
          "name": "D#2",
          "ticks": 203906,
          "time": 205.54999212500002,
          "velocity": 0.2283464566929134
        },
        {
          "duration": 0.09677399999998215,
          "durationTicks": 96,
          "midi": 48,
          "name": "C3",
          "ticks": 204095,
          "time": 205.74051593750002,
          "velocity": 0.2047244094488189
        },
        {
          "duration": 0.09677399999998215,
          "durationTicks": 96,
          "midi": 51,
          "name": "D#3",
          "ticks": 204095,
          "time": 205.74051593750002,
          "velocity": 0.2440944881889764
        },
        {
          "duration": 0.09677400000001057,
          "durationTicks": 96,
          "midi": 53,
          "name": "F3",
          "ticks": 204287,
          "time": 205.9340639375,
          "velocity": 0.2440944881889764
        },
        {
          "duration": 0.09677400000001057,
          "durationTicks": 96,
          "midi": 56,
          "name": "G#3",
          "ticks": 204490,
          "time": 206.13870062499998,
          "velocity": 0.2047244094488189
        },
        {
          "duration": 0.09677400000001057,
          "durationTicks": 96,
          "midi": 60,
          "name": "C4",
          "ticks": 204490,
          "time": 206.13870062499998,
          "velocity": 0.2440944881889764
        },
        {
          "duration": 0.09677400000001057,
          "durationTicks": 96,
          "midi": 48,
          "name": "C3",
          "ticks": 204681,
          "time": 206.3312405625,
          "velocity": 0.2283464566929134
        },
        {
          "duration": 0.09677399999998215,
          "durationTicks": 96,
          "midi": 56,
          "name": "G#3",
          "ticks": 204870,
          "time": 206.521764375,
          "velocity": 0.2047244094488189
        },
        {
          "duration": 0.09677399999998215,
          "durationTicks": 96,
          "midi": 60,
          "name": "C4",
          "ticks": 204870,
          "time": 206.521764375,
          "velocity": 0.2440944881889764
        },
        {
          "duration": 0.09677399999998215,
          "durationTicks": 96,
          "midi": 53,
          "name": "F3",
          "ticks": 205061,
          "time": 206.71430431250002,
          "velocity": 0.23622047244094488
        },
        {
          "duration": 0.09677400000001057,
          "durationTicks": 96,
          "midi": 56,
          "name": "G#3",
          "ticks": 205252,
          "time": 206.90684424999998,
          "velocity": 0.2047244094488189
        },
        {
          "duration": 0.09677400000001057,
          "durationTicks": 96,
          "midi": 60,
          "name": "C4",
          "ticks": 205252,
          "time": 206.90684424999998,
          "velocity": 0.2440944881889764
        },
        {
          "duration": 0.09677400000001057,
          "durationTicks": 96,
          "midi": 48,
          "name": "C3",
          "ticks": 205442,
          "time": 207.09837612500002,
          "velocity": 0.2283464566929134
        },
        {
          "duration": 0.09677399999998215,
          "durationTicks": 96,
          "midi": 56,
          "name": "G#3",
          "ticks": 205631,
          "time": 207.28889993750002,
          "velocity": 0.2047244094488189
        },
        {
          "duration": 0.09677399999998215,
          "durationTicks": 96,
          "midi": 60,
          "name": "C4",
          "ticks": 205631,
          "time": 207.28889993750002,
          "velocity": 0.2440944881889764
        },
        {
          "duration": 0.09677400000001057,
          "durationTicks": 96,
          "midi": 46,
          "name": "A#2",
          "ticks": 205823,
          "time": 207.4824479375,
          "velocity": 0.2440944881889764
        },
        {
          "duration": 0.09677400000001057,
          "durationTicks": 96,
          "midi": 50,
          "name": "D3",
          "ticks": 206026,
          "time": 207.68708462499998,
          "velocity": 0.2047244094488189
        },
        {
          "duration": 0.09677400000001057,
          "durationTicks": 96,
          "midi": 53,
          "name": "F3",
          "ticks": 206026,
          "time": 207.68708462499998,
          "velocity": 0.2440944881889764
        },
        {
          "duration": 0.09677400000001057,
          "durationTicks": 96,
          "midi": 41,
          "name": "F2",
          "ticks": 206217,
          "time": 207.8796245625,
          "velocity": 0.2283464566929134
        },
        {
          "duration": 0.09677399999998215,
          "durationTicks": 96,
          "midi": 50,
          "name": "D3",
          "ticks": 206406,
          "time": 208.070148375,
          "velocity": 0.2047244094488189
        },
        {
          "duration": 0.09677399999998215,
          "durationTicks": 96,
          "midi": 53,
          "name": "F3",
          "ticks": 206406,
          "time": 208.070148375,
          "velocity": 0.2440944881889764
        },
        {
          "duration": 0.09677399999998215,
          "durationTicks": 96,
          "midi": 46,
          "name": "A#2",
          "ticks": 206597,
          "time": 208.26268831250002,
          "velocity": 0.23622047244094488
        },
        {
          "duration": 0.09677400000001057,
          "durationTicks": 96,
          "midi": 50,
          "name": "D3",
          "ticks": 206788,
          "time": 208.45522824999998,
          "velocity": 0.2047244094488189
        },
        {
          "duration": 0.09677400000001057,
          "durationTicks": 96,
          "midi": 53,
          "name": "F3",
          "ticks": 206788,
          "time": 208.45522824999998,
          "velocity": 0.2440944881889764
        },
        {
          "duration": 0.09677400000001057,
          "durationTicks": 96,
          "midi": 41,
          "name": "F2",
          "ticks": 206978,
          "time": 208.64676012500001,
          "velocity": 0.2283464566929134
        },
        {
          "duration": 0.09677399999998215,
          "durationTicks": 96,
          "midi": 50,
          "name": "D3",
          "ticks": 207167,
          "time": 208.83728393750002,
          "velocity": 0.2047244094488189
        },
        {
          "duration": 0.09677399999998215,
          "durationTicks": 96,
          "midi": 53,
          "name": "F3",
          "ticks": 207167,
          "time": 208.83728393750002,
          "velocity": 0.2440944881889764
        },
        {
          "duration": 0.09677400000001057,
          "durationTicks": 96,
          "midi": 44,
          "name": "G#2",
          "ticks": 207359,
          "time": 209.0308319375,
          "velocity": 0.2440944881889764
        },
        {
          "duration": 0.09677400000001057,
          "durationTicks": 96,
          "midi": 48,
          "name": "C3",
          "ticks": 207562,
          "time": 209.23546862499998,
          "velocity": 0.2047244094488189
        },
        {
          "duration": 0.09677400000001057,
          "durationTicks": 96,
          "midi": 51,
          "name": "D#3",
          "ticks": 207562,
          "time": 209.23546862499998,
          "velocity": 0.2440944881889764
        },
        {
          "duration": 0.09677400000001057,
          "durationTicks": 96,
          "midi": 39,
          "name": "D#2",
          "ticks": 207753,
          "time": 209.4280085625,
          "velocity": 0.2283464566929134
        },
        {
          "duration": 0.09677400000001057,
          "durationTicks": 96,
          "midi": 48,
          "name": "C3",
          "ticks": 207942,
          "time": 209.618532375,
          "velocity": 0.2047244094488189
        },
        {
          "duration": 0.09677400000001057,
          "durationTicks": 96,
          "midi": 51,
          "name": "D#3",
          "ticks": 207942,
          "time": 209.618532375,
          "velocity": 0.2440944881889764
        },
        {
          "duration": 0.09677399999998215,
          "durationTicks": 96,
          "midi": 43,
          "name": "G2",
          "ticks": 208133,
          "time": 209.81107231250002,
          "velocity": 0.23622047244094488
        },
        {
          "duration": 0.09677400000001057,
          "durationTicks": 96,
          "midi": 47,
          "name": "B2",
          "ticks": 208324,
          "time": 210.00361224999997,
          "velocity": 0.2047244094488189
        },
        {
          "duration": 0.09677400000001057,
          "durationTicks": 96,
          "midi": 50,
          "name": "D3",
          "ticks": 208324,
          "time": 210.00361224999997,
          "velocity": 0.2440944881889764
        },
        {
          "duration": 0.09677400000001057,
          "durationTicks": 96,
          "midi": 38,
          "name": "D2",
          "ticks": 208514,
          "time": 210.195144125,
          "velocity": 0.2283464566929134
        },
        {
          "duration": 0.09677399999998215,
          "durationTicks": 96,
          "midi": 47,
          "name": "B2",
          "ticks": 208703,
          "time": 210.38566793750002,
          "velocity": 0.2047244094488189
        },
        {
          "duration": 0.09677399999998215,
          "durationTicks": 96,
          "midi": 50,
          "name": "D3",
          "ticks": 208703,
          "time": 210.38566793750002,
          "velocity": 0.2440944881889764
        },
        {
          "duration": 0.09677400000001057,
          "durationTicks": 96,
          "midi": 44,
          "name": "G#2",
          "ticks": 208895,
          "time": 210.5792159375,
          "velocity": 0.2440944881889764
        },
        {
          "duration": 0.09677400000001057,
          "durationTicks": 96,
          "midi": 48,
          "name": "C3",
          "ticks": 209098,
          "time": 210.78385262499998,
          "velocity": 0.2047244094488189
        },
        {
          "duration": 0.09677400000001057,
          "durationTicks": 96,
          "midi": 51,
          "name": "D#3",
          "ticks": 209098,
          "time": 210.78385262499998,
          "velocity": 0.2440944881889764
        },
        {
          "duration": 0.09677400000001057,
          "durationTicks": 96,
          "midi": 39,
          "name": "D#2",
          "ticks": 209289,
          "time": 210.9763925625,
          "velocity": 0.2283464566929134
        },
        {
          "duration": 0.09677400000001057,
          "durationTicks": 96,
          "midi": 48,
          "name": "C3",
          "ticks": 209478,
          "time": 211.166916375,
          "velocity": 0.2047244094488189
        },
        {
          "duration": 0.09677400000001057,
          "durationTicks": 96,
          "midi": 51,
          "name": "D#3",
          "ticks": 209478,
          "time": 211.166916375,
          "velocity": 0.2440944881889764
        },
        {
          "duration": 0.09677400000001057,
          "durationTicks": 96,
          "midi": 44,
          "name": "G#2",
          "ticks": 209669,
          "time": 211.35945631250001,
          "velocity": 0.23622047244094488
        },
        {
          "duration": 0.09677400000001057,
          "durationTicks": 96,
          "midi": 48,
          "name": "C3",
          "ticks": 209860,
          "time": 211.55199624999997,
          "velocity": 0.2047244094488189
        },
        {
          "duration": 0.09677400000001057,
          "durationTicks": 96,
          "midi": 51,
          "name": "D#3",
          "ticks": 209860,
          "time": 211.55199624999997,
          "velocity": 0.2440944881889764
        },
        {
          "duration": 0.09677400000001057,
          "durationTicks": 96,
          "midi": 39,
          "name": "D#2",
          "ticks": 210050,
          "time": 211.743528125,
          "velocity": 0.2283464566929134
        },
        {
          "duration": 0.09677400000001057,
          "durationTicks": 96,
          "midi": 48,
          "name": "C3",
          "ticks": 210239,
          "time": 211.93405193750002,
          "velocity": 0.2047244094488189
        },
        {
          "duration": 0.09677400000001057,
          "durationTicks": 96,
          "midi": 51,
          "name": "D#3",
          "ticks": 210239,
          "time": 211.93405193750002,
          "velocity": 0.2440944881889764
        },
        {
          "duration": 0.09677400000001057,
          "durationTicks": 96,
          "midi": 53,
          "name": "F3",
          "ticks": 210431,
          "time": 212.1275999375,
          "velocity": 0.2440944881889764
        },
        {
          "duration": 0.09677400000001057,
          "durationTicks": 96,
          "midi": 56,
          "name": "G#3",
          "ticks": 210634,
          "time": 212.33223662499998,
          "velocity": 0.2047244094488189
        },
        {
          "duration": 0.09677400000001057,
          "durationTicks": 96,
          "midi": 60,
          "name": "C4",
          "ticks": 210634,
          "time": 212.33223662499998,
          "velocity": 0.2440944881889764
        },
        {
          "duration": 0.09677400000001057,
          "durationTicks": 96,
          "midi": 48,
          "name": "C3",
          "ticks": 210825,
          "time": 212.5247765625,
          "velocity": 0.2283464566929134
        },
        {
          "duration": 0.09677400000001057,
          "durationTicks": 96,
          "midi": 56,
          "name": "G#3",
          "ticks": 211014,
          "time": 212.715300375,
          "velocity": 0.2047244094488189
        },
        {
          "duration": 0.09677400000001057,
          "durationTicks": 96,
          "midi": 60,
          "name": "C4",
          "ticks": 211014,
          "time": 212.715300375,
          "velocity": 0.2440944881889764
        },
        {
          "duration": 0.09677400000001057,
          "durationTicks": 96,
          "midi": 53,
          "name": "F3",
          "ticks": 211205,
          "time": 212.9078403125,
          "velocity": 0.23622047244094488
        },
        {
          "duration": 0.09677400000001057,
          "durationTicks": 96,
          "midi": 56,
          "name": "G#3",
          "ticks": 211396,
          "time": 213.10038024999997,
          "velocity": 0.2047244094488189
        },
        {
          "duration": 0.09677400000001057,
          "durationTicks": 96,
          "midi": 60,
          "name": "C4",
          "ticks": 211396,
          "time": 213.10038024999997,
          "velocity": 0.2440944881889764
        },
        {
          "duration": 0.09677400000001057,
          "durationTicks": 96,
          "midi": 48,
          "name": "C3",
          "ticks": 211586,
          "time": 213.291912125,
          "velocity": 0.2283464566929134
        },
        {
          "duration": 0.09677400000001057,
          "durationTicks": 96,
          "midi": 56,
          "name": "G#3",
          "ticks": 211775,
          "time": 213.48243593750001,
          "velocity": 0.2047244094488189
        },
        {
          "duration": 0.09677400000001057,
          "durationTicks": 96,
          "midi": 60,
          "name": "C4",
          "ticks": 211775,
          "time": 213.48243593750001,
          "velocity": 0.2440944881889764
        },
        {
          "duration": 0.09677400000001057,
          "durationTicks": 96,
          "midi": 46,
          "name": "A#2",
          "ticks": 211967,
          "time": 213.6759839375,
          "velocity": 0.2440944881889764
        },
        {
          "duration": 0.09677400000001057,
          "durationTicks": 96,
          "midi": 50,
          "name": "D3",
          "ticks": 212170,
          "time": 213.88062062499998,
          "velocity": 0.2047244094488189
        },
        {
          "duration": 0.09677400000001057,
          "durationTicks": 96,
          "midi": 53,
          "name": "F3",
          "ticks": 212170,
          "time": 213.88062062499998,
          "velocity": 0.2440944881889764
        },
        {
          "duration": 0.09677400000001057,
          "durationTicks": 96,
          "midi": 41,
          "name": "F2",
          "ticks": 212361,
          "time": 214.0731605625,
          "velocity": 0.2283464566929134
        },
        {
          "duration": 0.09677400000001057,
          "durationTicks": 96,
          "midi": 50,
          "name": "D3",
          "ticks": 212550,
          "time": 214.263684375,
          "velocity": 0.2047244094488189
        },
        {
          "duration": 0.09677400000001057,
          "durationTicks": 96,
          "midi": 53,
          "name": "F3",
          "ticks": 212550,
          "time": 214.263684375,
          "velocity": 0.2440944881889764
        },
        {
          "duration": 0.09677400000001057,
          "durationTicks": 96,
          "midi": 46,
          "name": "A#2",
          "ticks": 212741,
          "time": 214.4562243125,
          "velocity": 0.23622047244094488
        },
        {
          "duration": 0.09677400000001057,
          "durationTicks": 96,
          "midi": 50,
          "name": "D3",
          "ticks": 212932,
          "time": 214.64876424999997,
          "velocity": 0.2047244094488189
        },
        {
          "duration": 0.09677400000001057,
          "durationTicks": 96,
          "midi": 53,
          "name": "F3",
          "ticks": 212932,
          "time": 214.64876424999997,
          "velocity": 0.2440944881889764
        },
        {
          "duration": 0.09677400000001057,
          "durationTicks": 96,
          "midi": 41,
          "name": "F2",
          "ticks": 213122,
          "time": 214.840296125,
          "velocity": 0.2283464566929134
        },
        {
          "duration": 0.09677400000001057,
          "durationTicks": 96,
          "midi": 50,
          "name": "D3",
          "ticks": 213311,
          "time": 215.0308199375,
          "velocity": 0.2047244094488189
        },
        {
          "duration": 0.09677400000001057,
          "durationTicks": 96,
          "midi": 53,
          "name": "F3",
          "ticks": 213311,
          "time": 215.0308199375,
          "velocity": 0.2440944881889764
        },
        {
          "duration": 0.3870960000000139,
          "durationTicks": 384,
          "midi": 31,
          "name": "G1",
          "ticks": 213503,
          "time": 215.2243679375,
          "velocity": 0.2125984251968504
        },
        {
          "duration": 0.3870960000000139,
          "durationTicks": 384,
          "midi": 43,
          "name": "G2",
          "ticks": 213503,
          "time": 215.2243679375,
          "velocity": 0.25984251968503935
        },
        {
          "duration": 0.3870960000000139,
          "durationTicks": 384,
          "midi": 32,
          "name": "G#1",
          "ticks": 213897,
          "time": 215.6215445625,
          "velocity": 0.1968503937007874
        },
        {
          "duration": 0.3870960000000139,
          "durationTicks": 384,
          "midi": 44,
          "name": "G#2",
          "ticks": 213897,
          "time": 215.6215445625,
          "velocity": 0.25196850393700787
        },
        {
          "duration": 0.3870960000000139,
          "durationTicks": 384,
          "midi": 31,
          "name": "G1",
          "ticks": 214277,
          "time": 216.0046083125,
          "velocity": 0.2047244094488189
        },
        {
          "duration": 0.3870960000000139,
          "durationTicks": 384,
          "midi": 43,
          "name": "G2",
          "ticks": 214277,
          "time": 216.0046083125,
          "velocity": 0.25984251968503935
        },
        {
          "duration": 0.3870960000000139,
          "durationTicks": 384,
          "midi": 32,
          "name": "G#1",
          "ticks": 214658,
          "time": 216.388680125,
          "velocity": 0.1968503937007874
        },
        {
          "duration": 0.3870960000000139,
          "durationTicks": 384,
          "midi": 44,
          "name": "G#2",
          "ticks": 214658,
          "time": 216.388680125,
          "velocity": 0.25196850393700787
        },
        {
          "duration": 0.19354800000002115,
          "durationTicks": 192,
          "midi": 31,
          "name": "G1",
          "ticks": 215039,
          "time": 216.7727519375,
          "velocity": 0.2125984251968504
        },
        {
          "duration": 0.19354800000002115,
          "durationTicks": 192,
          "midi": 43,
          "name": "G2",
          "ticks": 215039,
          "time": 216.7727519375,
          "velocity": 0.25984251968503935
        },
        {
          "duration": 0.19354800000002115,
          "durationTicks": 192,
          "midi": 32,
          "name": "G#1",
          "ticks": 215242,
          "time": 216.97738862499997,
          "velocity": 0.1968503937007874
        },
        {
          "duration": 0.19354800000002115,
          "durationTicks": 192,
          "midi": 44,
          "name": "G#2",
          "ticks": 215242,
          "time": 216.97738862499997,
          "velocity": 0.2440944881889764
        },
        {
          "duration": 0.19354800000002115,
          "durationTicks": 192,
          "midi": 31,
          "name": "G1",
          "ticks": 215433,
          "time": 217.1699285625,
          "velocity": 0.1968503937007874
        },
        {
          "duration": 0.19354800000002115,
          "durationTicks": 192,
          "midi": 43,
          "name": "G2",
          "ticks": 215433,
          "time": 217.1699285625,
          "velocity": 0.25196850393700787
        },
        {
          "duration": 0.19354799999999273,
          "durationTicks": 192,
          "midi": 32,
          "name": "G#1",
          "ticks": 215622,
          "time": 217.360452375,
          "velocity": 0.1968503937007874
        },
        {
          "duration": 0.19354799999999273,
          "durationTicks": 192,
          "midi": 44,
          "name": "G#2",
          "ticks": 215622,
          "time": 217.360452375,
          "velocity": 0.2440944881889764
        },
        {
          "duration": 0.19354799999999273,
          "durationTicks": 192,
          "midi": 31,
          "name": "G1",
          "ticks": 215813,
          "time": 217.5529923125,
          "velocity": 0.2047244094488189
        },
        {
          "duration": 0.19354799999999273,
          "durationTicks": 192,
          "midi": 43,
          "name": "G2",
          "ticks": 215813,
          "time": 217.5529923125,
          "velocity": 0.25984251968503935
        },
        {
          "duration": 0.19354799999999273,
          "durationTicks": 192,
          "midi": 32,
          "name": "G#1",
          "ticks": 216004,
          "time": 217.74553225,
          "velocity": 0.1968503937007874
        },
        {
          "duration": 0.19354799999999273,
          "durationTicks": 192,
          "midi": 44,
          "name": "G#2",
          "ticks": 216004,
          "time": 217.74553225,
          "velocity": 0.2440944881889764
        },
        {
          "duration": 0.19354799999999273,
          "durationTicks": 192,
          "midi": 31,
          "name": "G1",
          "ticks": 216194,
          "time": 217.937064125,
          "velocity": 0.1968503937007874
        },
        {
          "duration": 0.19354799999999273,
          "durationTicks": 192,
          "midi": 43,
          "name": "G2",
          "ticks": 216194,
          "time": 217.937064125,
          "velocity": 0.25196850393700787
        },
        {
          "duration": 0.19354799999999273,
          "durationTicks": 192,
          "midi": 32,
          "name": "G#1",
          "ticks": 216383,
          "time": 218.1275879375,
          "velocity": 0.1968503937007874
        },
        {
          "duration": 0.19354799999999273,
          "durationTicks": 192,
          "midi": 44,
          "name": "G#2",
          "ticks": 216383,
          "time": 218.1275879375,
          "velocity": 0.2440944881889764
        },
        {
          "duration": 0.19354800000002115,
          "durationTicks": 192,
          "midi": 31,
          "name": "G1",
          "ticks": 216575,
          "time": 218.3211359375,
          "velocity": 0.2125984251968504
        },
        {
          "duration": 0.19354800000002115,
          "durationTicks": 192,
          "midi": 43,
          "name": "G2",
          "ticks": 216575,
          "time": 218.3211359375,
          "velocity": 0.25984251968503935
        },
        {
          "duration": 0.19354800000002115,
          "durationTicks": 192,
          "midi": 32,
          "name": "G#1",
          "ticks": 216778,
          "time": 218.52577262499997,
          "velocity": 0.1968503937007874
        },
        {
          "duration": 0.19354800000002115,
          "durationTicks": 192,
          "midi": 44,
          "name": "G#2",
          "ticks": 216778,
          "time": 218.52577262499997,
          "velocity": 0.2440944881889764
        },
        {
          "duration": 0.19354800000002115,
          "durationTicks": 192,
          "midi": 31,
          "name": "G1",
          "ticks": 216969,
          "time": 218.7183125625,
          "velocity": 0.1968503937007874
        },
        {
          "duration": 0.19354800000002115,
          "durationTicks": 192,
          "midi": 43,
          "name": "G2",
          "ticks": 216969,
          "time": 218.7183125625,
          "velocity": 0.25196850393700787
        },
        {
          "duration": 0.19354799999999273,
          "durationTicks": 192,
          "midi": 32,
          "name": "G#1",
          "ticks": 217158,
          "time": 218.908836375,
          "velocity": 0.1968503937007874
        },
        {
          "duration": 0.19354799999999273,
          "durationTicks": 192,
          "midi": 44,
          "name": "G#2",
          "ticks": 217158,
          "time": 218.908836375,
          "velocity": 0.2440944881889764
        },
        {
          "duration": 0.19354799999999273,
          "durationTicks": 192,
          "midi": 31,
          "name": "G1",
          "ticks": 217349,
          "time": 219.1013763125,
          "velocity": 0.25984251968503935
        },
        {
          "duration": 0.19354799999999273,
          "durationTicks": 192,
          "midi": 43,
          "name": "G2",
          "ticks": 217349,
          "time": 219.1013763125,
          "velocity": 0.31496062992125984
        },
        {
          "duration": 0.19354799999999273,
          "durationTicks": 192,
          "midi": 31,
          "name": "G1",
          "ticks": 217540,
          "time": 219.29391625,
          "velocity": 0.25196850393700787
        },
        {
          "duration": 0.19354799999999273,
          "durationTicks": 192,
          "midi": 43,
          "name": "G2",
          "ticks": 217540,
          "time": 219.29391625,
          "velocity": 0.29133858267716534
        },
        {
          "duration": 0.19354800000002115,
          "durationTicks": 192,
          "midi": 31,
          "name": "G1",
          "ticks": 217730,
          "time": 219.485448125,
          "velocity": 0.25984251968503935
        },
        {
          "duration": 0.19354800000002115,
          "durationTicks": 192,
          "midi": 43,
          "name": "G2",
          "ticks": 217730,
          "time": 219.485448125,
          "velocity": 0.2992125984251969
        },
        {
          "duration": 0.19354799999999273,
          "durationTicks": 192,
          "midi": 31,
          "name": "G1",
          "ticks": 217919,
          "time": 219.6759719375,
          "velocity": 0.25196850393700787
        },
        {
          "duration": 0.19354799999999273,
          "durationTicks": 192,
          "midi": 43,
          "name": "G2",
          "ticks": 217919,
          "time": 219.6759719375,
          "velocity": 0.29133858267716534
        },
        {
          "duration": 0.09677400000001057,
          "durationTicks": 96,
          "midi": 48,
          "name": "C3",
          "ticks": 218111,
          "time": 219.8695199375,
          "velocity": 0.2440944881889764
        },
        {
          "duration": 0.09677400000001057,
          "durationTicks": 96,
          "midi": 51,
          "name": "D#3",
          "ticks": 218314,
          "time": 220.07415662499997,
          "velocity": 0.2047244094488189
        },
        {
          "duration": 0.09677400000001057,
          "durationTicks": 96,
          "midi": 55,
          "name": "G3",
          "ticks": 218314,
          "time": 220.07415662499997,
          "velocity": 0.2440944881889764
        },
        {
          "duration": 0.09677400000001057,
          "durationTicks": 96,
          "midi": 43,
          "name": "G2",
          "ticks": 218505,
          "time": 220.2666965625,
          "velocity": 0.2283464566929134
        },
        {
          "duration": 0.09677400000001057,
          "durationTicks": 96,
          "midi": 51,
          "name": "D#3",
          "ticks": 218694,
          "time": 220.457220375,
          "velocity": 0.2047244094488189
        },
        {
          "duration": 0.09677400000001057,
          "durationTicks": 96,
          "midi": 55,
          "name": "G3",
          "ticks": 218694,
          "time": 220.457220375,
          "velocity": 0.2440944881889764
        },
        {
          "duration": 0.09677400000001057,
          "durationTicks": 96,
          "midi": 48,
          "name": "C3",
          "ticks": 218885,
          "time": 220.6497603125,
          "velocity": 0.23622047244094488
        },
        {
          "duration": 0.09677399999998215,
          "durationTicks": 96,
          "midi": 51,
          "name": "D#3",
          "ticks": 219076,
          "time": 220.84230025,
          "velocity": 0.2047244094488189
        },
        {
          "duration": 0.09677399999998215,
          "durationTicks": 96,
          "midi": 55,
          "name": "G3",
          "ticks": 219076,
          "time": 220.84230025,
          "velocity": 0.2440944881889764
        },
        {
          "duration": 0.09677400000001057,
          "durationTicks": 96,
          "midi": 43,
          "name": "G2",
          "ticks": 219266,
          "time": 221.033832125,
          "velocity": 0.2283464566929134
        },
        {
          "duration": 0.09677400000001057,
          "durationTicks": 96,
          "midi": 51,
          "name": "D#3",
          "ticks": 219455,
          "time": 221.2243559375,
          "velocity": 0.2047244094488189
        },
        {
          "duration": 0.09677400000001057,
          "durationTicks": 96,
          "midi": 55,
          "name": "G3",
          "ticks": 219455,
          "time": 221.2243559375,
          "velocity": 0.2440944881889764
        },
        {
          "duration": 0.09677400000001057,
          "durationTicks": 96,
          "midi": 51,
          "name": "D#3",
          "ticks": 219647,
          "time": 221.4179039375,
          "velocity": 0.2440944881889764
        },
        {
          "duration": 0.09677400000001057,
          "durationTicks": 96,
          "midi": 55,
          "name": "G3",
          "ticks": 219850,
          "time": 221.62254062499997,
          "velocity": 0.2047244094488189
        },
        {
          "duration": 0.09677400000001057,
          "durationTicks": 96,
          "midi": 58,
          "name": "A#3",
          "ticks": 219850,
          "time": 221.62254062499997,
          "velocity": 0.2440944881889764
        },
        {
          "duration": 0.09677400000001057,
          "durationTicks": 96,
          "midi": 46,
          "name": "A#2",
          "ticks": 220041,
          "time": 221.8150805625,
          "velocity": 0.2283464566929134
        },
        {
          "duration": 0.09677400000001057,
          "durationTicks": 96,
          "midi": 55,
          "name": "G3",
          "ticks": 220230,
          "time": 222.005604375,
          "velocity": 0.2047244094488189
        },
        {
          "duration": 0.09677400000001057,
          "durationTicks": 96,
          "midi": 58,
          "name": "A#3",
          "ticks": 220230,
          "time": 222.005604375,
          "velocity": 0.2440944881889764
        },
        {
          "duration": 0.09677400000001057,
          "durationTicks": 96,
          "midi": 51,
          "name": "D#3",
          "ticks": 220421,
          "time": 222.1981443125,
          "velocity": 0.23622047244094488
        },
        {
          "duration": 0.09677399999998215,
          "durationTicks": 96,
          "midi": 55,
          "name": "G3",
          "ticks": 220612,
          "time": 222.39068425,
          "velocity": 0.2047244094488189
        },
        {
          "duration": 0.09677399999998215,
          "durationTicks": 96,
          "midi": 58,
          "name": "A#3",
          "ticks": 220612,
          "time": 222.39068425,
          "velocity": 0.2440944881889764
        },
        {
          "duration": 0.09677400000001057,
          "durationTicks": 96,
          "midi": 46,
          "name": "A#2",
          "ticks": 220802,
          "time": 222.582216125,
          "velocity": 0.2283464566929134
        },
        {
          "duration": 0.09677400000001057,
          "durationTicks": 96,
          "midi": 55,
          "name": "G3",
          "ticks": 220991,
          "time": 222.7727399375,
          "velocity": 0.2047244094488189
        },
        {
          "duration": 0.09677400000001057,
          "durationTicks": 96,
          "midi": 58,
          "name": "A#3",
          "ticks": 220991,
          "time": 222.7727399375,
          "velocity": 0.2440944881889764
        },
        {
          "duration": 0.09677400000001057,
          "durationTicks": 96,
          "midi": 46,
          "name": "A#2",
          "ticks": 221183,
          "time": 222.9662879375,
          "velocity": 0.2440944881889764
        },
        {
          "duration": 0.09677400000001057,
          "durationTicks": 96,
          "midi": 50,
          "name": "D3",
          "ticks": 221386,
          "time": 223.17092462499997,
          "velocity": 0.2047244094488189
        },
        {
          "duration": 0.09677400000001057,
          "durationTicks": 96,
          "midi": 53,
          "name": "F3",
          "ticks": 221386,
          "time": 223.17092462499997,
          "velocity": 0.2440944881889764
        },
        {
          "duration": 0.09677400000001057,
          "durationTicks": 96,
          "midi": 41,
          "name": "F2",
          "ticks": 221577,
          "time": 223.36346456249998,
          "velocity": 0.2283464566929134
        },
        {
          "duration": 0.09677400000001057,
          "durationTicks": 96,
          "midi": 50,
          "name": "D3",
          "ticks": 221766,
          "time": 223.553988375,
          "velocity": 0.2047244094488189
        },
        {
          "duration": 0.09677400000001057,
          "durationTicks": 96,
          "midi": 53,
          "name": "F3",
          "ticks": 221766,
          "time": 223.553988375,
          "velocity": 0.2440944881889764
        },
        {
          "duration": 0.09677400000001057,
          "durationTicks": 96,
          "midi": 46,
          "name": "A#2",
          "ticks": 221957,
          "time": 223.7465283125,
          "velocity": 0.23622047244094488
        },
        {
          "duration": 0.09677399999998215,
          "durationTicks": 96,
          "midi": 50,
          "name": "D3",
          "ticks": 222148,
          "time": 223.93906825,
          "velocity": 0.2047244094488189
        },
        {
          "duration": 0.09677399999998215,
          "durationTicks": 96,
          "midi": 53,
          "name": "F3",
          "ticks": 222148,
          "time": 223.93906825,
          "velocity": 0.2440944881889764
        },
        {
          "duration": 0.09677400000001057,
          "durationTicks": 96,
          "midi": 41,
          "name": "F2",
          "ticks": 222338,
          "time": 224.130600125,
          "velocity": 0.2283464566929134
        },
        {
          "duration": 0.09677400000001057,
          "durationTicks": 96,
          "midi": 50,
          "name": "D3",
          "ticks": 222527,
          "time": 224.3211239375,
          "velocity": 0.2047244094488189
        },
        {
          "duration": 0.09677400000001057,
          "durationTicks": 96,
          "midi": 53,
          "name": "F3",
          "ticks": 222527,
          "time": 224.3211239375,
          "velocity": 0.2440944881889764
        },
        {
          "duration": 0.09677399999998215,
          "durationTicks": 96,
          "midi": 44,
          "name": "G#2",
          "ticks": 222719,
          "time": 224.51467193750003,
          "velocity": 0.2440944881889764
        },
        {
          "duration": 0.09677399999998215,
          "durationTicks": 96,
          "midi": 48,
          "name": "C3",
          "ticks": 222922,
          "time": 224.719308625,
          "velocity": 0.2047244094488189
        },
        {
          "duration": 0.09677399999998215,
          "durationTicks": 96,
          "midi": 51,
          "name": "D#3",
          "ticks": 222922,
          "time": 224.719308625,
          "velocity": 0.2440944881889764
        },
        {
          "duration": 0.09677400000001057,
          "durationTicks": 96,
          "midi": 39,
          "name": "D#2",
          "ticks": 223113,
          "time": 224.91184856249998,
          "velocity": 0.2283464566929134
        },
        {
          "duration": 0.09677400000001057,
          "durationTicks": 96,
          "midi": 48,
          "name": "C3",
          "ticks": 223302,
          "time": 225.102372375,
          "velocity": 0.2047244094488189
        },
        {
          "duration": 0.09677400000001057,
          "durationTicks": 96,
          "midi": 51,
          "name": "D#3",
          "ticks": 223302,
          "time": 225.102372375,
          "velocity": 0.2440944881889764
        },
        {
          "duration": 0.09677400000001057,
          "durationTicks": 96,
          "midi": 43,
          "name": "G2",
          "ticks": 223493,
          "time": 225.2949123125,
          "velocity": 0.23622047244094488
        },
        {
          "duration": 0.09677399999998215,
          "durationTicks": 96,
          "midi": 47,
          "name": "B2",
          "ticks": 223684,
          "time": 225.48745225,
          "velocity": 0.2047244094488189
        },
        {
          "duration": 0.09677399999998215,
          "durationTicks": 96,
          "midi": 50,
          "name": "D3",
          "ticks": 223684,
          "time": 225.48745225,
          "velocity": 0.2440944881889764
        },
        {
          "duration": 0.09677400000001057,
          "durationTicks": 96,
          "midi": 38,
          "name": "D2",
          "ticks": 223874,
          "time": 225.678984125,
          "velocity": 0.2283464566929134
        },
        {
          "duration": 0.09677400000001057,
          "durationTicks": 96,
          "midi": 47,
          "name": "B2",
          "ticks": 224063,
          "time": 225.8695079375,
          "velocity": 0.2047244094488189
        },
        {
          "duration": 0.09677400000001057,
          "durationTicks": 96,
          "midi": 50,
          "name": "D3",
          "ticks": 224063,
          "time": 225.8695079375,
          "velocity": 0.2440944881889764
        },
        {
          "duration": 0.09677399999998215,
          "durationTicks": 96,
          "midi": 48,
          "name": "C3",
          "ticks": 224255,
          "time": 226.06305593750002,
          "velocity": 0.2440944881889764
        },
        {
          "duration": 0.09677399999998215,
          "durationTicks": 96,
          "midi": 51,
          "name": "D#3",
          "ticks": 224458,
          "time": 226.267692625,
          "velocity": 0.2047244094488189
        },
        {
          "duration": 0.09677399999998215,
          "durationTicks": 96,
          "midi": 55,
          "name": "G3",
          "ticks": 224458,
          "time": 226.267692625,
          "velocity": 0.2440944881889764
        },
        {
          "duration": 0.09677399999998215,
          "durationTicks": 96,
          "midi": 43,
          "name": "G2",
          "ticks": 224649,
          "time": 226.4602325625,
          "velocity": 0.2283464566929134
        },
        {
          "duration": 0.09677400000001057,
          "durationTicks": 96,
          "midi": 51,
          "name": "D#3",
          "ticks": 224838,
          "time": 226.650756375,
          "velocity": 0.2047244094488189
        },
        {
          "duration": 0.09677400000001057,
          "durationTicks": 96,
          "midi": 55,
          "name": "G3",
          "ticks": 224838,
          "time": 226.650756375,
          "velocity": 0.2440944881889764
        },
        {
          "duration": 0.09677400000001057,
          "durationTicks": 96,
          "midi": 48,
          "name": "C3",
          "ticks": 225029,
          "time": 226.8432963125,
          "velocity": 0.23622047244094488
        },
        {
          "duration": 0.09677399999998215,
          "durationTicks": 96,
          "midi": 51,
          "name": "D#3",
          "ticks": 225220,
          "time": 227.03583625,
          "velocity": 0.2047244094488189
        },
        {
          "duration": 0.09677399999998215,
          "durationTicks": 96,
          "midi": 55,
          "name": "G3",
          "ticks": 225220,
          "time": 227.03583625,
          "velocity": 0.2440944881889764
        },
        {
          "duration": 0.09677400000001057,
          "durationTicks": 96,
          "midi": 43,
          "name": "G2",
          "ticks": 225410,
          "time": 227.227368125,
          "velocity": 0.2283464566929134
        },
        {
          "duration": 0.09677400000001057,
          "durationTicks": 96,
          "midi": 51,
          "name": "D#3",
          "ticks": 225599,
          "time": 227.4178919375,
          "velocity": 0.2047244094488189
        },
        {
          "duration": 0.09677400000001057,
          "durationTicks": 96,
          "midi": 55,
          "name": "G3",
          "ticks": 225599,
          "time": 227.4178919375,
          "velocity": 0.2440944881889764
        },
        {
          "duration": 0.09677399999998215,
          "durationTicks": 96,
          "midi": 51,
          "name": "D#3",
          "ticks": 225791,
          "time": 227.61143993750002,
          "velocity": 0.2440944881889764
        },
        {
          "duration": 0.09677399999998215,
          "durationTicks": 96,
          "midi": 55,
          "name": "G3",
          "ticks": 225994,
          "time": 227.816076625,
          "velocity": 0.2047244094488189
        },
        {
          "duration": 0.09677399999998215,
          "durationTicks": 96,
          "midi": 58,
          "name": "A#3",
          "ticks": 225994,
          "time": 227.816076625,
          "velocity": 0.2440944881889764
        },
        {
          "duration": 0.09677399999998215,
          "durationTicks": 96,
          "midi": 46,
          "name": "A#2",
          "ticks": 226185,
          "time": 228.0086165625,
          "velocity": 0.2283464566929134
        },
        {
          "duration": 0.09677400000001057,
          "durationTicks": 96,
          "midi": 55,
          "name": "G3",
          "ticks": 226374,
          "time": 228.19914037499998,
          "velocity": 0.2047244094488189
        },
        {
          "duration": 0.09677400000001057,
          "durationTicks": 96,
          "midi": 58,
          "name": "A#3",
          "ticks": 226374,
          "time": 228.19914037499998,
          "velocity": 0.2440944881889764
        },
        {
          "duration": 0.09677400000001057,
          "durationTicks": 96,
          "midi": 51,
          "name": "D#3",
          "ticks": 226565,
          "time": 228.3916803125,
          "velocity": 0.23622047244094488
        },
        {
          "duration": 0.09677399999998215,
          "durationTicks": 96,
          "midi": 55,
          "name": "G3",
          "ticks": 226756,
          "time": 228.58422025,
          "velocity": 0.2047244094488189
        },
        {
          "duration": 0.09677399999998215,
          "durationTicks": 96,
          "midi": 58,
          "name": "A#3",
          "ticks": 226756,
          "time": 228.58422025,
          "velocity": 0.2440944881889764
        },
        {
          "duration": 0.09677399999998215,
          "durationTicks": 96,
          "midi": 46,
          "name": "A#2",
          "ticks": 226946,
          "time": 228.77575212500003,
          "velocity": 0.2283464566929134
        },
        {
          "duration": 0.09677400000001057,
          "durationTicks": 96,
          "midi": 55,
          "name": "G3",
          "ticks": 227135,
          "time": 228.9662759375,
          "velocity": 0.2047244094488189
        },
        {
          "duration": 0.09677400000001057,
          "durationTicks": 96,
          "midi": 58,
          "name": "A#3",
          "ticks": 227135,
          "time": 228.9662759375,
          "velocity": 0.2440944881889764
        },
        {
          "duration": 0.09677399999998215,
          "durationTicks": 96,
          "midi": 46,
          "name": "A#2",
          "ticks": 227327,
          "time": 229.15982393750002,
          "velocity": 0.2440944881889764
        },
        {
          "duration": 0.09677399999998215,
          "durationTicks": 96,
          "midi": 50,
          "name": "D3",
          "ticks": 227530,
          "time": 229.364460625,
          "velocity": 0.2047244094488189
        },
        {
          "duration": 0.09677399999998215,
          "durationTicks": 96,
          "midi": 53,
          "name": "F3",
          "ticks": 227530,
          "time": 229.364460625,
          "velocity": 0.2440944881889764
        },
        {
          "duration": 0.09677399999998215,
          "durationTicks": 96,
          "midi": 41,
          "name": "F2",
          "ticks": 227721,
          "time": 229.5570005625,
          "velocity": 0.2283464566929134
        },
        {
          "duration": 0.09677400000001057,
          "durationTicks": 96,
          "midi": 50,
          "name": "D3",
          "ticks": 227910,
          "time": 229.74752437499998,
          "velocity": 0.2047244094488189
        },
        {
          "duration": 0.09677400000001057,
          "durationTicks": 96,
          "midi": 53,
          "name": "F3",
          "ticks": 227910,
          "time": 229.74752437499998,
          "velocity": 0.2440944881889764
        },
        {
          "duration": 0.09677400000001057,
          "durationTicks": 96,
          "midi": 46,
          "name": "A#2",
          "ticks": 228101,
          "time": 229.9400643125,
          "velocity": 0.23622047244094488
        },
        {
          "duration": 0.09677400000001057,
          "durationTicks": 96,
          "midi": 50,
          "name": "D3",
          "ticks": 228292,
          "time": 230.13260424999999,
          "velocity": 0.2047244094488189
        },
        {
          "duration": 0.09677400000001057,
          "durationTicks": 96,
          "midi": 53,
          "name": "F3",
          "ticks": 228292,
          "time": 230.13260424999999,
          "velocity": 0.2440944881889764
        },
        {
          "duration": 0.09677399999998215,
          "durationTicks": 96,
          "midi": 41,
          "name": "F2",
          "ticks": 228482,
          "time": 230.32413612500002,
          "velocity": 0.2283464566929134
        },
        {
          "duration": 0.09677400000001057,
          "durationTicks": 96,
          "midi": 50,
          "name": "D3",
          "ticks": 228671,
          "time": 230.5146599375,
          "velocity": 0.2047244094488189
        },
        {
          "duration": 0.09677400000001057,
          "durationTicks": 96,
          "midi": 53,
          "name": "F3",
          "ticks": 228671,
          "time": 230.5146599375,
          "velocity": 0.2440944881889764
        },
        {
          "duration": 0.09677399999998215,
          "durationTicks": 96,
          "midi": 44,
          "name": "G#2",
          "ticks": 228863,
          "time": 230.70820793750002,
          "velocity": 0.2440944881889764
        },
        {
          "duration": 0.09677399999998215,
          "durationTicks": 96,
          "midi": 48,
          "name": "C3",
          "ticks": 229066,
          "time": 230.912844625,
          "velocity": 0.2047244094488189
        },
        {
          "duration": 0.09677399999998215,
          "durationTicks": 96,
          "midi": 51,
          "name": "D#3",
          "ticks": 229066,
          "time": 230.912844625,
          "velocity": 0.2440944881889764
        },
        {
          "duration": 0.09677399999998215,
          "durationTicks": 96,
          "midi": 39,
          "name": "D#2",
          "ticks": 229257,
          "time": 231.1053845625,
          "velocity": 0.2283464566929134
        },
        {
          "duration": 0.09677399999998215,
          "durationTicks": 96,
          "midi": 48,
          "name": "C3",
          "ticks": 229446,
          "time": 231.295908375,
          "velocity": 0.2047244094488189
        },
        {
          "duration": 0.09677399999998215,
          "durationTicks": 96,
          "midi": 51,
          "name": "D#3",
          "ticks": 229446,
          "time": 231.295908375,
          "velocity": 0.2440944881889764
        },
        {
          "duration": 0.09677399999998215,
          "durationTicks": 96,
          "midi": 43,
          "name": "G2",
          "ticks": 229637,
          "time": 231.48844831250003,
          "velocity": 0.23622047244094488
        },
        {
          "duration": 0.09677400000001057,
          "durationTicks": 96,
          "midi": 47,
          "name": "B2",
          "ticks": 229828,
          "time": 231.68098824999998,
          "velocity": 0.2047244094488189
        },
        {
          "duration": 0.09677400000001057,
          "durationTicks": 96,
          "midi": 50,
          "name": "D3",
          "ticks": 229828,
          "time": 231.68098824999998,
          "velocity": 0.2440944881889764
        },
        {
          "duration": 0.09677399999998215,
          "durationTicks": 96,
          "midi": 38,
          "name": "D2",
          "ticks": 230018,
          "time": 231.87252012500002,
          "velocity": 0.2283464566929134
        },
        {
          "duration": 0.09677400000001057,
          "durationTicks": 96,
          "midi": 47,
          "name": "B2",
          "ticks": 230207,
          "time": 232.0630439375,
          "velocity": 0.2047244094488189
        },
        {
          "duration": 0.09677400000001057,
          "durationTicks": 96,
          "midi": 50,
          "name": "D3",
          "ticks": 230207,
          "time": 232.0630439375,
          "velocity": 0.2440944881889764
        },
        {
          "duration": 0.09677399999998215,
          "durationTicks": 96,
          "midi": 44,
          "name": "G#2",
          "ticks": 230399,
          "time": 232.25659193750002,
          "velocity": 0.2440944881889764
        },
        {
          "duration": 0.09677399999998215,
          "durationTicks": 96,
          "midi": 48,
          "name": "C3",
          "ticks": 230602,
          "time": 232.461228625,
          "velocity": 0.2047244094488189
        },
        {
          "duration": 0.09677399999998215,
          "durationTicks": 96,
          "midi": 51,
          "name": "D#3",
          "ticks": 230602,
          "time": 232.461228625,
          "velocity": 0.2440944881889764
        },
        {
          "duration": 0.09677399999998215,
          "durationTicks": 96,
          "midi": 39,
          "name": "D#2",
          "ticks": 230793,
          "time": 232.6537685625,
          "velocity": 0.2283464566929134
        },
        {
          "duration": 0.09677399999998215,
          "durationTicks": 96,
          "midi": 48,
          "name": "C3",
          "ticks": 230982,
          "time": 232.844292375,
          "velocity": 0.2047244094488189
        },
        {
          "duration": 0.09677399999998215,
          "durationTicks": 96,
          "midi": 51,
          "name": "D#3",
          "ticks": 230982,
          "time": 232.844292375,
          "velocity": 0.2440944881889764
        },
        {
          "duration": 0.09677399999998215,
          "durationTicks": 96,
          "midi": 44,
          "name": "G#2",
          "ticks": 231173,
          "time": 233.03683231250002,
          "velocity": 0.23622047244094488
        },
        {
          "duration": 0.09677400000001057,
          "durationTicks": 96,
          "midi": 48,
          "name": "C3",
          "ticks": 231364,
          "time": 233.22937224999998,
          "velocity": 0.2047244094488189
        },
        {
          "duration": 0.09677400000001057,
          "durationTicks": 96,
          "midi": 51,
          "name": "D#3",
          "ticks": 231364,
          "time": 233.22937224999998,
          "velocity": 0.2440944881889764
        },
        {
          "duration": 0.09677399999998215,
          "durationTicks": 96,
          "midi": 39,
          "name": "D#2",
          "ticks": 231554,
          "time": 233.42090412500002,
          "velocity": 0.2283464566929134
        },
        {
          "duration": 0.09677399999998215,
          "durationTicks": 96,
          "midi": 48,
          "name": "C3",
          "ticks": 231743,
          "time": 233.61142793750003,
          "velocity": 0.2047244094488189
        },
        {
          "duration": 0.09677399999998215,
          "durationTicks": 96,
          "midi": 51,
          "name": "D#3",
          "ticks": 231743,
          "time": 233.61142793750003,
          "velocity": 0.2440944881889764
        },
        {
          "duration": 0.09677399999998215,
          "durationTicks": 96,
          "midi": 53,
          "name": "F3",
          "ticks": 231935,
          "time": 233.80497593750002,
          "velocity": 0.2440944881889764
        },
        {
          "duration": 0.09677399999998215,
          "durationTicks": 96,
          "midi": 56,
          "name": "G#3",
          "ticks": 232138,
          "time": 234.009612625,
          "velocity": 0.2047244094488189
        },
        {
          "duration": 0.09677399999998215,
          "durationTicks": 96,
          "midi": 60,
          "name": "C4",
          "ticks": 232138,
          "time": 234.009612625,
          "velocity": 0.2440944881889764
        },
        {
          "duration": 0.09677399999998215,
          "durationTicks": 96,
          "midi": 48,
          "name": "C3",
          "ticks": 232329,
          "time": 234.2021525625,
          "velocity": 0.2283464566929134
        },
        {
          "duration": 0.09677399999998215,
          "durationTicks": 96,
          "midi": 56,
          "name": "G#3",
          "ticks": 232518,
          "time": 234.392676375,
          "velocity": 0.2047244094488189
        },
        {
          "duration": 0.09677399999998215,
          "durationTicks": 96,
          "midi": 60,
          "name": "C4",
          "ticks": 232518,
          "time": 234.392676375,
          "velocity": 0.2440944881889764
        },
        {
          "duration": 0.09677399999998215,
          "durationTicks": 96,
          "midi": 53,
          "name": "F3",
          "ticks": 232709,
          "time": 234.58521631250002,
          "velocity": 0.23622047244094488
        },
        {
          "duration": 0.09677400000001057,
          "durationTicks": 96,
          "midi": 56,
          "name": "G#3",
          "ticks": 232900,
          "time": 234.77775624999998,
          "velocity": 0.2047244094488189
        },
        {
          "duration": 0.09677400000001057,
          "durationTicks": 96,
          "midi": 60,
          "name": "C4",
          "ticks": 232900,
          "time": 234.77775624999998,
          "velocity": 0.2440944881889764
        },
        {
          "duration": 0.09677399999998215,
          "durationTicks": 96,
          "midi": 48,
          "name": "C3",
          "ticks": 233090,
          "time": 234.96928812500002,
          "velocity": 0.2283464566929134
        },
        {
          "duration": 0.09677399999998215,
          "durationTicks": 96,
          "midi": 56,
          "name": "G#3",
          "ticks": 233279,
          "time": 235.15981193750002,
          "velocity": 0.2047244094488189
        },
        {
          "duration": 0.09677399999998215,
          "durationTicks": 96,
          "midi": 60,
          "name": "C4",
          "ticks": 233279,
          "time": 235.15981193750002,
          "velocity": 0.2440944881889764
        },
        {
          "duration": 0.09677399999998215,
          "durationTicks": 96,
          "midi": 46,
          "name": "A#2",
          "ticks": 233471,
          "time": 235.35335993750002,
          "velocity": 0.2440944881889764
        },
        {
          "duration": 0.09677399999998215,
          "durationTicks": 96,
          "midi": 50,
          "name": "D3",
          "ticks": 233674,
          "time": 235.557996625,
          "velocity": 0.2047244094488189
        },
        {
          "duration": 0.09677399999998215,
          "durationTicks": 96,
          "midi": 53,
          "name": "F3",
          "ticks": 233674,
          "time": 235.557996625,
          "velocity": 0.2440944881889764
        },
        {
          "duration": 0.09677399999998215,
          "durationTicks": 96,
          "midi": 41,
          "name": "F2",
          "ticks": 233865,
          "time": 235.7505365625,
          "velocity": 0.2283464566929134
        },
        {
          "duration": 0.09677399999998215,
          "durationTicks": 96,
          "midi": 50,
          "name": "D3",
          "ticks": 234054,
          "time": 235.941060375,
          "velocity": 0.2047244094488189
        },
        {
          "duration": 0.09677399999998215,
          "durationTicks": 96,
          "midi": 53,
          "name": "F3",
          "ticks": 234054,
          "time": 235.941060375,
          "velocity": 0.2440944881889764
        },
        {
          "duration": 0.09677399999998215,
          "durationTicks": 96,
          "midi": 46,
          "name": "A#2",
          "ticks": 234245,
          "time": 236.13360031250002,
          "velocity": 0.23622047244094488
        },
        {
          "duration": 0.09677400000001057,
          "durationTicks": 96,
          "midi": 50,
          "name": "D3",
          "ticks": 234436,
          "time": 236.32614024999998,
          "velocity": 0.2047244094488189
        },
        {
          "duration": 0.09677400000001057,
          "durationTicks": 96,
          "midi": 53,
          "name": "F3",
          "ticks": 234436,
          "time": 236.32614024999998,
          "velocity": 0.2440944881889764
        },
        {
          "duration": 0.09677399999998215,
          "durationTicks": 96,
          "midi": 41,
          "name": "F2",
          "ticks": 234626,
          "time": 236.51767212500002,
          "velocity": 0.2283464566929134
        },
        {
          "duration": 0.09677399999998215,
          "durationTicks": 96,
          "midi": 50,
          "name": "D3",
          "ticks": 234815,
          "time": 236.70819593750002,
          "velocity": 0.2047244094488189
        },
        {
          "duration": 0.09677399999998215,
          "durationTicks": 96,
          "midi": 53,
          "name": "F3",
          "ticks": 234815,
          "time": 236.70819593750002,
          "velocity": 0.2440944881889764
        },
        {
          "duration": 0.09677400000001057,
          "durationTicks": 96,
          "midi": 44,
          "name": "G#2",
          "ticks": 235007,
          "time": 236.90174393750002,
          "velocity": 0.2440944881889764
        },
        {
          "duration": 0.09677400000001057,
          "durationTicks": 96,
          "midi": 48,
          "name": "C3",
          "ticks": 235210,
          "time": 237.10638062499999,
          "velocity": 0.2047244094488189
        },
        {
          "duration": 0.09677400000001057,
          "durationTicks": 96,
          "midi": 51,
          "name": "D#3",
          "ticks": 235210,
          "time": 237.10638062499999,
          "velocity": 0.2440944881889764
        },
        {
          "duration": 0.09677399999998215,
          "durationTicks": 96,
          "midi": 39,
          "name": "D#2",
          "ticks": 235401,
          "time": 237.2989205625,
          "velocity": 0.2283464566929134
        },
        {
          "duration": 0.09677399999998215,
          "durationTicks": 96,
          "midi": 48,
          "name": "C3",
          "ticks": 235590,
          "time": 237.489444375,
          "velocity": 0.2047244094488189
        },
        {
          "duration": 0.09677399999998215,
          "durationTicks": 96,
          "midi": 51,
          "name": "D#3",
          "ticks": 235590,
          "time": 237.489444375,
          "velocity": 0.2440944881889764
        },
        {
          "duration": 0.09677399999998215,
          "durationTicks": 96,
          "midi": 43,
          "name": "G2",
          "ticks": 235781,
          "time": 237.68198431250002,
          "velocity": 0.23622047244094488
        },
        {
          "duration": 0.09677400000001057,
          "durationTicks": 96,
          "midi": 47,
          "name": "B2",
          "ticks": 235972,
          "time": 237.87452424999998,
          "velocity": 0.2047244094488189
        },
        {
          "duration": 0.09677400000001057,
          "durationTicks": 96,
          "midi": 50,
          "name": "D3",
          "ticks": 235972,
          "time": 237.87452424999998,
          "velocity": 0.2440944881889764
        },
        {
          "duration": 0.09677399999998215,
          "durationTicks": 96,
          "midi": 38,
          "name": "D2",
          "ticks": 236162,
          "time": 238.06605612500002,
          "velocity": 0.2283464566929134
        },
        {
          "duration": 0.09677399999998215,
          "durationTicks": 96,
          "midi": 47,
          "name": "B2",
          "ticks": 236351,
          "time": 238.25657993750002,
          "velocity": 0.2047244094488189
        },
        {
          "duration": 0.09677399999998215,
          "durationTicks": 96,
          "midi": 50,
          "name": "D3",
          "ticks": 236351,
          "time": 238.25657993750002,
          "velocity": 0.2440944881889764
        },
        {
          "duration": 0.09677400000001057,
          "durationTicks": 96,
          "midi": 44,
          "name": "G#2",
          "ticks": 236543,
          "time": 238.4501279375,
          "velocity": 0.2440944881889764
        },
        {
          "duration": 0.09677400000001057,
          "durationTicks": 96,
          "midi": 48,
          "name": "C3",
          "ticks": 236746,
          "time": 238.65476462499998,
          "velocity": 0.2047244094488189
        },
        {
          "duration": 0.09677400000001057,
          "durationTicks": 96,
          "midi": 51,
          "name": "D#3",
          "ticks": 236746,
          "time": 238.65476462499998,
          "velocity": 0.2440944881889764
        },
        {
          "duration": 0.09677400000001057,
          "durationTicks": 96,
          "midi": 39,
          "name": "D#2",
          "ticks": 236937,
          "time": 238.8473045625,
          "velocity": 0.2283464566929134
        },
        {
          "duration": 0.09677399999998215,
          "durationTicks": 96,
          "midi": 48,
          "name": "C3",
          "ticks": 237126,
          "time": 239.037828375,
          "velocity": 0.2047244094488189
        },
        {
          "duration": 0.09677399999998215,
          "durationTicks": 96,
          "midi": 51,
          "name": "D#3",
          "ticks": 237126,
          "time": 239.037828375,
          "velocity": 0.2440944881889764
        },
        {
          "duration": 0.09677399999998215,
          "durationTicks": 96,
          "midi": 44,
          "name": "G#2",
          "ticks": 237317,
          "time": 239.23036831250002,
          "velocity": 0.23622047244094488
        },
        {
          "duration": 0.09677400000001057,
          "durationTicks": 96,
          "midi": 48,
          "name": "C3",
          "ticks": 237508,
          "time": 239.42290824999998,
          "velocity": 0.2047244094488189
        },
        {
          "duration": 0.09677400000001057,
          "durationTicks": 96,
          "midi": 51,
          "name": "D#3",
          "ticks": 237508,
          "time": 239.42290824999998,
          "velocity": 0.2440944881889764
        },
        {
          "duration": 0.09677399999998215,
          "durationTicks": 96,
          "midi": 39,
          "name": "D#2",
          "ticks": 237698,
          "time": 239.61444012500002,
          "velocity": 0.2283464566929134
        },
        {
          "duration": 0.09677399999998215,
          "durationTicks": 96,
          "midi": 48,
          "name": "C3",
          "ticks": 237887,
          "time": 239.80496393750002,
          "velocity": 0.2047244094488189
        },
        {
          "duration": 0.09677399999998215,
          "durationTicks": 96,
          "midi": 51,
          "name": "D#3",
          "ticks": 237887,
          "time": 239.80496393750002,
          "velocity": 0.2440944881889764
        },
        {
          "duration": 0.09677400000001057,
          "durationTicks": 96,
          "midi": 53,
          "name": "F3",
          "ticks": 238079,
          "time": 239.9985119375,
          "velocity": 0.2440944881889764
        },
        {
          "duration": 0.09677400000001057,
          "durationTicks": 96,
          "midi": 56,
          "name": "G#3",
          "ticks": 238282,
          "time": 240.20314862499998,
          "velocity": 0.2047244094488189
        },
        {
          "duration": 0.09677400000001057,
          "durationTicks": 96,
          "midi": 60,
          "name": "C4",
          "ticks": 238282,
          "time": 240.20314862499998,
          "velocity": 0.2440944881889764
        },
        {
          "duration": 0.09677400000001057,
          "durationTicks": 96,
          "midi": 48,
          "name": "C3",
          "ticks": 238473,
          "time": 240.3956885625,
          "velocity": 0.2283464566929134
        },
        {
          "duration": 0.09677399999998215,
          "durationTicks": 96,
          "midi": 56,
          "name": "G#3",
          "ticks": 238662,
          "time": 240.586212375,
          "velocity": 0.2047244094488189
        },
        {
          "duration": 0.09677399999998215,
          "durationTicks": 96,
          "midi": 60,
          "name": "C4",
          "ticks": 238662,
          "time": 240.586212375,
          "velocity": 0.2440944881889764
        },
        {
          "duration": 0.09677399999998215,
          "durationTicks": 96,
          "midi": 53,
          "name": "F3",
          "ticks": 238853,
          "time": 240.77875231250002,
          "velocity": 0.23622047244094488
        },
        {
          "duration": 0.09677400000001057,
          "durationTicks": 96,
          "midi": 56,
          "name": "G#3",
          "ticks": 239044,
          "time": 240.97129224999998,
          "velocity": 0.2047244094488189
        },
        {
          "duration": 0.09677400000001057,
          "durationTicks": 96,
          "midi": 60,
          "name": "C4",
          "ticks": 239044,
          "time": 240.97129224999998,
          "velocity": 0.2440944881889764
        },
        {
          "duration": 0.09677400000001057,
          "durationTicks": 96,
          "midi": 48,
          "name": "C3",
          "ticks": 239234,
          "time": 241.16282412500001,
          "velocity": 0.2283464566929134
        },
        {
          "duration": 0.09677399999998215,
          "durationTicks": 96,
          "midi": 56,
          "name": "G#3",
          "ticks": 239423,
          "time": 241.35334793750002,
          "velocity": 0.2047244094488189
        },
        {
          "duration": 0.09677399999998215,
          "durationTicks": 96,
          "midi": 60,
          "name": "C4",
          "ticks": 239423,
          "time": 241.35334793750002,
          "velocity": 0.2440944881889764
        },
        {
          "duration": 0.09677400000001057,
          "durationTicks": 96,
          "midi": 46,
          "name": "A#2",
          "ticks": 239615,
          "time": 241.5468959375,
          "velocity": 0.2440944881889764
        },
        {
          "duration": 0.09677400000001057,
          "durationTicks": 96,
          "midi": 50,
          "name": "D3",
          "ticks": 239818,
          "time": 241.75153262499998,
          "velocity": 0.2047244094488189
        },
        {
          "duration": 0.09677400000001057,
          "durationTicks": 96,
          "midi": 53,
          "name": "F3",
          "ticks": 239818,
          "time": 241.75153262499998,
          "velocity": 0.2440944881889764
        },
        {
          "duration": 0.09677400000001057,
          "durationTicks": 96,
          "midi": 41,
          "name": "F2",
          "ticks": 240009,
          "time": 241.9440725625,
          "velocity": 0.2283464566929134
        },
        {
          "duration": 0.09677399999998215,
          "durationTicks": 96,
          "midi": 50,
          "name": "D3",
          "ticks": 240198,
          "time": 242.134596375,
          "velocity": 0.2047244094488189
        },
        {
          "duration": 0.09677399999998215,
          "durationTicks": 96,
          "midi": 53,
          "name": "F3",
          "ticks": 240198,
          "time": 242.134596375,
          "velocity": 0.2440944881889764
        },
        {
          "duration": 0.09677399999998215,
          "durationTicks": 96,
          "midi": 46,
          "name": "A#2",
          "ticks": 240389,
          "time": 242.32713631250002,
          "velocity": 0.23622047244094488
        },
        {
          "duration": 0.09677400000001057,
          "durationTicks": 96,
          "midi": 50,
          "name": "D3",
          "ticks": 240580,
          "time": 242.51967624999997,
          "velocity": 0.2047244094488189
        },
        {
          "duration": 0.09677400000001057,
          "durationTicks": 96,
          "midi": 53,
          "name": "F3",
          "ticks": 240580,
          "time": 242.51967624999997,
          "velocity": 0.2440944881889764
        },
        {
          "duration": 0.09677400000001057,
          "durationTicks": 96,
          "midi": 41,
          "name": "F2",
          "ticks": 240770,
          "time": 242.711208125,
          "velocity": 0.2283464566929134
        },
        {
          "duration": 0.09677399999998215,
          "durationTicks": 96,
          "midi": 50,
          "name": "D3",
          "ticks": 240959,
          "time": 242.90173193750002,
          "velocity": 0.2047244094488189
        },
        {
          "duration": 0.09677399999998215,
          "durationTicks": 96,
          "midi": 53,
          "name": "F3",
          "ticks": 240959,
          "time": 242.90173193750002,
          "velocity": 0.2440944881889764
        },
        {
          "duration": 0.19354799999999273,
          "durationTicks": 192,
          "midi": 55,
          "name": "G3",
          "ticks": 241151,
          "time": 243.0952799375,
          "velocity": 0.2755905511811024
        },
        {
          "duration": 0.19354799999999273,
          "durationTicks": 192,
          "midi": 31,
          "name": "G1",
          "ticks": 241151,
          "time": 243.0952799375,
          "velocity": 0.2677165354330709
        },
        {
          "duration": 0.19354799999999273,
          "durationTicks": 192,
          "midi": 43,
          "name": "G2",
          "ticks": 241151,
          "time": 243.0952799375,
          "velocity": 0.3228346456692913
        },
        {
          "duration": 0.19354799999999273,
          "durationTicks": 192,
          "midi": 56,
          "name": "G#3",
          "ticks": 241545,
          "time": 243.4924565625,
          "velocity": 0.2677165354330709
        },
        {
          "duration": 0.19354799999999273,
          "durationTicks": 192,
          "midi": 32,
          "name": "G#1",
          "ticks": 241545,
          "time": 243.4924565625,
          "velocity": 0.25984251968503935
        },
        {
          "duration": 0.19354799999999273,
          "durationTicks": 192,
          "midi": 44,
          "name": "G#2",
          "ticks": 241545,
          "time": 243.4924565625,
          "velocity": 0.30708661417322836
        },
        {
          "duration": 0.19354799999999273,
          "durationTicks": 192,
          "midi": 55,
          "name": "G3",
          "ticks": 241925,
          "time": 243.87552031250002,
          "velocity": 0.2755905511811024
        },
        {
          "duration": 0.19354799999999273,
          "durationTicks": 192,
          "midi": 31,
          "name": "G1",
          "ticks": 241925,
          "time": 243.87552031250002,
          "velocity": 0.25984251968503935
        },
        {
          "duration": 0.19354799999999273,
          "durationTicks": 192,
          "midi": 43,
          "name": "G2",
          "ticks": 241925,
          "time": 243.87552031250002,
          "velocity": 0.31496062992125984
        },
        {
          "duration": 0.19354799999999273,
          "durationTicks": 192,
          "midi": 56,
          "name": "G#3",
          "ticks": 242306,
          "time": 244.259592125,
          "velocity": 0.2677165354330709
        },
        {
          "duration": 0.19354799999999273,
          "durationTicks": 192,
          "midi": 32,
          "name": "G#1",
          "ticks": 242306,
          "time": 244.259592125,
          "velocity": 0.25984251968503935
        },
        {
          "duration": 0.19354799999999273,
          "durationTicks": 192,
          "midi": 44,
          "name": "G#2",
          "ticks": 242306,
          "time": 244.259592125,
          "velocity": 0.30708661417322836
        }
      ],
      "endOfTrackTicks": 242498
    },
    {
      "channel": 9,
      "controlChanges": {},
      "pitchBends": [],
      "instrument": {
        "family": "drums",
        "number": 0,
        "name": "standard kit"
      },
      "name": "Drum Kit",
      "notes": [
        {
          "duration": 0.096774,
          "durationTicks": 96,
          "midi": 38,
          "name": "D2",
          "ticks": 0,
          "time": 0,
          "velocity": 0.3937007874015748
        },
        {
          "duration": 0.09677400000000003,
          "durationTicks": 96,
          "midi": 36,
          "name": "C2",
          "ticks": 384,
          "time": 0.387096,
          "velocity": 0.3937007874015748
        },
        {
          "duration": 0.09677399999999992,
          "durationTicks": 96,
          "midi": 36,
          "name": "C2",
          "ticks": 480,
          "time": 0.48387,
          "velocity": 0.3937007874015748
        },
        {
          "duration": 0.09677400000000003,
          "durationTicks": 96,
          "midi": 36,
          "name": "C2",
          "ticks": 576,
          "time": 0.5806439999999999,
          "velocity": 0.3937007874015748
        },
        {
          "duration": 0.09677400000000003,
          "durationTicks": 96,
          "midi": 36,
          "name": "C2",
          "ticks": 672,
          "time": 0.677418,
          "velocity": 0.3937007874015748
        },
        {
          "duration": 0.09677400000000003,
          "durationTicks": 96,
          "midi": 36,
          "name": "C2",
          "ticks": 768,
          "time": 0.774192,
          "velocity": 0.3937007874015748
        },
        {
          "duration": 0.09677399999999992,
          "durationTicks": 96,
          "midi": 36,
          "name": "C2",
          "ticks": 960,
          "time": 0.96774,
          "velocity": 0.3937007874015748
        },
        {
          "duration": 0.09677400000000014,
          "durationTicks": 96,
          "midi": 49,
          "name": "C#3",
          "ticks": 1152,
          "time": 1.1612879999999999,
          "velocity": 0.3937007874015748
        },
        {
          "duration": 0.09677399999999992,
          "durationTicks": 96,
          "midi": 36,
          "name": "C2",
          "ticks": 1536,
          "time": 1.548384,
          "velocity": 0.3937007874015748
        },
        {
          "duration": 0.09677399999999992,
          "durationTicks": 96,
          "midi": 38,
          "name": "D2",
          "ticks": 1728,
          "time": 1.741932,
          "velocity": 0.3937007874015748
        },
        {
          "duration": 0.09677399999999992,
          "durationTicks": 96,
          "midi": 36,
          "name": "C2",
          "ticks": 1920,
          "time": 1.93548,
          "velocity": 0.3937007874015748
        },
        {
          "duration": 0.09677399999999992,
          "durationTicks": 96,
          "midi": 38,
          "name": "D2",
          "ticks": 2112,
          "time": 2.129028,
          "velocity": 0.3937007874015748
        },
        {
          "duration": 0.09677400000000036,
          "durationTicks": 96,
          "midi": 36,
          "name": "C2",
          "ticks": 2304,
          "time": 2.3225759999999998,
          "velocity": 0.3937007874015748
        },
        {
          "duration": 0.09677399999999992,
          "durationTicks": 96,
          "midi": 38,
          "name": "D2",
          "ticks": 2496,
          "time": 2.516124,
          "velocity": 0.3937007874015748
        },
        {
          "duration": 0.09677399999999992,
          "durationTicks": 96,
          "midi": 36,
          "name": "C2",
          "ticks": 2688,
          "time": 2.709672,
          "velocity": 0.3937007874015748
        },
        {
          "duration": 0.09677399999999992,
          "durationTicks": 96,
          "midi": 38,
          "name": "D2",
          "ticks": 2880,
          "time": 2.90322,
          "velocity": 0.3937007874015748
        },
        {
          "duration": 0.09677399999999992,
          "durationTicks": 96,
          "midi": 36,
          "name": "C2",
          "ticks": 3072,
          "time": 3.096768,
          "velocity": 0.3937007874015748
        },
        {
          "duration": 0.09677400000000036,
          "durationTicks": 96,
          "midi": 38,
          "name": "D2",
          "ticks": 3264,
          "time": 3.290316,
          "velocity": 0.3937007874015748
        },
        {
          "duration": 0.09677399999999992,
          "durationTicks": 96,
          "midi": 36,
          "name": "C2",
          "ticks": 3456,
          "time": 3.483864,
          "velocity": 0.3937007874015748
        },
        {
          "duration": 0.09677399999999992,
          "durationTicks": 96,
          "midi": 38,
          "name": "D2",
          "ticks": 3648,
          "time": 3.677412,
          "velocity": 0.3937007874015748
        },
        {
          "duration": 0.09677399999999992,
          "durationTicks": 96,
          "midi": 36,
          "name": "C2",
          "ticks": 3840,
          "time": 3.87096,
          "velocity": 0.3937007874015748
        },
        {
          "duration": 0.09677399999999992,
          "durationTicks": 96,
          "midi": 38,
          "name": "D2",
          "ticks": 4032,
          "time": 4.064508,
          "velocity": 0.3937007874015748
        },
        {
          "duration": 0.09677399999999992,
          "durationTicks": 96,
          "midi": 36,
          "name": "C2",
          "ticks": 4224,
          "time": 4.258056,
          "velocity": 0.3937007874015748
        },
        {
          "duration": 0.09677399999999992,
          "durationTicks": 96,
          "midi": 38,
          "name": "D2",
          "ticks": 4416,
          "time": 4.451604,
          "velocity": 0.3937007874015748
        },
        {
          "duration": 0.0967740000000008,
          "durationTicks": 96,
          "midi": 36,
          "name": "C2",
          "ticks": 4608,
          "time": 4.6451519999999995,
          "velocity": 0.3937007874015748
        },
        {
          "duration": 0.09677399999999992,
          "durationTicks": 96,
          "midi": 38,
          "name": "D2",
          "ticks": 4800,
          "time": 4.8387,
          "velocity": 0.3937007874015748
        },
        {
          "duration": 0.09677399999999992,
          "durationTicks": 96,
          "midi": 36,
          "name": "C2",
          "ticks": 4992,
          "time": 5.032248,
          "velocity": 0.3937007874015748
        },
        {
          "duration": 0.09677399999999992,
          "durationTicks": 96,
          "midi": 38,
          "name": "D2",
          "ticks": 5184,
          "time": 5.225796,
          "velocity": 0.3937007874015748
        },
        {
          "duration": 0.09677399999999992,
          "durationTicks": 96,
          "midi": 36,
          "name": "C2",
          "ticks": 5376,
          "time": 5.419344,
          "velocity": 0.3937007874015748
        },
        {
          "duration": 0.0967740000000008,
          "durationTicks": 96,
          "midi": 38,
          "name": "D2",
          "ticks": 5568,
          "time": 5.6128919999999995,
          "velocity": 0.3937007874015748
        },
        {
          "duration": 0.09677399999999992,
          "durationTicks": 96,
          "midi": 36,
          "name": "C2",
          "ticks": 5760,
          "time": 5.80644,
          "velocity": 0.3937007874015748
        },
        {
          "duration": 0.09677399999999992,
          "durationTicks": 96,
          "midi": 38,
          "name": "D2",
          "ticks": 5952,
          "time": 5.999988,
          "velocity": 0.3937007874015748
        },
        {
          "duration": 0.09677399999999992,
          "durationTicks": 96,
          "midi": 36,
          "name": "C2",
          "ticks": 6144,
          "time": 6.193536,
          "velocity": 0.3937007874015748
        },
        {
          "duration": 0.09677399999999992,
          "durationTicks": 96,
          "midi": 38,
          "name": "D2",
          "ticks": 6336,
          "time": 6.387084,
          "velocity": 0.3937007874015748
        },
        {
          "duration": 0.09677399999999992,
          "durationTicks": 96,
          "midi": 36,
          "name": "C2",
          "ticks": 6528,
          "time": 6.580632,
          "velocity": 0.3937007874015748
        },
        {
          "duration": 0.09677399999999992,
          "durationTicks": 96,
          "midi": 38,
          "name": "D2",
          "ticks": 6720,
          "time": 6.77418,
          "velocity": 0.3937007874015748
        },
        {
          "duration": 0.09677399999999992,
          "durationTicks": 96,
          "midi": 36,
          "name": "C2",
          "ticks": 6912,
          "time": 6.967728,
          "velocity": 0.3937007874015748
        },
        {
          "duration": 0.09677399999999992,
          "durationTicks": 96,
          "midi": 38,
          "name": "D2",
          "ticks": 7104,
          "time": 7.161276,
          "velocity": 0.3937007874015748
        },
        {
          "duration": 0.09677399999999992,
          "durationTicks": 96,
          "midi": 36,
          "name": "C2",
          "ticks": 7296,
          "time": 7.354824,
          "velocity": 0.3937007874015748
        },
        {
          "duration": 0.09677399999999992,
          "durationTicks": 96,
          "midi": 38,
          "name": "D2",
          "ticks": 7488,
          "time": 7.548372,
          "velocity": 0.3937007874015748
        },
        {
          "duration": 0.09677399999999992,
          "durationTicks": 96,
          "midi": 36,
          "name": "C2",
          "ticks": 7680,
          "time": 7.74192,
          "velocity": 0.3937007874015748
        },
        {
          "duration": 0.09677399999999992,
          "durationTicks": 96,
          "midi": 38,
          "name": "D2",
          "ticks": 7872,
          "time": 7.935468,
          "velocity": 0.3937007874015748
        },
        {
          "duration": 0.09677399999999992,
          "durationTicks": 96,
          "midi": 36,
          "name": "C2",
          "ticks": 8064,
          "time": 8.129016,
          "velocity": 0.3937007874015748
        },
        {
          "duration": 0.09677399999999992,
          "durationTicks": 96,
          "midi": 38,
          "name": "D2",
          "ticks": 8256,
          "time": 8.322564,
          "velocity": 0.3937007874015748
        },
        {
          "duration": 0.09677399999999992,
          "durationTicks": 96,
          "midi": 36,
          "name": "C2",
          "ticks": 8448,
          "time": 8.516112,
          "velocity": 0.3937007874015748
        },
        {
          "duration": 0.09677399999999992,
          "durationTicks": 96,
          "midi": 38,
          "name": "D2",
          "ticks": 8640,
          "time": 8.70966,
          "velocity": 0.3937007874015748
        },
        {
          "duration": 0.09677399999999992,
          "durationTicks": 96,
          "midi": 36,
          "name": "C2",
          "ticks": 8832,
          "time": 8.903208,
          "velocity": 0.3937007874015748
        },
        {
          "duration": 0.09677399999999992,
          "durationTicks": 96,
          "midi": 38,
          "name": "D2",
          "ticks": 9024,
          "time": 9.096756,
          "velocity": 0.3937007874015748
        },
        {
          "duration": 0.09677400000000169,
          "durationTicks": 96,
          "midi": 36,
          "name": "C2",
          "ticks": 9216,
          "time": 9.290303999999999,
          "velocity": 0.3937007874015748
        },
        {
          "duration": 0.09677399999999992,
          "durationTicks": 96,
          "midi": 38,
          "name": "D2",
          "ticks": 9408,
          "time": 9.483852,
          "velocity": 0.3937007874015748
        },
        {
          "duration": 0.09677399999999992,
          "durationTicks": 96,
          "midi": 36,
          "name": "C2",
          "ticks": 9600,
          "time": 9.6774,
          "velocity": 0.3937007874015748
        },
        {
          "duration": 0.09677399999999992,
          "durationTicks": 96,
          "midi": 38,
          "name": "D2",
          "ticks": 9792,
          "time": 9.870948,
          "velocity": 0.3937007874015748
        },
        {
          "duration": 0.09677399999999992,
          "durationTicks": 96,
          "midi": 36,
          "name": "C2",
          "ticks": 9984,
          "time": 10.064496,
          "velocity": 0.3937007874015748
        },
        {
          "duration": 0.09677399999999992,
          "durationTicks": 96,
          "midi": 38,
          "name": "D2",
          "ticks": 10176,
          "time": 10.258044,
          "velocity": 0.3937007874015748
        },
        {
          "duration": 0.09677399999999992,
          "durationTicks": 96,
          "midi": 36,
          "name": "C2",
          "ticks": 10368,
          "time": 10.451592,
          "velocity": 0.3937007874015748
        },
        {
          "duration": 0.09677399999999992,
          "durationTicks": 96,
          "midi": 38,
          "name": "D2",
          "ticks": 10560,
          "time": 10.64514,
          "velocity": 0.3937007874015748
        },
        {
          "duration": 0.09677399999999992,
          "durationTicks": 96,
          "midi": 36,
          "name": "C2",
          "ticks": 10752,
          "time": 10.838688,
          "velocity": 0.3937007874015748
        },
        {
          "duration": 0.09677399999999992,
          "durationTicks": 96,
          "midi": 38,
          "name": "D2",
          "ticks": 10944,
          "time": 11.032236,
          "velocity": 0.3937007874015748
        },
        {
          "duration": 0.09677399999999992,
          "durationTicks": 96,
          "midi": 36,
          "name": "C2",
          "ticks": 11136,
          "time": 11.225783999999999,
          "velocity": 0.3937007874015748
        },
        {
          "duration": 0.09677399999999992,
          "durationTicks": 96,
          "midi": 38,
          "name": "D2",
          "ticks": 11328,
          "time": 11.419332,
          "velocity": 0.3937007874015748
        },
        {
          "duration": 0.09677399999999992,
          "durationTicks": 96,
          "midi": 36,
          "name": "C2",
          "ticks": 11520,
          "time": 11.61288,
          "velocity": 0.3937007874015748
        },
        {
          "duration": 0.09677399999999992,
          "durationTicks": 96,
          "midi": 38,
          "name": "D2",
          "ticks": 11712,
          "time": 11.806428,
          "velocity": 0.3937007874015748
        },
        {
          "duration": 0.09677399999999992,
          "durationTicks": 96,
          "midi": 36,
          "name": "C2",
          "ticks": 11904,
          "time": 11.999976,
          "velocity": 0.3937007874015748
        },
        {
          "duration": 0.09677399999999992,
          "durationTicks": 96,
          "midi": 38,
          "name": "D2",
          "ticks": 12096,
          "time": 12.193524,
          "velocity": 0.3937007874015748
        },
        {
          "duration": 0.09677399999999992,
          "durationTicks": 96,
          "midi": 36,
          "name": "C2",
          "ticks": 12288,
          "time": 12.387072,
          "velocity": 0.3937007874015748
        },
        {
          "duration": 0.09677399999999992,
          "durationTicks": 96,
          "midi": 38,
          "name": "D2",
          "ticks": 12480,
          "time": 12.58062,
          "velocity": 0.3937007874015748
        },
        {
          "duration": 0.09677399999999992,
          "durationTicks": 96,
          "midi": 36,
          "name": "C2",
          "ticks": 12672,
          "time": 12.774168,
          "velocity": 0.3937007874015748
        },
        {
          "duration": 0.09677399999999992,
          "durationTicks": 96,
          "midi": 38,
          "name": "D2",
          "ticks": 12864,
          "time": 12.967716,
          "velocity": 0.3937007874015748
        },
        {
          "duration": 0.09677399999999992,
          "durationTicks": 96,
          "midi": 36,
          "name": "C2",
          "ticks": 13056,
          "time": 13.161264,
          "velocity": 0.3937007874015748
        },
        {
          "duration": 0.09677400000000169,
          "durationTicks": 96,
          "midi": 38,
          "name": "D2",
          "ticks": 13248,
          "time": 13.354811999999999,
          "velocity": 0.3937007874015748
        },
        {
          "duration": 0.09677399999999992,
          "durationTicks": 96,
          "midi": 36,
          "name": "C2",
          "ticks": 13440,
          "time": 13.54836,
          "velocity": 0.3937007874015748
        },
        {
          "duration": 0.09677399999999992,
          "durationTicks": 96,
          "midi": 38,
          "name": "D2",
          "ticks": 13632,
          "time": 13.741908,
          "velocity": 0.3937007874015748
        },
        {
          "duration": 0.09677399999999992,
          "durationTicks": 96,
          "midi": 36,
          "name": "C2",
          "ticks": 13824,
          "time": 13.935456,
          "velocity": 0.3937007874015748
        },
        {
          "duration": 0.09677399999999992,
          "durationTicks": 96,
          "midi": 38,
          "name": "D2",
          "ticks": 14016,
          "time": 14.129004,
          "velocity": 0.3937007874015748
        },
        {
          "duration": 0.09677399999999992,
          "durationTicks": 96,
          "midi": 36,
          "name": "C2",
          "ticks": 14208,
          "time": 14.322552,
          "velocity": 0.3937007874015748
        },
        {
          "duration": 0.09677399999999992,
          "durationTicks": 96,
          "midi": 38,
          "name": "D2",
          "ticks": 14400,
          "time": 14.5161,
          "velocity": 0.3937007874015748
        },
        {
          "duration": 0.09677399999999992,
          "durationTicks": 96,
          "midi": 36,
          "name": "C2",
          "ticks": 14592,
          "time": 14.709648,
          "velocity": 0.3937007874015748
        },
        {
          "duration": 0.09677399999999992,
          "durationTicks": 96,
          "midi": 38,
          "name": "D2",
          "ticks": 14784,
          "time": 14.903196,
          "velocity": 0.3937007874015748
        },
        {
          "duration": 0.09677399999999992,
          "durationTicks": 96,
          "midi": 36,
          "name": "C2",
          "ticks": 14976,
          "time": 15.096744,
          "velocity": 0.3937007874015748
        },
        {
          "duration": 0.09677399999999992,
          "durationTicks": 96,
          "midi": 38,
          "name": "D2",
          "ticks": 15168,
          "time": 15.290291999999999,
          "velocity": 0.3937007874015748
        },
        {
          "duration": 0.09677399999999992,
          "durationTicks": 96,
          "midi": 36,
          "name": "C2",
          "ticks": 15360,
          "time": 15.48384,
          "velocity": 0.3937007874015748
        },
        {
          "duration": 0.09677399999999992,
          "durationTicks": 96,
          "midi": 38,
          "name": "D2",
          "ticks": 15552,
          "time": 15.677388,
          "velocity": 0.3937007874015748
        },
        {
          "duration": 0.09677399999999992,
          "durationTicks": 96,
          "midi": 36,
          "name": "C2",
          "ticks": 15744,
          "time": 15.870936,
          "velocity": 0.3937007874015748
        },
        {
          "duration": 0.09677399999999992,
          "durationTicks": 96,
          "midi": 38,
          "name": "D2",
          "ticks": 15936,
          "time": 16.064484,
          "velocity": 0.3937007874015748
        },
        {
          "duration": 0.09677399999999992,
          "durationTicks": 96,
          "midi": 36,
          "name": "C2",
          "ticks": 16128,
          "time": 16.258032,
          "velocity": 0.3937007874015748
        },
        {
          "duration": 0.09677399999999992,
          "durationTicks": 96,
          "midi": 38,
          "name": "D2",
          "ticks": 16320,
          "time": 16.45158,
          "velocity": 0.3937007874015748
        },
        {
          "duration": 0.09677399999999992,
          "durationTicks": 96,
          "midi": 36,
          "name": "C2",
          "ticks": 16512,
          "time": 16.645128,
          "velocity": 0.3937007874015748
        },
        {
          "duration": 0.09677399999999992,
          "durationTicks": 96,
          "midi": 38,
          "name": "D2",
          "ticks": 16704,
          "time": 16.838676,
          "velocity": 0.3937007874015748
        },
        {
          "duration": 0.09677399999999992,
          "durationTicks": 96,
          "midi": 36,
          "name": "C2",
          "ticks": 16896,
          "time": 17.032224,
          "velocity": 0.3937007874015748
        },
        {
          "duration": 0.09677399999999992,
          "durationTicks": 96,
          "midi": 38,
          "name": "D2",
          "ticks": 17088,
          "time": 17.225772,
          "velocity": 0.3937007874015748
        },
        {
          "duration": 0.09677399999999992,
          "durationTicks": 96,
          "midi": 36,
          "name": "C2",
          "ticks": 17280,
          "time": 17.41932,
          "velocity": 0.3937007874015748
        },
        {
          "duration": 0.09677399999999992,
          "durationTicks": 96,
          "midi": 38,
          "name": "D2",
          "ticks": 17472,
          "time": 17.612868,
          "velocity": 0.3937007874015748
        },
        {
          "duration": 0.09677399999999992,
          "durationTicks": 96,
          "midi": 36,
          "name": "C2",
          "ticks": 17664,
          "time": 17.806416,
          "velocity": 0.3937007874015748
        },
        {
          "duration": 0.09677399999999992,
          "durationTicks": 96,
          "midi": 38,
          "name": "D2",
          "ticks": 17856,
          "time": 17.999964,
          "velocity": 0.3937007874015748
        },
        {
          "duration": 0.09677399999999992,
          "durationTicks": 96,
          "midi": 36,
          "name": "C2",
          "ticks": 18048,
          "time": 18.193512,
          "velocity": 0.3937007874015748
        },
        {
          "duration": 0.09677399999999992,
          "durationTicks": 96,
          "midi": 38,
          "name": "D2",
          "ticks": 18240,
          "time": 18.387059999999998,
          "velocity": 0.3937007874015748
        },
        {
          "duration": 0.09677400000000347,
          "durationTicks": 96,
          "midi": 36,
          "name": "C2",
          "ticks": 18432,
          "time": 18.580607999999998,
          "velocity": 0.3937007874015748
        },
        {
          "duration": 0.09677399999999992,
          "durationTicks": 96,
          "midi": 38,
          "name": "D2",
          "ticks": 18624,
          "time": 18.774156,
          "velocity": 0.3937007874015748
        },
        {
          "duration": 0.09677399999999992,
          "durationTicks": 96,
          "midi": 36,
          "name": "C2",
          "ticks": 18816,
          "time": 18.967704,
          "velocity": 0.3937007874015748
        },
        {
          "duration": 0.09677399999999992,
          "durationTicks": 96,
          "midi": 38,
          "name": "D2",
          "ticks": 19008,
          "time": 19.161252,
          "velocity": 0.3937007874015748
        },
        {
          "duration": 0.09677399999999992,
          "durationTicks": 96,
          "midi": 36,
          "name": "C2",
          "ticks": 19200,
          "time": 19.3548,
          "velocity": 0.3937007874015748
        },
        {
          "duration": 0.09677399999999992,
          "durationTicks": 96,
          "midi": 38,
          "name": "D2",
          "ticks": 19392,
          "time": 19.548348,
          "velocity": 0.3937007874015748
        },
        {
          "duration": 0.09677399999999992,
          "durationTicks": 96,
          "midi": 36,
          "name": "C2",
          "ticks": 19584,
          "time": 19.741896,
          "velocity": 0.3937007874015748
        },
        {
          "duration": 0.09677399999999992,
          "durationTicks": 96,
          "midi": 38,
          "name": "D2",
          "ticks": 19776,
          "time": 19.935444,
          "velocity": 0.3937007874015748
        },
        {
          "duration": 0.09677399999999992,
          "durationTicks": 96,
          "midi": 36,
          "name": "C2",
          "ticks": 19968,
          "time": 20.128992,
          "velocity": 0.3937007874015748
        },
        {
          "duration": 0.09677399999999992,
          "durationTicks": 96,
          "midi": 38,
          "name": "D2",
          "ticks": 20160,
          "time": 20.32254,
          "velocity": 0.3937007874015748
        },
        {
          "duration": 0.09677399999999992,
          "durationTicks": 96,
          "midi": 36,
          "name": "C2",
          "ticks": 20352,
          "time": 20.516088,
          "velocity": 0.3937007874015748
        },
        {
          "duration": 0.09677399999999992,
          "durationTicks": 96,
          "midi": 38,
          "name": "D2",
          "ticks": 20544,
          "time": 20.709636,
          "velocity": 0.3937007874015748
        },
        {
          "duration": 0.09677399999999992,
          "durationTicks": 96,
          "midi": 36,
          "name": "C2",
          "ticks": 20736,
          "time": 20.903184,
          "velocity": 0.3937007874015748
        },
        {
          "duration": 0.09677399999999992,
          "durationTicks": 96,
          "midi": 38,
          "name": "D2",
          "ticks": 20928,
          "time": 21.096732,
          "velocity": 0.3937007874015748
        },
        {
          "duration": 0.09677399999999992,
          "durationTicks": 96,
          "midi": 36,
          "name": "C2",
          "ticks": 21120,
          "time": 21.29028,
          "velocity": 0.3937007874015748
        },
        {
          "duration": 0.09677399999999992,
          "durationTicks": 96,
          "midi": 38,
          "name": "D2",
          "ticks": 21312,
          "time": 21.483828,
          "velocity": 0.3937007874015748
        },
        {
          "duration": 0.09677399999999992,
          "durationTicks": 96,
          "midi": 36,
          "name": "C2",
          "ticks": 21504,
          "time": 21.677376,
          "velocity": 0.3937007874015748
        },
        {
          "duration": 0.09677399999999992,
          "durationTicks": 96,
          "midi": 38,
          "name": "D2",
          "ticks": 21696,
          "time": 21.870924,
          "velocity": 0.3937007874015748
        },
        {
          "duration": 0.09677399999999992,
          "durationTicks": 96,
          "midi": 36,
          "name": "C2",
          "ticks": 21888,
          "time": 22.064472,
          "velocity": 0.3937007874015748
        },
        {
          "duration": 0.09677399999999992,
          "durationTicks": 96,
          "midi": 38,
          "name": "D2",
          "ticks": 22080,
          "time": 22.25802,
          "velocity": 0.3937007874015748
        },
        {
          "duration": 0.09677399999999992,
          "durationTicks": 96,
          "midi": 36,
          "name": "C2",
          "ticks": 22272,
          "time": 22.451567999999998,
          "velocity": 0.3937007874015748
        },
        {
          "duration": 0.09677400000000347,
          "durationTicks": 96,
          "midi": 38,
          "name": "D2",
          "ticks": 22464,
          "time": 22.645115999999998,
          "velocity": 0.3937007874015748
        },
        {
          "duration": 0.09677399999999992,
          "durationTicks": 96,
          "midi": 36,
          "name": "C2",
          "ticks": 22656,
          "time": 22.838664,
          "velocity": 0.3937007874015748
        },
        {
          "duration": 0.09677399999999992,
          "durationTicks": 96,
          "midi": 38,
          "name": "D2",
          "ticks": 22848,
          "time": 23.032212,
          "velocity": 0.3937007874015748
        },
        {
          "duration": 0.09677399999999992,
          "durationTicks": 96,
          "midi": 36,
          "name": "C2",
          "ticks": 23040,
          "time": 23.22576,
          "velocity": 0.3937007874015748
        },
        {
          "duration": 0.09677399999999992,
          "durationTicks": 96,
          "midi": 38,
          "name": "D2",
          "ticks": 23232,
          "time": 23.419308,
          "velocity": 0.3937007874015748
        },
        {
          "duration": 0.09677399999999992,
          "durationTicks": 96,
          "midi": 36,
          "name": "C2",
          "ticks": 23424,
          "time": 23.612856,
          "velocity": 0.3937007874015748
        },
        {
          "duration": 0.09677399999999992,
          "durationTicks": 96,
          "midi": 38,
          "name": "D2",
          "ticks": 23616,
          "time": 23.806404,
          "velocity": 0.3937007874015748
        },
        {
          "duration": 0.09677399999999992,
          "durationTicks": 96,
          "midi": 36,
          "name": "C2",
          "ticks": 23808,
          "time": 23.999952,
          "velocity": 0.3937007874015748
        },
        {
          "duration": 0.09677399999999992,
          "durationTicks": 96,
          "midi": 38,
          "name": "D2",
          "ticks": 24000,
          "time": 24.1935,
          "velocity": 0.3937007874015748
        },
        {
          "duration": 0.09677399999999992,
          "durationTicks": 96,
          "midi": 36,
          "name": "C2",
          "ticks": 24192,
          "time": 24.387048,
          "velocity": 0.3937007874015748
        },
        {
          "duration": 0.09677399999999992,
          "durationTicks": 96,
          "midi": 38,
          "name": "D2",
          "ticks": 24384,
          "time": 24.580596,
          "velocity": 0.3937007874015748
        },
        {
          "duration": 0.09677399999999992,
          "durationTicks": 96,
          "midi": 36,
          "name": "C2",
          "ticks": 24576,
          "time": 24.774144,
          "velocity": 0.3937007874015748
        },
        {
          "duration": 0.09677399999999992,
          "durationTicks": 96,
          "midi": 38,
          "name": "D2",
          "ticks": 24768,
          "time": 24.967692,
          "velocity": 0.3937007874015748
        },
        {
          "duration": 0.09677399999999992,
          "durationTicks": 96,
          "midi": 36,
          "name": "C2",
          "ticks": 24960,
          "time": 25.16124,
          "velocity": 0.3937007874015748
        },
        {
          "duration": 0.09677399999999992,
          "durationTicks": 96,
          "midi": 38,
          "name": "D2",
          "ticks": 25152,
          "time": 25.354788,
          "velocity": 0.3937007874015748
        },
        {
          "duration": 0.09677399999999992,
          "durationTicks": 96,
          "midi": 36,
          "name": "C2",
          "ticks": 25344,
          "time": 25.548336,
          "velocity": 0.3937007874015748
        },
        {
          "duration": 0.09677399999999992,
          "durationTicks": 96,
          "midi": 38,
          "name": "D2",
          "ticks": 25536,
          "time": 25.741884,
          "velocity": 0.3937007874015748
        },
        {
          "duration": 0.09677399999999992,
          "durationTicks": 96,
          "midi": 36,
          "name": "C2",
          "ticks": 25728,
          "time": 25.935432,
          "velocity": 0.3937007874015748
        },
        {
          "duration": 0.09677399999999992,
          "durationTicks": 96,
          "midi": 38,
          "name": "D2",
          "ticks": 25920,
          "time": 26.12898,
          "velocity": 0.3937007874015748
        },
        {
          "duration": 0.09677399999999992,
          "durationTicks": 96,
          "midi": 36,
          "name": "C2",
          "ticks": 26112,
          "time": 26.322528,
          "velocity": 0.3937007874015748
        },
        {
          "duration": 0.09677399999999992,
          "durationTicks": 96,
          "midi": 38,
          "name": "D2",
          "ticks": 26304,
          "time": 26.516075999999998,
          "velocity": 0.3937007874015748
        },
        {
          "duration": 0.09677399999999992,
          "durationTicks": 96,
          "midi": 36,
          "name": "C2",
          "ticks": 26496,
          "time": 26.709623999999998,
          "velocity": 0.3937007874015748
        },
        {
          "duration": 0.09677399999999992,
          "durationTicks": 96,
          "midi": 38,
          "name": "D2",
          "ticks": 26688,
          "time": 26.903172,
          "velocity": 0.3937007874015748
        },
        {
          "duration": 0.09677399999999992,
          "durationTicks": 96,
          "midi": 36,
          "name": "C2",
          "ticks": 26880,
          "time": 27.09672,
          "velocity": 0.3937007874015748
        },
        {
          "duration": 0.09677399999999992,
          "durationTicks": 96,
          "midi": 38,
          "name": "D2",
          "ticks": 27072,
          "time": 27.290268,
          "velocity": 0.3937007874015748
        },
        {
          "duration": 0.09677399999999992,
          "durationTicks": 96,
          "midi": 36,
          "name": "C2",
          "ticks": 27264,
          "time": 27.483816,
          "velocity": 0.3937007874015748
        },
        {
          "duration": 0.09677399999999992,
          "durationTicks": 96,
          "midi": 38,
          "name": "D2",
          "ticks": 27456,
          "time": 27.677364,
          "velocity": 0.3937007874015748
        },
        {
          "duration": 0.09677399999999992,
          "durationTicks": 96,
          "midi": 38,
          "name": "D2",
          "ticks": 27648,
          "time": 27.870912,
          "velocity": 0.3937007874015748
        },
        {
          "duration": 0.09677399999999992,
          "durationTicks": 96,
          "midi": 36,
          "name": "C2",
          "ticks": 28032,
          "time": 28.258008,
          "velocity": 0.3937007874015748
        },
        {
          "duration": 0.09677399999999992,
          "durationTicks": 96,
          "midi": 38,
          "name": "D2",
          "ticks": 28416,
          "time": 28.645104,
          "velocity": 0.3937007874015748
        },
        {
          "duration": 0.09677399999999992,
          "durationTicks": 96,
          "midi": 36,
          "name": "C2",
          "ticks": 28800,
          "time": 29.0322,
          "velocity": 0.3937007874015748
        },
        {
          "duration": 0.09677399999999992,
          "durationTicks": 96,
          "midi": 38,
          "name": "D2",
          "ticks": 29184,
          "time": 29.419296,
          "velocity": 0.3937007874015748
        },
        {
          "duration": 0.09677399999999992,
          "durationTicks": 96,
          "midi": 36,
          "name": "C2",
          "ticks": 29376,
          "time": 29.612844,
          "velocity": 0.3937007874015748
        },
        {
          "duration": 0.09677399999999992,
          "durationTicks": 96,
          "midi": 38,
          "name": "D2",
          "ticks": 29568,
          "time": 29.806392,
          "velocity": 0.3937007874015748
        },
        {
          "duration": 0.09677399999999992,
          "durationTicks": 96,
          "midi": 36,
          "name": "C2",
          "ticks": 29760,
          "time": 29.99994,
          "velocity": 0.3937007874015748
        },
        {
          "duration": 0.09677399999999992,
          "durationTicks": 96,
          "midi": 38,
          "name": "D2",
          "ticks": 29952,
          "time": 30.193488,
          "velocity": 0.3937007874015748
        },
        {
          "duration": 0.09677399999999992,
          "durationTicks": 96,
          "midi": 36,
          "name": "C2",
          "ticks": 30144,
          "time": 30.387036,
          "velocity": 0.3937007874015748
        },
        {
          "duration": 0.09677399999999992,
          "durationTicks": 96,
          "midi": 38,
          "name": "D2",
          "ticks": 30336,
          "time": 30.580583999999998,
          "velocity": 0.3937007874015748
        },
        {
          "duration": 0.09677399999999992,
          "durationTicks": 96,
          "midi": 36,
          "name": "C2",
          "ticks": 30528,
          "time": 30.774131999999998,
          "velocity": 0.3937007874015748
        },
        {
          "duration": 0.09677399999999992,
          "durationTicks": 96,
          "midi": 38,
          "name": "D2",
          "ticks": 30720,
          "time": 30.96768,
          "velocity": 0.3937007874015748
        },
        {
          "duration": 0.09677399999999992,
          "durationTicks": 96,
          "midi": 36,
          "name": "C2",
          "ticks": 30816,
          "time": 31.064454,
          "velocity": 0.3937007874015748
        },
        {
          "duration": 0.09677399999999992,
          "durationTicks": 96,
          "midi": 38,
          "name": "D2",
          "ticks": 30912,
          "time": 31.161228,
          "velocity": 0.3937007874015748
        },
        {
          "duration": 0.09677399999999992,
          "durationTicks": 96,
          "midi": 36,
          "name": "C2",
          "ticks": 31008,
          "time": 31.258002,
          "velocity": 0.3937007874015748
        },
        {
          "duration": 0.09677399999999992,
          "durationTicks": 96,
          "midi": 38,
          "name": "D2",
          "ticks": 31104,
          "time": 31.354776,
          "velocity": 0.3937007874015748
        },
        {
          "duration": 0.09677399999999992,
          "durationTicks": 96,
          "midi": 36,
          "name": "C2",
          "ticks": 31200,
          "time": 31.45155,
          "velocity": 0.3937007874015748
        },
        {
          "duration": 0.09677399999999992,
          "durationTicks": 96,
          "midi": 38,
          "name": "D2",
          "ticks": 31296,
          "time": 31.548324,
          "velocity": 0.3937007874015748
        },
        {
          "duration": 0.09677399999999992,
          "durationTicks": 96,
          "midi": 36,
          "name": "C2",
          "ticks": 31392,
          "time": 31.645098,
          "velocity": 0.3937007874015748
        },
        {
          "duration": 0.09677399999999992,
          "durationTicks": 96,
          "midi": 38,
          "name": "D2",
          "ticks": 31488,
          "time": 31.741872,
          "velocity": 0.3937007874015748
        },
        {
          "duration": 0.09677399999999992,
          "durationTicks": 96,
          "midi": 36,
          "name": "C2",
          "ticks": 31584,
          "time": 31.838646,
          "velocity": 0.3937007874015748
        },
        {
          "duration": 0.09677399999999636,
          "durationTicks": 96,
          "midi": 38,
          "name": "D2",
          "ticks": 31680,
          "time": 31.93542,
          "velocity": 0.3937007874015748
        },
        {
          "duration": 0.09677400000000347,
          "durationTicks": 96,
          "midi": 36,
          "name": "C2",
          "ticks": 31776,
          "time": 32.032194,
          "velocity": 0.3937007874015748
        },
        {
          "duration": 0.09677399999999636,
          "durationTicks": 96,
          "midi": 38,
          "name": "D2",
          "ticks": 31872,
          "time": 32.128968,
          "velocity": 0.3937007874015748
        },
        {
          "duration": 0.09677400000000347,
          "durationTicks": 96,
          "midi": 36,
          "name": "C2",
          "ticks": 31968,
          "time": 32.225742,
          "velocity": 0.3937007874015748
        },
        {
          "duration": 0.09677399999999636,
          "durationTicks": 96,
          "midi": 38,
          "name": "D2",
          "ticks": 32064,
          "time": 32.322516,
          "velocity": 0.3937007874015748
        },
        {
          "duration": 0.09677400000000347,
          "durationTicks": 96,
          "midi": 36,
          "name": "C2",
          "ticks": 32160,
          "time": 32.41929,
          "velocity": 0.3937007874015748
        },
        {
          "duration": 0.09677399999999636,
          "durationTicks": 96,
          "midi": 36,
          "name": "C2",
          "ticks": 32256,
          "time": 32.516064,
          "velocity": 0.3937007874015748
        },
        {
          "duration": 0.09677399999999636,
          "durationTicks": 96,
          "midi": 38,
          "name": "D2",
          "ticks": 32448,
          "time": 32.709612,
          "velocity": 0.3937007874015748
        },
        {
          "duration": 0.09677399999999636,
          "durationTicks": 96,
          "midi": 36,
          "name": "C2",
          "ticks": 32640,
          "time": 32.90316,
          "velocity": 0.3937007874015748
        },
        {
          "duration": 0.09677400000000347,
          "durationTicks": 96,
          "midi": 38,
          "name": "D2",
          "ticks": 32832,
          "time": 33.096708,
          "velocity": 0.3937007874015748
        },
        {
          "duration": 0.09677400000000347,
          "durationTicks": 96,
          "midi": 36,
          "name": "C2",
          "ticks": 33024,
          "time": 33.290256,
          "velocity": 0.3937007874015748
        },
        {
          "duration": 0.09677400000000347,
          "durationTicks": 96,
          "midi": 38,
          "name": "D2",
          "ticks": 33216,
          "time": 33.483804,
          "velocity": 0.3937007874015748
        },
        {
          "duration": 0.09677400000000347,
          "durationTicks": 96,
          "midi": 36,
          "name": "C2",
          "ticks": 33408,
          "time": 33.677352,
          "velocity": 0.3937007874015748
        },
        {
          "duration": 0.09677400000000347,
          "durationTicks": 96,
          "midi": 38,
          "name": "D2",
          "ticks": 33600,
          "time": 33.8709,
          "velocity": 0.3937007874015748
        },
        {
          "duration": 0.09677400000000347,
          "durationTicks": 96,
          "midi": 36,
          "name": "C2",
          "ticks": 33792,
          "time": 34.064448,
          "velocity": 0.3937007874015748
        },
        {
          "duration": 0.09677400000000347,
          "durationTicks": 96,
          "midi": 38,
          "name": "D2",
          "ticks": 33984,
          "time": 34.257996,
          "velocity": 0.3937007874015748
        },
        {
          "duration": 0.09677400000000347,
          "durationTicks": 96,
          "midi": 36,
          "name": "C2",
          "ticks": 34176,
          "time": 34.451544,
          "velocity": 0.3937007874015748
        },
        {
          "duration": 0.09677400000000347,
          "durationTicks": 96,
          "midi": 38,
          "name": "D2",
          "ticks": 34368,
          "time": 34.645092,
          "velocity": 0.3937007874015748
        },
        {
          "duration": 0.09677400000000347,
          "durationTicks": 96,
          "midi": 36,
          "name": "C2",
          "ticks": 34560,
          "time": 34.83864,
          "velocity": 0.3937007874015748
        },
        {
          "duration": 0.09677400000000347,
          "durationTicks": 96,
          "midi": 38,
          "name": "D2",
          "ticks": 34752,
          "time": 35.032188,
          "velocity": 0.3937007874015748
        },
        {
          "duration": 0.09677400000000347,
          "durationTicks": 96,
          "midi": 36,
          "name": "C2",
          "ticks": 34944,
          "time": 35.225736,
          "velocity": 0.3937007874015748
        },
        {
          "duration": 0.09677400000000347,
          "durationTicks": 96,
          "midi": 38,
          "name": "D2",
          "ticks": 35136,
          "time": 35.419284,
          "velocity": 0.3937007874015748
        },
        {
          "duration": 0.09677400000000347,
          "durationTicks": 96,
          "midi": 36,
          "name": "C2",
          "ticks": 35328,
          "time": 35.612832,
          "velocity": 0.3937007874015748
        },
        {
          "duration": 0.09677400000000347,
          "durationTicks": 96,
          "midi": 38,
          "name": "D2",
          "ticks": 35520,
          "time": 35.80638,
          "velocity": 0.3937007874015748
        },
        {
          "duration": 0.09677400000000347,
          "durationTicks": 96,
          "midi": 36,
          "name": "C2",
          "ticks": 35712,
          "time": 35.999928,
          "velocity": 0.3937007874015748
        },
        {
          "duration": 0.09677400000000347,
          "durationTicks": 96,
          "midi": 38,
          "name": "D2",
          "ticks": 35904,
          "time": 36.193476,
          "velocity": 0.3937007874015748
        },
        {
          "duration": 0.09677400000000347,
          "durationTicks": 96,
          "midi": 36,
          "name": "C2",
          "ticks": 36096,
          "time": 36.387024,
          "velocity": 0.3937007874015748
        },
        {
          "duration": 0.09677400000000347,
          "durationTicks": 96,
          "midi": 38,
          "name": "D2",
          "ticks": 36288,
          "time": 36.580572,
          "velocity": 0.3937007874015748
        },
        {
          "duration": 0.09677400000000347,
          "durationTicks": 96,
          "midi": 36,
          "name": "C2",
          "ticks": 36480,
          "time": 36.774119999999996,
          "velocity": 0.3937007874015748
        },
        {
          "duration": 0.09677400000000347,
          "durationTicks": 96,
          "midi": 38,
          "name": "D2",
          "ticks": 36672,
          "time": 36.967667999999996,
          "velocity": 0.3937007874015748
        },
        {
          "duration": 0.09677400000000347,
          "durationTicks": 96,
          "midi": 36,
          "name": "C2",
          "ticks": 36864,
          "time": 37.161215999999996,
          "velocity": 0.3937007874015748
        },
        {
          "duration": 0.09677399999999636,
          "durationTicks": 96,
          "midi": 38,
          "name": "D2",
          "ticks": 37056,
          "time": 37.354764,
          "velocity": 0.3937007874015748
        },
        {
          "duration": 0.09677399999999636,
          "durationTicks": 96,
          "midi": 36,
          "name": "C2",
          "ticks": 37248,
          "time": 37.548312,
          "velocity": 0.3937007874015748
        },
        {
          "duration": 0.09677399999999636,
          "durationTicks": 96,
          "midi": 38,
          "name": "D2",
          "ticks": 37440,
          "time": 37.74186,
          "velocity": 0.3937007874015748
        },
        {
          "duration": 0.09677399999999636,
          "durationTicks": 96,
          "midi": 36,
          "name": "C2",
          "ticks": 37632,
          "time": 37.935408,
          "velocity": 0.3937007874015748
        },
        {
          "duration": 0.09677399999999636,
          "durationTicks": 96,
          "midi": 38,
          "name": "D2",
          "ticks": 37824,
          "time": 38.128956,
          "velocity": 0.3937007874015748
        },
        {
          "duration": 0.09677399999999636,
          "durationTicks": 96,
          "midi": 36,
          "name": "C2",
          "ticks": 38016,
          "time": 38.322504,
          "velocity": 0.3937007874015748
        },
        {
          "duration": 0.09677399999999636,
          "durationTicks": 96,
          "midi": 38,
          "name": "D2",
          "ticks": 38208,
          "time": 38.516052,
          "velocity": 0.3937007874015748
        },
        {
          "duration": 0.09677399999999636,
          "durationTicks": 96,
          "midi": 36,
          "name": "C2",
          "ticks": 38400,
          "time": 38.7096,
          "velocity": 0.3937007874015748
        },
        {
          "duration": 0.09677399999999636,
          "durationTicks": 96,
          "midi": 38,
          "name": "D2",
          "ticks": 38592,
          "time": 38.903148,
          "velocity": 0.3937007874015748
        },
        {
          "duration": 0.09677399999999636,
          "durationTicks": 96,
          "midi": 36,
          "name": "C2",
          "ticks": 38784,
          "time": 39.096696,
          "velocity": 0.3937007874015748
        },
        {
          "duration": 0.09677399999999636,
          "durationTicks": 96,
          "midi": 38,
          "name": "D2",
          "ticks": 38976,
          "time": 39.290244,
          "velocity": 0.3937007874015748
        },
        {
          "duration": 0.09677399999999636,
          "durationTicks": 96,
          "midi": 36,
          "name": "C2",
          "ticks": 39168,
          "time": 39.483792,
          "velocity": 0.3937007874015748
        },
        {
          "duration": 0.09677399999999636,
          "durationTicks": 96,
          "midi": 38,
          "name": "D2",
          "ticks": 39360,
          "time": 39.67734,
          "velocity": 0.3937007874015748
        },
        {
          "duration": 0.09677399999999636,
          "durationTicks": 96,
          "midi": 36,
          "name": "C2",
          "ticks": 39552,
          "time": 39.870888,
          "velocity": 0.3937007874015748
        },
        {
          "duration": 0.09677399999999636,
          "durationTicks": 96,
          "midi": 38,
          "name": "D2",
          "ticks": 39744,
          "time": 40.064436,
          "velocity": 0.3937007874015748
        },
        {
          "duration": 0.09677399999999636,
          "durationTicks": 96,
          "midi": 36,
          "name": "C2",
          "ticks": 39936,
          "time": 40.257984,
          "velocity": 0.3937007874015748
        },
        {
          "duration": 0.09677399999999636,
          "durationTicks": 96,
          "midi": 38,
          "name": "D2",
          "ticks": 40128,
          "time": 40.451532,
          "velocity": 0.3937007874015748
        },
        {
          "duration": 0.09677399999999636,
          "durationTicks": 96,
          "midi": 36,
          "name": "C2",
          "ticks": 40320,
          "time": 40.64508,
          "velocity": 0.3937007874015748
        },
        {
          "duration": 0.09677399999999636,
          "durationTicks": 96,
          "midi": 38,
          "name": "D2",
          "ticks": 40512,
          "time": 40.838628,
          "velocity": 0.3937007874015748
        },
        {
          "duration": 0.09677399999999636,
          "durationTicks": 96,
          "midi": 36,
          "name": "C2",
          "ticks": 40704,
          "time": 41.032176,
          "velocity": 0.3937007874015748
        },
        {
          "duration": 0.09677400000000347,
          "durationTicks": 96,
          "midi": 38,
          "name": "D2",
          "ticks": 40896,
          "time": 41.225724,
          "velocity": 0.3937007874015748
        },
        {
          "duration": 0.09677400000000347,
          "durationTicks": 96,
          "midi": 36,
          "name": "C2",
          "ticks": 41088,
          "time": 41.419272,
          "velocity": 0.3937007874015748
        },
        {
          "duration": 0.09677400000000347,
          "durationTicks": 96,
          "midi": 38,
          "name": "D2",
          "ticks": 41280,
          "time": 41.61282,
          "velocity": 0.3937007874015748
        },
        {
          "duration": 0.09677400000000347,
          "durationTicks": 96,
          "midi": 36,
          "name": "C2",
          "ticks": 41472,
          "time": 41.806368,
          "velocity": 0.3937007874015748
        },
        {
          "duration": 0.09677400000000347,
          "durationTicks": 96,
          "midi": 38,
          "name": "D2",
          "ticks": 41664,
          "time": 41.999916,
          "velocity": 0.3937007874015748
        },
        {
          "duration": 0.09677400000000347,
          "durationTicks": 96,
          "midi": 36,
          "name": "C2",
          "ticks": 41856,
          "time": 42.193464,
          "velocity": 0.3937007874015748
        },
        {
          "duration": 0.09677400000000347,
          "durationTicks": 96,
          "midi": 38,
          "name": "D2",
          "ticks": 42048,
          "time": 42.387012,
          "velocity": 0.3937007874015748
        },
        {
          "duration": 0.09677400000000347,
          "durationTicks": 96,
          "midi": 36,
          "name": "C2",
          "ticks": 42240,
          "time": 42.58056,
          "velocity": 0.3937007874015748
        },
        {
          "duration": 0.09677400000000347,
          "durationTicks": 96,
          "midi": 38,
          "name": "D2",
          "ticks": 42432,
          "time": 42.774108,
          "velocity": 0.3937007874015748
        },
        {
          "duration": 0.09677400000000347,
          "durationTicks": 96,
          "midi": 36,
          "name": "C2",
          "ticks": 42624,
          "time": 42.967656,
          "velocity": 0.3937007874015748
        },
        {
          "duration": 0.09677400000000347,
          "durationTicks": 96,
          "midi": 38,
          "name": "D2",
          "ticks": 42816,
          "time": 43.161204,
          "velocity": 0.3937007874015748
        },
        {
          "duration": 0.09677400000000347,
          "durationTicks": 96,
          "midi": 36,
          "name": "C2",
          "ticks": 43008,
          "time": 43.354752,
          "velocity": 0.3937007874015748
        },
        {
          "duration": 0.09677400000000347,
          "durationTicks": 96,
          "midi": 38,
          "name": "D2",
          "ticks": 43200,
          "time": 43.5483,
          "velocity": 0.3937007874015748
        },
        {
          "duration": 0.09677400000000347,
          "durationTicks": 96,
          "midi": 36,
          "name": "C2",
          "ticks": 43392,
          "time": 43.741848,
          "velocity": 0.3937007874015748
        },
        {
          "duration": 0.09677400000000347,
          "durationTicks": 96,
          "midi": 38,
          "name": "D2",
          "ticks": 43584,
          "time": 43.935396,
          "velocity": 0.3937007874015748
        },
        {
          "duration": 0.09677400000000347,
          "durationTicks": 96,
          "midi": 36,
          "name": "C2",
          "ticks": 43776,
          "time": 44.128944,
          "velocity": 0.3937007874015748
        },
        {
          "duration": 0.09677400000000347,
          "durationTicks": 96,
          "midi": 38,
          "name": "D2",
          "ticks": 43968,
          "time": 44.322492,
          "velocity": 0.3937007874015748
        },
        {
          "duration": 0.09677400000000347,
          "durationTicks": 96,
          "midi": 36,
          "name": "C2",
          "ticks": 44160,
          "time": 44.51604,
          "velocity": 0.3937007874015748
        },
        {
          "duration": 0.09677400000000347,
          "durationTicks": 96,
          "midi": 38,
          "name": "D2",
          "ticks": 44352,
          "time": 44.709588,
          "velocity": 0.3937007874015748
        },
        {
          "duration": 0.09677400000000347,
          "durationTicks": 96,
          "midi": 36,
          "name": "C2",
          "ticks": 44544,
          "time": 44.903135999999996,
          "velocity": 0.3937007874015748
        },
        {
          "duration": 0.09677400000000347,
          "durationTicks": 96,
          "midi": 38,
          "name": "D2",
          "ticks": 44736,
          "time": 45.096683999999996,
          "velocity": 0.3937007874015748
        },
        {
          "duration": 0.09677400000000347,
          "durationTicks": 96,
          "midi": 36,
          "name": "C2",
          "ticks": 44928,
          "time": 45.290231999999996,
          "velocity": 0.3937007874015748
        },
        {
          "duration": 0.09677399999999636,
          "durationTicks": 96,
          "midi": 38,
          "name": "D2",
          "ticks": 45120,
          "time": 45.48378,
          "velocity": 0.3937007874015748
        },
        {
          "duration": 0.09677399999999636,
          "durationTicks": 96,
          "midi": 36,
          "name": "C2",
          "ticks": 45312,
          "time": 45.677328,
          "velocity": 0.3937007874015748
        },
        {
          "duration": 0.09677399999999636,
          "durationTicks": 96,
          "midi": 38,
          "name": "D2",
          "ticks": 45504,
          "time": 45.870876,
          "velocity": 0.3937007874015748
        },
        {
          "duration": 0.09677399999999636,
          "durationTicks": 96,
          "midi": 36,
          "name": "C2",
          "ticks": 45696,
          "time": 46.064424,
          "velocity": 0.3937007874015748
        },
        {
          "duration": 0.09677399999999636,
          "durationTicks": 96,
          "midi": 38,
          "name": "D2",
          "ticks": 45888,
          "time": 46.257972,
          "velocity": 0.3937007874015748
        },
        {
          "duration": 0.09677399999999636,
          "durationTicks": 96,
          "midi": 36,
          "name": "C2",
          "ticks": 46080,
          "time": 46.45152,
          "velocity": 0.3937007874015748
        },
        {
          "duration": 0.09677399999999636,
          "durationTicks": 96,
          "midi": 38,
          "name": "D2",
          "ticks": 46272,
          "time": 46.645068,
          "velocity": 0.3937007874015748
        },
        {
          "duration": 0.09677399999999636,
          "durationTicks": 96,
          "midi": 36,
          "name": "C2",
          "ticks": 46464,
          "time": 46.838616,
          "velocity": 0.3937007874015748
        },
        {
          "duration": 0.09677399999999636,
          "durationTicks": 96,
          "midi": 38,
          "name": "D2",
          "ticks": 46656,
          "time": 47.032164,
          "velocity": 0.3937007874015748
        },
        {
          "duration": 0.09677399999999636,
          "durationTicks": 96,
          "midi": 36,
          "name": "C2",
          "ticks": 46848,
          "time": 47.225712,
          "velocity": 0.3937007874015748
        },
        {
          "duration": 0.09677399999999636,
          "durationTicks": 96,
          "midi": 38,
          "name": "D2",
          "ticks": 47040,
          "time": 47.41926,
          "velocity": 0.3937007874015748
        },
        {
          "duration": 0.09677399999999636,
          "durationTicks": 96,
          "midi": 36,
          "name": "C2",
          "ticks": 47232,
          "time": 47.612808,
          "velocity": 0.3937007874015748
        },
        {
          "duration": 0.09677399999999636,
          "durationTicks": 96,
          "midi": 38,
          "name": "D2",
          "ticks": 47424,
          "time": 47.806356,
          "velocity": 0.3937007874015748
        },
        {
          "duration": 0.09677399999999636,
          "durationTicks": 96,
          "midi": 36,
          "name": "C2",
          "ticks": 47616,
          "time": 47.999904,
          "velocity": 0.3937007874015748
        },
        {
          "duration": 0.09677399999999636,
          "durationTicks": 96,
          "midi": 36,
          "name": "C2",
          "ticks": 47616,
          "time": 47.999904,
          "velocity": 0.3937007874015748
        },
        {
          "duration": 0.09677399999999636,
          "durationTicks": 96,
          "midi": 38,
          "name": "D2",
          "ticks": 47808,
          "time": 48.193452,
          "velocity": 0.3937007874015748
        },
        {
          "duration": 0.09677399999999636,
          "durationTicks": 96,
          "midi": 38,
          "name": "D2",
          "ticks": 47808,
          "time": 48.193452,
          "velocity": 0.3937007874015748
        },
        {
          "duration": 0.09677399999999636,
          "durationTicks": 96,
          "midi": 36,
          "name": "C2",
          "ticks": 48000,
          "time": 48.387,
          "velocity": 0.3937007874015748
        },
        {
          "duration": 0.09677399999999636,
          "durationTicks": 96,
          "midi": 36,
          "name": "C2",
          "ticks": 48000,
          "time": 48.387,
          "velocity": 0.3937007874015748
        },
        {
          "duration": 0.09677399999999636,
          "durationTicks": 96,
          "midi": 38,
          "name": "D2",
          "ticks": 48192,
          "time": 48.580548,
          "velocity": 0.3937007874015748
        },
        {
          "duration": 0.09677399999999636,
          "durationTicks": 96,
          "midi": 38,
          "name": "D2",
          "ticks": 48192,
          "time": 48.580548,
          "velocity": 0.3937007874015748
        },
        {
          "duration": 0.09677399999999636,
          "durationTicks": 96,
          "midi": 36,
          "name": "C2",
          "ticks": 48384,
          "time": 48.774096,
          "velocity": 0.3937007874015748
        },
        {
          "duration": 0.09677399999999636,
          "durationTicks": 96,
          "midi": 36,
          "name": "C2",
          "ticks": 48384,
          "time": 48.774096,
          "velocity": 0.3937007874015748
        },
        {
          "duration": 0.09677399999999636,
          "durationTicks": 96,
          "midi": 38,
          "name": "D2",
          "ticks": 48576,
          "time": 48.967644,
          "velocity": 0.3937007874015748
        },
        {
          "duration": 0.09677399999999636,
          "durationTicks": 96,
          "midi": 38,
          "name": "D2",
          "ticks": 48576,
          "time": 48.967644,
          "velocity": 0.3937007874015748
        },
        {
          "duration": 0.09677399999999636,
          "durationTicks": 96,
          "midi": 36,
          "name": "C2",
          "ticks": 48768,
          "time": 49.161192,
          "velocity": 0.3937007874015748
        },
        {
          "duration": 0.09677399999999636,
          "durationTicks": 96,
          "midi": 36,
          "name": "C2",
          "ticks": 48768,
          "time": 49.161192,
          "velocity": 0.3937007874015748
        },
        {
          "duration": 0.09677399999999636,
          "durationTicks": 96,
          "midi": 38,
          "name": "D2",
          "ticks": 48960,
          "time": 49.35474,
          "velocity": 0.3937007874015748
        },
        {
          "duration": 0.09677399999999636,
          "durationTicks": 96,
          "midi": 38,
          "name": "D2",
          "ticks": 48960,
          "time": 49.35474,
          "velocity": 0.3937007874015748
        },
        {
          "duration": 0.09677400000000347,
          "durationTicks": 96,
          "midi": 36,
          "name": "C2",
          "ticks": 49152,
          "time": 49.548288,
          "velocity": 0.3937007874015748
        },
        {
          "duration": 0.09677400000000347,
          "durationTicks": 96,
          "midi": 36,
          "name": "C2",
          "ticks": 49152,
          "time": 49.548288,
          "velocity": 0.3937007874015748
        },
        {
          "duration": 0.09677400000000347,
          "durationTicks": 96,
          "midi": 38,
          "name": "D2",
          "ticks": 49344,
          "time": 49.741836,
          "velocity": 0.3937007874015748
        },
        {
          "duration": 0.09677400000000347,
          "durationTicks": 96,
          "midi": 38,
          "name": "D2",
          "ticks": 49344,
          "time": 49.741836,
          "velocity": 0.3937007874015748
        },
        {
          "duration": 0.09677400000000347,
          "durationTicks": 96,
          "midi": 36,
          "name": "C2",
          "ticks": 49536,
          "time": 49.935384,
          "velocity": 0.3937007874015748
        },
        {
          "duration": 0.09677400000000347,
          "durationTicks": 96,
          "midi": 36,
          "name": "C2",
          "ticks": 49536,
          "time": 49.935384,
          "velocity": 0.3937007874015748
        },
        {
          "duration": 0.09677400000000347,
          "durationTicks": 96,
          "midi": 38,
          "name": "D2",
          "ticks": 49728,
          "time": 50.128932,
          "velocity": 0.3937007874015748
        },
        {
          "duration": 0.09677400000000347,
          "durationTicks": 96,
          "midi": 38,
          "name": "D2",
          "ticks": 49728,
          "time": 50.128932,
          "velocity": 0.3937007874015748
        },
        {
          "duration": 0.09677400000000347,
          "durationTicks": 96,
          "midi": 36,
          "name": "C2",
          "ticks": 49920,
          "time": 50.32248,
          "velocity": 0.3937007874015748
        },
        {
          "duration": 0.09677400000000347,
          "durationTicks": 96,
          "midi": 36,
          "name": "C2",
          "ticks": 49920,
          "time": 50.32248,
          "velocity": 0.3937007874015748
        },
        {
          "duration": 0.09677400000000347,
          "durationTicks": 96,
          "midi": 38,
          "name": "D2",
          "ticks": 50112,
          "time": 50.516028,
          "velocity": 0.3937007874015748
        },
        {
          "duration": 0.09677400000000347,
          "durationTicks": 96,
          "midi": 38,
          "name": "D2",
          "ticks": 50112,
          "time": 50.516028,
          "velocity": 0.3937007874015748
        },
        {
          "duration": 0.09677400000000347,
          "durationTicks": 96,
          "midi": 36,
          "name": "C2",
          "ticks": 50304,
          "time": 50.709576,
          "velocity": 0.3937007874015748
        },
        {
          "duration": 0.09677400000000347,
          "durationTicks": 96,
          "midi": 36,
          "name": "C2",
          "ticks": 50304,
          "time": 50.709576,
          "velocity": 0.3937007874015748
        },
        {
          "duration": 0.09677400000000347,
          "durationTicks": 96,
          "midi": 38,
          "name": "D2",
          "ticks": 50496,
          "time": 50.903124,
          "velocity": 0.3937007874015748
        },
        {
          "duration": 0.09677400000000347,
          "durationTicks": 96,
          "midi": 38,
          "name": "D2",
          "ticks": 50496,
          "time": 50.903124,
          "velocity": 0.3937007874015748
        },
        {
          "duration": 0.09677400000000347,
          "durationTicks": 96,
          "midi": 36,
          "name": "C2",
          "ticks": 50688,
          "time": 51.096672,
          "velocity": 0.3937007874015748
        },
        {
          "duration": 0.09677400000000347,
          "durationTicks": 96,
          "midi": 38,
          "name": "D2",
          "ticks": 50880,
          "time": 51.29022,
          "velocity": 0.3937007874015748
        },
        {
          "duration": 0.09677400000000347,
          "durationTicks": 96,
          "midi": 36,
          "name": "C2",
          "ticks": 51072,
          "time": 51.483768,
          "velocity": 0.3937007874015748
        },
        {
          "duration": 0.09677400000000347,
          "durationTicks": 96,
          "midi": 38,
          "name": "D2",
          "ticks": 51264,
          "time": 51.677316,
          "velocity": 0.3937007874015748
        },
        {
          "duration": 0.09677400000000347,
          "durationTicks": 96,
          "midi": 36,
          "name": "C2",
          "ticks": 51456,
          "time": 51.870864,
          "velocity": 0.3937007874015748
        },
        {
          "duration": 0.09677400000000347,
          "durationTicks": 96,
          "midi": 38,
          "name": "D2",
          "ticks": 51648,
          "time": 52.064412,
          "velocity": 0.3937007874015748
        },
        {
          "duration": 0.09677400000000347,
          "durationTicks": 96,
          "midi": 36,
          "name": "C2",
          "ticks": 51840,
          "time": 52.25796,
          "velocity": 0.3937007874015748
        },
        {
          "duration": 0.09677400000000347,
          "durationTicks": 96,
          "midi": 38,
          "name": "D2",
          "ticks": 52032,
          "time": 52.451508,
          "velocity": 0.3937007874015748
        },
        {
          "duration": 0.09677400000000347,
          "durationTicks": 96,
          "midi": 36,
          "name": "C2",
          "ticks": 52224,
          "time": 52.645056,
          "velocity": 0.3937007874015748
        },
        {
          "duration": 0.09677400000000347,
          "durationTicks": 96,
          "midi": 38,
          "name": "D2",
          "ticks": 52416,
          "time": 52.838604,
          "velocity": 0.3937007874015748
        },
        {
          "duration": 0.09677400000000347,
          "durationTicks": 96,
          "midi": 36,
          "name": "C2",
          "ticks": 52608,
          "time": 53.032151999999996,
          "velocity": 0.3937007874015748
        },
        {
          "duration": 0.09677400000000347,
          "durationTicks": 96,
          "midi": 38,
          "name": "D2",
          "ticks": 52800,
          "time": 53.225699999999996,
          "velocity": 0.3937007874015748
        },
        {
          "duration": 0.09677400000000347,
          "durationTicks": 96,
          "midi": 36,
          "name": "C2",
          "ticks": 52992,
          "time": 53.419247999999996,
          "velocity": 0.3937007874015748
        },
        {
          "duration": 0.09677400000000347,
          "durationTicks": 96,
          "midi": 38,
          "name": "D2",
          "ticks": 53184,
          "time": 53.612795999999996,
          "velocity": 0.3937007874015748
        },
        {
          "duration": 0.09677399999999636,
          "durationTicks": 96,
          "midi": 36,
          "name": "C2",
          "ticks": 53376,
          "time": 53.806344,
          "velocity": 0.3937007874015748
        },
        {
          "duration": 0.09677399999999636,
          "durationTicks": 96,
          "midi": 38,
          "name": "D2",
          "ticks": 53568,
          "time": 53.999892,
          "velocity": 0.3937007874015748
        },
        {
          "duration": 0.09677399999999636,
          "durationTicks": 96,
          "midi": 36,
          "name": "C2",
          "ticks": 53760,
          "time": 54.19344,
          "velocity": 0.3937007874015748
        },
        {
          "duration": 0.09677399999999636,
          "durationTicks": 96,
          "midi": 38,
          "name": "D2",
          "ticks": 53952,
          "time": 54.386988,
          "velocity": 0.3937007874015748
        },
        {
          "duration": 0.09677399999999636,
          "durationTicks": 96,
          "midi": 36,
          "name": "C2",
          "ticks": 54144,
          "time": 54.580536,
          "velocity": 0.3937007874015748
        },
        {
          "duration": 0.09677399999999636,
          "durationTicks": 96,
          "midi": 38,
          "name": "D2",
          "ticks": 54336,
          "time": 54.774084,
          "velocity": 0.3937007874015748
        },
        {
          "duration": 0.09677399999999636,
          "durationTicks": 96,
          "midi": 36,
          "name": "C2",
          "ticks": 54528,
          "time": 54.967632,
          "velocity": 0.3937007874015748
        },
        {
          "duration": 0.09677399999999636,
          "durationTicks": 96,
          "midi": 38,
          "name": "D2",
          "ticks": 54720,
          "time": 55.16118,
          "velocity": 0.3937007874015748
        },
        {
          "duration": 0.09677399999999636,
          "durationTicks": 96,
          "midi": 36,
          "name": "C2",
          "ticks": 54912,
          "time": 55.354728,
          "velocity": 0.3937007874015748
        },
        {
          "duration": 0.09677399999999636,
          "durationTicks": 96,
          "midi": 38,
          "name": "D2",
          "ticks": 55104,
          "time": 55.548276,
          "velocity": 0.3937007874015748
        },
        {
          "duration": 0.09677399999999636,
          "durationTicks": 96,
          "midi": 36,
          "name": "C2",
          "ticks": 55296,
          "time": 55.741824,
          "velocity": 0.3937007874015748
        },
        {
          "duration": 0.09677399999999636,
          "durationTicks": 96,
          "midi": 38,
          "name": "D2",
          "ticks": 55488,
          "time": 55.935372,
          "velocity": 0.3937007874015748
        },
        {
          "duration": 0.09677399999999636,
          "durationTicks": 96,
          "midi": 36,
          "name": "C2",
          "ticks": 55680,
          "time": 56.12892,
          "velocity": 0.3937007874015748
        },
        {
          "duration": 0.09677399999999636,
          "durationTicks": 96,
          "midi": 38,
          "name": "D2",
          "ticks": 55872,
          "time": 56.322468,
          "velocity": 0.3937007874015748
        },
        {
          "duration": 0.09677399999999636,
          "durationTicks": 96,
          "midi": 36,
          "name": "C2",
          "ticks": 56064,
          "time": 56.516016,
          "velocity": 0.3937007874015748
        },
        {
          "duration": 0.09677399999999636,
          "durationTicks": 96,
          "midi": 38,
          "name": "D2",
          "ticks": 56256,
          "time": 56.709564,
          "velocity": 0.3937007874015748
        },
        {
          "duration": 0.09677399999999636,
          "durationTicks": 96,
          "midi": 36,
          "name": "C2",
          "ticks": 56448,
          "time": 56.903112,
          "velocity": 0.3937007874015748
        },
        {
          "duration": 0.09677399999999636,
          "durationTicks": 96,
          "midi": 38,
          "name": "D2",
          "ticks": 56640,
          "time": 57.09666,
          "velocity": 0.3937007874015748
        },
        {
          "duration": 0.09677399999999636,
          "durationTicks": 96,
          "midi": 36,
          "name": "C2",
          "ticks": 56832,
          "time": 57.290208,
          "velocity": 0.3937007874015748
        },
        {
          "duration": 0.09677399999999636,
          "durationTicks": 96,
          "midi": 38,
          "name": "D2",
          "ticks": 57024,
          "time": 57.483756,
          "velocity": 0.3937007874015748
        },
        {
          "duration": 0.09677399999999636,
          "durationTicks": 96,
          "midi": 36,
          "name": "C2",
          "ticks": 57216,
          "time": 57.677304,
          "velocity": 0.3937007874015748
        },
        {
          "duration": 0.09677400000000347,
          "durationTicks": 96,
          "midi": 38,
          "name": "D2",
          "ticks": 57408,
          "time": 57.870852,
          "velocity": 0.3937007874015748
        },
        {
          "duration": 0.09677400000000347,
          "durationTicks": 96,
          "midi": 36,
          "name": "C2",
          "ticks": 57600,
          "time": 58.0644,
          "velocity": 0.3937007874015748
        },
        {
          "duration": 0.09677400000000347,
          "durationTicks": 96,
          "midi": 38,
          "name": "D2",
          "ticks": 57792,
          "time": 58.257948,
          "velocity": 0.3937007874015748
        },
        {
          "duration": 0.09677400000000347,
          "durationTicks": 96,
          "midi": 36,
          "name": "C2",
          "ticks": 57984,
          "time": 58.451496,
          "velocity": 0.3937007874015748
        },
        {
          "duration": 0.09677400000000347,
          "durationTicks": 96,
          "midi": 38,
          "name": "D2",
          "ticks": 58176,
          "time": 58.645044,
          "velocity": 0.3937007874015748
        },
        {
          "duration": 0.09677400000000347,
          "durationTicks": 96,
          "midi": 36,
          "name": "C2",
          "ticks": 58368,
          "time": 58.838592,
          "velocity": 0.3937007874015748
        },
        {
          "duration": 0.09677400000000347,
          "durationTicks": 96,
          "midi": 38,
          "name": "D2",
          "ticks": 58560,
          "time": 59.03214,
          "velocity": 0.3937007874015748
        },
        {
          "duration": 0.09677400000000347,
          "durationTicks": 96,
          "midi": 36,
          "name": "C2",
          "ticks": 58752,
          "time": 59.225688,
          "velocity": 0.3937007874015748
        },
        {
          "duration": 0.09677400000000347,
          "durationTicks": 96,
          "midi": 38,
          "name": "D2",
          "ticks": 58944,
          "time": 59.419236,
          "velocity": 0.3937007874015748
        },
        {
          "duration": 0.09677400000000347,
          "durationTicks": 96,
          "midi": 36,
          "name": "C2",
          "ticks": 59136,
          "time": 59.612784,
          "velocity": 0.3937007874015748
        },
        {
          "duration": 0.09677400000000347,
          "durationTicks": 96,
          "midi": 38,
          "name": "D2",
          "ticks": 59328,
          "time": 59.806332,
          "velocity": 0.3937007874015748
        },
        {
          "duration": 0.09677400000000347,
          "durationTicks": 96,
          "midi": 36,
          "name": "C2",
          "ticks": 59520,
          "time": 59.99988,
          "velocity": 0.3937007874015748
        },
        {
          "duration": 0.09677400000000347,
          "durationTicks": 96,
          "midi": 38,
          "name": "D2",
          "ticks": 59712,
          "time": 60.193428,
          "velocity": 0.3937007874015748
        },
        {
          "duration": 0.09677400000000347,
          "durationTicks": 96,
          "midi": 36,
          "name": "C2",
          "ticks": 59904,
          "time": 60.386976,
          "velocity": 0.3937007874015748
        },
        {
          "duration": 0.09677400000000347,
          "durationTicks": 96,
          "midi": 38,
          "name": "D2",
          "ticks": 60096,
          "time": 60.580524,
          "velocity": 0.3937007874015748
        },
        {
          "duration": 0.09677400000000347,
          "durationTicks": 96,
          "midi": 36,
          "name": "C2",
          "ticks": 60288,
          "time": 60.774072,
          "velocity": 0.3937007874015748
        },
        {
          "duration": 0.09677400000000347,
          "durationTicks": 96,
          "midi": 38,
          "name": "D2",
          "ticks": 60480,
          "time": 60.96762,
          "velocity": 0.3937007874015748
        },
        {
          "duration": 0.09677400000000347,
          "durationTicks": 96,
          "midi": 36,
          "name": "C2",
          "ticks": 60672,
          "time": 61.161167999999996,
          "velocity": 0.3937007874015748
        },
        {
          "duration": 0.09677400000000347,
          "durationTicks": 96,
          "midi": 38,
          "name": "D2",
          "ticks": 60864,
          "time": 61.354715999999996,
          "velocity": 0.3937007874015748
        },
        {
          "duration": 0.09677400000000347,
          "durationTicks": 96,
          "midi": 36,
          "name": "C2",
          "ticks": 61056,
          "time": 61.548263999999996,
          "velocity": 0.3937007874015748
        },
        {
          "duration": 0.09677400000000347,
          "durationTicks": 96,
          "midi": 38,
          "name": "D2",
          "ticks": 61248,
          "time": 61.741811999999996,
          "velocity": 0.3937007874015748
        },
        {
          "duration": 0.09677399999999636,
          "durationTicks": 96,
          "midi": 36,
          "name": "C2",
          "ticks": 61440,
          "time": 61.93536,
          "velocity": 0.3937007874015748
        },
        {
          "duration": 0.09677399999999636,
          "durationTicks": 96,
          "midi": 38,
          "name": "D2",
          "ticks": 61632,
          "time": 62.128908,
          "velocity": 0.3937007874015748
        },
        {
          "duration": 0.09677399999999636,
          "durationTicks": 96,
          "midi": 36,
          "name": "C2",
          "ticks": 61824,
          "time": 62.322456,
          "velocity": 0.3937007874015748
        },
        {
          "duration": 0.09677399999999636,
          "durationTicks": 96,
          "midi": 38,
          "name": "D2",
          "ticks": 62016,
          "time": 62.516004,
          "velocity": 0.3937007874015748
        },
        {
          "duration": 0.09677399999999636,
          "durationTicks": 96,
          "midi": 36,
          "name": "C2",
          "ticks": 62208,
          "time": 62.709552,
          "velocity": 0.3937007874015748
        },
        {
          "duration": 0.09677399999999636,
          "durationTicks": 96,
          "midi": 38,
          "name": "D2",
          "ticks": 62400,
          "time": 62.9031,
          "velocity": 0.3937007874015748
        },
        {
          "duration": 0.09677399999999636,
          "durationTicks": 96,
          "midi": 36,
          "name": "C2",
          "ticks": 62592,
          "time": 63.096648,
          "velocity": 0.3937007874015748
        },
        {
          "duration": 0.09677399999999636,
          "durationTicks": 96,
          "midi": 38,
          "name": "D2",
          "ticks": 62784,
          "time": 63.290196,
          "velocity": 0.3937007874015748
        },
        {
          "duration": 0.09677399999999636,
          "durationTicks": 96,
          "midi": 36,
          "name": "C2",
          "ticks": 62976,
          "time": 63.483744,
          "velocity": 0.3937007874015748
        },
        {
          "duration": 0.09677399999999636,
          "durationTicks": 96,
          "midi": 38,
          "name": "D2",
          "ticks": 63168,
          "time": 63.677292,
          "velocity": 0.3937007874015748
        },
        {
          "duration": 0.09677399999999636,
          "durationTicks": 96,
          "midi": 36,
          "name": "C2",
          "ticks": 63360,
          "time": 63.87084,
          "velocity": 0.3937007874015748
        },
        {
          "duration": 0.09677400000001057,
          "durationTicks": 96,
          "midi": 38,
          "name": "D2",
          "ticks": 63552,
          "time": 64.064388,
          "velocity": 0.3937007874015748
        },
        {
          "duration": 0.09677399999999636,
          "durationTicks": 96,
          "midi": 36,
          "name": "C2",
          "ticks": 63744,
          "time": 64.257936,
          "velocity": 0.3937007874015748
        },
        {
          "duration": 0.09677400000001057,
          "durationTicks": 96,
          "midi": 38,
          "name": "D2",
          "ticks": 63936,
          "time": 64.451484,
          "velocity": 0.3937007874015748
        },
        {
          "duration": 0.09677399999999636,
          "durationTicks": 96,
          "midi": 36,
          "name": "C2",
          "ticks": 64128,
          "time": 64.645032,
          "velocity": 0.3937007874015748
        },
        {
          "duration": 0.09677400000001057,
          "durationTicks": 96,
          "midi": 38,
          "name": "D2",
          "ticks": 64320,
          "time": 64.83858,
          "velocity": 0.3937007874015748
        },
        {
          "duration": 0.09677399999999636,
          "durationTicks": 96,
          "midi": 36,
          "name": "C2",
          "ticks": 64512,
          "time": 65.032128,
          "velocity": 0.3937007874015748
        },
        {
          "duration": 0.09677400000001057,
          "durationTicks": 96,
          "midi": 38,
          "name": "D2",
          "ticks": 64704,
          "time": 65.22567599999999,
          "velocity": 0.3937007874015748
        },
        {
          "duration": 0.09677399999999636,
          "durationTicks": 96,
          "midi": 36,
          "name": "C2",
          "ticks": 64896,
          "time": 65.419224,
          "velocity": 0.3937007874015748
        },
        {
          "duration": 0.09677400000001057,
          "durationTicks": 96,
          "midi": 38,
          "name": "D2",
          "ticks": 65088,
          "time": 65.61277199999999,
          "velocity": 0.3937007874015748
        },
        {
          "duration": 0.09677399999999636,
          "durationTicks": 96,
          "midi": 36,
          "name": "C2",
          "ticks": 65280,
          "time": 65.80632,
          "velocity": 0.3937007874015748
        },
        {
          "duration": 0.09677400000001057,
          "durationTicks": 96,
          "midi": 38,
          "name": "D2",
          "ticks": 65472,
          "time": 65.99986799999999,
          "velocity": 0.3937007874015748
        },
        {
          "duration": 0.09677399999999636,
          "durationTicks": 96,
          "midi": 36,
          "name": "C2",
          "ticks": 65664,
          "time": 66.193416,
          "velocity": 0.3937007874015748
        },
        {
          "duration": 0.09677399999999636,
          "durationTicks": 96,
          "midi": 38,
          "name": "D2",
          "ticks": 65856,
          "time": 66.386964,
          "velocity": 0.3937007874015748
        },
        {
          "duration": 0.09677399999999636,
          "durationTicks": 96,
          "midi": 36,
          "name": "C2",
          "ticks": 66048,
          "time": 66.580512,
          "velocity": 0.3937007874015748
        },
        {
          "duration": 0.09677399999999636,
          "durationTicks": 96,
          "midi": 38,
          "name": "D2",
          "ticks": 66240,
          "time": 66.77406,
          "velocity": 0.3937007874015748
        },
        {
          "duration": 0.09677399999999636,
          "durationTicks": 96,
          "midi": 36,
          "name": "C2",
          "ticks": 66432,
          "time": 66.967608,
          "velocity": 0.3937007874015748
        },
        {
          "duration": 0.09677399999999636,
          "durationTicks": 96,
          "midi": 38,
          "name": "D2",
          "ticks": 66624,
          "time": 67.161156,
          "velocity": 0.3937007874015748
        },
        {
          "duration": 0.09677399999999636,
          "durationTicks": 96,
          "midi": 36,
          "name": "C2",
          "ticks": 66816,
          "time": 67.354704,
          "velocity": 0.3937007874015748
        },
        {
          "duration": 0.09677399999999636,
          "durationTicks": 96,
          "midi": 38,
          "name": "D2",
          "ticks": 67008,
          "time": 67.548252,
          "velocity": 0.3937007874015748
        },
        {
          "duration": 0.09677399999999636,
          "durationTicks": 96,
          "midi": 36,
          "name": "C2",
          "ticks": 67200,
          "time": 67.7418,
          "velocity": 0.3937007874015748
        },
        {
          "duration": 0.09677399999999636,
          "durationTicks": 96,
          "midi": 38,
          "name": "D2",
          "ticks": 67392,
          "time": 67.935348,
          "velocity": 0.3937007874015748
        },
        {
          "duration": 0.09677399999999636,
          "durationTicks": 96,
          "midi": 36,
          "name": "C2",
          "ticks": 67584,
          "time": 68.128896,
          "velocity": 0.3937007874015748
        },
        {
          "duration": 0.09677399999999636,
          "durationTicks": 96,
          "midi": 38,
          "name": "D2",
          "ticks": 67776,
          "time": 68.322444,
          "velocity": 0.3937007874015748
        },
        {
          "duration": 0.09677399999999636,
          "durationTicks": 96,
          "midi": 36,
          "name": "C2",
          "ticks": 67968,
          "time": 68.515992,
          "velocity": 0.3937007874015748
        },
        {
          "duration": 0.09677399999999636,
          "durationTicks": 96,
          "midi": 38,
          "name": "D2",
          "ticks": 68160,
          "time": 68.70954,
          "velocity": 0.3937007874015748
        },
        {
          "duration": 0.09677399999999636,
          "durationTicks": 96,
          "midi": 36,
          "name": "C2",
          "ticks": 68352,
          "time": 68.903088,
          "velocity": 0.3937007874015748
        },
        {
          "duration": 0.09677399999999636,
          "durationTicks": 96,
          "midi": 38,
          "name": "D2",
          "ticks": 68544,
          "time": 69.096636,
          "velocity": 0.3937007874015748
        },
        {
          "duration": 0.09677399999999636,
          "durationTicks": 96,
          "midi": 36,
          "name": "C2",
          "ticks": 68736,
          "time": 69.290184,
          "velocity": 0.3937007874015748
        },
        {
          "duration": 0.09677399999999636,
          "durationTicks": 96,
          "midi": 38,
          "name": "D2",
          "ticks": 68928,
          "time": 69.483732,
          "velocity": 0.3937007874015748
        },
        {
          "duration": 0.09677399999999636,
          "durationTicks": 96,
          "midi": 49,
          "name": "C#3",
          "ticks": 69120,
          "time": 69.67728,
          "velocity": 0.3937007874015748
        },
        {
          "duration": 0.09677399999999636,
          "durationTicks": 96,
          "midi": 36,
          "name": "C2",
          "ticks": 69120,
          "time": 69.67728,
          "velocity": 0.3937007874015748
        },
        {
          "duration": 0.09677399999999636,
          "durationTicks": 96,
          "midi": 38,
          "name": "D2",
          "ticks": 69312,
          "time": 69.870828,
          "velocity": 0.3937007874015748
        },
        {
          "duration": 0.09677399999999636,
          "durationTicks": 96,
          "midi": 36,
          "name": "C2",
          "ticks": 69504,
          "time": 70.064376,
          "velocity": 0.3937007874015748
        },
        {
          "duration": 0.09677399999999636,
          "durationTicks": 96,
          "midi": 38,
          "name": "D2",
          "ticks": 69696,
          "time": 70.257924,
          "velocity": 0.3937007874015748
        },
        {
          "duration": 0.09677400000001057,
          "durationTicks": 96,
          "midi": 36,
          "name": "C2",
          "ticks": 69888,
          "time": 70.451472,
          "velocity": 0.3937007874015748
        },
        {
          "duration": 0.09677399999999636,
          "durationTicks": 96,
          "midi": 38,
          "name": "D2",
          "ticks": 70080,
          "time": 70.64502,
          "velocity": 0.3937007874015748
        },
        {
          "duration": 0.09677400000001057,
          "durationTicks": 96,
          "midi": 36,
          "name": "C2",
          "ticks": 70272,
          "time": 70.838568,
          "velocity": 0.3937007874015748
        },
        {
          "duration": 0.09677399999999636,
          "durationTicks": 96,
          "midi": 38,
          "name": "D2",
          "ticks": 70464,
          "time": 71.032116,
          "velocity": 0.3937007874015748
        },
        {
          "duration": 0.09677400000001057,
          "durationTicks": 96,
          "midi": 36,
          "name": "C2",
          "ticks": 70656,
          "time": 71.225664,
          "velocity": 0.3937007874015748
        },
        {
          "duration": 0.09677399999999636,
          "durationTicks": 96,
          "midi": 38,
          "name": "D2",
          "ticks": 70848,
          "time": 71.419212,
          "velocity": 0.3937007874015748
        },
        {
          "duration": 0.09677400000001057,
          "durationTicks": 96,
          "midi": 36,
          "name": "C2",
          "ticks": 71040,
          "time": 71.61276,
          "velocity": 0.3937007874015748
        },
        {
          "duration": 0.09677399999999636,
          "durationTicks": 96,
          "midi": 38,
          "name": "D2",
          "ticks": 71232,
          "time": 71.806308,
          "velocity": 0.3937007874015748
        },
        {
          "duration": 0.09677400000001057,
          "durationTicks": 96,
          "midi": 36,
          "name": "C2",
          "ticks": 71424,
          "time": 71.999856,
          "velocity": 0.3937007874015748
        },
        {
          "duration": 0.09677399999999636,
          "durationTicks": 96,
          "midi": 38,
          "name": "D2",
          "ticks": 71616,
          "time": 72.193404,
          "velocity": 0.3937007874015748
        },
        {
          "duration": 0.09677400000001057,
          "durationTicks": 96,
          "midi": 36,
          "name": "C2",
          "ticks": 71808,
          "time": 72.386952,
          "velocity": 0.3937007874015748
        },
        {
          "duration": 0.09677399999999636,
          "durationTicks": 96,
          "midi": 38,
          "name": "D2",
          "ticks": 72000,
          "time": 72.5805,
          "velocity": 0.3937007874015748
        },
        {
          "duration": 0.09677400000001057,
          "durationTicks": 96,
          "midi": 36,
          "name": "C2",
          "ticks": 72192,
          "time": 72.774048,
          "velocity": 0.3937007874015748
        },
        {
          "duration": 0.09677399999999636,
          "durationTicks": 96,
          "midi": 38,
          "name": "D2",
          "ticks": 72384,
          "time": 72.967596,
          "velocity": 0.3937007874015748
        },
        {
          "duration": 0.09677400000001057,
          "durationTicks": 96,
          "midi": 36,
          "name": "C2",
          "ticks": 72576,
          "time": 73.161144,
          "velocity": 0.3937007874015748
        },
        {
          "duration": 0.09677399999999636,
          "durationTicks": 96,
          "midi": 38,
          "name": "D2",
          "ticks": 72768,
          "time": 73.354692,
          "velocity": 0.3937007874015748
        },
        {
          "duration": 0.09677400000001057,
          "durationTicks": 96,
          "midi": 36,
          "name": "C2",
          "ticks": 72960,
          "time": 73.54823999999999,
          "velocity": 0.3937007874015748
        },
        {
          "duration": 0.09677399999999636,
          "durationTicks": 96,
          "midi": 38,
          "name": "D2",
          "ticks": 73152,
          "time": 73.741788,
          "velocity": 0.3937007874015748
        },
        {
          "duration": 0.09677400000001057,
          "durationTicks": 96,
          "midi": 36,
          "name": "C2",
          "ticks": 73344,
          "time": 73.93533599999999,
          "velocity": 0.3937007874015748
        },
        {
          "duration": 0.09677399999999636,
          "durationTicks": 96,
          "midi": 38,
          "name": "D2",
          "ticks": 73536,
          "time": 74.128884,
          "velocity": 0.3937007874015748
        },
        {
          "duration": 0.09677400000001057,
          "durationTicks": 96,
          "midi": 36,
          "name": "C2",
          "ticks": 73728,
          "time": 74.32243199999999,
          "velocity": 0.3937007874015748
        },
        {
          "duration": 0.09677399999999636,
          "durationTicks": 96,
          "midi": 38,
          "name": "D2",
          "ticks": 73920,
          "time": 74.51598,
          "velocity": 0.3937007874015748
        },
        {
          "duration": 0.09677399999999636,
          "durationTicks": 96,
          "midi": 36,
          "name": "C2",
          "ticks": 74112,
          "time": 74.709528,
          "velocity": 0.3937007874015748
        },
        {
          "duration": 0.09677399999999636,
          "durationTicks": 96,
          "midi": 38,
          "name": "D2",
          "ticks": 74304,
          "time": 74.903076,
          "velocity": 0.3937007874015748
        },
        {
          "duration": 0.09677399999999636,
          "durationTicks": 96,
          "midi": 36,
          "name": "C2",
          "ticks": 74496,
          "time": 75.096624,
          "velocity": 0.3937007874015748
        },
        {
          "duration": 0.09677399999999636,
          "durationTicks": 96,
          "midi": 38,
          "name": "D2",
          "ticks": 74688,
          "time": 75.290172,
          "velocity": 0.3937007874015748
        },
        {
          "duration": 0.09677399999999636,
          "durationTicks": 96,
          "midi": 36,
          "name": "C2",
          "ticks": 74880,
          "time": 75.48372,
          "velocity": 0.3937007874015748
        },
        {
          "duration": 0.09677399999999636,
          "durationTicks": 96,
          "midi": 38,
          "name": "D2",
          "ticks": 75072,
          "time": 75.677268,
          "velocity": 0.3937007874015748
        },
        {
          "duration": 0.09677399999999636,
          "durationTicks": 96,
          "midi": 36,
          "name": "C2",
          "ticks": 75264,
          "time": 75.870816,
          "velocity": 0.3937007874015748
        },
        {
          "duration": 0.09677399999999636,
          "durationTicks": 96,
          "midi": 38,
          "name": "D2",
          "ticks": 75456,
          "time": 76.064364,
          "velocity": 0.3937007874015748
        },
        {
          "duration": 0.09677399999999636,
          "durationTicks": 96,
          "midi": 36,
          "name": "C2",
          "ticks": 75648,
          "time": 76.257912,
          "velocity": 0.3937007874015748
        },
        {
          "duration": 0.09677399999999636,
          "durationTicks": 96,
          "midi": 38,
          "name": "D2",
          "ticks": 75840,
          "time": 76.45146,
          "velocity": 0.3937007874015748
        },
        {
          "duration": 0.09677399999999636,
          "durationTicks": 96,
          "midi": 36,
          "name": "C2",
          "ticks": 76032,
          "time": 76.645008,
          "velocity": 0.3937007874015748
        },
        {
          "duration": 0.09677399999999636,
          "durationTicks": 96,
          "midi": 38,
          "name": "D2",
          "ticks": 76224,
          "time": 76.838556,
          "velocity": 0.3937007874015748
        },
        {
          "duration": 0.09677399999999636,
          "durationTicks": 96,
          "midi": 36,
          "name": "C2",
          "ticks": 76416,
          "time": 77.032104,
          "velocity": 0.3937007874015748
        },
        {
          "duration": 0.09677399999999636,
          "durationTicks": 96,
          "midi": 38,
          "name": "D2",
          "ticks": 76608,
          "time": 77.225652,
          "velocity": 0.3937007874015748
        },
        {
          "duration": 0.09677399999999636,
          "durationTicks": 96,
          "midi": 36,
          "name": "C2",
          "ticks": 76800,
          "time": 77.4192,
          "velocity": 0.3937007874015748
        },
        {
          "duration": 0.09677399999999636,
          "durationTicks": 96,
          "midi": 38,
          "name": "D2",
          "ticks": 76992,
          "time": 77.612748,
          "velocity": 0.3937007874015748
        },
        {
          "duration": 0.09677399999999636,
          "durationTicks": 96,
          "midi": 36,
          "name": "C2",
          "ticks": 77184,
          "time": 77.806296,
          "velocity": 0.3937007874015748
        },
        {
          "duration": 0.09677399999999636,
          "durationTicks": 96,
          "midi": 38,
          "name": "D2",
          "ticks": 77376,
          "time": 77.999844,
          "velocity": 0.3937007874015748
        },
        {
          "duration": 0.09677399999999636,
          "durationTicks": 96,
          "midi": 36,
          "name": "C2",
          "ticks": 77568,
          "time": 78.193392,
          "velocity": 0.3937007874015748
        },
        {
          "duration": 0.09677400000001057,
          "durationTicks": 96,
          "midi": 38,
          "name": "D2",
          "ticks": 77760,
          "time": 78.38694,
          "velocity": 0.3937007874015748
        },
        {
          "duration": 0.09677399999999636,
          "durationTicks": 96,
          "midi": 36,
          "name": "C2",
          "ticks": 77952,
          "time": 78.580488,
          "velocity": 0.3937007874015748
        },
        {
          "duration": 0.09677400000001057,
          "durationTicks": 96,
          "midi": 38,
          "name": "D2",
          "ticks": 78144,
          "time": 78.774036,
          "velocity": 0.3937007874015748
        },
        {
          "duration": 0.09677399999999636,
          "durationTicks": 96,
          "midi": 36,
          "name": "C2",
          "ticks": 78336,
          "time": 78.967584,
          "velocity": 0.3937007874015748
        },
        {
          "duration": 0.09677400000001057,
          "durationTicks": 96,
          "midi": 38,
          "name": "D2",
          "ticks": 78528,
          "time": 79.161132,
          "velocity": 0.3937007874015748
        },
        {
          "duration": 0.09677399999999636,
          "durationTicks": 96,
          "midi": 36,
          "name": "C2",
          "ticks": 78720,
          "time": 79.35468,
          "velocity": 0.3937007874015748
        },
        {
          "duration": 0.09677400000001057,
          "durationTicks": 96,
          "midi": 38,
          "name": "D2",
          "ticks": 78912,
          "time": 79.548228,
          "velocity": 0.3937007874015748
        },
        {
          "duration": 0.09677399999999636,
          "durationTicks": 96,
          "midi": 36,
          "name": "C2",
          "ticks": 79104,
          "time": 79.741776,
          "velocity": 0.3937007874015748
        },
        {
          "duration": 0.09677400000001057,
          "durationTicks": 96,
          "midi": 38,
          "name": "D2",
          "ticks": 79296,
          "time": 79.935324,
          "velocity": 0.3937007874015748
        },
        {
          "duration": 0.09677399999999636,
          "durationTicks": 96,
          "midi": 36,
          "name": "C2",
          "ticks": 79488,
          "time": 80.128872,
          "velocity": 0.3937007874015748
        },
        {
          "duration": 0.09677400000001057,
          "durationTicks": 96,
          "midi": 38,
          "name": "D2",
          "ticks": 79680,
          "time": 80.32242,
          "velocity": 0.3937007874015748
        },
        {
          "duration": 0.09677399999999636,
          "durationTicks": 96,
          "midi": 36,
          "name": "C2",
          "ticks": 79872,
          "time": 80.515968,
          "velocity": 0.3937007874015748
        },
        {
          "duration": 0.09677400000001057,
          "durationTicks": 96,
          "midi": 38,
          "name": "D2",
          "ticks": 80064,
          "time": 80.709516,
          "velocity": 0.3937007874015748
        },
        {
          "duration": 0.09677399999999636,
          "durationTicks": 96,
          "midi": 36,
          "name": "C2",
          "ticks": 80256,
          "time": 80.903064,
          "velocity": 0.3937007874015748
        },
        {
          "duration": 0.09677400000001057,
          "durationTicks": 96,
          "midi": 38,
          "name": "D2",
          "ticks": 80448,
          "time": 81.096612,
          "velocity": 0.3937007874015748
        },
        {
          "duration": 0.09677399999999636,
          "durationTicks": 96,
          "midi": 36,
          "name": "C2",
          "ticks": 80640,
          "time": 81.29016,
          "velocity": 0.3937007874015748
        },
        {
          "duration": 0.09677400000001057,
          "durationTicks": 96,
          "midi": 38,
          "name": "D2",
          "ticks": 80832,
          "time": 81.483708,
          "velocity": 0.3937007874015748
        },
        {
          "duration": 0.09677399999999636,
          "durationTicks": 96,
          "midi": 36,
          "name": "C2",
          "ticks": 81024,
          "time": 81.677256,
          "velocity": 0.3937007874015748
        },
        {
          "duration": 0.09677400000001057,
          "durationTicks": 96,
          "midi": 38,
          "name": "D2",
          "ticks": 81216,
          "time": 81.87080399999999,
          "velocity": 0.3937007874015748
        },
        {
          "duration": 0.09677399999999636,
          "durationTicks": 96,
          "midi": 36,
          "name": "C2",
          "ticks": 81408,
          "time": 82.064352,
          "velocity": 0.3937007874015748
        },
        {
          "duration": 0.09677400000001057,
          "durationTicks": 96,
          "midi": 38,
          "name": "D2",
          "ticks": 81600,
          "time": 82.25789999999999,
          "velocity": 0.3937007874015748
        },
        {
          "duration": 0.09677399999999636,
          "durationTicks": 96,
          "midi": 36,
          "name": "C2",
          "ticks": 81792,
          "time": 82.451448,
          "velocity": 0.3937007874015748
        },
        {
          "duration": 0.09677399999999636,
          "durationTicks": 96,
          "midi": 38,
          "name": "D2",
          "ticks": 81984,
          "time": 82.644996,
          "velocity": 0.3937007874015748
        },
        {
          "duration": 0.09677399999999636,
          "durationTicks": 96,
          "midi": 36,
          "name": "C2",
          "ticks": 82176,
          "time": 82.838544,
          "velocity": 0.3937007874015748
        },
        {
          "duration": 0.09677399999999636,
          "durationTicks": 96,
          "midi": 38,
          "name": "D2",
          "ticks": 82368,
          "time": 83.032092,
          "velocity": 0.3937007874015748
        },
        {
          "duration": 0.09677399999999636,
          "durationTicks": 96,
          "midi": 36,
          "name": "C2",
          "ticks": 82560,
          "time": 83.22564,
          "velocity": 0.3937007874015748
        },
        {
          "duration": 0.09677399999999636,
          "durationTicks": 96,
          "midi": 38,
          "name": "D2",
          "ticks": 82752,
          "time": 83.419188,
          "velocity": 0.3937007874015748
        },
        {
          "duration": 0.09677399999999636,
          "durationTicks": 96,
          "midi": 36,
          "name": "C2",
          "ticks": 82944,
          "time": 83.612736,
          "velocity": 0.3937007874015748
        },
        {
          "duration": 0.09677399999999636,
          "durationTicks": 96,
          "midi": 38,
          "name": "D2",
          "ticks": 83136,
          "time": 83.806284,
          "velocity": 0.3937007874015748
        },
        {
          "duration": 0.09677399999999636,
          "durationTicks": 96,
          "midi": 36,
          "name": "C2",
          "ticks": 83328,
          "time": 83.999832,
          "velocity": 0.3937007874015748
        },
        {
          "duration": 0.09677399999999636,
          "durationTicks": 96,
          "midi": 38,
          "name": "D2",
          "ticks": 83520,
          "time": 84.19338,
          "velocity": 0.3937007874015748
        },
        {
          "duration": 0.09677399999999636,
          "durationTicks": 96,
          "midi": 36,
          "name": "C2",
          "ticks": 83712,
          "time": 84.386928,
          "velocity": 0.3937007874015748
        },
        {
          "duration": 0.09677399999999636,
          "durationTicks": 96,
          "midi": 38,
          "name": "D2",
          "ticks": 83904,
          "time": 84.580476,
          "velocity": 0.3937007874015748
        },
        {
          "duration": 0.09677399999999636,
          "durationTicks": 96,
          "midi": 36,
          "name": "C2",
          "ticks": 84096,
          "time": 84.774024,
          "velocity": 0.3937007874015748
        },
        {
          "duration": 0.09677399999999636,
          "durationTicks": 96,
          "midi": 38,
          "name": "D2",
          "ticks": 84288,
          "time": 84.967572,
          "velocity": 0.3937007874015748
        },
        {
          "duration": 0.09677399999999636,
          "durationTicks": 96,
          "midi": 36,
          "name": "C2",
          "ticks": 84480,
          "time": 85.16112,
          "velocity": 0.3937007874015748
        },
        {
          "duration": 0.09677399999999636,
          "durationTicks": 96,
          "midi": 38,
          "name": "D2",
          "ticks": 84672,
          "time": 85.354668,
          "velocity": 0.3937007874015748
        },
        {
          "duration": 0.09677399999999636,
          "durationTicks": 96,
          "midi": 36,
          "name": "C2",
          "ticks": 84864,
          "time": 85.548216,
          "velocity": 0.3937007874015748
        },
        {
          "duration": 0.09677399999999636,
          "durationTicks": 96,
          "midi": 38,
          "name": "D2",
          "ticks": 85056,
          "time": 85.741764,
          "velocity": 0.3937007874015748
        },
        {
          "duration": 0.09677399999999636,
          "durationTicks": 96,
          "midi": 36,
          "name": "C2",
          "ticks": 85248,
          "time": 85.935312,
          "velocity": 0.3937007874015748
        },
        {
          "duration": 0.09677399999999636,
          "durationTicks": 96,
          "midi": 38,
          "name": "D2",
          "ticks": 85440,
          "time": 86.12886,
          "velocity": 0.3937007874015748
        },
        {
          "duration": 0.09677399999999636,
          "durationTicks": 96,
          "midi": 36,
          "name": "C2",
          "ticks": 85632,
          "time": 86.322408,
          "velocity": 0.3937007874015748
        },
        {
          "duration": 0.09677399999999636,
          "durationTicks": 96,
          "midi": 38,
          "name": "D2",
          "ticks": 85824,
          "time": 86.515956,
          "velocity": 0.3937007874015748
        },
        {
          "duration": 0.09677400000001057,
          "durationTicks": 96,
          "midi": 36,
          "name": "C2",
          "ticks": 86016,
          "time": 86.709504,
          "velocity": 0.3937007874015748
        },
        {
          "duration": 0.09677399999999636,
          "durationTicks": 96,
          "midi": 38,
          "name": "D2",
          "ticks": 86208,
          "time": 86.903052,
          "velocity": 0.3937007874015748
        },
        {
          "duration": 0.09677400000001057,
          "durationTicks": 96,
          "midi": 36,
          "name": "C2",
          "ticks": 86400,
          "time": 87.0966,
          "velocity": 0.3937007874015748
        },
        {
          "duration": 0.09677399999999636,
          "durationTicks": 96,
          "midi": 38,
          "name": "D2",
          "ticks": 86592,
          "time": 87.290148,
          "velocity": 0.3937007874015748
        },
        {
          "duration": 0.09677400000001057,
          "durationTicks": 96,
          "midi": 36,
          "name": "C2",
          "ticks": 86784,
          "time": 87.483696,
          "velocity": 0.3937007874015748
        },
        {
          "duration": 0.09677399999999636,
          "durationTicks": 96,
          "midi": 38,
          "name": "D2",
          "ticks": 86976,
          "time": 87.677244,
          "velocity": 0.3937007874015748
        },
        {
          "duration": 0.09677400000001057,
          "durationTicks": 96,
          "midi": 36,
          "name": "C2",
          "ticks": 87168,
          "time": 87.870792,
          "velocity": 0.3937007874015748
        },
        {
          "duration": 0.09677399999999636,
          "durationTicks": 96,
          "midi": 38,
          "name": "D2",
          "ticks": 87360,
          "time": 88.06434,
          "velocity": 0.3937007874015748
        },
        {
          "duration": 0.09677400000001057,
          "durationTicks": 96,
          "midi": 36,
          "name": "C2",
          "ticks": 87552,
          "time": 88.257888,
          "velocity": 0.3937007874015748
        },
        {
          "duration": 0.09677399999999636,
          "durationTicks": 96,
          "midi": 38,
          "name": "D2",
          "ticks": 87744,
          "time": 88.451436,
          "velocity": 0.3937007874015748
        },
        {
          "duration": 0.09677400000001057,
          "durationTicks": 96,
          "midi": 36,
          "name": "C2",
          "ticks": 87936,
          "time": 88.644984,
          "velocity": 0.3937007874015748
        },
        {
          "duration": 0.09677399999999636,
          "durationTicks": 96,
          "midi": 38,
          "name": "D2",
          "ticks": 88128,
          "time": 88.838532,
          "velocity": 0.3937007874015748
        },
        {
          "duration": 0.09677400000001057,
          "durationTicks": 96,
          "midi": 36,
          "name": "C2",
          "ticks": 88320,
          "time": 89.03208,
          "velocity": 0.3937007874015748
        },
        {
          "duration": 0.09677399999999636,
          "durationTicks": 96,
          "midi": 38,
          "name": "D2",
          "ticks": 88512,
          "time": 89.225628,
          "velocity": 0.3937007874015748
        },
        {
          "duration": 0.09677400000001057,
          "durationTicks": 96,
          "midi": 36,
          "name": "C2",
          "ticks": 88704,
          "time": 89.419176,
          "velocity": 0.3937007874015748
        },
        {
          "duration": 0.09677399999999636,
          "durationTicks": 96,
          "midi": 38,
          "name": "D2",
          "ticks": 88896,
          "time": 89.612724,
          "velocity": 0.3937007874015748
        },
        {
          "duration": 0.09677400000001057,
          "durationTicks": 96,
          "midi": 36,
          "name": "C2",
          "ticks": 89088,
          "time": 89.80627199999999,
          "velocity": 0.3937007874015748
        },
        {
          "duration": 0.09677399999999636,
          "durationTicks": 96,
          "midi": 38,
          "name": "D2",
          "ticks": 89280,
          "time": 89.99982,
          "velocity": 0.3937007874015748
        },
        {
          "duration": 0.09677400000001057,
          "durationTicks": 96,
          "midi": 36,
          "name": "C2",
          "ticks": 89472,
          "time": 90.19336799999999,
          "velocity": 0.3937007874015748
        },
        {
          "duration": 0.09677399999999636,
          "durationTicks": 96,
          "midi": 38,
          "name": "D2",
          "ticks": 89664,
          "time": 90.386916,
          "velocity": 0.3937007874015748
        },
        {
          "duration": 0.09677400000001057,
          "durationTicks": 96,
          "midi": 36,
          "name": "C2",
          "ticks": 89856,
          "time": 90.58046399999999,
          "velocity": 0.3937007874015748
        },
        {
          "duration": 0.09677399999999636,
          "durationTicks": 96,
          "midi": 38,
          "name": "D2",
          "ticks": 90048,
          "time": 90.774012,
          "velocity": 0.3937007874015748
        },
        {
          "duration": 0.09677399999999636,
          "durationTicks": 96,
          "midi": 36,
          "name": "C2",
          "ticks": 90240,
          "time": 90.96756,
          "velocity": 0.3937007874015748
        },
        {
          "duration": 0.09677399999999636,
          "durationTicks": 96,
          "midi": 38,
          "name": "D2",
          "ticks": 90432,
          "time": 91.161108,
          "velocity": 0.3937007874015748
        },
        {
          "duration": 0.09677399999999636,
          "durationTicks": 96,
          "midi": 36,
          "name": "C2",
          "ticks": 90624,
          "time": 91.354656,
          "velocity": 0.3937007874015748
        },
        {
          "duration": 0.09677399999999636,
          "durationTicks": 96,
          "midi": 38,
          "name": "D2",
          "ticks": 90816,
          "time": 91.548204,
          "velocity": 0.3937007874015748
        },
        {
          "duration": 0.09677399999999636,
          "durationTicks": 96,
          "midi": 36,
          "name": "C2",
          "ticks": 91008,
          "time": 91.741752,
          "velocity": 0.3937007874015748
        },
        {
          "duration": 0.09677399999999636,
          "durationTicks": 96,
          "midi": 38,
          "name": "D2",
          "ticks": 91200,
          "time": 91.9353,
          "velocity": 0.3937007874015748
        },
        {
          "duration": 0.09677399999999636,
          "durationTicks": 96,
          "midi": 36,
          "name": "C2",
          "ticks": 91392,
          "time": 92.128848,
          "velocity": 0.3937007874015748
        },
        {
          "duration": 0.09677399999999636,
          "durationTicks": 96,
          "midi": 38,
          "name": "D2",
          "ticks": 91584,
          "time": 92.322396,
          "velocity": 0.3937007874015748
        },
        {
          "duration": 0.09677399999999636,
          "durationTicks": 96,
          "midi": 36,
          "name": "C2",
          "ticks": 91776,
          "time": 92.515944,
          "velocity": 0.3937007874015748
        },
        {
          "duration": 0.09677399999999636,
          "durationTicks": 96,
          "midi": 38,
          "name": "D2",
          "ticks": 91968,
          "time": 92.709492,
          "velocity": 0.3937007874015748
        },
        {
          "duration": 0.09677399999999636,
          "durationTicks": 96,
          "midi": 38,
          "name": "D2",
          "ticks": 92160,
          "time": 92.90304,
          "velocity": 0.3937007874015748
        },
        {
          "duration": 0.09677399999999636,
          "durationTicks": 96,
          "midi": 36,
          "name": "C2",
          "ticks": 92544,
          "time": 93.290136,
          "velocity": 0.3937007874015748
        },
        {
          "duration": 0.09677399999999636,
          "durationTicks": 96,
          "midi": 38,
          "name": "D2",
          "ticks": 92928,
          "time": 93.677232,
          "velocity": 0.3937007874015748
        },
        {
          "duration": 0.09677399999999636,
          "durationTicks": 96,
          "midi": 36,
          "name": "C2",
          "ticks": 93312,
          "time": 94.064328,
          "velocity": 0.3937007874015748
        },
        {
          "duration": 0.09677399999999636,
          "durationTicks": 96,
          "midi": 38,
          "name": "D2",
          "ticks": 93696,
          "time": 94.451424,
          "velocity": 0.3937007874015748
        },
        {
          "duration": 0.09677399999999636,
          "durationTicks": 96,
          "midi": 36,
          "name": "C2",
          "ticks": 93888,
          "time": 94.644972,
          "velocity": 0.3937007874015748
        },
        {
          "duration": 0.09677399999999636,
          "durationTicks": 96,
          "midi": 38,
          "name": "D2",
          "ticks": 94080,
          "time": 94.83852,
          "velocity": 0.3937007874015748
        },
        {
          "duration": 0.09677400000001057,
          "durationTicks": 96,
          "midi": 36,
          "name": "C2",
          "ticks": 94272,
          "time": 95.032068,
          "velocity": 0.3937007874015748
        },
        {
          "duration": 0.09677399999999636,
          "durationTicks": 96,
          "midi": 38,
          "name": "D2",
          "ticks": 94464,
          "time": 95.225616,
          "velocity": 0.3937007874015748
        },
        {
          "duration": 0.09677400000001057,
          "durationTicks": 96,
          "midi": 36,
          "name": "C2",
          "ticks": 94656,
          "time": 95.419164,
          "velocity": 0.3937007874015748
        },
        {
          "duration": 0.09677399999999636,
          "durationTicks": 96,
          "midi": 38,
          "name": "D2",
          "ticks": 94848,
          "time": 95.612712,
          "velocity": 0.3937007874015748
        },
        {
          "duration": 0.09677400000001057,
          "durationTicks": 96,
          "midi": 36,
          "name": "C2",
          "ticks": 95040,
          "time": 95.80626,
          "velocity": 0.3937007874015748
        },
        {
          "duration": 0.09677399999999636,
          "durationTicks": 96,
          "midi": 38,
          "name": "D2",
          "ticks": 95232,
          "time": 95.999808,
          "velocity": 0.3937007874015748
        },
        {
          "duration": 0.09677399999999636,
          "durationTicks": 96,
          "midi": 36,
          "name": "C2",
          "ticks": 95328,
          "time": 96.096582,
          "velocity": 0.3937007874015748
        },
        {
          "duration": 0.09677400000001057,
          "durationTicks": 96,
          "midi": 38,
          "name": "D2",
          "ticks": 95424,
          "time": 96.193356,
          "velocity": 0.3937007874015748
        },
        {
          "duration": 0.09677399999999636,
          "durationTicks": 96,
          "midi": 36,
          "name": "C2",
          "ticks": 95520,
          "time": 96.29013,
          "velocity": 0.3937007874015748
        },
        {
          "duration": 0.09677399999999636,
          "durationTicks": 96,
          "midi": 38,
          "name": "D2",
          "ticks": 95616,
          "time": 96.386904,
          "velocity": 0.3937007874015748
        },
        {
          "duration": 0.09677399999999636,
          "durationTicks": 96,
          "midi": 36,
          "name": "C2",
          "ticks": 95712,
          "time": 96.483678,
          "velocity": 0.3937007874015748
        },
        {
          "duration": 0.09677400000001057,
          "durationTicks": 96,
          "midi": 38,
          "name": "D2",
          "ticks": 95808,
          "time": 96.580452,
          "velocity": 0.3937007874015748
        },
        {
          "duration": 0.09677399999999636,
          "durationTicks": 96,
          "midi": 36,
          "name": "C2",
          "ticks": 95904,
          "time": 96.677226,
          "velocity": 0.3937007874015748
        },
        {
          "duration": 0.09677399999999636,
          "durationTicks": 96,
          "midi": 38,
          "name": "D2",
          "ticks": 96000,
          "time": 96.774,
          "velocity": 0.3937007874015748
        },
        {
          "duration": 0.09677399999999636,
          "durationTicks": 96,
          "midi": 36,
          "name": "C2",
          "ticks": 96096,
          "time": 96.870774,
          "velocity": 0.3937007874015748
        },
        {
          "duration": 0.09677400000001057,
          "durationTicks": 96,
          "midi": 38,
          "name": "D2",
          "ticks": 96192,
          "time": 96.967548,
          "velocity": 0.3937007874015748
        },
        {
          "duration": 0.09677399999999636,
          "durationTicks": 96,
          "midi": 36,
          "name": "C2",
          "ticks": 96288,
          "time": 97.064322,
          "velocity": 0.3937007874015748
        },
        {
          "duration": 0.09677399999999636,
          "durationTicks": 96,
          "midi": 38,
          "name": "D2",
          "ticks": 96384,
          "time": 97.161096,
          "velocity": 0.3937007874015748
        },
        {
          "duration": 0.09677399999999636,
          "durationTicks": 96,
          "midi": 36,
          "name": "C2",
          "ticks": 96480,
          "time": 97.25787,
          "velocity": 0.3937007874015748
        },
        {
          "duration": 0.09677400000001057,
          "durationTicks": 96,
          "midi": 38,
          "name": "D2",
          "ticks": 96576,
          "time": 97.354644,
          "velocity": 0.3937007874015748
        },
        {
          "duration": 0.09677399999999636,
          "durationTicks": 96,
          "midi": 36,
          "name": "C2",
          "ticks": 96672,
          "time": 97.451418,
          "velocity": 0.3937007874015748
        },
        {
          "duration": 0.09677399999999636,
          "durationTicks": 96,
          "midi": 36,
          "name": "C2",
          "ticks": 96768,
          "time": 97.548192,
          "velocity": 0.3937007874015748
        },
        {
          "duration": 0.09677400000001057,
          "durationTicks": 96,
          "midi": 38,
          "name": "D2",
          "ticks": 96960,
          "time": 97.74174,
          "velocity": 0.3937007874015748
        },
        {
          "duration": 0.09677399999999636,
          "durationTicks": 96,
          "midi": 36,
          "name": "C2",
          "ticks": 97152,
          "time": 97.935288,
          "velocity": 0.3937007874015748
        },
        {
          "duration": 0.09677400000001057,
          "durationTicks": 96,
          "midi": 38,
          "name": "D2",
          "ticks": 97344,
          "time": 98.12883599999999,
          "velocity": 0.3937007874015748
        },
        {
          "duration": 0.09677399999999636,
          "durationTicks": 96,
          "midi": 36,
          "name": "C2",
          "ticks": 97536,
          "time": 98.322384,
          "velocity": 0.3937007874015748
        },
        {
          "duration": 0.09677400000001057,
          "durationTicks": 96,
          "midi": 38,
          "name": "D2",
          "ticks": 97728,
          "time": 98.51593199999999,
          "velocity": 0.3937007874015748
        },
        {
          "duration": 0.09677399999999636,
          "durationTicks": 96,
          "midi": 36,
          "name": "C2",
          "ticks": 97920,
          "time": 98.70948,
          "velocity": 0.3937007874015748
        },
        {
          "duration": 0.09677400000001057,
          "durationTicks": 96,
          "midi": 38,
          "name": "D2",
          "ticks": 98112,
          "time": 98.90302799999999,
          "velocity": 0.3937007874015748
        },
        {
          "duration": 0.09677399999999636,
          "durationTicks": 96,
          "midi": 36,
          "name": "C2",
          "ticks": 98304,
          "time": 99.096576,
          "velocity": 0.3937007874015748
        },
        {
          "duration": 0.09677399999999636,
          "durationTicks": 96,
          "midi": 38,
          "name": "D2",
          "ticks": 98496,
          "time": 99.290124,
          "velocity": 0.3937007874015748
        },
        {
          "duration": 0.09677399999999636,
          "durationTicks": 96,
          "midi": 36,
          "name": "C2",
          "ticks": 98688,
          "time": 99.483672,
          "velocity": 0.3937007874015748
        },
        {
          "duration": 0.09677399999999636,
          "durationTicks": 96,
          "midi": 38,
          "name": "D2",
          "ticks": 98880,
          "time": 99.67722,
          "velocity": 0.3937007874015748
        },
        {
          "duration": 0.09677399999999636,
          "durationTicks": 96,
          "midi": 36,
          "name": "C2",
          "ticks": 99072,
          "time": 99.870768,
          "velocity": 0.3937007874015748
        },
        {
          "duration": 0.09677399999999636,
          "durationTicks": 96,
          "midi": 38,
          "name": "D2",
          "ticks": 99264,
          "time": 100.064316,
          "velocity": 0.3937007874015748
        },
        {
          "duration": 0.09677399999999636,
          "durationTicks": 96,
          "midi": 36,
          "name": "C2",
          "ticks": 99456,
          "time": 100.257864,
          "velocity": 0.3937007874015748
        },
        {
          "duration": 0.09677399999999636,
          "durationTicks": 96,
          "midi": 38,
          "name": "D2",
          "ticks": 99648,
          "time": 100.451412,
          "velocity": 0.3937007874015748
        },
        {
          "duration": 0.09677399999999636,
          "durationTicks": 96,
          "midi": 36,
          "name": "C2",
          "ticks": 99840,
          "time": 100.64496,
          "velocity": 0.3937007874015748
        },
        {
          "duration": 0.09677399999999636,
          "durationTicks": 96,
          "midi": 38,
          "name": "D2",
          "ticks": 100032,
          "time": 100.838508,
          "velocity": 0.3937007874015748
        },
        {
          "duration": 0.09677399999999636,
          "durationTicks": 96,
          "midi": 36,
          "name": "C2",
          "ticks": 100224,
          "time": 101.032056,
          "velocity": 0.3937007874015748
        },
        {
          "duration": 0.09677399999999636,
          "durationTicks": 96,
          "midi": 38,
          "name": "D2",
          "ticks": 100416,
          "time": 101.225604,
          "velocity": 0.3937007874015748
        },
        {
          "duration": 0.09677399999999636,
          "durationTicks": 96,
          "midi": 36,
          "name": "C2",
          "ticks": 100608,
          "time": 101.419152,
          "velocity": 0.3937007874015748
        },
        {
          "duration": 0.09677399999999636,
          "durationTicks": 96,
          "midi": 38,
          "name": "D2",
          "ticks": 100800,
          "time": 101.6127,
          "velocity": 0.3937007874015748
        },
        {
          "duration": 0.09677399999999636,
          "durationTicks": 96,
          "midi": 36,
          "name": "C2",
          "ticks": 100992,
          "time": 101.806248,
          "velocity": 0.3937007874015748
        },
        {
          "duration": 0.09677399999999636,
          "durationTicks": 96,
          "midi": 38,
          "name": "D2",
          "ticks": 101184,
          "time": 101.999796,
          "velocity": 0.3937007874015748
        },
        {
          "duration": 0.09677399999999636,
          "durationTicks": 96,
          "midi": 36,
          "name": "C2",
          "ticks": 101376,
          "time": 102.193344,
          "velocity": 0.3937007874015748
        },
        {
          "duration": 0.09677399999999636,
          "durationTicks": 96,
          "midi": 38,
          "name": "D2",
          "ticks": 101568,
          "time": 102.386892,
          "velocity": 0.3937007874015748
        },
        {
          "duration": 0.09677399999999636,
          "durationTicks": 96,
          "midi": 36,
          "name": "C2",
          "ticks": 101760,
          "time": 102.58044,
          "velocity": 0.3937007874015748
        },
        {
          "duration": 0.09677399999999636,
          "durationTicks": 96,
          "midi": 38,
          "name": "D2",
          "ticks": 101952,
          "time": 102.773988,
          "velocity": 0.3937007874015748
        },
        {
          "duration": 0.09677399999999636,
          "durationTicks": 96,
          "midi": 36,
          "name": "C2",
          "ticks": 102144,
          "time": 102.967536,
          "velocity": 0.3937007874015748
        },
        {
          "duration": 0.09677399999999636,
          "durationTicks": 96,
          "midi": 38,
          "name": "D2",
          "ticks": 102336,
          "time": 103.161084,
          "velocity": 0.3937007874015748
        },
        {
          "duration": 0.09677400000001057,
          "durationTicks": 96,
          "midi": 36,
          "name": "C2",
          "ticks": 102528,
          "time": 103.354632,
          "velocity": 0.3937007874015748
        },
        {
          "duration": 0.09677399999999636,
          "durationTicks": 96,
          "midi": 38,
          "name": "D2",
          "ticks": 102720,
          "time": 103.54818,
          "velocity": 0.3937007874015748
        },
        {
          "duration": 0.09677400000001057,
          "durationTicks": 96,
          "midi": 36,
          "name": "C2",
          "ticks": 102912,
          "time": 103.741728,
          "velocity": 0.3937007874015748
        },
        {
          "duration": 0.09677399999999636,
          "durationTicks": 96,
          "midi": 38,
          "name": "D2",
          "ticks": 103104,
          "time": 103.935276,
          "velocity": 0.3937007874015748
        },
        {
          "duration": 0.09677400000001057,
          "durationTicks": 96,
          "midi": 36,
          "name": "C2",
          "ticks": 103296,
          "time": 104.128824,
          "velocity": 0.3937007874015748
        },
        {
          "duration": 0.09677399999999636,
          "durationTicks": 96,
          "midi": 38,
          "name": "D2",
          "ticks": 103488,
          "time": 104.322372,
          "velocity": 0.3937007874015748
        },
        {
          "duration": 0.09677400000001057,
          "durationTicks": 96,
          "midi": 36,
          "name": "C2",
          "ticks": 103680,
          "time": 104.51592,
          "velocity": 0.3937007874015748
        },
        {
          "duration": 0.09677399999999636,
          "durationTicks": 96,
          "midi": 38,
          "name": "D2",
          "ticks": 103872,
          "time": 104.709468,
          "velocity": 0.3937007874015748
        },
        {
          "duration": 0.09677400000001057,
          "durationTicks": 96,
          "midi": 36,
          "name": "C2",
          "ticks": 104064,
          "time": 104.903016,
          "velocity": 0.3937007874015748
        },
        {
          "duration": 0.09677399999999636,
          "durationTicks": 96,
          "midi": 38,
          "name": "D2",
          "ticks": 104256,
          "time": 105.096564,
          "velocity": 0.3937007874015748
        },
        {
          "duration": 0.09677400000001057,
          "durationTicks": 96,
          "midi": 36,
          "name": "C2",
          "ticks": 104448,
          "time": 105.290112,
          "velocity": 0.3937007874015748
        },
        {
          "duration": 0.09677399999999636,
          "durationTicks": 96,
          "midi": 38,
          "name": "D2",
          "ticks": 104640,
          "time": 105.48366,
          "velocity": 0.3937007874015748
        },
        {
          "duration": 0.09677400000001057,
          "durationTicks": 96,
          "midi": 36,
          "name": "C2",
          "ticks": 104832,
          "time": 105.677208,
          "velocity": 0.3937007874015748
        },
        {
          "duration": 0.09677399999999636,
          "durationTicks": 96,
          "midi": 38,
          "name": "D2",
          "ticks": 105024,
          "time": 105.870756,
          "velocity": 0.3937007874015748
        },
        {
          "duration": 0.09677400000001057,
          "durationTicks": 96,
          "midi": 36,
          "name": "C2",
          "ticks": 105216,
          "time": 106.06430399999999,
          "velocity": 0.3937007874015748
        },
        {
          "duration": 0.09677399999999636,
          "durationTicks": 96,
          "midi": 38,
          "name": "D2",
          "ticks": 105408,
          "time": 106.257852,
          "velocity": 0.3937007874015748
        },
        {
          "duration": 0.09677400000001057,
          "durationTicks": 96,
          "midi": 36,
          "name": "C2",
          "ticks": 105600,
          "time": 106.45139999999999,
          "velocity": 0.3937007874015748
        },
        {
          "duration": 0.09677399999999636,
          "durationTicks": 96,
          "midi": 38,
          "name": "D2",
          "ticks": 105792,
          "time": 106.644948,
          "velocity": 0.3937007874015748
        },
        {
          "duration": 0.09677400000001057,
          "durationTicks": 96,
          "midi": 36,
          "name": "C2",
          "ticks": 105984,
          "time": 106.83849599999999,
          "velocity": 0.3937007874015748
        },
        {
          "duration": 0.09677399999999636,
          "durationTicks": 96,
          "midi": 38,
          "name": "D2",
          "ticks": 106176,
          "time": 107.032044,
          "velocity": 0.3937007874015748
        },
        {
          "duration": 0.09677400000001057,
          "durationTicks": 96,
          "midi": 36,
          "name": "C2",
          "ticks": 106368,
          "time": 107.22559199999999,
          "velocity": 0.3937007874015748
        },
        {
          "duration": 0.09677399999999636,
          "durationTicks": 96,
          "midi": 38,
          "name": "D2",
          "ticks": 106560,
          "time": 107.41914,
          "velocity": 0.3937007874015748
        },
        {
          "duration": 0.09677399999999636,
          "durationTicks": 96,
          "midi": 36,
          "name": "C2",
          "ticks": 106752,
          "time": 107.612688,
          "velocity": 0.3937007874015748
        },
        {
          "duration": 0.09677399999999636,
          "durationTicks": 96,
          "midi": 38,
          "name": "D2",
          "ticks": 106944,
          "time": 107.806236,
          "velocity": 0.3937007874015748
        },
        {
          "duration": 0.09677399999999636,
          "durationTicks": 96,
          "midi": 36,
          "name": "C2",
          "ticks": 107136,
          "time": 107.999784,
          "velocity": 0.3937007874015748
        },
        {
          "duration": 0.09677399999999636,
          "durationTicks": 96,
          "midi": 38,
          "name": "D2",
          "ticks": 107328,
          "time": 108.193332,
          "velocity": 0.3937007874015748
        },
        {
          "duration": 0.09677399999999636,
          "durationTicks": 96,
          "midi": 36,
          "name": "C2",
          "ticks": 107520,
          "time": 108.38688,
          "velocity": 0.3937007874015748
        },
        {
          "duration": 0.09677399999999636,
          "durationTicks": 96,
          "midi": 38,
          "name": "D2",
          "ticks": 107712,
          "time": 108.580428,
          "velocity": 0.3937007874015748
        },
        {
          "duration": 0.09677399999999636,
          "durationTicks": 96,
          "midi": 36,
          "name": "C2",
          "ticks": 107904,
          "time": 108.773976,
          "velocity": 0.3937007874015748
        },
        {
          "duration": 0.09677399999999636,
          "durationTicks": 96,
          "midi": 38,
          "name": "D2",
          "ticks": 108096,
          "time": 108.967524,
          "velocity": 0.3937007874015748
        },
        {
          "duration": 0.09677399999999636,
          "durationTicks": 96,
          "midi": 36,
          "name": "C2",
          "ticks": 108288,
          "time": 109.161072,
          "velocity": 0.3937007874015748
        },
        {
          "duration": 0.09677399999999636,
          "durationTicks": 96,
          "midi": 38,
          "name": "D2",
          "ticks": 108480,
          "time": 109.35462,
          "velocity": 0.3937007874015748
        },
        {
          "duration": 0.09677399999999636,
          "durationTicks": 96,
          "midi": 36,
          "name": "C2",
          "ticks": 108672,
          "time": 109.548168,
          "velocity": 0.3937007874015748
        },
        {
          "duration": 0.09677399999999636,
          "durationTicks": 96,
          "midi": 38,
          "name": "D2",
          "ticks": 108864,
          "time": 109.741716,
          "velocity": 0.3937007874015748
        },
        {
          "duration": 0.09677399999999636,
          "durationTicks": 96,
          "midi": 36,
          "name": "C2",
          "ticks": 109056,
          "time": 109.935264,
          "velocity": 0.3937007874015748
        },
        {
          "duration": 0.09677399999999636,
          "durationTicks": 96,
          "midi": 36,
          "name": "C2",
          "ticks": 109056,
          "time": 109.935264,
          "velocity": 0.3937007874015748
        },
        {
          "duration": 0.09677399999999636,
          "durationTicks": 96,
          "midi": 38,
          "name": "D2",
          "ticks": 109248,
          "time": 110.128812,
          "velocity": 0.3937007874015748
        },
        {
          "duration": 0.09677399999999636,
          "durationTicks": 96,
          "midi": 38,
          "name": "D2",
          "ticks": 109248,
          "time": 110.128812,
          "velocity": 0.3937007874015748
        },
        {
          "duration": 0.09677399999999636,
          "durationTicks": 96,
          "midi": 36,
          "name": "C2",
          "ticks": 109440,
          "time": 110.32236,
          "velocity": 0.3937007874015748
        },
        {
          "duration": 0.09677399999999636,
          "durationTicks": 96,
          "midi": 36,
          "name": "C2",
          "ticks": 109440,
          "time": 110.32236,
          "velocity": 0.3937007874015748
        },
        {
          "duration": 0.09677399999999636,
          "durationTicks": 96,
          "midi": 38,
          "name": "D2",
          "ticks": 109632,
          "time": 110.515908,
          "velocity": 0.3937007874015748
        },
        {
          "duration": 0.09677399999999636,
          "durationTicks": 96,
          "midi": 38,
          "name": "D2",
          "ticks": 109632,
          "time": 110.515908,
          "velocity": 0.3937007874015748
        },
        {
          "duration": 0.09677399999999636,
          "durationTicks": 96,
          "midi": 36,
          "name": "C2",
          "ticks": 109824,
          "time": 110.709456,
          "velocity": 0.3937007874015748
        },
        {
          "duration": 0.09677399999999636,
          "durationTicks": 96,
          "midi": 36,
          "name": "C2",
          "ticks": 109824,
          "time": 110.709456,
          "velocity": 0.3937007874015748
        },
        {
          "duration": 0.09677399999999636,
          "durationTicks": 96,
          "midi": 38,
          "name": "D2",
          "ticks": 110016,
          "time": 110.903004,
          "velocity": 0.3937007874015748
        },
        {
          "duration": 0.09677399999999636,
          "durationTicks": 96,
          "midi": 38,
          "name": "D2",
          "ticks": 110016,
          "time": 110.903004,
          "velocity": 0.3937007874015748
        },
        {
          "duration": 0.09677399999999636,
          "durationTicks": 96,
          "midi": 36,
          "name": "C2",
          "ticks": 110208,
          "time": 111.096552,
          "velocity": 0.3937007874015748
        },
        {
          "duration": 0.09677399999999636,
          "durationTicks": 96,
          "midi": 36,
          "name": "C2",
          "ticks": 110208,
          "time": 111.096552,
          "velocity": 0.3937007874015748
        },
        {
          "duration": 0.09677399999999636,
          "durationTicks": 96,
          "midi": 38,
          "name": "D2",
          "ticks": 110400,
          "time": 111.2901,
          "velocity": 0.3937007874015748
        },
        {
          "duration": 0.09677399999999636,
          "durationTicks": 96,
          "midi": 38,
          "name": "D2",
          "ticks": 110400,
          "time": 111.2901,
          "velocity": 0.3937007874015748
        },
        {
          "duration": 0.09677399999999636,
          "durationTicks": 96,
          "midi": 36,
          "name": "C2",
          "ticks": 110592,
          "time": 111.483648,
          "velocity": 0.3937007874015748
        },
        {
          "duration": 0.09677399999999636,
          "durationTicks": 96,
          "midi": 36,
          "name": "C2",
          "ticks": 110592,
          "time": 111.483648,
          "velocity": 0.3937007874015748
        },
        {
          "duration": 0.09677400000001057,
          "durationTicks": 96,
          "midi": 38,
          "name": "D2",
          "ticks": 110784,
          "time": 111.677196,
          "velocity": 0.3937007874015748
        },
        {
          "duration": 0.09677400000001057,
          "durationTicks": 96,
          "midi": 38,
          "name": "D2",
          "ticks": 110784,
          "time": 111.677196,
          "velocity": 0.3937007874015748
        },
        {
          "duration": 0.09677399999999636,
          "durationTicks": 96,
          "midi": 36,
          "name": "C2",
          "ticks": 110976,
          "time": 111.870744,
          "velocity": 0.3937007874015748
        },
        {
          "duration": 0.09677399999999636,
          "durationTicks": 96,
          "midi": 36,
          "name": "C2",
          "ticks": 110976,
          "time": 111.870744,
          "velocity": 0.3937007874015748
        },
        {
          "duration": 0.09677400000001057,
          "durationTicks": 96,
          "midi": 38,
          "name": "D2",
          "ticks": 111168,
          "time": 112.064292,
          "velocity": 0.3937007874015748
        },
        {
          "duration": 0.09677400000001057,
          "durationTicks": 96,
          "midi": 38,
          "name": "D2",
          "ticks": 111168,
          "time": 112.064292,
          "velocity": 0.3937007874015748
        },
        {
          "duration": 0.09677399999999636,
          "durationTicks": 96,
          "midi": 36,
          "name": "C2",
          "ticks": 111360,
          "time": 112.25784,
          "velocity": 0.3937007874015748
        },
        {
          "duration": 0.09677399999999636,
          "durationTicks": 96,
          "midi": 36,
          "name": "C2",
          "ticks": 111360,
          "time": 112.25784,
          "velocity": 0.3937007874015748
        },
        {
          "duration": 0.09677400000001057,
          "durationTicks": 96,
          "midi": 38,
          "name": "D2",
          "ticks": 111552,
          "time": 112.451388,
          "velocity": 0.3937007874015748
        },
        {
          "duration": 0.09677400000001057,
          "durationTicks": 96,
          "midi": 38,
          "name": "D2",
          "ticks": 111552,
          "time": 112.451388,
          "velocity": 0.3937007874015748
        },
        {
          "duration": 0.09677399999999636,
          "durationTicks": 96,
          "midi": 36,
          "name": "C2",
          "ticks": 111744,
          "time": 112.644936,
          "velocity": 0.3937007874015748
        },
        {
          "duration": 0.09677399999999636,
          "durationTicks": 96,
          "midi": 36,
          "name": "C2",
          "ticks": 111744,
          "time": 112.644936,
          "velocity": 0.3937007874015748
        },
        {
          "duration": 0.09677400000001057,
          "durationTicks": 96,
          "midi": 38,
          "name": "D2",
          "ticks": 111936,
          "time": 112.838484,
          "velocity": 0.3937007874015748
        },
        {
          "duration": 0.09677400000001057,
          "durationTicks": 96,
          "midi": 38,
          "name": "D2",
          "ticks": 111936,
          "time": 112.838484,
          "velocity": 0.3937007874015748
        },
        {
          "duration": 0.09677399999999636,
          "durationTicks": 96,
          "midi": 36,
          "name": "C2",
          "ticks": 112128,
          "time": 113.032032,
          "velocity": 0.3937007874015748
        },
        {
          "duration": 0.09677399999999636,
          "durationTicks": 96,
          "midi": 36,
          "name": "C2",
          "ticks": 112128,
          "time": 113.032032,
          "velocity": 0.3937007874015748
        },
        {
          "duration": 0.09677400000001057,
          "durationTicks": 96,
          "midi": 38,
          "name": "D2",
          "ticks": 112320,
          "time": 113.22558,
          "velocity": 0.3937007874015748
        },
        {
          "duration": 0.09677400000001057,
          "durationTicks": 96,
          "midi": 38,
          "name": "D2",
          "ticks": 112320,
          "time": 113.22558,
          "velocity": 0.3937007874015748
        },
        {
          "duration": 0.09677399999999636,
          "durationTicks": 96,
          "midi": 36,
          "name": "C2",
          "ticks": 112512,
          "time": 113.419128,
          "velocity": 0.3937007874015748
        },
        {
          "duration": 0.09677399999999636,
          "durationTicks": 96,
          "midi": 36,
          "name": "C2",
          "ticks": 112512,
          "time": 113.419128,
          "velocity": 0.3937007874015748
        },
        {
          "duration": 0.09677400000001057,
          "durationTicks": 96,
          "midi": 38,
          "name": "D2",
          "ticks": 112704,
          "time": 113.612676,
          "velocity": 0.3937007874015748
        },
        {
          "duration": 0.09677400000001057,
          "durationTicks": 96,
          "midi": 38,
          "name": "D2",
          "ticks": 112704,
          "time": 113.612676,
          "velocity": 0.3937007874015748
        },
        {
          "duration": 0.09677399999999636,
          "durationTicks": 96,
          "midi": 36,
          "name": "C2",
          "ticks": 112896,
          "time": 113.806224,
          "velocity": 0.3937007874015748
        },
        {
          "duration": 0.09677399999999636,
          "durationTicks": 96,
          "midi": 36,
          "name": "C2",
          "ticks": 112896,
          "time": 113.806224,
          "velocity": 0.3937007874015748
        },
        {
          "duration": 0.09677400000001057,
          "durationTicks": 96,
          "midi": 38,
          "name": "D2",
          "ticks": 113088,
          "time": 113.999772,
          "velocity": 0.3937007874015748
        },
        {
          "duration": 0.09677400000001057,
          "durationTicks": 96,
          "midi": 38,
          "name": "D2",
          "ticks": 113088,
          "time": 113.999772,
          "velocity": 0.3937007874015748
        },
        {
          "duration": 0.09677399999999636,
          "durationTicks": 96,
          "midi": 36,
          "name": "C2",
          "ticks": 113280,
          "time": 114.19332,
          "velocity": 0.3937007874015748
        },
        {
          "duration": 0.09677399999999636,
          "durationTicks": 96,
          "midi": 36,
          "name": "C2",
          "ticks": 113280,
          "time": 114.19332,
          "velocity": 0.3937007874015748
        },
        {
          "duration": 0.09677400000001057,
          "durationTicks": 96,
          "midi": 38,
          "name": "D2",
          "ticks": 113472,
          "time": 114.38686799999999,
          "velocity": 0.3937007874015748
        },
        {
          "duration": 0.09677400000001057,
          "durationTicks": 96,
          "midi": 38,
          "name": "D2",
          "ticks": 113472,
          "time": 114.38686799999999,
          "velocity": 0.3937007874015748
        },
        {
          "duration": 0.09677399999999636,
          "durationTicks": 96,
          "midi": 36,
          "name": "C2",
          "ticks": 113664,
          "time": 114.580416,
          "velocity": 0.3937007874015748
        },
        {
          "duration": 0.09677399999999636,
          "durationTicks": 96,
          "midi": 36,
          "name": "C2",
          "ticks": 113664,
          "time": 114.580416,
          "velocity": 0.3937007874015748
        },
        {
          "duration": 0.09677400000001057,
          "durationTicks": 96,
          "midi": 38,
          "name": "D2",
          "ticks": 113856,
          "time": 114.77396399999999,
          "velocity": 0.3937007874015748
        },
        {
          "duration": 0.09677400000001057,
          "durationTicks": 96,
          "midi": 38,
          "name": "D2",
          "ticks": 113856,
          "time": 114.77396399999999,
          "velocity": 0.3937007874015748
        },
        {
          "duration": 0.09677399999999636,
          "durationTicks": 96,
          "midi": 36,
          "name": "C2",
          "ticks": 114048,
          "time": 114.967512,
          "velocity": 0.3937007874015748
        },
        {
          "duration": 0.09677399999999636,
          "durationTicks": 96,
          "midi": 36,
          "name": "C2",
          "ticks": 114048,
          "time": 114.967512,
          "velocity": 0.3937007874015748
        },
        {
          "duration": 0.09677400000001057,
          "durationTicks": 96,
          "midi": 38,
          "name": "D2",
          "ticks": 114240,
          "time": 115.16105999999999,
          "velocity": 0.3937007874015748
        },
        {
          "duration": 0.09677400000001057,
          "durationTicks": 96,
          "midi": 38,
          "name": "D2",
          "ticks": 114240,
          "time": 115.16105999999999,
          "velocity": 0.3937007874015748
        },
        {
          "duration": 0.09677399999999636,
          "durationTicks": 96,
          "midi": 36,
          "name": "C2",
          "ticks": 114432,
          "time": 115.354608,
          "velocity": 0.3937007874015748
        },
        {
          "duration": 0.09677399999999636,
          "durationTicks": 96,
          "midi": 36,
          "name": "C2",
          "ticks": 114432,
          "time": 115.354608,
          "velocity": 0.3937007874015748
        },
        {
          "duration": 0.09677400000001057,
          "durationTicks": 96,
          "midi": 38,
          "name": "D2",
          "ticks": 114624,
          "time": 115.54815599999999,
          "velocity": 0.3937007874015748
        },
        {
          "duration": 0.09677400000001057,
          "durationTicks": 96,
          "midi": 38,
          "name": "D2",
          "ticks": 114624,
          "time": 115.54815599999999,
          "velocity": 0.3937007874015748
        },
        {
          "duration": 0.09677399999999636,
          "durationTicks": 96,
          "midi": 36,
          "name": "C2",
          "ticks": 114816,
          "time": 115.741704,
          "velocity": 0.3937007874015748
        },
        {
          "duration": 0.09677399999999636,
          "durationTicks": 96,
          "midi": 36,
          "name": "C2",
          "ticks": 114816,
          "time": 115.741704,
          "velocity": 0.3937007874015748
        },
        {
          "duration": 0.09677399999999636,
          "durationTicks": 96,
          "midi": 38,
          "name": "D2",
          "ticks": 115008,
          "time": 115.935252,
          "velocity": 0.3937007874015748
        },
        {
          "duration": 0.09677399999999636,
          "durationTicks": 96,
          "midi": 38,
          "name": "D2",
          "ticks": 115008,
          "time": 115.935252,
          "velocity": 0.3937007874015748
        },
        {
          "duration": 0.09677399999999636,
          "durationTicks": 96,
          "midi": 36,
          "name": "C2",
          "ticks": 115200,
          "time": 116.1288,
          "velocity": 0.3937007874015748
        },
        {
          "duration": 0.09677399999999636,
          "durationTicks": 96,
          "midi": 38,
          "name": "D2",
          "ticks": 115392,
          "time": 116.322348,
          "velocity": 0.3937007874015748
        },
        {
          "duration": 0.09677399999999636,
          "durationTicks": 96,
          "midi": 36,
          "name": "C2",
          "ticks": 115584,
          "time": 116.515896,
          "velocity": 0.3937007874015748
        },
        {
          "duration": 0.09677399999999636,
          "durationTicks": 96,
          "midi": 38,
          "name": "D2",
          "ticks": 115776,
          "time": 116.709444,
          "velocity": 0.3937007874015748
        },
        {
          "duration": 0.09677399999999636,
          "durationTicks": 96,
          "midi": 36,
          "name": "C2",
          "ticks": 115968,
          "time": 116.902992,
          "velocity": 0.3937007874015748
        },
        {
          "duration": 0.09677399999999636,
          "durationTicks": 96,
          "midi": 38,
          "name": "D2",
          "ticks": 116160,
          "time": 117.09654,
          "velocity": 0.3937007874015748
        },
        {
          "duration": 0.09677399999999636,
          "durationTicks": 96,
          "midi": 36,
          "name": "C2",
          "ticks": 116352,
          "time": 117.290088,
          "velocity": 0.3937007874015748
        },
        {
          "duration": 0.09677399999999636,
          "durationTicks": 96,
          "midi": 38,
          "name": "D2",
          "ticks": 116544,
          "time": 117.483636,
          "velocity": 0.3937007874015748
        },
        {
          "duration": 0.09677399999999636,
          "durationTicks": 96,
          "midi": 36,
          "name": "C2",
          "ticks": 116736,
          "time": 117.677184,
          "velocity": 0.3937007874015748
        },
        {
          "duration": 0.09677399999999636,
          "durationTicks": 96,
          "midi": 38,
          "name": "D2",
          "ticks": 116928,
          "time": 117.870732,
          "velocity": 0.3937007874015748
        },
        {
          "duration": 0.09677399999999636,
          "durationTicks": 96,
          "midi": 36,
          "name": "C2",
          "ticks": 117120,
          "time": 118.06428,
          "velocity": 0.3937007874015748
        },
        {
          "duration": 0.09677399999999636,
          "durationTicks": 96,
          "midi": 38,
          "name": "D2",
          "ticks": 117312,
          "time": 118.257828,
          "velocity": 0.3937007874015748
        },
        {
          "duration": 0.09677399999999636,
          "durationTicks": 96,
          "midi": 36,
          "name": "C2",
          "ticks": 117504,
          "time": 118.451376,
          "velocity": 0.3937007874015748
        },
        {
          "duration": 0.09677399999999636,
          "durationTicks": 96,
          "midi": 38,
          "name": "D2",
          "ticks": 117696,
          "time": 118.644924,
          "velocity": 0.3937007874015748
        },
        {
          "duration": 0.09677399999999636,
          "durationTicks": 96,
          "midi": 36,
          "name": "C2",
          "ticks": 117888,
          "time": 118.838472,
          "velocity": 0.3937007874015748
        },
        {
          "duration": 0.09677399999999636,
          "durationTicks": 96,
          "midi": 38,
          "name": "D2",
          "ticks": 118080,
          "time": 119.03202,
          "velocity": 0.3937007874015748
        },
        {
          "duration": 0.09677399999999636,
          "durationTicks": 96,
          "midi": 36,
          "name": "C2",
          "ticks": 118272,
          "time": 119.225568,
          "velocity": 0.3937007874015748
        },
        {
          "duration": 0.09677399999999636,
          "durationTicks": 96,
          "midi": 38,
          "name": "D2",
          "ticks": 118464,
          "time": 119.419116,
          "velocity": 0.3937007874015748
        },
        {
          "duration": 0.09677399999999636,
          "durationTicks": 96,
          "midi": 36,
          "name": "C2",
          "ticks": 118656,
          "time": 119.612664,
          "velocity": 0.3937007874015748
        },
        {
          "duration": 0.09677399999999636,
          "durationTicks": 96,
          "midi": 38,
          "name": "D2",
          "ticks": 118848,
          "time": 119.806212,
          "velocity": 0.3937007874015748
        },
        {
          "duration": 0.09677400000001057,
          "durationTicks": 96,
          "midi": 36,
          "name": "C2",
          "ticks": 119040,
          "time": 119.99976,
          "velocity": 0.3937007874015748
        },
        {
          "duration": 0.09677399999999636,
          "durationTicks": 96,
          "midi": 38,
          "name": "D2",
          "ticks": 119232,
          "time": 120.193308,
          "velocity": 0.3937007874015748
        },
        {
          "duration": 0.09677400000001057,
          "durationTicks": 96,
          "midi": 36,
          "name": "C2",
          "ticks": 119424,
          "time": 120.386856,
          "velocity": 0.3937007874015748
        },
        {
          "duration": 0.09677399999999636,
          "durationTicks": 96,
          "midi": 38,
          "name": "D2",
          "ticks": 119616,
          "time": 120.580404,
          "velocity": 0.3937007874015748
        },
        {
          "duration": 0.09677400000001057,
          "durationTicks": 96,
          "midi": 36,
          "name": "C2",
          "ticks": 119808,
          "time": 120.773952,
          "velocity": 0.3937007874015748
        },
        {
          "duration": 0.09677400000001057,
          "durationTicks": 96,
          "midi": 38,
          "name": "D2",
          "ticks": 120192,
          "time": 121.161048,
          "velocity": 0.3937007874015748
        },
        {
          "duration": 0.09677400000001057,
          "durationTicks": 96,
          "midi": 36,
          "name": "C2",
          "ticks": 120576,
          "time": 121.548144,
          "velocity": 0.3937007874015748
        },
        {
          "duration": 0.09677400000001057,
          "durationTicks": 96,
          "midi": 38,
          "name": "D2",
          "ticks": 120960,
          "time": 121.93524,
          "velocity": 0.3937007874015748
        },
        {
          "duration": 0.09677400000001057,
          "durationTicks": 96,
          "midi": 38,
          "name": "D2",
          "ticks": 121344,
          "time": 122.32233599999999,
          "velocity": 0.3937007874015748
        },
        {
          "duration": 0.09677400000001057,
          "durationTicks": 96,
          "midi": 36,
          "name": "C2",
          "ticks": 121728,
          "time": 122.70943199999999,
          "velocity": 0.3937007874015748
        },
        {
          "duration": 0.09677399999999636,
          "durationTicks": 96,
          "midi": 36,
          "name": "C2",
          "ticks": 121824,
          "time": 122.806206,
          "velocity": 0.3937007874015748
        },
        {
          "duration": 0.09677399999999636,
          "durationTicks": 96,
          "midi": 36,
          "name": "C2",
          "ticks": 121920,
          "time": 122.90298,
          "velocity": 0.3937007874015748
        },
        {
          "duration": 0.09677399999999636,
          "durationTicks": 96,
          "midi": 36,
          "name": "C2",
          "ticks": 122016,
          "time": 122.999754,
          "velocity": 0.3937007874015748
        },
        {
          "duration": 0.09677400000001057,
          "durationTicks": 96,
          "midi": 36,
          "name": "C2",
          "ticks": 122112,
          "time": 123.09652799999999,
          "velocity": 0.3937007874015748
        },
        {
          "duration": 0.09677399999999636,
          "durationTicks": 96,
          "midi": 36,
          "name": "C2",
          "ticks": 122304,
          "time": 123.290076,
          "velocity": 0.3937007874015748
        },
        {
          "duration": 0.09677400000001057,
          "durationTicks": 96,
          "midi": 49,
          "name": "C#3",
          "ticks": 122496,
          "time": 123.48362399999999,
          "velocity": 0.3937007874015748
        },
        {
          "duration": 0.09677399999999636,
          "durationTicks": 96,
          "midi": 36,
          "name": "C2",
          "ticks": 122880,
          "time": 123.87072,
          "velocity": 0.3937007874015748
        },
        {
          "duration": 0.09677399999999636,
          "durationTicks": 96,
          "midi": 38,
          "name": "D2",
          "ticks": 123072,
          "time": 124.064268,
          "velocity": 0.3937007874015748
        },
        {
          "duration": 0.09677399999999636,
          "durationTicks": 96,
          "midi": 36,
          "name": "C2",
          "ticks": 123264,
          "time": 124.257816,
          "velocity": 0.3937007874015748
        },
        {
          "duration": 0.09677399999999636,
          "durationTicks": 96,
          "midi": 38,
          "name": "D2",
          "ticks": 123456,
          "time": 124.451364,
          "velocity": 0.3937007874015748
        },
        {
          "duration": 0.09677399999999636,
          "durationTicks": 96,
          "midi": 36,
          "name": "C2",
          "ticks": 123648,
          "time": 124.644912,
          "velocity": 0.3937007874015748
        },
        {
          "duration": 0.09677399999999636,
          "durationTicks": 96,
          "midi": 38,
          "name": "D2",
          "ticks": 123840,
          "time": 124.83846,
          "velocity": 0.3937007874015748
        },
        {
          "duration": 0.09677399999999636,
          "durationTicks": 96,
          "midi": 36,
          "name": "C2",
          "ticks": 124032,
          "time": 125.032008,
          "velocity": 0.3937007874015748
        },
        {
          "duration": 0.09677399999999636,
          "durationTicks": 96,
          "midi": 38,
          "name": "D2",
          "ticks": 124224,
          "time": 125.225556,
          "velocity": 0.3937007874015748
        },
        {
          "duration": 0.09677399999999636,
          "durationTicks": 96,
          "midi": 36,
          "name": "C2",
          "ticks": 124416,
          "time": 125.419104,
          "velocity": 0.3937007874015748
        },
        {
          "duration": 0.09677399999999636,
          "durationTicks": 96,
          "midi": 38,
          "name": "D2",
          "ticks": 124608,
          "time": 125.612652,
          "velocity": 0.3937007874015748
        },
        {
          "duration": 0.09677399999999636,
          "durationTicks": 96,
          "midi": 36,
          "name": "C2",
          "ticks": 124800,
          "time": 125.8062,
          "velocity": 0.3937007874015748
        },
        {
          "duration": 0.09677399999999636,
          "durationTicks": 96,
          "midi": 38,
          "name": "D2",
          "ticks": 124992,
          "time": 125.999748,
          "velocity": 0.3937007874015748
        },
        {
          "duration": 0.09677399999999636,
          "durationTicks": 96,
          "midi": 36,
          "name": "C2",
          "ticks": 125184,
          "time": 126.193296,
          "velocity": 0.3937007874015748
        },
        {
          "duration": 0.09677399999999636,
          "durationTicks": 96,
          "midi": 38,
          "name": "D2",
          "ticks": 125376,
          "time": 126.386844,
          "velocity": 0.3937007874015748
        },
        {
          "duration": 0.09677399999999636,
          "durationTicks": 96,
          "midi": 36,
          "name": "C2",
          "ticks": 125568,
          "time": 126.580392,
          "velocity": 0.3937007874015748
        },
        {
          "duration": 0.09677399999999636,
          "durationTicks": 96,
          "midi": 38,
          "name": "D2",
          "ticks": 125760,
          "time": 126.77394,
          "velocity": 0.3937007874015748
        },
        {
          "duration": 0.09677399999999636,
          "durationTicks": 96,
          "midi": 36,
          "name": "C2",
          "ticks": 125952,
          "time": 126.967488,
          "velocity": 0.3937007874015748
        },
        {
          "duration": 0.09677399999999636,
          "durationTicks": 96,
          "midi": 38,
          "name": "D2",
          "ticks": 126144,
          "time": 127.161036,
          "velocity": 0.3937007874015748
        },
        {
          "duration": 0.09677399999999636,
          "durationTicks": 96,
          "midi": 36,
          "name": "C2",
          "ticks": 126336,
          "time": 127.354584,
          "velocity": 0.3937007874015748
        },
        {
          "duration": 0.09677399999999636,
          "durationTicks": 96,
          "midi": 38,
          "name": "D2",
          "ticks": 126528,
          "time": 127.548132,
          "velocity": 0.3937007874015748
        },
        {
          "duration": 0.09677399999999636,
          "durationTicks": 96,
          "midi": 36,
          "name": "C2",
          "ticks": 126720,
          "time": 127.74168,
          "velocity": 0.3937007874015748
        },
        {
          "duration": 0.09677400000001057,
          "durationTicks": 96,
          "midi": 38,
          "name": "D2",
          "ticks": 126912,
          "time": 127.935228,
          "velocity": 0.3937007874015748
        },
        {
          "duration": 0.09677400000001057,
          "durationTicks": 96,
          "midi": 36,
          "name": "C2",
          "ticks": 127104,
          "time": 128.128776,
          "velocity": 0.3937007874015748
        },
        {
          "duration": 0.09677399999998215,
          "durationTicks": 96,
          "midi": 38,
          "name": "D2",
          "ticks": 127296,
          "time": 128.322324,
          "velocity": 0.3937007874015748
        },
        {
          "duration": 0.09677400000001057,
          "durationTicks": 96,
          "midi": 36,
          "name": "C2",
          "ticks": 127488,
          "time": 128.515872,
          "velocity": 0.3937007874015748
        },
        {
          "duration": 0.09677400000001057,
          "durationTicks": 96,
          "midi": 38,
          "name": "D2",
          "ticks": 127680,
          "time": 128.70942,
          "velocity": 0.3937007874015748
        },
        {
          "duration": 0.09677400000001057,
          "durationTicks": 96,
          "midi": 36,
          "name": "C2",
          "ticks": 127872,
          "time": 128.902968,
          "velocity": 0.3937007874015748
        },
        {
          "duration": 0.09677399999998215,
          "durationTicks": 96,
          "midi": 38,
          "name": "D2",
          "ticks": 128064,
          "time": 129.096516,
          "velocity": 0.3937007874015748
        },
        {
          "duration": 0.09677400000001057,
          "durationTicks": 96,
          "midi": 36,
          "name": "C2",
          "ticks": 128256,
          "time": 129.290064,
          "velocity": 0.3937007874015748
        },
        {
          "duration": 0.09677400000001057,
          "durationTicks": 96,
          "midi": 38,
          "name": "D2",
          "ticks": 128448,
          "time": 129.483612,
          "velocity": 0.3937007874015748
        },
        {
          "duration": 0.09677400000001057,
          "durationTicks": 96,
          "midi": 36,
          "name": "C2",
          "ticks": 128640,
          "time": 129.67716,
          "velocity": 0.3937007874015748
        },
        {
          "duration": 0.09677399999998215,
          "durationTicks": 96,
          "midi": 38,
          "name": "D2",
          "ticks": 128832,
          "time": 129.870708,
          "velocity": 0.3937007874015748
        },
        {
          "duration": 0.09677400000001057,
          "durationTicks": 96,
          "midi": 36,
          "name": "C2",
          "ticks": 129024,
          "time": 130.064256,
          "velocity": 0.3937007874015748
        },
        {
          "duration": 0.09677400000001057,
          "durationTicks": 96,
          "midi": 38,
          "name": "D2",
          "ticks": 129216,
          "time": 130.257804,
          "velocity": 0.3937007874015748
        },
        {
          "duration": 0.09677400000001057,
          "durationTicks": 96,
          "midi": 36,
          "name": "C2",
          "ticks": 129408,
          "time": 130.45135199999999,
          "velocity": 0.3937007874015748
        },
        {
          "duration": 0.09677399999998215,
          "durationTicks": 96,
          "midi": 38,
          "name": "D2",
          "ticks": 129600,
          "time": 130.6449,
          "velocity": 0.3937007874015748
        },
        {
          "duration": 0.09677400000001057,
          "durationTicks": 96,
          "midi": 36,
          "name": "C2",
          "ticks": 129792,
          "time": 130.838448,
          "velocity": 0.3937007874015748
        },
        {
          "duration": 0.09677400000001057,
          "durationTicks": 96,
          "midi": 38,
          "name": "D2",
          "ticks": 129984,
          "time": 131.031996,
          "velocity": 0.3937007874015748
        },
        {
          "duration": 0.09677400000001057,
          "durationTicks": 96,
          "midi": 36,
          "name": "C2",
          "ticks": 130176,
          "time": 131.22554399999999,
          "velocity": 0.3937007874015748
        },
        {
          "duration": 0.09677399999998215,
          "durationTicks": 96,
          "midi": 38,
          "name": "D2",
          "ticks": 130368,
          "time": 131.419092,
          "velocity": 0.3937007874015748
        },
        {
          "duration": 0.09677400000001057,
          "durationTicks": 96,
          "midi": 36,
          "name": "C2",
          "ticks": 130560,
          "time": 131.61264,
          "velocity": 0.3937007874015748
        },
        {
          "duration": 0.09677400000001057,
          "durationTicks": 96,
          "midi": 38,
          "name": "D2",
          "ticks": 130752,
          "time": 131.806188,
          "velocity": 0.3937007874015748
        },
        {
          "duration": 0.09677400000001057,
          "durationTicks": 96,
          "midi": 36,
          "name": "C2",
          "ticks": 130944,
          "time": 131.99973599999998,
          "velocity": 0.3937007874015748
        },
        {
          "duration": 0.09677399999998215,
          "durationTicks": 96,
          "midi": 38,
          "name": "D2",
          "ticks": 131136,
          "time": 132.193284,
          "velocity": 0.3937007874015748
        },
        {
          "duration": 0.09677400000001057,
          "durationTicks": 96,
          "midi": 36,
          "name": "C2",
          "ticks": 131328,
          "time": 132.386832,
          "velocity": 0.3937007874015748
        },
        {
          "duration": 0.09677400000001057,
          "durationTicks": 96,
          "midi": 38,
          "name": "D2",
          "ticks": 131520,
          "time": 132.58038,
          "velocity": 0.3937007874015748
        },
        {
          "duration": 0.09677399999998215,
          "durationTicks": 96,
          "midi": 36,
          "name": "C2",
          "ticks": 131712,
          "time": 132.773928,
          "velocity": 0.3937007874015748
        },
        {
          "duration": 0.09677399999998215,
          "durationTicks": 96,
          "midi": 38,
          "name": "D2",
          "ticks": 131904,
          "time": 132.967476,
          "velocity": 0.3937007874015748
        },
        {
          "duration": 0.09677400000001057,
          "durationTicks": 96,
          "midi": 36,
          "name": "C2",
          "ticks": 132096,
          "time": 133.161024,
          "velocity": 0.3937007874015748
        },
        {
          "duration": 0.09677400000001057,
          "durationTicks": 96,
          "midi": 38,
          "name": "D2",
          "ticks": 132288,
          "time": 133.354572,
          "velocity": 0.3937007874015748
        },
        {
          "duration": 0.09677399999998215,
          "durationTicks": 96,
          "midi": 36,
          "name": "C2",
          "ticks": 132480,
          "time": 133.54812,
          "velocity": 0.3937007874015748
        },
        {
          "duration": 0.09677399999998215,
          "durationTicks": 96,
          "midi": 38,
          "name": "D2",
          "ticks": 132672,
          "time": 133.741668,
          "velocity": 0.3937007874015748
        },
        {
          "duration": 0.09677400000001057,
          "durationTicks": 96,
          "midi": 36,
          "name": "C2",
          "ticks": 132864,
          "time": 133.935216,
          "velocity": 0.3937007874015748
        },
        {
          "duration": 0.09677400000001057,
          "durationTicks": 96,
          "midi": 38,
          "name": "D2",
          "ticks": 133056,
          "time": 134.128764,
          "velocity": 0.3937007874015748
        },
        {
          "duration": 0.09677399999998215,
          "durationTicks": 96,
          "midi": 36,
          "name": "C2",
          "ticks": 133248,
          "time": 134.322312,
          "velocity": 0.3937007874015748
        },
        {
          "duration": 0.09677399999998215,
          "durationTicks": 96,
          "midi": 38,
          "name": "D2",
          "ticks": 133440,
          "time": 134.51586,
          "velocity": 0.3937007874015748
        },
        {
          "duration": 0.09677400000001057,
          "durationTicks": 96,
          "midi": 36,
          "name": "C2",
          "ticks": 133632,
          "time": 134.709408,
          "velocity": 0.3937007874015748
        },
        {
          "duration": 0.09677400000001057,
          "durationTicks": 96,
          "midi": 38,
          "name": "D2",
          "ticks": 133824,
          "time": 134.902956,
          "velocity": 0.3937007874015748
        },
        {
          "duration": 0.09677399999998215,
          "durationTicks": 96,
          "midi": 36,
          "name": "C2",
          "ticks": 134016,
          "time": 135.096504,
          "velocity": 0.3937007874015748
        },
        {
          "duration": 0.09677399999998215,
          "durationTicks": 96,
          "midi": 38,
          "name": "D2",
          "ticks": 134208,
          "time": 135.290052,
          "velocity": 0.3937007874015748
        },
        {
          "duration": 0.09677400000001057,
          "durationTicks": 96,
          "midi": 36,
          "name": "C2",
          "ticks": 134400,
          "time": 135.4836,
          "velocity": 0.3937007874015748
        },
        {
          "duration": 0.09677400000001057,
          "durationTicks": 96,
          "midi": 38,
          "name": "D2",
          "ticks": 134592,
          "time": 135.677148,
          "velocity": 0.3937007874015748
        },
        {
          "duration": 0.09677399999998215,
          "durationTicks": 96,
          "midi": 36,
          "name": "C2",
          "ticks": 134784,
          "time": 135.870696,
          "velocity": 0.3937007874015748
        },
        {
          "duration": 0.09677399999998215,
          "durationTicks": 96,
          "midi": 38,
          "name": "D2",
          "ticks": 134976,
          "time": 136.064244,
          "velocity": 0.3937007874015748
        },
        {
          "duration": 0.09677400000001057,
          "durationTicks": 96,
          "midi": 36,
          "name": "C2",
          "ticks": 135168,
          "time": 136.257792,
          "velocity": 0.3937007874015748
        },
        {
          "duration": 0.09677400000001057,
          "durationTicks": 96,
          "midi": 38,
          "name": "D2",
          "ticks": 135360,
          "time": 136.45134,
          "velocity": 0.3937007874015748
        },
        {
          "duration": 0.09677399999998215,
          "durationTicks": 96,
          "midi": 36,
          "name": "C2",
          "ticks": 135552,
          "time": 136.644888,
          "velocity": 0.3937007874015748
        },
        {
          "duration": 0.09677400000001057,
          "durationTicks": 96,
          "midi": 38,
          "name": "D2",
          "ticks": 135744,
          "time": 136.838436,
          "velocity": 0.3937007874015748
        },
        {
          "duration": 0.09677400000001057,
          "durationTicks": 96,
          "midi": 36,
          "name": "C2",
          "ticks": 135936,
          "time": 137.031984,
          "velocity": 0.3937007874015748
        },
        {
          "duration": 0.09677400000001057,
          "durationTicks": 96,
          "midi": 38,
          "name": "D2",
          "ticks": 136128,
          "time": 137.225532,
          "velocity": 0.3937007874015748
        },
        {
          "duration": 0.09677399999998215,
          "durationTicks": 96,
          "midi": 36,
          "name": "C2",
          "ticks": 136320,
          "time": 137.41908,
          "velocity": 0.3937007874015748
        },
        {
          "duration": 0.09677400000001057,
          "durationTicks": 96,
          "midi": 38,
          "name": "D2",
          "ticks": 136512,
          "time": 137.612628,
          "velocity": 0.3937007874015748
        },
        {
          "duration": 0.09677400000001057,
          "durationTicks": 96,
          "midi": 36,
          "name": "C2",
          "ticks": 136704,
          "time": 137.806176,
          "velocity": 0.3937007874015748
        },
        {
          "duration": 0.09677400000001057,
          "durationTicks": 96,
          "midi": 38,
          "name": "D2",
          "ticks": 136896,
          "time": 137.999724,
          "velocity": 0.3937007874015748
        },
        {
          "duration": 0.09677399999998215,
          "durationTicks": 96,
          "midi": 36,
          "name": "C2",
          "ticks": 137088,
          "time": 138.193272,
          "velocity": 0.3937007874015748
        },
        {
          "duration": 0.09677400000001057,
          "durationTicks": 96,
          "midi": 38,
          "name": "D2",
          "ticks": 137280,
          "time": 138.38682,
          "velocity": 0.3937007874015748
        },
        {
          "duration": 0.09677400000001057,
          "durationTicks": 96,
          "midi": 36,
          "name": "C2",
          "ticks": 137472,
          "time": 138.580368,
          "velocity": 0.3937007874015748
        },
        {
          "duration": 0.09677400000001057,
          "durationTicks": 96,
          "midi": 38,
          "name": "D2",
          "ticks": 137664,
          "time": 138.77391599999999,
          "velocity": 0.3937007874015748
        },
        {
          "duration": 0.09677399999998215,
          "durationTicks": 96,
          "midi": 36,
          "name": "C2",
          "ticks": 137856,
          "time": 138.967464,
          "velocity": 0.3937007874015748
        },
        {
          "duration": 0.09677400000001057,
          "durationTicks": 96,
          "midi": 38,
          "name": "D2",
          "ticks": 138048,
          "time": 139.161012,
          "velocity": 0.3937007874015748
        },
        {
          "duration": 0.09677400000001057,
          "durationTicks": 96,
          "midi": 36,
          "name": "C2",
          "ticks": 138240,
          "time": 139.35456,
          "velocity": 0.3937007874015748
        },
        {
          "duration": 0.09677400000001057,
          "durationTicks": 96,
          "midi": 38,
          "name": "D2",
          "ticks": 138432,
          "time": 139.54810799999998,
          "velocity": 0.3937007874015748
        },
        {
          "duration": 0.09677399999998215,
          "durationTicks": 96,
          "midi": 36,
          "name": "C2",
          "ticks": 138624,
          "time": 139.741656,
          "velocity": 0.3937007874015748
        },
        {
          "duration": 0.09677400000001057,
          "durationTicks": 96,
          "midi": 38,
          "name": "D2",
          "ticks": 138816,
          "time": 139.935204,
          "velocity": 0.3937007874015748
        },
        {
          "duration": 0.09677400000001057,
          "durationTicks": 96,
          "midi": 36,
          "name": "C2",
          "ticks": 139008,
          "time": 140.128752,
          "velocity": 0.3937007874015748
        },
        {
          "duration": 0.09677400000001057,
          "durationTicks": 96,
          "midi": 38,
          "name": "D2",
          "ticks": 139200,
          "time": 140.32229999999998,
          "velocity": 0.3937007874015748
        },
        {
          "duration": 0.09677399999998215,
          "durationTicks": 96,
          "midi": 36,
          "name": "C2",
          "ticks": 139392,
          "time": 140.515848,
          "velocity": 0.3937007874015748
        },
        {
          "duration": 0.09677400000001057,
          "durationTicks": 96,
          "midi": 38,
          "name": "D2",
          "ticks": 139584,
          "time": 140.709396,
          "velocity": 0.3937007874015748
        },
        {
          "duration": 0.09677400000001057,
          "durationTicks": 96,
          "midi": 36,
          "name": "C2",
          "ticks": 139776,
          "time": 140.902944,
          "velocity": 0.3937007874015748
        },
        {
          "duration": 0.09677399999998215,
          "durationTicks": 96,
          "midi": 38,
          "name": "D2",
          "ticks": 139968,
          "time": 141.096492,
          "velocity": 0.3937007874015748
        },
        {
          "duration": 0.09677399999998215,
          "durationTicks": 96,
          "midi": 36,
          "name": "C2",
          "ticks": 140160,
          "time": 141.29004,
          "velocity": 0.3937007874015748
        },
        {
          "duration": 0.09677400000001057,
          "durationTicks": 96,
          "midi": 38,
          "name": "D2",
          "ticks": 140352,
          "time": 141.483588,
          "velocity": 0.3937007874015748
        },
        {
          "duration": 0.09677400000001057,
          "durationTicks": 96,
          "midi": 36,
          "name": "C2",
          "ticks": 140544,
          "time": 141.677136,
          "velocity": 0.3937007874015748
        },
        {
          "duration": 0.09677399999998215,
          "durationTicks": 96,
          "midi": 38,
          "name": "D2",
          "ticks": 140736,
          "time": 141.870684,
          "velocity": 0.3937007874015748
        },
        {
          "duration": 0.09677399999998215,
          "durationTicks": 96,
          "midi": 36,
          "name": "C2",
          "ticks": 140928,
          "time": 142.064232,
          "velocity": 0.3937007874015748
        },
        {
          "duration": 0.09677400000001057,
          "durationTicks": 96,
          "midi": 38,
          "name": "D2",
          "ticks": 141120,
          "time": 142.25778,
          "velocity": 0.3937007874015748
        },
        {
          "duration": 0.09677400000001057,
          "durationTicks": 96,
          "midi": 36,
          "name": "C2",
          "ticks": 141312,
          "time": 142.451328,
          "velocity": 0.3937007874015748
        },
        {
          "duration": 0.09677399999998215,
          "durationTicks": 96,
          "midi": 38,
          "name": "D2",
          "ticks": 141504,
          "time": 142.644876,
          "velocity": 0.3937007874015748
        },
        {
          "duration": 0.09677399999998215,
          "durationTicks": 96,
          "midi": 36,
          "name": "C2",
          "ticks": 141696,
          "time": 142.838424,
          "velocity": 0.3937007874015748
        },
        {
          "duration": 0.09677400000001057,
          "durationTicks": 96,
          "midi": 38,
          "name": "D2",
          "ticks": 141888,
          "time": 143.031972,
          "velocity": 0.3937007874015748
        },
        {
          "duration": 0.09677400000001057,
          "durationTicks": 96,
          "midi": 36,
          "name": "C2",
          "ticks": 142080,
          "time": 143.22552,
          "velocity": 0.3937007874015748
        },
        {
          "duration": 0.09677399999998215,
          "durationTicks": 96,
          "midi": 38,
          "name": "D2",
          "ticks": 142272,
          "time": 143.419068,
          "velocity": 0.3937007874015748
        },
        {
          "duration": 0.09677399999998215,
          "durationTicks": 96,
          "midi": 36,
          "name": "C2",
          "ticks": 142464,
          "time": 143.612616,
          "velocity": 0.3937007874015748
        },
        {
          "duration": 0.09677400000001057,
          "durationTicks": 96,
          "midi": 38,
          "name": "D2",
          "ticks": 142656,
          "time": 143.806164,
          "velocity": 0.3937007874015748
        },
        {
          "duration": 0.09677400000001057,
          "durationTicks": 96,
          "midi": 36,
          "name": "C2",
          "ticks": 142848,
          "time": 143.999712,
          "velocity": 0.3937007874015748
        },
        {
          "duration": 0.09677399999998215,
          "durationTicks": 96,
          "midi": 38,
          "name": "D2",
          "ticks": 143040,
          "time": 144.19326,
          "velocity": 0.3937007874015748
        },
        {
          "duration": 0.09677399999998215,
          "durationTicks": 96,
          "midi": 36,
          "name": "C2",
          "ticks": 143232,
          "time": 144.386808,
          "velocity": 0.3937007874015748
        },
        {
          "duration": 0.09677400000001057,
          "durationTicks": 96,
          "midi": 38,
          "name": "D2",
          "ticks": 143424,
          "time": 144.580356,
          "velocity": 0.3937007874015748
        },
        {
          "duration": 0.09677400000001057,
          "durationTicks": 96,
          "midi": 36,
          "name": "C2",
          "ticks": 143616,
          "time": 144.773904,
          "velocity": 0.3937007874015748
        },
        {
          "duration": 0.09677399999998215,
          "durationTicks": 96,
          "midi": 38,
          "name": "D2",
          "ticks": 143808,
          "time": 144.967452,
          "velocity": 0.3937007874015748
        },
        {
          "duration": 0.09677400000001057,
          "durationTicks": 96,
          "midi": 36,
          "name": "C2",
          "ticks": 144000,
          "time": 145.161,
          "velocity": 0.3937007874015748
        },
        {
          "duration": 0.09677400000001057,
          "durationTicks": 96,
          "midi": 38,
          "name": "D2",
          "ticks": 144192,
          "time": 145.354548,
          "velocity": 0.3937007874015748
        },
        {
          "duration": 0.09677400000001057,
          "durationTicks": 96,
          "midi": 36,
          "name": "C2",
          "ticks": 144384,
          "time": 145.548096,
          "velocity": 0.3937007874015748
        },
        {
          "duration": 0.09677399999998215,
          "durationTicks": 96,
          "midi": 38,
          "name": "D2",
          "ticks": 144576,
          "time": 145.741644,
          "velocity": 0.3937007874015748
        },
        {
          "duration": 0.09677400000001057,
          "durationTicks": 96,
          "midi": 36,
          "name": "C2",
          "ticks": 144768,
          "time": 145.935192,
          "velocity": 0.3937007874015748
        },
        {
          "duration": 0.09677400000001057,
          "durationTicks": 96,
          "midi": 38,
          "name": "D2",
          "ticks": 144960,
          "time": 146.12874,
          "velocity": 0.3937007874015748
        },
        {
          "duration": 0.09677400000001057,
          "durationTicks": 96,
          "midi": 36,
          "name": "C2",
          "ticks": 145152,
          "time": 146.322288,
          "velocity": 0.3937007874015748
        },
        {
          "duration": 0.09677399999998215,
          "durationTicks": 96,
          "midi": 38,
          "name": "D2",
          "ticks": 145344,
          "time": 146.515836,
          "velocity": 0.3937007874015748
        },
        {
          "duration": 0.09677400000001057,
          "durationTicks": 96,
          "midi": 36,
          "name": "C2",
          "ticks": 145536,
          "time": 146.709384,
          "velocity": 0.3937007874015748
        },
        {
          "duration": 0.09677400000001057,
          "durationTicks": 96,
          "midi": 38,
          "name": "D2",
          "ticks": 145728,
          "time": 146.902932,
          "velocity": 0.3937007874015748
        },
        {
          "duration": 0.09677400000001057,
          "durationTicks": 96,
          "midi": 36,
          "name": "C2",
          "ticks": 145920,
          "time": 147.09647999999999,
          "velocity": 0.3937007874015748
        },
        {
          "duration": 0.09677399999998215,
          "durationTicks": 96,
          "midi": 38,
          "name": "D2",
          "ticks": 146112,
          "time": 147.290028,
          "velocity": 0.3937007874015748
        },
        {
          "duration": 0.09677400000001057,
          "durationTicks": 96,
          "midi": 36,
          "name": "C2",
          "ticks": 146304,
          "time": 147.483576,
          "velocity": 0.3937007874015748
        },
        {
          "duration": 0.09677400000001057,
          "durationTicks": 96,
          "midi": 38,
          "name": "D2",
          "ticks": 146496,
          "time": 147.677124,
          "velocity": 0.3937007874015748
        },
        {
          "duration": 0.09677400000001057,
          "durationTicks": 96,
          "midi": 36,
          "name": "C2",
          "ticks": 146688,
          "time": 147.87067199999998,
          "velocity": 0.3937007874015748
        },
        {
          "duration": 0.09677399999998215,
          "durationTicks": 96,
          "midi": 38,
          "name": "D2",
          "ticks": 146880,
          "time": 148.06422,
          "velocity": 0.3937007874015748
        },
        {
          "duration": 0.09677400000001057,
          "durationTicks": 96,
          "midi": 36,
          "name": "C2",
          "ticks": 147072,
          "time": 148.257768,
          "velocity": 0.3937007874015748
        },
        {
          "duration": 0.09677400000001057,
          "durationTicks": 96,
          "midi": 38,
          "name": "D2",
          "ticks": 147264,
          "time": 148.451316,
          "velocity": 0.3937007874015748
        },
        {
          "duration": 0.09677400000001057,
          "durationTicks": 96,
          "midi": 36,
          "name": "C2",
          "ticks": 147456,
          "time": 148.64486399999998,
          "velocity": 0.3937007874015748
        },
        {
          "duration": 0.09677399999998215,
          "durationTicks": 96,
          "midi": 38,
          "name": "D2",
          "ticks": 147648,
          "time": 148.838412,
          "velocity": 0.3937007874015748
        },
        {
          "duration": 0.09677400000001057,
          "durationTicks": 96,
          "midi": 36,
          "name": "C2",
          "ticks": 147840,
          "time": 149.03196,
          "velocity": 0.3937007874015748
        },
        {
          "duration": 0.09677400000001057,
          "durationTicks": 96,
          "midi": 38,
          "name": "D2",
          "ticks": 148032,
          "time": 149.225508,
          "velocity": 0.3937007874015748
        },
        {
          "duration": 0.09677399999998215,
          "durationTicks": 96,
          "midi": 36,
          "name": "C2",
          "ticks": 148224,
          "time": 149.419056,
          "velocity": 0.3937007874015748
        },
        {
          "duration": 0.09677399999998215,
          "durationTicks": 96,
          "midi": 38,
          "name": "D2",
          "ticks": 148416,
          "time": 149.612604,
          "velocity": 0.3937007874015748
        },
        {
          "duration": 0.09677400000001057,
          "durationTicks": 96,
          "midi": 36,
          "name": "C2",
          "ticks": 148608,
          "time": 149.806152,
          "velocity": 0.3937007874015748
        },
        {
          "duration": 0.09677400000001057,
          "durationTicks": 96,
          "midi": 38,
          "name": "D2",
          "ticks": 148800,
          "time": 149.9997,
          "velocity": 0.3937007874015748
        },
        {
          "duration": 0.09677399999998215,
          "durationTicks": 96,
          "midi": 38,
          "name": "D2",
          "ticks": 148992,
          "time": 150.193248,
          "velocity": 0.3937007874015748
        },
        {
          "duration": 0.09677400000001057,
          "durationTicks": 96,
          "midi": 36,
          "name": "C2",
          "ticks": 149376,
          "time": 150.580344,
          "velocity": 0.3937007874015748
        },
        {
          "duration": 0.09677399999998215,
          "durationTicks": 96,
          "midi": 38,
          "name": "D2",
          "ticks": 149760,
          "time": 150.96744,
          "velocity": 0.3937007874015748
        },
        {
          "duration": 0.09677400000001057,
          "durationTicks": 96,
          "midi": 36,
          "name": "C2",
          "ticks": 150144,
          "time": 151.354536,
          "velocity": 0.3937007874015748
        },
        {
          "duration": 0.09677399999998215,
          "durationTicks": 96,
          "midi": 38,
          "name": "D2",
          "ticks": 150528,
          "time": 151.741632,
          "velocity": 0.3937007874015748
        },
        {
          "duration": 0.09677399999998215,
          "durationTicks": 96,
          "midi": 36,
          "name": "C2",
          "ticks": 150720,
          "time": 151.93518,
          "velocity": 0.3937007874015748
        },
        {
          "duration": 0.09677400000001057,
          "durationTicks": 96,
          "midi": 38,
          "name": "D2",
          "ticks": 150912,
          "time": 152.128728,
          "velocity": 0.3937007874015748
        },
        {
          "duration": 0.09677400000001057,
          "durationTicks": 96,
          "midi": 36,
          "name": "C2",
          "ticks": 151104,
          "time": 152.322276,
          "velocity": 0.3937007874015748
        },
        {
          "duration": 0.09677399999998215,
          "durationTicks": 96,
          "midi": 38,
          "name": "D2",
          "ticks": 151296,
          "time": 152.515824,
          "velocity": 0.3937007874015748
        },
        {
          "duration": 0.09677400000001057,
          "durationTicks": 96,
          "midi": 36,
          "name": "C2",
          "ticks": 151488,
          "time": 152.709372,
          "velocity": 0.3937007874015748
        },
        {
          "duration": 0.09677400000001057,
          "durationTicks": 96,
          "midi": 38,
          "name": "D2",
          "ticks": 151680,
          "time": 152.90292,
          "velocity": 0.3937007874015748
        },
        {
          "duration": 0.09677400000001057,
          "durationTicks": 96,
          "midi": 36,
          "name": "C2",
          "ticks": 151872,
          "time": 153.096468,
          "velocity": 0.3937007874015748
        },
        {
          "duration": 0.09677399999998215,
          "durationTicks": 96,
          "midi": 38,
          "name": "D2",
          "ticks": 152064,
          "time": 153.290016,
          "velocity": 0.3937007874015748
        },
        {
          "duration": 0.09677400000001057,
          "durationTicks": 96,
          "midi": 36,
          "name": "C2",
          "ticks": 152160,
          "time": 153.38679,
          "velocity": 0.3937007874015748
        },
        {
          "duration": 0.09677400000001057,
          "durationTicks": 96,
          "midi": 38,
          "name": "D2",
          "ticks": 152256,
          "time": 153.483564,
          "velocity": 0.3937007874015748
        },
        {
          "duration": 0.09677399999998215,
          "durationTicks": 96,
          "midi": 36,
          "name": "C2",
          "ticks": 152352,
          "time": 153.580338,
          "velocity": 0.3937007874015748
        },
        {
          "duration": 0.09677400000001057,
          "durationTicks": 96,
          "midi": 38,
          "name": "D2",
          "ticks": 152448,
          "time": 153.677112,
          "velocity": 0.3937007874015748
        },
        {
          "duration": 0.09677399999998215,
          "durationTicks": 96,
          "midi": 36,
          "name": "C2",
          "ticks": 152544,
          "time": 153.773886,
          "velocity": 0.3937007874015748
        },
        {
          "duration": 0.09677400000001057,
          "durationTicks": 96,
          "midi": 38,
          "name": "D2",
          "ticks": 152640,
          "time": 153.87066,
          "velocity": 0.3937007874015748
        },
        {
          "duration": 0.09677400000001057,
          "durationTicks": 96,
          "midi": 36,
          "name": "C2",
          "ticks": 152736,
          "time": 153.967434,
          "velocity": 0.3937007874015748
        },
        {
          "duration": 0.09677399999998215,
          "durationTicks": 96,
          "midi": 38,
          "name": "D2",
          "ticks": 152832,
          "time": 154.064208,
          "velocity": 0.3937007874015748
        },
        {
          "duration": 0.09677400000001057,
          "durationTicks": 96,
          "midi": 36,
          "name": "C2",
          "ticks": 152928,
          "time": 154.160982,
          "velocity": 0.3937007874015748
        },
        {
          "duration": 0.09677400000001057,
          "durationTicks": 96,
          "midi": 38,
          "name": "D2",
          "ticks": 153024,
          "time": 154.257756,
          "velocity": 0.3937007874015748
        },
        {
          "duration": 0.09677399999998215,
          "durationTicks": 96,
          "midi": 36,
          "name": "C2",
          "ticks": 153120,
          "time": 154.35453,
          "velocity": 0.3937007874015748
        },
        {
          "duration": 0.09677400000001057,
          "durationTicks": 96,
          "midi": 38,
          "name": "D2",
          "ticks": 153216,
          "time": 154.451304,
          "velocity": 0.3937007874015748
        },
        {
          "duration": 0.09677399999998215,
          "durationTicks": 96,
          "midi": 36,
          "name": "C2",
          "ticks": 153312,
          "time": 154.548078,
          "velocity": 0.3937007874015748
        },
        {
          "duration": 0.09677400000001057,
          "durationTicks": 96,
          "midi": 38,
          "name": "D2",
          "ticks": 153408,
          "time": 154.644852,
          "velocity": 0.3937007874015748
        },
        {
          "duration": 0.09677400000001057,
          "durationTicks": 96,
          "midi": 36,
          "name": "C2",
          "ticks": 153504,
          "time": 154.741626,
          "velocity": 0.3937007874015748
        },
        {
          "duration": 0.09677399999998215,
          "durationTicks": 96,
          "midi": 36,
          "name": "C2",
          "ticks": 153600,
          "time": 154.8384,
          "velocity": 0.3937007874015748
        },
        {
          "duration": 0.09677400000001057,
          "durationTicks": 96,
          "midi": 38,
          "name": "D2",
          "ticks": 153792,
          "time": 155.031948,
          "velocity": 0.3937007874015748
        },
        {
          "duration": 0.09677400000001057,
          "durationTicks": 96,
          "midi": 36,
          "name": "C2",
          "ticks": 153984,
          "time": 155.225496,
          "velocity": 0.3937007874015748
        },
        {
          "duration": 0.09677400000001057,
          "durationTicks": 96,
          "midi": 38,
          "name": "D2",
          "ticks": 154176,
          "time": 155.41904399999999,
          "velocity": 0.3937007874015748
        },
        {
          "duration": 0.09677399999998215,
          "durationTicks": 96,
          "midi": 36,
          "name": "C2",
          "ticks": 154368,
          "time": 155.612592,
          "velocity": 0.3937007874015748
        },
        {
          "duration": 0.09677400000001057,
          "durationTicks": 96,
          "midi": 38,
          "name": "D2",
          "ticks": 154560,
          "time": 155.80614,
          "velocity": 0.3937007874015748
        },
        {
          "duration": 0.09677400000001057,
          "durationTicks": 96,
          "midi": 36,
          "name": "C2",
          "ticks": 154752,
          "time": 155.999688,
          "velocity": 0.3937007874015748
        },
        {
          "duration": 0.09677400000001057,
          "durationTicks": 96,
          "midi": 38,
          "name": "D2",
          "ticks": 154944,
          "time": 156.19323599999998,
          "velocity": 0.3937007874015748
        },
        {
          "duration": 0.09677399999998215,
          "durationTicks": 96,
          "midi": 36,
          "name": "C2",
          "ticks": 155136,
          "time": 156.386784,
          "velocity": 0.3937007874015748
        },
        {
          "duration": 0.09677400000001057,
          "durationTicks": 96,
          "midi": 38,
          "name": "D2",
          "ticks": 155328,
          "time": 156.580332,
          "velocity": 0.3937007874015748
        },
        {
          "duration": 0.09677400000001057,
          "durationTicks": 96,
          "midi": 36,
          "name": "C2",
          "ticks": 155520,
          "time": 156.77388,
          "velocity": 0.3937007874015748
        },
        {
          "duration": 0.09677399999998215,
          "durationTicks": 96,
          "midi": 38,
          "name": "D2",
          "ticks": 155712,
          "time": 156.967428,
          "velocity": 0.3937007874015748
        },
        {
          "duration": 0.09677399999998215,
          "durationTicks": 96,
          "midi": 36,
          "name": "C2",
          "ticks": 155904,
          "time": 157.160976,
          "velocity": 0.3937007874015748
        },
        {
          "duration": 0.09677400000001057,
          "durationTicks": 96,
          "midi": 38,
          "name": "D2",
          "ticks": 156096,
          "time": 157.354524,
          "velocity": 0.3937007874015748
        },
        {
          "duration": 0.09677400000001057,
          "durationTicks": 96,
          "midi": 36,
          "name": "C2",
          "ticks": 156288,
          "time": 157.548072,
          "velocity": 0.3937007874015748
        },
        {
          "duration": 0.09677399999998215,
          "durationTicks": 96,
          "midi": 38,
          "name": "D2",
          "ticks": 156480,
          "time": 157.74162,
          "velocity": 0.3937007874015748
        },
        {
          "duration": 0.09677399999998215,
          "durationTicks": 96,
          "midi": 36,
          "name": "C2",
          "ticks": 156672,
          "time": 157.935168,
          "velocity": 0.3937007874015748
        },
        {
          "duration": 0.09677400000001057,
          "durationTicks": 96,
          "midi": 38,
          "name": "D2",
          "ticks": 156864,
          "time": 158.128716,
          "velocity": 0.3937007874015748
        },
        {
          "duration": 0.09677400000001057,
          "durationTicks": 96,
          "midi": 36,
          "name": "C2",
          "ticks": 157056,
          "time": 158.322264,
          "velocity": 0.3937007874015748
        },
        {
          "duration": 0.09677399999998215,
          "durationTicks": 96,
          "midi": 38,
          "name": "D2",
          "ticks": 157248,
          "time": 158.515812,
          "velocity": 0.3937007874015748
        },
        {
          "duration": 0.09677399999998215,
          "durationTicks": 96,
          "midi": 36,
          "name": "C2",
          "ticks": 157440,
          "time": 158.70936,
          "velocity": 0.3937007874015748
        },
        {
          "duration": 0.09677400000001057,
          "durationTicks": 96,
          "midi": 38,
          "name": "D2",
          "ticks": 157632,
          "time": 158.902908,
          "velocity": 0.3937007874015748
        },
        {
          "duration": 0.09677400000001057,
          "durationTicks": 96,
          "midi": 36,
          "name": "C2",
          "ticks": 157824,
          "time": 159.096456,
          "velocity": 0.3937007874015748
        },
        {
          "duration": 0.09677399999998215,
          "durationTicks": 96,
          "midi": 38,
          "name": "D2",
          "ticks": 158016,
          "time": 159.290004,
          "velocity": 0.3937007874015748
        },
        {
          "duration": 0.09677399999998215,
          "durationTicks": 96,
          "midi": 36,
          "name": "C2",
          "ticks": 158208,
          "time": 159.483552,
          "velocity": 0.3937007874015748
        },
        {
          "duration": 0.09677400000001057,
          "durationTicks": 96,
          "midi": 38,
          "name": "D2",
          "ticks": 158400,
          "time": 159.6771,
          "velocity": 0.3937007874015748
        },
        {
          "duration": 0.09677400000001057,
          "durationTicks": 96,
          "midi": 36,
          "name": "C2",
          "ticks": 158592,
          "time": 159.870648,
          "velocity": 0.3937007874015748
        },
        {
          "duration": 0.09677399999998215,
          "durationTicks": 96,
          "midi": 38,
          "name": "D2",
          "ticks": 158784,
          "time": 160.064196,
          "velocity": 0.3937007874015748
        },
        {
          "duration": 0.09677399999998215,
          "durationTicks": 96,
          "midi": 36,
          "name": "C2",
          "ticks": 158976,
          "time": 160.257744,
          "velocity": 0.3937007874015748
        },
        {
          "duration": 0.09677400000001057,
          "durationTicks": 96,
          "midi": 38,
          "name": "D2",
          "ticks": 159168,
          "time": 160.451292,
          "velocity": 0.3937007874015748
        },
        {
          "duration": 0.09677400000001057,
          "durationTicks": 96,
          "midi": 36,
          "name": "C2",
          "ticks": 159360,
          "time": 160.64484,
          "velocity": 0.3937007874015748
        },
        {
          "duration": 0.09677399999998215,
          "durationTicks": 96,
          "midi": 38,
          "name": "D2",
          "ticks": 159552,
          "time": 160.838388,
          "velocity": 0.3937007874015748
        },
        {
          "duration": 0.09677400000001057,
          "durationTicks": 96,
          "midi": 36,
          "name": "C2",
          "ticks": 159744,
          "time": 161.031936,
          "velocity": 0.3937007874015748
        },
        {
          "duration": 0.09677400000001057,
          "durationTicks": 96,
          "midi": 38,
          "name": "D2",
          "ticks": 159936,
          "time": 161.225484,
          "velocity": 0.3937007874015748
        },
        {
          "duration": 0.09677400000001057,
          "durationTicks": 96,
          "midi": 36,
          "name": "C2",
          "ticks": 160128,
          "time": 161.419032,
          "velocity": 0.3937007874015748
        },
        {
          "duration": 0.09677399999998215,
          "durationTicks": 96,
          "midi": 38,
          "name": "D2",
          "ticks": 160320,
          "time": 161.61258,
          "velocity": 0.3937007874015748
        },
        {
          "duration": 0.09677400000001057,
          "durationTicks": 96,
          "midi": 36,
          "name": "C2",
          "ticks": 160512,
          "time": 161.806128,
          "velocity": 0.3937007874015748
        },
        {
          "duration": 0.09677400000001057,
          "durationTicks": 96,
          "midi": 38,
          "name": "D2",
          "ticks": 160704,
          "time": 161.999676,
          "velocity": 0.3937007874015748
        },
        {
          "duration": 0.09677400000001057,
          "durationTicks": 96,
          "midi": 36,
          "name": "C2",
          "ticks": 160896,
          "time": 162.193224,
          "velocity": 0.3937007874015748
        },
        {
          "duration": 0.09677399999998215,
          "durationTicks": 96,
          "midi": 38,
          "name": "D2",
          "ticks": 161088,
          "time": 162.386772,
          "velocity": 0.3937007874015748
        },
        {
          "duration": 0.09677400000001057,
          "durationTicks": 96,
          "midi": 36,
          "name": "C2",
          "ticks": 161280,
          "time": 162.58032,
          "velocity": 0.3937007874015748
        },
        {
          "duration": 0.09677400000001057,
          "durationTicks": 96,
          "midi": 38,
          "name": "D2",
          "ticks": 161472,
          "time": 162.773868,
          "velocity": 0.3937007874015748
        },
        {
          "duration": 0.09677400000001057,
          "durationTicks": 96,
          "midi": 36,
          "name": "C2",
          "ticks": 161664,
          "time": 162.967416,
          "velocity": 0.3937007874015748
        },
        {
          "duration": 0.09677399999998215,
          "durationTicks": 96,
          "midi": 38,
          "name": "D2",
          "ticks": 161856,
          "time": 163.160964,
          "velocity": 0.3937007874015748
        },
        {
          "duration": 0.09677400000001057,
          "durationTicks": 96,
          "midi": 36,
          "name": "C2",
          "ticks": 162048,
          "time": 163.354512,
          "velocity": 0.3937007874015748
        },
        {
          "duration": 0.09677400000001057,
          "durationTicks": 96,
          "midi": 38,
          "name": "D2",
          "ticks": 162240,
          "time": 163.54806,
          "velocity": 0.3937007874015748
        },
        {
          "duration": 0.09677400000001057,
          "durationTicks": 96,
          "midi": 36,
          "name": "C2",
          "ticks": 162432,
          "time": 163.74160799999999,
          "velocity": 0.3937007874015748
        },
        {
          "duration": 0.09677399999998215,
          "durationTicks": 96,
          "midi": 38,
          "name": "D2",
          "ticks": 162624,
          "time": 163.935156,
          "velocity": 0.3937007874015748
        },
        {
          "duration": 0.09677400000001057,
          "durationTicks": 96,
          "midi": 36,
          "name": "C2",
          "ticks": 162816,
          "time": 164.128704,
          "velocity": 0.3937007874015748
        },
        {
          "duration": 0.09677400000001057,
          "durationTicks": 96,
          "midi": 38,
          "name": "D2",
          "ticks": 163008,
          "time": 164.322252,
          "velocity": 0.3937007874015748
        },
        {
          "duration": 0.09677400000001057,
          "durationTicks": 96,
          "midi": 36,
          "name": "C2",
          "ticks": 163200,
          "time": 164.51579999999998,
          "velocity": 0.3937007874015748
        },
        {
          "duration": 0.09677399999998215,
          "durationTicks": 96,
          "midi": 38,
          "name": "D2",
          "ticks": 163392,
          "time": 164.709348,
          "velocity": 0.3937007874015748
        },
        {
          "duration": 0.09677400000001057,
          "durationTicks": 96,
          "midi": 36,
          "name": "C2",
          "ticks": 163584,
          "time": 164.902896,
          "velocity": 0.3937007874015748
        },
        {
          "duration": 0.09677400000001057,
          "durationTicks": 96,
          "midi": 38,
          "name": "D2",
          "ticks": 163776,
          "time": 165.096444,
          "velocity": 0.3937007874015748
        },
        {
          "duration": 0.09677399999998215,
          "durationTicks": 96,
          "midi": 36,
          "name": "C2",
          "ticks": 163968,
          "time": 165.289992,
          "velocity": 0.3937007874015748
        },
        {
          "duration": 0.09677399999998215,
          "durationTicks": 96,
          "midi": 38,
          "name": "D2",
          "ticks": 164160,
          "time": 165.48354,
          "velocity": 0.3937007874015748
        },
        {
          "duration": 0.09677400000001057,
          "durationTicks": 96,
          "midi": 36,
          "name": "C2",
          "ticks": 164352,
          "time": 165.677088,
          "velocity": 0.3937007874015748
        },
        {
          "duration": 0.09677400000001057,
          "durationTicks": 96,
          "midi": 38,
          "name": "D2",
          "ticks": 164544,
          "time": 165.870636,
          "velocity": 0.3937007874015748
        },
        {
          "duration": 0.09677399999998215,
          "durationTicks": 96,
          "midi": 36,
          "name": "C2",
          "ticks": 164736,
          "time": 166.064184,
          "velocity": 0.3937007874015748
        },
        {
          "duration": 0.09677399999998215,
          "durationTicks": 96,
          "midi": 38,
          "name": "D2",
          "ticks": 164928,
          "time": 166.257732,
          "velocity": 0.3937007874015748
        },
        {
          "duration": 0.09677400000001057,
          "durationTicks": 96,
          "midi": 36,
          "name": "C2",
          "ticks": 165120,
          "time": 166.45128,
          "velocity": 0.3937007874015748
        },
        {
          "duration": 0.09677400000001057,
          "durationTicks": 96,
          "midi": 38,
          "name": "D2",
          "ticks": 165312,
          "time": 166.644828,
          "velocity": 0.3937007874015748
        },
        {
          "duration": 0.09677399999998215,
          "durationTicks": 96,
          "midi": 36,
          "name": "C2",
          "ticks": 165504,
          "time": 166.838376,
          "velocity": 0.3937007874015748
        },
        {
          "duration": 0.09677399999998215,
          "durationTicks": 96,
          "midi": 38,
          "name": "D2",
          "ticks": 165696,
          "time": 167.031924,
          "velocity": 0.3937007874015748
        },
        {
          "duration": 0.09677400000001057,
          "durationTicks": 96,
          "midi": 36,
          "name": "C2",
          "ticks": 165888,
          "time": 167.225472,
          "velocity": 0.3937007874015748
        },
        {
          "duration": 0.09677400000001057,
          "durationTicks": 96,
          "midi": 38,
          "name": "D2",
          "ticks": 166080,
          "time": 167.41902,
          "velocity": 0.3937007874015748
        },
        {
          "duration": 0.09677399999998215,
          "durationTicks": 96,
          "midi": 36,
          "name": "C2",
          "ticks": 166272,
          "time": 167.612568,
          "velocity": 0.3937007874015748
        },
        {
          "duration": 0.09677399999998215,
          "durationTicks": 96,
          "midi": 38,
          "name": "D2",
          "ticks": 166464,
          "time": 167.806116,
          "velocity": 0.3937007874015748
        },
        {
          "duration": 0.09677400000001057,
          "durationTicks": 96,
          "midi": 36,
          "name": "C2",
          "ticks": 166656,
          "time": 167.999664,
          "velocity": 0.3937007874015748
        },
        {
          "duration": 0.09677400000001057,
          "durationTicks": 96,
          "midi": 38,
          "name": "D2",
          "ticks": 166848,
          "time": 168.193212,
          "velocity": 0.3937007874015748
        },
        {
          "duration": 0.09677399999998215,
          "durationTicks": 96,
          "midi": 36,
          "name": "C2",
          "ticks": 167040,
          "time": 168.38676,
          "velocity": 0.3937007874015748
        },
        {
          "duration": 0.09677399999998215,
          "durationTicks": 96,
          "midi": 38,
          "name": "D2",
          "ticks": 167232,
          "time": 168.580308,
          "velocity": 0.3937007874015748
        },
        {
          "duration": 0.09677400000001057,
          "durationTicks": 96,
          "midi": 36,
          "name": "C2",
          "ticks": 167424,
          "time": 168.773856,
          "velocity": 0.3937007874015748
        },
        {
          "duration": 0.09677400000001057,
          "durationTicks": 96,
          "midi": 38,
          "name": "D2",
          "ticks": 167616,
          "time": 168.967404,
          "velocity": 0.3937007874015748
        },
        {
          "duration": 0.09677399999998215,
          "durationTicks": 96,
          "midi": 36,
          "name": "C2",
          "ticks": 167808,
          "time": 169.160952,
          "velocity": 0.3937007874015748
        },
        {
          "duration": 0.09677400000001057,
          "durationTicks": 96,
          "midi": 38,
          "name": "D2",
          "ticks": 168000,
          "time": 169.3545,
          "velocity": 0.3937007874015748
        },
        {
          "duration": 0.09677400000001057,
          "durationTicks": 96,
          "midi": 36,
          "name": "C2",
          "ticks": 168192,
          "time": 169.548048,
          "velocity": 0.3937007874015748
        },
        {
          "duration": 0.09677400000001057,
          "durationTicks": 96,
          "midi": 38,
          "name": "D2",
          "ticks": 168384,
          "time": 169.741596,
          "velocity": 0.3937007874015748
        },
        {
          "duration": 0.09677399999998215,
          "durationTicks": 96,
          "midi": 36,
          "name": "C2",
          "ticks": 168576,
          "time": 169.935144,
          "velocity": 0.3937007874015748
        },
        {
          "duration": 0.09677400000001057,
          "durationTicks": 96,
          "midi": 38,
          "name": "D2",
          "ticks": 168768,
          "time": 170.128692,
          "velocity": 0.3937007874015748
        },
        {
          "duration": 0.09677400000001057,
          "durationTicks": 96,
          "midi": 36,
          "name": "C2",
          "ticks": 168960,
          "time": 170.32224,
          "velocity": 0.3937007874015748
        },
        {
          "duration": 0.09677400000001057,
          "durationTicks": 96,
          "midi": 36,
          "name": "C2",
          "ticks": 168960,
          "time": 170.32224,
          "velocity": 0.3937007874015748
        },
        {
          "duration": 0.09677400000001057,
          "durationTicks": 96,
          "midi": 38,
          "name": "D2",
          "ticks": 169152,
          "time": 170.515788,
          "velocity": 0.3937007874015748
        },
        {
          "duration": 0.09677400000001057,
          "durationTicks": 96,
          "midi": 38,
          "name": "D2",
          "ticks": 169152,
          "time": 170.515788,
          "velocity": 0.3937007874015748
        },
        {
          "duration": 0.09677399999998215,
          "durationTicks": 96,
          "midi": 36,
          "name": "C2",
          "ticks": 169344,
          "time": 170.709336,
          "velocity": 0.3937007874015748
        },
        {
          "duration": 0.09677399999998215,
          "durationTicks": 96,
          "midi": 36,
          "name": "C2",
          "ticks": 169344,
          "time": 170.709336,
          "velocity": 0.3937007874015748
        },
        {
          "duration": 0.09677400000001057,
          "durationTicks": 96,
          "midi": 38,
          "name": "D2",
          "ticks": 169536,
          "time": 170.902884,
          "velocity": 0.3937007874015748
        },
        {
          "duration": 0.09677400000001057,
          "durationTicks": 96,
          "midi": 38,
          "name": "D2",
          "ticks": 169536,
          "time": 170.902884,
          "velocity": 0.3937007874015748
        },
        {
          "duration": 0.09677400000001057,
          "durationTicks": 96,
          "midi": 36,
          "name": "C2",
          "ticks": 169728,
          "time": 171.096432,
          "velocity": 0.3937007874015748
        },
        {
          "duration": 0.09677400000001057,
          "durationTicks": 96,
          "midi": 36,
          "name": "C2",
          "ticks": 169728,
          "time": 171.096432,
          "velocity": 0.3937007874015748
        },
        {
          "duration": 0.09677400000001057,
          "durationTicks": 96,
          "midi": 38,
          "name": "D2",
          "ticks": 169920,
          "time": 171.28997999999999,
          "velocity": 0.3937007874015748
        },
        {
          "duration": 0.09677400000001057,
          "durationTicks": 96,
          "midi": 38,
          "name": "D2",
          "ticks": 169920,
          "time": 171.28997999999999,
          "velocity": 0.3937007874015748
        },
        {
          "duration": 0.09677399999998215,
          "durationTicks": 96,
          "midi": 36,
          "name": "C2",
          "ticks": 170112,
          "time": 171.483528,
          "velocity": 0.3937007874015748
        },
        {
          "duration": 0.09677399999998215,
          "durationTicks": 96,
          "midi": 36,
          "name": "C2",
          "ticks": 170112,
          "time": 171.483528,
          "velocity": 0.3937007874015748
        },
        {
          "duration": 0.09677400000001057,
          "durationTicks": 96,
          "midi": 38,
          "name": "D2",
          "ticks": 170304,
          "time": 171.677076,
          "velocity": 0.3937007874015748
        },
        {
          "duration": 0.09677400000001057,
          "durationTicks": 96,
          "midi": 38,
          "name": "D2",
          "ticks": 170304,
          "time": 171.677076,
          "velocity": 0.3937007874015748
        },
        {
          "duration": 0.09677400000001057,
          "durationTicks": 96,
          "midi": 36,
          "name": "C2",
          "ticks": 170496,
          "time": 171.870624,
          "velocity": 0.3937007874015748
        },
        {
          "duration": 0.09677400000001057,
          "durationTicks": 96,
          "midi": 36,
          "name": "C2",
          "ticks": 170496,
          "time": 171.870624,
          "velocity": 0.3937007874015748
        },
        {
          "duration": 0.09677400000001057,
          "durationTicks": 96,
          "midi": 38,
          "name": "D2",
          "ticks": 170688,
          "time": 172.06417199999999,
          "velocity": 0.3937007874015748
        },
        {
          "duration": 0.09677400000001057,
          "durationTicks": 96,
          "midi": 38,
          "name": "D2",
          "ticks": 170688,
          "time": 172.06417199999999,
          "velocity": 0.3937007874015748
        },
        {
          "duration": 0.09677399999998215,
          "durationTicks": 96,
          "midi": 36,
          "name": "C2",
          "ticks": 170880,
          "time": 172.25772,
          "velocity": 0.3937007874015748
        },
        {
          "duration": 0.09677399999998215,
          "durationTicks": 96,
          "midi": 36,
          "name": "C2",
          "ticks": 170880,
          "time": 172.25772,
          "velocity": 0.3937007874015748
        },
        {
          "duration": 0.09677400000001057,
          "durationTicks": 96,
          "midi": 38,
          "name": "D2",
          "ticks": 171072,
          "time": 172.451268,
          "velocity": 0.3937007874015748
        },
        {
          "duration": 0.09677400000001057,
          "durationTicks": 96,
          "midi": 38,
          "name": "D2",
          "ticks": 171072,
          "time": 172.451268,
          "velocity": 0.3937007874015748
        },
        {
          "duration": 0.09677400000001057,
          "durationTicks": 96,
          "midi": 36,
          "name": "C2",
          "ticks": 171264,
          "time": 172.644816,
          "velocity": 0.3937007874015748
        },
        {
          "duration": 0.09677400000001057,
          "durationTicks": 96,
          "midi": 36,
          "name": "C2",
          "ticks": 171264,
          "time": 172.644816,
          "velocity": 0.3937007874015748
        },
        {
          "duration": 0.09677400000001057,
          "durationTicks": 96,
          "midi": 38,
          "name": "D2",
          "ticks": 171456,
          "time": 172.83836399999998,
          "velocity": 0.3937007874015748
        },
        {
          "duration": 0.09677400000001057,
          "durationTicks": 96,
          "midi": 38,
          "name": "D2",
          "ticks": 171456,
          "time": 172.83836399999998,
          "velocity": 0.3937007874015748
        },
        {
          "duration": 0.09677399999998215,
          "durationTicks": 96,
          "midi": 36,
          "name": "C2",
          "ticks": 171648,
          "time": 173.031912,
          "velocity": 0.3937007874015748
        },
        {
          "duration": 0.09677399999998215,
          "durationTicks": 96,
          "midi": 36,
          "name": "C2",
          "ticks": 171648,
          "time": 173.031912,
          "velocity": 0.3937007874015748
        },
        {
          "duration": 0.09677400000001057,
          "durationTicks": 96,
          "midi": 38,
          "name": "D2",
          "ticks": 171840,
          "time": 173.22546,
          "velocity": 0.3937007874015748
        },
        {
          "duration": 0.09677400000001057,
          "durationTicks": 96,
          "midi": 38,
          "name": "D2",
          "ticks": 171840,
          "time": 173.22546,
          "velocity": 0.3937007874015748
        },
        {
          "duration": 0.09677400000001057,
          "durationTicks": 96,
          "midi": 36,
          "name": "C2",
          "ticks": 172032,
          "time": 173.419008,
          "velocity": 0.3937007874015748
        },
        {
          "duration": 0.09677399999998215,
          "durationTicks": 96,
          "midi": 38,
          "name": "D2",
          "ticks": 172224,
          "time": 173.612556,
          "velocity": 0.3937007874015748
        },
        {
          "duration": 0.09677399999998215,
          "durationTicks": 96,
          "midi": 36,
          "name": "C2",
          "ticks": 172416,
          "time": 173.806104,
          "velocity": 0.3937007874015748
        },
        {
          "duration": 0.09677400000001057,
          "durationTicks": 96,
          "midi": 38,
          "name": "D2",
          "ticks": 172608,
          "time": 173.999652,
          "velocity": 0.3937007874015748
        },
        {
          "duration": 0.09677400000001057,
          "durationTicks": 96,
          "midi": 36,
          "name": "C2",
          "ticks": 172800,
          "time": 174.1932,
          "velocity": 0.3937007874015748
        },
        {
          "duration": 0.09677399999998215,
          "durationTicks": 96,
          "midi": 38,
          "name": "D2",
          "ticks": 172992,
          "time": 174.386748,
          "velocity": 0.3937007874015748
        },
        {
          "duration": 0.09677399999998215,
          "durationTicks": 96,
          "midi": 36,
          "name": "C2",
          "ticks": 173184,
          "time": 174.580296,
          "velocity": 0.3937007874015748
        },
        {
          "duration": 0.09677400000001057,
          "durationTicks": 96,
          "midi": 38,
          "name": "D2",
          "ticks": 173376,
          "time": 174.773844,
          "velocity": 0.3937007874015748
        },
        {
          "duration": 0.09677400000001057,
          "durationTicks": 96,
          "midi": 36,
          "name": "C2",
          "ticks": 173568,
          "time": 174.967392,
          "velocity": 0.3937007874015748
        },
        {
          "duration": 0.09677399999998215,
          "durationTicks": 96,
          "midi": 38,
          "name": "D2",
          "ticks": 173760,
          "time": 175.16094,
          "velocity": 0.3937007874015748
        },
        {
          "duration": 0.09677399999998215,
          "durationTicks": 96,
          "midi": 36,
          "name": "C2",
          "ticks": 173952,
          "time": 175.354488,
          "velocity": 0.3937007874015748
        },
        {
          "duration": 0.09677400000001057,
          "durationTicks": 96,
          "midi": 38,
          "name": "D2",
          "ticks": 174144,
          "time": 175.548036,
          "velocity": 0.3937007874015748
        },
        {
          "duration": 0.09677400000001057,
          "durationTicks": 96,
          "midi": 36,
          "name": "C2",
          "ticks": 174336,
          "time": 175.741584,
          "velocity": 0.3937007874015748
        },
        {
          "duration": 0.09677399999998215,
          "durationTicks": 96,
          "midi": 38,
          "name": "D2",
          "ticks": 174528,
          "time": 175.935132,
          "velocity": 0.3937007874015748
        },
        {
          "duration": 0.09677399999998215,
          "durationTicks": 96,
          "midi": 36,
          "name": "C2",
          "ticks": 174720,
          "time": 176.12868,
          "velocity": 0.3937007874015748
        },
        {
          "duration": 0.09677400000001057,
          "durationTicks": 96,
          "midi": 38,
          "name": "D2",
          "ticks": 174912,
          "time": 176.322228,
          "velocity": 0.3937007874015748
        },
        {
          "duration": 0.09677400000001057,
          "durationTicks": 96,
          "midi": 36,
          "name": "C2",
          "ticks": 175104,
          "time": 176.515776,
          "velocity": 0.3937007874015748
        },
        {
          "duration": 0.09677399999998215,
          "durationTicks": 96,
          "midi": 38,
          "name": "D2",
          "ticks": 175296,
          "time": 176.709324,
          "velocity": 0.3937007874015748
        },
        {
          "duration": 0.09677399999998215,
          "durationTicks": 96,
          "midi": 36,
          "name": "C2",
          "ticks": 175488,
          "time": 176.902872,
          "velocity": 0.3937007874015748
        },
        {
          "duration": 0.09677400000001057,
          "durationTicks": 96,
          "midi": 38,
          "name": "D2",
          "ticks": 175680,
          "time": 177.09642,
          "velocity": 0.3937007874015748
        },
        {
          "duration": 0.09677400000001057,
          "durationTicks": 96,
          "midi": 36,
          "name": "C2",
          "ticks": 175872,
          "time": 177.289968,
          "velocity": 0.3937007874015748
        },
        {
          "duration": 0.09677399999998215,
          "durationTicks": 96,
          "midi": 38,
          "name": "D2",
          "ticks": 176064,
          "time": 177.483516,
          "velocity": 0.3937007874015748
        },
        {
          "duration": 0.09677400000001057,
          "durationTicks": 96,
          "midi": 36,
          "name": "C2",
          "ticks": 176256,
          "time": 177.677064,
          "velocity": 0.3937007874015748
        },
        {
          "duration": 0.09677400000001057,
          "durationTicks": 96,
          "midi": 38,
          "name": "D2",
          "ticks": 176448,
          "time": 177.870612,
          "velocity": 0.3937007874015748
        },
        {
          "duration": 0.09677400000001057,
          "durationTicks": 96,
          "midi": 36,
          "name": "C2",
          "ticks": 176640,
          "time": 178.06416,
          "velocity": 0.3937007874015748
        },
        {
          "duration": 0.09677399999998215,
          "durationTicks": 96,
          "midi": 38,
          "name": "D2",
          "ticks": 176832,
          "time": 178.257708,
          "velocity": 0.3937007874015748
        },
        {
          "duration": 0.09677400000001057,
          "durationTicks": 96,
          "midi": 36,
          "name": "C2",
          "ticks": 177024,
          "time": 178.451256,
          "velocity": 0.3937007874015748
        },
        {
          "duration": 0.09677400000001057,
          "durationTicks": 96,
          "midi": 38,
          "name": "D2",
          "ticks": 177216,
          "time": 178.644804,
          "velocity": 0.3937007874015748
        },
        {
          "duration": 0.09677400000001057,
          "durationTicks": 96,
          "midi": 36,
          "name": "C2",
          "ticks": 177408,
          "time": 178.838352,
          "velocity": 0.3937007874015748
        },
        {
          "duration": 0.09677399999998215,
          "durationTicks": 96,
          "midi": 38,
          "name": "D2",
          "ticks": 177600,
          "time": 179.0319,
          "velocity": 0.3937007874015748
        },
        {
          "duration": 0.09677400000001057,
          "durationTicks": 96,
          "midi": 36,
          "name": "C2",
          "ticks": 177792,
          "time": 179.225448,
          "velocity": 0.3937007874015748
        },
        {
          "duration": 0.09677400000001057,
          "durationTicks": 96,
          "midi": 38,
          "name": "D2",
          "ticks": 177984,
          "time": 179.418996,
          "velocity": 0.3937007874015748
        },
        {
          "duration": 0.09677400000001057,
          "durationTicks": 96,
          "midi": 36,
          "name": "C2",
          "ticks": 178176,
          "time": 179.61254399999999,
          "velocity": 0.3937007874015748
        },
        {
          "duration": 0.09677399999998215,
          "durationTicks": 96,
          "midi": 38,
          "name": "D2",
          "ticks": 178368,
          "time": 179.806092,
          "velocity": 0.3937007874015748
        },
        {
          "duration": 0.09677400000001057,
          "durationTicks": 96,
          "midi": 36,
          "name": "C2",
          "ticks": 178560,
          "time": 179.99964,
          "velocity": 0.3937007874015748
        },
        {
          "duration": 0.09677400000001057,
          "durationTicks": 96,
          "midi": 38,
          "name": "D2",
          "ticks": 178752,
          "time": 180.193188,
          "velocity": 0.3937007874015748
        },
        {
          "duration": 0.09677400000001057,
          "durationTicks": 96,
          "midi": 36,
          "name": "C2",
          "ticks": 178944,
          "time": 180.38673599999998,
          "velocity": 0.3937007874015748
        },
        {
          "duration": 0.09677399999998215,
          "durationTicks": 96,
          "midi": 38,
          "name": "D2",
          "ticks": 179136,
          "time": 180.580284,
          "velocity": 0.3937007874015748
        },
        {
          "duration": 0.09677400000001057,
          "durationTicks": 96,
          "midi": 36,
          "name": "C2",
          "ticks": 179328,
          "time": 180.773832,
          "velocity": 0.3937007874015748
        },
        {
          "duration": 0.09677400000001057,
          "durationTicks": 96,
          "midi": 38,
          "name": "D2",
          "ticks": 179520,
          "time": 180.96738,
          "velocity": 0.3937007874015748
        },
        {
          "duration": 0.09677400000001057,
          "durationTicks": 96,
          "midi": 36,
          "name": "C2",
          "ticks": 179712,
          "time": 181.16092799999998,
          "velocity": 0.3937007874015748
        },
        {
          "duration": 0.09677399999998215,
          "durationTicks": 96,
          "midi": 38,
          "name": "D2",
          "ticks": 179904,
          "time": 181.354476,
          "velocity": 0.3937007874015748
        },
        {
          "duration": 0.09677400000001057,
          "durationTicks": 96,
          "midi": 36,
          "name": "C2",
          "ticks": 180096,
          "time": 181.548024,
          "velocity": 0.3937007874015748
        },
        {
          "duration": 0.09677400000001057,
          "durationTicks": 96,
          "midi": 38,
          "name": "D2",
          "ticks": 180288,
          "time": 181.741572,
          "velocity": 0.3937007874015748
        },
        {
          "duration": 0.09677399999998215,
          "durationTicks": 96,
          "midi": 36,
          "name": "C2",
          "ticks": 180480,
          "time": 181.93512,
          "velocity": 0.3937007874015748
        },
        {
          "duration": 0.09677399999998215,
          "durationTicks": 96,
          "midi": 38,
          "name": "D2",
          "ticks": 180672,
          "time": 182.128668,
          "velocity": 0.3937007874015748
        },
        {
          "duration": 0.09677400000001057,
          "durationTicks": 96,
          "midi": 36,
          "name": "C2",
          "ticks": 180864,
          "time": 182.322216,
          "velocity": 0.3937007874015748
        },
        {
          "duration": 0.09677400000001057,
          "durationTicks": 96,
          "midi": 38,
          "name": "D2",
          "ticks": 181056,
          "time": 182.515764,
          "velocity": 0.3937007874015748
        },
        {
          "duration": 0.09677399999998215,
          "durationTicks": 96,
          "midi": 36,
          "name": "C2",
          "ticks": 181248,
          "time": 182.709312,
          "velocity": 0.3937007874015748
        },
        {
          "duration": 0.09677399999998215,
          "durationTicks": 96,
          "midi": 38,
          "name": "D2",
          "ticks": 181440,
          "time": 182.90286,
          "velocity": 0.3937007874015748
        },
        {
          "duration": 0.09677400000001057,
          "durationTicks": 96,
          "midi": 36,
          "name": "C2",
          "ticks": 181632,
          "time": 183.096408,
          "velocity": 0.3937007874015748
        },
        {
          "duration": 0.09677400000001057,
          "durationTicks": 96,
          "midi": 38,
          "name": "D2",
          "ticks": 181824,
          "time": 183.289956,
          "velocity": 0.3937007874015748
        },
        {
          "duration": 0.09677399999998215,
          "durationTicks": 96,
          "midi": 36,
          "name": "C2",
          "ticks": 182016,
          "time": 183.483504,
          "velocity": 0.3937007874015748
        },
        {
          "duration": 0.09677399999998215,
          "durationTicks": 96,
          "midi": 38,
          "name": "D2",
          "ticks": 182208,
          "time": 183.677052,
          "velocity": 0.3937007874015748
        },
        {
          "duration": 0.09677400000001057,
          "durationTicks": 96,
          "midi": 36,
          "name": "C2",
          "ticks": 182400,
          "time": 183.8706,
          "velocity": 0.3937007874015748
        },
        {
          "duration": 0.09677400000001057,
          "durationTicks": 96,
          "midi": 38,
          "name": "D2",
          "ticks": 182592,
          "time": 184.064148,
          "velocity": 0.3937007874015748
        },
        {
          "duration": 0.09677399999998215,
          "durationTicks": 96,
          "midi": 36,
          "name": "C2",
          "ticks": 182784,
          "time": 184.257696,
          "velocity": 0.3937007874015748
        },
        {
          "duration": 0.09677399999998215,
          "durationTicks": 96,
          "midi": 38,
          "name": "D2",
          "ticks": 182976,
          "time": 184.451244,
          "velocity": 0.3937007874015748
        },
        {
          "duration": 0.09677400000001057,
          "durationTicks": 96,
          "midi": 36,
          "name": "C2",
          "ticks": 183168,
          "time": 184.644792,
          "velocity": 0.3937007874015748
        },
        {
          "duration": 0.09677400000001057,
          "durationTicks": 96,
          "midi": 38,
          "name": "D2",
          "ticks": 183360,
          "time": 184.83834,
          "velocity": 0.3937007874015748
        },
        {
          "duration": 0.09677399999998215,
          "durationTicks": 96,
          "midi": 36,
          "name": "C2",
          "ticks": 183552,
          "time": 185.031888,
          "velocity": 0.3937007874015748
        },
        {
          "duration": 0.09677399999998215,
          "durationTicks": 96,
          "midi": 38,
          "name": "D2",
          "ticks": 183744,
          "time": 185.225436,
          "velocity": 0.3937007874015748
        },
        {
          "duration": 0.09677400000001057,
          "durationTicks": 96,
          "midi": 36,
          "name": "C2",
          "ticks": 183936,
          "time": 185.418984,
          "velocity": 0.3937007874015748
        },
        {
          "duration": 0.09677400000001057,
          "durationTicks": 96,
          "midi": 38,
          "name": "D2",
          "ticks": 184128,
          "time": 185.612532,
          "velocity": 0.3937007874015748
        },
        {
          "duration": 0.09677399999998215,
          "durationTicks": 96,
          "midi": 36,
          "name": "C2",
          "ticks": 184320,
          "time": 185.80608,
          "velocity": 0.3937007874015748
        },
        {
          "duration": 0.09677400000001057,
          "durationTicks": 96,
          "midi": 38,
          "name": "D2",
          "ticks": 184512,
          "time": 185.999628,
          "velocity": 0.3937007874015748
        },
        {
          "duration": 0.09677400000001057,
          "durationTicks": 96,
          "midi": 36,
          "name": "C2",
          "ticks": 184704,
          "time": 186.193176,
          "velocity": 0.3937007874015748
        },
        {
          "duration": 0.09677400000001057,
          "durationTicks": 96,
          "midi": 38,
          "name": "D2",
          "ticks": 184896,
          "time": 186.386724,
          "velocity": 0.3937007874015748
        },
        {
          "duration": 0.09677399999998215,
          "durationTicks": 96,
          "midi": 36,
          "name": "C2",
          "ticks": 185088,
          "time": 186.580272,
          "velocity": 0.3937007874015748
        },
        {
          "duration": 0.09677400000001057,
          "durationTicks": 96,
          "midi": 38,
          "name": "D2",
          "ticks": 185280,
          "time": 186.77382,
          "velocity": 0.3937007874015748
        },
        {
          "duration": 0.09677400000001057,
          "durationTicks": 96,
          "midi": 36,
          "name": "C2",
          "ticks": 185472,
          "time": 186.967368,
          "velocity": 0.3937007874015748
        },
        {
          "duration": 0.09677400000001057,
          "durationTicks": 96,
          "midi": 38,
          "name": "D2",
          "ticks": 185664,
          "time": 187.160916,
          "velocity": 0.3937007874015748
        },
        {
          "duration": 0.09677399999998215,
          "durationTicks": 96,
          "midi": 36,
          "name": "C2",
          "ticks": 185856,
          "time": 187.354464,
          "velocity": 0.3937007874015748
        },
        {
          "duration": 0.09677400000001057,
          "durationTicks": 96,
          "midi": 38,
          "name": "D2",
          "ticks": 186048,
          "time": 187.548012,
          "velocity": 0.3937007874015748
        },
        {
          "duration": 0.09677400000001057,
          "durationTicks": 96,
          "midi": 36,
          "name": "C2",
          "ticks": 186240,
          "time": 187.74156,
          "velocity": 0.3937007874015748
        },
        {
          "duration": 0.09677400000001057,
          "durationTicks": 96,
          "midi": 38,
          "name": "D2",
          "ticks": 186432,
          "time": 187.93510799999999,
          "velocity": 0.3937007874015748
        },
        {
          "duration": 0.09677399999998215,
          "durationTicks": 96,
          "midi": 36,
          "name": "C2",
          "ticks": 186624,
          "time": 188.128656,
          "velocity": 0.3937007874015748
        },
        {
          "duration": 0.09677400000001057,
          "durationTicks": 96,
          "midi": 38,
          "name": "D2",
          "ticks": 186816,
          "time": 188.322204,
          "velocity": 0.3937007874015748
        },
        {
          "duration": 0.09677400000001057,
          "durationTicks": 96,
          "midi": 36,
          "name": "C2",
          "ticks": 187008,
          "time": 188.515752,
          "velocity": 0.3937007874015748
        },
        {
          "duration": 0.09677400000001057,
          "durationTicks": 96,
          "midi": 38,
          "name": "D2",
          "ticks": 187200,
          "time": 188.70929999999998,
          "velocity": 0.3937007874015748
        },
        {
          "duration": 0.09677399999998215,
          "durationTicks": 96,
          "midi": 36,
          "name": "C2",
          "ticks": 187392,
          "time": 188.902848,
          "velocity": 0.3937007874015748
        },
        {
          "duration": 0.09677400000001057,
          "durationTicks": 96,
          "midi": 38,
          "name": "D2",
          "ticks": 187584,
          "time": 189.096396,
          "velocity": 0.3937007874015748
        },
        {
          "duration": 0.09677400000001057,
          "durationTicks": 96,
          "midi": 36,
          "name": "C2",
          "ticks": 187776,
          "time": 189.289944,
          "velocity": 0.3937007874015748
        },
        {
          "duration": 0.09677400000001057,
          "durationTicks": 96,
          "midi": 38,
          "name": "D2",
          "ticks": 187968,
          "time": 189.48349199999998,
          "velocity": 0.3937007874015748
        },
        {
          "duration": 0.09677399999998215,
          "durationTicks": 96,
          "midi": 36,
          "name": "C2",
          "ticks": 188160,
          "time": 189.67704,
          "velocity": 0.3937007874015748
        },
        {
          "duration": 0.09677400000001057,
          "durationTicks": 96,
          "midi": 38,
          "name": "D2",
          "ticks": 188352,
          "time": 189.870588,
          "velocity": 0.3937007874015748
        },
        {
          "duration": 0.09677400000001057,
          "durationTicks": 96,
          "midi": 36,
          "name": "C2",
          "ticks": 188544,
          "time": 190.064136,
          "velocity": 0.3937007874015748
        },
        {
          "duration": 0.09677399999998215,
          "durationTicks": 96,
          "midi": 38,
          "name": "D2",
          "ticks": 188736,
          "time": 190.257684,
          "velocity": 0.3937007874015748
        },
        {
          "duration": 0.09677399999998215,
          "durationTicks": 96,
          "midi": 36,
          "name": "C2",
          "ticks": 188928,
          "time": 190.451232,
          "velocity": 0.3937007874015748
        },
        {
          "duration": 0.09677400000001057,
          "durationTicks": 96,
          "midi": 38,
          "name": "D2",
          "ticks": 189120,
          "time": 190.64478,
          "velocity": 0.3937007874015748
        },
        {
          "duration": 0.09677400000001057,
          "durationTicks": 96,
          "midi": 36,
          "name": "C2",
          "ticks": 189312,
          "time": 190.838328,
          "velocity": 0.3937007874015748
        },
        {
          "duration": 0.09677399999998215,
          "durationTicks": 96,
          "midi": 38,
          "name": "D2",
          "ticks": 189504,
          "time": 191.031876,
          "velocity": 0.3937007874015748
        },
        {
          "duration": 0.09677399999998215,
          "durationTicks": 96,
          "midi": 36,
          "name": "C2",
          "ticks": 189696,
          "time": 191.225424,
          "velocity": 0.3937007874015748
        },
        {
          "duration": 0.09677400000001057,
          "durationTicks": 96,
          "midi": 38,
          "name": "D2",
          "ticks": 189888,
          "time": 191.418972,
          "velocity": 0.3937007874015748
        },
        {
          "duration": 0.09677400000001057,
          "durationTicks": 96,
          "midi": 36,
          "name": "C2",
          "ticks": 190080,
          "time": 191.61252,
          "velocity": 0.3937007874015748
        },
        {
          "duration": 0.09677399999998215,
          "durationTicks": 96,
          "midi": 38,
          "name": "D2",
          "ticks": 190272,
          "time": 191.806068,
          "velocity": 0.3937007874015748
        },
        {
          "duration": 0.09677399999998215,
          "durationTicks": 96,
          "midi": 49,
          "name": "C#3",
          "ticks": 190464,
          "time": 191.999616,
          "velocity": 0.3937007874015748
        },
        {
          "duration": 0.09677399999998215,
          "durationTicks": 96,
          "midi": 36,
          "name": "C2",
          "ticks": 190464,
          "time": 191.999616,
          "velocity": 0.3937007874015748
        },
        {
          "duration": 0.09677400000001057,
          "durationTicks": 96,
          "midi": 38,
          "name": "D2",
          "ticks": 190656,
          "time": 192.193164,
          "velocity": 0.3937007874015748
        },
        {
          "duration": 0.09677400000001057,
          "durationTicks": 96,
          "midi": 36,
          "name": "C2",
          "ticks": 190848,
          "time": 192.386712,
          "velocity": 0.3937007874015748
        },
        {
          "duration": 0.09677399999998215,
          "durationTicks": 96,
          "midi": 38,
          "name": "D2",
          "ticks": 191040,
          "time": 192.58026,
          "velocity": 0.3937007874015748
        },
        {
          "duration": 0.09677399999998215,
          "durationTicks": 96,
          "midi": 36,
          "name": "C2",
          "ticks": 191232,
          "time": 192.773808,
          "velocity": 0.3937007874015748
        },
        {
          "duration": 0.09677400000001057,
          "durationTicks": 96,
          "midi": 38,
          "name": "D2",
          "ticks": 191424,
          "time": 192.967356,
          "velocity": 0.3937007874015748
        },
        {
          "duration": 0.09677400000001057,
          "durationTicks": 96,
          "midi": 36,
          "name": "C2",
          "ticks": 191616,
          "time": 193.160904,
          "velocity": 0.3937007874015748
        },
        {
          "duration": 0.09677399999998215,
          "durationTicks": 96,
          "midi": 38,
          "name": "D2",
          "ticks": 191808,
          "time": 193.354452,
          "velocity": 0.3937007874015748
        },
        {
          "duration": 0.09677399999998215,
          "durationTicks": 96,
          "midi": 36,
          "name": "C2",
          "ticks": 192000,
          "time": 193.548,
          "velocity": 0.3937007874015748
        },
        {
          "duration": 0.09677400000001057,
          "durationTicks": 96,
          "midi": 38,
          "name": "D2",
          "ticks": 192192,
          "time": 193.741548,
          "velocity": 0.3937007874015748
        },
        {
          "duration": 0.09677400000001057,
          "durationTicks": 96,
          "midi": 36,
          "name": "C2",
          "ticks": 192384,
          "time": 193.935096,
          "velocity": 0.3937007874015748
        },
        {
          "duration": 0.09677399999998215,
          "durationTicks": 96,
          "midi": 38,
          "name": "D2",
          "ticks": 192576,
          "time": 194.128644,
          "velocity": 0.3937007874015748
        },
        {
          "duration": 0.09677400000001057,
          "durationTicks": 96,
          "midi": 36,
          "name": "C2",
          "ticks": 192768,
          "time": 194.322192,
          "velocity": 0.3937007874015748
        },
        {
          "duration": 0.09677400000001057,
          "durationTicks": 96,
          "midi": 38,
          "name": "D2",
          "ticks": 192960,
          "time": 194.51574,
          "velocity": 0.3937007874015748
        },
        {
          "duration": 0.09677400000001057,
          "durationTicks": 96,
          "midi": 36,
          "name": "C2",
          "ticks": 193152,
          "time": 194.709288,
          "velocity": 0.3937007874015748
        },
        {
          "duration": 0.09677399999998215,
          "durationTicks": 96,
          "midi": 38,
          "name": "D2",
          "ticks": 193344,
          "time": 194.902836,
          "velocity": 0.3937007874015748
        },
        {
          "duration": 0.09677400000001057,
          "durationTicks": 96,
          "midi": 36,
          "name": "C2",
          "ticks": 193536,
          "time": 195.096384,
          "velocity": 0.3937007874015748
        },
        {
          "duration": 0.09677400000001057,
          "durationTicks": 96,
          "midi": 38,
          "name": "D2",
          "ticks": 193728,
          "time": 195.289932,
          "velocity": 0.3937007874015748
        },
        {
          "duration": 0.09677400000001057,
          "durationTicks": 96,
          "midi": 36,
          "name": "C2",
          "ticks": 193920,
          "time": 195.48348,
          "velocity": 0.3937007874015748
        },
        {
          "duration": 0.09677399999998215,
          "durationTicks": 96,
          "midi": 38,
          "name": "D2",
          "ticks": 194112,
          "time": 195.677028,
          "velocity": 0.3937007874015748
        },
        {
          "duration": 0.09677400000001057,
          "durationTicks": 96,
          "midi": 36,
          "name": "C2",
          "ticks": 194304,
          "time": 195.870576,
          "velocity": 0.3937007874015748
        },
        {
          "duration": 0.09677400000001057,
          "durationTicks": 96,
          "midi": 38,
          "name": "D2",
          "ticks": 194496,
          "time": 196.064124,
          "velocity": 0.3937007874015748
        },
        {
          "duration": 0.09677400000001057,
          "durationTicks": 96,
          "midi": 36,
          "name": "C2",
          "ticks": 194688,
          "time": 196.25767199999999,
          "velocity": 0.3937007874015748
        },
        {
          "duration": 0.09677399999998215,
          "durationTicks": 96,
          "midi": 38,
          "name": "D2",
          "ticks": 194880,
          "time": 196.45122,
          "velocity": 0.3937007874015748
        },
        {
          "duration": 0.09677400000001057,
          "durationTicks": 96,
          "midi": 36,
          "name": "C2",
          "ticks": 195072,
          "time": 196.644768,
          "velocity": 0.3937007874015748
        },
        {
          "duration": 0.09677400000001057,
          "durationTicks": 96,
          "midi": 38,
          "name": "D2",
          "ticks": 195264,
          "time": 196.838316,
          "velocity": 0.3937007874015748
        },
        {
          "duration": 0.09677400000001057,
          "durationTicks": 96,
          "midi": 36,
          "name": "C2",
          "ticks": 195456,
          "time": 197.03186399999998,
          "velocity": 0.3937007874015748
        },
        {
          "duration": 0.09677399999998215,
          "durationTicks": 96,
          "midi": 38,
          "name": "D2",
          "ticks": 195648,
          "time": 197.225412,
          "velocity": 0.3937007874015748
        },
        {
          "duration": 0.09677400000001057,
          "durationTicks": 96,
          "midi": 36,
          "name": "C2",
          "ticks": 195840,
          "time": 197.41896,
          "velocity": 0.3937007874015748
        },
        {
          "duration": 0.09677400000001057,
          "durationTicks": 96,
          "midi": 38,
          "name": "D2",
          "ticks": 196032,
          "time": 197.612508,
          "velocity": 0.3937007874015748
        },
        {
          "duration": 0.09677400000001057,
          "durationTicks": 96,
          "midi": 36,
          "name": "C2",
          "ticks": 196224,
          "time": 197.80605599999998,
          "velocity": 0.3937007874015748
        },
        {
          "duration": 0.09677399999998215,
          "durationTicks": 96,
          "midi": 38,
          "name": "D2",
          "ticks": 196416,
          "time": 197.999604,
          "velocity": 0.3937007874015748
        },
        {
          "duration": 0.09677400000001057,
          "durationTicks": 96,
          "midi": 36,
          "name": "C2",
          "ticks": 196608,
          "time": 198.193152,
          "velocity": 0.3937007874015748
        },
        {
          "duration": 0.09677400000001057,
          "durationTicks": 96,
          "midi": 38,
          "name": "D2",
          "ticks": 196800,
          "time": 198.3867,
          "velocity": 0.3937007874015748
        },
        {
          "duration": 0.09677399999998215,
          "durationTicks": 96,
          "midi": 36,
          "name": "C2",
          "ticks": 196992,
          "time": 198.580248,
          "velocity": 0.3937007874015748
        },
        {
          "duration": 0.09677399999998215,
          "durationTicks": 96,
          "midi": 38,
          "name": "D2",
          "ticks": 197184,
          "time": 198.773796,
          "velocity": 0.3937007874015748
        },
        {
          "duration": 0.09677400000001057,
          "durationTicks": 96,
          "midi": 36,
          "name": "C2",
          "ticks": 197376,
          "time": 198.967344,
          "velocity": 0.3937007874015748
        },
        {
          "duration": 0.09677400000001057,
          "durationTicks": 96,
          "midi": 38,
          "name": "D2",
          "ticks": 197568,
          "time": 199.160892,
          "velocity": 0.3937007874015748
        },
        {
          "duration": 0.09677399999998215,
          "durationTicks": 96,
          "midi": 36,
          "name": "C2",
          "ticks": 197760,
          "time": 199.35444,
          "velocity": 0.3937007874015748
        },
        {
          "duration": 0.09677399999998215,
          "durationTicks": 96,
          "midi": 38,
          "name": "D2",
          "ticks": 197952,
          "time": 199.547988,
          "velocity": 0.3937007874015748
        },
        {
          "duration": 0.09677400000001057,
          "durationTicks": 96,
          "midi": 36,
          "name": "C2",
          "ticks": 198144,
          "time": 199.741536,
          "velocity": 0.3937007874015748
        },
        {
          "duration": 0.09677400000001057,
          "durationTicks": 96,
          "midi": 38,
          "name": "D2",
          "ticks": 198336,
          "time": 199.935084,
          "velocity": 0.3937007874015748
        },
        {
          "duration": 0.09677399999998215,
          "durationTicks": 96,
          "midi": 36,
          "name": "C2",
          "ticks": 198528,
          "time": 200.128632,
          "velocity": 0.3937007874015748
        },
        {
          "duration": 0.09677399999998215,
          "durationTicks": 96,
          "midi": 38,
          "name": "D2",
          "ticks": 198720,
          "time": 200.32218,
          "velocity": 0.3937007874015748
        },
        {
          "duration": 0.09677400000001057,
          "durationTicks": 96,
          "midi": 36,
          "name": "C2",
          "ticks": 198912,
          "time": 200.515728,
          "velocity": 0.3937007874015748
        },
        {
          "duration": 0.09677400000001057,
          "durationTicks": 96,
          "midi": 38,
          "name": "D2",
          "ticks": 199104,
          "time": 200.709276,
          "velocity": 0.3937007874015748
        },
        {
          "duration": 0.09677399999998215,
          "durationTicks": 96,
          "midi": 36,
          "name": "C2",
          "ticks": 199296,
          "time": 200.902824,
          "velocity": 0.3937007874015748
        },
        {
          "duration": 0.09677399999998215,
          "durationTicks": 96,
          "midi": 38,
          "name": "D2",
          "ticks": 199488,
          "time": 201.096372,
          "velocity": 0.3937007874015748
        },
        {
          "duration": 0.09677400000001057,
          "durationTicks": 96,
          "midi": 36,
          "name": "C2",
          "ticks": 199680,
          "time": 201.28992,
          "velocity": 0.3937007874015748
        },
        {
          "duration": 0.09677400000001057,
          "durationTicks": 96,
          "midi": 38,
          "name": "D2",
          "ticks": 199872,
          "time": 201.483468,
          "velocity": 0.3937007874015748
        },
        {
          "duration": 0.09677399999998215,
          "durationTicks": 96,
          "midi": 36,
          "name": "C2",
          "ticks": 200064,
          "time": 201.677016,
          "velocity": 0.3937007874015748
        },
        {
          "duration": 0.09677399999998215,
          "durationTicks": 96,
          "midi": 38,
          "name": "D2",
          "ticks": 200256,
          "time": 201.870564,
          "velocity": 0.3937007874015748
        },
        {
          "duration": 0.09677400000001057,
          "durationTicks": 96,
          "midi": 36,
          "name": "C2",
          "ticks": 200448,
          "time": 202.064112,
          "velocity": 0.3937007874015748
        },
        {
          "duration": 0.09677400000001057,
          "durationTicks": 96,
          "midi": 38,
          "name": "D2",
          "ticks": 200640,
          "time": 202.25766,
          "velocity": 0.3937007874015748
        },
        {
          "duration": 0.09677399999998215,
          "durationTicks": 96,
          "midi": 36,
          "name": "C2",
          "ticks": 200832,
          "time": 202.451208,
          "velocity": 0.3937007874015748
        },
        {
          "duration": 0.09677400000001057,
          "durationTicks": 96,
          "midi": 38,
          "name": "D2",
          "ticks": 201024,
          "time": 202.644756,
          "velocity": 0.3937007874015748
        },
        {
          "duration": 0.09677400000001057,
          "durationTicks": 96,
          "midi": 36,
          "name": "C2",
          "ticks": 201216,
          "time": 202.838304,
          "velocity": 0.3937007874015748
        },
        {
          "duration": 0.09677400000001057,
          "durationTicks": 96,
          "midi": 38,
          "name": "D2",
          "ticks": 201408,
          "time": 203.031852,
          "velocity": 0.3937007874015748
        },
        {
          "duration": 0.09677399999998215,
          "durationTicks": 96,
          "midi": 36,
          "name": "C2",
          "ticks": 201600,
          "time": 203.2254,
          "velocity": 0.3937007874015748
        },
        {
          "duration": 0.09677400000001057,
          "durationTicks": 96,
          "midi": 38,
          "name": "D2",
          "ticks": 201792,
          "time": 203.418948,
          "velocity": 0.3937007874015748
        },
        {
          "duration": 0.09677400000001057,
          "durationTicks": 96,
          "midi": 36,
          "name": "C2",
          "ticks": 201984,
          "time": 203.612496,
          "velocity": 0.3937007874015748
        },
        {
          "duration": 0.09677400000001057,
          "durationTicks": 96,
          "midi": 38,
          "name": "D2",
          "ticks": 202176,
          "time": 203.80604399999999,
          "velocity": 0.3937007874015748
        },
        {
          "duration": 0.09677399999998215,
          "durationTicks": 96,
          "midi": 36,
          "name": "C2",
          "ticks": 202368,
          "time": 203.999592,
          "velocity": 0.3937007874015748
        },
        {
          "duration": 0.09677400000001057,
          "durationTicks": 96,
          "midi": 38,
          "name": "D2",
          "ticks": 202560,
          "time": 204.19314,
          "velocity": 0.3937007874015748
        },
        {
          "duration": 0.09677400000001057,
          "durationTicks": 96,
          "midi": 36,
          "name": "C2",
          "ticks": 202752,
          "time": 204.386688,
          "velocity": 0.3937007874015748
        },
        {
          "duration": 0.09677400000001057,
          "durationTicks": 96,
          "midi": 38,
          "name": "D2",
          "ticks": 202944,
          "time": 204.58023599999999,
          "velocity": 0.3937007874015748
        },
        {
          "duration": 0.09677399999998215,
          "durationTicks": 96,
          "midi": 36,
          "name": "C2",
          "ticks": 203136,
          "time": 204.773784,
          "velocity": 0.3937007874015748
        },
        {
          "duration": 0.09677400000001057,
          "durationTicks": 96,
          "midi": 38,
          "name": "D2",
          "ticks": 203328,
          "time": 204.967332,
          "velocity": 0.3937007874015748
        },
        {
          "duration": 0.09677400000001057,
          "durationTicks": 96,
          "midi": 36,
          "name": "C2",
          "ticks": 203520,
          "time": 205.16088,
          "velocity": 0.3937007874015748
        },
        {
          "duration": 0.09677400000001057,
          "durationTicks": 96,
          "midi": 38,
          "name": "D2",
          "ticks": 203712,
          "time": 205.35442799999998,
          "velocity": 0.3937007874015748
        },
        {
          "duration": 0.09677399999998215,
          "durationTicks": 96,
          "midi": 36,
          "name": "C2",
          "ticks": 203904,
          "time": 205.547976,
          "velocity": 0.3937007874015748
        },
        {
          "duration": 0.09677400000001057,
          "durationTicks": 96,
          "midi": 38,
          "name": "D2",
          "ticks": 204096,
          "time": 205.741524,
          "velocity": 0.3937007874015748
        },
        {
          "duration": 0.09677400000001057,
          "durationTicks": 96,
          "midi": 36,
          "name": "C2",
          "ticks": 204288,
          "time": 205.935072,
          "velocity": 0.3937007874015748
        },
        {
          "duration": 0.09677400000001057,
          "durationTicks": 96,
          "midi": 38,
          "name": "D2",
          "ticks": 204480,
          "time": 206.12861999999998,
          "velocity": 0.3937007874015748
        },
        {
          "duration": 0.09677399999998215,
          "durationTicks": 96,
          "midi": 36,
          "name": "C2",
          "ticks": 204672,
          "time": 206.322168,
          "velocity": 0.3937007874015748
        },
        {
          "duration": 0.09677400000001057,
          "durationTicks": 96,
          "midi": 38,
          "name": "D2",
          "ticks": 204864,
          "time": 206.515716,
          "velocity": 0.3937007874015748
        },
        {
          "duration": 0.09677400000001057,
          "durationTicks": 96,
          "midi": 36,
          "name": "C2",
          "ticks": 205056,
          "time": 206.709264,
          "velocity": 0.3937007874015748
        },
        {
          "duration": 0.09677399999998215,
          "durationTicks": 96,
          "midi": 38,
          "name": "D2",
          "ticks": 205248,
          "time": 206.902812,
          "velocity": 0.3937007874015748
        },
        {
          "duration": 0.09677399999998215,
          "durationTicks": 96,
          "midi": 36,
          "name": "C2",
          "ticks": 205440,
          "time": 207.09636,
          "velocity": 0.3937007874015748
        },
        {
          "duration": 0.09677400000001057,
          "durationTicks": 96,
          "midi": 38,
          "name": "D2",
          "ticks": 205632,
          "time": 207.289908,
          "velocity": 0.3937007874015748
        },
        {
          "duration": 0.09677400000001057,
          "durationTicks": 96,
          "midi": 36,
          "name": "C2",
          "ticks": 205824,
          "time": 207.483456,
          "velocity": 0.3937007874015748
        },
        {
          "duration": 0.09677399999998215,
          "durationTicks": 96,
          "midi": 38,
          "name": "D2",
          "ticks": 206016,
          "time": 207.677004,
          "velocity": 0.3937007874015748
        },
        {
          "duration": 0.09677399999998215,
          "durationTicks": 96,
          "midi": 36,
          "name": "C2",
          "ticks": 206208,
          "time": 207.870552,
          "velocity": 0.3937007874015748
        },
        {
          "duration": 0.09677400000001057,
          "durationTicks": 96,
          "midi": 38,
          "name": "D2",
          "ticks": 206400,
          "time": 208.0641,
          "velocity": 0.3937007874015748
        },
        {
          "duration": 0.09677400000001057,
          "durationTicks": 96,
          "midi": 36,
          "name": "C2",
          "ticks": 206592,
          "time": 208.257648,
          "velocity": 0.3937007874015748
        },
        {
          "duration": 0.09677399999998215,
          "durationTicks": 96,
          "midi": 38,
          "name": "D2",
          "ticks": 206784,
          "time": 208.451196,
          "velocity": 0.3937007874015748
        },
        {
          "duration": 0.09677399999998215,
          "durationTicks": 96,
          "midi": 36,
          "name": "C2",
          "ticks": 206976,
          "time": 208.644744,
          "velocity": 0.3937007874015748
        },
        {
          "duration": 0.09677400000001057,
          "durationTicks": 96,
          "midi": 38,
          "name": "D2",
          "ticks": 207168,
          "time": 208.838292,
          "velocity": 0.3937007874015748
        },
        {
          "duration": 0.09677400000001057,
          "durationTicks": 96,
          "midi": 36,
          "name": "C2",
          "ticks": 207360,
          "time": 209.03184,
          "velocity": 0.3937007874015748
        },
        {
          "duration": 0.09677399999998215,
          "durationTicks": 96,
          "midi": 38,
          "name": "D2",
          "ticks": 207552,
          "time": 209.225388,
          "velocity": 0.3937007874015748
        },
        {
          "duration": 0.09677399999998215,
          "durationTicks": 96,
          "midi": 36,
          "name": "C2",
          "ticks": 207744,
          "time": 209.418936,
          "velocity": 0.3937007874015748
        },
        {
          "duration": 0.09677400000001057,
          "durationTicks": 96,
          "midi": 38,
          "name": "D2",
          "ticks": 207936,
          "time": 209.612484,
          "velocity": 0.3937007874015748
        },
        {
          "duration": 0.09677400000001057,
          "durationTicks": 96,
          "midi": 36,
          "name": "C2",
          "ticks": 208128,
          "time": 209.806032,
          "velocity": 0.3937007874015748
        },
        {
          "duration": 0.09677399999998215,
          "durationTicks": 96,
          "midi": 38,
          "name": "D2",
          "ticks": 208320,
          "time": 209.99958,
          "velocity": 0.3937007874015748
        },
        {
          "duration": 0.09677399999998215,
          "durationTicks": 96,
          "midi": 36,
          "name": "C2",
          "ticks": 208512,
          "time": 210.193128,
          "velocity": 0.3937007874015748
        },
        {
          "duration": 0.09677400000001057,
          "durationTicks": 96,
          "midi": 38,
          "name": "D2",
          "ticks": 208704,
          "time": 210.386676,
          "velocity": 0.3937007874015748
        },
        {
          "duration": 0.09677400000001057,
          "durationTicks": 96,
          "midi": 36,
          "name": "C2",
          "ticks": 208896,
          "time": 210.580224,
          "velocity": 0.3937007874015748
        },
        {
          "duration": 0.09677399999998215,
          "durationTicks": 96,
          "midi": 38,
          "name": "D2",
          "ticks": 209088,
          "time": 210.773772,
          "velocity": 0.3937007874015748
        },
        {
          "duration": 0.09677400000001057,
          "durationTicks": 96,
          "midi": 36,
          "name": "C2",
          "ticks": 209280,
          "time": 210.96732,
          "velocity": 0.3937007874015748
        },
        {
          "duration": 0.09677400000001057,
          "durationTicks": 96,
          "midi": 38,
          "name": "D2",
          "ticks": 209472,
          "time": 211.160868,
          "velocity": 0.3937007874015748
        },
        {
          "duration": 0.09677400000001057,
          "durationTicks": 96,
          "midi": 36,
          "name": "C2",
          "ticks": 209664,
          "time": 211.354416,
          "velocity": 0.3937007874015748
        },
        {
          "duration": 0.09677399999998215,
          "durationTicks": 96,
          "midi": 38,
          "name": "D2",
          "ticks": 209856,
          "time": 211.547964,
          "velocity": 0.3937007874015748
        },
        {
          "duration": 0.09677400000001057,
          "durationTicks": 96,
          "midi": 36,
          "name": "C2",
          "ticks": 210048,
          "time": 211.741512,
          "velocity": 0.3937007874015748
        },
        {
          "duration": 0.09677400000001057,
          "durationTicks": 96,
          "midi": 38,
          "name": "D2",
          "ticks": 210240,
          "time": 211.93506,
          "velocity": 0.3937007874015748
        },
        {
          "duration": 0.09677400000001057,
          "durationTicks": 96,
          "midi": 36,
          "name": "C2",
          "ticks": 210432,
          "time": 212.12860799999999,
          "velocity": 0.3937007874015748
        },
        {
          "duration": 0.09677399999998215,
          "durationTicks": 96,
          "midi": 38,
          "name": "D2",
          "ticks": 210624,
          "time": 212.322156,
          "velocity": 0.3937007874015748
        },
        {
          "duration": 0.09677400000001057,
          "durationTicks": 96,
          "midi": 36,
          "name": "C2",
          "ticks": 210816,
          "time": 212.515704,
          "velocity": 0.3937007874015748
        },
        {
          "duration": 0.09677400000001057,
          "durationTicks": 96,
          "midi": 38,
          "name": "D2",
          "ticks": 211008,
          "time": 212.709252,
          "velocity": 0.3937007874015748
        },
        {
          "duration": 0.09677400000001057,
          "durationTicks": 96,
          "midi": 36,
          "name": "C2",
          "ticks": 211200,
          "time": 212.90279999999998,
          "velocity": 0.3937007874015748
        },
        {
          "duration": 0.09677399999998215,
          "durationTicks": 96,
          "midi": 38,
          "name": "D2",
          "ticks": 211392,
          "time": 213.096348,
          "velocity": 0.3937007874015748
        },
        {
          "duration": 0.09677400000001057,
          "durationTicks": 96,
          "midi": 36,
          "name": "C2",
          "ticks": 211584,
          "time": 213.289896,
          "velocity": 0.3937007874015748
        },
        {
          "duration": 0.09677400000001057,
          "durationTicks": 96,
          "midi": 38,
          "name": "D2",
          "ticks": 211776,
          "time": 213.483444,
          "velocity": 0.3937007874015748
        },
        {
          "duration": 0.09677400000001057,
          "durationTicks": 96,
          "midi": 36,
          "name": "C2",
          "ticks": 211968,
          "time": 213.67699199999998,
          "velocity": 0.3937007874015748
        },
        {
          "duration": 0.09677399999998215,
          "durationTicks": 96,
          "midi": 38,
          "name": "D2",
          "ticks": 212160,
          "time": 213.87054,
          "velocity": 0.3937007874015748
        },
        {
          "duration": 0.09677400000001057,
          "durationTicks": 96,
          "midi": 36,
          "name": "C2",
          "ticks": 212352,
          "time": 214.064088,
          "velocity": 0.3937007874015748
        },
        {
          "duration": 0.09677400000001057,
          "durationTicks": 96,
          "midi": 38,
          "name": "D2",
          "ticks": 212544,
          "time": 214.257636,
          "velocity": 0.3937007874015748
        },
        {
          "duration": 0.09677400000001057,
          "durationTicks": 96,
          "midi": 36,
          "name": "C2",
          "ticks": 212736,
          "time": 214.45118399999998,
          "velocity": 0.3937007874015748
        },
        {
          "duration": 0.09677399999998215,
          "durationTicks": 96,
          "midi": 38,
          "name": "D2",
          "ticks": 212928,
          "time": 214.644732,
          "velocity": 0.3937007874015748
        },
        {
          "duration": 0.09677400000001057,
          "durationTicks": 96,
          "midi": 36,
          "name": "C2",
          "ticks": 213120,
          "time": 214.83828,
          "velocity": 0.3937007874015748
        },
        {
          "duration": 0.09677400000001057,
          "durationTicks": 96,
          "midi": 38,
          "name": "D2",
          "ticks": 213312,
          "time": 215.031828,
          "velocity": 0.3937007874015748
        },
        {
          "duration": 0.09677399999998215,
          "durationTicks": 96,
          "midi": 38,
          "name": "D2",
          "ticks": 213504,
          "time": 215.225376,
          "velocity": 0.3937007874015748
        },
        {
          "duration": 0.09677400000001057,
          "durationTicks": 96,
          "midi": 36,
          "name": "C2",
          "ticks": 213888,
          "time": 215.612472,
          "velocity": 0.3937007874015748
        },
        {
          "duration": 0.09677399999998215,
          "durationTicks": 96,
          "midi": 38,
          "name": "D2",
          "ticks": 214272,
          "time": 215.999568,
          "velocity": 0.3937007874015748
        },
        {
          "duration": 0.09677400000001057,
          "durationTicks": 96,
          "midi": 36,
          "name": "C2",
          "ticks": 214656,
          "time": 216.386664,
          "velocity": 0.3937007874015748
        },
        {
          "duration": 0.09677399999998215,
          "durationTicks": 96,
          "midi": 38,
          "name": "D2",
          "ticks": 215040,
          "time": 216.77376,
          "velocity": 0.3937007874015748
        },
        {
          "duration": 0.09677399999998215,
          "durationTicks": 96,
          "midi": 36,
          "name": "C2",
          "ticks": 215232,
          "time": 216.967308,
          "velocity": 0.3937007874015748
        },
        {
          "duration": 0.09677400000001057,
          "durationTicks": 96,
          "midi": 38,
          "name": "D2",
          "ticks": 215424,
          "time": 217.160856,
          "velocity": 0.3937007874015748
        },
        {
          "duration": 0.09677400000001057,
          "durationTicks": 96,
          "midi": 36,
          "name": "C2",
          "ticks": 215616,
          "time": 217.354404,
          "velocity": 0.3937007874015748
        },
        {
          "duration": 0.09677399999998215,
          "durationTicks": 96,
          "midi": 38,
          "name": "D2",
          "ticks": 215808,
          "time": 217.547952,
          "velocity": 0.3937007874015748
        },
        {
          "duration": 0.09677399999998215,
          "durationTicks": 96,
          "midi": 36,
          "name": "C2",
          "ticks": 216000,
          "time": 217.7415,
          "velocity": 0.3937007874015748
        },
        {
          "duration": 0.09677400000001057,
          "durationTicks": 96,
          "midi": 38,
          "name": "D2",
          "ticks": 216192,
          "time": 217.935048,
          "velocity": 0.3937007874015748
        },
        {
          "duration": 0.09677400000001057,
          "durationTicks": 96,
          "midi": 36,
          "name": "C2",
          "ticks": 216384,
          "time": 218.128596,
          "velocity": 0.3937007874015748
        },
        {
          "duration": 0.09677399999998215,
          "durationTicks": 96,
          "midi": 38,
          "name": "D2",
          "ticks": 216576,
          "time": 218.322144,
          "velocity": 0.3937007874015748
        },
        {
          "duration": 0.09677400000001057,
          "durationTicks": 96,
          "midi": 36,
          "name": "C2",
          "ticks": 216672,
          "time": 218.418918,
          "velocity": 0.3937007874015748
        },
        {
          "duration": 0.09677399999998215,
          "durationTicks": 96,
          "midi": 38,
          "name": "D2",
          "ticks": 216768,
          "time": 218.515692,
          "velocity": 0.3937007874015748
        },
        {
          "duration": 0.09677400000001057,
          "durationTicks": 96,
          "midi": 36,
          "name": "C2",
          "ticks": 216864,
          "time": 218.61246599999998,
          "velocity": 0.3937007874015748
        },
        {
          "duration": 0.09677400000001057,
          "durationTicks": 96,
          "midi": 38,
          "name": "D2",
          "ticks": 216960,
          "time": 218.70924,
          "velocity": 0.3937007874015748
        },
        {
          "duration": 0.09677399999998215,
          "durationTicks": 96,
          "midi": 36,
          "name": "C2",
          "ticks": 217056,
          "time": 218.806014,
          "velocity": 0.3937007874015748
        },
        {
          "duration": 0.09677400000001057,
          "durationTicks": 96,
          "midi": 38,
          "name": "D2",
          "ticks": 217152,
          "time": 218.902788,
          "velocity": 0.3937007874015748
        },
        {
          "duration": 0.09677400000001057,
          "durationTicks": 96,
          "midi": 36,
          "name": "C2",
          "ticks": 217248,
          "time": 218.999562,
          "velocity": 0.3937007874015748
        },
        {
          "duration": 0.09677399999998215,
          "durationTicks": 96,
          "midi": 38,
          "name": "D2",
          "ticks": 217344,
          "time": 219.096336,
          "velocity": 0.3937007874015748
        },
        {
          "duration": 0.09677400000001057,
          "durationTicks": 96,
          "midi": 36,
          "name": "C2",
          "ticks": 217440,
          "time": 219.19311,
          "velocity": 0.3937007874015748
        },
        {
          "duration": 0.09677400000001057,
          "durationTicks": 96,
          "midi": 38,
          "name": "D2",
          "ticks": 217536,
          "time": 219.289884,
          "velocity": 0.3937007874015748
        },
        {
          "duration": 0.09677399999998215,
          "durationTicks": 96,
          "midi": 36,
          "name": "C2",
          "ticks": 217632,
          "time": 219.386658,
          "velocity": 0.3937007874015748
        },
        {
          "duration": 0.09677400000001057,
          "durationTicks": 96,
          "midi": 38,
          "name": "D2",
          "ticks": 217728,
          "time": 219.483432,
          "velocity": 0.3937007874015748
        },
        {
          "duration": 0.09677399999998215,
          "durationTicks": 96,
          "midi": 36,
          "name": "C2",
          "ticks": 217824,
          "time": 219.580206,
          "velocity": 0.3937007874015748
        },
        {
          "duration": 0.09677400000001057,
          "durationTicks": 96,
          "midi": 38,
          "name": "D2",
          "ticks": 217920,
          "time": 219.67698,
          "velocity": 0.3937007874015748
        },
        {
          "duration": 0.09677400000001057,
          "durationTicks": 96,
          "midi": 36,
          "name": "C2",
          "ticks": 218016,
          "time": 219.773754,
          "velocity": 0.3937007874015748
        },
        {
          "duration": 0.09677399999998215,
          "durationTicks": 96,
          "midi": 36,
          "name": "C2",
          "ticks": 218112,
          "time": 219.870528,
          "velocity": 0.3937007874015748
        },
        {
          "duration": 0.09677400000001057,
          "durationTicks": 96,
          "midi": 38,
          "name": "D2",
          "ticks": 218304,
          "time": 220.064076,
          "velocity": 0.3937007874015748
        },
        {
          "duration": 0.09677400000001057,
          "durationTicks": 96,
          "midi": 36,
          "name": "C2",
          "ticks": 218496,
          "time": 220.257624,
          "velocity": 0.3937007874015748
        },
        {
          "duration": 0.09677400000001057,
          "durationTicks": 96,
          "midi": 38,
          "name": "D2",
          "ticks": 218688,
          "time": 220.45117199999999,
          "velocity": 0.3937007874015748
        },
        {
          "duration": 0.09677399999998215,
          "durationTicks": 96,
          "midi": 36,
          "name": "C2",
          "ticks": 218880,
          "time": 220.64472,
          "velocity": 0.3937007874015748
        },
        {
          "duration": 0.09677400000001057,
          "durationTicks": 96,
          "midi": 38,
          "name": "D2",
          "ticks": 219072,
          "time": 220.838268,
          "velocity": 0.3937007874015748
        },
        {
          "duration": 0.09677400000001057,
          "durationTicks": 96,
          "midi": 36,
          "name": "C2",
          "ticks": 219264,
          "time": 221.031816,
          "velocity": 0.3937007874015748
        },
        {
          "duration": 0.09677400000001057,
          "durationTicks": 96,
          "midi": 38,
          "name": "D2",
          "ticks": 219456,
          "time": 221.22536399999998,
          "velocity": 0.3937007874015748
        },
        {
          "duration": 0.09677399999998215,
          "durationTicks": 96,
          "midi": 36,
          "name": "C2",
          "ticks": 219648,
          "time": 221.418912,
          "velocity": 0.3937007874015748
        },
        {
          "duration": 0.09677400000001057,
          "durationTicks": 96,
          "midi": 38,
          "name": "D2",
          "ticks": 219840,
          "time": 221.61246,
          "velocity": 0.3937007874015748
        },
        {
          "duration": 0.09677400000001057,
          "durationTicks": 96,
          "midi": 36,
          "name": "C2",
          "ticks": 220032,
          "time": 221.806008,
          "velocity": 0.3937007874015748
        },
        {
          "duration": 0.09677400000001057,
          "durationTicks": 96,
          "midi": 38,
          "name": "D2",
          "ticks": 220224,
          "time": 221.99955599999998,
          "velocity": 0.3937007874015748
        },
        {
          "duration": 0.09677399999998215,
          "durationTicks": 96,
          "midi": 36,
          "name": "C2",
          "ticks": 220416,
          "time": 222.193104,
          "velocity": 0.3937007874015748
        },
        {
          "duration": 0.09677400000001057,
          "durationTicks": 96,
          "midi": 38,
          "name": "D2",
          "ticks": 220608,
          "time": 222.386652,
          "velocity": 0.3937007874015748
        },
        {
          "duration": 0.09677400000001057,
          "durationTicks": 96,
          "midi": 36,
          "name": "C2",
          "ticks": 220800,
          "time": 222.5802,
          "velocity": 0.3937007874015748
        },
        {
          "duration": 0.09677400000001057,
          "durationTicks": 96,
          "midi": 38,
          "name": "D2",
          "ticks": 220992,
          "time": 222.77374799999998,
          "velocity": 0.3937007874015748
        },
        {
          "duration": 0.09677399999998215,
          "durationTicks": 96,
          "midi": 36,
          "name": "C2",
          "ticks": 221184,
          "time": 222.967296,
          "velocity": 0.3937007874015748
        },
        {
          "duration": 0.09677400000001057,
          "durationTicks": 96,
          "midi": 38,
          "name": "D2",
          "ticks": 221376,
          "time": 223.160844,
          "velocity": 0.3937007874015748
        },
        {
          "duration": 0.09677400000001057,
          "durationTicks": 96,
          "midi": 36,
          "name": "C2",
          "ticks": 221568,
          "time": 223.354392,
          "velocity": 0.3937007874015748
        },
        {
          "duration": 0.09677399999998215,
          "durationTicks": 96,
          "midi": 38,
          "name": "D2",
          "ticks": 221760,
          "time": 223.54794,
          "velocity": 0.3937007874015748
        },
        {
          "duration": 0.09677399999998215,
          "durationTicks": 96,
          "midi": 36,
          "name": "C2",
          "ticks": 221952,
          "time": 223.741488,
          "velocity": 0.3937007874015748
        },
        {
          "duration": 0.09677400000001057,
          "durationTicks": 96,
          "midi": 38,
          "name": "D2",
          "ticks": 222144,
          "time": 223.935036,
          "velocity": 0.3937007874015748
        },
        {
          "duration": 0.09677400000001057,
          "durationTicks": 96,
          "midi": 36,
          "name": "C2",
          "ticks": 222336,
          "time": 224.128584,
          "velocity": 0.3937007874015748
        },
        {
          "duration": 0.09677399999998215,
          "durationTicks": 96,
          "midi": 38,
          "name": "D2",
          "ticks": 222528,
          "time": 224.322132,
          "velocity": 0.3937007874015748
        },
        {
          "duration": 0.09677399999998215,
          "durationTicks": 96,
          "midi": 36,
          "name": "C2",
          "ticks": 222720,
          "time": 224.51568,
          "velocity": 0.3937007874015748
        },
        {
          "duration": 0.09677400000001057,
          "durationTicks": 96,
          "midi": 38,
          "name": "D2",
          "ticks": 222912,
          "time": 224.709228,
          "velocity": 0.3937007874015748
        },
        {
          "duration": 0.09677400000001057,
          "durationTicks": 96,
          "midi": 36,
          "name": "C2",
          "ticks": 223104,
          "time": 224.902776,
          "velocity": 0.3937007874015748
        },
        {
          "duration": 0.09677399999998215,
          "durationTicks": 96,
          "midi": 38,
          "name": "D2",
          "ticks": 223296,
          "time": 225.096324,
          "velocity": 0.3937007874015748
        },
        {
          "duration": 0.09677399999998215,
          "durationTicks": 96,
          "midi": 36,
          "name": "C2",
          "ticks": 223488,
          "time": 225.289872,
          "velocity": 0.3937007874015748
        },
        {
          "duration": 0.09677400000001057,
          "durationTicks": 96,
          "midi": 38,
          "name": "D2",
          "ticks": 223680,
          "time": 225.48342,
          "velocity": 0.3937007874015748
        },
        {
          "duration": 0.09677400000001057,
          "durationTicks": 96,
          "midi": 36,
          "name": "C2",
          "ticks": 223872,
          "time": 225.676968,
          "velocity": 0.3937007874015748
        },
        {
          "duration": 0.09677399999998215,
          "durationTicks": 96,
          "midi": 38,
          "name": "D2",
          "ticks": 224064,
          "time": 225.870516,
          "velocity": 0.3937007874015748
        },
        {
          "duration": 0.09677399999998215,
          "durationTicks": 96,
          "midi": 36,
          "name": "C2",
          "ticks": 224256,
          "time": 226.064064,
          "velocity": 0.3937007874015748
        },
        {
          "duration": 0.09677400000001057,
          "durationTicks": 96,
          "midi": 38,
          "name": "D2",
          "ticks": 224448,
          "time": 226.257612,
          "velocity": 0.3937007874015748
        },
        {
          "duration": 0.09677400000001057,
          "durationTicks": 96,
          "midi": 36,
          "name": "C2",
          "ticks": 224640,
          "time": 226.45116,
          "velocity": 0.3937007874015748
        },
        {
          "duration": 0.09677399999998215,
          "durationTicks": 96,
          "midi": 38,
          "name": "D2",
          "ticks": 224832,
          "time": 226.644708,
          "velocity": 0.3937007874015748
        },
        {
          "duration": 0.09677399999998215,
          "durationTicks": 96,
          "midi": 36,
          "name": "C2",
          "ticks": 225024,
          "time": 226.838256,
          "velocity": 0.3937007874015748
        },
        {
          "duration": 0.09677400000001057,
          "durationTicks": 96,
          "midi": 38,
          "name": "D2",
          "ticks": 225216,
          "time": 227.031804,
          "velocity": 0.3937007874015748
        },
        {
          "duration": 0.09677400000001057,
          "durationTicks": 96,
          "midi": 36,
          "name": "C2",
          "ticks": 225408,
          "time": 227.225352,
          "velocity": 0.3937007874015748
        },
        {
          "duration": 0.09677399999998215,
          "durationTicks": 96,
          "midi": 38,
          "name": "D2",
          "ticks": 225600,
          "time": 227.4189,
          "velocity": 0.3937007874015748
        },
        {
          "duration": 0.09677400000001057,
          "durationTicks": 96,
          "midi": 36,
          "name": "C2",
          "ticks": 225792,
          "time": 227.612448,
          "velocity": 0.3937007874015748
        },
        {
          "duration": 0.09677400000001057,
          "durationTicks": 96,
          "midi": 38,
          "name": "D2",
          "ticks": 225984,
          "time": 227.805996,
          "velocity": 0.3937007874015748
        },
        {
          "duration": 0.09677400000001057,
          "durationTicks": 96,
          "midi": 36,
          "name": "C2",
          "ticks": 226176,
          "time": 227.999544,
          "velocity": 0.3937007874015748
        },
        {
          "duration": 0.09677399999998215,
          "durationTicks": 96,
          "midi": 38,
          "name": "D2",
          "ticks": 226368,
          "time": 228.193092,
          "velocity": 0.3937007874015748
        },
        {
          "duration": 0.09677400000001057,
          "durationTicks": 96,
          "midi": 36,
          "name": "C2",
          "ticks": 226560,
          "time": 228.38664,
          "velocity": 0.3937007874015748
        },
        {
          "duration": 0.09677400000001057,
          "durationTicks": 96,
          "midi": 38,
          "name": "D2",
          "ticks": 226752,
          "time": 228.580188,
          "velocity": 0.3937007874015748
        },
        {
          "duration": 0.09677400000001057,
          "durationTicks": 96,
          "midi": 36,
          "name": "C2",
          "ticks": 226944,
          "time": 228.77373599999999,
          "velocity": 0.3937007874015748
        },
        {
          "duration": 0.09677399999998215,
          "durationTicks": 96,
          "midi": 38,
          "name": "D2",
          "ticks": 227136,
          "time": 228.967284,
          "velocity": 0.3937007874015748
        },
        {
          "duration": 0.09677400000001057,
          "durationTicks": 96,
          "midi": 36,
          "name": "C2",
          "ticks": 227328,
          "time": 229.160832,
          "velocity": 0.3937007874015748
        },
        {
          "duration": 0.09677400000001057,
          "durationTicks": 96,
          "midi": 38,
          "name": "D2",
          "ticks": 227520,
          "time": 229.35438,
          "velocity": 0.3937007874015748
        },
        {
          "duration": 0.09677400000001057,
          "durationTicks": 96,
          "midi": 36,
          "name": "C2",
          "ticks": 227712,
          "time": 229.54792799999998,
          "velocity": 0.3937007874015748
        },
        {
          "duration": 0.09677399999998215,
          "durationTicks": 96,
          "midi": 38,
          "name": "D2",
          "ticks": 227904,
          "time": 229.741476,
          "velocity": 0.3937007874015748
        },
        {
          "duration": 0.09677400000001057,
          "durationTicks": 96,
          "midi": 36,
          "name": "C2",
          "ticks": 228096,
          "time": 229.935024,
          "velocity": 0.3937007874015748
        },
        {
          "duration": 0.09677400000001057,
          "durationTicks": 96,
          "midi": 38,
          "name": "D2",
          "ticks": 228288,
          "time": 230.128572,
          "velocity": 0.3937007874015748
        },
        {
          "duration": 0.09677400000001057,
          "durationTicks": 96,
          "midi": 36,
          "name": "C2",
          "ticks": 228480,
          "time": 230.32211999999998,
          "velocity": 0.3937007874015748
        },
        {
          "duration": 0.09677399999998215,
          "durationTicks": 96,
          "midi": 38,
          "name": "D2",
          "ticks": 228672,
          "time": 230.515668,
          "velocity": 0.3937007874015748
        },
        {
          "duration": 0.09677400000001057,
          "durationTicks": 96,
          "midi": 36,
          "name": "C2",
          "ticks": 228864,
          "time": 230.709216,
          "velocity": 0.3937007874015748
        },
        {
          "duration": 0.09677400000001057,
          "durationTicks": 96,
          "midi": 38,
          "name": "D2",
          "ticks": 229056,
          "time": 230.902764,
          "velocity": 0.3937007874015748
        },
        {
          "duration": 0.09677400000001057,
          "durationTicks": 96,
          "midi": 36,
          "name": "C2",
          "ticks": 229248,
          "time": 231.09631199999998,
          "velocity": 0.3937007874015748
        },
        {
          "duration": 0.09677399999998215,
          "durationTicks": 96,
          "midi": 38,
          "name": "D2",
          "ticks": 229440,
          "time": 231.28986,
          "velocity": 0.3937007874015748
        },
        {
          "duration": 0.09677400000001057,
          "durationTicks": 96,
          "midi": 36,
          "name": "C2",
          "ticks": 229632,
          "time": 231.483408,
          "velocity": 0.3937007874015748
        },
        {
          "duration": 0.09677400000001057,
          "durationTicks": 96,
          "midi": 38,
          "name": "D2",
          "ticks": 229824,
          "time": 231.676956,
          "velocity": 0.3937007874015748
        },
        {
          "duration": 0.09677399999998215,
          "durationTicks": 96,
          "midi": 36,
          "name": "C2",
          "ticks": 230016,
          "time": 231.870504,
          "velocity": 0.3937007874015748
        },
        {
          "duration": 0.09677399999998215,
          "durationTicks": 96,
          "midi": 38,
          "name": "D2",
          "ticks": 230208,
          "time": 232.064052,
          "velocity": 0.3937007874015748
        },
        {
          "duration": 0.09677400000001057,
          "durationTicks": 96,
          "midi": 36,
          "name": "C2",
          "ticks": 230400,
          "time": 232.2576,
          "velocity": 0.3937007874015748
        },
        {
          "duration": 0.09677400000001057,
          "durationTicks": 96,
          "midi": 36,
          "name": "C2",
          "ticks": 230400,
          "time": 232.2576,
          "velocity": 0.3937007874015748
        },
        {
          "duration": 0.09677400000001057,
          "durationTicks": 96,
          "midi": 38,
          "name": "D2",
          "ticks": 230592,
          "time": 232.451148,
          "velocity": 0.3937007874015748
        },
        {
          "duration": 0.09677400000001057,
          "durationTicks": 96,
          "midi": 38,
          "name": "D2",
          "ticks": 230592,
          "time": 232.451148,
          "velocity": 0.3937007874015748
        },
        {
          "duration": 0.09677399999998215,
          "durationTicks": 96,
          "midi": 36,
          "name": "C2",
          "ticks": 230784,
          "time": 232.644696,
          "velocity": 0.3937007874015748
        },
        {
          "duration": 0.09677399999998215,
          "durationTicks": 96,
          "midi": 36,
          "name": "C2",
          "ticks": 230784,
          "time": 232.644696,
          "velocity": 0.3937007874015748
        },
        {
          "duration": 0.09677399999998215,
          "durationTicks": 96,
          "midi": 38,
          "name": "D2",
          "ticks": 230976,
          "time": 232.838244,
          "velocity": 0.3937007874015748
        },
        {
          "duration": 0.09677399999998215,
          "durationTicks": 96,
          "midi": 38,
          "name": "D2",
          "ticks": 230976,
          "time": 232.838244,
          "velocity": 0.3937007874015748
        },
        {
          "duration": 0.09677400000001057,
          "durationTicks": 96,
          "midi": 36,
          "name": "C2",
          "ticks": 231168,
          "time": 233.031792,
          "velocity": 0.3937007874015748
        },
        {
          "duration": 0.09677400000001057,
          "durationTicks": 96,
          "midi": 36,
          "name": "C2",
          "ticks": 231168,
          "time": 233.031792,
          "velocity": 0.3937007874015748
        },
        {
          "duration": 0.09677400000001057,
          "durationTicks": 96,
          "midi": 38,
          "name": "D2",
          "ticks": 231360,
          "time": 233.22534,
          "velocity": 0.3937007874015748
        },
        {
          "duration": 0.09677400000001057,
          "durationTicks": 96,
          "midi": 38,
          "name": "D2",
          "ticks": 231360,
          "time": 233.22534,
          "velocity": 0.3937007874015748
        },
        {
          "duration": 0.09677399999998215,
          "durationTicks": 96,
          "midi": 36,
          "name": "C2",
          "ticks": 231552,
          "time": 233.418888,
          "velocity": 0.3937007874015748
        },
        {
          "duration": 0.09677399999998215,
          "durationTicks": 96,
          "midi": 36,
          "name": "C2",
          "ticks": 231552,
          "time": 233.418888,
          "velocity": 0.3937007874015748
        },
        {
          "duration": 0.09677399999998215,
          "durationTicks": 96,
          "midi": 38,
          "name": "D2",
          "ticks": 231744,
          "time": 233.612436,
          "velocity": 0.3937007874015748
        },
        {
          "duration": 0.09677399999998215,
          "durationTicks": 96,
          "midi": 38,
          "name": "D2",
          "ticks": 231744,
          "time": 233.612436,
          "velocity": 0.3937007874015748
        },
        {
          "duration": 0.09677400000001057,
          "durationTicks": 96,
          "midi": 36,
          "name": "C2",
          "ticks": 231936,
          "time": 233.805984,
          "velocity": 0.3937007874015748
        },
        {
          "duration": 0.09677400000001057,
          "durationTicks": 96,
          "midi": 36,
          "name": "C2",
          "ticks": 231936,
          "time": 233.805984,
          "velocity": 0.3937007874015748
        },
        {
          "duration": 0.09677400000001057,
          "durationTicks": 96,
          "midi": 38,
          "name": "D2",
          "ticks": 232128,
          "time": 233.999532,
          "velocity": 0.3937007874015748
        },
        {
          "duration": 0.09677400000001057,
          "durationTicks": 96,
          "midi": 38,
          "name": "D2",
          "ticks": 232128,
          "time": 233.999532,
          "velocity": 0.3937007874015748
        },
        {
          "duration": 0.09677399999998215,
          "durationTicks": 96,
          "midi": 36,
          "name": "C2",
          "ticks": 232320,
          "time": 234.19308,
          "velocity": 0.3937007874015748
        },
        {
          "duration": 0.09677399999998215,
          "durationTicks": 96,
          "midi": 36,
          "name": "C2",
          "ticks": 232320,
          "time": 234.19308,
          "velocity": 0.3937007874015748
        },
        {
          "duration": 0.09677399999998215,
          "durationTicks": 96,
          "midi": 38,
          "name": "D2",
          "ticks": 232512,
          "time": 234.386628,
          "velocity": 0.3937007874015748
        },
        {
          "duration": 0.09677399999998215,
          "durationTicks": 96,
          "midi": 38,
          "name": "D2",
          "ticks": 232512,
          "time": 234.386628,
          "velocity": 0.3937007874015748
        },
        {
          "duration": 0.09677400000001057,
          "durationTicks": 96,
          "midi": 36,
          "name": "C2",
          "ticks": 232704,
          "time": 234.580176,
          "velocity": 0.3937007874015748
        },
        {
          "duration": 0.09677400000001057,
          "durationTicks": 96,
          "midi": 36,
          "name": "C2",
          "ticks": 232704,
          "time": 234.580176,
          "velocity": 0.3937007874015748
        },
        {
          "duration": 0.09677400000001057,
          "durationTicks": 96,
          "midi": 38,
          "name": "D2",
          "ticks": 232896,
          "time": 234.773724,
          "velocity": 0.3937007874015748
        },
        {
          "duration": 0.09677400000001057,
          "durationTicks": 96,
          "midi": 38,
          "name": "D2",
          "ticks": 232896,
          "time": 234.773724,
          "velocity": 0.3937007874015748
        },
        {
          "duration": 0.09677399999998215,
          "durationTicks": 96,
          "midi": 36,
          "name": "C2",
          "ticks": 233088,
          "time": 234.967272,
          "velocity": 0.3937007874015748
        },
        {
          "duration": 0.09677399999998215,
          "durationTicks": 96,
          "midi": 36,
          "name": "C2",
          "ticks": 233088,
          "time": 234.967272,
          "velocity": 0.3937007874015748
        },
        {
          "duration": 0.09677399999998215,
          "durationTicks": 96,
          "midi": 38,
          "name": "D2",
          "ticks": 233280,
          "time": 235.16082,
          "velocity": 0.3937007874015748
        },
        {
          "duration": 0.09677399999998215,
          "durationTicks": 96,
          "midi": 38,
          "name": "D2",
          "ticks": 233280,
          "time": 235.16082,
          "velocity": 0.3937007874015748
        },
        {
          "duration": 0.09677400000001057,
          "durationTicks": 96,
          "midi": 36,
          "name": "C2",
          "ticks": 233472,
          "time": 235.354368,
          "velocity": 0.3937007874015748
        },
        {
          "duration": 0.09677400000001057,
          "durationTicks": 96,
          "midi": 36,
          "name": "C2",
          "ticks": 233472,
          "time": 235.354368,
          "velocity": 0.3937007874015748
        },
        {
          "duration": 0.09677400000001057,
          "durationTicks": 96,
          "midi": 38,
          "name": "D2",
          "ticks": 233664,
          "time": 235.547916,
          "velocity": 0.3937007874015748
        },
        {
          "duration": 0.09677400000001057,
          "durationTicks": 96,
          "midi": 38,
          "name": "D2",
          "ticks": 233664,
          "time": 235.547916,
          "velocity": 0.3937007874015748
        },
        {
          "duration": 0.09677399999998215,
          "durationTicks": 96,
          "midi": 36,
          "name": "C2",
          "ticks": 233856,
          "time": 235.741464,
          "velocity": 0.3937007874015748
        },
        {
          "duration": 0.09677399999998215,
          "durationTicks": 96,
          "midi": 36,
          "name": "C2",
          "ticks": 233856,
          "time": 235.741464,
          "velocity": 0.3937007874015748
        },
        {
          "duration": 0.09677400000001057,
          "durationTicks": 96,
          "midi": 38,
          "name": "D2",
          "ticks": 234048,
          "time": 235.935012,
          "velocity": 0.3937007874015748
        },
        {
          "duration": 0.09677400000001057,
          "durationTicks": 96,
          "midi": 38,
          "name": "D2",
          "ticks": 234048,
          "time": 235.935012,
          "velocity": 0.3937007874015748
        },
        {
          "duration": 0.09677400000001057,
          "durationTicks": 96,
          "midi": 36,
          "name": "C2",
          "ticks": 234240,
          "time": 236.12856,
          "velocity": 0.3937007874015748
        },
        {
          "duration": 0.09677400000001057,
          "durationTicks": 96,
          "midi": 36,
          "name": "C2",
          "ticks": 234240,
          "time": 236.12856,
          "velocity": 0.3937007874015748
        },
        {
          "duration": 0.09677400000001057,
          "durationTicks": 96,
          "midi": 38,
          "name": "D2",
          "ticks": 234432,
          "time": 236.322108,
          "velocity": 0.3937007874015748
        },
        {
          "duration": 0.09677400000001057,
          "durationTicks": 96,
          "midi": 38,
          "name": "D2",
          "ticks": 234432,
          "time": 236.322108,
          "velocity": 0.3937007874015748
        },
        {
          "duration": 0.09677399999998215,
          "durationTicks": 96,
          "midi": 36,
          "name": "C2",
          "ticks": 234624,
          "time": 236.515656,
          "velocity": 0.3937007874015748
        },
        {
          "duration": 0.09677399999998215,
          "durationTicks": 96,
          "midi": 36,
          "name": "C2",
          "ticks": 234624,
          "time": 236.515656,
          "velocity": 0.3937007874015748
        },
        {
          "duration": 0.09677400000001057,
          "durationTicks": 96,
          "midi": 38,
          "name": "D2",
          "ticks": 234816,
          "time": 236.709204,
          "velocity": 0.3937007874015748
        },
        {
          "duration": 0.09677400000001057,
          "durationTicks": 96,
          "midi": 38,
          "name": "D2",
          "ticks": 234816,
          "time": 236.709204,
          "velocity": 0.3937007874015748
        },
        {
          "duration": 0.09677400000001057,
          "durationTicks": 96,
          "midi": 36,
          "name": "C2",
          "ticks": 235008,
          "time": 236.902752,
          "velocity": 0.3937007874015748
        },
        {
          "duration": 0.09677400000001057,
          "durationTicks": 96,
          "midi": 36,
          "name": "C2",
          "ticks": 235008,
          "time": 236.902752,
          "velocity": 0.3937007874015748
        },
        {
          "duration": 0.09677400000001057,
          "durationTicks": 96,
          "midi": 38,
          "name": "D2",
          "ticks": 235200,
          "time": 237.09629999999999,
          "velocity": 0.3937007874015748
        },
        {
          "duration": 0.09677400000001057,
          "durationTicks": 96,
          "midi": 38,
          "name": "D2",
          "ticks": 235200,
          "time": 237.09629999999999,
          "velocity": 0.3937007874015748
        },
        {
          "duration": 0.09677399999998215,
          "durationTicks": 96,
          "midi": 36,
          "name": "C2",
          "ticks": 235392,
          "time": 237.289848,
          "velocity": 0.3937007874015748
        },
        {
          "duration": 0.09677399999998215,
          "durationTicks": 96,
          "midi": 36,
          "name": "C2",
          "ticks": 235392,
          "time": 237.289848,
          "velocity": 0.3937007874015748
        },
        {
          "duration": 0.09677400000001057,
          "durationTicks": 96,
          "midi": 38,
          "name": "D2",
          "ticks": 235584,
          "time": 237.483396,
          "velocity": 0.3937007874015748
        },
        {
          "duration": 0.09677400000001057,
          "durationTicks": 96,
          "midi": 38,
          "name": "D2",
          "ticks": 235584,
          "time": 237.483396,
          "velocity": 0.3937007874015748
        },
        {
          "duration": 0.09677400000001057,
          "durationTicks": 96,
          "midi": 36,
          "name": "C2",
          "ticks": 235776,
          "time": 237.676944,
          "velocity": 0.3937007874015748
        },
        {
          "duration": 0.09677400000001057,
          "durationTicks": 96,
          "midi": 36,
          "name": "C2",
          "ticks": 235776,
          "time": 237.676944,
          "velocity": 0.3937007874015748
        },
        {
          "duration": 0.09677400000001057,
          "durationTicks": 96,
          "midi": 38,
          "name": "D2",
          "ticks": 235968,
          "time": 237.87049199999998,
          "velocity": 0.3937007874015748
        },
        {
          "duration": 0.09677400000001057,
          "durationTicks": 96,
          "midi": 38,
          "name": "D2",
          "ticks": 235968,
          "time": 237.87049199999998,
          "velocity": 0.3937007874015748
        },
        {
          "duration": 0.09677399999998215,
          "durationTicks": 96,
          "midi": 36,
          "name": "C2",
          "ticks": 236160,
          "time": 238.06404,
          "velocity": 0.3937007874015748
        },
        {
          "duration": 0.09677399999998215,
          "durationTicks": 96,
          "midi": 36,
          "name": "C2",
          "ticks": 236160,
          "time": 238.06404,
          "velocity": 0.3937007874015748
        },
        {
          "duration": 0.09677400000001057,
          "durationTicks": 96,
          "midi": 38,
          "name": "D2",
          "ticks": 236352,
          "time": 238.257588,
          "velocity": 0.3937007874015748
        },
        {
          "duration": 0.09677400000001057,
          "durationTicks": 96,
          "midi": 38,
          "name": "D2",
          "ticks": 236352,
          "time": 238.257588,
          "velocity": 0.3937007874015748
        },
        {
          "duration": 0.09677400000001057,
          "durationTicks": 96,
          "midi": 36,
          "name": "C2",
          "ticks": 236544,
          "time": 238.451136,
          "velocity": 0.3937007874015748
        },
        {
          "duration": 0.09677400000001057,
          "durationTicks": 96,
          "midi": 38,
          "name": "D2",
          "ticks": 236736,
          "time": 238.64468399999998,
          "velocity": 0.3937007874015748
        },
        {
          "duration": 0.09677399999998215,
          "durationTicks": 96,
          "midi": 36,
          "name": "C2",
          "ticks": 236928,
          "time": 238.838232,
          "velocity": 0.3937007874015748
        },
        {
          "duration": 0.09677400000001057,
          "durationTicks": 96,
          "midi": 38,
          "name": "D2",
          "ticks": 237120,
          "time": 239.03178,
          "velocity": 0.3937007874015748
        },
        {
          "duration": 0.09677400000001057,
          "durationTicks": 96,
          "midi": 36,
          "name": "C2",
          "ticks": 237312,
          "time": 239.225328,
          "velocity": 0.3937007874015748
        },
        {
          "duration": 0.09677400000001057,
          "durationTicks": 96,
          "midi": 38,
          "name": "D2",
          "ticks": 237504,
          "time": 239.41887599999998,
          "velocity": 0.3937007874015748
        },
        {
          "duration": 0.09677399999998215,
          "durationTicks": 96,
          "midi": 36,
          "name": "C2",
          "ticks": 237696,
          "time": 239.612424,
          "velocity": 0.3937007874015748
        },
        {
          "duration": 0.09677400000001057,
          "durationTicks": 96,
          "midi": 38,
          "name": "D2",
          "ticks": 237888,
          "time": 239.805972,
          "velocity": 0.3937007874015748
        },
        {
          "duration": 0.09677400000001057,
          "durationTicks": 96,
          "midi": 36,
          "name": "C2",
          "ticks": 238080,
          "time": 239.99952,
          "velocity": 0.3937007874015748
        },
        {
          "duration": 0.09677399999998215,
          "durationTicks": 96,
          "midi": 38,
          "name": "D2",
          "ticks": 238272,
          "time": 240.193068,
          "velocity": 0.3937007874015748
        },
        {
          "duration": 0.09677399999998215,
          "durationTicks": 96,
          "midi": 36,
          "name": "C2",
          "ticks": 238464,
          "time": 240.386616,
          "velocity": 0.3937007874015748
        },
        {
          "duration": 0.09677400000001057,
          "durationTicks": 96,
          "midi": 38,
          "name": "D2",
          "ticks": 238656,
          "time": 240.580164,
          "velocity": 0.3937007874015748
        },
        {
          "duration": 0.09677400000001057,
          "durationTicks": 96,
          "midi": 36,
          "name": "C2",
          "ticks": 238848,
          "time": 240.773712,
          "velocity": 0.3937007874015748
        },
        {
          "duration": 0.09677399999998215,
          "durationTicks": 96,
          "midi": 38,
          "name": "D2",
          "ticks": 239040,
          "time": 240.96726,
          "velocity": 0.3937007874015748
        },
        {
          "duration": 0.09677399999998215,
          "durationTicks": 96,
          "midi": 36,
          "name": "C2",
          "ticks": 239232,
          "time": 241.160808,
          "velocity": 0.3937007874015748
        },
        {
          "duration": 0.09677400000001057,
          "durationTicks": 96,
          "midi": 38,
          "name": "D2",
          "ticks": 239424,
          "time": 241.354356,
          "velocity": 0.3937007874015748
        },
        {
          "duration": 0.09677400000001057,
          "durationTicks": 96,
          "midi": 36,
          "name": "C2",
          "ticks": 239616,
          "time": 241.547904,
          "velocity": 0.3937007874015748
        },
        {
          "duration": 0.09677399999998215,
          "durationTicks": 96,
          "midi": 38,
          "name": "D2",
          "ticks": 239808,
          "time": 241.741452,
          "velocity": 0.3937007874015748
        },
        {
          "duration": 0.09677399999998215,
          "durationTicks": 96,
          "midi": 36,
          "name": "C2",
          "ticks": 240000,
          "time": 241.935,
          "velocity": 0.3937007874015748
        },
        {
          "duration": 0.09677400000001057,
          "durationTicks": 96,
          "midi": 38,
          "name": "D2",
          "ticks": 240192,
          "time": 242.128548,
          "velocity": 0.3937007874015748
        },
        {
          "duration": 0.09677400000001057,
          "durationTicks": 96,
          "midi": 36,
          "name": "C2",
          "ticks": 240384,
          "time": 242.322096,
          "velocity": 0.3937007874015748
        },
        {
          "duration": 0.09677399999998215,
          "durationTicks": 96,
          "midi": 38,
          "name": "D2",
          "ticks": 240576,
          "time": 242.515644,
          "velocity": 0.3937007874015748
        },
        {
          "duration": 0.09677399999998215,
          "durationTicks": 96,
          "midi": 36,
          "name": "C2",
          "ticks": 240768,
          "time": 242.709192,
          "velocity": 0.3937007874015748
        },
        {
          "duration": 0.09677400000001057,
          "durationTicks": 96,
          "midi": 38,
          "name": "D2",
          "ticks": 240960,
          "time": 242.90274,
          "velocity": 0.3937007874015748
        },
        {
          "duration": 0.09677400000001057,
          "durationTicks": 96,
          "midi": 36,
          "name": "C2",
          "ticks": 241152,
          "time": 243.096288,
          "velocity": 0.3937007874015748
        },
        {
          "duration": 0.09677399999998215,
          "durationTicks": 96,
          "midi": 38,
          "name": "D2",
          "ticks": 241536,
          "time": 243.483384,
          "velocity": 0.3937007874015748
        },
        {
          "duration": 0.09677400000001057,
          "durationTicks": 96,
          "midi": 36,
          "name": "C2",
          "ticks": 241920,
          "time": 243.87048,
          "velocity": 0.3937007874015748
        },
        {
          "duration": 0.09677400000001057,
          "durationTicks": 96,
          "midi": 38,
          "name": "D2",
          "ticks": 242304,
          "time": 244.257576,
          "velocity": 0.3937007874015748
        }
      ],
      "endOfTrackTicks": 242400
    }
  ]
}